<svg xmlns="http://www.w3.org/2000/svg" viewBox="0 0 100 100">
  <title>asparagus_icon</title>
  <g id="Layer_2" data-name="Layer 2">
    <g id="Layer_1-2" data-name="Layer 1">
      <rect width="100" height="100" style="fill: #fff"/>
      <g style="opacity: 0.5">
        <rect width="100" height="100" style="fill: #fff"/>
      </g>
      <g>
        <path d="M75.2,56.17a8,8,0,0,1-.69,3.16,8,8,0,0,1,3.16-.69,7.12,7.12,0,0,1,2.57.51,4.07,4.07,0,0,0,.36-.84l2.15-7.21-7.21,2.15a4.06,4.06,0,0,0-.84.36A7.12,7.12,0,0,1,75.2,56.17Z" style="fill: #a5dc69"/>
        <path d="M87.36,52a4.07,4.07,0,0,0,.36-.84L89.87,44l-7.21,2.15a4.06,4.06,0,0,0-.84.36l-1.58,5.08L83,50.79l-.65,2.81Z" style="fill: #d7fa91"/>
        <g>
          <path d="M72.31,50s1.75-4.75,9.55-5.76a37.57,37.57,0,0,0-2,7.55l-5.13,1.86L72.31,50" style="fill: #a5dc69"/>
          <path d="M83.88,61.53s4.75-1.75,5.76-9.55a37.57,37.57,0,0,1-7.55,2l-1.86,5.13,3.65,2.38" style="fill: #a5dc69"/>
        </g>
        <g>
          <path d="M63.5,65.59l2.86-2.86a4,4,0,0,0,1-4.12,7.67,7.67,0,0,1-.41-2.43c0-4,3.86-7.29,4.12-7.29s4.12,3.27,4.12,7.29a8,8,0,0,1-.69,3.16,8,8,0,0,1,3.16-.69c4,0,7.29,3.93,7.29,4.12s-3.27,4.12-7.29,4.12a7.79,7.79,0,0,1-2.73-.52,4.1,4.1,0,0,0-4.35.91l-9.44,9.44c3.63-2.13,5.79-.24,5.79-.24A11.63,11.63,0,0,1,56,81.85l-8,8-8.66-.11L56.52,72.57" style="fill: #46c373"/>
          <path d="M61.63,69.18A5.28,5.28,0,0,0,62.72,63c-5,3.06-6.36,6.63-5.53,9.47" style="fill: #46c373"/>
        </g>
        <g>
          <path d="M27.88,28.18a8,8,0,0,1,1,3.08,8,8,0,0,1,2.39-2.18,7.12,7.12,0,0,1,2.48-.84,4.07,4.07,0,0,0-.11-.91L31.87,20,26.7,25.48a4.06,4.06,0,0,0-.55.73A7.12,7.12,0,0,1,27.88,28.18Z" style="fill: #a5dc69"/>
          <path d="M22.62,46.22a5.28,5.28,0,0,0-2.11-5.86c-2.78,5.15-2.19,8.92-.06,11" style="fill: #a5dc69"/>
        </g>
        <path d="M36.33,18.5a4.07,4.07,0,0,0-.11-.91l-1.74-7.32-5.17,5.47a4.06,4.06,0,0,0-.55.73l.91,4.4L32,19.36l.54,2.39Z" style="fill: #d7fa91"/>
        <path d="M38.07,28.47s3.23-3.89.21-11.15a37.57,37.57,0,0,1-5.52,5.54l1,5.38,4.35.24" style="fill: #a5dc69"/>
        <path d="M20.46,73.06,24.11,60a11.63,11.63,0,0,0,6.77-10.1S28.07,49.34,26,53l3.45-12.89a4.1,4.1,0,0,1,3.31-3,7.79,7.79,0,0,0,2.62-.92c3.49-2,4.39-7,4.25-7.22s-4.89-1.94-8.38.07a8,8,0,0,0-2.39,2.18,8,8,0,0,0-1-3.08c-2-3.49-7-4.35-7.22-4.25s-1.94,4.89.07,8.38a7.67,7.67,0,0,0,1.57,1.9,4,4,0,0,1,1.2,4.07l-1,3.91L19.9,51.72,10.13,88.26l6,1.61L17.64,84" style="fill: #46c373"/>
        <g>
          <path d="M29.67,22a37.57,37.57,0,0,1-2-7.56c-6.24,4.78-5.39,9.76-5.39,9.76L26,25.63Z" style="fill: #a5dc69"/>
          <path d="M71.49,25.42a10,10,0,0,1-.86,4,10,10,0,0,1,4-.86,8.92,8.92,0,0,1,3.22.64,5.1,5.1,0,0,0,.45-1.05l2.7-9-9,2.7a5.09,5.09,0,0,0-1.05.45A8.92,8.92,0,0,1,71.49,25.42Z" style="fill: #a5dc69"/>
        </g>
        <path d="M79.78,13.28a5.1,5.1,0,0,1,1.05-.45l9-2.7-2.7,9a5.09,5.09,0,0,1-.45,1.05l-6.6,2.49,1.69-4.21-4,1.37Z" style="fill: #d7fa91"/>
        <path d="M67.87,17.63s2.2-5.95,12-7.22a47.08,47.08,0,0,0-2.55,9.46" style="fill: #a5dc69"/>
        <g>
          <path d="M67.87,17.63s2.2-5.95,12-7.22a47.08,47.08,0,0,0-2.55,9.46L70.85,22.2l-3-4.57" style="fill: #46c373"/>
          <path d="M82.36,32.13s5.95-2.2,7.22-12a47.08,47.08,0,0,1-9.46,2.55l-2.33,6.43,4.57,3" style="fill: #46c373"/>
        </g>
        <g>
          <path d="M48.08,46,14.24,79.81l5.5,5.5L47.46,57.59a14.58,14.58,0,0,0,13.68-6.72s-2.71-2.36-7.26.3L65.71,39.35a5.14,5.14,0,0,1,5.45-1.14,9.76,9.76,0,0,0,3.42.65c5,0,9.14-4.83,9.14-5.17s-4.09-5.17-9.14-5.17a10,10,0,0,0-4,.86,10,10,0,0,0,.86-4c0-5-4.92-9.14-5.17-9.14s-5.17,4.09-5.17,9.14a9.61,9.61,0,0,0,.52,3,5.05,5.05,0,0,1-1.25,5.16l-3.59,3.59" style="fill: #a5dc69"/>
          <path d="M54.48,41.71A6.61,6.61,0,0,0,55.85,34c-6.25,3.84-8,8.31-6.93,11.86Z" style="fill: #a5dc69"/>
        </g>
        <path d="M34.87,68.56A1.62,1.62,0,1,0,36,69,1.63,1.63,0,0,0,34.87,68.56Z"/>
        <path d="M29,73.78,19.74,83l-3.21-3.21L48.83,47.51h.09a1.62,1.62,0,0,0,1.56-2.07c-.85-2.91.77-6.06,4.45-8.83a5.06,5.06,0,0,1-1.54,3.9,1.62,1.62,0,0,0,2.18,2.4,8.5,8.5,0,0,0,2.49-4.62l3.51-3.51A6.72,6.72,0,0,0,63.2,28a8,8,0,0,1-.43-2.53c0-3.08,2.29-5.85,3.53-7.06,1.27,1.24,3.56,4,3.56,7.06a8.37,8.37,0,0,1-.73,3.31,1.62,1.62,0,0,0,2.13,2.13,8.37,8.37,0,0,1,3.31-.73c3,0,5.82,2.3,7.06,3.56-1.22,1.24-4,3.53-7.06,3.53a8.14,8.14,0,0,1-2.85-.54,6.79,6.79,0,0,0-7.17,1.52L52.8,50l0,0,0,0-.06.06h0a1.61,1.61,0,0,0,2.14,2.41,6.07,6.07,0,0,1,3.81-.94,13.08,13.08,0,0,1-11,4.41,1.63,1.63,0,0,0-1.26.47l-7.82,7.82a1.62,1.62,0,1,0,2.29,2.29l7.32-7.32h.59a16,16,0,0,0,13.86-7.6,1.62,1.62,0,0,0-.35-2,6.38,6.38,0,0,0-3.2-1.3l7.85-7.85a3.54,3.54,0,0,1,3.74-.77,11.38,11.38,0,0,0,4,.75A12.69,12.69,0,0,0,82,37.68a16.72,16.72,0,0,0,2.17-2c1-1,1.15-1.53,1.15-2a1.83,1.83,0,0,0-.44-1.17c2.14-1.58,5.37-5.07,6.29-12.14A1.62,1.62,0,0,0,89,18.65l2.41-8.06a1.62,1.62,0,0,0-2-2L81.35,11a1.62,1.62,0,0,0-1.72-2.18C72.56,9.73,69.07,13,67.49,15.1a1.83,1.83,0,0,0-1.17-.44c-.52,0-1,.18-2,1.15a16.73,16.73,0,0,0-2,2.17,12.69,12.69,0,0,0-2.79,7.44,11.23,11.23,0,0,0,.6,3.56,3.45,3.45,0,0,1-.86,3.5l-1.62,1.62c-.1-.26-.21-.52-.34-.79A1.62,1.62,0,0,0,55,32.65a18.14,18.14,0,0,0-6.78,6.66,9.62,9.62,0,0,0-1.17,5.4l-.12.11L23.48,68.28l2-7.17a13.15,13.15,0,0,0,7-11.25,1.62,1.62,0,0,0-1.31-1.56,5.24,5.24,0,0,0-2.32.18l2.13-8a2.5,2.5,0,0,1,2-1.79,9.4,9.4,0,0,0,3.16-1.11,10.45,10.45,0,0,0,4.17-5.05,13.69,13.69,0,0,0,.74-2.27A2.71,2.71,0,0,0,41,28.2a1.63,1.63,0,0,0-.64-.63c.83-2.08,1.51-5.77-.61-10.87a1.62,1.62,0,0,0-2.3-.79l-1.43-6a1.62,1.62,0,0,0-2.76-.74l-4.25,4.49a1.62,1.62,0,0,0-2.38-.47c-4.39,3.36-5.64,6.89-6,9.11a1.63,1.63,0,0,0-.86.22c-.5.29-.78.74-1.11,1.8a13.67,13.67,0,0,0-.5,2.34,10.45,10.45,0,0,0,1.08,6.46,9.29,9.29,0,0,0,1.9,2.3,2.43,2.43,0,0,1,.71,2.43l-.35,1.3L21.42,39a1.62,1.62,0,0,0-2.33.57A14.8,14.8,0,0,0,17,47.07a8,8,0,0,0,1.31,4.24L8.57,87.85a1.62,1.62,0,0,0,1.15,2l6,1.61a1.62,1.62,0,0,0,2-1.16l1-3.76a1.62,1.62,0,0,0,2.22-.06L31.28,76.07A1.62,1.62,0,1,0,29,73.78ZM73,27a10.63,10.63,0,0,0,.12-1.59,9.92,9.92,0,0,0-.27-2.25l5.69-1.7-1.7,5.69a9.92,9.92,0,0,0-2.25-.27A10.63,10.63,0,0,0,73,27Zm9.61,3.16L82,29.71a16.1,16.1,0,0,0-2.16-1.39l1.23-4.13a52.21,52.21,0,0,0,6.36-1.54C86.25,27.28,83.86,29.36,82.6,30.17Zm3-11.47a3.49,3.49,0,0,1-.31.72,1.61,1.61,0,0,0-.19.54c-1.1.3-2.12.54-3,.73l.35-1.16a1.62,1.62,0,0,0-2-2l-1.16.35c.18-.85.42-1.88.73-3a1.61,1.61,0,0,0,.54-.19,3.48,3.48,0,0,1,.72-.31l6.16-1.84Zm-8.27-6.16A52.21,52.21,0,0,0,75.8,18.9l-4.13,1.23A16.14,16.14,0,0,0,70.28,18l-.46-.58C70.63,16.14,72.72,13.75,77.35,12.54ZM37.27,26.67l-.35,0a13.33,13.33,0,0,0-1.83-.11l-.69-2.89a42.68,42.68,0,0,0,3.24-3.06A9.38,9.38,0,0,1,37.27,26.67ZM31,23.3,31.88,27a8.13,8.13,0,0,0-1.44.65,8.74,8.74,0,0,0-.75.49,8.73,8.73,0,0,0-.41-.8,8.13,8.13,0,0,0-.92-1.28Zm-.5-6.44,3.11-3.29,1,4.4a2.45,2.45,0,0,1,.07.55,1.62,1.62,0,0,0,0,.35c-.42.43-.83.82-1.21,1.16l-.1-.4a1.62,1.62,0,0,0-2.76-.74l-.28.3c-.15-.49-.31-1-.46-1.61a1.62,1.62,0,0,0,.21-.28A2.45,2.45,0,0,1,30.49,16.86Zm-3.88.74a42.71,42.71,0,0,0,1.28,4.27l-2,2.16a13.31,13.31,0,0,0-1.64-.82l-.33-.13A9.38,9.38,0,0,1,26.61,17.6Zm-5.66,25.7a3.84,3.84,0,0,1,.13,2.45h0l3.08,1a7.14,7.14,0,0,0-.1-4.3l1-3.73A5.69,5.69,0,0,0,23.38,33a6.05,6.05,0,0,1-1.24-1.5,8.15,8.15,0,0,1-.43-5.73c1.38.4,3.69,1.36,4.77,3.22a6.36,6.36,0,0,1,.78,2.46,1.62,1.62,0,0,0,2.91.78,6.35,6.35,0,0,1,1.9-1.74c1.87-1.08,4.35-.75,5.74-.41a8.15,8.15,0,0,1-3.24,4.74,6.17,6.17,0,0,1-2.08.72,5.74,5.74,0,0,0-4.61,4.15L24.42,52.58h0l0,.06h0a1.62,1.62,0,0,0,1.14,2,1.64,1.64,0,0,0,1.88-.9A5.27,5.27,0,0,1,28.94,52a10.1,10.1,0,0,1-5.55,6.54,1.62,1.62,0,0,0-.85,1L18.9,72.63a1.63,1.63,0,0,0-.05.28l-4,4L21.32,52.7a1.62,1.62,0,0,0,.26-2.54C20,48.69,19.84,46.25,20.94,43.29ZM15,87.88l-2.85-.76,1.51-5.64L16,83.86Z"/>
        <path d="M89.4,42.42l-5.92,1.77a1.62,1.62,0,0,0-1.83-1.6c-5.48.71-8.33,3.15-9.72,4.91a1.63,1.63,0,0,0-.86-.24c-.58,0-1,.25-1.86,1A13.67,13.67,0,0,0,67.62,50a10.45,10.45,0,0,0-2.29,6.13,9.29,9.29,0,0,0,.5,2.95,2.43,2.43,0,0,1-.6,2.46l-1,1-.09-.19a1.62,1.62,0,0,0-2.31-.67,14.8,14.8,0,0,0-5.53,5.44,8,8,0,0,0-1,4.33l-13,13a1.62,1.62,0,1,0,2.29,2.29L57.25,74.13a1.61,1.61,0,0,0,1.49-2.07c-.59-2,.45-4.25,2.89-6.26A3.84,3.84,0,0,1,60.53,68h0l2.17,2.41a7.14,7.14,0,0,0,2.07-3.77l2.73-2.73a5.69,5.69,0,0,0,1.39-5.78,6.06,6.06,0,0,1-.33-1.92A8.15,8.15,0,0,1,71.06,51c1,1,2.52,3,2.52,5.18A6.36,6.36,0,0,1,73,58.69a1.62,1.62,0,0,0,2.13,2.13,6.35,6.35,0,0,1,2.51-.56c2.16,0,4.14,1.52,5.18,2.52a8.15,8.15,0,0,1-5.18,2.49,6.17,6.17,0,0,1-2.16-.41,5.75,5.75,0,0,0-6.07,1.29L60,75.57h0l0,0h0a1.62,1.62,0,0,0,0,2.29,1.64,1.64,0,0,0,2.08.16,5.27,5.27,0,0,1,2.17-.75,10.13,10.13,0,0,1-8.07,2.89,1.62,1.62,0,0,0-1.26.47l-8,8A1.62,1.62,0,1,0,49.16,91l7.51-7.52H57a13.14,13.14,0,0,0,11.35-6.24,1.62,1.62,0,0,0-.35-2,5.24,5.24,0,0,0-2.1-1l5.83-5.83a2.5,2.5,0,0,1,2.64-.54,9.4,9.4,0,0,0,3.29.62,10.45,10.45,0,0,0,6.13-2.29,13.68,13.68,0,0,0,1.78-1.6c.75-.81,1-1.28,1-1.86a1.63,1.63,0,0,0-.24-.86c1.76-1.38,4.19-4.24,4.91-9.72a1.62,1.62,0,0,0-1.6-1.83l1.77-5.92a1.62,1.62,0,0,0-2-2Zm-3.24,8.3a2.44,2.44,0,0,1-.22.5,1.62,1.62,0,0,0-.14.33c-.58.16-1.13.29-1.63.4l.12-.4a1.62,1.62,0,0,0-2-2l-.4.12c.11-.5.25-1.05.4-1.63a1.63,1.63,0,0,0,.33-.14,2.44,2.44,0,0,1,.51-.22l4.34-1.3Zm-6.77-4.35a42.67,42.67,0,0,0-1,4.34l-2.85.85a13.33,13.33,0,0,0-1-1.53l-.22-.28A9.38,9.38,0,0,1,79.39,46.37ZM76.77,57.07a8.74,8.74,0,0,0,0-.89,8.13,8.13,0,0,0-.16-1.57l3.67-1.1-1.1,3.67A8.13,8.13,0,0,0,77.67,57,8.75,8.75,0,0,0,76.77,57.07Zm7.31,2.49-.28-.22a13.31,13.31,0,0,0-1.53-1l.85-2.85a42.69,42.69,0,0,0,4.34-1A9.38,9.38,0,0,1,84.09,59.56Z"/>
        <path d="M39.35,88.14a1.62,1.62,0,1,0,1.15.47A1.63,1.63,0,0,0,39.35,88.14Z"/>
      </g>
    </g>
  </g>
</svg>
