<svg xmlns="http://www.w3.org/2000/svg" viewBox="0 0 100 100">
  <title>basil_icon</title>
  <g id="Layer_2" data-name="Layer 2">
    <g id="Layer_1-2" data-name="Layer 1">
      <g style="opacity: 0.5">
        <rect width="100" height="100" style="fill: #fff"/>
      </g>
      <rect width="100" height="100" style="fill: #fff"/>
      <polygon points="59 69.5 71.33 90.17 67.17 91.75 59 69.5" style="fill: #37936e"/>
      <path d="M55.83,64.33s18.92,3.58,21.67.83.33-18.49-4.33-18.49c0,0,14.09-25.24,0-39.33C56.5,7.34,42,26.17,42,26.17S26.25,19.25,23,22.5s7.5,24.17,7.5,24.17a43.17,43.17,0,0,0-8,33.18C41.09,82.83,48,77.17,55.83,64.33Z" style="fill: #37936e"/>
      <path d="M49,47.58l7.5,2.83s9.67-11.92,6.42-16.58S47.71,37.21,46.5,38.42,47.92,45,49,47.58Z" style="fill: #46c373"/>
      <path d="M50.45,46.23l-5.35-6S31,46.4,31.77,52s15.06,4,16.68,3.49S50.22,49,50.45,46.23Z" style="fill: #46c373"/>
      <g>
        <path d="M68.45,93.19a4.49,4.49,0,0,1-1.73-.34,1.38,1.38,0,0,1-.69-.63A206.73,206.73,0,0,1,55.21,66.49l-.1.28C51.82,75.71,38,82.65,28.27,82.65a11.12,11.12,0,0,1-6.75-1.8l-.15-.13c-3.43-3.43-3-14.75.93-24.21A24.17,24.17,0,0,1,29,46.83a29.39,29.39,0,0,1-5.17-8.06C21.32,33.28,19,24.46,21,22.16c.29-.32,1.06-1.15,4.45-1.15a42.92,42.92,0,0,1,16.11,3.7C47.11,15,62.69,6.81,71.86,6.81a9.91,9.91,0,0,1,2.85.37,1.32,1.32,0,0,1,.35.16c5.53,3.57,7.65,18.35,4.26,29.82A25.16,25.16,0,0,1,75,45.93a27.59,27.59,0,0,1,3.24,4.85c3,5.69,3.28,11.13.88,14.53-1.25,1.92-6.58,2.21-9.65,2.21a44.66,44.66,0,0,1-9-.89A205.78,205.78,0,0,0,72.71,89.16a1.37,1.37,0,0,1,.07,1.36A5,5,0,0,1,68.45,93.19Zm-.25-2.76h.22a2.29,2.29,0,0,0,1.48-.61C68.6,87.77,64.57,81.17,60.47,73,63.81,81.57,67.2,88.45,68.2,90.43ZM31.06,48.67c-3,2.3-5.06,6.09-6.23,8.9C21.35,66,21.06,76.42,23.27,78.76a8.89,8.89,0,0,0,5,1.15c8.83,0,21.35-6.15,24.27-14.09,1.35-3.68.52-7.42-2.48-11.12-1.46,1.66-3.92,2.53-7.15,2.53l-.89,0c-5,5.13-12.66,14.36-13.35,17.46A1.37,1.37,0,1,1,26,74.08c.82-3.68,7.63-12,12.59-17.28-3.88-.72-7.92-2.29-8.44-4C30,52.12,30,51.13,31.51,49Zm24.82,13.7a35.51,35.51,0,0,0,13.54,2.41c4.73,0,7.13-.78,7.42-1.05,1.76-2.5,1.35-7-1.08-11.68s-7.28-9.79-12.52-10.41a26.14,26.14,0,0,1-.89,2.58,15.49,15.49,0,0,1-3.12,5c6.46,2.63,13.54,8.06,14.91,9.77A1.37,1.37,0,1,1,72,60.71c-1.26-1.57-9.47-7.74-15.62-9.61a5.74,5.74,0,0,1-1.9.33,6.75,6.75,0,0,1-2.94-.72A7.77,7.77,0,0,1,51.37,52C54.36,55.38,55.88,58.85,55.89,62.36ZM32.89,52a21.85,21.85,0,0,0,10,2.53c1.78,0,4.13-.31,5.24-1.77a5,5,0,0,0,.52-4.07l-.27-.25a11.18,11.18,0,0,1-3.27-5.18,3.3,3.3,0,0,0-.88-.12C39.56,43.1,33.66,50.19,32.89,52Zm25.33-18.3c-3.79,0-8.82,2.37-10.24,5.9-.89,2.21-.12,4.52,2.31,6.87,1.53,1.5,2.95,2.26,4.2,2.26,1.9,0,3.37-1.83,4.26-3.37,2.4-4.11,3-9.77,2.73-10.66A4.88,4.88,0,0,0,58.23,33.67ZM23,24c-.42,1.06.4,7.85,3.75,14.69C27.9,41,30.17,45,33.25,46.84c1.28-1.41,4.51-4.65,8.11-5.93C38.45,37,29.71,29,24.74,27.47a1.37,1.37,0,0,1,.4-2.68,1.39,1.39,0,0,1,.4.06c5.57,1.7,15.84,10.67,18.7,15.51a6.26,6.26,0,0,1,.71,0,7.66,7.66,0,0,1,.49-1.86,10.09,10.09,0,0,1,2.72-3.73,6.08,6.08,0,0,0-.44-1.47C44.9,27,31.93,23.75,25.46,23.75A7,7,0,0,0,23,24ZM63.9,38.94a17.31,17.31,0,0,1,9.16,4.94,23.58,23.58,0,0,0,3.63-7.49c2.92-9.89,1.39-23.52-3-26.64a7.69,7.69,0,0,0-1.87-.2C64.42,9.55,49.2,16.86,44,26c3.1,1.81,5.2,3.92,6.24,6.28.12.28.24.57.33.86A16.5,16.5,0,0,1,57,31c3.51-7.77,9-14.89,12.74-16.62a1.37,1.37,0,0,1,1.82.67,1.37,1.37,0,0,1-.67,1.82C68.38,18,63.57,23.75,60,31.09a6.3,6.3,0,0,1,3.54,1.79C64.64,34,64.29,36.93,63.9,38.94Z"/>
        <path d="M50.89,46.67a1.37,1.37,0,0,1-1.16-2.1c1.43-2.28,5.48-7.64,8.19-8.73a1.37,1.37,0,1,1,1,2.54C57.52,39,54.11,42.74,52,46A1.36,1.36,0,0,1,50.89,46.67Z"/>
        <path d="M36.5,52.32a1.37,1.37,0,0,1-.56-2.62c.26-.11,6.34-2.81,9.49-3.38l.25,0A1.37,1.37,0,0,1,45.93,49c-2.81.51-8.8,3.16-8.86,3.19A1.36,1.36,0,0,1,36.5,52.32Z"/>
      </g>
    </g>
  </g>
</svg>
