<svg xmlns="http://www.w3.org/2000/svg" viewBox="0 0 100 100">
  <title>beets_icon</title>
  <g id="Layer_2" data-name="Layer 2">
    <g id="Layer_1-2" data-name="Layer 1">
      <rect width="100" height="100" style="fill: #fff"/>
      <g style="opacity: 0.5">
        <rect width="100" height="100" style="fill: #fff"/>
      </g>
      <g>
        <path d="M54.63,42.82S41.11,24.15,48.19,17.07c4.51-4.51,9-1.29,9-1.29s0-7.72,6.44-7.72,7.72,5.15,7.72,5.15,3.86-3.86,7.72,0,2.57,5.15,2.57,5.15Z" style="fill: #46c373"/>
        <path d="M61.07,46.68s14.8,12.23,21.88,5.15c3.22-3.22,1.29-7.72,1.29-7.72S92,41.53,92,36.38s-5.15-7.72-5.15-7.72,1.93-5.79,0-7.72a11.54,11.54,0,0,0-5.15-2.57Z" style="fill: #46c373"/>
        <path d="M54.63,42.82s16.73,7.72,21.88,2.57-1.29-9-1.29-9,7.72,2.57,7.72-2.57-2.57-5.15-2.57-5.15,5.15-6.44,1.29-10.3-10.3,1.29-10.3,1.29-1.29-1.29-5.15-1.29-3.86,5.15-3.86,5.15S60.42,19,57.2,22.22,54.63,42.82,54.63,42.82Z" style="fill: #a5dc69"/>
        <path d="M40.79,90.45c8.69,0,19-11.59,19-20.6S56.56,39.92,29.85,39.92,11.67,76.13,14.08,78.54L7,93l11.59-7.08S32.1,90.45,40.79,90.45Z" style="fill: #843d6e"/>
        <path d="M48.19,58.94a35.25,35.25,0,0,1,6.63,9.9,1.36,1.36,0,1,1-2.5,1.08,32.81,32.81,0,0,0-6.05-9,1.37,1.37,0,0,1,1.92-2ZM27.12,51.32A1.36,1.36,0,0,0,26,53.77a26.62,26.62,0,0,1,7.81,6A1.36,1.36,0,0,0,35.85,58h0A28.94,28.94,0,0,0,27.12,51.32ZM39.62,74.9a1.36,1.36,0,1,0-1.92,1.92A23.48,23.48,0,0,1,42,83.25a1.36,1.36,0,1,0,2.5-1.08,26,26,0,0,0-4.89-7.27Zm6.13-18.45a1.42,1.42,0,0,0-1.92,0,1.35,1.35,0,0,0,0,1.92,1.36,1.36,0,0,0,1.93-1.92Zm-25.1,7a1.4,1.4,0,0,0-.4,1,1.36,1.36,0,1,0,2.72,0,1.39,1.39,0,0,0-.39-1A1.42,1.42,0,0,0,20.65,63.42ZM91.73,40.5a9.27,9.27,0,0,1-5,4.11,8,8,0,0,1,.06,4.2c-.5,2-2,4.65-6.44,6.18a11.21,11.21,0,0,1-3.68.59c-7.92,0-16.91-7.08-20-9.76l-2.47,2.47a29.61,29.61,0,0,1,8,17.13,22.91,22.91,0,0,1-7,18.59,29.23,29.23,0,0,1-5.93,4.52A26.57,26.57,0,0,1,24,88.78c-2.9-1.49-4.66-1.48-7,0-.23.14-.57.4-1,.71C13.71,91.25,11.33,93,9.48,93a2.32,2.32,0,0,1-1.7-.7c-1.79-1.79.1-5,2.77-8.92L11,82.8c1.57-2.43,1.61-4.11.18-6.89a26.54,26.54,0,0,1,.24-25.18,29.25,29.25,0,0,1,4.52-5.93,22.9,22.9,0,0,1,18.63-7,29.68,29.68,0,0,1,17.28,8.1l2.46-2.46C51.19,39.87,42,28.25,45,19.65c1.53-4.42,4.21-6,6.18-6.44a7.94,7.94,0,0,1,4.2.09,9.42,9.42,0,0,1,12-5.8l.13,0A8.91,8.91,0,0,1,72,11.29a9,9,0,0,1,6.86-.08A6.93,6.93,0,0,1,83,16.92a6.94,6.94,0,0,1,5.7,4.17A9,9,0,0,1,88.61,28a8.9,8.9,0,0,1,3.75,4.45A9.32,9.32,0,0,1,91.73,40.5ZM78.26,28.92a1.71,1.71,0,0,1,.57-1.29,8.12,8.12,0,0,0,2.57-4.84,3.86,3.86,0,0,0-1.29-2.9,3.86,3.86,0,0,0-2.88-1.29,8.07,8.07,0,0,0-4.83,2.57,1.71,1.71,0,0,1-1.29.57,1.76,1.76,0,0,1-1.29-.5c-1.47-1.47-2.95-1.92-4.18-1.29a3.12,3.12,0,0,0-1.6,3.15,1.71,1.71,0,0,1-2.9,1.49c-2-2-3.46-1.12-3.86-.8L57.2,24c-3.49,2.24-1.18,12.59.7,18h0l.06.08c5.42,1.88,15.77,4.2,18,.71l.17-.22c.31-.37,1.21-1.82-.81-3.86a1.71,1.71,0,0,1,1.49-2.9A3.1,3.1,0,0,0,80,34.26c.63-1.29.18-2.72-1.29-4.18a1.71,1.71,0,0,1-.44-1.18ZM52.65,35.69c-1-5.39-1.29-11.83,2.57-14.43a5.7,5.7,0,0,1,5.88-.75A6.54,6.54,0,0,1,64.17,17a6.44,6.44,0,0,1,6.9.82,10.38,10.38,0,0,1,6-2.57,6.76,6.76,0,0,1,1.75.18,3.37,3.37,0,0,0-1.29-1,5.79,5.79,0,0,0-5.42.7,1.71,1.71,0,0,1-2.57-.91,5.37,5.37,0,0,0-3.36-3.53,5.93,5.93,0,0,0-5,.5,6.06,6.06,0,0,0-3,4.72A1.71,1.71,0,0,1,55.36,17a4.13,4.13,0,0,0-3.31-.53c-1.66.42-3,1.91-3.86,4.27C46.75,25,49.54,31,52.63,35.66Zm6.1,30a26.71,26.71,0,0,0-8.16-16.25l-.06-.08-.06-.06a26.71,26.71,0,0,0-16.25-8.16c-.59,0-1.18-.08-1.76-.08a19.68,19.68,0,0,0-14.16,6.09,25.75,25.75,0,0,0-4,5.23,20.89,20.89,0,0,0-1.88,4.4,25.27,25.27,0,0,1,7.13,4.27,1.36,1.36,0,1,1-1.78,2,22.64,22.64,0,0,0-6-3.66,23.8,23.8,0,0,0,2.34,14.82c2,3.86,1.88,6.84-.35,10.3l-.39.72a37.44,37.44,0,0,0-2.14,3.42c1.06-.66,2.24-1.53,2.78-1.92s.9-.66,1.16-.82c3.37-2.18,6.44-2.23,10.44-.21a23.17,23.17,0,0,0,21.88-.17,25.75,25.75,0,0,0,5.21-4A19.61,19.61,0,0,0,58.75,65.71Zm30.52-32a5.37,5.37,0,0,0-3.48-3.31,1.71,1.71,0,0,1-.91-2.57,5.78,5.78,0,0,0,.7-5.42,3.36,3.36,0,0,0-.93-1.29,6.9,6.9,0,0,1,.18,1.76A10.44,10.44,0,0,1,82.25,29a6.44,6.44,0,0,1,.82,6.91A6.53,6.53,0,0,1,79.61,39a5.7,5.7,0,0,1-.75,5.88c-1.65,2.46-4.83,3.27-8.3,3.27a32.71,32.71,0,0,1-6.05-.64c4.66,3,10.53,5.75,14.75,4.29,2.37-.82,3.86-2.14,4.27-3.86a4.13,4.13,0,0,0-.59-3.3A1.71,1.71,0,0,1,84,41.75a6.06,6.06,0,0,0,4.72-3A5.92,5.92,0,0,0,89.27,33.74Z"/>
      </g>
    </g>
  </g>
</svg>
