<svg xmlns="http://www.w3.org/2000/svg" viewBox="0 0 100 100">
  <title>bell_pepper_icon</title>
  <g id="Layer_2" data-name="Layer 2">
    <g id="Layer_1-2" data-name="Layer 1">
      <rect width="100" height="100" style="fill: #fff"/>
      <g style="opacity: 0.5">
        <rect width="100" height="100" style="fill: #fff"/>
      </g>
      <g>
        <path d="M45.12,33.14A19.35,19.35,0,0,0,38.7,22.76l4.5-4.5c5,3.84,8.33,9.71,9.24,13.9Z" style="fill: #46c373"/>
        <g>
          <path d="M43.17,32.8l-6-1.92a15.92,15.92,0,0,0-16,3.8h0A15.92,15.92,0,0,0,17.55,52L18,53.14a59.6,59.6,0,0,1,4.31,22.24h0a14.49,14.49,0,0,0,6.22,11.9h0a14.49,14.49,0,0,0,8.27,2.59h.53a8.37,8.37,0,0,0,4.79-1.51h0" style="fill: #ff5a5a"/>
          <path d="M53.81,88.34l0,0a8.37,8.37,0,0,0,4.79,1.51h.53a14.49,14.49,0,0,0,8.27-2.59h0a14.49,14.49,0,0,0,6.22-11.9h0A59.6,59.6,0,0,1,78,53.14L78.43,52a15.92,15.92,0,0,0-3.61-17.3h0a15.92,15.92,0,0,0-16-3.8l-6,1.92" style="fill: #ff5a5a"/>
        </g>
        <path d="M48,89.88l1.66-.22A12.57,12.57,0,0,0,60.57,77.2V75.52A60.14,60.14,0,0,1,65,52.93l1.28-3.17a12.33,12.33,0,0,0-1.6-12.08h0a12.33,12.33,0,0,0-13-4.46L48,34.2l-3.63-1a12.33,12.33,0,0,0-13,4.46h0a12.33,12.33,0,0,0-1.6,12.08L31,52.93a60.14,60.14,0,0,1,4.41,22.6V77.3A12.46,12.46,0,0,0,46.32,89.67Z" style="fill: #ff8c8c"/>
        <path d="M51.51,29.27A16.55,16.55,0,0,1,62,12.08C73.74,7,81.39,13.15,83.59,15.5,77.84,18,75.14,24.28,68.94,27.77,63.18,31,55.11,31.45,51.51,29.27Z" style="fill: #a5dc69"/>
        <path d="M60.46,51.1a1.62,1.62,0,1,0-3-1.22,68,68,0,0,0-4.78,20.17,1.62,1.62,0,0,0,1.49,1.75h.13a1.62,1.62,0,0,0,1.62-1.49A64.8,64.8,0,0,1,60.46,51.1Z"/>
        <path d="M21.15,36.32a1.62,1.62,0,0,0,1.14-.46l0,0a1.63,1.63,0,1,0-1.17.5Z"/>
        <path d="M84.78,14.39c-1.55-1.65-9.95-9.6-23.47-3.8A18,18,0,0,0,50.59,22.18c-.13.45-.24.89-.34,1.31A28.17,28.17,0,0,0,44.19,17a1.62,1.62,0,0,0-2.14.14l-4.5,4.5a1.62,1.62,0,0,0,.11,2.4A18.85,18.85,0,0,1,42.76,31L37.7,29.33a17.47,17.47,0,0,0-10.42-.1,1.62,1.62,0,1,0,.94,3.11,14.23,14.23,0,0,1,7.68-.15,14,14,0,0,0-7.67,18.18l1.28,3.17a58.25,58.25,0,0,1,4.29,22V77.3a14.08,14.08,0,0,0,5,10.79,6.76,6.76,0,0,1-1.48.17h-.53A12.87,12.87,0,0,1,24,75.39a61,61,0,0,0-4.42-22.85l-.47-1.16a14.33,14.33,0,0,1-.33-9.76,1.62,1.62,0,0,0-3.09-1,17.58,17.58,0,0,0,.41,12l.47,1.16A57.72,57.72,0,0,1,20.7,75.39,16.11,16.11,0,0,0,36.82,91.5h.53a9.93,9.93,0,0,0,4.9-1.29,14,14,0,0,0,3.87,1.07l1.67.21h.42l1.66-.22a14.07,14.07,0,0,0,3.83-1.08,9.93,9.93,0,0,0,4.94,1.31h.53A16.11,16.11,0,0,0,75.28,75.39a57.71,57.71,0,0,1,4.19-21.64l.47-1.16A17.56,17.56,0,0,0,69.3,29.42l.44-.23a31.64,31.64,0,0,0,7.64-6.55c2.16-2.31,4.19-4.49,6.87-5.64a1.62,1.62,0,0,0,.55-2.6ZM43.31,20.45A26,26,0,0,1,50,29.76a1.63,1.63,0,0,0,.09.23,17.41,17.41,0,0,1,.61,1.8L48,32.52l-1.42-.38A21.42,21.42,0,0,0,41,22.71ZM49.44,88,48,88.24l-1.46-.18A10.86,10.86,0,0,1,37,77.3V75.52a61.48,61.48,0,0,0-4.53-23.21l-1.28-3.17A10.7,10.7,0,0,1,43.94,34.79l3.63,1a1.62,1.62,0,0,0,.85,0l3.63-1A10.7,10.7,0,0,1,64.75,49.15l-1.28,3.17a61.48,61.48,0,0,0-4.53,23.21V77.2A11,11,0,0,1,49.44,88Zm24.24-52.2a14.26,14.26,0,0,1,3.24,15.53l-.47,1.16A61,61,0,0,0,72,75.39,12.87,12.87,0,0,1,59.16,88.25h-.53a6.76,6.76,0,0,1-1.54-.18,14.2,14.2,0,0,0,5.1-10.88V75.52a58.25,58.25,0,0,1,4.29-22l1.28-3.17a14,14,0,0,0-7.67-18.18l.57-.13q.84-.1,1.68-.26A14.25,14.25,0,0,1,73.68,35.84ZM75,20.42a29.11,29.11,0,0,1-6.85,5.94A21,21,0,0,1,62,28.57a17.6,17.6,0,0,0-2,.3,17,17,0,0,1-5.75-.25,32.05,32.05,0,0,1,9.55-6.89,1.62,1.62,0,0,0-1.39-2.94A35.39,35.39,0,0,0,53.27,25a14.78,14.78,0,0,1,9.32-11.46c9-3.88,15.3-.65,18.2,1.59A31.41,31.41,0,0,0,75,20.42Z"/>
        <path d="M69.13,16.37A1.62,1.62,0,1,0,70,19.51h0a1.62,1.62,0,1,0-.83-3.14Z"/>
      </g>
    </g>
  </g>
</svg>
