<svg xmlns="http://www.w3.org/2000/svg" viewBox="0 0 100 100">
  <title>blueberries_icon</title>
  <g id="Layer_2" data-name="Layer 2">
    <g id="Layer_1-2" data-name="Layer 1">
      <rect width="100" height="100" style="fill: #fff"/>
      <g style="opacity: 0.5">
        <rect width="100" height="100" style="fill: #fff"/>
      </g>
      <g>
        <path d="M37.58,30.39S36.93,21,44.2,16s13.6-7.44,15.59-9.2c7.73,7.68,7.85,29.59-.9,36.77,0,0-7.77,1.72-11.4,5.94C47.27,38.58,37.58,30.39,37.58,30.39Z" style="fill: #46c373"/>
        <g>
          <circle cx="27.12" cy="72.88" r="20.36" style="fill: #7d9bff"/>
          <path d="M27.12,52.52a20.33,20.33,0,0,1,16.07,7.85,20.36,20.36,0,1,0-32.13,0A20.33,20.33,0,0,1,27.12,52.52Z" style="fill: #7d9bff"/>
        </g>
        <path d="M63.39,43a20.33,20.33,0,0,0-16.15,8,20.26,20.26,0,0,1-4,9.27l0,.18a20.27,20.27,0,0,1,4.24,12.44,20.52,20.52,0,0,1-.21,2.95A20.36,20.36,0,1,0,63.39,43Z" style="fill: #9bbeff"/>
        <path d="M78.88,36.62A16.8,16.8,0,0,0,65.52,43l.13.13A20.37,20.37,0,0,1,83.53,60.37h0c9.72-7.33,9.72-26.88,9.72-26.88S88.67,36.62,78.88,36.62Z" style="fill: #a5dc69"/>
        <g>
          <path d="M23.81,71h0a6.25,6.25,0,0,0,3.69,6.4h0a6.25,6.25,0,0,0-3.69,6.4h0a6.25,6.25,0,0,0-7.39,0h0a6.25,6.25,0,0,0-3.69-6.4h0A6.25,6.25,0,0,0,16.42,71h0A6.25,6.25,0,0,0,23.81,71Z" style="fill: #464b9b"/>
          <path d="M68.36,63h0a7,7,0,0,0,4.13,7.16h0a7,7,0,0,0-4.13,7.16h0a7,7,0,0,0-8.27,0h0A7,7,0,0,0,56,70.16h0A7,7,0,0,0,60.1,63h0A7,7,0,0,0,68.36,63Z" style="fill: #464b9b"/>
          <path d="M30.81,32.86h0a5.42,5.42,0,0,0,3.69,5.61h0a5.42,5.42,0,0,0-3.69,5.61h0a7,7,0,0,0-7.39,0h0a5.42,5.42,0,0,0-3.69-5.61h0a5.42,5.42,0,0,0,3.69-5.61h0A7,7,0,0,0,30.81,32.86Z" style="fill: #464b9b"/>
        </g>
        <path d="M28.21,75.74a4.48,4.48,0,0,1-2.66-4.6,1.76,1.76,0,0,0-2.79-1.61,4.48,4.48,0,0,1-5.31,0,1.76,1.76,0,0,0-2.79,1.61A4.48,4.48,0,0,1,12,75.74,1.76,1.76,0,0,0,12,79a4.48,4.48,0,0,1,2.66,4.6,1.76,1.76,0,0,0,2.79,1.61,4.48,4.48,0,0,1,5.31,0,1.76,1.76,0,0,0,2.79-1.61A4.48,4.48,0,0,1,28.21,79a1.76,1.76,0,0,0,0-3.22Zm-5.95,5.33a8,8,0,0,0-4.3,0,8,8,0,0,0-2.15-3.72A8,8,0,0,0,18,73.63a8,8,0,0,0,4.3,0,8,8,0,0,0,2.15,3.72A8,8,0,0,0,22.26,81.07Z"/>
        <path d="M73.21,71.77a1.76,1.76,0,0,0,0-3.22,5.22,5.22,0,0,1-3.1-5.36,1.76,1.76,0,0,0-2.79-1.61,5.22,5.22,0,0,1-6.19,0,1.76,1.76,0,0,0-2.79,1.61,5.22,5.22,0,0,1-3.1,5.36,1.76,1.76,0,0,0,0,3.22,5.22,5.22,0,0,1,3.1,5.36,1.76,1.76,0,0,0,2.79,1.61,5.22,5.22,0,0,1,6.19,0,1.76,1.76,0,0,0,2.79-1.61A5.22,5.22,0,0,1,73.21,71.77Zm-6.42,2.82a8.71,8.71,0,0,0-5.11,0,8.71,8.71,0,0,0-2.56-4.43,8.71,8.71,0,0,0,2.56-4.43,8.71,8.71,0,0,0,5.11,0,8.71,8.71,0,0,0,2.56,4.43A8.71,8.71,0,0,0,66.79,74.59Z"/>
        <path d="M35.14,36.83a3.67,3.67,0,0,1-2.58-3.75,1.76,1.76,0,0,0-2.69-1.7,5.23,5.23,0,0,1-5.49,0,1.76,1.76,0,0,0-2.69,1.7,3.67,3.67,0,0,1-2.58,3.75,1.76,1.76,0,0,0,0,3.28,3.67,3.67,0,0,1,2.58,3.75,1.76,1.76,0,0,0,2.69,1.7,5.23,5.23,0,0,1,5.49,0,1.76,1.76,0,0,0,2.69-1.7,3.67,3.67,0,0,1,2.58-3.75,1.76,1.76,0,0,0,0-3.28Zm-5.84,4.7a8.88,8.88,0,0,0-4.37,0A7,7,0,0,0,23,38.47a7,7,0,0,0,1.93-3.07,8.88,8.88,0,0,0,4.37,0,7,7,0,0,0,1.93,3.07A7,7,0,0,0,29.31,41.54Z"/>
        <path d="M20.11,75.59a1.76,1.76,0,1,0,1.24.52A1.77,1.77,0,0,0,20.11,75.59Z"/>
        <path d="M64.23,69.15a1.76,1.76,0,1,0,1.24.52A1.77,1.77,0,0,0,64.23,69.15Z"/>
        <path d="M27.12,36.71a1.76,1.76,0,1,0,1.24.52A1.76,1.76,0,0,0,27.12,36.71Z"/>
        <path d="M80.7,74.3a1.76,1.76,0,0,0-2.48.32l0,0a1.76,1.76,0,0,0,.31,2.49,1.79,1.79,0,0,0,1.08.36,1.8,1.8,0,0,0,1.12-3.2Z"/>
        <path d="M57.2,19.05a1.76,1.76,0,0,0-2.49,0l-.07.07a1.76,1.76,0,1,0,2.49,2.48l.07-.07A1.76,1.76,0,0,0,57.2,19.05Z"/>
        <path d="M95,33.49A1.75,1.75,0,0,0,92.26,32s-4.36,2.82-13.38,2.82a18.63,18.63,0,0,0-14.24,6.45c-.41,0-.83,0-1.25,0h-.23c2.36-3.67,3.8-8.73,4.08-14.55.42-8.87-2-17-6.21-21.22a1.76,1.76,0,0,0-2.4-.07A29.87,29.87,0,0,1,54.21,8a101.28,101.28,0,0,0-11,6.5c-5.42,3.76-6.89,9.57-7.27,13.06a22.12,22.12,0,0,0-27,32.8A22.12,22.12,0,1,0,48.23,79.5a22.14,22.14,0,0,0,24.91,3.76,1.76,1.76,0,0,0-1.55-3.16A18.61,18.61,0,0,1,49.1,75.31a22.25,22.25,0,0,0,.13-2.43,22,22,0,0,0-3.88-12.5,21.8,21.8,0,0,0,3.55-8.66,18.47,18.47,0,0,1,10.25-6.45l.21,0A18.62,18.62,0,0,1,81.42,68a1.76,1.76,0,1,0,3.41.87,22.29,22.29,0,0,0,.57-7.75C94.89,53,95,34.31,95,33.49Zm-67.88,58a18.6,18.6,0,1,1,18.6-18.6A18.62,18.62,0,0,1,27.12,91.48Zm0-40.72a22.05,22.05,0,0,0-15.9,6.76,18.4,18.4,0,0,1-2.7-9.66,18.6,18.6,0,1,1,37.21,0,18.91,18.91,0,0,1-.21,2.8c0,.05,0,.11,0,.16A18.3,18.3,0,0,1,43,57.52,22.06,22.06,0,0,0,27.12,50.76Zm22.15-4.41a28.28,28.28,0,0,1,3.26-18.67A1.76,1.76,0,1,0,49.47,26a31.82,31.82,0,0,0-3.64,10.14,22.29,22.29,0,0,0-6.51-6.66c.06-2.25.7-8.43,5.88-12a96.85,96.85,0,0,1,10.65-6.28c1.48-.78,2.7-1.42,3.66-2,2.91,3.78,4.54,10.41,4.21,17.45C63.4,33.34,61.3,39,58.07,41.91A21.85,21.85,0,0,0,49.27,46.36Zm29,.65a13.49,13.49,0,0,1,6.63-1.72,1.76,1.76,0,0,0,0-3.52,17,17,0,0,0-9.62,3A22,22,0,0,0,68.94,42a15.21,15.21,0,0,1,9.94-3.6,35,35,0,0,0,12.47-2C91,41.23,89.61,51.24,84.57,57A22.17,22.17,0,0,0,78.23,47Z"/>
      </g>
    </g>
  </g>
</svg>
