<svg xmlns="http://www.w3.org/2000/svg" viewBox="0 0 100 100">
  <title>broccoli_icon</title>
  <g id="Layer_2" data-name="Layer 2">
    <g id="Layer_1-2" data-name="Layer 1">
      <rect width="100" height="100" style="fill: #fff"/>
      <g style="opacity: 0.5">
        <rect width="100" height="100" style="fill: #fff"/>
      </g>
      <g>
        <path d="M29.42,37.14a14.83,14.83,0,0,1-8.74-2.84v0a12.77,12.77,0,0,0,9,14l.69-.59a64.11,64.11,0,0,0,2.75-6.43L35.09,36h0A14.83,14.83,0,0,1,29.42,37.14Z" style="fill: #a5dc69"/>
        <path d="M64.23,66.19H48.65L61.49,53.35,50.74,44,38.42,56.28l4.19-14.65L35.09,36l-1.94,5.33A64.15,64.15,0,0,1,18.23,64.74L9.85,73.13a3.81,3.81,0,0,0,0,5.38l13,13a3.81,3.81,0,0,0,5.38,0l4.65-4.65A49.85,49.85,0,0,1,61.52,72.73h0Z" style="fill: #46c373"/>
        <path d="M84.11,61.25a11,11,0,0,0,1.71-19.84A21.34,21.34,0,0,0,56.55,11.5a9.59,9.59,0,0,0-16.2.63,14.9,14.9,0,1,0-4.28,23.45,14.88,14.88,0,0,0,15.1,6.7,21.44,21.44,0,0,0,6.72,5.81,14.9,14.9,0,0,0,6.34,17.25,14.9,14.9,0,1,0,19.87-4.09Z" style="fill: #a5dc69"/>
        <path d="M87.37,61.5a12.75,12.75,0,0,0,.8-20.58A23.07,23.07,0,0,0,57,9.24a11.32,11.32,0,0,0-16.84.27A16.63,16.63,0,1,0,18.85,35.08a14.5,14.5,0,0,0,8.72,14.36A62.77,62.77,0,0,1,17,63.51L8.62,71.9a5.55,5.55,0,0,0,0,7.83l13,13a5.54,5.54,0,0,0,7.84,0l4.65-4.65A48.41,48.41,0,0,1,59.75,74.77,16.63,16.63,0,1,0,87.37,61.5Zm-65-24.2a16.53,16.53,0,0,0,7.08,1.58,16.72,16.72,0,0,0,2.87-.25l-.78,2.13q-1,2.84-2.36,5.58A11.11,11.11,0,0,1,22.34,37.3Zm9.34,48.37L27,90.31a2.07,2.07,0,0,1-2.93,0L14.89,81.1l8.75-8.75a1.73,1.73,0,1,0-2.45-2.45l-8.75,8.75-1.36-1.36a2.07,2.07,0,0,1,0-2.93L19.46,66A66.33,66.33,0,0,0,34.77,42L36,38.45a16.57,16.57,0,0,0,4.6,3.74L36.76,55.8a1.73,1.73,0,0,0,2.89,1.7l12-12a22.92,22.92,0,0,0,4.21,3.41,16.63,16.63,0,0,0-.43,3.76,16.81,16.81,0,0,0,.44,3.84L47.42,65a1.73,1.73,0,0,0,1.23,3h8.46a1.73,1.73,0,1,0,0-3.47H52.84l4.35-4.35a16.55,16.55,0,0,0,4.69,5.7A16.45,16.45,0,0,0,60,71.21a51.76,51.76,0,0,0-15.71,5.23,4.29,4.29,0,0,0-1.17-2.13L41,72.2a4.32,4.32,0,0,0-6.11,0l-5,5a1.73,1.73,0,0,0,2.45,2.45l5-5a.85.85,0,0,1,1.21,0l2.11,2.11a.85.85,0,0,1,0,1.21l-1.26,1.26a1.75,1.75,0,0,0-.21.26A51.26,51.26,0,0,0,31.68,85.67ZM43.87,43.53a16.68,16.68,0,0,0,4.16.68l-6.1,6.1ZM76.1,87.14A13.21,13.21,0,0,1,63.2,74.21a13.08,13.08,0,0,1,2.42-7.83,1.81,1.81,0,0,0,.32-.73,1.74,1.74,0,0,0-.79-1.79,13.11,13.11,0,0,1-5.65-7.29l0-.13a13.25,13.25,0,0,1,.08-7.8,1.75,1.75,0,0,0-.8-2.08,19.84,19.84,0,0,1-6.18-5.34,1.73,1.73,0,0,0-1.38-.69l-.29,0a13.29,13.29,0,0,1-2.23.19,13.11,13.11,0,0,1-11.11-6.11A1.73,1.73,0,0,0,35.3,34a13,13,0,0,1-5.88,1.38A13.16,13.16,0,1,1,39,13.18c.12.12.24.23.35.35a13.11,13.11,0,0,1,3.3,8.67A1.77,1.77,0,0,0,44.29,24a1.73,1.73,0,0,0,1.78-1.73A16.57,16.57,0,0,0,42.54,12a7.85,7.85,0,0,1,12.58.48A1.73,1.73,0,0,0,57.5,13,19.6,19.6,0,0,1,84.44,40.34a1.74,1.74,0,0,0-.17.2A19.85,19.85,0,0,1,68.51,49a1.78,1.78,0,0,0-1.78,1.62,1.73,1.73,0,0,0,1.73,1.85h0a23.26,23.26,0,0,0,17.68-8.69A9.29,9.29,0,0,1,83.5,59.62a1.73,1.73,0,0,0-.29,3.1A13.17,13.17,0,0,1,76.1,87.14Z"/>
        <path d="M68.18,18.13h.07a1.73,1.73,0,0,0,0-3.47h-.08a1.73,1.73,0,1,0,0,3.47Z"/>
        <path d="M73.93,19.71a11.32,11.32,0,0,1,5.51,9.68,1.73,1.73,0,1,0,3.47,0,14.81,14.81,0,0,0-7.2-12.66,1.73,1.73,0,0,0-1.77,3Z"/>
        <path d="M27.23,64.57a1.73,1.73,0,1,0,1.23.51A1.75,1.75,0,0,0,27.23,64.57Z"/>
      </g>
    </g>
  </g>
</svg>
