<svg xmlns="http://www.w3.org/2000/svg" viewBox="0 0 100 100">
  <title>butternut_squash.svg_icon</title>
  <g id="Layer_2" data-name="Layer 2">
    <g id="Layer_1-2" data-name="Layer 1">
      <g style="opacity: 0.5">
        <rect width="100" height="100" style="fill: #fff"/>
      </g>
      <rect width="100" height="100" style="fill: #fff"/>
      <g>
        <path d="M44.51,91.37l5.07,0a15.06,15.06,0,0,0,11.9-6l.1-.13a25.41,25.41,0,0,0,5.27-15.93L66.65,57A34.83,34.83,0,0,1,67,51.65l2.75-19.85a25.74,25.74,0,0,0-1.3-12.41h0a8.11,8.11,0,0,0-5.73-5.2l-7.85-1.82a8.73,8.73,0,0,0-7.52,1.84h0a25.58,25.58,0,0,0-8,11.7l-6.9,20.72a24.39,24.39,0,0,1-1.28,3.11L26.05,60.09A25.3,25.3,0,0,0,24.61,79h0a14.83,14.83,0,0,0,8.13,9.15l3.44,1.49A21.2,21.2,0,0,0,44.51,91.37Z" style="fill: #ffb487"/>
        <circle cx="45.34" cy="69.66" r="11.84" transform="translate(-32.77 98.08) rotate(-76.93)" style="fill: #ff9155"/>
        <path d="M68.18,75.14a65.17,65.17,0,0,0,.15-13c-.14-2.48-.28-5-.23-7.5A108.9,108.9,0,0,1,70,38.12c.27-1.65.55-3.33.82-5.08.66-4.55,1.09-11.14-3.35-16.08a11.28,11.28,0,0,0-2.68-2.15A7.86,7.86,0,0,0,64.32,12c-.68-1.81-2.23-3-4.65-3.58s-4.35-.16-5.75,1.16a7.83,7.83,0,0,0-1.65,2.38,11.28,11.28,0,0,0-3.4.74c-6.13,2.48-8.64,8.59-10,13-.53,1.69-1,3.32-1.5,4.92a108.91,108.91,0,0,1-5.61,15.69c-1.06,2.23-2.31,4.47-3.51,6.63A65,65,0,0,0,22.6,64.56a21.11,21.11,0,0,0,1.46,16.85c3.2,5.67,9.13,9.31,16.32,10a25.08,25.08,0,0,0,3.16,1,19.86,19.86,0,0,0,15.89-2.75A21.12,21.12,0,0,0,68.18,75.14Zm-12-63.29c.23-.22.83-.8,2.79-.35s2.24,1.24,2.35,1.54a2.56,2.56,0,0,1,.07.26q-1.31-.45-2.66-.77A27.4,27.4,0,0,0,56,12ZM57.63,87c-4.55,3.11-10.48,3.61-16.29,1.36l-.22-.05-.22-.05c-6.2-.54-11.31-3.6-14-8.4a17.89,17.89,0,0,1-1.21-14.27A62.59,62.59,0,0,1,31,54.43c1.24-2.21,2.52-4.49,3.63-6.84a111.48,111.48,0,0,0,5.79-16.13c.48-1.59,1-3.21,1.49-4.87,1.88-6,4.48-9.44,8.21-10.94,1.82-.75,4.54-.77,7.84,0S63.71,17.6,65,19.08c2.69,3,3.49,7.25,2.55,13.44-.26,1.73-.54,3.4-.81,5a111.38,111.38,0,0,0-1.9,17c0,2.58.1,5.2.24,7.73A62.61,62.61,0,0,1,65,74.66,17.89,17.89,0,0,1,57.63,87Zm-9-31.16c-7.42-1.72-14.76,4.71-16.36,11.62s2.68,13.23,10.19,15,14.13-2,15.74-9S56.07,57.53,48.65,55.81Zm-5.59,24.1c-6.17-1.43-9.58-6.32-8.28-11.9s7.3-11.07,13.29-9.68,9,8.84,7.66,14.57S49.23,81.34,43.06,79.91ZM39.68,69.71l-1.17-.27A1.28,1.28,0,0,1,39.09,67l1.17.27a1.28,1.28,0,0,1-.35,2.54ZM45,64.29A1.28,1.28,0,0,1,42.7,65.5l-.6-1.11A1.28,1.28,0,0,1,44.28,63l.08.14Zm-2.07,8.29a1.28,1.28,0,0,1-.25,1.79l-1,.78a1.28,1.28,0,0,1-1.55-2l1-.78a1.27,1.27,0,0,1,1.79.21h0Zm9.45-2.53a1.28,1.28,0,0,1-.58,2.49l-1.18-.27a1.28,1.28,0,0,1,.58-2.49ZM48,66.84a1.28,1.28,0,0,1,.29-1.79l1-.74a1.28,1.28,0,0,1,1.49,2.08l-1,.74A1.28,1.28,0,0,1,48,66.84Zm.8,8.26a1.28,1.28,0,1,1-2.28,1.15l-.59-1.16a1.28,1.28,0,1,1,2.28-1.15Z"/>
      </g>
    </g>
  </g>
</svg>
