<svg xmlns="http://www.w3.org/2000/svg" viewBox="0 0 100 100">
  <title>cabbage_1_icon</title>
  <g id="Layer_2" data-name="Layer 2">
    <g id="Layer_1-2" data-name="Layer 1">
      <rect width="100" height="100" style="fill: #fff"/>
      <g style="opacity: 0.5">
        <rect width="100" height="100" style="fill: #fff"/>
      </g>
      <g>
        <path d="M24.3,87.38c6.35,6.16,19.5,9.21,28.72.26S68.5,62,73.79,60.95s11-5.71,12-8.26.14-5,2.13-5.86S92,43.55,90,40.11s2.71-3.6,3.22-5.5-2.9-5.75-2.1-7.45,2.35-5.08-.28-7.63-6,3.79-8.67,2.07-3.63,3.1-4.83,3.31-5.19-.48-4.48,2.69S70.77,28.77,69.35,30s-5.83-1.24-5.9,2-2.93.88-3.92,3-3.47,7.25-6.74,8.21S45.9,45.87,45,49.8s-5.52,3.47-9.21,8.34-2.94,8.55-3,11.4-4.1,5.26-6.6,5,0,3.62-2.12,5.09S20.81,84,24.3,87.38Z" style="fill: #a5dc69"/>
        <path d="M24,79.64c2.08-1.47-.38-5.33,2.12-5.09s6.5-2.17,6.6-5-.66-6.53,3-11.4,8.29-4.41,9.21-8.34,4.55-5.65,7.82-6.62S58.55,37,59.54,35s3.85.29,3.92-3,4.48-.76,5.9-2,4.19.76,3.48-2.41,3.27-2.48,4.48-2.69,2.17-4.86,4.7-3.39l0-.05c.79-2.12,3.17-4.63,1.1-6.14-2.91-2.13-6.08-.21-7.67.78s-5.92-1.69-7.75-.95S66.4,20.4,62.68,19s-5.81.87-6.43,2.87-3.14,1.59-5.57,2.81S45.2,32,44.06,37C41.1,50.1,27.9,50.35,20.21,60.26c-7.36,9.5-3.21,20.88,3.34,26.32C21,83.54,22.1,81,24,79.64Z" style="fill: #d7fa91"/>
        <path d="M20.21,60.26C27.9,50.35,41.1,50.1,44.06,37c1.14-5,4.19-11.19,6.62-12.41s4.94-.82,5.57-2.81S59,17.5,62.68,19s3.23-3,5.05-3.79,6.16,1.94,7.75.95a11.64,11.64,0,0,1,3.45-1.59h0s-.27-3.86-2.28-5.81a5.65,5.65,0,0,0-7.76-.33c-2.51,2.43-3.31-1.62-6.23-1.62C59,6.76,59,14.43,55.5,11c-2.62-2.54-6.84-.63-8.18,6.23-.91,4.64-5.63,9-11.14,9.46-9.06.68-4,7.89-9.35,13.1-4.25,4.12-8.69,4.75-15.3,11.79C2.9,60.79,7.44,71,13.65,77l9.61,9.33,0,0C16.89,80.82,13,69.62,20.21,60.26Z" style="fill: #a5dc69"/>
        <path d="M25.22,88.21h0A305.94,305.94,0,0,0,60.56,58.76L79.21,40.66,52.22,74A94.16,94.16,0,0,1,32.93,92h0Z" style="fill: #d7fa91"/>
        <path d="M93.68,30.19a10.31,10.31,0,0,1-1-2.37c.83-1.76,2.81-6.14-.69-9.55-2.42-2.35-5.15-.45-6.79.7a6.46,6.46,0,0,0,.41-1.3,3.61,3.61,0,0,0-1.47-3.76,6.49,6.49,0,0,0-3.77-1.3,10.28,10.28,0,0,0-2.55-5.16,7.39,7.39,0,0,0-10.21-.33,2.1,2.1,0,0,1-.29.25,7.32,7.32,0,0,1-.71-.56,6.06,6.06,0,0,0-4-1.8c-2.65,0-4,2.29-4.87,3.81A12.21,12.21,0,0,1,57,10a3.34,3.34,0,0,1-.3-.26,5.18,5.18,0,0,0-5.27-1.33c-2.84.89-5,4-5.86,8.49-.8,4.1-5.08,7.71-9.55,8-6.67.5-7.36,4.47-7.9,7.65-.37,2.15-.72,4.18-2.53,5.94a28.42,28.42,0,0,1-5.24,3.81,43.88,43.88,0,0,0-10.12,8c-9.36,10-4.68,21.26,2.17,27.91L23.08,88.64a23.87,23.87,0,0,0,14.37,6.28q.9.07,1.79.07a21.33,21.33,0,0,0,15-6.1,51.87,51.87,0,0,0,6.09-7.32,1.76,1.76,0,1,0-2.87-2,48.44,48.44,0,0,1-5.67,6.82,17.68,17.68,0,0,1-15,5A95.73,95.73,0,0,0,53.59,75.14L72,52.36a5.29,5.29,0,0,1,5.51,1.13A1.76,1.76,0,0,0,80,51a8.68,8.68,0,0,0-4.92-2.37l5.52-6.83A1.76,1.76,0,0,0,78,39.4L67.07,50A10.15,10.15,0,0,0,64,43.27a1.76,1.76,0,0,0-2.45,2.52,6.63,6.63,0,0,1,.39,9.2l-2.57,2.5Q57.53,59.24,55.7,61c0-.29,0-.58,0-.88a12.51,12.51,0,0,0-3.86-9,1.76,1.76,0,1,0-2.45,2.52,9,9,0,0,1,0,13,1.75,1.75,0,0,0-.25.3c-7.57,6.7-15.5,13-23.7,19l0,0-.66-.51a3.55,3.55,0,0,1-1-2.4A2.67,2.67,0,0,1,25,81.08c1.78-1.26,1.7-3.33,1.65-4.57v-.19A9.16,9.16,0,0,0,32.16,74a6.28,6.28,0,0,0,2.33-4.41c0-.49,0-1,0-1.5a12.5,12.5,0,0,1,2.67-8.89A14.23,14.23,0,0,1,42,55.29c2-1.12,4-2.28,4.68-5.1.58-2.48,2.68-4.18,6.6-5.33,2.14-.63,3.88-2.43,5.31-4.56l.08-.12a36.46,36.46,0,0,0,2.43-4.43,5.09,5.09,0,0,1,.54-.05c1-.06,3.49-.23,3.56-3.65v0a9.35,9.35,0,0,1,1.37.05c1.31.11,2.79.24,3.91-.72a3.47,3.47,0,0,1,.82-.05,3.27,3.27,0,0,0,2.8-1,3.56,3.56,0,0,0,.43-3.08,1.55,1.55,0,0,1,0-.29,7,7,0,0,1,1.88-.2,8.34,8.34,0,0,0,1.22-.08c1.2-.21,1.85-1.24,2.47-2.24a6.89,6.89,0,0,1,1-1.38l.09.06c2.24,1.47,4.45-.08,6.07-1.21a8.93,8.93,0,0,1,1.9-1.13c.28-.09.31-.06.44.07,1.47,1.42,1,3.27-.08,5.61-.78,1.64.13,3.51,1,5.32a10.84,10.84,0,0,1,1,2.39,7,7,0,0,1-.94.64,6.41,6.41,0,0,0-2.32,2A3.89,3.89,0,0,0,88.46,41a3,3,0,0,1,.49,2.43,3.25,3.25,0,0,1-1.77,1.79c-2.17,1-2.41,3-2.61,4.59a10.23,10.23,0,0,1-.45,2.27c-.65,1.79-5.72,6.13-10.67,7.13-2.68.54-5.1,3.51-7.91,7.81A1.76,1.76,0,0,0,68.48,69c1-1.46,3.87-5.92,5.66-6.28,5.74-1.16,12.1-6.13,13.28-9.38a13.4,13.4,0,0,0,.64-3c.17-1.44.28-1.68.56-1.81A6.62,6.62,0,0,0,92.3,44.5a6.34,6.34,0,0,0-.82-5.28,1.62,1.62,0,0,1-.26-.62,4.93,4.93,0,0,1,1.15-.83,4.82,4.82,0,0,0,2.52-2.68C95.31,33.52,94.48,31.83,93.68,30.19ZM12.81,52.8a40.84,40.84,0,0,1,9.4-7.45,31.58,31.58,0,0,0,5.85-4.28c2.64-2.56,3.14-5.5,3.55-7.87.53-3.05.76-4.45,4.7-4.74,6-.45,11.63-5.23,12.73-10.88.72-3.71,2.26-5.43,3.46-5.81a1.69,1.69,0,0,1,1.77.5,4,4,0,0,0,3.23,1.34c1.67-.23,2.55-1.72,3.32-3s1.26-2.07,1.84-2.07,1,.37,1.72,1c1,.87,3.14,2.67,5.73.16a3.91,3.91,0,0,1,5.31.33A7,7,0,0,1,77,13.33a16,16,0,0,0-2.35,1.25A10.26,10.26,0,0,1,72.05,14c-1.73-.52-3.52-1.06-5-.47a4.73,4.73,0,0,0-2.34,2.76,4.21,4.21,0,0,1-.68,1.18,1.54,1.54,0,0,1-.74-.16,6.61,6.61,0,0,0-5.43,0,6.54,6.54,0,0,0-3.33,4c-.09.29-.49.43-1.74.75a14.1,14.1,0,0,0-2.94,1c-3.44,1.73-6.53,9.13-7.54,13.59-1.59,7-6.41,9.93-12,13.3-4,2.43-8.2,4.94-11.52,9.23a19.5,19.5,0,0,0-4.07,15c.09.62.21,1.25.36,1.87l-.23-.23C12.81,73.78,3,63.25,12.81,52.8Zm46.8,9.3L50.85,72.93A92.36,92.36,0,0,1,32.34,90.26a21,21,0,0,1-4.14-2A308.91,308.91,0,0,0,59.61,62.1ZM77.09,22.54c-.12.2-.29.47-.42.66h-.35c-1.37,0-3.45.07-4.62,1.56a3.62,3.62,0,0,0-.62,3,4.24,4.24,0,0,0-2.79.83,7.34,7.34,0,0,1-1.4,0c-1.31-.11-2.93-.25-4.11.81A3.43,3.43,0,0,0,61.7,32c0,.08,0,.15,0,.2l-.27,0a4.89,4.89,0,0,0-2.05.49A8,8,0,0,0,56.9,29.5a1.76,1.76,0,1,0-2.17,2.77A4.44,4.44,0,0,1,55.92,38l-.39.59-.11.13a1.76,1.76,0,0,0-.2.29,6.32,6.32,0,0,1-2.93,2.52c-1.91.56-7.71,2.28-9,7.9-.3,1.26-1.18,1.81-3,2.84a17.62,17.62,0,0,0-5.91,4.84A15.88,15.88,0,0,0,31,68.14c0,.48,0,.93,0,1.34a2.92,2.92,0,0,1-1.14,1.89A5.43,5.43,0,0,1,26.3,72.8a2.79,2.79,0,0,0-2.28.69,3.83,3.83,0,0,0-.85,3.16c0,.56.06,1.4-.17,1.55a6.5,6.5,0,0,0-2.18,2.53,18.73,18.73,0,0,1-2.59-7.08A16.06,16.06,0,0,1,21.6,61.33c2.92-3.77,6.8-6.11,10.56-8.37,5.75-3.47,11.69-7,13.61-15.53,1.15-5.08,4.09-10.42,5.69-11.22a10.93,10.93,0,0,1,2.23-.75c1.57-.4,3.53-.9,4.22-3.11a3.15,3.15,0,0,1,1.49-1.86,3.26,3.26,0,0,1,2.62.1c3.9,1.52,5.3-1.53,5.89-2.83a6.26,6.26,0,0,1,.51-1,10.76,10.76,0,0,1,2.6.58c1.9.57,3.87,1.17,5.37.23a10.49,10.49,0,0,1,2.85-1.35l.15,0a3.18,3.18,0,0,1,2.7.54l.11.09a6.75,6.75,0,0,1-.88,2.07l-.3.56a3.19,3.19,0,0,0-.68.07C78.72,19.91,77.78,21.43,77.09,22.54Z"/>
        <path d="M64.12,72.58a1.76,1.76,0,0,0-2.42.55l0,0a1.76,1.76,0,0,0,1.49,2.68,1.77,1.77,0,0,0,1-3.26Z"/>
        <path d="M17.43,57.14a34.09,34.09,0,0,1,8.11-6.4l1.31-.81A1.76,1.76,0,0,0,25,47l-1.28.79a37.47,37.47,0,0,0-8.83,7,12.1,12.1,0,0,0-3.41,6.77,1.76,1.76,0,0,0,1.52,2h.22a1.76,1.76,0,0,0,1.74-1.54A8.68,8.68,0,0,1,17.43,57.14Z"/>
        <path d="M31.21,46.14a1.75,1.75,0,0,0,1.22-.49l0,0A1.76,1.76,0,0,0,30,43.09l0,0a1.76,1.76,0,0,0,1.22,3Z"/>
      </g>
    </g>
  </g>
</svg>
