<svg xmlns="http://www.w3.org/2000/svg" viewBox="0 0 100 100">
  <title>cabbage_icon</title>
  <g id="Layer_2" data-name="Layer 2">
    <g id="Layer_1-2" data-name="Layer 1">
      <rect width="100" height="100" style="fill: #fff"/>
      <g style="opacity: 0.5">
        <rect width="100" height="100" style="fill: #fff"/>
      </g>
      <g>
        <path d="M82,71.41A33,33,0,0,0,75.13,22.5,33,33,0,0,0,22,24.64a33.09,33.09,0,0,0-10.84,33.5Z" style="fill: #d7fa91"/>
        <path d="M82.75,52.48a14.29,14.29,0,0,0-9.18-13.34,2.73,2.73,0,0,1-1.76-2.57v0A12.32,12.32,0,0,0,59.49,24.21l-.71,0a21.27,21.27,0,0,1-9.72-1.88,11,11,0,0,0-14.81,6.38,2.17,2.17,0,0,1-2.05,1.44h-.08A16.13,16.13,0,0,0,16.65,50.82a16.12,16.12,0,0,0,8.89,29.06c1.73.07-.46,4.27,1.11,3.84,2.27,6.16,12,6.16,19,6.16a16.07,16.07,0,0,0,6-1.17,40.64,40.64,0,0,1,15.26-3h.2a14.71,14.71,0,0,0,14.15-18A19.13,19.13,0,0,1,82,57.15,14.26,14.26,0,0,0,82.75,52.48Z" style="fill: #a5dc69"/>
        <path d="M43,68.46a67.36,67.36,0,0,0,6-9.74c3.82-1,8.95-2.79,12.87-7.2a1.22,1.22,0,0,0-1.48-1.88,20.51,20.51,0,0,1-8.52,2.26A48.86,48.86,0,0,0,54.53,36.2a1.76,1.76,0,0,0-3.43-.54A71.26,71.26,0,0,1,40.82,55.79a21.4,21.4,0,0,0-5.42-11.1,1.22,1.22,0,0,0-2,1.4,26.63,26.63,0,0,1,2.93,15.31c-1.87,2.16-3.76,4.11-5.59,5.86a10.38,10.38,0,0,0-2.48-5.78,1.72,1.72,0,0,0-2.89,1.66,19.26,19.26,0,0,1,.09,8.78c-5.26,4.29-7.84,5.49-7.84,5.49-.63,3.84,3.58,8.3,8.94,8A78.46,78.46,0,0,0,37.64,75c6.08.48,17.41.4,26.31-3.16A1.52,1.52,0,0,0,63.2,69C51.78,70.37,45.72,69.29,43,68.46Z" style="fill: #d7fa91"/>
        <path d="M33.34,15.87a1.61,1.61,0,0,0,.78-.2l0,0a1.62,1.62,0,1,0-.82.22Z"/>
        <path d="M91.5,50A34.62,34.62,0,0,0,76.24,21.29,34.71,34.71,0,0,0,39,10.07a1.62,1.62,0,0,0,1,3.09A31.47,31.47,0,0,1,72.11,21.5a4.24,4.24,0,0,1-2.3,3.23,14.14,14.14,0,0,1-1.9.7,13.87,13.87,0,0,0-8.42-2.84l-.8,0a19.52,19.52,0,0,1-9-1.75,12.56,12.56,0,0,0-5.07-1.06A12.7,12.7,0,0,0,33,27.38a8.79,8.79,0,0,1-2.78-2.72,1.62,1.62,0,0,0-2.71,1.78,12.44,12.44,0,0,0,1.95,2.3A17.75,17.75,0,0,0,14.82,50.2a17.73,17.73,0,0,0-2.9,3.12A31.78,31.78,0,0,1,11.74,50,31.36,31.36,0,0,1,23,25.89a1.62,1.62,0,0,0,.3-.33,31.58,31.58,0,0,1,6-6.62,1.62,1.62,0,0,0-2.07-2.5,34.82,34.82,0,0,0-6.5,7.11A34.68,34.68,0,0,0,9.45,58.07,17.71,17.71,0,0,0,16,78.23a8.14,8.14,0,0,0,2.24,5.34A10.6,10.6,0,0,0,26,87h0c5.79,4.49,13.12,4.49,19.61,4.49a17.65,17.65,0,0,0,6.66-1.29,38.6,38.6,0,0,1,14.57-2.87h.27A16.38,16.38,0,0,0,83.21,72.51l0,0A34.67,34.67,0,0,0,91.5,50ZM74.64,24.14a31.42,31.42,0,0,1,8.27,43.42l0-.23a17.51,17.51,0,0,1,.64-9.65,15.92,15.92,0,0,0-9.35-20.05,1.11,1.11,0,0,1-.72-1.05v0a13.87,13.87,0,0,0-3-8.57A7,7,0,0,0,74.64,24.14Zm-54,57.26a5.12,5.12,0,0,1-1.4-3,57.86,57.86,0,0,0,7.3-5.23,1.62,1.62,0,0,0,.56-.93A20.89,20.89,0,0,0,27,62.69c0-.06,0-.07,0-.08a.17.17,0,0,1,.11-.06l0,0a8.85,8.85,0,0,1,2.05,4.88,1.62,1.62,0,0,0,2.73,1c2-1.91,3.92-3.92,5.69-6a1.62,1.62,0,0,0,.39-.88,28.49,28.49,0,0,0-1.69-13.11A19.64,19.64,0,0,1,39.21,56a1.62,1.62,0,0,0,2.92.73A72.9,72.9,0,0,0,52.65,36.16c0-.08,0-.09.07-.09a.23.23,0,0,1,.18,0,.22.22,0,0,1,0,.09,47.38,47.38,0,0,1-2.62,15.16,1.62,1.62,0,0,0,1.6,2.15A22.6,22.6,0,0,0,59,52a25.59,25.59,0,0,1-10.51,5.15,1.62,1.62,0,0,0-1,.84A65.87,65.87,0,0,1,41.7,67.5,1.62,1.62,0,0,0,42.53,70c2.65.82,8.75,2,20.06.65C54.88,73.52,44.79,74,37.77,73.42a1.63,1.63,0,0,0-1.33.53A76.72,76.72,0,0,1,26,83.77,7.33,7.33,0,0,1,20.61,81.4ZM80,71.27A13.18,13.18,0,0,1,67.11,84.09h-.23A41.82,41.82,0,0,0,51.1,87.2a14.42,14.42,0,0,1-5.44,1.06c-5.47,0-11.59,0-16.37-2.95a80.5,80.5,0,0,0,9-8.6c4.5.29,16.43.6,26.25-3.33a3.14,3.14,0,0,0-1.56-6c-8.68,1.08-14.12.68-17.29.1a68.27,68.27,0,0,0,4.38-7.36c4.08-1.17,9.07-3.12,13-7.49a2.84,2.84,0,0,0-3.45-4.39A18.48,18.48,0,0,1,54.12,50a50.14,50.14,0,0,0,2-13.8,3.38,3.38,0,0,0-6.59-1,68.67,68.67,0,0,1-8,16.73,23,23,0,0,0-4.94-8.32A2.84,2.84,0,0,0,32,46.85a25.08,25.08,0,0,1,2.8,13.87q-1.5,1.71-3.12,3.36a10.41,10.41,0,0,0-2.22-3.72,3.34,3.34,0,0,0-5.63,3.22A17.17,17.17,0,0,1,24,71a54.47,54.47,0,0,1-6.28,4.49,14.56,14.56,0,0,1-5.14-16.68,1.61,1.61,0,0,0,.1-.26,14.32,14.32,0,0,1,3.22-5,11.74,11.74,0,0,0,3.91,4.59,1.62,1.62,0,0,0,1.73-2.74,8.66,8.66,0,0,1-3.33-5v0l0-.06A14.51,14.51,0,0,1,32.13,31.79h.09a3.8,3.8,0,0,0,3.57-2.51,9.44,9.44,0,0,1,8.86-6.23,9.34,9.34,0,0,1,3.77.78,22.74,22.74,0,0,0,10.46,2l.62,0a10.71,10.71,0,0,1,10.7,10.7v0A4.33,4.33,0,0,0,73,40.65a12.68,12.68,0,0,1,7.44,16,20.74,20.74,0,0,0-.73,11.44A13.16,13.16,0,0,1,80,71.27Z"/>
        <path d="M75.82,56.71a1.62,1.62,0,0,1-1.53-2.15l0-.06a1.62,1.62,0,0,1,3.07,1.05l0,.06A1.62,1.62,0,0,1,75.82,56.71Z"/>
        <path d="M67.06,80.85a1.62,1.62,0,0,1,0-3.24,6.61,6.61,0,0,0,6.35-8.09,26.12,26.12,0,0,1-.53-8.37,1.62,1.62,0,1,1,3.23.31,22.89,22.89,0,0,0,.46,7.34,9.85,9.85,0,0,1-9.47,12.06Z"/>
      </g>
    </g>
  </g>
</svg>
