<svg xmlns="http://www.w3.org/2000/svg" viewBox="0 0 100 100">
  <title>cauliflour_icon</title>
  <g id="Layer_2" data-name="Layer 2">
    <g id="Layer_1-2" data-name="Layer 1">
      <g style="opacity: 0.5">
        <rect width="100" height="100" style="fill: #fff"/>
      </g>
      <rect width="100" height="100" style="fill: #fff"/>
      <g>
        <path d="M37.14,70.58a14.83,14.83,0,0,1-2.84,8.74h0a12.77,12.77,0,0,0,14-9l-.59-.69a64.11,64.11,0,0,0-6.43-2.75L36,64.91v0A14.83,14.83,0,0,1,37.14,70.58Z" style="fill: #ead59b"/>
        <path d="M66.19,35.77V51.35L53.35,38.51,44,49.26,56.28,61.58,41.63,57.39,36,64.91l5.33,1.94A64.15,64.15,0,0,1,64.74,81.77l8.39,8.39a3.81,3.81,0,0,0,5.38,0l13-13a3.81,3.81,0,0,0,0-5.38L86.89,67.1A49.85,49.85,0,0,1,72.73,38.48h0Z" style="fill: #e8ddc1"/>
        <path d="M61.25,15.89a11,11,0,0,0-19.84-1.71A21.34,21.34,0,0,0,11.5,43.45a9.59,9.59,0,0,0,.63,16.2,14.9,14.9,0,1,0,23.45,4.28,14.88,14.88,0,0,0,6.7-15.1,21.44,21.44,0,0,0,5.81-6.72,14.9,14.9,0,0,0,17.25-6.34,14.9,14.9,0,1,0-4.09-19.87Z" style="fill: #ead59b"/>
        <path d="M61.5,12.63a12.75,12.75,0,0,0-20.58-.8A23.07,23.07,0,0,0,9.24,43a11.32,11.32,0,0,0,.27,16.84A16.63,16.63,0,1,0,35.08,81.15a14.5,14.5,0,0,0,14.36-8.72A62.77,62.77,0,0,1,63.51,83l8.39,8.39a5.55,5.55,0,0,0,7.83,0l13-13a5.54,5.54,0,0,0,0-7.84l-4.65-4.65A48.41,48.41,0,0,1,74.77,40.25,16.63,16.63,0,1,0,61.5,12.63Zm-24.2,65a16.53,16.53,0,0,0,1.58-7.08,16.72,16.72,0,0,0-.25-2.87l2.13.78q2.84,1,5.58,2.36A11.11,11.11,0,0,1,37.3,77.66Zm48.37-9.34L90.31,73a2.07,2.07,0,0,1,0,2.93L81.1,85.11l-8.75-8.75a1.73,1.73,0,1,0-2.45,2.45l8.75,8.75-1.36,1.36a2.07,2.07,0,0,1-2.93,0L66,80.54A66.33,66.33,0,0,0,42,65.23L38.45,64a16.57,16.57,0,0,0,3.74-4.6l13.62,3.9a1.73,1.73,0,0,0,1.7-2.89l-12-12a22.92,22.92,0,0,0,3.41-4.21,16.63,16.63,0,0,0,3.76.43,16.81,16.81,0,0,0,3.84-.44L65,52.58a1.73,1.73,0,0,0,3-1.23V42.89a1.73,1.73,0,1,0-3.47,0v4.27l-4.35-4.35a16.55,16.55,0,0,0,5.7-4.69A16.45,16.45,0,0,0,71.21,40a51.76,51.76,0,0,0,5.23,15.71,4.29,4.29,0,0,0-2.13,1.17L72.2,59a4.32,4.32,0,0,0,0,6.11l5,5a1.73,1.73,0,0,0,2.45-2.45l-5-5a.85.85,0,0,1,0-1.21l2.11-2.11a.85.85,0,0,1,1.21,0l1.26,1.26a1.75,1.75,0,0,0,.26.21A51.26,51.26,0,0,0,85.67,68.32ZM43.53,56.13A16.68,16.68,0,0,0,44.22,52l6.1,6.1ZM87.14,23.9A13.21,13.21,0,0,1,74.21,36.8a13.08,13.08,0,0,1-7.83-2.42,1.81,1.81,0,0,0-.73-.32,1.74,1.74,0,0,0-1.79.79,13.11,13.11,0,0,1-7.29,5.65l-.13,0a13.25,13.25,0,0,1-7.8-.08,1.75,1.75,0,0,0-2.08.8,19.84,19.84,0,0,1-5.34,6.18,1.73,1.73,0,0,0-.66,1.67,13.29,13.29,0,0,1,.19,2.23,13.11,13.11,0,0,1-6.11,11.11A1.73,1.73,0,0,0,34,64.7a13,13,0,0,1,1.38,5.88A13.16,13.16,0,1,1,13.18,61c.12-.12.23-.24.35-.35a13.11,13.11,0,0,1,8.67-3.3A1.77,1.77,0,0,0,24,55.71a1.73,1.73,0,0,0-1.73-1.78A16.57,16.57,0,0,0,12,57.46a7.85,7.85,0,0,1,.48-12.58A1.73,1.73,0,0,0,13,42.5,19.6,19.6,0,0,1,40.34,15.56l.2.17A19.85,19.85,0,0,1,49,31.49a1.78,1.78,0,0,0,1.62,1.78,1.73,1.73,0,0,0,1.85-1.73v0a23.26,23.26,0,0,0-8.69-17.68A9.29,9.29,0,0,1,59.62,16.5a1.73,1.73,0,0,0,3.1.29A13.17,13.17,0,0,1,87.14,23.9Z"/>
        <path d="M18.13,31.82v-.06h0a1.73,1.73,0,0,0-3.47,0v.08a1.73,1.73,0,1,0,3.47,0Z"/>
        <path d="M19.71,26.07a11.32,11.32,0,0,1,9.68-5.51,1.73,1.73,0,1,0,0-3.47,14.81,14.81,0,0,0-12.66,7.2,1.73,1.73,0,0,0,3,1.77Z"/>
        <path d="M64.57,72.77a1.73,1.73,0,1,0,.51-1.23A1.75,1.75,0,0,0,64.57,72.77Z"/>
      </g>
    </g>
  </g>
</svg>
