<svg xmlns="http://www.w3.org/2000/svg" viewBox="0 0 100 100">
  <title>celery_icon</title>
  <g id="Layer_2" data-name="Layer 2">
    <g id="Layer_1-2" data-name="Layer 1">
      <g style="opacity: 0.5">
        <rect width="100" height="100" style="fill: #fff"/>
      </g>
      <rect width="100" height="100" style="fill: #fff"/>
      <g>
        <path d="M17.65,88.82l8.39-.1L39.19,51.35,56,46.49l.28-5.89,6.61-3.68-1.79-3.58s7.63-3.51,3.35-11.75C62,17,49.88,22.81,52.63,21.67l-5.25-.87-3.17,1.77L43,17.84l-3.3-3.3-6.35-7-6.47-.4-2.83,3-7-.92-3.61,3.35-.91,5.7L9.78,20.39,12,29.27l-1.87,2.64,4.48,5.86,6.72,10.65-11,35.09Z" style="fill: #46c373"/>
        <path d="M30.76,38c.3-1.67.5-3.25.64-4.78l-4-2.07A1.18,1.18,0,0,1,28.46,29l3.11,1.6a49.61,49.61,0,0,0-.19-7l-3.1-1.53a1.18,1.18,0,0,1,1-2.11l1.68.83a28.71,28.71,0,0,0-1.36-5.44,1.18,1.18,0,0,1,2.18-.89A30.79,30.79,0,0,1,33.45,21l1.27-.66a1.11,1.11,0,0,1,1.53.35l0,.08a1.18,1.18,0,0,1-.43,1.58l-2.08,1.08A51.2,51.2,0,0,1,34,30l1.31-1a1.18,1.18,0,0,1,1.51,1.81l-.12.09L33.8,33c-.14,1.65-.37,3.41-.7,5.25A1.18,1.18,0,0,1,30.77,38l0-.1Zm35-7.89A18.32,18.32,0,0,1,64,32.44a5.25,5.25,0,0,1,.35,5A8.62,8.62,0,0,1,57.76,42a5.24,5.24,0,0,1,0,3.43c-.75,2.17-3,3.75-6.25,4.5l-2.27.46a28.51,28.51,0,0,0-7.84,2.28l-.24.12c-2.76,1.43-3.83,5.33-4.62,8.16-.69,2.44-1.3,4.95-1.89,7.38A132.12,132.12,0,0,1,31,81.48c-.91,2.53-2.46,5.81-4.73,7.16l-.26.13c-2.6,1.35-6.59.67-8.39.1l-.21-.09-.22,0c-1.86-.59-5.71-2.43-6.93-5.17-1.08-2.41-.47-6,.26-8.58A131.86,131.86,0,0,1,15,62.12c.91-2.33,1.87-4.73,2.7-7.13,1-2.75,2.3-6.52,1-9.26a26.35,26.35,0,0,0-2.75-3.58c-.81-.93-1.7-1.85-2.55-2.75-.41-.44-.82-.83-1.26-1.31-2.95-3.14-3-5.6-2.56-7.11a4.87,4.87,0,0,1,1.87-2.64A8.26,8.26,0,0,1,8.76,21a4.91,4.91,0,0,1,3.14-3.61,21.57,21.57,0,0,1-.18-2.57A7.2,7.2,0,0,1,16.42,8.3a7.78,7.78,0,0,1,7,.92,7.24,7.24,0,0,1,.82-1A7.78,7.78,0,0,1,30.7,6.11c5.92.46,8.28,5.14,8.91,8.48a5.49,5.49,0,0,1,4.29,2.78,6,6,0,0,1,.75,3.74,5.56,5.56,0,0,1,2.18-1.26,6.07,6.07,0,0,1,5.25.87c6.12-4.14,11.36-2,13.3.4A7.78,7.78,0,0,1,65.78,30.07ZM63.06,23c-1.35-1.69-5.3-3-10.19.77a1.48,1.48,0,0,1-2-.21,3.19,3.19,0,0,0-3.2-.93,3,3,0,0,0-2,2.29,6.77,6.77,0,0,1,.68,1.31c.87,2.06.11,5.76-1.85,8.75l.19,1.16c1.51-1.67,3-3.12,4.38-4.38l-.49-2.64a1.18,1.18,0,1,1,2.27-.46l.3,1.42a41.29,41.29,0,0,1,6.22-4.34h0a1.18,1.18,0,0,1,1.09,2.09,40.36,40.36,0,0,0-5.72,4l1.89.79a1.18,1.18,0,0,1-.9,2.17l-3-1.24A60,60,0,0,0,46,38.25l3.24,1.41a1.18,1.18,0,0,1-1,2.1L44.43,40c-.65.79-1.3,1.62-1.95,2.5a1.18,1.18,0,0,1-2-1.27l.09-.12c.75-1,1.4-1.84,2.1-2.69l-.13-.85L41,39.52a41.21,41.21,0,0,0-4.54,6.12,32.58,32.58,0,0,0-2.91,7c0,.13-4.35,13.76-7.89,25.84a1.48,1.48,0,0,1-2.85-.83h0c3.5-12.05,7.83-25.75,7.86-25.88a35.58,35.58,0,0,1,3.16-7.44,42.76,42.76,0,0,1,4.91-6.63A48.15,48.15,0,0,0,42,33.44c1.66-2.5,2-5.17,1.65-6.07a2.47,2.47,0,0,0-2.07-1.77,1.51,1.51,0,0,1-1.3-.84,1.48,1.48,0,0,1,.21-1.57c1.27-1.46,1.58-3.1.85-4.36a2.55,2.55,0,0,0-2.73-1.25,1.49,1.49,0,0,1-1.77-1.39c0-.27-.4-6.67-6.34-7.13a4.93,4.93,0,0,0-4.11,1.22c-2,2-1.71,5.9-1.68,6a1.49,1.49,0,0,1-1.36,1.61h-.07c-1.68.06-2.6.57-2.75,1.55C20.29,21,21.76,23.34,24,24.14h0A1.48,1.48,0,0,1,23.07,27a3.92,3.92,0,0,0-1.7.73,2.68,2.68,0,0,0-.43,2.15c.3,2.09,1.77,4,3.34,5.95A18.42,18.42,0,0,1,27.94,42c1.35,4.84-.32,10.25-1.65,14.64L26,57.5c-.93,3.18-5.94,18.29-6.16,18.93a1.48,1.48,0,0,1-2.8-.91c.06-.16,5.17-15.7,6.15-18.92l.27-.86c1.29-4.19,2.75-8.94,1.65-12.93a16.08,16.08,0,0,0-3.22-5.17c-1.75-2.21-3.57-4.47-4-7.37a5.26,5.26,0,0,1,1.32-4.7A4.53,4.53,0,0,1,20,25,7.29,7.29,0,0,1,17.57,19a4.75,4.75,0,0,1,4.14-3.9A13.82,13.82,0,0,1,22.19,12a4.9,4.9,0,0,0-4.74-.81A4.23,4.23,0,0,0,14.66,15,26.42,26.42,0,0,0,15,17.88,1.49,1.49,0,0,1,13.82,20a2.22,2.22,0,0,0-2.13,1.67c-.35,1.57.72,4.15,3.38,5.82a1.48,1.48,0,0,1-.44,2.73,2.87,2.87,0,0,0-2.22,1.61c-.33,1.06.37,2.59,1.88,4.21l1.23,1.28c.88.92,1.79,1.86,2.66,2.85a28.68,28.68,0,0,1,3.07,4l0,.09c2,3.88.34,8.59-.76,11.67-.86,2.44-1.82,4.88-2.73,7.22A129.57,129.57,0,0,0,13.4,75.74c-.79,2.92-1,5.37-.41,6.58.62,1.39,3.15,2.93,5.15,3.59l.21.09.22,0c2,.63,4.9.85,6.28,0,1.15-.68,2.44-2.78,3.45-5.61a129.48,129.48,0,0,0,3.62-12.83c.6-2.46,1.18-5,1.92-7.47.89-3.12,2.21-7.8,5.93-9.89l.15-.08a30,30,0,0,1,8.9-2.7L51,47.06c2.25-.49,3.69-1.39,4.09-2.52a3.12,3.12,0,0,0-.82-2.86,1.48,1.48,0,0,1,1.24-2.44c3.15.18,5.55-1.37,6.23-3A2.42,2.42,0,0,0,61,33.39a1.48,1.48,0,0,1,.3-2.34,12,12,0,0,0,2-2.41A4.84,4.84,0,0,0,63.06,23Z"/>
        <path d="M17.66,90.15l7.49,3.78L54,66.82l17.15,3.43,3-5.1,7.56-.22.06-4s8.38.4,8.38-8.88c0-5.23-13.47-5.62-10.51-5.37l-4.26-3.19-3.62.11,1.06-4.78-1.41-4.45L69,25.24l-5.56-3.34-3.89,1.36L53.72,19.2,49,20.52l-3.44,4.64-3.34.64-2.13,8.89-2.88,1.48,1.28,7.26L39.52,56,13.57,82Z" style="fill: #a5dc69"/>
        <path d="M52.73,51.05c1-1.35,1.95-2.66,2.77-3.95l-2.61-3.69a1.18,1.18,0,0,1,1.92-1.36l2,2.86a49.61,49.61,0,0,0,3-6.29l-2-2.79a1.18,1.18,0,0,1,1.9-1.39L60.84,36a28.71,28.71,0,0,0,1.3-5.46,1.18,1.18,0,0,1,2.35.21,30.79,30.79,0,0,1-1.57,6.54h1.43a1.11,1.11,0,0,1,1.2,1s0,.06,0,.09a1.18,1.18,0,0,1-1.11,1.2H62.1a51.2,51.2,0,0,1-2.84,5.89l1.61-.26a1.18,1.18,0,0,1,.51,2.3l-.14,0-3.55.57c-.89,1.4-1.9,2.86-3,4.34a1.18,1.18,0,0,1-1.93-1.36l.06-.08Zm34.72,9.13a18.32,18.32,0,0,1-2.69,1.28,5.25,5.25,0,0,1-2,4.6,8.62,8.62,0,0,1-7.95,1,5.24,5.24,0,0,1-1.56,3.06c-1.67,1.58-4.38,2-7.62,1.11l-2.22-.63a28.51,28.51,0,0,0-8-1.59h-.27c-3.11,0-5.86,3-7.86,5.11-1.73,1.85-3.44,3.79-5.08,5.68a132.12,132.12,0,0,1-9.33,9.94c-2,1.82-4.86,4-7.49,4.18H25.1c-2.92,0-6.16-2.45-7.49-3.78L17.46,90l-.18-.14c-1.38-1.38-3.95-4.78-3.77-7.78.16-2.64,2.36-5.56,4.18-7.49a131.86,131.86,0,0,1,9.94-9.33c1.88-1.65,3.84-3.34,5.68-5.08,2.13-2,5-4.73,5.11-7.78a26.35,26.35,0,0,0-.79-4.45c-.29-1.2-.66-2.42-1-3.61-.17-.58-.34-1.11-.51-1.75-1.17-4.15-.1-6.36,1-7.49A4.87,4.87,0,0,1,40,33.61a8.26,8.26,0,0,1,1-7.78,4.91,4.91,0,0,1,4.45-1.76,21.57,21.57,0,0,1,1-2.37,7.2,7.2,0,0,1,7.16-3.58,7.78,7.78,0,0,1,5.82,4.06,7.24,7.24,0,0,1,1.2-.53,7.78,7.78,0,0,1,6.67,1.11c5,3.14,5,8.37,4,11.63a5.49,5.49,0,0,1,2.52,4.45,6,6,0,0,1-1.06,3.67,5.56,5.56,0,0,1,2.51-.11,6.07,6.07,0,0,1,4.26,3.19c7.34-.86,11,3.42,11.62,6.48A7.78,7.78,0,0,1,87.45,60.18Zm.85-7.54c-.42-2.12-3.34-5.08-9.4-4a1.48,1.48,0,0,1-1.69-1.11,3.19,3.19,0,0,0-2.41-2.3A3,3,0,0,0,72,46.33a6.77,6.77,0,0,1,0,1.48C71.8,50,69.42,53,66.3,54.72l-.37,1.11C68,55,70,54.44,71.84,54l.78-2.57a1.18,1.18,0,1,1,2.22.63l-.39,1.4a41.29,41.29,0,0,1,7.52-1h0a1.18,1.18,0,0,1,0,2.36,40.36,40.36,0,0,0-6.93.93l1.31,1.57a1.18,1.18,0,0,1-1.8,1.51l-2.08-2.48a60,60,0,0,0-6.33,2l2.22,2.75a1.18,1.18,0,0,1-1.82,1.42l-2.64-3.34C63,59.58,62,60,61,60.5a1.18,1.18,0,0,1-1.17-2l.14-.07c1.11-.52,2.09-1,3.1-1.42l.28-.81-2.31,1a41.21,41.21,0,0,0-6.85,3.34,32.58,32.58,0,0,0-5.79,4.84c-.1.1-10.2,10.21-18.9,19.3a1.48,1.48,0,0,1-2.15-2h0C36,73.48,46.19,63.32,46.28,63.22a35.58,35.58,0,0,1,6.23-5.15,42.76,42.76,0,0,1,7.42-3.62,48.15,48.15,0,0,0,4.87-2.22C67.41,50.76,69,48.56,69,47.6a2.47,2.47,0,0,0-1-2.52,1.51,1.51,0,0,1-.77-1.35,1.48,1.48,0,0,1,.91-1.3c1.8-.71,2.84-2,2.77-3.48a2.55,2.55,0,0,0-1.85-2.37,1.49,1.49,0,0,1-.93-2c.11-.24,2.71-6.1-2.35-9.25a4.93,4.93,0,0,0-4.21-.81c-2.72.88-4.24,4.45-4.25,4.54a1.49,1.49,0,0,1-1.95.81l-.07,0c-1.51-.72-2.57-.69-3.16.11-.91,1.25-.71,4,.91,5.78h0A1.48,1.48,0,0,1,51,37.74a3.92,3.92,0,0,0-1.85-.13c-.7.21-1.11,1.06-1.37,1.71-.7,2-.26,4.34.22,6.82a18.42,18.42,0,0,1,.38,7.22c-1,4.91-5,9-8.21,12.23l-.62.63c-2.29,2.39-13.7,13.5-14.19,14a1.48,1.48,0,0,1-2.07-2.1c.12-.11,11.82-11.55,14.18-14l.63-.64c3.08-3.12,6.56-6.67,7.42-10.72A16.08,16.08,0,0,0,45,46.7c-.53-2.77-1.11-5.61-.11-8.36a5.26,5.26,0,0,1,3.34-3.57,4.53,4.53,0,0,1,.86-.14,7.29,7.29,0,0,1,.67-6.49,4.75,4.75,0,0,1,5.47-1.56A13.82,13.82,0,0,1,57.1,24a4.9,4.9,0,0,0-3.84-2.9A4.23,4.23,0,0,0,49,23.27,26.42,26.42,0,0,0,48,26a1.49,1.49,0,0,1-2,1.33,2.22,2.22,0,0,0-2.66.5c-1,1.23-1.27,4,.32,6.73A1.48,1.48,0,0,1,42,36.74a2.87,2.87,0,0,0-2.71.41c-.78.79-.87,2.47-.27,4.6.17.57.33,1.11.5,1.7.36,1.22.73,2.48,1,3.76a28.68,28.68,0,0,1,.87,5v.1c0,4.37-3.66,7.78-6,10-1.89,1.77-3.86,3.49-5.75,5.15a129.57,129.57,0,0,0-9.72,9.12c-2,2.22-3.34,4.31-3.39,5.65-.09,1.52,1.45,4,2.91,5.56l.14.18.18.14c1.47,1.47,4,3,5.56,2.91,1.33-.08,3.45-1.35,5.65-3.39a129.48,129.48,0,0,0,9.12-9.72c1.67-1.9,3.34-3.87,5.15-5.75,2.22-2.36,5.56-5.9,9.82-6h.17a30,30,0,0,1,9.14,1.7l2.13.62c2.22.6,3.91.47,4.79-.36a3.12,3.12,0,0,0,.59-2.91,1.48,1.48,0,0,1,2.22-1.59c2.71,1.61,5.56,1.35,6.89.24a2.42,2.42,0,0,0,.72-2.88A1.48,1.48,0,0,1,83.06,59a12,12,0,0,0,2.86-1.23A4.84,4.84,0,0,0,88.3,52.64Z"/>
      </g>
    </g>
  </g>
</svg>
