<svg xmlns="http://www.w3.org/2000/svg" viewBox="0 0 100 100">
  <title>chard_icon</title>
  <g id="Layer_2" data-name="Layer 2">
    <g id="Layer_1-2" data-name="Layer 1">
      <rect width="100" height="100" style="fill: #fff"/>
      <g style="opacity: 0.5">
        <rect width="100" height="100" style="fill: #fff"/>
      </g>
      <g>
        <g>
          <path d="M41.8,79.3h0a12.94,12.94,0,0,1,2.64-16.47l4.7-4.14A2.5,2.5,0,0,0,49.27,55h0a2.75,2.75,0,0,0-3.42-.37l-3.19,2a2.36,2.36,0,0,1-2.78-.18h0a2.13,2.13,0,0,1-.26-3l3.55-4.19a4.12,4.12,0,0,0-.71-6h0A4.49,4.49,0,0,0,35.69,45l-.22.5a2.11,2.11,0,0,1-3.23.77h0a1.94,1.94,0,0,1-.67-2.09l1.72-5.7a3.13,3.13,0,0,0-2.22-3.9h0a3.32,3.32,0,0,0-3.93,1.76L25.93,39a.8.8,0,0,1-1.48-.06L22.8,34.21A7.1,7.1,0,0,0,17,29.59h0a7.21,7.21,0,0,0-7.58,4.2h0A6.67,6.67,0,0,0,10.64,41l3.42,3.72a.76.76,0,0,1-.68,1.26l-3-.32A3.27,3.27,0,0,0,6.83,48h0a3.15,3.15,0,0,0,2.4,3.8l6,1.42a2,2,0,0,1,1.55,1.6h0a2,2,0,0,1-2.3,2.3l-.56-.07A4.32,4.32,0,0,0,9,61.84H9a4.38,4.38,0,0,0,5.06,3.6l5.55-.86a2.28,2.28,0,0,1,2.61,1.73h0A2.17,2.17,0,0,1,21,68.71l-3.44,1.64a2.53,2.53,0,0,0-1.37,3h0a2.69,2.69,0,0,0,3.36,1.71l6.08-1.84a14.12,14.12,0,0,1,16.17,6Z" style="fill: #a5dc69"/>
          <path d="M58.2,79.3h0a12.94,12.94,0,0,0-2.64-16.47l-4.7-4.14A2.5,2.5,0,0,1,50.73,55h0a2.75,2.75,0,0,1,3.42-.37l3.19,2a2.36,2.36,0,0,0,2.78-.18h0a2.13,2.13,0,0,0,.26-3L56.83,49.3a4.12,4.12,0,0,1,.71-6h0A4.49,4.49,0,0,1,64.31,45l.22.5a2.11,2.11,0,0,0,3.23.77h0a1.94,1.94,0,0,0,.67-2.09l-1.72-5.7a3.13,3.13,0,0,1,2.22-3.9h0a3.32,3.32,0,0,1,3.93,1.76L74.07,39a.8.8,0,0,0,1.48-.06l1.65-4.71A7.1,7.1,0,0,1,83,29.59h0a7.21,7.21,0,0,1,7.58,4.2h0A6.67,6.67,0,0,1,89.36,41l-3.42,3.72a.76.76,0,0,0,.68,1.26l3-.32A3.27,3.27,0,0,1,93.17,48h0a3.15,3.15,0,0,1-2.4,3.8l-6,1.42a2,2,0,0,0-1.55,1.6h0a2,2,0,0,0,2.3,2.3l.56-.07A4.32,4.32,0,0,1,91,61.84h0a4.38,4.38,0,0,1-5.06,3.6l-5.55-.86a2.28,2.28,0,0,0-2.61,1.73h0A2.17,2.17,0,0,0,79,68.71l3.44,1.64a2.53,2.53,0,0,1,1.37,3h0a2.69,2.69,0,0,1-3.36,1.71l-6.08-1.84a14.12,14.12,0,0,0-16.17,6Z" style="fill: #a5dc69"/>
        </g>
        <path d="M53,8.15h0a4.74,4.74,0,0,1,2,4.21l-.58,7.46,3-3.94a3,3,0,0,1,4.41-.29h0a2.68,2.68,0,0,1-.09,3.89L56.77,24a2,2,0,0,0-.52,2.19h0a2.16,2.16,0,0,0,3.28.91L61.11,26a3.11,3.11,0,0,1,4.81,1.54h0a2.87,2.87,0,0,1-.89,3l-7.87,6.87A2,2,0,0,0,57,40.24h0a2.19,2.19,0,0,0,3.1.07l3.11-3a3.9,3.9,0,0,1,6.32,1.29h0a3.6,3.6,0,0,1-1.48,4.36l-6.71,4.24.26-.13a3.53,3.53,0,0,1,5,2.26l0,.09a3.24,3.24,0,0,1-2.44,3.86l-2.47.62A15.19,15.19,0,0,0,50,67.73h0A14.3,14.3,0,0,0,38.94,54l-3.12-.78a3.24,3.24,0,0,1-2.44-3.86l0-.09a3.53,3.53,0,0,1,5-2.26l.26.13L31.94,42.9a3.6,3.6,0,0,1-1.48-4.36h0a3.9,3.9,0,0,1,6.32-1.29l3.11,3a2.19,2.19,0,0,0,3.1-.07h0a2,2,0,0,0-.16-2.87L35,30.5a2.87,2.87,0,0,1-.89-3h0A3.11,3.11,0,0,1,38.89,26l1.57,1.15a2.16,2.16,0,0,0,3.28-.91h0A2,2,0,0,0,43.23,24l-4.93-4.55a2.68,2.68,0,0,1-.09-3.89h0a3,3,0,0,1,4.41.29l3,3.94L45,12.36a4.74,4.74,0,0,1,2-4.21h0A5.18,5.18,0,0,1,53,8.15Z" style="fill: #d7fa91"/>
        <path d="M62.13,55.53l2.47-.62a5,5,0,0,0,3.72-6l0-.09A5.08,5.08,0,0,0,66.42,46L69,44.37a5.37,5.37,0,0,0,2.18-6.46,5.51,5.51,0,0,0-4-3.38A5.64,5.64,0,0,0,62,36l-3.11,3a.45.45,0,0,1-.61,0,.25.25,0,0,1-.07-.19.27.27,0,0,1,.1-.19l7.87-6.87A4.64,4.64,0,0,0,67.59,27a4.74,4.74,0,0,0-3-3.13,4.9,4.9,0,0,0-4.46.68l-1.57,1.15a.45.45,0,0,1-.39.06.35.35,0,0,1-.24-.2.25.25,0,0,1,.08-.28l4.93-4.55A4.42,4.42,0,0,0,63,14.36a4.7,4.7,0,0,0-6.43-.2l.13-1.67A6.44,6.44,0,0,0,54,6.73a6.88,6.88,0,0,0-8,0,6.44,6.44,0,0,0-2.72,5.76l.13,1.67a4.7,4.7,0,0,0-6.43.2,4.42,4.42,0,0,0,.15,6.39L42,25.31a.25.25,0,0,1,.08.28.35.35,0,0,1-.24.2.45.45,0,0,1-.39-.06l-1.57-1.15a4.9,4.9,0,0,0-4.46-.68,4.74,4.74,0,0,0-3,3.13,4.64,4.64,0,0,0,1.41,4.78l7.87,6.87a.27.27,0,0,1,.1.19.25.25,0,0,1-.07.19.45.45,0,0,1-.61,0L38,36a5.64,5.64,0,0,0-5.16-1.47,5.51,5.51,0,0,0-4,3.38A5.37,5.37,0,0,0,31,44.37L33.58,46a5.08,5.08,0,0,0-1.87,2.87l0,.09a5,5,0,0,0,3.72,5.95l3.12.78a12.56,12.56,0,0,1,9.74,12V92.82a1.74,1.74,0,0,0,3.48,0v-25A13.38,13.38,0,0,1,62.13,55.53ZM39.36,52.31l-3.12-.78a1.5,1.5,0,0,1-1.17-1.77l0-.09A1.65,1.65,0,0,1,36,48.57a1.85,1.85,0,0,1,1.62,0l.26.13a1.74,1.74,0,0,0,1.7-3l-6.71-4.24a1.86,1.86,0,0,1-.79-2.25,2,2,0,0,1,1.49-1.23,2.17,2.17,0,0,1,2,.56l3.11,3a3.93,3.93,0,0,0,5.6-.12A3.73,3.73,0,0,0,44,36.06l-7.87-6.87A1.13,1.13,0,0,1,35.75,28a1.26,1.26,0,0,1,.82-.82,1.41,1.41,0,0,1,1.29.19l1.57,1.15a3.9,3.9,0,0,0,3.42.59,3.8,3.8,0,0,0,2.51-2.28,3.71,3.71,0,0,0-1-4.1L39.47,18.2a1,1,0,0,1-.32-.69,1,1,0,0,1,.29-.7,1.19,1.19,0,0,1,.93-.34,1.16,1.16,0,0,1,.85.45l3,3.94a1.74,1.74,0,0,0,3.13-1.18l-.58-7.46A3,3,0,0,1,48,9.56a3.45,3.45,0,0,1,4,0,3,3,0,0,1,1.28,2.66l-.58,7.46a1.74,1.74,0,0,0,3.13,1.18l3-3.94a1.16,1.16,0,0,1,.85-.45,1.19,1.19,0,0,1,.93.34.94.94,0,0,1,0,1.39l-4.93,4.55a3.71,3.71,0,0,0-1,4.1,3.8,3.8,0,0,0,2.51,2.28,3.9,3.9,0,0,0,3.42-.59l1.57-1.15a1.41,1.41,0,0,1,1.29-.19,1.26,1.26,0,0,1,.82.82,1.13,1.13,0,0,1-.36,1.18L56,36.06a3.73,3.73,0,0,0-.29,5.37,3.93,3.93,0,0,0,5.6.12l3.11-3a2.17,2.17,0,0,1,2-.56,2,2,0,0,1,1.49,1.23,1.86,1.86,0,0,1-.79,2.25l-6.71,4.24a1.74,1.74,0,0,0,1.7,3l.26-.13a1.85,1.85,0,0,1,1.61,0,1.65,1.65,0,0,1,.92,1.11l0,.09a1.5,1.5,0,0,1-1.17,1.77l-2.47.62a17.36,17.36,0,0,0-9.15,5.66l-.4.5V31.37a1.74,1.74,0,1,0-3.48,0V58A16.53,16.53,0,0,0,39.36,52.31Z"/>
        <path d="M24.29,53.18a1.74,1.74,0,1,0,1.23-.51A1.75,1.75,0,0,0,24.29,53.18Z"/>
        <path d="M94.86,47.59a5,5,0,0,0-5.42-3.7l-.45,0,1.66-1.81a8.46,8.46,0,0,0,1.57-9,9,9,0,0,0-9.4-5.24,8.79,8.79,0,0,0-7.26,5.78l-1.65,4.71a1.74,1.74,0,0,0,3.29,1.15l1.65-4.71a5.4,5.4,0,0,1,4.42-3.48A5.47,5.47,0,0,1,89,34.47a4.91,4.91,0,0,1-.94,5.31l-3.42,3.72a2.46,2.46,0,0,0-.39,2.79,2.52,2.52,0,0,0,2.54,1.37l3-.32a1.53,1.53,0,0,1,1.68,1.09,1.3,1.3,0,0,1-.16,1,1.52,1.52,0,0,1-1,.68l-6,1.42a3.76,3.76,0,0,0-2.86,3,3.65,3.65,0,0,0,1,3.17,3.87,3.87,0,0,0,3.26,1.16l.56-.07a2.73,2.73,0,0,1,2.31.79,2.36,2.36,0,0,1,.68,2,2.44,2.44,0,0,1-1,1.62,2.77,2.77,0,0,1-2.09.51l-5.55-.86A4,4,0,0,0,76.08,66a3.91,3.91,0,0,0,2.18,4.33l3.44,1.64a.79.79,0,0,1,.46.95,1,1,0,0,1-1.2.56l-6.08-1.84a16.21,16.21,0,0,0-9.82.15L71.93,61.4A1.74,1.74,0,0,0,69,59.48L61.67,70.57a14.75,14.75,0,0,0-2.44-6.21,1.74,1.74,0,1,0-2.87,2,11.07,11.07,0,0,1,.89,11.09q-.27.49-.53,1h0a1.71,1.71,0,0,0-.1.21,31.55,31.55,0,0,0-3.39,14.21,1.74,1.74,0,1,0,3.48,0,28.08,28.08,0,0,1,3.06-12.73,12.46,12.46,0,0,1,14.11-5.17L80,76.76a4.43,4.43,0,0,0,5.53-2.86,4.25,4.25,0,0,0-2.29-5.12l-3.44-1.64a.44.44,0,0,1-.27-.47.54.54,0,0,1,.64-.37l5.55.86A6.22,6.22,0,0,0,90.37,66a5.9,5.9,0,0,0,2.36-3.93,5.83,5.83,0,0,0-1.64-4.94,6.19,6.19,0,0,0-5.22-1.81l-.56.07a.36.36,0,0,1-.32-.1.18.18,0,0,1-.06-.17.29.29,0,0,1,.23-.21l6-1.42a5,5,0,0,0,3.13-2.26A4.75,4.75,0,0,0,94.86,47.59Z"/>
        <path d="M43.29,78.4h0q-.25-.48-.51-1a11.19,11.19,0,0,1,1-11.33,1.74,1.74,0,0,0-2.83-2,14.69,14.69,0,0,0-2.61,6.51L30.77,59.17a1.74,1.74,0,0,0-2.9,1.93l7.07,10.64a16.21,16.21,0,0,0-9.82-.15L19,73.43a1,1,0,0,1-1.2-.56.79.79,0,0,1,.46-.95l3.44-1.64A3.91,3.91,0,0,0,23.92,66a4,4,0,0,0-4.58-3.1l-5.55.86a2.77,2.77,0,0,1-2.09-.51,2.44,2.44,0,0,1-1-1.62,2.36,2.36,0,0,1,.68-2,2.74,2.74,0,0,1,2.31-.79l.56.07a3.87,3.87,0,0,0,3.26-1.16,3.65,3.65,0,0,0,1-3.17,3.76,3.76,0,0,0-2.86-3l-6-1.42a1.52,1.52,0,0,1-1-.68,1.3,1.3,0,0,1-.16-1,1.53,1.53,0,0,1,1.68-1.09l3,.32a2.52,2.52,0,0,0,2.54-1.37,2.46,2.46,0,0,0-.39-2.79l-3.42-3.72A4.91,4.91,0,0,1,11,34.48a5.47,5.47,0,0,1,5.76-3.16,5.4,5.4,0,0,1,4.42,3.48l1.65,4.71a1.74,1.74,0,0,0,3.29-1.15l-1.65-4.71a8.79,8.79,0,0,0-7.26-5.78,9,9,0,0,0-9.4,5.24,8.46,8.46,0,0,0,1.57,9L11,43.94l-.45,0a5,5,0,0,0-5.42,3.7,4.76,4.76,0,0,0,.56,3.65,5,5,0,0,0,3.13,2.26l6,1.42a.29.29,0,0,1,.23.21.18.18,0,0,1-.06.17.37.37,0,0,1-.32.1l-.56-.07a6.19,6.19,0,0,0-5.22,1.81,5.83,5.83,0,0,0-1.64,4.94A5.9,5.9,0,0,0,9.63,66a6.22,6.22,0,0,0,4.7,1.15l5.55-.86a.54.54,0,0,1,.64.37.44.44,0,0,1-.27.47L16.8,68.77a4.25,4.25,0,0,0-2.29,5.12A4.43,4.43,0,0,0,20,76.76l6.08-1.84a12.46,12.46,0,0,1,14.11,5.17A28.08,28.08,0,0,1,43.3,92.82a1.74,1.74,0,0,0,3.48,0,31.55,31.55,0,0,0-3.39-14.21A1.74,1.74,0,0,0,43.29,78.4Z"/>
        <path d="M74.48,56.15a1.74,1.74,0,1,0-1.23-.51A1.75,1.75,0,0,0,74.48,56.15Z"/>
      </g>
    </g>
  </g>
</svg>
