<svg xmlns="http://www.w3.org/2000/svg" viewBox="0 0 100 100">
  <title>corn_icon</title>
  <g id="Layer_2" data-name="Layer 2">
    <g id="Layer_1-2" data-name="Layer 1">
      <rect width="100" height="100" style="fill: #fff"/>
      <g style="opacity: 0.5">
        <rect width="100" height="100" style="fill: #fff"/>
      </g>
      <g>
        <path d="M49.94,57c-3.06,15.37-9.27,29-16.78,31.26C37,87.41,49.53,84,75,58.5c0,0-9.07-4.78-25.1-1.54Z" style="fill: #d7fa91"/>
        <path d="M32.69,88.35A16.79,16.79,0,0,1,16.8,83.93c-6.54-6.56-8.58-15.19,0-23.76C30.85,46.12,41,35,45,11.16,59.67,25.81,49.17,84.38,32.69,88.35Z" style="fill: #a5dc69"/>
        <path d="M51.7,25.74C67,13.31,81.55,7.77,86.93,13.21c6.1,6.17-2.69,25.31-18.59,42.86,0,0-13-2.13-18.4.89C52.85,47.18,51.7,25.74,51.7,25.74Z" style="fill: #f5b955"/>
        <g>
          <path d="M54.13,48.16l-1.71-1.71a2.66,2.66,0,0,1,0-3.76l.39-.39a2.66,2.66,0,0,1,3.76,0L58.29,44a2.66,2.66,0,0,1,0,3.76l-.39.39A2.66,2.66,0,0,1,54.13,48.16Z" style="fill: #e6aa46"/>
          <path d="M64.54,51.56,62.9,49.93a2.54,2.54,0,0,1,0-3.59l.37-.37a2.54,2.54,0,0,1,3.59,0L68.5,47.6a2.54,2.54,0,0,1,0,3.59l-.37.37A2.54,2.54,0,0,1,64.54,51.56Z" style="fill: #e6aa46"/>
          <path d="M70.89,45l-1.64-1.64a2.54,2.54,0,0,1,0-3.59l.37-.37a2.54,2.54,0,0,1,3.59,0L74.85,41a2.54,2.54,0,0,1,0,3.59l-.37.37A2.54,2.54,0,0,1,70.89,45Z" style="fill: #e6aa46"/>
          <path d="M60.6,41.55l-1.71-1.71a2.66,2.66,0,0,1,0-3.76l.39-.39a2.66,2.66,0,0,1,3.76,0l1.71,1.71a2.66,2.66,0,0,1,0,3.76l-.39.39A2.66,2.66,0,0,1,60.6,41.55Z" style="fill: #e6aa46"/>
          <path d="M67.18,35.08l-1.71-1.71a2.66,2.66,0,0,1,0-3.76l.39-.39a2.66,2.66,0,0,1,3.76,0l1.71,1.71a2.66,2.66,0,0,1,0,3.76l-.39.39A2.66,2.66,0,0,1,67.18,35.08Z" style="fill: #e6aa46"/>
          <path d="M73.82,28.64l-1.71-1.71a2.66,2.66,0,0,1,0-3.76l.39-.39a2.66,2.66,0,0,1,3.76,0L78,24.49a2.66,2.66,0,0,1,0,3.76l-.39.39A2.66,2.66,0,0,1,73.82,28.64Z" style="fill: #e6aa46"/>
          <path d="M80.29,22.05l-1.71-1.71a2.66,2.66,0,0,1,0-3.76l.39-.39a2.66,2.66,0,0,1,3.76,0l1.71,1.71a2.66,2.66,0,0,1,0,3.76l-.39.39A2.66,2.66,0,0,1,80.29,22.05Z" style="fill: #e6aa46"/>
          <path d="M61.89,23.26l1.66,1.61a2.52,2.52,0,0,0,3.58-.08l.36-.38a2.56,2.56,0,0,0-.08-3.61l-1.66-1.61a2.52,2.52,0,0,0-3.58.08l-.36.38A2.56,2.56,0,0,0,61.89,23.26Z" style="fill: #e6aa46"/>
          <path d="M70.29,18.84,72,20.44a2.52,2.52,0,0,0,3.58-.08L75.9,20a2.56,2.56,0,0,0-.08-3.61l-1.66-1.61a2.52,2.52,0,0,0-3.58.08l-.36.38A2.56,2.56,0,0,0,70.29,18.84Z" style="fill: #e6aa46"/>
          <path d="M55.39,29.75,53.67,28a2.66,2.66,0,0,1,0-3.76l.39-.39a2.66,2.66,0,0,1,3.76,0l1.71,1.71a2.66,2.66,0,0,1,0,3.76l-.39.39A2.66,2.66,0,0,1,55.39,29.75Z" style="fill: #e6aa46"/>
        </g>
        <path d="M59.17,71l-.07.06a1.58,1.58,0,0,0,2,2.42l.07-.06a1.58,1.58,0,1,0-2-2.43Z"/>
        <path d="M88.06,12.1C85,9,79.6,8.71,72.49,11.28c-5.73,2.08-12.24,5.86-19,11l-1.2.93c-1.05-5-2.92-9.92-6.18-13.17a1.58,1.58,0,0,0-2.68.85C39.6,33.77,30.39,44.35,15.68,59.06c-4.37,4.37-6.43,9-6.12,13.85a17.19,17.19,0,0,0,3.22,8.68L10,84.36a1.58,1.58,0,0,0,0,2.24l3.4,3.4a1.58,1.58,0,0,0,2.24,0l2.72-2.72a18.18,18.18,0,0,0,10.25,3.15,18.92,18.92,0,0,0,4.44-.53l.51-.14C39.51,88.47,46.87,84.53,55.43,78a1.58,1.58,0,1,0-1.91-2.52,87.24,87.24,0,0,1-12,7.82q.68-.93,1.34-2A64.81,64.81,0,0,0,49.64,65c.61-2.18,1.16-4.43,1.64-6.71,10.36-1.9,17.59-.32,20.93.77-2.68,2.64-5.32,5.12-7.85,7.41a1.58,1.58,0,1,0,2.12,2.35c3.11-2.8,6.37-5.9,9.68-9.22a1.58,1.58,0,0,0-.38-2.52A22.9,22.9,0,0,0,71,55.44C78.22,47.22,84,38.61,87.34,31,91.26,22.13,91.51,15.59,88.06,12.1ZM73.22,25.81a1.08,1.08,0,0,1,0-1.53l.39-.39a1.08,1.08,0,0,1,1.53,0l1.71,1.71a1.08,1.08,0,0,1,0,1.53l-.39.39a1.08,1.08,0,0,1-1.53,0h0Zm1.53-6.92-.36.38a.94.94,0,0,1-1.33,0L71.39,17.7a1,1,0,0,1,0-1.38l.36-.38a.94.94,0,0,1,1.33,0l1.66,1.61A1,1,0,0,1,74.75,18.89Zm-10.1,1.44,1.66,1.61a1,1,0,0,1,0,1.38L66,23.7a.94.94,0,0,1-1.33,0L63,22.12a1,1,0,0,1,0-1.38l.36-.38a.94.94,0,0,1,.66-.29h0A.93.93,0,0,1,64.65,20.33Zm-8.71,4.36a1.07,1.07,0,0,1,.76.32l1.71,1.71a1.08,1.08,0,0,1,0,1.53l-.39.39a1.08,1.08,0,0,1-1.53,0h0l-1.71-1.71a1.08,1.08,0,0,1,0-1.53l.39-.39,0,0,.17-.13A1.07,1.07,0,0,1,55.95,24.69Zm-2.66,19.5a1.08,1.08,0,0,1,.25-.39l.39-.39a1.08,1.08,0,0,1,1.53,0l1.71,1.71a1.08,1.08,0,0,1,0,1.53l-.39.39a1.08,1.08,0,0,1-1.53,0l-1.71-1.71a1.07,1.07,0,0,1-.29-.55ZM14.53,86.64l-1.17-1.17,1.4-1.4q.44.49.92,1l.22.22Zm25.65-7c-2.39,3.84-5,6.26-7.48,7h0l-.34.09a15.15,15.15,0,0,1-14.4-4c-4-4-9.36-12.18,0-21.52,7-7,13.17-13.4,18.09-21.1A72.8,72.8,0,0,0,45.94,14.9c2.6,4.26,4.16,10.9,4.44,19.16a90.15,90.15,0,0,1-.21,9.58,4.28,4.28,0,0,0-.1.92c0,.09,0,.17,0,.26A105.45,105.45,0,0,1,46.6,64.16,61.68,61.68,0,0,1,40.18,79.68ZM70.37,40.85l.37-.37a1,1,0,0,1,1.36,0l1.64,1.64a1,1,0,0,1,0,1.36l-.37.37a1,1,0,0,1-1.36,0l-1.64-1.64A1,1,0,0,1,70.37,40.85ZM84.44,29.74a79.44,79.44,0,0,1-7.28,12.72A4.09,4.09,0,0,0,76,39.88l-1.64-1.64A4.09,4.09,0,0,0,71.42,37a4.18,4.18,0,0,0-.69.06,4.22,4.22,0,0,0,1.33-.9l.39-.39a4.25,4.25,0,0,0,0-6l-1.71-1.71a4.24,4.24,0,0,0-6,0l-.39.39a4.24,4.24,0,0,0,0,6l1.71,1.71h0a4.24,4.24,0,0,0,3.73,1.18,4.12,4.12,0,0,0-1.28.87l-.37.37a4.13,4.13,0,0,0,0,5.83l1.64,1.64a4.09,4.09,0,0,0,2.91,1.21,4.14,4.14,0,0,0,1.06-.14q-1.66,2.16-3.47,4.3a4.12,4.12,0,0,0-.66-5L68,44.85a4.13,4.13,0,0,0-5.83,0l-.37.37a4.13,4.13,0,0,0,0,5.83l1.64,1.64a4.12,4.12,0,0,0,5.72.1q-.84,1-1.72,1.94a50.19,50.19,0,0,0-15.5.27c.35-2,.64-4,.89-5.93l.21.21h0a4.25,4.25,0,0,0,6,0l.39-.39a4.25,4.25,0,0,0,0-6l-1.71-1.71a4.21,4.21,0,0,0-3-1.24,4.26,4.26,0,0,0-1.17.16c.07-2.1.08-4.15,0-6.14,0-1.29-.12-2.66-.25-4.06l1,1a4.24,4.24,0,0,0,6,0l.39-.39a4.25,4.25,0,0,0,0-6l-1.71-1.71a4.29,4.29,0,0,0-.33-.3l.93-.65a4.12,4.12,0,0,0,1.24,2.58L62.45,26a4.07,4.07,0,0,0,2.85,1.15h.09a4.07,4.07,0,0,0,2.88-1.28l.36-.38a4.15,4.15,0,0,0-.13-5.83l-1.66-1.61a4.17,4.17,0,0,0-.53-.44q.82-.45,1.63-.87A4.13,4.13,0,0,0,69.2,20l1.66,1.61.32.28L71,22a4.25,4.25,0,0,0,0,6l1.71,1.71h0a4.24,4.24,0,0,0,6,0l.39-.39a4.25,4.25,0,0,0,0-6l-1.71-1.71a4.24,4.24,0,0,0-.49-.42l.16-.16,0,0a4.31,4.31,0,0,0,.37.43l1.71,1.71h0a4.24,4.24,0,0,0,6,0l.39-.39a4.24,4.24,0,0,0,0-6l-1.71-1.71a4.24,4.24,0,0,0-6,0l-.39.39-.17.19a4.13,4.13,0,0,0-.37-.4L75.3,13.68c4.91-1.49,8.61-1.27,10.51.65C88.2,16.74,87.7,22.36,84.44,29.74ZM69.82,34a1.08,1.08,0,0,1-1.53,0l-1.71-1.71a1.08,1.08,0,0,1,0-1.53l.39-.39a1.08,1.08,0,0,1,1.53,0L70.21,32a1.08,1.08,0,0,1,0,1.53ZM64,48.81a1,1,0,0,1,0-1.36l.37-.37a1,1,0,0,1,1.36,0l1.64,1.64a1,1,0,0,1,0,1.36l-.37.37a1,1,0,0,1-1.36,0h0ZM79.38,18.46a1.07,1.07,0,0,1,.32-.76l.39-.39a1.08,1.08,0,0,1,1.53,0L83.33,19a1.08,1.08,0,0,1,0,1.53l-.39.39a1.08,1.08,0,0,1-1.53,0l-1.71-1.71A1.07,1.07,0,0,1,79.38,18.46Z"/>
        <path d="M58.16,34.57l-.39.39a4.25,4.25,0,0,0,0,6l1.71,1.71a4.24,4.24,0,0,0,6,0l.39-.39a4.25,4.25,0,0,0,0-6l-1.71-1.71a4.24,4.24,0,0,0-6,0Zm5.48,3.95a1.08,1.08,0,0,1,0,1.53l-.39.39a1.08,1.08,0,0,1-1.53,0h0L60,38.72a1.08,1.08,0,0,1,0-1.53l.39-.39a1.08,1.08,0,0,1,1.53,0Z"/>
        <path d="M37.51,46.43a1.58,1.58,0,0,0-2.21.32A143.76,143.76,0,0,1,22.16,61.51l-2,2a1.58,1.58,0,1,0,2.24,2.24l2-2A146.59,146.59,0,0,0,37.83,48.64,1.58,1.58,0,0,0,37.51,46.43Z"/>
        <path d="M40.88,41.43a1.58,1.58,0,0,0-2.19.44l0,0a1.58,1.58,0,1,0,2.65,1.72h0A1.58,1.58,0,0,0,40.88,41.43Z"/>
      </g>
    </g>
  </g>
</svg>
