<svg xmlns="http://www.w3.org/2000/svg" viewBox="0 0 100 100">
  <title>cucumber_icon</title>
  <g id="Layer_2" data-name="Layer 2">
    <g id="Layer_1-2" data-name="Layer 1">
      <rect width="100" height="100" style="fill: #fff"/>
      <g style="opacity: 0.5">
        <rect width="100" height="100" style="fill: #fff"/>
      </g>
      <g>
        <path d="M59.43,67.17C42.35,84.25,25.32,94.92,17.49,87.09S20.32,62.22,37.4,45.14,71.56,17.42,79.35,25.22,76.52,50.08,59.43,67.17Z" style="fill: #a5dc69"/>
        <path d="M34.56,41.61s-7.06,3.07-9,7.35c1.12,1.53,6.34,2,6.34,2h0Q34.5,48,37.4,45.14c9.93-9.93,19.85-17.67,28-20.89l.81-.64s-8-11.91-26.39-13.48c-.23,4.57,2.78,13.56,2.78,13.56s-15.14-6.51-29.84,1.48C21.16,39.75,34.56,41.61,34.56,41.61Z" style="fill: #46c373"/>
        <circle cx="70.09" cy="72.7" r="17.18" style="fill: #d7fa91"/>
        <g>
          <path d="M68.16,64.16l1.93,3.35L72,64.16a2.23,2.23,0,0,0-.61-2.91h0a2.23,2.23,0,0,0-2.65,0h0A2.23,2.23,0,0,0,68.16,64.16Z" style="fill: #46c373"/>
          <path d="M72,81.25,70.09,77.9l-1.93,3.35a2.23,2.23,0,0,0,.61,2.91h0a2.23,2.23,0,0,0,2.65,0h0A2.23,2.23,0,0,0,72,81.25Z" style="fill: #46c373"/>
          <path d="M63.66,78.65l1.93-3.35H61.73a2.23,2.23,0,0,0-2.22,2h0a2.23,2.23,0,0,0,1.32,2.29h0A2.23,2.23,0,0,0,63.66,78.65Z" style="fill: #46c373"/>
          <path d="M76.53,66.76,74.59,70.1h3.87a2.23,2.23,0,0,0,2.22-2h0a2.23,2.23,0,0,0-1.32-2.29h0A2.23,2.23,0,0,0,76.53,66.76Z" style="fill: #46c373"/>
          <path d="M78.46,75.3H74.59l1.93,3.35a2.23,2.23,0,0,0,2.83.93h0a2.23,2.23,0,0,0,1.32-2.29h0A2.23,2.23,0,0,0,78.46,75.3Z" style="fill: #46c373"/>
          <path d="M61.73,70.1h3.87l-1.93-3.35a2.23,2.23,0,0,0-2.83-.93h0a2.23,2.23,0,0,0-1.32,2.29h0A2.23,2.23,0,0,0,61.73,70.1Z" style="fill: #46c373"/>
        </g>
        <path d="M34.91,84.68l-.08,0a1.62,1.62,0,1,0,1.53,2.86l.08,0a1.62,1.62,0,1,0-1.53-2.86Z"/>
        <path d="M35.69,78.95l1.12-1.12a1.62,1.62,0,1,0-2.29-2.29L33.4,76.66a1.62,1.62,0,0,0,2.29,2.29Z"/>
        <path d="M73.18,54.16c10-12.94,12.83-22.85,8.36-28.89a1.62,1.62,0,0,0-1.68-2.46,7.56,7.56,0,0,1-2.59-2.73,5.74,5.74,0,0,1,2.23-7.8,4.26,4.26,0,0,1,5.8,1.66,3.09,3.09,0,0,1-1.2,4.2,2.14,2.14,0,0,1-2.92-.83,1.39,1.39,0,0,1,.54-1.89,1.62,1.62,0,1,0-1.58-2.83,4.64,4.64,0,0,0-1.8,6.3A5.39,5.39,0,0,0,85.66,21a6.34,6.34,0,0,0,2.46-8.6,7.5,7.5,0,0,0-10.2-2.92,9,9,0,0,0-3.78,11.63A14,14,0,0,0,71.82,21,20.42,20.42,0,0,0,67,22a32.33,32.33,0,0,0-6.13-5.81A40.78,40.78,0,0,0,39.9,8.51,1.62,1.62,0,0,0,38.15,10c-.16,3.11,1,8,1.92,11.1a41.88,41.88,0,0,0-6.75-1.32,36.34,36.34,0,0,0-21.39,3.92A1.62,1.62,0,0,0,11.3,26,36.6,36.6,0,0,0,26.05,40.29a33.15,33.15,0,0,0,4.17,1.82c-2.28,1.44-5,3.58-6.17,6.17a1.62,1.62,0,0,0,.16,1.63c.72,1,2.13,1.67,4.45,2.16a88.5,88.5,0,0,0-12,16.76,27.29,27.29,0,0,0-3.39,10.7,10.9,10.9,0,0,0,3.07,8.69,10.63,10.63,0,0,0,7.83,3.1,18.7,18.7,0,0,0,5-.74,1.62,1.62,0,0,0-.87-3.12c-4.28,1.19-7.44.69-9.65-1.52-3.14-3.14-2.84-8.4.91-15.61,3.55-6.84,10.12-15.15,19-24s17.19-15.44,24.06-19c7.22-3.74,12.47-4,15.6-.92,2.39,2.39,2.76,6.07,1.1,10.94-1.6,4.7-5,10.29-10.07,16.62A18.77,18.77,0,0,0,51.3,72.64,111.92,111.92,0,0,1,41,80.9a1.62,1.62,0,1,0,1.86,2.66,110,110,0,0,0,8.87-7A18.81,18.81,0,1,0,73.18,54.16ZM61.12,24.41a61.47,61.47,0,0,0-6,3.57l-4.07-7.15a1.62,1.62,0,0,0-2.82,1.61l4.22,7.41q-2.73,2-5.61,4.39L35.31,30.56a1.62,1.62,0,0,0-1,3.09L44,36.72Q40.21,40,36.26,44q-2.65,2.65-5,5.23a18,18,0,0,1-3.51-.76c1.93-2.54,5.91-4.68,7.48-5.37A1.62,1.62,0,0,0,34.78,40a25.61,25.61,0,0,1-7.36-2.65A32.72,32.72,0,0,1,15,25.81,32.73,32.73,0,0,1,32.85,23a35.28,35.28,0,0,1,9.05,2.15,1.62,1.62,0,0,0,2.18-2,61.29,61.29,0,0,1-2.64-11.24,37.24,37.24,0,0,1,17.34,6.73,30.71,30.71,0,0,1,5,4.49Q62.46,23.72,61.12,24.41Zm20,59.3a15.56,15.56,0,1,1,0-22A15.58,15.58,0,0,1,81.1,83.71Z"/>
        <path d="M68.69,68.32a1.62,1.62,0,0,0,2.81,0L73.43,65a3.85,3.85,0,1,0-6.67,0Zm1-5.77a.61.61,0,0,1,.89.8l-.53.92-.53-.92A.61.61,0,0,1,69.73,62.55Z"/>
        <path d="M71.5,77.09a1.62,1.62,0,0,0-2.81,0l-1.93,3.35a3.85,3.85,0,1,0,6.67,0Zm-1,5.77a.61.61,0,0,1-.89-.8l.53-.92.53.92A.61.61,0,0,1,70.46,82.86Z"/>
        <path d="M67,74.49a1.62,1.62,0,0,0-1.4-.81H61.73a3.85,3.85,0,1,0,3.34,5.78L67,76.11A1.62,1.62,0,0,0,67,74.49Zm-5.51,3.6a.61.61,0,0,1,.24-1.17h1.06l-.53.92A.61.61,0,0,1,61.48,78.09Z"/>
        <path d="M75.12,65.95h0l-1.93,3.35a1.62,1.62,0,0,0,1.4,2.43h3.87a3.85,3.85,0,1,0-3.34-5.78Zm3.94,2a.61.61,0,0,1-.61.54H77.4l.53-.92h0a.61.61,0,0,1,1.14.37Z"/>
        <path d="M78.46,73.68H74.59a1.62,1.62,0,0,0-1.4,2.43l1.93,3.35a3.85,3.85,0,1,0,3.34-5.78Zm.24,4.41a.61.61,0,0,1-.77-.25l-.53-.92h1.06a.61.61,0,0,1,.24,1.17Z"/>
        <path d="M61.73,71.73h3.87A1.62,1.62,0,0,0,67,69.29l-1.93-3.35a3.85,3.85,0,1,0-3.34,5.78Zm-.25-4.41a.61.61,0,0,1,.77.25l.53.92H61.73a.61.61,0,0,1-.25-1.17Z"/>
        <path d="M22.87,76.94,21.81,78a1.62,1.62,0,1,0,2.29,2.29l1.06-1.06a1.62,1.62,0,1,0-2.29-2.29Z"/>
        <path d="M34.59,63.34A1.62,1.62,0,1,0,32.3,61l-1.12,1.12a1.62,1.62,0,1,0,2.29,2.29Z"/>
        <path d="M43.39,47.93l-1,1a1.62,1.62,0,1,0,2.29,2.29l1-1a1.62,1.62,0,0,0-2.29-2.29Z"/>
        <path d="M42.08,72.19a1.62,1.62,0,0,0,2.29,0l.84-.84a1.62,1.62,0,1,0-2.29-2.29l-.84.84A1.62,1.62,0,0,0,42.08,72.19Z"/>
        <path d="M56.36,48.68A1.62,1.62,0,1,0,58.65,51l.54-.54a1.62,1.62,0,1,0-2.29-2.29Z"/>
        <path d="M45.63,61a1.62,1.62,0,0,0,2.29,0l1.18-1.18a1.62,1.62,0,0,0-2.29-2.29L45.63,58.7A1.62,1.62,0,0,0,45.63,61Z"/>
        <path d="M67,43.83l-.56.56a1.62,1.62,0,1,0,2.29,2.29l.56-.56A1.62,1.62,0,0,0,67,43.83Z"/>
        <path d="M60,39.72l.52-.52a1.62,1.62,0,1,0-2.29-2.29l-.52.52A1.62,1.62,0,0,0,60,39.72Z"/>
        <path d="M71.24,35l.86-.86a1.62,1.62,0,1,0-2.29-2.29l-.86.86A1.62,1.62,0,0,0,71.24,35Z"/>
        <path d="M29.16,28.69a1.62,1.62,0,1,0,1.15.47A1.63,1.63,0,0,0,29.16,28.69Z"/>
      </g>
    </g>
  </g>
</svg>
