<svg xmlns="http://www.w3.org/2000/svg" viewBox="0 0 100 100">
  <title>dill_icon</title>
  <g id="Layer_2" data-name="Layer 2">
    <g id="Layer_1-2" data-name="Layer 1">
      <g style="opacity: 0.5">
        <rect width="100" height="100" style="fill: #fff"/>
      </g>
      <rect width="100" height="100" style="fill: #fff"/>
      <path d="M48.6,21.05c.7-.4.5-1.6,1.1-2.1,1.1,1.3-.4,3.4-1.1,4.3-.1.8.4,1,.3,1.8.9-.5.7-2.1,1.7-2.5,1,1.2-1.2,3.2-.8,4.5.4-.5.4-1.7,1.1-1.5.5.7,0,1.6-.1,2.5.1.4.2-.3.6-.1.5.6,0,1.3.1,1.9.3,1.4,1.8,3.1,2.6,4.5,1.6,2.7,2.7,5,4.1,7.8,1.4-5.1,1.5-11.9,1.2-16.8a4,4,0,0,0,0-1.1c-.6-1.9-3.1-2.4-3.6-4.3-1,.1-1.9,0-1.8-1.1.2-.2.5.1,1,0-.4-1.6-2.8-1.1-3.2-2.8.7-.4,1.2.3,2.1.7-.4-1.9-4.1-2-3.2-4.4.9.2.9,1.8,2.1,2.1.2-2-3.5-2-2.8-4.5,1.5,0,.9,2.1,2.2,2.2.1-1.3-2-2.7-1.2-4.3,1.4-.1.8,1.7,1.4,2.3.5-.2-.2-1.8.4-2.2,1.8.5.2,4.3,1.1,5.4a6.64,6.64,0,0,0,.3-1.5c1.3.1.6,1.5.8,2.9.6.7.2,2.4.8,3.2.1.5.8.4,1,.8-.4,2,1.6,2.7,2.3,4,.5-1.2-.4-2.1-.7-3.2-.1-.2.1-.7,0-1-.3-.9-1.1-1.3-1.1-2.2,0-.4.5-.5.5-1,0-.2-.5-.9-.5-1.5,0-.3.2-.7.1-.8-.3-1.5-1.7-2.9,0-4.3.8.2.1,1.2.3,2.1.3-.4.2-1.4.7-1.8,1.4.5.1,2.3.4,3.6.9-.8,1-2.3,1.7-3.3,1.3,1.3-.4,3.8-1.1,4.8.9.7.9-1.9,2.2-1.7.2,1.4-1.1,2.3-1.4,3.6a1.48,1.48,0,0,0-.7.1c.2.2.1.6.1,1,1,0,1.2-.7,1.7-1.2.5-.1.6.3,1,.4a2.84,2.84,0,0,1-2.3,1.9c-.1.6.2.8.1,1.4.8-.1,1.5-1.1,2.2-.4-.3,1-1.4,1.2-2.1,1.8,1.1,6.1.5,14.3-.7,20.9,1.5-4.1,4.3-8,6.7-11.8.7-1.1,2.3-2.9,2.5-4.1s-.7-2-.6-3c.4-.1.5.1.8.1a3.34,3.34,0,0,1,.3,1.5c.5,0,.4-.6.7-.8a3.76,3.76,0,0,1,.7-4.8c-.2-.8-1.2-1.9-.6-2.6.9.4,1,1.8,1.5,2.6.4-1.2-1.5-4.3.7-4.5.4.7-.3,1.5.1,2.2.6-.1,1.4-1.2,2.1-1.7.1.2.4.2.7.3-.4,1.3-1.6,1.8-2.1,3,.5.1,1-.9,1.2-1.5,1.4.9-.8,3.1-1.8,3.7,0,.4-.3.4-.3.8a1.71,1.71,0,0,0,1.8-1.2c1.9,1.1-1.3,2.9-2.3,2.6-.3.5.2.5.3,1a6.73,6.73,0,0,0,2.6-1c.6,1.4-.9,1.7-1.9,1.9,0,.3.2.4.1.8a20,20,0,0,0-2.6.5c-3.5,5.9-7.9,10.9-10.2,18a1.53,1.53,0,0,1-.7,1.9c.3,7.5,1.9,16.6,3,24.5,3.8-7.9,11.4-12,14.7-20.4-.3-1.1-.8-2.2-.1-3.2.2,0,.3-.2.5-.1a.27.27,0,0,0,.3.3c.1.6-.3.8-.3,1.4.3.3.4-.8.7-1-.7-1.1-1.2-2.4-.4-3.4,1.3.2.2,1.2.7,2.1,1.6-.8-1.2-3.2.1-4.5,1,.2,0,1.8,1,2.2,1.2-.9-.6-3.4.6-4.1.4.3.4,1,.5,1.5,1.5-.8-1.6-3.8.8-4.3v1.7a8.7,8.7,0,0,0,1.4-2.9c1.1.1.3,1,.3,1.8.5.5.4-.8,1.1-.6-.1,1.9-2.1,2.9-2.6,4.8.9.1,1.2-.9,1.9-.5-.1,1.9-2.8,1.2-2.9,3,.8.1,1-.8,1.4-.6.6,1.4-1.7,2-2.3,3,.8.4,1.6-.5,2.2.1-.4,1.3-2.8.6-3.2,2.6.5.4,1.4-.6,2.1-.1-.3,1.1-1.8,1.6-2.8,1.5-1.3,3.6-3.7,6.4-6.3,9.4-2.4,2.8-5.5,5.5-7.2,8.5a13.83,13.83,0,0,0-1.7,6.9c.1,2.4.9,5.8,1.2,8.8.1.8,0,1.6.1,2.3.4,1.8,1.9,3.8,1,5.6-1.6-.1-1.5-2.9-1.9-4.8a38.42,38.42,0,0,0-2.5-6.7c-2.6-6.2-7-12-12.2-15.4-4.7-3-9.7-5.8-14.7-8.7-2.4-1.4-4.8-3-7.4-4.3s-5.1-2.5-7-4.7a4.8,4.8,0,0,1-3.2-1.1c.3-1,1.1-.3,1.8-.1-.6-.8-2.9-1.1-3.3-2.6.6-.7,1.1.3,1.8.4-.5-1.4-2.1-1.7-2.9-2.9-.1-.3.2-.3.4-.3-.2-.8-1-1.1-1.1-2.1.2.1.3-.1.3-.3.6,0,.7.5,1.1.7a14.19,14.19,0,0,0-.5-2.2c1,0,1.1.8,1.4,1.5.6.2,0-.7.4-.7a.85.85,0,0,1,.7,0c.5,1.1-.3,2.9,0,3.7.5-.3.2-1.4.7-1.8.6,0,.6.7.5,1.4.3-.4.3-.3,1-.3a6.14,6.14,0,0,1-.4,2.8c.2.2.5-.6.7-.8.8.3.2,1.7-.5,1.8.1.6.6.9,1,1.2a7.13,7.13,0,0,0,.6-2.3c1.7.3.1,2.2.3,3.2s2.2,2,3,2.6a11.24,11.24,0,0,0,3.6,2.1c.4-8.1-2.2-13.8-5.2-18.9a2.29,2.29,0,0,1-2.3-1.7c.5-.4.8.3,1.2.4-.3-1.1-1.9-.8-2.3-1.8-.1-.5.5-.5.7-.3-.5-1.1-1.9-1.4-2.3-2.6.9-.4,1.4.5,2.1.8-.5-1.3-2.6-1.9-2.9-3,.2-.7.9.2,1.5.3-.5-1.3-2-1.7-2.3-3.2.6,0,.7-.2,1.1.1,0-.3-.3-.6.1-.7.3-.3.5.3.7.6.4-.1-.1-1,.4-1,1.7,1,0,3.2,1.2,4.1.5-.5.6-1.4,1.2-1.7.9.6-.1,2.4-.6,3,.2.4.5.8.7,1.2.5-.4.4-1.4.8-1.8,1.1-.3.8,1.7.4,1.9a2.24,2.24,0,0,1,.3,2.8c1.5,2.5,3,5,4.4,7.6a43.52,43.52,0,0,0,2.2-5.4c-.3-.6-1-1.7-.4-2.3.7-.1.6.7.8,1.1,1.2-1.2-1.2-3.4,0-5.4.4,0,.3.4.7.4a6.61,6.61,0,0,0,.3,2.5c.3-.3.4-.8.7-1.2-.5-.9-.8-2.5-.1-3.4,1.5,0,.2,1.3.7,2.2.5,0,.3-.6.7-.7-.1-1.4-.6-2.4-.3-3.7,1.1.1.6,1.7,1,2.6.6-.5,1.4-2.5,2.6-2.3.5.6-.4,1-.6,1.4,0,.2.5-.1.7.3a2.67,2.67,0,0,1-2.3,1.8c.2.3.5-.2.7.3-.5,1.8-2.4,2.2-2.8,4.1.9-.4,1.6-1.6,2.6-1.4,0,1.4-1.9,2-2.6,3.2h-.8a38.27,38.27,0,0,0-2.5,6.9c-.2.2-.6.2-.7.4A47.26,47.26,0,0,1,28,51.85c4.4,2.5,8.6,5.2,13.4,7.4,5.6,4.1,11.7,6.9,16,12.5a31,31,0,0,1,3.9,6.6c.7.8.9,2.2,1.5,3.2C61.9,69,59.1,57.45,58.5,45c-.1-.3-.4-.3-.6-.5-1.5-5.6-4.7-9.6-7.2-14.3-1-.1-2.7.5-2.5-1a5.31,5.31,0,0,1,1.8.1c-.2-1.7-2.5-1.4-2.9-2.9.5-.3.7,0,1.1.1-.7-1.3-2.3-1.8-2.6-3.4,1.2.2,1.5,1.3,2.3,1.8.1-.5-.2-.5-.1-1a6.07,6.07,0,0,1-2.8-5.2c.2,0,.5.1.5-.1.9,1,.6,3.2,1.9,3.7-.2-1.6-2-4.3-.1-5.4.5.6,0,1.3.4,2.1.3-.6.4-1.5.7-2.2C49.7,17.65,48.7,19.85,48.6,21.05Zm22.3-1c-.3.6-.7,1.9-.3,2.4C70.8,21.65,71.7,20.65,70.9,20.05ZM16.8,42.85c.2.1.2.4.4.6a6.54,6.54,0,0,0,.4-1.8A1.84,1.84,0,0,0,16.8,42.85Z"/>
      <path d="M47.1,24.8c.7-.4.5-1.6,1.1-2.1,1.1,1.3-.4,3.4-1.1,4.3-.1.8.4,1,.3,1.8.9-.5.7-2.1,1.7-2.5,1,1.2-1.2,3.2-.8,4.5.4-.5.4-1.7,1.1-1.5.5.7,0,1.6-.1,2.5.1.4.2-.3.6-.1.5.6,0,1.3.1,1.9.3,1.4,1.8,3.1,2.6,4.5,1.6,2.7,2.7,5,4.1,7.8,1.4-5.1,1.5-11.9,1.2-16.8a4,4,0,0,0,0-1.1c-.6-1.9-3.1-2.4-3.6-4.3-1,.1-1.9,0-1.8-1.1.2-.2.5.1,1,0-.4-1.6-2.8-1.1-3.2-2.8.7-.4,1.2.3,2.1.7-.4-1.9-4.1-2-3.2-4.4.9.2.9,1.8,2.1,2.1.2-2-3.5-2-2.8-4.5,1.5,0,.9,2.1,2.2,2.2.1-1.3-2-2.7-1.2-4.3,1.4-.1.8,1.7,1.4,2.3.5-.2-.2-1.8.4-2.2,1.8.5.2,4.3,1.1,5.4a6.64,6.64,0,0,0,.3-1.5c1.3.1.6,1.5.8,2.9.6.7.2,2.4.8,3.2.1.5.8.4,1,.8-.4,2,1.6,2.7,2.3,4,.5-1.2-.4-2.1-.7-3.2-.1-.2.1-.7,0-1-.3-.9-1.1-1.3-1.1-2.2,0-.4.5-.5.5-1,0-.2-.5-.9-.5-1.5,0-.3.2-.7.1-.8-.3-1.5-1.7-2.9,0-4.3.8.2.1,1.2.3,2.1.3-.4.2-1.4.7-1.8,1.4.5.1,2.3.4,3.6.9-.8,1-2.3,1.7-3.3,1.3,1.3-.4,3.8-1.1,4.8.9.7.9-1.9,2.2-1.7.2,1.4-1.1,2.3-1.4,3.6a1.48,1.48,0,0,0-.7.1c.2.2.1.6.1,1,1,0,1.2-.7,1.7-1.2.5-.1.6.3,1,.4A2.84,2.84,0,0,1,58.5,22c-.1.6.2.8.1,1.4.8-.1,1.5-1.1,2.2-.4-.3,1-1.4,1.2-2.1,1.8,1.1,6.1.5,14.3-.7,20.9,1.5-4.1,4.3-8,6.7-11.8.7-1.1,2.3-2.9,2.5-4.1s-.7-2-.6-3c.4-.1.5.1.8.1a3.34,3.34,0,0,1,.3,1.5c.5,0,.4-.6.7-.8a3.76,3.76,0,0,1,.7-4.8c-.2-.8-1.2-1.9-.6-2.6.9.4,1,1.8,1.5,2.6.4-1.2-1.5-4.3.7-4.5.4.7-.3,1.5.1,2.2.6-.1,1.4-1.2,2.1-1.7.1.2.4.2.7.3-.4,1.3-1.6,1.8-2.1,3,.5.1,1-.9,1.2-1.5,1.4.9-.8,3.1-1.8,3.7,0,.4-.3.4-.3.8a1.71,1.71,0,0,0,1.8-1.2c1.9,1.1-1.3,2.9-2.3,2.6-.3.5.2.5.3,1a6.73,6.73,0,0,0,2.6-1c.6,1.4-.9,1.7-1.9,1.9,0,.3.2.4.1.8a20,20,0,0,0-2.6.5c-3.5,5.9-7.9,10.9-10.2,18a1.53,1.53,0,0,1-.7,1.9c.3,7.5,1.9,16.6,3,24.5,3.8-7.9,11.4-12,14.7-20.4-.3-1.1-.8-2.2-.1-3.2.2,0,.3-.2.5-.1a.27.27,0,0,0,.3.3c.1.6-.3.8-.3,1.4.3.3.4-.8.7-1-.7-1.1-1.2-2.4-.4-3.4,1.3.2.2,1.2.7,2.1,1.6-.8-1.2-3.2.1-4.5,1,.2,0,1.8,1,2.2,1.2-.9-.6-3.4.6-4.1.4.3.4,1,.5,1.5,1.5-.8-1.6-3.8.8-4.3v1.7a8.7,8.7,0,0,0,1.4-2.9c1.1.1.3,1,.3,1.8.5.5.4-.8,1.1-.6-.1,1.9-2.1,2.9-2.6,4.8.9.1,1.2-.9,1.9-.5-.1,1.9-2.8,1.2-2.9,3,.8.1,1-.8,1.4-.6.6,1.4-1.7,2-2.3,3,.8.4,1.6-.5,2.2.1-.4,1.3-2.8.6-3.2,2.6.5.4,1.4-.6,2.1-.1-.3,1.1-1.8,1.6-2.8,1.5-1.3,3.6-3.7,6.4-6.3,9.4-2.4,2.8-5.5,5.5-7.2,8.5a13.83,13.83,0,0,0-1.7,6.9c.1,2.4.9,5.8,1.2,8.8.1.8,0,1.6.1,2.3.4,1.8,1.9,3.8,1,5.6-1.6-.1-1.5-2.9-1.9-4.8a38.42,38.42,0,0,0-2.5-6.7c-2.6-6.2-7-12-12.2-15.4-4.7-3-9.7-5.8-14.7-8.7-2.4-1.4-4.8-3-7.4-4.3s-5.1-2.5-7-4.7a4.8,4.8,0,0,1-3.2-1.1c.3-1,1.1-.3,1.8-.1-.6-.8-2.9-1.1-3.3-2.6.6-.7,1.1.3,1.8.4-.5-1.4-2.1-1.7-2.9-2.9-.1-.3.2-.3.4-.3-.2-.8-1-1.1-1.1-2.1.2.1.3-.1.3-.3.6,0,.7.5,1.1.7a14.19,14.19,0,0,0-.5-2.2c1,0,1.1.8,1.4,1.5.6.2,0-.7.4-.7a.85.85,0,0,1,.7,0c.5,1.1-.3,2.9,0,3.7.5-.3.2-1.4.7-1.8.6,0,.6.7.5,1.4.3-.4.3-.3,1-.3a6.14,6.14,0,0,1-.4,2.8c.2.2.5-.6.7-.8.8.3.2,1.7-.5,1.8.1.6.6.9,1,1.2a7.13,7.13,0,0,0,.6-2.3c1.7.3.1,2.2.3,3.2s2.2,2,3,2.6a11.24,11.24,0,0,0,3.6,2.1c.4-8.1-2.2-13.8-5.2-18.9a2.29,2.29,0,0,1-2.3-1.7c.5-.4.8.3,1.2.4-.3-1.1-1.9-.8-2.3-1.8-.1-.5.5-.5.7-.3-.5-1.1-1.9-1.4-2.3-2.6.9-.4,1.4.5,2.1.8-.5-1.3-2.6-1.9-2.9-3,.2-.7.9.2,1.5.3-.5-1.3-2-1.7-2.3-3.2.6,0,.7-.2,1.1.1,0-.3-.3-.6.1-.7.3-.3.5.3.7.6.4-.1-.1-1,.4-1,1.7,1,0,3.2,1.2,4.1.5-.5.6-1.4,1.2-1.7.9.6-.1,2.4-.6,3,.2.4.5.8.7,1.2.5-.4.4-1.4.8-1.8,1.1-.3.8,1.7.4,1.9a2.24,2.24,0,0,1,.3,2.8c1.5,2.5,3,5,4.4,7.6a43.52,43.52,0,0,0,2.2-5.4c-.3-.6-1-1.7-.4-2.3.7-.1.6.7.8,1.1,1.2-1.2-1.2-3.4,0-5.4.4,0,.3.4.7.4a6.61,6.61,0,0,0,.3,2.5c.3-.3.4-.8.7-1.2-.5-.9-.8-2.5-.1-3.4,1.5,0,.2,1.3.7,2.2.5,0,.3-.6.7-.7-.1-1.4-.6-2.4-.3-3.7,1.1.1.6,1.7,1,2.6.6-.5,1.4-2.5,2.6-2.3.5.6-.4,1-.6,1.4,0,.2.5-.1.7.3a2.67,2.67,0,0,1-2.3,1.8c.2.3.5-.2.7.3-.5,1.8-2.4,2.2-2.8,4.1.9-.4,1.6-1.6,2.6-1.4,0,1.4-1.9,2-2.6,3.2h-.8a38.27,38.27,0,0,0-2.5,6.9c-.2.2-.6.2-.7.4a47.26,47.26,0,0,1,1.8,12.9c4.4,2.5,8.6,5.2,13.4,7.4,5.6,4.1,11.7,6.9,16,12.5a31,31,0,0,1,3.9,6.6c.7.8.9,2.2,1.5,3.2-.9-12.6-3.7-24.1-4.3-36.6-.1-.3-.4-.3-.6-.5-1.5-5.6-4.7-9.6-7.2-14.3-1-.1-2.7.5-2.5-1a5.31,5.31,0,0,1,1.8.1c-.2-1.7-2.5-1.4-2.9-2.9.5-.3.7,0,1.1.1-.7-1.3-2.3-1.8-2.6-3.4,1.2.2,1.5,1.3,2.3,1.8.1-.5-.2-.5-.1-1a6.07,6.07,0,0,1-2.8-5.2c.2,0,.5.1.5-.1.9,1,.6,3.2,1.9,3.7-.2-1.6-2-4.3-.1-5.4.5.6,0,1.3.4,2.1.3-.6.4-1.5.7-2.2C48.2,21.4,47.2,23.6,47.1,24.8Zm22.3-1c-.3.6-.7,1.9-.3,2.4C69.3,25.4,70.2,24.4,69.4,23.8ZM15.3,46.6c.2.1.2.4.4.6a6.54,6.54,0,0,0,.4-1.8A1.84,1.84,0,0,0,15.3,46.6Z" style="fill: #37936e"/>
    </g>
  </g>
</svg>
