<svg xmlns="http://www.w3.org/2000/svg" viewBox="0 0 100 100">
  <title>garlic_icon</title>
  <g id="Layer_2" data-name="Layer 2">
    <g id="Layer_1-2" data-name="Layer 1">
      <rect width="100" height="100" style="fill: #fff"/>
      <g style="opacity: 0.5">
        <rect width="100" height="100" style="fill: #fff"/>
      </g>
      <g>
        <path d="M63.83,11.24C61,27.64,34.14,39.71,32.6,54.28c-1.8,17,9.51,23.06,24.08,24.59,1.54.16,3.06.27,4.55.31,2.43-3.24,6.75-7.81,12.48-9a28.24,28.24,0,0,1,8.75-.46,25.34,25.34,0,0,0,2.92-9.91C87,44.75,69.1,30.74,70,11.88Z" style="fill: #f0f0fa"/>
        <g>
          <path d="M26.61,20.24c2,13.41-15.63,29.64-13,41.29,3,13.62,13.37,15.36,25.08,12.79q.93-.2,1.83-.44c-5.62-3.75-8.82-9.85-7.8-19.48.65-6.13,5.81-11.82,11.78-17.57-5.28-4.95-10.8-10.23-12.93-17.68Z" style="fill: #fff"/>
          <path d="M73.78,70.55c9.14-1.86,17.38.65,18.4,5.59S86.61,86.61,77.47,88.47s-18.4-5.59-18.4-5.59S64.64,72.41,73.78,70.55Z" style="fill: #fff"/>
          <path d="M22.25,87.45c-9-3.05-15.5-8.11-14.41-11.3s9.29-3.3,18.34-.25S40.58,87.2,40.58,87.2,31.29,90.5,22.25,87.45Z" style="fill: #fff"/>
        </g>
        <path d="M39,62.67a1.72,1.72,0,0,0,3.27-1C38.82,50.78,46.7,44.48,53,39.42a28.62,28.62,0,0,0,5.5-5.13,1.72,1.72,0,0,0-2.82-2,27.17,27.17,0,0,1-4.82,4.41C44.49,41.85,34.83,49.57,39,62.67Z"/>
        <path d="M78.15,59.14a1.72,1.72,0,0,0,1.71,1.72h0a1.72,1.72,0,0,0,1.72-1.71c0-6.92-2.43-11-2.54-11.15a1.72,1.72,0,1,0-2.93,1.8A19.34,19.34,0,0,1,78.15,59.14Z"/>
        <path d="M22,52.65h.08a1.72,1.72,0,1,0,0-3.44H22a1.72,1.72,0,1,0,0,3.44Z"/>
        <path d="M71.26,53.47A1.72,1.72,0,1,0,70,53,1.73,1.73,0,0,0,71.26,53.47Z"/>
        <path d="M28.12,67.44c-5.44-2.29-6.39-6.47-6.23-9.56a1.72,1.72,0,1,0-3.43-.18,13.55,13.55,0,0,0,1.23,6.49,13.16,13.16,0,0,0,7.09,6.42,1.72,1.72,0,0,0,1.33-3.17Z"/>
        <path d="M93.86,75.8c-.73-3.53-4.17-6-9-7.07A29,29,0,0,0,87.08,60c.83-7.83-3.09-15.12-7.24-22.83s-8.59-16-8.17-25.22a1.72,1.72,0,0,0-1.54-1.79L64,9.53a1.72,1.72,0,0,0-1.87,1.41C60.78,18.7,53.62,25.52,46.7,32.12l-2.35,2.25C39.27,29.56,35,25,33.19,18.69a1.72,1.72,0,0,0-2-1.21l-4.92,1.08a1.72,1.72,0,0,0-1.33,1.94c1,6.32-2.8,13.5-6.45,20.45s-7.41,14.12-6.59,20.8a17.76,17.76,0,0,0,4.4,10.31c-5-.36-9.06.61-10.06,3.55a4.54,4.54,0,0,0,.36,3.55c1.74,3.52,7.68,7.42,15.13,9.93a27.92,27.92,0,0,0,8.92,1.39,34.32,34.32,0,0,0,10.54-1.65A1.72,1.72,0,0,0,42,86.27,34.25,34.25,0,0,0,32.38,77,46.41,46.41,0,0,0,39,76l1.24-.29.18-.06A36.67,36.67,0,0,0,53.1,80.11l.3.05q1.51.25,3.09.42l1.84.16c-.47.74-.73,1.23-.78,1.32A1.72,1.72,0,0,0,58,84.21c.36.29,7.9,6.27,16.43,6.27a17,17,0,0,0,3.38-.33c6.52-1.32,12.14-4.54,14.69-8.4A7.85,7.85,0,0,0,93.86,75.8ZM49.07,34.6C56,28,63.07,21.27,65.18,13.11l3,.32c.06,9.49,4.4,17.56,8.61,25.39,3.89,7.23,7.56,14.06,6.85,20.84a24.54,24.54,0,0,1-2.37,8.61,30.82,30.82,0,0,0-7.86.61,16.93,16.93,0,0,0-3.23,1A22.86,22.86,0,0,0,73,59a1.72,1.72,0,1,0-3.44-.07c-.15,6.92-2.86,12-8.05,15.14a20.7,20.7,0,0,1-7.86,2.7C46,75.4,40.16,72.39,36.93,68.09c-2.72-3.62-3.6-8.16-2.64-13.51C35.57,47.46,42.13,41.22,49.07,34.6ZM37.67,86.22c-3.18.72-9.13,1.54-14.87-.39-7.5-2.53-12.07-6-13.14-8.2a1.44,1.44,0,0,1-.19-.92c.17-.5,1.53-1.26,4.58-1.3h.28a37,37,0,0,1,11.31,2.13C31.36,79.47,35.58,83.73,37.67,86.22ZM20.37,71.1c-2.83-2-4.54-5.29-5.09-9.77-.69-5.61,2.67-12,6.23-18.78s7.36-14,7-21l1.9-.42c2.23,6.26,6.67,11,11.51,15.6C36.63,42.07,32,47.63,30.91,54s0,11.77,3.28,16.18A19.67,19.67,0,0,0,36.77,73C31.47,73.94,24.82,74.25,20.37,71.1Zm69.26,8.76c-2,3.07-6.94,5.79-12.51,6.92a13.45,13.45,0,0,1-2.69.26C68.93,87,63.66,84,61.36,82.4c1.74-2.7,6.34-8.86,12.76-10.17a23.9,23.9,0,0,1,11.4.2c2.8.85,4.61,2.33,5,4.05A4.46,4.46,0,0,1,89.64,79.86Z"/>
      </g>
    </g>
  </g>
</svg>
