<svg xmlns="http://www.w3.org/2000/svg" viewBox="0 0 100 100">
  <title>green_onion_icon</title>
  <g id="Layer_2" data-name="Layer 2">
    <g id="Layer_1-2" data-name="Layer 1">
      <rect width="100" height="100" style="fill: #fff"/>
      <g style="opacity: 0.5">
        <rect width="100" height="100" style="fill: #fff"/>
      </g>
      <g>
        <path d="M44.24,55.44l28-10.59A33.56,33.56,0,0,0,91.08,27h0L56.82,42.4Z" style="fill: #46c373"/>
        <path d="M44.24,55.44S28.86,81.27,25.39,86.9a8.65,8.65,0,0,1-13,2.12,8.64,8.64,0,0,1-.66-13.21c4.83-4.53,26.8-25,26.8-25Z" style="fill: #fff"/>
        <path d="M44.24,55.44l-5.75-4.66L54,26.24A38.46,38.46,0,0,1,72.42,11h0Z" style="fill: #a5dc69"/>
        <path d="M44,55.24,90.34,8.92h0a25.55,25.55,0,0,0-18.06,7.46l-9.13,9.1Z" style="fill: #d7fa91"/>
        <path d="M28.62,66.4a1.67,1.67,0,0,0-2.36.08s-4.09,4.39-8.15,8.66a1.67,1.67,0,0,0,2.42,2.3c4.07-4.29,8.13-8.64,8.17-8.68A1.67,1.67,0,0,0,28.62,66.4Z"/>
        <path d="M14.16,79.25l0,0a1.67,1.67,0,0,0,2.36,2.37l0,0a1.67,1.67,0,0,0-2.36-2.37Z"/>
        <path d="M92.25,25.79a1.67,1.67,0,0,0-1.86-.34L64.48,37.12l27-27a1.67,1.67,0,0,0-1.18-2.85h0A27,27,0,0,0,72.61,13.8l1.22-1.92a1.67,1.67,0,0,0-2-2.45A39.86,39.86,0,0,0,52.57,25.35L37.19,49.71c-2,1.85-22.08,20.6-26.64,24.88a10.06,10.06,0,0,0-3.29,7.78A10.92,10.92,0,0,0,18.08,92.75a10.29,10.29,0,0,0,1.74-.15,10.18,10.18,0,0,0,7-4.83c3.17-5.14,16.4-27.35,18.57-31L58.11,52a1.67,1.67,0,1,0-1.18-3.12l-6.75,2.55,7.62-7.62L87.31,30.51A32.11,32.11,0,0,1,71.64,43.29l-3.8,1.44A1.67,1.67,0,1,0,69,47.85l3.8-1.44A35.24,35.24,0,0,0,92.61,27.65,1.67,1.67,0,0,0,92.25,25.79Zm-27.11.07,8.32-8.3A23.72,23.72,0,0,1,85.9,11L55.76,41.11a1.66,1.66,0,0,0-.23.23l-1,1L64.81,26.11A1.66,1.66,0,0,0,65.14,25.86ZM55.4,27.13A36.53,36.53,0,0,1,67.87,15L43.83,53l-2.94-2.38-.21-.17ZM24,86a6.77,6.77,0,0,1-4.71,3.29,7.37,7.37,0,0,1-5.86-1.59,7.52,7.52,0,0,1-2.8-5.47A6.66,6.66,0,0,1,12.83,77C17,73.13,34.11,57.15,38.56,53l3.5,2.83C38.95,61.06,27,81.17,24,86Z"/>
        <path d="M63.31,46.56a1.67,1.67,0,1,0,1.18.49A1.68,1.68,0,0,0,63.31,46.56Z"/>
      </g>
    </g>
  </g>
</svg>
