<svg xmlns="http://www.w3.org/2000/svg" viewBox="0 0 100 100">
  <title>herbs_icon</title>
  <g id="Layer_2" data-name="Layer 2">
    <g id="Layer_1-2" data-name="Layer 1">
      <g>
        <g style="opacity: 0.5">
          <rect width="100" height="100" style="fill: #fff"/>
        </g>
        <rect width="100" height="100" style="fill: #fff"/>
      </g>
      <path d="M61.88,87.82c-1.4-8.2,1.5-15.2,2.3-23.1.9.4,1,.1,2,0,4.4-4,11.9-3.5,16.9-7a9.48,9.48,0,0,1,.6-2c-.3-1-1.2-1.3-1.8-2a10,10,0,0,0,.9-2.6c-.7-.5-1.9-.5-2.6-.9-.3-1.9-.3-4-2.3-4.1-3.1,3-4.8,7.5-9.3,9.1,1.9-3.7,3.8-8.7,1.5-12.6-1.6-.4-1.3,1-2,1.5.1-2.1,0-3.9-2.3-3.5a25.47,25.47,0,0,0-2.6,3.8c-.3-1.1-1.4-1.4-2.9-1.2-4.7,9.7,4.8,17.8,0,26.6,1.2,2.1-.1,5.7-1.2,7.3.3,1.8.7,5.8,0,6.7-3.5-9.3-6.6-18.9-10.2-28-5.1-2.6-4.5-11.1-4.1-18.4,5.7-2.8,12.2.3,18.1-2a5.36,5.36,0,0,0-.3-2.3c1.6-.9,3.6-1.5,4.1-3.5-1-1.4-1.6-1.5-3.8-1.5-.4-.6-.3-1.7-.6-2.3a2.42,2.42,0,0,1-2-.6c.3-1.3,2-1.1,2-2.6-.6-2.9-3.9-.5-5.8-.6-1.3,2.5-3.7,3.2-5.6,5.3s-2.3,5.3-5,6.1c-.7-5.5,4.2-20.6-4.2-22.1-.1.2-.2.3-.6.3-.9.7-.5,2.7-.9,3.8a2.39,2.39,0,0,0-2.9-.3c-.8.5.7,2-.3,2.6-1.2-1-2-2.3-4.1-2.3-1.7,3.9,1.1,7.3,2.6,10.8,1.1,2.4,2.8,4.5,3.2,6.4-5.8-3.4-9.6-8.9-16.4-11.4-.9.5-.8,1.9-1.2,2.9-.9-.4-.8.1-2,0a9.17,9.17,0,0,0-.9,2.3,3.17,3.17,0,0,0-2.3.6c.1,5.6,7.8,5.9,10.5,9.9-2,.8-4.9.8-6.7,1.8.2,1-.4,1.1-.3,2,8.1,4.4,15.5-2.9,22.5-2.9,0,3.1-.6,7.2-.3,9.9.5,4.9,2.4,6.1,4.4,9.1,2.3,3.5,3.3,7.9,4.7,11.7-4.4-4.5-12.6-6.7-17.2-11.4-1.9-1.9-2.7-6.7-5.5-7.3-1.4-.3-2,.9-3.5.9s-2.2-1.3-3.8-1.2c-2.2,1.3-.5,3.4-.6,5-2.2.3-4.2-1.4-6.7-.6.4,1.1-.8.6-.6,1.5.2,1.9,3.3,1.3,2,3.8a4.76,4.76,0,0,1,2.9.9c-.5.5-1.1.9-.9,2,.6.5,2.2,0,2.6.6-.9,1.4-2.5,2.1-2.9,4.1,6.8,1.3,13-1.7,18.1-4.4,13.2,3.3,20,13.1,23.7,26,.2.4,1.1,0,1.2.6,1.2,2,2.4,4,3.7,6l1.1-2A15.16,15.16,0,0,1,61.88,87.82Z"/>
      <path d="M64.8,84.9c-1.4-8.2,1.5-15.2,2.3-23.1.9.4,1,.1,2,0,4.4-4,11.9-3.5,16.9-7a9.48,9.48,0,0,1,.6-2c-.3-1-1.2-1.3-1.8-2a10,10,0,0,0,.9-2.6c-.7-.5-1.9-.5-2.6-.9-.3-1.9-.3-4-2.3-4.1-3.1,3-4.8,7.5-9.3,9.1,1.9-3.7,3.8-8.7,1.5-12.6-1.6-.4-1.3,1-2,1.5.1-2.1,0-3.9-2.3-3.5a25.47,25.47,0,0,0-2.6,3.8c-.3-1.1-1.4-1.4-2.9-1.2-4.7,9.7,4.8,17.8,0,26.6,1.2,2.1-.1,5.7-1.2,7.3.3,1.8.7,5.8,0,6.7-3.5-9.3-6.6-18.9-10.2-28-5.1-2.6-4.5-11.1-4.1-18.4,5.7-2.8,12.2.3,18.1-2a5.36,5.36,0,0,0-.3-2.3c1.6-.9,3.6-1.5,4.1-3.5-1-1.4-1.6-1.5-3.8-1.5-.4-.6-.3-1.7-.6-2.3a2.42,2.42,0,0,1-2-.6c.3-1.3,2-1.1,2-2.6-.6-2.9-3.9-.5-5.8-.6-1.3,2.5-3.7,3.2-5.6,5.3s-2.3,5.3-5,6.1C48.1,25,53,9.9,44.6,8.4c-.1.2-.2.3-.6.3-.9.7-.5,2.7-.9,3.8a2.39,2.39,0,0,0-2.9-.3c-.8.5.7,2-.3,2.6-1.2-1-2-2.3-4.1-2.3-1.7,3.9,1.1,7.3,2.6,10.8,1.1,2.4,2.8,4.5,3.2,6.4-5.8-3.4-9.6-8.9-16.4-11.4-.9.5-.8,1.9-1.2,2.9-.9-.4-.8.1-2,0a9.17,9.17,0,0,0-.9,2.3,3.17,3.17,0,0,0-2.3.6c.1,5.6,7.8,5.9,10.5,9.9-2,.8-4.9.8-6.7,1.8.2,1-.4,1.1-.3,2,8.1,4.4,15.5-2.9,22.5-2.9,0,3.1-.6,7.2-.3,9.9.5,4.9,2.4,6.1,4.4,9.1,2.3,3.5,3.3,7.9,4.7,11.7C49.2,61.1,41,58.9,36.4,54.2c-1.9-1.9-2.7-6.7-5.5-7.3-1.4-.3-2,.9-3.5.9s-2.2-1.3-3.8-1.2c-2.2,1.3-.5,3.4-.6,5-2.2.3-4.2-1.4-6.7-.6.4,1.1-.8.6-.6,1.5.2,1.9,3.3,1.3,2,3.8a4.76,4.76,0,0,1,2.9.9c-.5.5-1.1.9-.9,2,.6.5,2.2,0,2.6.6-.9,1.4-2.5,2.1-2.9,4.1,6.8,1.3,13-1.7,18.1-4.4,13.2,3.3,20,13.1,23.7,26,.2.4,1.1,0,1.2.6,1.2,2,2.4,4,3.7,6l1.1-2A15.16,15.16,0,0,1,64.8,84.9Z" style="fill: #37936e"/>
    </g>
  </g>
</svg>
