<svg xmlns="http://www.w3.org/2000/svg" viewBox="0 0 100 100">
  <title>lettuce_icon</title>
  <g id="Layer_2" data-name="Layer 2">
    <g id="Layer_1-2" data-name="Layer 1">
      <rect width="100" height="100" style="fill: #fff"/>
      <g style="opacity: 0.5">
        <rect width="100" height="100" style="fill: #fff"/>
      </g>
      <g>
        <path d="M69.37,74.13c-2.48.07-5.31,1-6.47,2.27a5,5,0,0,0,.37,7.11h0A5,5,0,1,1,56.54,91h0a7.11,7.11,0,0,1-6.25-12.77h0a6.07,6.07,0,1,1-8.21-8.94h0a10.65,10.65,0,0,1-14-5.67l-.1-.15A7.72,7.72,0,0,1,21.8,49.32l-2.39,1.1a8.34,8.34,0,1,1-6.71-15.27l-.35-.49A15.78,15.78,0,0,1,34.68,12.34l.47.37a8.34,8.34,0,1,1,15.27,6.71l-1.1,2.39A7.72,7.72,0,0,1,63.46,28l.15.1a10.65,10.65,0,0,1,5.67,14h0a6.07,6.07,0,0,1,8.94,8.21h0A7.11,7.11,0,0,1,91,56.54h0a5,5,0,1,1-7.47,6.74h0a5,5,0,0,0-7.11-.37,7.61,7.61,0,0,0-2,6.21Z" style="fill: #a5dc69"/>
        <path d="M90.88,84.84,22.68,23,84.86,90.89a4.27,4.27,0,0,0,6.32,0h0A4.27,4.27,0,0,0,90.88,84.84Z" style="fill: #d7fa91"/>
        <path d="M12.32,14.11a1.71,1.71,0,0,0,1.22-.51l0,0a1.72,1.72,0,0,0-2.42-2.44l-.06.06a1.72,1.72,0,0,0,1.22,2.92Z"/>
        <path d="M78.65,82.39a1.72,1.72,0,1,0,1.21.5A1.73,1.73,0,0,0,78.65,82.39Z"/>
        <path d="M92,83.57,76.09,69.11a1.73,1.73,0,0,0,0-.24,5.89,5.89,0,0,1,1.49-4.69,3.31,3.31,0,0,1,4.6.16l.08.09a6.75,6.75,0,0,0,10.71-8.14A8.83,8.83,0,0,0,81.73,45.06l-.27.1a7.78,7.78,0,0,0-9.64-6.52,12.4,12.4,0,0,0-6.26-11.48A9.44,9.44,0,0,0,53,16.11l-.12,0a10.06,10.06,0,0,0-18.12-6.1,17.58,17.58,0,0,0-17.18-3,1.72,1.72,0,0,0,1.17,3.23,14.12,14.12,0,0,1,14.75,3.27,6.23,6.23,0,0,0,1,.73,1.72,1.72,0,0,0,2.26-.88,6.62,6.62,0,0,1,12.13,5.31l-1,2.09-.15.31a1.72,1.72,0,0,0,3.13,1.41l.12-.25a6,6,0,0,1,10.89,5.05,1.72,1.72,0,0,0,.58,2.09l.15.1a1.71,1.71,0,0,0,.32.18A8.93,8.93,0,0,1,67.69,41.4l-.05.14a1.72,1.72,0,0,0,2.9,1.7,4.35,4.35,0,0,1,7.25,4.55,8.89,8.89,0,0,0-1.12,1.75,1.72,1.72,0,0,0,2.79,1.94l0,0a7.82,7.82,0,0,0,1.23-1.77,5.39,5.39,0,0,1,8.74,6.1,1.72,1.72,0,0,0,.28,1.92,3.31,3.31,0,0,1-4.86,4.5l-.08-.09a6.75,6.75,0,0,0-9.53-.49,8.65,8.65,0,0,0-2.44,4.51l-1.89-1.71a10,10,0,0,1-2-5.56,6.54,6.54,0,0,0,2.09.34h.16a6.51,6.51,0,0,0,4.59-2,1.72,1.72,0,0,0-2.49-2.37,3.11,3.11,0,0,1-3.9.5,10,10,0,0,1,3.41-4.93,1.72,1.72,0,1,0-2.12-2.71,13.46,13.46,0,0,0-5.1,9,13.66,13.66,0,0,0-.05,2.8l-9.19-8.33,0,0A10.1,10.1,0,0,1,58,36.95a1.72,1.72,0,0,0-2.12-2.71,13.61,13.61,0,0,0-2.77,2.92,4.48,4.48,0,0,1,.39-5.69A1.72,1.72,0,0,0,51,29.1a7.91,7.91,0,0,0,.26,11.18l.17.14a13.57,13.57,0,0,0-.71,5.72L38.51,35A10.12,10.12,0,0,1,40.28,20.9a1.72,1.72,0,1,0-2.12-2.71A13.54,13.54,0,0,0,33,30.06l-9.19-8.33a1.72,1.72,0,0,0-2.42,2.43l7.37,8a13.65,13.65,0,0,0-2.8.05,13.46,13.46,0,0,0-9,5.1,1.72,1.72,0,0,0,2.71,2.12,10.1,10.1,0,0,1,14.19-1.73h0L44.93,49.84a13.62,13.62,0,0,0-5.53.66l-.06-.07a7.9,7.9,0,0,0-11.18.26,1.72,1.72,0,0,0,2.49,2.37A4.47,4.47,0,0,1,36,52.22,13.61,13.61,0,0,0,33.09,55a1.72,1.72,0,0,0,2.71,2.12A10.12,10.12,0,0,1,50,55.38l.06,0,8.41,9.18a13.54,13.54,0,0,0-11.82,5.14,1.72,1.72,0,0,0,2.71,2.12,10.05,10.05,0,0,1,5.07-3.45,3.11,3.11,0,0,1-.06,4.23A1.72,1.72,0,1,0,56.83,75a6.56,6.56,0,0,0,1.33-7,10,10,0,0,1,5.33,2.08L66,72.9a9.18,9.18,0,0,0-4.42,2.35,6.76,6.76,0,0,0,.49,9.53l.09.08a3.31,3.31,0,0,1-4.49,4.87,1.72,1.72,0,0,0-1.93-.29,5.39,5.39,0,0,1-6.1-8.74,7.83,7.83,0,0,0,1.76-1.22l0,0a1.72,1.72,0,0,0-1.94-2.79,8.82,8.82,0,0,0-1.74,1.12,4.35,4.35,0,0,1-4.56-7.24,1.72,1.72,0,0,0-1.7-2.9l-.13.05A8.94,8.94,0,0,1,29.7,62.93a1.72,1.72,0,0,0-.18-.32l-.1-.15a1.72,1.72,0,0,0-2.1-.58A6,6,0,0,1,22.27,51l.25-.12a1.72,1.72,0,0,0-1.41-3.13l-.32.15-2.09,1A6.62,6.62,0,0,1,13.4,36.72a1.72,1.72,0,0,0,.52-2.79,1.71,1.71,0,0,0-.34-.49,14.1,14.1,0,0,1-3.22-14.89,1.72,1.72,0,0,0-3.22-1.21A17.55,17.55,0,0,0,10.08,34.7a10.06,10.06,0,0,0,6.07,18.15l0,.11a9.44,9.44,0,0,0,11.05,12.6,12.4,12.4,0,0,0,11.48,6.26,7.85,7.85,0,0,0-.23,1.59,7.79,7.79,0,0,0,6.76,8A8.83,8.83,0,0,0,56.29,92.94a6.75,6.75,0,0,0,8.14-10.71l-.09-.08a3.32,3.32,0,0,1-.16-4.6,8.21,8.21,0,0,1,4.6-1.67l4.47,4.88a1.72,1.72,0,0,0,2.53-2.32L48.95,49.14,68.42,66.8a1.7,1.7,0,0,0,.24.21l21.07,19.1a2.56,2.56,0,0,1,.18,3.61,2.53,2.53,0,0,1-1.89.84h0a2.53,2.53,0,0,1-1.88-.83L83.61,87a1.72,1.72,0,0,0-2.53,2.32l2.52,2.75A6,6,0,0,0,88,94h0a6,6,0,0,0,4-10.43Z"/>
      </g>
    </g>
  </g>
</svg>
