<svg xmlns="http://www.w3.org/2000/svg" viewBox="0 0 100 100">
  <title>onion_icon</title>
  <g id="Layer_2" data-name="Layer 2">
    <g id="Layer_1-2" data-name="Layer 1">
      <rect width="100" height="100" style="fill: #fff"/>
      <g style="opacity: 0.5">
        <rect width="100" height="100" style="fill: #fff"/>
      </g>
      <g>
        <path d="M41.55,8.2v6.07A16.91,16.91,0,0,0,48.63,28L59.39,35.7A23.68,23.68,0,0,1,69.31,55v.24a27.4,27.4,0,0,1-13.47,23.6h0a27.4,27.4,0,0,1-13.93,3.81H35.63a27.4,27.4,0,0,1-13.92-3.8h0A27.4,27.4,0,0,1,8.2,55.21V55A23.69,23.69,0,0,1,18.13,35.7L28.88,28A16.91,16.91,0,0,0,36,14.27V8.2Z" style="fill: #ff9155"/>
        <path d="M85.65,35.25A15.16,15.16,0,0,0,85,49.12L89.89,59.9A21.24,21.24,0,0,1,89,79.33l-.11.19a24.58,24.58,0,0,1-21,12.29h0a24.58,24.58,0,0,1-12.53-3.29L50.92,86a24.58,24.58,0,0,1-9.11-9.19v0a24.58,24.58,0,0,1,.11-24.38l.1-.18A21.24,21.24,0,0,1,58.37,41.7l11.79-1.14a15.16,15.16,0,0,0,11.68-7.51Z" style="fill: #ffcdac"/>
        <path d="M77,45.79a21.91,21.91,0,0,1-6.21,1.54L59,48.47A14.48,14.48,0,0,0,47.9,55.62l-.1.18a17.85,17.85,0,0,0-.08,17.64v0a17.8,17.8,0,0,0,6.59,6.65l4.35,2.51A17.79,17.79,0,0,0,67.56,85h.17A17.86,17.86,0,0,0,83,76.11l.11-.18a14.48,14.48,0,0,0,.64-13.21L78.8,51.93A21.91,21.91,0,0,1,77,45.79Z" style="fill: #ffe6c3"/>
        <g>
          <path d="M53.63,70.08h0v0a11,11,0,0,0,4.07,4.11l4.35,2.51a11,11,0,0,0,5.49,1.47h.12a11,11,0,0,0,9.4-5.49l.1-.18a7.67,7.67,0,0,0,.34-7L72.61,54.75,72.28,54l-.81.09L59.68,55.23A7.66,7.66,0,0,0,53.79,59l-.1.18A11,11,0,0,0,53.63,70.08Z" style="fill: #fff"/>
          <path d="M63.21,70c4.47,2.5,7.45,2.6,8.73-.78,1.17-3.09-3.62-8.36-3.62-8.36s-7-1.33-9,1.29C57.1,65,58.74,67.46,63.21,70Z" style="fill: #fff"/>
        </g>
        <path d="M21.11,45.83a1.7,1.7,0,1,0-2.93-1.73,21.89,21.89,0,0,0-3,11.14v.18A25.56,25.56,0,0,0,16,62a1.7,1.7,0,1,0,3.28-.88,22.16,22.16,0,0,1-.75-5.73v-.18A18.49,18.49,0,0,1,21.11,45.83Z"/>
        <path d="M18.72,68.34a1.7,1.7,0,0,0,2.91-1.76v0a1.7,1.7,0,0,0-2.91,1.76Z"/>
        <path d="M91.44,59.19,86.53,48.41a13.49,13.49,0,0,1,.59-12.31,1.7,1.7,0,0,0-.62-2.32l-3.81-2.2a1.7,1.7,0,0,0-2.32.62A13.49,13.49,0,0,1,70,38.87L58.21,40A23,23,0,0,0,40.54,51.37l-.1.18a26.38,26.38,0,0,0-.12,26.07v0a26.25,26.25,0,0,0,2.2,3.29H35.63a25.72,25.72,0,0,1-13.05-3.56h0A25.81,25.81,0,0,1,9.9,55.21V55a22,22,0,0,1,9.22-17.9l10.75-7.67a18.64,18.64,0,0,0,7.8-15.14V9.9h2.18v4.37a18.64,18.64,0,0,0,7.8,15.14l9.7,6.92a1.7,1.7,0,0,0,2-2.77l-9.7-6.92a15.24,15.24,0,0,1-6.37-12.38V8.2a1.7,1.7,0,0,0-1.7-1.7H36a1.7,1.7,0,0,0-1.7,1.7v6.07a15.24,15.24,0,0,1-6.37,12.38L17.14,34.32A25.43,25.43,0,0,0,6.5,55v.23A29.1,29.1,0,0,0,20.82,80.28h0a29.12,29.12,0,0,0,12.33,3.93v3.22a1.7,1.7,0,0,0,3.4,0V84.32h2V91.8a1.7,1.7,0,0,0,3.4,0V84.32h2v3.11a1.7,1.7,0,0,0,3.4,0v-1.7a26.25,26.25,0,0,0,2.62,1.73L54.43,90A26.3,26.3,0,0,0,67.56,93.5h.26a26.38,26.38,0,0,0,22.5-13.14l.11-.19A23,23,0,0,0,91.44,59.19Zm-4,19.28-.11.19A22.88,22.88,0,0,1,56.12,87l-4.35-2.51A22.9,22.9,0,0,1,43.3,76v0a23,23,0,0,1,.1-22.7l.1-.18a19.58,19.58,0,0,1,15.05-9.68l11.79-1.14a16.9,16.9,0,0,0,12.06-6.92l1,.58a16.9,16.9,0,0,0,0,13.91L88.35,60.6A19.58,19.58,0,0,1,87.49,78.48Z"/>
        <path d="M82.16,63.43v0A1.7,1.7,0,0,0,85.26,62v0a1.7,1.7,0,0,0-3.09,1.42Z"/>
        <path d="M85.1,68.62a1.7,1.7,0,0,0-1.88,1.5,12.67,12.67,0,0,1-1.63,5l-.11.18a16.15,16.15,0,0,1-13.77,8h-.16a16.1,16.1,0,0,1-8-2.15l-4.35-2.51a16.1,16.1,0,0,1-6-6v0a16.15,16.15,0,0,1,.07-16l.1-.18a12.77,12.77,0,0,1,9.82-6.32L71,49a23.55,23.55,0,0,0,4.73-1,23.57,23.57,0,0,0,1.54,4.57l1.61,3.53a1.7,1.7,0,0,0,3.09-1.41l-1.61-3.53a20.19,20.19,0,0,1-1.63-5.67,1.7,1.7,0,0,0-2.33-1.34,20.19,20.19,0,0,1-5.72,1.42L58.86,46.77a16.18,16.18,0,0,0-12.43,8l-.1.18a19.56,19.56,0,0,0-.09,19.33v0a19.5,19.5,0,0,0,7.22,7.28l4.35,2.51a19.51,19.51,0,0,0,9.74,2.61h.19A19.56,19.56,0,0,0,84.44,77l.11-.18a16,16,0,0,0,2.06-6.29A1.7,1.7,0,0,0,85.1,68.62Z"/>
        <path d="M56.87,75.69l4.35,2.51a12.71,12.71,0,0,0,6.35,1.7h.12a12.73,12.73,0,0,0,10.85-6.34l.1-.18a9.37,9.37,0,0,0,.42-8.56L74.16,54l-.31-.7a1.7,1.7,0,0,0-1.78-1l-.76.08L59.52,53.54a9.37,9.37,0,0,0-7.2,4.63l-.1.18a12.73,12.73,0,0,0-.06,12.57h0v0A12.69,12.69,0,0,0,56.87,75.69ZM55.15,60.05l.1-.18a6,6,0,0,1,4.58-2.95l11.39-1.1L76,66.24a6,6,0,0,1-.27,5.45l-.1.18a9.31,9.31,0,0,1-7.94,4.64h-.11a9.3,9.3,0,0,1-4.64-1.24l-4.35-2.51a9.3,9.3,0,0,1-3.44-3.48v0h0A9.32,9.32,0,0,1,55.15,60.05Z"/>
        <path d="M62.38,71.44h0a13.13,13.13,0,0,0,6.13,2,5.13,5.13,0,0,0,5-3.7c1.47-3.87-3-9.09-3.95-10.1a1.7,1.7,0,0,0-.94-.53C67.3,58.9,60.5,57.8,58,61.08a5.37,5.37,0,0,0-1.24,4.46C57.16,67.65,59,69.53,62.38,71.44Zm-1.73-8.29c.54-.7,2.18-1,3.95-1a19.68,19.68,0,0,1,2.84.21c1.63,1.93,3.39,4.9,2.91,6.18s-1,1.33-1.14,1.4c-.69.25-2.14.19-5.17-1.5h0c-3-1.69-3.84-2.9-4-3.62C60,64.68,59.91,64.12,60.65,63.16Z"/>
      </g>
    </g>
  </g>
</svg>
