<svg xmlns="http://www.w3.org/2000/svg" viewBox="0 0 100 100">
  <title>peas_icon</title>
  <g id="Layer_2" data-name="Layer 2">
    <g id="Layer_1-2" data-name="Layer 1">
      <rect width="100" height="100" style="fill: #fff"/>
      <g style="opacity: 0.5">
        <rect width="100" height="100" style="fill: #fff"/>
      </g>
      <g>
        <path d="M9.16,90.84c8.32-64.07,67.58-71.38,67.58-71.38L49.23,50.77Z" style="fill: #46c373"/>
        <path d="M9.16,90.84S67,76.78,76.75,19.46C76.75,19.46,51.59,53.55,9.16,90.84Z" style="fill: #a5dc69"/>
        <g>
          <path d="M20.72,69.37A6.9,6.9,0,0,0,18,82.89q4.33-4,8.37-7.86A6.94,6.94,0,0,0,20.72,69.37Z" style="fill: #d7fa91"/>
          <path d="M32.18,57.31a7.18,7.18,0,1,0-2.48,14.15l.32,0q4.21-4.11,8.08-8.05A7.22,7.22,0,0,0,32.18,57.31Z" style="fill: #d7fa91"/>
          <ellipse cx="41.29" cy="49.61" rx="7.18" ry="7.23" transform="translate(-14.69 81.73) rotate(-80.07)" style="fill: #d7fa91"/>
          <path d="M66.56,24.67A4.63,4.63,0,1,0,65,33.79l.23,0c1.89-2.24,3.56-4.25,5-6A4.66,4.66,0,0,0,66.56,24.67Z" style="fill: #d7fa91"/>
          <path d="M56.84,33.66A6.25,6.25,0,0,0,54.6,46c2.59-2.88,5-5.58,7.13-8.08A6.29,6.29,0,0,0,56.84,33.66Z" style="fill: #d7fa91"/>
        </g>
        <path d="M67.49,48.43a1.66,1.66,0,1,0-.92,2.16,1.66,1.66,0,0,0,.92-2.16Z"/>
        <path d="M87.63,30.32a5.82,5.82,0,0,0-7.26,3.88,4.33,4.33,0,0,0,4.35,5.46,1.66,1.66,0,1,0-.32-3.31.94.94,0,0,1-.65-.39.89.89,0,0,1-.21-.8,2.5,2.5,0,0,1,3.12-1.67A3.55,3.55,0,0,1,89,37.92a4.85,4.85,0,0,1-6,3.23,6.48,6.48,0,0,1-4.31-8.07,8.47,8.47,0,0,1,6.25-5.82,19,19,0,0,0,5.91.94,1.66,1.66,0,1,0,0-3.32A15.73,15.73,0,0,1,75.13,9.16a1.66,1.66,0,1,0-3.32,0,18.91,18.91,0,0,0,2.3,9.06A88.23,88.23,0,0,0,45.2,29.71a78.5,78.5,0,0,0-23.33,22c-7.59,10.94-12.42,24-14.35,38.91h0a1.66,1.66,0,0,0,2,1.83,95.34,95.34,0,0,0,19-7.51,106.78,106.78,0,0,0,17.39-11.1A91.31,91.31,0,0,0,63.08,56.25a1.66,1.66,0,1,0-2.68-2c-10.32,14-23.79,22.79-33.27,27.65a106.78,106.78,0,0,1-11,4.87A559.94,559.94,0,0,0,60.11,42.26C66,35.54,70.58,30,73.63,26.18A82.34,82.34,0,0,1,68.34,41a1.66,1.66,0,1,0,3,1.42A86.59,86.59,0,0,0,77.77,23a19.15,19.15,0,0,0,3.06,2.36,11.78,11.78,0,0,0-5.33,6.77A9.8,9.8,0,0,0,82,44.32,8.16,8.16,0,0,0,92.2,38.88,6.87,6.87,0,0,0,87.63,30.32ZM70.36,24.93a6.31,6.31,0,0,0-2.67-1.69c2-.58,3.67-1,5.07-1.34C72.09,22.77,71.29,23.78,70.36,24.93Zm-5.78,7a3,3,0,0,1-1.27-1A2.95,2.95,0,0,1,64,26.8a3,3,0,0,1,1.71-.54,3.07,3.07,0,0,1,.53,0,3,3,0,0,1,2,1.25Q66.59,29.57,64.58,32Zm-17.75.65a85.35,85.35,0,0,1,13.67-6.87,6.3,6.3,0,0,0,1.88,8.8L62,35A7.92,7.92,0,1,0,51.74,46.62L50.1,48.41a8.89,8.89,0,1,0-10.33,9.91,9.08,9.08,0,0,0,.9.11l-1.83,1.89a8.9,8.9,0,0,0-16.65,2.53A8.75,8.75,0,0,0,23,68.35a8.6,8.6,0,0,0-6.29-.26A73.86,73.86,0,0,1,46.83,32.61ZM54,44.07a4.58,4.58,0,0,1,1.71-8.84,4.65,4.65,0,0,1,4,2.34Q57.13,40.63,54,44.07Zm-13.7,11a5.55,5.55,0,0,1-3.6-2.28,5.47,5.47,0,0,1-.93-4.12,5.55,5.55,0,0,1,5.47-4.57,5.63,5.63,0,0,1,1,.08,5.55,5.55,0,0,1,3.6,2.28,5.49,5.49,0,0,1-1.35,7.69A5.55,5.55,0,0,1,40.34,55.05ZM29.48,69.71a5.54,5.54,0,0,1-3.09-2.16,5.47,5.47,0,0,1-.93-4.13,5.55,5.55,0,0,1,5.47-4.57,5.63,5.63,0,0,1,1,.08,5.54,5.54,0,0,1,4.41,4Q33,66.24,29.48,69.71ZM15,83.42l-3.48,3.14q.48-2.73,1.09-5.36A8.58,8.58,0,0,0,15,83.42ZM17.57,81a5.23,5.23,0,0,1,1.94-10.1,5.3,5.3,0,0,1,5,3.57Q21.15,77.73,17.57,81Z"/>
      </g>
    </g>
  </g>
</svg>
