<svg xmlns="http://www.w3.org/2000/svg" viewBox="0 0 100 100">
  <title>radish_icon</title>
  <g id="Layer_2" data-name="Layer 2">
    <g id="Layer_1-2" data-name="Layer 1">
      <rect width="100" height="100" style="fill: #fff"/>
      <g style="opacity: 0.5">
        <rect width="100" height="100" style="fill: #fff"/>
      </g>
      <g>
        <g>
          <path d="M50,37.12,56.45,30a35.32,35.32,0,0,0,9.13-23.7H63.79a13.8,13.8,0,0,0-13.08,9.39h0A13.8,13.8,0,0,0,50,20.08v17" style="fill: #46c373"/>
          <path d="M50,39.81,45.35,37a80.47,80.47,0,0,0-26-10.12h0l3-2.07a14.23,14.23,0,0,1,14.37-1h0a14.23,14.23,0,0,1,5.41,4.68L50,39.81" style="fill: #46c373"/>
        </g>
        <g>
          <path d="M50,39.81,54.65,37a80.47,80.47,0,0,1,26-10.12h0l-3-2.07a14.23,14.23,0,0,0-14.37-1h0a14.23,14.23,0,0,0-5.41,4.68L50,39.81" style="fill: #a5dc69"/>
          <path d="M50,37.12,43.53,30A35.32,35.32,0,0,1,34.4,6.28h1.79a13.8,13.8,0,0,1,13.08,9.39h0A13.8,13.8,0,0,1,50,20.08v17" style="fill: #a5dc69"/>
        </g>
        <path d="M50,93.72l1.62-4.29a14.49,14.49,0,0,1,9.28-8.73l4.41-1.36a16.16,16.16,0,0,0,10.28-9.55h0a19,19,0,0,0-6.17-22h0a29.28,29.28,0,0,0-11.32-5.27h0a37,37,0,0,0-16.19,0h0A29.28,29.28,0,0,0,30.57,47.8h0a19,19,0,0,0-6.17,22h0a16.16,16.16,0,0,0,10.28,9.55l4.41,1.36a14.49,14.49,0,0,1,9.28,8.73Z" style="fill: #f985de"/>
        <path d="M48.73,60A1.78,1.78,0,1,0,50,59.45,1.79,1.79,0,0,0,48.73,60Z"/>
        <path d="M46.37,72.32H41.87a1.78,1.78,0,0,0,0,3.56h4.51a1.78,1.78,0,0,0,0-3.56Z"/>
        <path d="M31.11,67.52a1.78,1.78,0,1,0,1.26.52A1.78,1.78,0,0,0,31.11,67.52Z"/>
        <path d="M45,48.21a1.78,1.78,0,0,0-2.12-1.35,24.67,24.67,0,0,0-9.6,4.47,14.54,14.54,0,0,0-5.7,12.22,1.78,1.78,0,0,0,1.78,1.7h.08a1.78,1.78,0,0,0,1.7-1.86,11,11,0,0,1,4.3-9.23,21.13,21.13,0,0,1,8.23-3.83A1.78,1.78,0,0,0,45,48.21Z"/>
        <path d="M81.64,25.41l-3-2.07a16,16,0,0,0-14.53-1.87A37.06,37.06,0,0,0,67.36,6.28,1.78,1.78,0,0,0,65.58,4.5H63.79A15.57,15.57,0,0,0,50,12.85,15.57,15.57,0,0,0,36.18,4.5H34.4a1.78,1.78,0,0,0-1.78,1.78,37.06,37.06,0,0,0,3.25,15.18,16,16,0,0,0-14.5,1.88l-3,2.07A1.78,1.78,0,0,0,19,28.61a78.47,78.47,0,0,1,25.4,9.9L46.85,40a38.48,38.48,0,0,0-5.35.81,30.84,30.84,0,0,0-12,5.59,20.73,20.73,0,0,0-6.75,24.06A17.84,17.84,0,0,0,34.16,81l4.41,1.36a12.63,12.63,0,0,1,8.14,7.66l1.62,4.29a1.78,1.78,0,0,0,3.33,0l1.62-4.29a12.63,12.63,0,0,1,8.14-7.66L65.82,81a17.84,17.84,0,0,0,11.41-10.6,20.73,20.73,0,0,0-6.75-24.06,30.84,30.84,0,0,0-12-5.59A38.58,38.58,0,0,0,53.14,40l2.43-1.48A78.46,78.46,0,0,1,81,28.61a1.78,1.78,0,0,0,.66-3.21ZM52.4,16.23A12,12,0,0,1,63.75,8.06a33.47,33.47,0,0,1-8.62,20.72L52.21,32a26,26,0,0,1,3.65-9.23l3.42-5.34a1.78,1.78,0,1,0-3-1.92l-3.42,5.34q-.59.92-1.1,1.87V20.08A12,12,0,0,1,52.4,16.23Zm-4.82,0a12,12,0,0,1,.63,3.85v2.65q-.52-1-1.1-1.87l-3.42-5.34a1.78,1.78,0,0,0-3,1.92l3.42,5.34A26,26,0,0,1,47.77,32l-2.92-3.23A33.47,33.47,0,0,1,36.22,8.06,12,12,0,0,1,47.58,16.24ZM23.73,26a12.45,12.45,0,0,1,17,3.42l3.18,4.62A81.89,81.89,0,0,0,23.73,26ZM68.33,49.21a17.19,17.19,0,0,1,6.41,10.24H57A1.78,1.78,0,0,0,57,63h18a17.07,17.07,0,0,1-.55,4.22H63.33a1.78,1.78,0,1,0,0,3.56h9.83a14.29,14.29,0,0,1-8.39,6.86L60.36,79A16.16,16.16,0,0,0,50,88.68,16.16,16.16,0,0,0,39.61,79L35.2,77.64a14.31,14.31,0,0,1-9.15-8.5,17.25,17.25,0,0,1,5.59-19.93,27.31,27.31,0,0,1,10.63-4.95,35.43,35.43,0,0,1,15.41,0A27.31,27.31,0,0,1,68.33,49.21ZM56.12,34.07l3.18-4.62a12.45,12.45,0,0,1,17-3.42A81.9,81.9,0,0,0,56.12,34.07Z"/>
      </g>
    </g>
  </g>
</svg>
