<svg xmlns="http://www.w3.org/2000/svg" viewBox="0 0 100 100">
  <title>spicy_pepper_icon</title>
  <g id="Layer_2" data-name="Layer 2">
    <g id="Layer_1-2" data-name="Layer 1">
      <rect width="100" height="100" style="fill: #fff"/>
      <g style="opacity: 0.5">
        <rect width="100" height="100" style="fill: #fff"/>
      </g>
      <g>
        <path d="M76,25.31c3.54-4.77,7.94-9,13.4-9V10.61c-8.4,0-14,6-17.82,11Z" style="fill: #46c373"/>
        <path d="M74,43.94S53.47,89.39,10.62,89.39C37,63,38.47,49.21,54.52,28l2.28-2.93a12,12,0,0,1,16.07-2.68h0a12,12,0,0,1,4.21,15.45Z" style="fill: #ff5a5a"/>
        <path d="M72.87,22.39h0A12,12,0,0,0,56.8,25.07l-1.23,1.57,0,.18H58.3a7,7,0,0,1,7,7v.84h2a7,7,0,0,1,7,7v1l.18.08,2.5-5A12,12,0,0,0,72.87,22.39Z" style="fill: #a5dc69"/>
        <g>
          <path d="M89.38,89.39c-12.2-12.2-19.08-21.71-24.52-30.5A90.21,90.21,0,0,1,50,74.61C60,82.78,73,89.39,89.38,89.39Z" style="fill: #ff8c8c"/>
          <path d="M26,43.94a90,90,0,0,0,9.19,14.95C40.27,50.61,44.14,43,50,34.31c-1.38-2-2.87-4.14-4.52-6.31L43.2,25.07a12,12,0,0,0-16.07-2.68h0a12,12,0,0,0-4.21,15.45Z" style="fill: #ff8c8c"/>
        </g>
        <path d="M24,25.31c-3.54-4.77-7.94-9-13.4-9V10.61c8.4,0,14,6,17.82,11Z" style="fill: #46c373"/>
        <path d="M27.13,22.39h0A12,12,0,0,1,43.2,25.07l1.23,1.57,0,.18H41.7a7,7,0,0,0-7,7v.84h-2a7,7,0,0,0-7,7v1l-.18.08-2.5-5A12,12,0,0,1,27.13,22.39Z" style="fill: #a5dc69"/>
        <path d="M89.38,17.9A1.6,1.6,0,0,0,91,16.3V10.61A1.6,1.6,0,0,0,89.38,9C80.67,9,74.82,14.83,71,19.68a13.64,13.64,0,0,0-15.5,4.4L53.26,27v0C52.09,28.55,51,30,50,31.49c-1.05-1.51-2.13-3-3.24-4.46v0l-2.28-2.93A13.64,13.64,0,0,0,29,19.68C25.18,14.83,19.33,9,10.62,9A1.6,1.6,0,0,0,9,10.61V16.3a1.6,1.6,0,0,0,1.6,1.6c3.82,0,7.47,2.38,11.44,7.47a13.64,13.64,0,0,0-.58,13.18l3,6.08A90.09,90.09,0,0,0,33.21,59,161.1,161.1,0,0,1,9.49,88.25,1.6,1.6,0,0,0,10.62,91,60.29,60.29,0,0,0,39.36,83.7a71.35,71.35,0,0,0,10.64-7C62,86.17,75.21,91,89.38,91a1.6,1.6,0,0,0,1.13-2.73c-3-3-5.75-5.91-8.28-8.76a1.6,1.6,0,1,0-2.39,2.13c1.75,2,3.63,4,5.59,6-11.74-.8-22.78-5.19-32.9-13.07a87,87,0,0,0,7.05-6.83c1.89-2,3.61-4.08,5.15-6.06C66.84,65,68.91,68,71.16,71a1.6,1.6,0,0,0,2.56-1.92C71.3,65.86,69.09,62.62,66.79,59a89.52,89.52,0,0,0,8.7-14.34l3-6.08a13.64,13.64,0,0,0-.58-13.18C81.91,20.28,85.56,17.9,89.38,17.9ZM12.22,14.8V12.3c6.23.65,10.74,5,13.84,8.88a13.66,13.66,0,0,0-2,1.61C21.3,19.3,17.36,15.48,12.22,14.8ZM25.31,26.26h0A10.42,10.42,0,0,1,28,23.73a10.69,10.69,0,0,1,1.09-.62l.09,0a10.36,10.36,0,0,1,12,2.18,8.66,8.66,0,0,0-8.13,7.87h-.45a8.66,8.66,0,0,0-7.82,5l-.47-.95A10.44,10.44,0,0,1,25.31,26.26Zm1.88,16.6s0,0,0-.06v-1a5.45,5.45,0,0,1,5.44-5.44h2a1.6,1.6,0,0,0,1.6-1.6v-.84a5.45,5.45,0,0,1,5.44-5.44h2.08l.43.55c1.34,1.77,2.6,3.52,3.86,5.35-3.34,5-6.05,9.71-8.7,14.29C38,51,36.55,53.5,35,56A91.65,91.65,0,0,1,27.2,42.85Zm45.39.43A94.77,94.77,0,0,1,57.23,65.58c-8.78,9.5-23.13,20.71-42.65,22.07A159.69,159.69,0,0,0,36.47,59.79l.07-.12c2-3.24,3.81-6.36,5.6-9.46A192.08,192.08,0,0,1,55.79,29l.43-.55H58.3a5.45,5.45,0,0,1,5.44,5.44v.84a1.6,1.6,0,0,0,1.6,1.6h2a5.45,5.45,0,0,1,5.44,5.44v1s0,0,0,.06l-.19.38Zm3.06-6.16-.47.95a8.65,8.65,0,0,0-7.82-5h-.45a8.66,8.66,0,0,0-8.13-7.87,10.36,10.36,0,0,1,12-2.17l.09,0a10.79,10.79,0,0,1,1.1.62,10.41,10.41,0,0,1,2.68,2.52h0A10.44,10.44,0,0,1,75.65,37.13Zm.25-14.34a13.66,13.66,0,0,0-2-1.61c3.1-3.87,7.61-8.23,13.84-8.88v2.5C82.64,15.48,78.7,19.3,75.9,22.78Z"/>
        <path d="M75.69,74.26a1.6,1.6,0,0,0-.22,2.25l.06.07a1.6,1.6,0,0,0,2.47-2l-.06-.08A1.6,1.6,0,0,0,75.69,74.26Z"/>
        <path d="M58.65,56.47a1.6,1.6,0,0,0-2.25.24A75.51,75.51,0,0,1,40,72.1a1.6,1.6,0,1,0,1.79,2.66,78.7,78.7,0,0,0,17.14-16A1.6,1.6,0,0,0,58.65,56.47Z"/>
        <path d="M35,75.13l-.11.06A1.6,1.6,0,1,0,36.37,78l.12-.07A1.6,1.6,0,0,0,35,75.13Z"/>
      </g>
    </g>
  </g>
</svg>
