<svg xmlns="http://www.w3.org/2000/svg" viewBox="0 0 100 100">
  <title>sunflower_icon</title>
  <g id="Layer_2" data-name="Layer 2">
    <g id="Layer_1-2" data-name="Layer 1">
      <rect width="100" height="100" style="fill: #fff"/>
      <g>
        <path d="M69.45,67.26a26.37,26.37,0,0,0,3.64-4.91,25.32,25.32,0,0,0,2.18-4.91,23.77,23.77,0,0,0,1-4.22c.14-1,.25-2.06.3-3.09a41.07,41.07,0,0,0-.3-4.62,26.41,26.41,0,0,0-1.94-6.62,29.63,29.63,0,0,0-2-3.73,26,26,0,0,0-24.2-11.6c-.54,0-6.93,1.67-7.48,1.88a24.85,24.85,0,0,0-3.44,1.75c-.3.18-3.46,2.5-3.77,2.77a25.55,25.55,0,0,0-6.71,9.34A23.73,23.73,0,0,0,25.43,43a24.86,24.86,0,0,0-.8,6.29A32.06,32.06,0,0,0,24.86,53a26.77,26.77,0,0,0,1.54,5.82,17.77,17.77,0,0,0,.71,1.69c.53,1,1.07,2,1.66,2.94a26.44,26.44,0,0,0,11,9.54,24.44,24.44,0,0,0,8.57,2.19,25.73,25.73,0,0,0,2.69.13,28.16,28.16,0,0,0,6.42-.91A26.06,26.06,0,0,0,69.45,67.26Z" style="fill: #541818"/>
        <polygon points="31.89 29.98 40.74 26.83 52.11 24.86 46.98 15.15 30.44 25.8 31.89 29.98"/>
        <path d="M51.66,9.36a6.27,6.27,0,0,1,3.12-.3,5.59,5.59,0,0,1,2.15.73,8.51,8.51,0,0,1,1.79,1.5,17.41,17.41,0,0,1,1.37,2,3.54,3.54,0,0,1,.36.67,12.38,12.38,0,0,1,2.31-.89,7.15,7.15,0,0,1,4.13.2,6,6,0,0,1,2.66,2,7.61,7.61,0,0,1,1.29,3.07,11.37,11.37,0,0,1,2.23-.45,9.45,9.45,0,0,1,2.47.3,4.59,4.59,0,0,1,1.51.79,6.64,6.64,0,0,1,1.52,1.42,6.9,6.9,0,0,1,1,2.07,7.49,7.49,0,0,1,.22,3.21A9.69,9.69,0,0,1,79.61,27a10.26,10.26,0,0,1,2.93.9,7.15,7.15,0,0,1,2.11,1.56,9.07,9.07,0,0,1,.89,1.23,6.1,6.1,0,0,1,.58,4,7.34,7.34,0,0,1-.63,1.93,10.4,10.4,0,0,1,2.08.94,8.74,8.74,0,0,1,1.94,1.84,4.91,4.91,0,0,1,.58,1.22,7.21,7.21,0,0,1,.45,2.14,6.93,6.93,0,0,1-.45,2.3,6.59,6.59,0,0,1-1.58,2.56,9.18,9.18,0,0,1-1,1.15,9.43,9.43,0,0,1,2.13,3.1A6.56,6.56,0,0,1,90,55.85a6.17,6.17,0,0,1-1.68,2.92A6.76,6.76,0,0,1,86.54,60,7.69,7.69,0,0,1,88,63.12a6.2,6.2,0,0,1,.14,2.08,8.69,8.69,0,0,1-.57,1.8,4.11,4.11,0,0,1-.67,1.17,6.55,6.55,0,0,1-1.16,1.14,9.05,9.05,0,0,1-1.3.81,8.89,8.89,0,0,1-2,.63,7.58,7.58,0,0,1-1.43.31,9.4,9.4,0,0,1-.16,4,6.5,6.5,0,0,1-1.74,3,6.13,6.13,0,0,1-3,1.51,8,8,0,0,1-2.47,0,10,10,0,0,1-.14,1.79,7.31,7.31,0,0,1-.63,1.83,4.86,4.86,0,0,1-1.1,1.56,7.33,7.33,0,0,1-2.62,1.6,6.46,6.46,0,0,1-1.42.22,7.34,7.34,0,0,1-2.62-.31c-.64-.19-1.21-.54-1.84-.74a2.84,2.84,0,0,1-.58-.29,9.28,9.28,0,0,1-2.63,3.25,6.09,6.09,0,0,1-6.16.82,7.43,7.43,0,0,1-2.17-1.5,7.81,7.81,0,0,1-2.38,2.26A5.37,5.37,0,0,1,47,91a8.91,8.91,0,0,1-2.38-.12,7.29,7.29,0,0,1-4.39-3.71A6.82,6.82,0,0,1,39.54,86a14,14,0,0,1-2.22.86,9.08,9.08,0,0,1-2.57.21,7.2,7.2,0,0,1-1.91-.48,4.57,4.57,0,0,1-1.31-.79,6.49,6.49,0,0,1-2.37-4.15,11.72,11.72,0,0,1-2.2.45,8.68,8.68,0,0,1-2.63-.33,6.31,6.31,0,0,1-1.78-1.05,5,5,0,0,1-1.29-1.37,7.37,7.37,0,0,1-1-2.66,16,16,0,0,1,0-3.32,2.88,2.88,0,0,1,.08-.42,9.22,9.22,0,0,1-3.05-1,8.17,8.17,0,0,1-1.54-1,6.19,6.19,0,0,1-1.87-3.17,6.79,6.79,0,0,1,.61-4.45,8.68,8.68,0,0,1-2.33-1.1,6.37,6.37,0,0,1-2.07-2.35,6.46,6.46,0,0,1-.61-3.32A7.51,7.51,0,0,1,10.25,54a8.42,8.42,0,0,1,1.28-1.75,8.64,8.64,0,0,1,1-1.11,13.5,13.5,0,0,1-1.43-1.72,9.71,9.71,0,0,1-1-2.15,7.35,7.35,0,0,1-.2-2.5,5.89,5.89,0,0,1,.62-2,5.62,5.62,0,0,1,1.61-2A6.16,6.16,0,0,1,13.44,40a10.84,10.84,0,0,1-1.06-1.82,8.24,8.24,0,0,1-.55-2.52,4.54,4.54,0,0,1,.28-1.75A6.6,6.6,0,0,1,13,32a10.71,10.71,0,0,1,.73-.83,8.82,8.82,0,0,1,1.26-1,7.48,7.48,0,0,1,2.5-.94A7.8,7.8,0,0,1,19,29a9,9,0,0,1,.36-4.69,6.26,6.26,0,0,1,2.37-3,6,6,0,0,1,2-.85,8.48,8.48,0,0,1,2.59-.08,9.22,9.22,0,0,1,.38-2.64A8,8,0,0,1,27.54,16,5,5,0,0,1,29,14.59a6.44,6.44,0,0,1,1.93-1,6.07,6.07,0,0,1,1.38-.2,8,8,0,0,1,2.2.19,8.69,8.69,0,0,1,1.54.58,9,9,0,0,1,1.28.57,17,17,0,0,1,1-1.7,9.16,9.16,0,0,1,2.06-1.9,6.16,6.16,0,0,1,4.11-.91,6.59,6.59,0,0,1,3.73,1.91c.28-.38.61-.71.91-1.07a7.29,7.29,0,0,1,2.52-1.71m.4,3a3.68,3.68,0,0,0-1.12,1c-.36.36-.57.85-1,1.19a11.86,11.86,0,0,1,.92,2.57,12.56,12.56,0,0,1,.26,5c1,0,2,.14,2.95.24.27-.83.54-1.67.87-2.47a14.85,14.85,0,0,1,3-4.11,9.75,9.75,0,0,0-1.3-2.43,4.26,4.26,0,0,0-2-1.4,5.77,5.77,0,0,0-1.4-.07,3.07,3.07,0,0,0-1.25.49M41.68,13.7a6.28,6.28,0,0,0-1.87,2.36,9.41,9.41,0,0,0-.88,4,15.46,15.46,0,0,0,.19,2.16c.2.63.36,1.27.58,1.89a1.76,1.76,0,0,1,.95,0,1.42,1.42,0,0,1,.09,2.69,23.76,23.76,0,0,0-3.28,1.67,2,2,0,0,1-.95.37,1.42,1.42,0,0,1-.89-2.58c.49-.31,1-.6,1.51-.88-.29-.84-.53-1.7-.79-2.56a15.52,15.52,0,0,1,0-5.3,10.08,10.08,0,0,0-1.9-1,4.27,4.27,0,0,0-2.93-.18,5.79,5.79,0,0,0-1,.62,3.21,3.21,0,0,0-1.09,1.68,12.48,12.48,0,0,0-.26,2.61,13,13,0,0,1,2,1.29,11.13,11.13,0,0,1,2.07,2.05,10.93,10.93,0,0,1,1.41,2.18,1.43,1.43,0,0,1-1,1.88,1.41,1.41,0,0,1,.87,1.42,1.52,1.52,0,0,1-.54,1,24.43,24.43,0,0,0-6.41,8.93,22.68,22.68,0,0,0-1.2,3.51,23.76,23.76,0,0,0-.76,6,30.65,30.65,0,0,0,.22,3.59,25.59,25.59,0,0,0,1.47,5.56,17,17,0,0,0,.68,1.62c.5,1,1,1.9,1.59,2.81A25.28,25.28,0,0,0,40,72.31a23.36,23.36,0,0,0,8.19,2.09,24.6,24.6,0,0,0,2.57.12,26.92,26.92,0,0,0,6.14-.87A24.92,24.92,0,0,0,68.32,66.8a25.21,25.21,0,0,0,3.48-4.7,24.21,24.21,0,0,0,2.09-4.69,22.72,22.72,0,0,0,.94-4c.13-1,.23-2,.29-3A39.26,39.26,0,0,0,74.83,46,25.24,25.24,0,0,0,73,39.68,28.33,28.33,0,0,0,71,36.12,24.82,24.82,0,0,0,47.89,25a1.41,1.41,0,0,1-1.29-.69A1.43,1.43,0,0,1,47,22.48a2.51,2.51,0,0,1,1.4-.34,5,5,0,0,1,.05-1A8.88,8.88,0,0,0,48.19,18,8.46,8.46,0,0,0,47.1,15.2a5,5,0,0,0-2.51-2.07,3.3,3.3,0,0,0-2.91.57m20.59,2.59a8.52,8.52,0,0,0-2.19,1.4,10.52,10.52,0,0,0-2.22,2.83,11.55,11.55,0,0,0-1,2.35,25.7,25.7,0,0,1,2.57.77,5.1,5.1,0,0,1,1.43-2.12,3.74,3.74,0,0,1,1.57-1.26,1.48,1.48,0,0,1,1.46.14,1.13,1.13,0,0,1,.28,1.09,2.21,2.21,0,0,1-.56,1.24c-.46.5-.93,1-1.37,1.51,0,.19,0,.38,0,.56a29.88,29.88,0,0,1,2.83,1.57,11.42,11.42,0,0,0,2.21-3.28,6.56,6.56,0,0,0,.26-5.6,3.25,3.25,0,0,0-3.15-1.75,5.73,5.73,0,0,0-2.17.55m10.17,4.56a15,15,0,0,1-1.6.42,11.65,11.65,0,0,1-.9,3A12.65,12.65,0,0,1,67.45,28c.76.64,1.51,1.28,2.22,2,.62-.47,1.27-.91,1.91-1.35a19.61,19.61,0,0,1,2.51-1.09A17.59,17.59,0,0,1,76.61,27,7.8,7.8,0,0,0,77,24.89a4.43,4.43,0,0,0-.71-2.84A5,5,0,0,0,74.88,21a4.48,4.48,0,0,0-2.44-.1M22.91,24a3.56,3.56,0,0,0-1.05,1.84,7.08,7.08,0,0,0,.47,4.43A10.81,10.81,0,0,0,24.92,34c.6.43,1.17.9,1.79,1.31a20.09,20.09,0,0,1,1.49-2.2,5.61,5.61,0,0,1-1.46-2,4.87,4.87,0,0,1-.68-1.56,2.31,2.31,0,0,1,.09-1.08,1,1,0,0,1,.87-.68,1.93,1.93,0,0,1,1.19.46A2.74,2.74,0,0,1,29,29.35c.24.45.5.89.76,1.34l.39.1A26.27,26.27,0,0,1,32,29a1.46,1.46,0,0,1,.65-.33c-.67-.26-.85-1-1.24-1.53s-.65-.88-1-1.28a8.69,8.69,0,0,0-4.14-2.52,3.73,3.73,0,0,0-3.38.68M73,31.09c-.48.34-1,.66-1.43,1q.78.94,1.47,1.94a2.81,2.81,0,0,1,1-.61,23.59,23.59,0,0,1,2.39-.53,2.24,2.24,0,0,1,1.6.31,1,1,0,0,1,.6.85,1.47,1.47,0,0,1-.76,1.26,3,3,0,0,1-1.32.47,15.21,15.21,0,0,0-1.52.33,4,4,0,0,1-.43.53,25.88,25.88,0,0,1,1.46,3.14A14.86,14.86,0,0,0,79,38.92a8.74,8.74,0,0,0,3.77-3.2,4.39,4.39,0,0,0,.67-2.11,3.2,3.2,0,0,0-.68-2,4.48,4.48,0,0,0-1.8-1.32,7.92,7.92,0,0,0-3.51-.5A10.93,10.93,0,0,0,73,31.09m-54.55.86a5.69,5.69,0,0,0-2,.71,5.29,5.29,0,0,0-.78.59,3.89,3.89,0,0,0-1,2.13,4.56,4.56,0,0,0,.67,2.3c.26.49.66.88.91,1.38a14.54,14.54,0,0,1,4.3.08,16.62,16.62,0,0,1,3.12,1,2.24,2.24,0,0,1,.53.37c.34-.94.73-1.85,1.14-2.76-.71-.44-1.34-1-2-1.47a8.07,8.07,0,0,1-1.25-1.24,13,13,0,0,1-2.19-3.31,8.22,8.22,0,0,0-1.41.18M81.9,40.5a12.55,12.55,0,0,1-2.48,1.3,12.94,12.94,0,0,1-2.43.68c.24,1,.46,1.92.62,2.9.82,0,1.64,0,2.45,0s1.51.31,2.25.49A12.39,12.39,0,0,1,85.05,47a7.93,7.93,0,0,0,1.39-1.35,4.24,4.24,0,0,0,.86-1.27,5.1,5.1,0,0,0,.33-1.18,3.77,3.77,0,0,0-.43-2.1,4.37,4.37,0,0,0-1.88-1.51c-.51-.27-1.1-.31-1.6-.61A13.2,13.2,0,0,1,81.9,40.5M16.21,42a5.11,5.11,0,0,0-3,1.83,3.22,3.22,0,0,0-.52,1.87,5.4,5.4,0,0,0,1.76,3.45,9.53,9.53,0,0,0,4.58,2.41,7.05,7.05,0,0,0,1.55.26,15.65,15.65,0,0,0,2.1,0c0-.8-.07-1.61-.07-2.41a2.49,2.49,0,0,1-1-.13c-.59-.22-1.16-.48-1.72-.74a2.82,2.82,0,0,1-1.25-.87,1.89,1.89,0,0,1-.44-1.14,1,1,0,0,1,.68-.86,2.33,2.33,0,0,1,1.7.07c.62.29,1.25.58,1.89.85l.35-.14a26.84,26.84,0,0,1,.66-3.5,1.87,1.87,0,0,1-.94-.08,10.51,10.51,0,0,0-3.32-.95,9.24,9.24,0,0,0-3,.11M77.88,48.2c0,.72.07,1.45.08,2.17a3.41,3.41,0,0,1,1.16.06,11.75,11.75,0,0,1,1.52.6,6.65,6.65,0,0,1,1.36.76,2.84,2.84,0,0,1,.66,1.06A1,1,0,0,1,82,54.11a2.43,2.43,0,0,1-1.6,0c-.64-.29-1.27-.63-1.94-.86a2.38,2.38,0,0,1-.74.16,22.21,22.21,0,0,1-.76,3.73,8.73,8.73,0,0,1,1.52.54,7.91,7.91,0,0,0,2.25.53,7.48,7.48,0,0,0,4.92-.86,3.66,3.66,0,0,0,1.44-1.69,3.81,3.81,0,0,0-.47-3.36,9.08,9.08,0,0,0-6-3.84,10.61,10.61,0,0,0-2.72-.21M13.05,54.92a4.27,4.27,0,0,0-.72,1.94,3,3,0,0,0,.18,1.3,2.56,2.56,0,0,0,.48,1,4.77,4.77,0,0,0,1.71,1.24,14.23,14.23,0,0,1,1.56.6,14.05,14.05,0,0,1,3.59-2.49,14.66,14.66,0,0,1,3-.94,1.91,1.91,0,0,1,1,.06,24.13,24.13,0,0,1-.73-3c-1.06.07-2.12,0-3.18,0A25.25,25.25,0,0,1,17.23,54a15,15,0,0,1-2.31-1,10.35,10.35,0,0,0-1.87,2m10.47,5.4A11.25,11.25,0,0,0,21,61.1a11.77,11.77,0,0,0-2.58,1.75,6.82,6.82,0,0,0-1.43,2,3.81,3.81,0,0,0-.3,2.36A3.33,3.33,0,0,0,17.84,69a5.59,5.59,0,0,0,1.92.95A9.21,9.21,0,0,0,26,69.35a6.3,6.3,0,0,0,1.15-.59A14.75,14.75,0,0,0,29,67.4c-.43-.54-.87-1.07-1.27-1.63a3.57,3.57,0,0,1-1.15.57,17.3,17.3,0,0,1-2.3.45,2.25,2.25,0,0,1-1.71-.52,1,1,0,0,1-.14-1.32,2.3,2.3,0,0,1,1.45-1c.66-.11,1.31-.24,2-.4l.29-.4c-.34-.62-.68-1.23-1-1.86s-.45-1.12-.68-1.68a1.54,1.54,0,0,1-.94.67m51.36,2.05c.56.36,1.05.8,1.6,1.17a9.42,9.42,0,0,1,1.83,1.86,12,12,0,0,1,1.79,2.82,7.77,7.77,0,0,0,1.41-.17,7.87,7.87,0,0,0,1.76-.53,3.9,3.9,0,0,0,1.57-1.45,5.17,5.17,0,0,0,.47-1.49,4.64,4.64,0,0,0-.56-2c-.27-.57-.76-1-1-1.59a14.89,14.89,0,0,1-4.39-.09,16.77,16.77,0,0,1-3.27-1.14c-.35.91-.76,1.79-1.2,2.66m-1.42,2.46c-.36.53-.71,1.07-1.1,1.58a3.11,3.11,0,0,1,1.19,1.1c.38.61.73,1.24,1.06,1.87a2.42,2.42,0,0,1,.16,1.78,1,1,0,0,1-.87.73,2,2,0,0,1-1.16-.43,2.34,2.34,0,0,1-.78-1c-.26-.47-.51-1-.81-1.41a7.08,7.08,0,0,1-.73-.34,26.8,26.8,0,0,1-3,2.71c.6.37.79,1.09,1.2,1.63a8.57,8.57,0,0,0,1.27,1.48,8.06,8.06,0,0,0,3.8,2.19,4.32,4.32,0,0,0,2.35-.07,4.07,4.07,0,0,0,1.12-.7,3.58,3.58,0,0,0,.88-1.52,6.49,6.49,0,0,0-.2-4.09,8.77,8.77,0,0,0-1.78-3.18,6.87,6.87,0,0,0-1.32-1.35c-.45-.31-.87-.65-1.31-1M28.41,71.37A14.58,14.58,0,0,1,23.35,73,10.59,10.59,0,0,0,23,75.23a4.41,4.41,0,0,0,.46,2.28A3.69,3.69,0,0,0,25,79a4.6,4.6,0,0,0,3.31-.08,2.6,2.6,0,0,1,.82-.19A13.47,13.47,0,0,1,30.39,75a14.26,14.26,0,0,1,2.18-3.07,1.76,1.76,0,0,1,.72-.42,22,22,0,0,1-2.34-2,28.42,28.42,0,0,1-2.54,1.86M35,72.77a1.75,1.75,0,0,1-.11.75,5.1,5.1,0,0,1-.71.94,8.69,8.69,0,0,0-1.5,2.45,8.3,8.3,0,0,0-.77,2.93,5.15,5.15,0,0,0,.5,2.65,3.27,3.27,0,0,0,3.19,1.77,6.65,6.65,0,0,0,2.71-.81A9.2,9.2,0,0,0,41.1,81a16.25,16.25,0,0,0,1.26-2,26.67,26.67,0,0,0,.89-2.58q-.91-.26-1.8-.56a2.88,2.88,0,0,1-.37,1,22.22,22.22,0,0,1-1.75,2,2.29,2.29,0,0,1-1.74.64,1,1,0,0,1-.93-.89,2.29,2.29,0,0,1,.45-1.51c.48-.59,1-1.09,1.5-1.7,0-.2,0-.41,0-.61A27.59,27.59,0,0,1,35,72.77m27.8,1.64c.29.94.63,1.86.87,2.82a14.36,14.36,0,0,1,0,5.2,5.57,5.57,0,0,0,1,.6,7.44,7.44,0,0,0,2,.72,4.91,4.91,0,0,0,1.34,0,3.81,3.81,0,0,0,2-1.14,4.46,4.46,0,0,0,.82-2.21c.1-.56,0-1.13.07-1.7a14,14,0,0,1-3.28-2.46,15.89,15.89,0,0,1-1.36-1.68,8.26,8.26,0,0,1-.87-1.61,28.14,28.14,0,0,1-2.55,1.47m-4.33,1.75a3,3,0,0,1,.3,1.38,16.58,16.58,0,0,1-.32,2.73,2.54,2.54,0,0,1-.78,1.07,1,1,0,0,1-1.43-.08,2.37,2.37,0,0,1-.52-1.6c0-.72.22-1.42.22-2.14a3.26,3.26,0,0,1-.39-.61,36.61,36.61,0,0,1-4.2.44c.47.62.22,1.42.2,2.13a8.25,8.25,0,0,0,.21,2.3,7.61,7.61,0,0,0,1.82,3.89,3.73,3.73,0,0,0,3,1.36,4.07,4.07,0,0,0,2.64-1.5,7.54,7.54,0,0,0,1.53-3,10.33,10.33,0,0,0,.14-4.74c-.2-.72-.44-1.44-.68-2.15-.56.22-1.13.41-1.71.59M46.06,77c-.33,1-.62,2.1-1.05,3.11a14.45,14.45,0,0,1-3,4.1,9.21,9.21,0,0,0,.9,1.82,4.49,4.49,0,0,0,1.86,1.79,3.74,3.74,0,0,0,2.15.26,4.8,4.8,0,0,0,1.22-.57A11.65,11.65,0,0,0,50,85.49a14.15,14.15,0,0,1-1.26-4.27A17,17,0,0,1,48.81,78a1.83,1.83,0,0,1,.27-.64C48.07,77.28,47.06,77.18,46.06,77Z"/>
        <g>
          <g>
            <path d="M22.83,57.55a1.91,1.91,0,0,1,1,.06,24.13,24.13,0,0,1-.73-3c-1.06.07-2.12,0-3.18,0A25.25,25.25,0,0,1,17.24,54a15,15,0,0,1-2.31-1,10.35,10.35,0,0,0-1.87,2,4.27,4.27,0,0,0-.72,1.94,3,3,0,0,0,.18,1.3,2.56,2.56,0,0,0,.48,1,4.77,4.77,0,0,0,1.71,1.24,14.23,14.23,0,0,1,1.56.6,14.05,14.05,0,0,1,3.59-2.49A14.66,14.66,0,0,1,22.83,57.55Z" style="fill: #f5b955"/>
            <path d="M14.48,49.1a9.53,9.53,0,0,0,4.58,2.41,7.05,7.05,0,0,0,1.55.26,15.65,15.65,0,0,0,2.1,0c0-.8-.07-1.61-.07-2.41a2.49,2.49,0,0,1-1-.13c-.59-.22-1.16-.48-1.72-.74a2.82,2.82,0,0,1-1.25-.87,1.89,1.89,0,0,1-.44-1.14,1,1,0,0,1,.68-.86,2.33,2.33,0,0,1,1.7.07c.62.29,1.25.58,1.89.85l.35-.14a26.84,26.84,0,0,1,.66-3.5,1.87,1.87,0,0,1-.94-.08,10.51,10.51,0,0,0-3.32-.95,9.24,9.24,0,0,0-3,.11,5.11,5.11,0,0,0-3,1.83,3.22,3.22,0,0,0-.52,1.87A5.4,5.4,0,0,0,14.48,49.1Z" style="fill: #f5b955"/>
            <path d="M27.19,68.76A14.75,14.75,0,0,0,29,67.4c-.43-.54-.87-1.07-1.27-1.63a3.57,3.57,0,0,1-1.15.57,17.3,17.3,0,0,1-2.3.45,2.25,2.25,0,0,1-1.71-.52,1,1,0,0,1-.14-1.32,2.3,2.3,0,0,1,1.45-1c.66-.11,1.31-.24,2-.4l.29-.4c-.34-.62-.68-1.23-1-1.86s-.45-1.12-.68-1.68a1.54,1.54,0,0,1-.94.67A11.25,11.25,0,0,0,21,61.1a11.77,11.77,0,0,0-2.58,1.75,6.82,6.82,0,0,0-1.43,2,3.81,3.81,0,0,0-.3,2.36A3.33,3.33,0,0,0,17.85,69a5.59,5.59,0,0,0,1.92.95A9.21,9.21,0,0,0,26,69.35,6.3,6.3,0,0,0,27.19,68.76Z" style="fill: #f5b955"/>
            <path d="M16.26,39.06a14.54,14.54,0,0,1,4.3.08,16.62,16.62,0,0,1,3.12,1,2.24,2.24,0,0,1,.53.37c.34-.94.73-1.85,1.14-2.76-.71-.44-1.34-1-2-1.47a8.07,8.07,0,0,1-1.25-1.24,13,13,0,0,1-2.19-3.31,8.21,8.21,0,0,0-1.41.18,5.69,5.69,0,0,0-2,.71,5.29,5.29,0,0,0-.78.59,3.89,3.89,0,0,0-1,2.13,4.56,4.56,0,0,0,.67,2.3C15.61,38.16,16,38.56,16.26,39.06Z" style="fill: #f5b955"/>
            <path d="M33.3,71.53a22,22,0,0,1-2.34-2,28.42,28.42,0,0,1-2.54,1.86A14.58,14.58,0,0,1,23.36,73,10.59,10.59,0,0,0,23,75.23a4.41,4.41,0,0,0,.46,2.28A3.69,3.69,0,0,0,25,79a4.6,4.6,0,0,0,3.31-.08,2.6,2.6,0,0,1,.82-.19A13.47,13.47,0,0,1,30.39,75a14.26,14.26,0,0,1,2.18-3.07A1.76,1.76,0,0,1,33.3,71.53Z" style="fill: #f5b955"/>
            <path d="M69.68,30c.62-.47,1.27-.91,1.91-1.35a19.61,19.61,0,0,1,2.51-1.09A17.59,17.59,0,0,1,76.62,27,7.8,7.8,0,0,0,77,24.89,4.43,4.43,0,0,0,76.28,22,5,5,0,0,0,74.89,21a4.48,4.48,0,0,0-2.44-.1,15,15,0,0,1-1.6.42,11.65,11.65,0,0,1-.9,3A12.65,12.65,0,0,1,67.45,28C68.21,28.65,69,29.3,69.68,30Z" style="fill: #f5b955"/>
            <path d="M56.92,22.87a25.7,25.7,0,0,1,2.57.77,5.1,5.1,0,0,1,1.43-2.12,3.74,3.74,0,0,1,1.57-1.26A1.48,1.48,0,0,1,64,20.4a1.13,1.13,0,0,1,.28,1.09,2.21,2.21,0,0,1-.56,1.24c-.46.5-.93,1-1.37,1.51,0,.19,0,.38,0,.56a29.89,29.89,0,0,1,2.83,1.57,11.42,11.42,0,0,0,2.21-3.28,6.56,6.56,0,0,0,.26-5.6,3.25,3.25,0,0,0-3.15-1.75,5.73,5.73,0,0,0-2.17.55,8.52,8.52,0,0,0-2.19,1.4,10.52,10.52,0,0,0-2.22,2.83A11.55,11.55,0,0,0,56.92,22.87Z" style="fill: #f5b955"/>
            <path d="M24.93,34c.6.43,1.17.9,1.79,1.31a20.09,20.09,0,0,1,1.49-2.2,5.61,5.61,0,0,1-1.46-2,4.87,4.87,0,0,1-.68-1.56,2.31,2.31,0,0,1,.09-1.08,1,1,0,0,1,.87-.68,1.93,1.93,0,0,1,1.19.46A2.74,2.74,0,0,1,29,29.34c.24.45.5.89.76,1.34l.39.1A26.27,26.27,0,0,1,32,28.95a1.46,1.46,0,0,1,.65-.33c-.67-.26-.85-1-1.24-1.53s-.65-.88-1-1.28a8.69,8.69,0,0,0-4.14-2.52,3.73,3.73,0,0,0-3.38.68,3.56,3.56,0,0,0-1.05,1.84,7.08,7.08,0,0,0,.47,4.43A10.81,10.81,0,0,0,24.93,34Z" style="fill: #f5b955"/>
            <path d="M43.27,76.49q-.91-.25-1.8-.56a2.88,2.88,0,0,1-.37,1,22.22,22.22,0,0,1-1.75,2,2.29,2.29,0,0,1-1.74.64,1,1,0,0,1-.93-.89,2.29,2.29,0,0,1,.45-1.51c.48-.59,1-1.09,1.5-1.7,0-.2,0-.41,0-.61A27.59,27.59,0,0,1,35,72.77a1.75,1.75,0,0,1-.11.75,5.1,5.1,0,0,1-.71.94,8.69,8.69,0,0,0-1.5,2.45,8.3,8.3,0,0,0-.77,2.93,5.15,5.15,0,0,0,.5,2.65,3.27,3.27,0,0,0,3.19,1.77,6.65,6.65,0,0,0,2.71-.81A9.2,9.2,0,0,0,41.11,81a16.25,16.25,0,0,0,1.26-2A26.67,26.67,0,0,0,43.27,76.49Z" style="fill: #f5b955"/>
            <path d="M51.17,22.08c1,0,2,.14,2.95.24.27-.83.54-1.67.87-2.47a14.85,14.85,0,0,1,3-4.11,9.75,9.75,0,0,0-1.3-2.43,4.26,4.26,0,0,0-2-1.4,5.77,5.77,0,0,0-1.4-.07,3.07,3.07,0,0,0-1.25.49,3.68,3.68,0,0,0-1.12,1c-.36.36-.57.85-1,1.19a11.86,11.86,0,0,1,.92,2.57A12.56,12.56,0,0,1,51.17,22.08Z" style="fill: #f5b955"/>
            <path d="M71.6,32.1q.78.94,1.47,1.94a2.81,2.81,0,0,1,1-.61,23.6,23.6,0,0,1,2.39-.53,2.24,2.24,0,0,1,1.6.31,1,1,0,0,1,.6.85,1.47,1.47,0,0,1-.76,1.26,3,3,0,0,1-1.32.47,15.21,15.21,0,0,0-1.52.33,4,4,0,0,1-.43.53,25.88,25.88,0,0,1,1.46,3.14A14.86,14.86,0,0,0,79,38.92a8.74,8.74,0,0,0,3.77-3.2,4.39,4.39,0,0,0,.67-2.11,3.2,3.2,0,0,0-.68-2,4.48,4.48,0,0,0-1.8-1.32,7.92,7.92,0,0,0-3.51-.5A10.93,10.93,0,0,0,73,31.08C72.56,31.43,72.07,31.74,71.6,32.1Z" style="fill: #f5b955"/>
            <path d="M83.76,60.94a14.89,14.89,0,0,1-4.39-.09,16.77,16.77,0,0,1-3.27-1.14c-.35.91-.76,1.79-1.2,2.66.56.36,1.05.8,1.6,1.17a9.42,9.42,0,0,1,1.83,1.86,12,12,0,0,1,1.79,2.82,7.77,7.77,0,0,0,1.4-.17,7.87,7.87,0,0,0,1.76-.53,3.9,3.9,0,0,0,1.57-1.45,5.17,5.17,0,0,0,.47-1.49,4.64,4.64,0,0,0-.56-2C84.5,62,84,61.52,83.76,60.94Z" style="fill: #f5b955"/>
            <path d="M48.82,78a1.83,1.83,0,0,1,.27-.64c-1-.06-2-.16-3-.29-.33,1-.62,2.1-1.05,3.11a14.45,14.45,0,0,1-3,4.1,9.21,9.21,0,0,0,.9,1.82,4.49,4.49,0,0,0,1.86,1.79,3.74,3.74,0,0,0,2.15.26,4.8,4.8,0,0,0,1.22-.57A11.65,11.65,0,0,0,50,85.49a14.15,14.15,0,0,1-1.26-4.27A17,17,0,0,1,48.82,78Z" style="fill: #f5b955"/>
            <path d="M85.34,39.63c-.51-.27-1.1-.31-1.6-.61a13.2,13.2,0,0,1-1.84,1.48,12.55,12.55,0,0,1-2.48,1.3,12.94,12.94,0,0,1-2.43.68c.24,1,.46,1.92.62,2.9.82,0,1.64,0,2.45,0s1.51.31,2.25.49A12.39,12.39,0,0,1,85.06,47a7.93,7.93,0,0,0,1.39-1.35,4.24,4.24,0,0,0,.86-1.27,5.1,5.1,0,0,0,.33-1.18,3.77,3.77,0,0,0-.43-2.1A4.37,4.37,0,0,0,85.34,39.63Z" style="fill: #f5b955"/>
            <path d="M76.1,67.16a6.87,6.87,0,0,0-1.32-1.35c-.45-.31-.87-.65-1.31-1-.36.53-.71,1.07-1.1,1.58a3.11,3.11,0,0,1,1.19,1.1c.38.61.73,1.23,1.06,1.87a2.42,2.42,0,0,1,.16,1.78,1,1,0,0,1-.87.73,2,2,0,0,1-1.16-.43,2.34,2.34,0,0,1-.78-1c-.26-.47-.51-1-.81-1.41a7.08,7.08,0,0,1-.73-.34,26.8,26.8,0,0,1-3,2.71c.6.37.79,1.09,1.2,1.63a8.57,8.57,0,0,0,1.27,1.48,8.06,8.06,0,0,0,3.8,2.19,4.32,4.32,0,0,0,2.35-.07,4.07,4.07,0,0,0,1.12-.7,3.58,3.58,0,0,0,.88-1.52,6.49,6.49,0,0,0-.2-4.09A8.77,8.77,0,0,0,76.1,67.16Z" style="fill: #f5b955"/>
            <path d="M80.62,48.4a10.61,10.61,0,0,0-2.72-.21c0,.72.07,1.45.08,2.17a3.41,3.41,0,0,1,1.16.06,11.75,11.75,0,0,1,1.52.6,6.65,6.65,0,0,1,1.36.76,2.84,2.84,0,0,1,.66,1.06A1,1,0,0,1,82,54.11a2.43,2.43,0,0,1-1.6,0c-.64-.29-1.27-.63-1.94-.86a2.38,2.38,0,0,1-.74.16A22.21,22.21,0,0,1,77,57.08a8.73,8.73,0,0,1,1.52.54,7.91,7.91,0,0,0,2.25.53,7.48,7.48,0,0,0,4.92-.86,3.66,3.66,0,0,0,1.44-1.69,3.81,3.81,0,0,0-.47-3.36A9.08,9.08,0,0,0,80.62,48.4Z" style="fill: #f5b955"/>
            <path d="M67.58,76.23a15.89,15.89,0,0,1-1.36-1.68,8.26,8.26,0,0,1-.87-1.61A28.14,28.14,0,0,1,62.8,74.4c.29.94.63,1.86.87,2.82a14.36,14.36,0,0,1,0,5.2,5.57,5.57,0,0,0,1,.6,7.44,7.44,0,0,0,2,.72,4.91,4.91,0,0,0,1.34,0,3.81,3.81,0,0,0,2-1.14,4.46,4.46,0,0,0,.82-2.21c.1-.56,0-1.13.07-1.7A14,14,0,0,1,67.58,76.23Z" style="fill: #f5b955"/>
            <path d="M60.18,75.56c-.56.22-1.13.41-1.71.59a3,3,0,0,1,.3,1.38,16.58,16.58,0,0,1-.32,2.73,2.54,2.54,0,0,1-.78,1.07,1,1,0,0,1-1.43-.08,2.37,2.37,0,0,1-.52-1.6c0-.72.22-1.42.22-2.14a3.26,3.26,0,0,1-.39-.61,36.61,36.61,0,0,1-4.2.44c.47.62.22,1.42.2,2.13a8.25,8.25,0,0,0,.21,2.3,7.61,7.61,0,0,0,1.82,3.89,3.73,3.73,0,0,0,3,1.36,4.07,4.07,0,0,0,2.64-1.5,7.54,7.54,0,0,0,1.53-3,10.33,10.33,0,0,0,.14-4.74C60.65,77,60.42,76.27,60.18,75.56Z" style="fill: #f5b955"/>
          </g>
          <g>
            <path d="M44.47,13.09a3.3,3.3,0,0,0-2.91.57A6.28,6.28,0,0,0,39.69,16a9.41,9.41,0,0,0-.88,4A15.46,15.46,0,0,0,39,22.22c.2.63.36,1.27.58,1.89a1.76,1.76,0,0,1,.95,0,1.35,1.35,0,0,1,.43.22l1-.24a2.22,2.22,0,0,1,.3-.67A3.4,3.4,0,0,1,42,22.17a16.75,16.75,0,0,1,.28-2.57,2.18,2.18,0,0,1,.86-1.3,1,1,0,0,1,1.38.1,2.47,2.47,0,0,1,.5,2,12.7,12.7,0,0,0-.19,1.7,1.47,1.47,0,0,1,.41.86,1,1,0,0,0,.07.31l1-.24a1.35,1.35,0,0,1,.47-.63,2.51,2.51,0,0,1,1.4-.34,5,5,0,0,1,.05-1,8.88,8.88,0,0,0-.23-3.14A8.46,8.46,0,0,0,47,15.15,5,5,0,0,0,44.47,13.09Z" style="fill: #f5b955"/>
            <path d="M33,24.6a10.93,10.93,0,0,1,1.41,2.18,1.27,1.27,0,0,1,.09.4l.41-.16a1.35,1.35,0,0,1,.56-.78c.49-.31,1-.6,1.51-.88-.29-.84-.53-1.7-.79-2.56a15.52,15.52,0,0,1,0-5.3,10.08,10.08,0,0,0-1.9-1,4.27,4.27,0,0,0-2.93-.18,5.79,5.79,0,0,0-1,.62,3.21,3.21,0,0,0-1.09,1.68A12.48,12.48,0,0,0,29,21.25a13,13,0,0,1,2,1.29A11.13,11.13,0,0,1,33,24.6Z" style="fill: #f5b955"/>
          </g>
        </g>
      </g>
    </g>
  </g>
</svg>
