<svg xmlns="http://www.w3.org/2000/svg" viewBox="0 0 100 100">
  <title>tomato</title>
  <g id="Layer_2" data-name="Layer 2">
    <g id="Layer_1-2" data-name="Layer 1">
      <rect width="100" height="100" style="fill: #fff"/>
      <rect width="100" height="100" style="fill: #fff"/>
      <g>
        <path d="M58.42,25.65h0a56.33,56.33,0,0,1-16.84,0h0a31.34,31.34,0,0,0-28.05,10.1L13.3,36a31.34,31.34,0,0,0-8,20.89h0A31.34,31.34,0,0,0,17.17,81.43l.24.19A61.52,61.52,0,0,0,50,94.71h0A61.52,61.52,0,0,0,82.59,81.62l.24-.19A31.34,31.34,0,0,0,94.67,56.89h0A31.34,31.34,0,0,0,86.7,36l-.23-.25A31.34,31.34,0,0,0,58.42,25.65Z" style="fill: #ff5a5a"/>
        <g>
          <path d="M50,50c6.55-4.33,5.69-9.88,5.69-9.88s2.26,2.17,6.77,1.56,9,2.51,9,2.51-1.07-8.58-8.59-11.87c5.48-1.13,5.91-4.68,12.89-6.93C64.18,18.19,50,25.5,50,25.5s-14.18-7.31-25.78-.12c7,2.25,7.41,5.81,12.89,6.93-7.52,3.29-8.59,11.87-8.59,11.87s4.51-3.12,9-2.51,6.77-1.56,6.77-1.56S43.44,45.66,50,50Z" style="fill: #a5dc69"/>
          <path d="M46.37,27.95V24.44A18.39,18.39,0,0,1,53,10.28L58,6.18a3.78,3.78,0,0,1,4.94.1h0A3.78,3.78,0,0,1,62.75,12l-1.91,1.53A18.39,18.39,0,0,0,54,27.9h0Z" style="fill: #a5dc69"/>
        </g>
        <path d="M88.06,34.8l-.23-.25A33.17,33.17,0,0,0,77.12,26.6a1.81,1.81,0,0,0-.39-2.76c-5.63-3.49-13.57-4.65-19.31-3.12A16.56,16.56,0,0,1,62,15l1.91-1.53A5.6,5.6,0,1,0,56.8,4.78l-4.94,4.1a20.14,20.14,0,0,0-7.12,12.75c-6.1-1.78-13.39-2.81-21.48,2.21a1.81,1.81,0,0,0-.39,2.76,33.13,33.13,0,0,0-4.74,2.71,1.82,1.82,0,1,0,2.05,3,29.51,29.51,0,0,1,7.12-3.58,24.35,24.35,0,0,1,2.81,2,21.53,21.53,0,0,0,2.85,2A18.61,18.61,0,0,0,26.71,44a1.82,1.82,0,0,0,2.84,1.72s4-2.71,7.75-2.21A11.76,11.76,0,0,0,42.71,43c.52,2.38,2.05,5.69,6.29,8.49a1.82,1.82,0,0,0,2,0c4.24-2.8,5.77-6.11,6.29-8.49a11.76,11.76,0,0,0,5.41.46c3.74-.5,7.71,2.18,7.75,2.21A1.82,1.82,0,0,0,73.28,44,18.61,18.61,0,0,0,67,32.71a21.55,21.55,0,0,0,2.85-2,24.35,24.35,0,0,1,2.82-2A29.54,29.54,0,0,1,85.12,37l.23.25A29.52,29.52,0,0,1,81.7,80l-.28.22A59.41,59.41,0,0,1,50,92.89,59.56,59.56,0,0,1,18.54,80.2L18.3,80A29.37,29.37,0,0,1,7.14,56.89a29.67,29.67,0,0,1,3.14-13.25A1.82,1.82,0,0,0,7,42a33.16,33.16,0,0,0,9,40.84l.24.19A63.14,63.14,0,0,0,49.83,96.49h.33A63,63,0,0,0,83.68,83.07l.28-.22a33.16,33.16,0,0,0,4.1-48.06ZM67.62,27.86a11.07,11.07,0,0,1-5.1,2.67A1.82,1.82,0,0,0,62.16,34a12.66,12.66,0,0,1,6.4,6.74,13.57,13.57,0,0,0-6.34-.84c-3.38.45-5.1-.93-5.28-1.08a1.78,1.78,0,0,0-2.08-.33,1.83,1.83,0,0,0-1,1.93s.54,3.88-3.9,7.37c-4.28-3.36-3.93-7.09-3.9-7.37a1.79,1.79,0,0,0-3-1.59c-.18.15-1.9,1.53-5.28,1.08a13.58,13.58,0,0,0-6.36.85A12.63,12.63,0,0,1,37.84,34a1.82,1.82,0,0,0-.36-3.44,11.07,11.07,0,0,1-5.1-2.67,25.49,25.49,0,0,0-3.88-2.64c5.7-2.33,11.19-1.35,16,.08l.09,0v2.62a1.82,1.82,0,1,0,3.63,0V24.44a16.53,16.53,0,0,1,6-12.76l4.94-4.1a2,2,0,0,1,2.57,0,2,2,0,0,1-.08,3L59.7,12.16A20.12,20.12,0,0,0,52.17,27.9a1.82,1.82,0,0,0,3.63,0A16.74,16.74,0,0,1,56,25.15l.06,0a16,16,0,0,1,8.54-1.37,24.08,24.08,0,0,1,6.81,1.5A25.6,25.6,0,0,0,67.62,27.86Z"/>
        <path d="M12.09,37.36a1.82,1.82,0,0,0,2.56-.14l.23-.25a1.82,1.82,0,0,0-2.71-2.41l-.22.25A1.82,1.82,0,0,0,12.09,37.36Z"/>
        <path d="M57.53,87.9a1.83,1.83,0,0,0,.44-.05A55.49,55.49,0,0,0,79.16,77.38l.28-.22a1.82,1.82,0,0,0-2.26-2.85l-.28.22a51.88,51.88,0,0,1-19.81,9.78,1.82,1.82,0,0,0,.44,3.58Z"/>
        <path d="M49.33,89.29h.33a1.82,1.82,0,0,0-.35-3.62h-.14a1.82,1.82,0,0,0,.17,3.63Z"/>
      </g>
    </g>
  </g>
</svg>
