<svg xmlns="http://www.w3.org/2000/svg" viewBox="0 0 100 100">
  <title>watermelon_icon</title>
  <g id="Layer_2" data-name="Layer 2">
    <g id="Layer_1-2" data-name="Layer 1">
      <g style="opacity: 0.5">
        <rect width="100" height="100" style="fill: #fff"/>
      </g>
      <rect width="100" height="100" style="fill: #fff"/>
      <g>
        <path d="M30.77,71c26.55,26.55,56.52,11.64,62.51,5.66L62.16,39.74,25.11,8.49S.29,40.52,30.77,71Z" style="fill: #a5dc69"/>
        <path d="M36.45,65.83c21,21,49.24,13.8,55.23,7.81L63.93,38,28.79,10.61S8.86,38.24,36.45,65.83Z" style="fill: #f4b3e8"/>
        <g>
          <path d="M86.91,63.22A328,328,0,0,0,63.93,38,328,328,0,0,0,38.69,15c-12-9.55-13.44-8.06-14.28-7.21C8.35,23.83,10.9,52.54,30.06,71.7S77.93,93.41,94,77.36C94.9,76.58,96.46,75,86.91,63.22ZM62.16,39.74C77.44,55,87,66.68,90.59,72.41,75.1,83.37,52,80.26,36.85,65.06S18.53,26.8,29.49,11.32C35.22,14.92,46.89,24.47,62.16,39.74ZM31.9,70C13.72,51.83,11.18,24.82,26.1,9.76a3.58,3.58,0,0,1,1.2.35c-11.46,16.55-8.2,40.73,7.78,56.71S75.24,86.06,91.79,74.6a3.58,3.58,0,0,1,.35,1.2C77.08,90.72,50.07,88.18,31.9,70Z"/>
          <path d="M41.3,60.6c1.48,1.48,4.31,1.06,6.36-1s2.55-4.81,1-6.36-4.31-1.06-6.36,1S39.82,59.12,41.3,60.6ZM47,54.94c.28.28.14,1.56-1.13,2.83S43.28,59.19,43,58.9s-.14-1.56,1.13-2.83S46.68,54.66,47,54.94Z"/>
          <path d="M35.08,52.82l.35.35c1.34,1.34,3.89,1.2,6.15-.35a7.08,7.08,0,0,0,2.33-2.76,3.43,3.43,0,0,0-.21-3.32c-1.2-1.77-4-1.77-6.43-.07a7.08,7.08,0,0,0-2.33,2.76A3.21,3.21,0,0,0,35.08,52.82Zm3.54-4c1.34-.92,2.62-.92,3-.57l.07.07c.14.14.07.49-.07.92A5.18,5.18,0,0,1,40.17,51c-1.41,1-2.76.92-3,.57-.14-.14-.07-.49.07-.92A2.76,2.76,0,0,1,38.61,48.86Z"/>
          <path d="M48.66,66.54l.35.35a3.43,3.43,0,0,0,3.32.21,7.08,7.08,0,0,0,2.76-2.33c1.7-2.4,1.7-5.23-.07-6.43a3.43,3.43,0,0,0-3.32-.21,7.08,7.08,0,0,0-2.76,2.33C47.45,62.65,47.31,65.2,48.66,66.54Zm4-6.15c.42-.14.78-.21.92-.07l.07.07c.35.35.35,1.63-.57,3a4,4,0,0,1-1.7,1.41c-.42.14-.78.21-.92.07-.35-.21-.42-1.56.57-3A4,4,0,0,1,52.69,60.39Z"/>
          <path d="M30.34,43.56a3,3,0,0,0,.57.85c1.2,1.2,3.54,1.41,5.73.35h0c2.69-1.27,4-3.75,3.18-5.59s-3.68-2.4-6.36-1.13S29.42,41.65,30.34,43.56Zm4.24-3.39c1.41-.71,2.62-.49,3-.14l.07.07c.14.42-.42,1.56-2,2.26s-2.83.42-3,.07S33,40.87,34.58,40.17Z"/>
          <path d="M57.49,71a3.55,3.55,0,0,0,.85.57c1.91.92,4.31-.49,5.59-3.18h0c1.27-2.69.78-5.44-1.13-6.36s-4.31.49-5.59,3.18C56.08,67.46,56.29,69.79,57.49,71Zm4.24-6.65.07.07c.35.35.57,1.56-.14,3s-1.91,2.19-2.26,2-.64-1.48.07-3S61.31,64.07,61.74,64.35Z"/>
          <path d="M27.94,33.52a2.41,2.41,0,0,0,.78,1.34,4.89,4.89,0,0,0,1.7,1A5.74,5.74,0,0,0,34,35.78c2.83-.71,4.67-3,4.1-4.95a3.52,3.52,0,0,0-2.4-2.26,5.74,5.74,0,0,0-3.61.07C29.21,29.28,27.37,31.54,27.94,33.52Zm4.74-2.62a4.09,4.09,0,0,1,2.26,0,2.54,2.54,0,0,1,.64.35c.07.07.14.14.07.21.14.42-.64,1.48-2.33,1.91a4.09,4.09,0,0,1-2.26,0c-.42-.14-.71-.28-.78-.49C30.2,32.39,31,31.4,32.68,30.9Z"/>
          <path d="M66.12,71.56a4.49,4.49,0,0,0,1,1.7,2.82,2.82,0,0,0,1.34.78c2.05.49,4.24-1.27,4.95-4.1a8.91,8.91,0,0,0,.07-3.61,3.26,3.26,0,0,0-2.26-2.4C69.16,63.43,67,65.2,66.26,68A5.11,5.11,0,0,0,66.12,71.56Zm4.31-5.3c.07.07.14,0,.21.07A2.54,2.54,0,0,1,71,67a4.87,4.87,0,0,1,0,2.26c-.42,1.7-1.48,2.47-1.91,2.33-.21-.07-.35-.35-.49-.78a4.87,4.87,0,0,1,0-2.26C69,67,70,66.12,70.43,66.26Z"/>
          <path d="M33.31,26c3-.28,5.09-2.12,4.88-4.17s-2.69-3.54-5.52-3.25a6.57,6.57,0,0,0-3.39,1.27,3.51,3.51,0,0,0-1.56,3,2.72,2.72,0,0,0,.92,1.91,5.85,5.85,0,0,0,1.06.78A9.69,9.69,0,0,0,33.31,26Zm-.21-2.47a4.35,4.35,0,0,1-2.19-.35c-.35-.21-.64-.49-.64-.64s.21-.49.49-.78a3.79,3.79,0,0,1,2.12-.71,3.41,3.41,0,0,1,2.69.71c.14.14.21.21.21.35A3.15,3.15,0,0,1,33.1,23.55Z"/>
          <path d="M76.52,72.2a5.85,5.85,0,0,0,.78,1.06,2.88,2.88,0,0,0,1.91.92,3.51,3.51,0,0,0,3-1.56,7.56,7.56,0,0,0,1.27-3.39c.28-3-1.13-5.37-3.25-5.52s-4,2-4.17,4.88A6.11,6.11,0,0,0,76.52,72.2Zm3.32-6c.14,0,.21.07.35.21a3.6,3.6,0,0,1,.71,2.69,4.71,4.71,0,0,1-.71,2.12c-.21.35-.57.57-.78.49a1.35,1.35,0,0,1-.64-.64,4.35,4.35,0,0,1-.35-2.19C78.5,67.11,79.49,66.12,79.84,66.19Z"/>
        </g>
      </g>
    </g>
  </g>
</svg>
