<svg xmlns="http://www.w3.org/2000/svg" viewBox="0 0 100 100">
  <title>zucchini_icon</title>
  <g id="Layer_2" data-name="Layer 2">
    <g id="Layer_1-2" data-name="Layer 1">
      <g style="opacity: 0.5">
        <rect width="100" height="100" style="fill: #fff"/>
      </g>
      <rect width="100" height="100" style="fill: #fff"/>
      <g>
        <polygon points="84.73 78.25 86.75 68 83 62 58 43 40 27 31 20 28.73 29.04 20 32 32.5 45.25 40.25 55.41 60 82 72 87 84.73 78.25" style="fill: #c4bf5c"/>
        <path d="M84.43,74.54l-2.76-2.88-9.11-9.32L50,45,30,27l-5,5L47.25,52.25,64.17,75,74,82.75l1.86.65C81.45,85.36,85.95,80.27,84.43,74.54Z" style="fill: #f9f993"/>
        <polygon points="29 29 31 20 21.25 14.63 15.13 13.5 12.63 20 17.63 29 29 29" style="fill: #c4bf5c"/>
        <path d="M17.78,11.78a7.6,7.6,0,0,0-3.83,2.14c-2.5,2.5-3,5.94-1.09,7.83a3.64,3.64,0,0,0,.52.4l2,4.57a6.17,6.17,0,0,0,1.73,3.7A6,6,0,0,0,19.82,32c1.94,4.4,7.3,11.16,13.6,17.09,6.52,6.13,12.43,15,17.17,22.09,3.36,5,6.26,9.38,8.65,11.73,8.16,8,18.54,6.33,24.2.72l.06,0,.11-.13A16.6,16.6,0,0,0,88.3,71.87a17.87,17.87,0,0,0-5.46-12.59c-2.35-2.4-6.69-5.3-11.73-8.65C64,45.88,55.15,40,49,33.46S35.79,21.35,31.41,19.61h0A5.93,5.93,0,0,0,30,17.49a6,6,0,0,0-3-1.59l-5-2.52a3.72,3.72,0,0,0-.36-.55A4.33,4.33,0,0,0,17.78,11.78Zm57.63,72.9C71.09,85.89,66,85,61.48,80.58c-2.16-2.11-5-6.33-8.23-11.21C48.41,62.12,42.4,53.11,35.61,46.72,29.58,41,25.34,35.53,23.4,32l.24-.07a8.58,8.58,0,0,0,.89-.23C27.38,35,32.18,40,37.4,45c6.45,6.25,12.85,14.59,18,21.29a127.7,127.7,0,0,0,9.17,11.21C68.58,81.5,72.28,83.72,75.41,84.68Zm5.84-3.41h0c-1.68,1.66-7.41.9-14.41-6a127.17,127.17,0,0,1-8.88-10.88c-5.21-6.79-11.69-15.23-18.31-21.64-4.79-4.64-9.37-9.36-12.21-12.56h0a11.83,11.83,0,0,0,1-.87l.24-.21,0,0a11.35,11.35,0,0,0,1.16-1.4c.06-.08.13-.16.18-.24C33.27,30.23,38,34.82,42.7,39.67,49.12,46.29,57.56,52.77,64.35,58a127.88,127.88,0,0,1,10.88,8.88C82.15,73.86,82.91,79.59,81.25,81.27ZM46.69,35.64c6.39,6.79,15.4,12.8,22.65,17.63,4.88,3.25,9.1,6.07,11.21,8.23,4.39,4.49,5.31,9.62,4.09,13.95-1-3.13-3.17-6.84-7.15-10.85a128.26,128.26,0,0,0-11.21-9.17c-6.7-5.14-15-11.55-21.29-18-5.13-5.29-10.29-10.27-13.54-13.08l.05-.18c0-.1.07-.2.1-.29s.17-.37.24-.55C35.35,25.26,40.94,29.53,46.69,35.64ZM25.81,18.84a1.7,1.7,0,0,0,.41.14,2.93,2.93,0,0,1,1.54.76A3.56,3.56,0,0,1,28.54,23s0,.09,0,.14a6.8,6.8,0,0,1-.61,1.61c-.1.2-.2.39-.31.58a7.38,7.38,0,0,1-2.15,2.37l-.12.07a8.15,8.15,0,0,1-1,.59,6.32,6.32,0,0,1-2.14.62,3.41,3.41,0,0,1-2.81-.81,3.05,3.05,0,0,1-.83-2,1.63,1.63,0,0,0-.13-.51l-1.29-3A6.88,6.88,0,0,0,18.9,22l.16-.1a8.29,8.29,0,0,0,1.59-1.22l0,0,0,0a8.39,8.39,0,0,0,1.14-1.47l.16-.29a7,7,0,0,0,.68-1.6Zm-6.3-3.76s0,.05,0,.07,0,.09,0,.13a1.86,1.86,0,0,1,0,1.33c0,.07-.06.14-.09.21a3.86,3.86,0,0,1-.29.62,5,5,0,0,1-1.66,1.66,2.48,2.48,0,0,1-2.19.4c-.06,0-.14,0-.21,0a1,1,0,0,1-.21-.68,4,4,0,0,1,1.31-2.62,4.46,4.46,0,0,1,2.19-1.26A1.36,1.36,0,0,1,19.51,15.08Z"/>
      </g>
      <g>
        <polygon points="21.75 84.73 32 86.75 38 83 57 58 73 40 80 31 70.96 28.73 68 20 54.75 32.5 44.59 40.25 18 60 13 72 21.75 84.73" style="fill: #a5dc69"/>
        <path d="M25.46,84.43l2.88-2.76,9.32-9.11L55,50,73,30l-5-5L47.75,47.25,25,64.17,17.25,74l-.65,1.86C14.64,81.45,19.73,85.95,25.46,84.43Z" style="fill: #d7fa91"/>
        <polygon points="71 29 80 31 85.38 21.25 86.5 15.13 80 12.63 71 17.63 71 29" style="fill: #a5dc69"/>
        <path d="M88.22,17.78a7.6,7.6,0,0,0-2.14-3.83c-2.5-2.5-5.94-3-7.83-1.09a3.64,3.64,0,0,0-.4.52l-4.57,2a6.17,6.17,0,0,0-3.7,1.73A6,6,0,0,0,68,19.82c-4.4,1.94-11.16,7.3-17.09,13.6-6.13,6.52-15,12.43-22.09,17.17-5,3.36-9.38,6.26-11.73,8.65-8,8.16-6.33,18.54-.72,24.2l0,.06.13.11A16.6,16.6,0,0,0,28.13,88.3a17.87,17.87,0,0,0,12.59-5.46c2.4-2.35,5.3-6.69,8.65-11.73C54.12,64,60,55.15,66.54,49S78.65,35.79,80.39,31.41c0,0,0,0,0,0A5.93,5.93,0,0,0,82.51,30a6,6,0,0,0,1.59-3l2.52-5a3.72,3.72,0,0,0,.55-.36A4.33,4.33,0,0,0,88.22,17.78ZM15.32,75.41C14.11,71.09,15,66,19.42,61.48c2.11-2.16,6.33-5,11.21-8.23,7.24-4.83,16.26-10.84,22.65-17.63C59,29.58,64.47,25.34,68,23.4c0,.08.05.16.07.24a8.58,8.58,0,0,0,.23.89C65,27.38,60,32.18,55,37.4c-6.25,6.45-14.59,12.85-21.29,18a127.7,127.7,0,0,0-11.21,9.17C18.5,68.58,16.28,72.28,15.32,75.41Zm3.41,5.84h0c-1.66-1.68-.9-7.41,6-14.41a127.17,127.17,0,0,1,10.88-8.88c6.79-5.21,15.23-11.69,21.64-18.31,4.64-4.79,9.36-9.37,12.56-12.21h0a11.83,11.83,0,0,0,.87,1l.21.24,0,0a11.35,11.35,0,0,0,1.4,1.16l.24.18C69.77,33.27,65.18,38,60.33,42.7,53.71,49.12,47.23,57.56,42,64.35a127.88,127.88,0,0,1-8.88,10.88C26.14,82.15,20.41,82.91,18.73,81.25ZM64.36,46.69c-6.79,6.39-12.8,15.4-17.63,22.65-3.25,4.88-6.07,9.1-8.23,11.21-4.49,4.39-9.62,5.31-13.95,4.09,3.13-1,6.84-3.17,10.85-7.15a128.26,128.26,0,0,0,9.17-11.21c5.14-6.7,11.55-15,18-21.29,5.29-5.13,10.27-10.29,13.08-13.54l.18.05.29.1.55.24C74.74,35.35,70.47,40.94,64.36,46.69Zm16.8-20.88a1.7,1.7,0,0,0-.14.41,2.93,2.93,0,0,1-.76,1.54,3.56,3.56,0,0,1-3.23.78l-.14,0a6.8,6.8,0,0,1-1.61-.61c-.2-.1-.39-.2-.58-.31a7.38,7.38,0,0,1-2.37-2.15l-.07-.12a8.15,8.15,0,0,1-.59-1A6.32,6.32,0,0,1,71,22.17a3.41,3.41,0,0,1,.81-2.81,3.05,3.05,0,0,1,2-.83,1.63,1.63,0,0,0,.51-.13l3-1.29A6.88,6.88,0,0,0,78,18.9l.1.16a8.29,8.29,0,0,0,1.22,1.59l0,0,0,0a8.39,8.39,0,0,0,1.47,1.14l.29.16a7,7,0,0,0,1.6.68Zm3.76-6.3-.07,0s-.09,0-.13,0a1.86,1.86,0,0,1-1.33,0l-.21-.09a3.86,3.86,0,0,1-.62-.29,5,5,0,0,1-1.66-1.66,2.48,2.48,0,0,1-.4-2.19c0-.06,0-.14,0-.21a1,1,0,0,1,.68-.21,4,4,0,0,1,2.62,1.31,4.46,4.46,0,0,1,1.26,2.19A1.36,1.36,0,0,1,84.92,19.51Z"/>
      </g>
    </g>
  </g>
</svg>
