<?xml version="1.0" encoding="iso-8859-1"?>
<!-- Generator: Adobe Illustrator 19.0.0, SVG Export Plug-In . SVG Version: 6.00 Build 0)  -->
<svg version="1.1" id="Layer_1" xmlns="http://www.w3.org/2000/svg" xmlns:xlink="http://www.w3.org/1999/xlink" x="0px" y="0px"
	 viewBox="0 0 119.581 119.581" style="enable-background:new 0 0 119.581 119.581;" xml:space="preserve">
<g>
	<g>
		<g>
			<path d="M110.148,87.989c-0.594-5.903-6.911-9.939-12.207-12.854c-4.365-2.403-9-3.878-13.349-6.305
				c-4.407-2.459-8.692-5.195-12.741-8.199c-8.208-6.092-14.46-14.959-20.395-23.184c-2.573-3.566-4.919-7.757-7.769-11.108
				c-1.114-1.309-2.474-2.61-4.03-3.22c-0.031-0.973-0.577-1.557-1.293-2.033c0.268-0.509,0.272-1.174-0.007-1.66
				c-2.31-4.02-6.468-6.966-10.859-8.436c-2.397-0.802-4.409,0.015-5.809-2.562c-1.005-1.85-1.325-3.725-2.731-5.439
				c-1.924-2.345-5.555-3.843-8.497-2.456C7.716,1.827,6.94,4.863,8.867,7.094c0.085,0.098,0.196,0.107,0.299,0.077
				c0.622,2.443,1.556,4.898,2.387,7.053c0.874,2.266,1.945,4.022,0.997,6.492c-0.486,1.267-1.756,2.225-2.399,3.414
				c-1.427,2.637-5.229,15.923,1.184,15.23c0.092,2.628,0.615,5.104,1.005,7.869c0.562,3.983,0.766,8.353,2.159,12.165
				c1.181,3.233,2.397,6.505,3.687,9.701c1.179,2.92,3.139,5.318,4.382,8.216c3.078,7.178,6.883,12.712,11.477,19.052
				c4.207,5.807,9.647,11.464,16.126,14.736c7.132,3.601,14.342,7.233,22.329,8.092c6.77,0.728,13.999,0.659,20.369-2.162
				C104.625,111.82,116.323,101.912,110.148,87.989z M12.298,28.537c1.088-2.865,3.162-4.649,4.425-7.34
				c1.038-2.211,0.266-3.589-0.893-5.193c0.957-1.377,2.403-2.62,3.134-3.931c0.264-0.475-0.461-0.899-0.729-0.426
				c-0.781,1.383-1.918,2.47-2.87,3.722c-0.218-0.296-0.441-0.603-0.663-0.927c0.814-2.314,1.627-4.72,1.698-7.083
				c0.012-0.389-0.58-0.384-0.602,0c-0.123,2.148-1.026,4.14-1.707,6.175c-1.501-2.267-3.309-5.268-4.452-7.999
				c1.041-3.943,5.708-3.875,7.651-0.234c0.587,1.099,0.869,2.317,1.146,3.521c0.391,1.703,0.39,3.419,1.893,4.559
				c1.492,1.132,3.295,0.522,4.999,0.757c3.703,0.509,7.461,2.579,9.477,5.706c-0.158,0.178-0.317,0.374-0.502,0.626
				c-0.582,0.794,0.032,2.005,0.906,2.228c0.528,0.135,0.763,0.357,0.825,0.616c-0.073,0.079-0.132,0.167-0.187,0.26
				c-0.171-0.487-0.662-0.849-1.186-0.464c-1.408,1.034-3.207,1.165-4.555,2.165c-0.31,0.23-0.636,0.587-0.583,1.016
				c0.423,3.444-2.968,2.644-5.195,1.291c-0.632-0.384-1.348,0.008-1.577,0.642c-0.627,1.733-0.01,3.426-0.359,5.191
				c-0.591,2.986-1.269,2.849-1.891,1.788c0.113-0.398,0.246-0.787,0.419-1.158c0.199-0.428-0.427-0.806-0.641-0.375
				c-0.091,0.184-0.172,0.372-0.248,0.563c-0.167-0.4-0.325-0.829-0.473-1.237c-0.515-1.424-1.031-3.222-2.874-3.06
				c-0.459,0.04-0.788,0.28-0.94,0.716c-0.331,0.946-0.959,2.092-1.481,2.965c-0.997,1.667-1.189,2.652-2.561,1.281
				C10.18,33.38,11.597,30.384,12.298,28.537z M24.816,30.328c-0.103,0.686-0.197,1.374-0.273,2.063
				c-0.029-0.737-0.059-1.48,0.006-2.203C24.636,30.235,24.727,30.281,24.816,30.328z M100.559,108.37
				c-2.04,1.433-4.401,2.801-6.645,3.937c-3.195,1.617-5.791,1.934-9.203,2.615c-8.182,1.635-16.622,0.218-24.416-2.984
				c0.016-0.039,0.027-0.082,0.015-0.135c-1.155-5.102-2.332-9.999-2.871-15.238c-0.484-4.697-1.336-9.49-1.438-14.204
				c-0.011-0.517-0.814-0.519-0.805,0c0.091,5.164,0.837,10.458,1.403,15.596c0.476,4.323,0.584,10.027,3.127,13.74
				c-2.188-0.927-4.325-1.984-6.385-3.164c-0.196-0.687-0.323-1.729-0.381-1.966c-0.319-1.314-0.44-2.65-0.616-3.988
				c-0.35-2.651-0.686-5.272-0.838-7.942c-0.3-5.272-1.31-10.514-1.493-15.776c-0.019-0.531-0.844-0.534-0.828,0
				c0.159,5.415,1.132,10.8,1.396,16.224c0.213,4.381,0.687,8.76,1.936,12.957c-1.522-0.902-2.999-1.863-4.427-2.875
				c-0.334-5.558-0.615-11.142-1.117-16.693c-0.547-6.052-1.362-12.081-1.956-18.113c-0.052-0.53-0.887-0.537-0.836,0
				c0.583,6.177,1.442,12.351,1.921,18.551c0.269,3.476,0.374,6.954,0.731,10.426c0.171,1.669,0.141,3.415,0.273,5.126
				c-0.819-0.603-1.625-1.218-2.406-1.851c-0.627-0.507-1.228-1.036-1.809-1.582c0.069,0.008,0.139,0.017,0.208,0.025
				c0.224,0.027,0.256-0.324,0.052-0.384c-0.017-0.005-0.731-6.513-0.75-6.697c-0.304-2.878-0.26-5.784-0.262-8.673
				c-0.006-6.314-0.045-12.627-0.067-18.941c-0.002-0.608-0.943-0.609-0.945,0c-0.022,6.48-0.069,12.959-0.068,19.439
				c0.001,2.878-0.041,5.767,0.359,8.624c0.279,1.989,0.489,4.156,0.976,6.11c-1.143-1.117-2.212-2.296-3.233-3.517
				c0.071-0.032,0.125-0.109,0.104-0.201c-0.715-3.275-0.407-6.54-0.701-9.838c-0.262-2.941-0.462-5.777-0.415-8.735
				c0.048-2.958-0.244-5.79-0.492-8.727c-0.271-3.208-0.098-6.44-0.097-9.654c0-0.593-0.915-0.594-0.922,0
				c-0.063,5.87,0.357,11.688,0.387,17.539c-0.578-0.211-1.344-0.033-1.466,0.674c-0.321,1.857-1.615,4.311-0.375,6.029
				c0.166,0.23,0.536,0.353,0.755,0.097c0.544-0.635,0.891-1.452,1.135-2.322c0.128,2.323,0.436,4.616,0.503,6.954
				c0.074,2.587,0.024,5.3,1.165,7.676c-2.231-2.722-4.282-5.606-6.52-8.365c-0.957-1.179-1.762-2.418-2.482-3.691
				c0.017-0.025,0.032-0.052,0.028-0.092c-0.344-3.288-0.158-6.544-0.234-9.857c-0.085-3.757-0.181-7.466,0.3-11.204
				c0.411-3.192,0.678-6.268,0.717-9.486c0.041-3.3,0.815-6.634,0.967-9.953c0.025-0.54-0.801-0.534-0.836,0
				c-0.216,3.325-1.098,6.64-1.147,9.953c-0.052,3.507-0.439,6.853-0.856,10.337c-0.412,3.441-0.278,6.898-0.159,10.352
				c0.103,2.984-0.115,5.946,0.604,8.819c-1.893-3.615-3.267-7.439-5.557-10.924c-2.973-4.525-5.276-10.013-7.086-15.158
				c-1.022-2.904-1.235-6.175-1.824-9.184c-0.561-2.872-1.847-5.928-2.488-8.858c0.144-0.037,0.283-0.068,0.435-0.117
				c0.974-0.313,2.109-1.514,2.665-2.276c0.492-0.675,1.871-4.426,1.93-4.431c-0.002,0,0.999,4.656,1.762,5.411
				c0.07,0.07,0.143,0.12,0.215,0.18c-0.045,0.3-0.091,0.598-0.141,0.894c-0.395,2.366-0.718,4.757-0.861,7.152
				c-0.154,2.598-0.377,5.202-0.48,7.802c-0.082,2.072-0.305,4.283,0.756,6.132c0.096,0.166,0.373,0.056,0.314-0.132
				c-0.671-2.139-0.26-4.716-0.099-6.933c0.156-2.15,0.314-4.283,0.413-6.437c0.107-2.323,0.381-4.627,0.723-6.927
				c0.052-0.349,0.096-0.707,0.14-1.068c0.934,0.378,1.929,0.114,2.88-0.631c0.657-0.514,1.071-1.092,1.333-1.711
				c-0.103,0.944-0.217,1.887-0.376,2.825c-0.455,2.691-0.817,5.295-1.052,8.017c-0.488,5.661-1.864,11.81-0.858,17.475
				c0.041,0.228,0.418,0.227,0.46,0c0.483-2.63,0.341-5.401,0.497-8.07c0.174-2.989,0.582-5.948,0.825-8.929
				c0.458-5.617,1.436-11.22,1.638-16.859c2.293,1.114,5.203,1.917,6.652-0.532c0.655-1.107-0.011-2.347,0.6-3.032
				c-0.007,0.008,1.666-0.441,1.985-0.677c0.023-0.017,0.039-0.041,0.061-0.059c0.119,0.15,0.298,0.255,0.513,0.263
				c0.73,0.028,1.516-0.054,2.228-0.29c5.677,3.564,8.914,11.481,12.894,16.712c5.156,6.778,10.528,14.522,17.378,19.683
				c6.535,4.924,13.885,10.296,21.689,12.963c3.259,1.113,6.592,2.85,9.487,4.781c4.512,3.01,7.516,5.793,9.412,10.748
				C108.086,98.09,107.05,103.813,100.559,108.37z"/>
			<path d="M40.338,83.861c-0.094-0.948-1.383-0.95-1.477,0c-0.051,0.513-0.102,1.026-0.152,1.538
				c-0.058,0.585-0.186,1.106,0.302,1.55c0.344,0.313,0.831,0.315,1.177,0c0.488-0.444,0.36-0.965,0.302-1.55
				C40.439,84.887,40.389,84.374,40.338,83.861z"/>
			<path d="M61.996,98.299c-0.277-0.864-1.695-0.83-1.787,0.044c-0.106,0.327-0.345,0.587-0.51,0.883
				c-0.192,0.346-0.304,0.709-0.367,1.097c-0.131,0.813-0.045,1.798,0.424,2.494c0.314,0.466,0.957,0.717,1.472,0.386
				c0.044-0.029,0.088-0.057,0.132-0.085c0.4-0.258,0.623-0.839,0.333-1.269c0.045,0.066,0.068,0.113,0.084,0.149
				c-0.007-0.038-0.013-0.09-0.01-0.162c0.007-0.177-0.012-0.352-0.018-0.529c-0.011-0.332-0.051-0.717-0.008-1.048
				C61.836,99.524,62.25,99.088,61.996,98.299z"/>
			<path d="M27.685,36.247c-0.535,3.055-0.982,6.124-1.486,9.184c-0.455,2.763-1.216,5.52-1.491,8.304
				c-0.562,5.686-1.377,12.023-0.323,17.685c0.039,0.211,0.392,0.214,0.429,0c0.464-2.637,0.168-5.396,0.235-8.065
				c0.072-2.902,0.362-5.829,0.568-8.725c0.214-2.998,1.004-5.982,1.472-8.953c0.483-3.066,0.91-6.14,1.424-9.201
				C28.605,35.935,27.781,35.701,27.685,36.247z"/>
			<path d="M34.149,81.372c0.016-3.125-0.009-6.25-0.016-9.375c-0.013-6.059,0.522-12.091,0.448-18.137
				c-0.008-0.618-0.963-0.62-0.961,0c0.021,6.214-0.553,12.401-0.552,18.63c0,0.531-0.009,1.072-0.022,1.618
				c-0.39,0.013-0.761,0.265-0.731,0.752c0.009,0.151-0.32,0.464-0.45,0.754c-0.271,0.603-0.268,1.348-0.305,1.997
				c-0.068,1.196-0.486,3.08,0.715,3.806c0.174,0.105,0.397,0.102,0.583,0.018c0.014,2.739,0.224,5.449,0.981,7.935
				c0.048,0.159,0.184,0.255,0.346,0.264c0.138,0.008,0.276,0.015,0.415,0.023c0.353,0.02,0.376-0.475,0.079-0.583
				c-0.234-0.085-0.413-3.149-0.435-3.347C34.085,84.279,34.141,82.827,34.149,81.372z"/>
			<path d="M63.951,103.109c0.047,0.043,0.078,0.098,0.134,0.133l0.583,0.358c0.726,0.446,1.617-0.444,1.17-1.17l-0.358-0.583
				c-0.343-0.558-1.131-0.676-1.601-0.206c-0.061,0.06-0.085,0.137-0.126,0.206c-0.029-0.183-0.056-0.366-0.086-0.548
				c-0.766-4.72-1.242-9.463-2.638-14.055c-0.166-0.547-1.015-0.318-0.859,0.237c1.347,4.771,1.722,9.697,2.48,14.577
				c0.573,3.69,0.879,7.443,3.306,10.448c0.109,0.135,0.358,0.025,0.347-0.144c-0.12-1.709-1.193-3.229-1.574-4.911
				C64.404,106.02,64.175,104.563,63.951,103.109z"/>
			<path d="M69.871,103.408c-0.873-4.007-1.226-8.108-1.895-12.151c-0.082-0.497-0.829-0.283-0.753,0.208
				c0.791,5.155,1.232,10.287,2.541,15.349c0.502,1.943,0.9,4.986,3.336,5.282c0.245,0.03,0.298-0.324,0.118-0.437
				C70.909,110.214,70.404,105.853,69.871,103.408z"/>
			<path d="M77.241,107.711c-0.687-2.022-1.37-4.041-1.932-6.102c-1.113-4.084-1.622-8.304-2.739-12.378
				c-0.166-0.606-1.101-0.35-0.942,0.26c1.315,5.02,1.849,10.182,3.396,15.162c0.686,2.208,1.404,4.453,2.318,6.58
				c0.496,1.155,0.905,2.119,2.187,2.381c0.303,0.062,0.435-0.302,0.202-0.478C78.216,111.987,77.83,109.444,77.241,107.711z"/>
			<path d="M83.43,111.314c-0.046,0.336-1.146-2.227-1.292-2.678c-0.342-1.054-0.795-2.078-1.093-3.142
				c-0.443-1.583-0.539-3.251-0.917-4.851c-0.431-1.826-1.058-3.606-1.602-5.399c-0.164-0.542-1.011-0.313-0.851,0.235
				c1.182,4.067,1.721,8.349,3.133,12.311c0.504,1.414,0.888,4.396,2.587,4.918c0.254,0.078,0.502-0.133,0.507-0.386
				c0.01-0.591,0.03-0.432-0.131-1.007C83.726,111.16,83.455,111.134,83.43,111.314z"/>
			<path d="M88.439,109.201c0.08-0.089-1.303-4.187-1.461-4.678c-0.764-2.383-1.637-4.646-1.871-7.161
				c-0.06-0.644-1.072-0.653-1.016,0c0.264,3.049,1.477,5.748,2.229,8.679c0.37,1.441,0.489,3.416,2.084,4.013
				c0.296,0.111,0.507-0.21,0.463-0.463l-0.049-0.289C88.79,109.134,88.547,109.082,88.439,109.201z"/>
			<path d="M90.135,96.861c0.329,3.5,0.526,6.997,0.801,10.5c0.017,0.21,0.313,0.211,0.328,0c0.254-3.462,0.126-7.046-0.199-10.5
				C91.009,96.27,90.079,96.265,90.135,96.861z"/>
			<path d="M95.975,101.361c-0.183,1.917-0.293,4.081-0.129,6c0.028,0.326,0.48,0.327,0.508,0c0.164-1.918,0.055-4.082-0.129-6
				C96.209,101.2,95.99,101.2,95.975,101.361z"/>
			<path d="M17.03,21.613c0.093,0.023,0.184,0.041,0.276,0.06c0.026,0.082,0.052,0.164,0.078,0.247
				c0.089,0.279,0.473,0.16,0.429-0.118c-0.021-0.138-0.043-0.275-0.064-0.413c-0.014-0.087-0.1-0.153-0.178-0.178
				c-0.134-0.043-0.266-0.072-0.403-0.102C16.842,21.036,16.702,21.531,17.03,21.613z"/>
		</g>
	</g>
</g>
<g>
</g>
<g>
</g>
<g>
</g>
<g>
</g>
<g>
</g>
<g>
</g>
<g>
</g>
<g>
</g>
<g>
</g>
<g>
</g>
<g>
</g>
<g>
</g>
<g>
</g>
<g>
</g>
<g>
</g>
</svg>
