<?xml version="1.0" encoding="iso-8859-1"?>
<!-- Generator: Adobe Illustrator 19.0.0, SVG Export Plug-In . SVG Version: 6.00 Build 0)  -->
<svg version="1.1" id="Layer_1" xmlns="http://www.w3.org/2000/svg" xmlns:xlink="http://www.w3.org/1999/xlink" x="0px" y="0px"
	 viewBox="0 0 121.859 121.859" style="enable-background:new 0 0 121.859 121.859;" xml:space="preserve">
<g>
	<g>
		<g>
			<path d="M120.044,62.421c1.36-2.761,1.739-6.473,1.617-9.262c-0.116-2.658-2.11-3.823-1.328-6.669
				c0.459-1.671,1.587-2.818,1.451-4.706c-0.11-1.524-0.942-2.781-1.901-3.911c-1.948-2.297-2.919-2.916-2.657-6.303
				c0.31-4.002,0.791-6.96-3.18-9.043c-0.729-0.383-2.103-0.569-2.64-1.143c-2.065-2.209-0.228-2.013-0.603-3.756
				c-0.31-1.443-0.655-2.289-1.834-3.232c-1.59-1.271-3.687-2.557-5.42-3.655c-1.383-0.876-2.354-1.32-3.982-1.28
				c-1.483,0.036-2.792,0.687-4.072,1.28c-1.939,0.899-4.032,0.842-5.852,1.953c-3.105,1.895-4.522,5.484-4.589,8.971
				c-2.049,0.56-3.364,1.65-4.613,3.673c-0.787,1.274-1.09,2.453-1.617,3.782c-0.512,1.291-0.458,1.942-1.983,2.805
				c-0.597,0.337-1.357,0.348-1.984,0.709c-2.143,1.232-3.577,3.658-4.221,5.965c-0.535,1.918-0.324,3.228,0.085,4.546
				c-0.599-0.38-1.248-0.684-1.907-0.81c-0.382-0.073-0.95,0.019-1.5,0.096c-0.027-1.029-0.552-1.844-0.916-3.516
				c-0.803-3.682,2.148-7.113,1.801-10.873c-0.188-2.041-1.355-3.361-2.854-4.602c-1.146-0.949-3.288-1.527-4.218-2.59
				c-1.029-1.176-0.741-3.098-1.287-4.513c-1.101-2.854-3.239-4.418-5.995-5.484c-2.435-0.942-3.325-0.502-5.687-0.468
				c-3.195,0.047-4.687-2.956-8.017-2.471c-1.899,0.276-3.756,1.368-4.963,2.872c-2.158-0.59-3.574-1.533-5.937-1.109
				c-2.516,0.452-5.284,1.706-7.279,3.316c-2,1.614-3.318,3.742-3.824,6.244c-0.545,2.692,0.437,3.103-1.722,4.864
				c-1.936,1.58-2.99,2.902-3.612,5.327c-0.293,1.142-0.234,2.587-0.45,3.72c-0.645,3.378-1.677,2.689-3.43,4.777
				c-1.483,1.766-1.704,3.8-1.86,6.012c-0.122,0.883-0.163,1.771-0.123,2.664c-0.437,0.159-0.839,0.386-1.207,0.679
				c-0.708,0.888-1.77,1.608-2.553,2.455c-3.44,3.717-4.221,8.603-1.699,13.222c0.197,0.361,0.405,0.673,0.615,0.961
				c-0.115,0.506-0.174,1.03-0.12,1.59c0.032,0.33,0.485,0.332,0.516,0c0.029-0.309,0.09-0.603,0.158-0.894
				c1.716,1.934,3.397,2.314,2.405,5.924c-0.628,2.285-1.805,3.889-1.594,6.378c0.584,6.884,6.058,8.43,11.61,10.379
				c3.019,1.06,5,0.952,8.032-0.334c1.761-0.747,4.13-3.083,6.03-4.026c1.192,1.212,2.616,1.757,4.112,1.832
				c0.39,2.064,1.901,4.248,2.408,6.26c0.52,2.066,0.656,4.145,0.84,6.258c0.268,3.083,0.157,6.348-0.745,9.346
				c-0.615,2.045-1.988,3.651-1.977,5.827c0.005,0.913,0.976,1.813,1.919,1.462c4.964-1.848,10.316,0.175,15.381-0.226
				c3.03-0.24,9.359-2.611,10.96-5.47c2.066-3.689-1.442-9.396-3.224-12.456c-1.51-2.594-2.61-6.536-3.284-9.476
				c-0.515-2.248,0.042-4.367-0.189-6.658c0.083-0.054,0.169-0.106,0.251-0.16c4.168,1.177,10.698-1.138,13.909-2.714
				c2.222-1.091,4.104-3.181,5.926-4.817c0.454-0.408,0.883-0.877,1.273-1.387c0.09,0.9,0.195,1.846,0.372,2.202
				c0.605,1.211,1.274,1.822,2.538,2.213c0.468,0.145,0.978,0.199,1.495,0.217c0.465,1.605,1.191,3.21,1.747,4.652
				c2.632,6.83,1.307,12.365-1.905,18.671c-0.938,1.842-2.99,4.562-1.729,6.692c1.532,2.588,6.708,2.995,9.284,3.321
				c3.272,0.414,7.744,0.347,10.376-2.06c1.985-1.816,2.575-5.478,2.919-8.027c0.528-3.911,0.576-7.776,1.369-11.788
				c0.501-2.535,0.616-5.477,1.922-7.75c0.614-1.069,1.1-1.528,1.423-2.137c0.852,0.02,1.787-0.172,2.375,0.08
				c-0.224,0.038,1.279,1.946,1.973,2.229c7.374,3.008,10.133-10.381,10.968-14.627C122.073,63.146,121.025,62.341,120.044,62.421z
				 M82.175,29.455c0.912-0.35,1.75-0.914,2.583-1.439c1.307-0.824,2.649-1.549,4.006-2.252c-0.22,0.903-0.152,2-0.006,2.74
				c0.01,0.05,0.027,0.1,0.039,0.15c-0.897,0.434-1.793,0.872-2.685,1.32c-1.665,0.837-3.414,1.656-5.047,2.593
				C81.582,31.623,81.879,30.532,82.175,29.455z M87.849,31.622c0.484-0.449,0.184-1.187-0.309-1.425
				c0.214-0.097,0.436-0.195,0.641-0.29c0.3-0.138,0.595-0.282,0.893-0.422c0.424,0.945,1.161,1.794,2.05,2.427
				c-1.366,0.743-2.727,1.497-4.089,2.249C86.733,33.379,86.857,32.541,87.849,31.622z M89.633,38.468
				c-1.853,1.295-3.706,2.604-5.462,4.015c-0.439,0.353-0.886,0.686-1.328,1.03c-0.012-0.906,0.122-1.826,0.214-2.352
				c0.286-1.643,1.57-3.891,3.179-3.742c0.169,0.016,0.273-0.076,0.332-0.195C87.41,38.028,88.487,38.563,89.633,38.468z
				 M78.152,35.022c-0.028,0.076-0.045,0.159-0.064,0.24c-0.038-0.055-0.089-0.098-0.148-0.132
				C78.01,35.094,78.081,35.058,78.152,35.022z M77.855,35.942c0.162-0.04,0.252-0.14,0.292-0.257
				c0.069,0.045,0.158,0.049,0.232-0.033c1.886-2.099,4.976-3.572,7.756-4.822c-1.185,1.169-1.639,2.689-0.961,4.354
				c-1.494,0.812-2.997,1.607-4.523,2.359c-2.087,1.028-4.12,2.117-6.032,3.426c-0.041-0.186-0.07-0.374-0.07-0.566
				C74.547,38.447,75.947,36.41,77.855,35.942z M80.721,42.046c-0.038,0.342-0.057,0.722-0.054,1.114
				c-0.039,0.005-0.078,0.01-0.118,0.029c-0.883,0.406-1.737,0.819-2.47,1.332c-0.003-0.146-0.089-0.294-0.249-0.35
				c-1.09-0.384-2.292-1.266-2.892-2.372c0.62-0.412,1.243-0.789,1.797-1.13c1.757-1.083,3.628-1.965,5.475-2.885
				c-0.123,0.153-0.257,0.302-0.361,0.461C81.118,39.354,80.867,40.745,80.721,42.046z M80.893,45.015
				c-0.935,0.7-1.876,1.391-2.83,2.079c-0.258,0.186-0.527,0.384-0.784,0.597c0.026-0.232,0.066-0.466,0.129-0.7
				c0.428-1.587,1.949-2.337,3.298-3.047C80.741,44.31,80.802,44.671,80.893,45.015z M73.278,40.991
				c0.03,0.26,0.093,0.525,0.186,0.791c-0.074,0.056-0.151,0.115-0.226,0.174C73.228,41.638,73.244,41.316,73.278,40.991z
				 M11.839,41.034c0.975-1.536,2.233-2.415,3.1-3.851c0.12,0.188,0.438,0.227,0.594,0c0.974-1.42,2.129-2.382,3.382-3.312
				c0.022,0.195,0.05,0.383,0.092,0.553c0.107,0.438,0.268,0.87,0.475,1.278c-0.194,0.051-0.38,0.154-0.524,0.352
				c-0.967,1.325-1.489,3.141-1.35,4.841c-0.557,0.715-0.892,1.443-1.403,2.24c-0.336,0.523-0.741,0.805-1.016,1.236
				c-0.301-0.202-0.611-0.396-0.844-0.646c-0.862-0.927-0.751-2.117,0.107-3c0.232-0.239-0.079-0.687-0.369-0.479
				c-0.736,0.528-1.24,1.263-1.411,2.096c-0.01,0.004-0.02-0.001-0.03,0.006c-0.708,0.49-1.521,1.033-2.131,1.712
				C10.784,43.06,11.177,42.076,11.839,41.034z M24.308,32.978c0.287,0.34,0.678,0.62,1.123,0.833
				c-0.095,0.123-0.195,0.244-0.281,0.376c-0.493,0.397-0.997,0.786-1.483,1.192c-0.257,0.215-0.519,0.429-0.779,0.643
				c-0.236-0.023-0.466-0.064-0.679-0.151c-0.893-0.367-1.451-1.439-1.574-2.367c-0.029-0.216-0.035-0.527-0.019-0.88
				c0.093-0.069,0.202-0.134,0.295-0.205c0.813-0.614,1.325-1.295,2.325-1.978c0,0.002,0,0.003,0,0.005
				C23.236,31.31,23.746,32.313,24.308,32.978z M23.817,42.238c0.283,0.488,0.648,0.894,1.094,1.182
				c-0.573,0.609-1.102,1.234-1.611,1.87c-0.232-0.556-0.672-1.004-1.16-1.426C22.825,43.177,23.466,42.587,23.817,42.238z
				 M21.496,43.315c-0.292-0.252-0.571-0.511-0.796-0.796c-0.1-0.127-0.18-0.266-0.264-0.402c0.88-0.895,1.78-1.769,2.691-2.633
				c0.006,0.305,0.03,0.612,0.07,0.917c0.04,0.313,0.113,0.612,0.204,0.903C22.747,41.957,22.108,42.623,21.496,43.315z
				 M24.297,38.907c0.009-0.176,0.042-0.385,0.091-0.61c0.199-0.181,0.386-0.373,0.586-0.552c0.242-0.216,0.037-0.534-0.217-0.561
				c0.132-0.134,0.256-0.282,0.364-0.452c0.113-0.178,0.068-0.35-0.043-0.479c0.213-0.492,0.453-0.97,0.697-1.389
				c0.285-0.235,0.572-0.467,0.858-0.7c0.79,0.096,1.586-0.061,2.151-0.61c0.294-0.286,0.3-0.808,0-1.094
				c-0.008-0.008-0.018-0.012-0.027-0.02c0.552-0.442,1.105-0.883,1.658-1.324c0.171,0.126,0.351,0.246,0.556,0.346
				c0.312,0.152,0.667,0.027,0.775-0.315c0.116-0.368,0.037-0.699-0.094-1.023c0.089-0.071,0.176-0.144,0.265-0.215
				c0.048,0.167,0.096,0.333,0.175,0.506c0.399,0.882,0.909,1.48,1.518,1.913c-3.047,2.685-6.271,5.21-9.207,8
				C24.312,39.9,24.271,39.432,24.297,38.907z M31.755,29.014c-0.149,0.115-0.296,0.232-0.445,0.347
				c-0.051-0.125-0.097-0.252-0.125-0.383c-0.16-0.752-0.357-1.499-0.403-2.269c0.526-0.165,0.969-0.483,1.254-1.024
				c0.152-0.289-0.17-0.679-0.476-0.476c-0.4,0.266-0.868,0.387-1.36,0.423c-0.244-0.115-0.524-0.14-0.784-0.069
				c0.558-0.414,1.115-0.828,1.675-1.238c0.378,0.517,0.946,0.872,1.596,1.086C32.307,26.688,31.708,27.777,31.755,29.014z
				 M30.723,23.527c-0.87,0.6-1.729,1.211-2.584,1.831c-0.615-0.183-1.201-0.424-1.683-0.659c-0.644-0.313-1.268-0.715-1.5-1.306
				c0.995-0.652,1.997-1.291,2.893-2.08c0.77-0.678,1.427-1.496,2.323-2.025c0.658-0.389,1.46-0.624,2.174-0.954
				C31.282,19.44,30.334,22.016,30.723,23.527z M28.712,26.742c0.028,1.368,0.255,2.784,1.084,3.794
				c-0.638,0.49-1.274,0.982-1.909,1.474c-0.688-0.158-1.448-0.074-2.074-0.466c-1.002-0.629-1.158-1.492-1.1-2.442
				c0.359-0.303,0.723-0.603,1.107-0.883c0.743-0.541,1.48-1.089,2.217-1.637C28.261,26.645,28.486,26.7,28.712,26.742z
				 M21.119,37.498c-0.422,0.357-0.835,0.724-1.245,1.095c0.116-0.553,0.311-1.086,0.603-1.558
				C20.672,37.212,20.89,37.363,21.119,37.498z M22.141,37.897c0.395,0.082,0.791,0.088,1.17,0.025
				c-0.045,0.178-0.089,0.356-0.115,0.538c-1.056,0.974-2.086,1.972-3.096,2.99c-0.176-0.443-0.281-0.91-0.319-1.387
				C20.541,39.316,21.329,38.595,22.141,37.897z M19.877,45.288c-0.468,0.611-0.924,1.235-1.349,1.886
				c-0.086,0.132-0.085,0.333,0,0.465l0.366,0.57c0.228,0.355,0.894,0.132,0.721-0.304c-0.206-0.518,0.186-1.296,0.809-2.121
				c0.568,0.469,1.174,0.813,1.762,0.925c-0.62,0.802-1.249,1.613-1.945,2.422c-0.857,0.995-1.697,2.009-2.513,3.04
				c-0.282-1.095-0.38-3.008,0.579-3.403c0.268-0.11,0.253-0.52-0.072-0.529c-1.884-0.053-2.27,2.617-2.166,4.277
				c-1.299-0.084-2.741-1.058-3.64-1.822c2.084-2.284,4.155-4.578,6.284-6.816C19.042,44.361,19.44,44.851,19.877,45.288z
				 M19.313,61.586c-0.544,0.557-1.037,1.239-1.421,1.977c-0.173-0.143-0.37-0.274-0.568-0.412c0.393-0.705,0.782-1.402,1.148-2.078
				c0.869-1.602,1.904-3.102,2.869-4.639c0.741,0.491,1.679,0.77,2.597,0.796c-1.469,3.246-3.163,6.387-4.637,9.628
				c-0.772-1.382,0.09-3.429,0.951-4.548C20.671,61.766,19.777,61.11,19.313,61.586z M16.735,66.215
				c-0.442-0.017-0.86,0.107-1.254,0.317c0.26-0.497,0.523-0.987,0.79-1.474c0.331,0.103,0.651,0.229,0.928,0.476
				c-0.247,1.355,0.002,2.715,1.083,3.75c-0.634,1.707-1.117,3.478-1.734,5.188c-0.246,0.682-0.496,1.342-0.701,2.003
				c-0.696-0.664-1.254-1.474-1.568-2.576c-0.494-1.736,0.563-6.315,2.534-7.108C17.109,66.672,17.085,66.229,16.735,66.215z
				 M17.158,61.773c-0.151,0.287-0.301,0.576-0.451,0.864c-0.111-0.118-0.217-0.247-0.309-0.402
				c-0.45-0.759-0.622-1.712-0.685-2.574c-0.098-1.337,0.378-1.933,1.263-2.912c0.274-0.302-0.066-0.68-0.412-0.534
				c-0.354,0.15-0.709,0.274-1.047,0.413c0.182-0.263,0.362-0.523,0.538-0.781c0.27-0.396,0.553-0.782,0.834-1.17
				c0.889,1.039,2.381,1.591,3.726,1.388C19.436,57.95,18.202,59.791,17.158,61.773z M10.951,46.096
				c0.269-1.021,0.814-2.036,1.487-2.969c0.023-0.032,0.014-0.06,0.019-0.091c0.05-0.05,0.103-0.098,0.153-0.147
				c-0.006,0.258,0.01,0.52,0.071,0.789c0.3,1.324,1.699,2.62,3.138,2.253c-1.313,1.414-2.617,2.836-3.934,4.249
				c-0.394-0.427-0.675-0.877-0.855-1.343c0.004,0.002,0.007,0.005,0.011,0.006c0.288,0.139,0.671-0.092,0.568-0.437
				C11.369,47.605,10.984,46.891,10.951,46.096z M15.786,44.841c0.768-0.838,1.413-1.736,2.086-2.625
				c0.026,0.078,0.041,0.161,0.07,0.238c0.091,0.246,0.226,0.521,0.389,0.809c-0.734,0.767-1.462,1.541-2.186,2.319
				c0.014-0.096,0.008-0.197-0.035-0.292C16.033,45.118,15.918,44.973,15.786,44.841z M3.591,56.795
				c0.245-2.247,2.528-6.441,4.989-7.283c0.16-0.055,0.318-0.14,0.469-0.238c0.052,0.883,0.399,1.793,1.113,2.737
				c-0.065,0.068-0.129,0.138-0.194,0.206C7.93,54.35,6.64,56.479,4.999,58.898c-0.25,0.369-0.518,0.736-0.786,1.103
				C3.724,59.056,3.459,58.006,3.591,56.795z M4.626,60.711c0.637-0.898,1.31-1.782,1.866-2.728c1.18-2.01,2.635-3.69,4.167-5.363
				c1.183,1.23,3.321,2.463,5.058,2.227c-0.221,0.308-0.446,0.613-0.661,0.925c-1.461,2.121-2.86,4.306-4.206,6.509
				c-0.294-1.022-0.843-1.789-0.925-2.885c-0.105-1.406-0.414-2.801,0.327-4.085c0.321-0.555-0.3-1.053-0.818-0.818
				c-1.932,0.876-1.888,3.031-1.872,4.902c0.015,1.711,0.784,3.232,2.5,3.747c0.084,0.025,0.165,0.026,0.245,0.017
				c-0.076,0.126-0.158,0.251-0.234,0.377c-0.347,0.581-0.712,1.176-1.058,1.785c-0.187-0.23-0.403-0.462-0.65-0.698
				C7.116,63.428,5.615,62.201,4.626,60.711z M35.314,84.588c2.491-0.525,4.986-2.09,6.802-3.937
				c0.167,0.174,0.341,0.331,0.521,0.478c-1.024,1.023-2.244,1.92-3.114,3.027c-0.835,1.062-1.658,2.208-2.338,3.42
				C36.676,86.536,36.069,85.537,35.314,84.588z M43.309,81.601c0.936,0.568,1.997,0.854,3.121,0.915
				c-1.134,1.028-2.244,2.084-3.346,3.15c-1.616,1.562-3.369,2.986-4.816,4.677c-0.17-0.562-0.357-1.115-0.575-1.654
				c1.119-1.914,2.207-3.849,3.832-5.405C42.134,82.701,42.753,82.168,43.309,81.601z M58.54,104.156
				c1.148,8.989-13.566,6.661-21.075,6.677c0.78-2.043,1.606-3.92,1.925-6.272c0.294-2.175,0.28-4.091,0.144-6.127
				c0.721-1.074,1.607-2.061,2.368-3.081c1.516-2.031,3.129-3.985,4.718-5.959c0.434-0.539-0.328-1.312-0.768-0.768
				c-1.223,1.512-2.434,3.028-3.616,4.567c0.042-0.239-0.012-0.413,0.148-0.763c0.126-0.274,0.355-0.523,0.503-0.789
				c0.537-0.957,1.13-2.003,1.035-3.132c-0.014-0.17-0.258-0.274-0.349-0.095c-0.475,0.931-0.988,1.84-1.565,2.713
				c-0.243,0.368-0.612,0.744-0.781,1.159c-0.122,0.301-0.036,0.773-0.259,1.008c-0.154,0.162-0.189,0.407-0.078,0.603
				c0.119,0.208,0.259,0.37,0.407,0.531c-0.184,0.249-0.38,0.488-0.561,0.74c-0.421,0.587-0.884,1.154-1.326,1.734
				c-0.012-0.139-0.02-0.27-0.033-0.411c-0.162-1.787-0.415-3.483-0.819-5.095c0.819-0.92,1.889-1.825,2.305-2.221
				c1.081-1.031,2.208-2.01,3.267-3.064c1.243-1.236,2.514-2.459,3.822-3.639c1.261-0.132,2.559-0.486,3.813-0.984
				c-0.216,0.995-0.421,1.99-0.368,2.989c0.124,2.357,1.214,4.519,1.906,6.717c0.556,1.766,0.755,3.609,1.598,5.285
				C56.178,99.015,58.164,101.207,58.54,104.156z M74.864,59.235c0.526-0.358,0.98-0.789,1.398-1.258
				c-0.456,1.486-2.095,2.672-2.316,4.269c-0.359,2.593,1.419,4.56-1.422,7.121c-1.164,1.049-2.855,2.833-4.095,3.715
				c-1.645,1.171-4.302,1.274-6.194,1.763c-2.556,0.661-4.868,0.932-7.499,1.175c-0.458,0.042-0.899,0.337-1.192,0.724
				c-3.203,1.375-8.124,3.605-9.728-0.014c-0.566-1.276-2.456-1.049-3.085,0c-1.332,2.217-7.165,7.5-9.737,3.529
				c-0.406-0.627-1.071-0.877-1.791-0.729c-1.268,0.261-1.977,0.912-2.978,1.661c-3.381,2.529-6.469,3.601-10.776,2.39
				c-2.622-0.737-6.136-1.928-7.409-4.413c-1.583-3.092-0.116-5.698,1.183-8.53c0.841-1.836,1.058-3.207,0.297-4.575
				c1.083-2.254,2.516-4.442,3.958-6.521c-0.046,0.545-0.032,1.098,0,1.578c0.073,1.07,0.389,2.228,1.083,3.066
				c0.294,0.355,0.644,0.531,1.009,0.657c-0.473,0.932-0.938,1.868-1.386,2.811c-0.866,1.07-1.495,2.561-1.786,3.885
				c-0.619,1.386-1.157,2.855-1.051,4.281c0.024,0.322,0.359,0.44,0.6,0.249c0.157-0.125,0.315-0.25,0.472-0.375
				c0.201-0.159-0.017-0.533-0.255-0.438c-0.006,0.003-0.013,0.005-0.019,0.008c0.061-0.347,0.158-0.695,0.24-1.042
				c0.42,1.664,1.543,3.461,3.018,4.501c-0.025,0.442-0.013,0.893,0.059,1.36c0.044,0.284,0.476,0.251,0.542,0
				c0.076-0.288,0.154-0.578,0.231-0.868c0.953,0.439,2.007,0.545,3.088,0.12c0.248-0.098,0.366-0.476,0.081-0.621
				c-0.928-0.473-1.829-0.931-2.626-1.484c0.691-2.468,1.46-4.939,2.398-7.325c1.626,0.695,5.395,0.592,4.214-1.782
				c-0.238-0.479-0.844-0.44-1.196-0.154c0.427-0.346,0.094-0.079-0.173-0.113c-0.256-0.032-0.556,0.025-0.814,0.022
				c-0.411-0.005-0.758-0.038-1.087-0.205c0.213-0.468,0.429-0.934,0.658-1.392c1.486-2.965,2.925-6.029,4.187-9.13
				c0.488-0.104,0.941-0.297,1.315-0.597c0.432-0.346,0.194-0.947-0.156-1.215c-0.118-0.09-0.244-0.162-0.374-0.219
				c0.127-0.335,0.265-0.667,0.387-1.002c0.185-0.508-0.619-0.72-0.806-0.222c-0.13,0.346-0.273,0.686-0.411,1.028
				c-0.725-0.071-1.511,0.02-2.183-0.227c0.065-0.196,0.03-0.393-0.08-0.54c0.457-0.903,0.85-1.837,1.413-2.683
				c0.76-1.142,1.739-2.124,2.505-3.267c0.284-0.423-0.399-0.817-0.681-0.398c-0.771,1.144-1.749,2.118-2.514,3.261
				c-0.602,0.899-1.015,1.899-1.507,2.857c-0.035,0-0.068-0.002-0.103-0.002c-0.457-0.662-0.653-1.595-0.242-2.246
				c0.197-0.312-0.179-0.596-0.465-0.465c-1.033,0.475-1.369,1.624-1.244,2.719c-0.683-0.064-1.3-0.282-1.716-0.885
				c1.058-1.372,2.154-2.714,3.256-4.056c1.453-1.77,2.667-3.581,4.164-5.276c0.526,0.182,1.12,0.234,1.789,0.074
				c0.294-0.07,0.263-0.48,0-0.565c-0.358-0.116-0.672-0.257-0.966-0.411c0.033-0.033,0.06-0.069,0.093-0.102
				c0.265-0.265-0.135-0.659-0.409-0.409c-0.071,0.065-0.135,0.132-0.205,0.198c-0.456-0.322-0.807-0.716-1.059-1.181
				c1.141-1.106,2.314-2.178,3.514-3.219c0.535-0.464,1.074-0.924,1.612-1.384c-1.628,2.244-3.413,5.228-0.72,7.247
				c0.025,0.019,0.055,0.038,0.082,0.057c-0.782,1.008-1.401,2.054-1.359,2.9c0.013,0.273,0.236,0.415,0.491,0.374
				c0.137-0.022,0.273-0.043,0.41-0.065c0.205-0.032,0.211-0.327,0.055-0.421c-0.071-0.043,0.536-0.889,1.511-2.159
				c1.496,0.669,3.391,0.867,3.603-1.142c0.024-0.226-0.332-0.316-0.429-0.116c-0.417,0.857-1.476,0.698-2.42,0.287
				c0.699-0.894,1.509-1.914,2.363-2.976c0.002,0.981,0.418,2.01,1.064,2.638c-0.453,0.934-0.777,1.917-0.835,2.99
				c-0.022,0.398,0.551,0.654,0.818,0.339c0.281-0.341,0.571-0.675,0.869-1.001c0.177-0.199-0.042-0.462-0.275-0.356
				c-0.083,0.033-0.155,0.086-0.236,0.122c0.158-0.547,0.366-1.069,0.608-1.575c1.378,0.297,3.451-0.4,3.04-1.933
				c-0.075-0.282-0.534-0.306-0.595,0c-0.13,0.652-1.097,0.931-1.871,0.859c0.606-1.039,1.319-2.029,2.007-3.037
				c1.545-2.261,2.711-4.834,4.462-6.938c0.347-0.417-0.242-1.02-0.602-0.602c-1.931,2.24-3.268,4.964-4.978,7.379
				c-0.631,0.892-1.294,1.794-1.861,2.741c-0.677-0.759-1.116-2.386-0.145-2.951c0.259-0.151,0.244-0.434,0.104-0.619
				c2.652-3.258,5.29-6.397,5.938-6.992c0.346-0.317-0.168-0.826-0.514-0.514c-1.501,1.354-2.669,3.081-4.046,4.567
				c-1.555,1.679-3.054,3.44-4.526,5.191c-0.423,0.503-1.151,1.244-1.872,2.069c-0.133-0.092-0.253-0.181-0.35-0.263
				c-1.966-1.648,0.199-4.994,1.273-6.677c0.078-0.123,0.04-0.233-0.041-0.302c1.174-1.005,2.337-2.021,3.483-3.056
				c0.653,0.289,1.395,0.464,2.234,0.593c0.349,0.054,0.663-0.344,0.369-0.633c-0.464-0.455-0.989-0.713-1.511-0.955
				c0.692-0.647,1.375-1.303,2.039-1.981c0.377-0.385-0.212-0.974-0.591-0.591c-0.735,0.742-1.495,1.462-2.27,2.167
				c-0.514-0.284-0.991-0.65-1.359-1.301c-0.195-0.344-0.302-0.678-0.363-1.008c1.536-1.247,3.06-2.506,4.531-3.82
				c0.332-0.296-0.154-0.775-0.486-0.486c-0.138,0.12-0.283,0.231-0.421,0.349c0.057-0.182-0.007-0.394-0.235-0.472
				c-1.159-0.395-3.411,0.084-4.273-1.018c1.586-1.146,3.189-2.268,4.851-3.31c0.387-0.242,0.033-0.855-0.359-0.614
				c-1.62,0.997-3.222,2.052-4.813,3.13c-0.153-1.23,0.556-3.286,1.282-4.033c0.267-0.274,0.044-0.639-0.244-0.687
				c1.781-0.978,3.357-2.32,5.06-3.421c0.227-0.147,0.02-0.508-0.213-0.364c-2.227,1.375-4.207,2.922-6.639,3.929
				c-1.972,0.816-3.107,2.295-4.852,3.501c-0.381,0.263-0.8,0.534-1.237,0.812c0.016-0.077,0.023-0.151,0.051-0.233
				c0.352-1.046,1.241-1.856,2.078-2.53c0.366-0.294-0.127-0.943-0.506-0.656c-1.352,1.021-2.74,2.605-2.683,4.096
				c-2.172,1.392-4.509,3.033-5.319,5.231c-0.044,0.12,0.009,0.268,0.094,0.356c0.47,0.481,0.431,0.465,1.119,0.456
				c0.302-0.004,0.39-0.483,0.074-0.545c-1.041-0.204,2.667-3.534,2.944-3.768c0.405-0.342,0.829-0.656,1.263-0.957
				c0.208,0.486,0.601,0.95,1.261,1.363c0.42,0.263,1.012,0.568,1.675,0.834c-0.72,0.533-1.426,1.076-2.133,1.619
				c-0.112-0.509-1.023-0.567-1.16,0.017c-0.085,0.363-0.196,0.73-0.292,1.099c-0.859,0.68-1.691,1.369-2.529,2.049
				c0.202-0.863,0.545-1.642,1.072-1.857c0.759-0.309,0.481-1.518-0.349-1.266c-1.623,0.493-2.491,2.703-2.656,4.629
				c-0.231,0.173-0.457,0.349-0.694,0.518c-1.006,0.717-2.056,1.581-2.733,2.645c0.189-1.16,0.105-2.496,0.304-3.466
				c0.392-1.911,0.973-3.841,2.325-5.264c0.541-0.569,1.337-0.828,1.857-1.392c1.221-1.326,1.152-2.424,1.017-3.736
				c1.813-1.437,3.73-2.817,5.609-4.103c1.897-1.299,4.032-2.039,5.812-3.531c0.232-0.194-0.101-0.521-0.331-0.332
				c-2.139,1.76-4.77,2.642-6.979,4.324c-1.361,1.036-2.822,1.996-4.167,3.077c-0.047-0.499-0.081-1.034-0.042-1.627
				c0.451-6.956,8.18-7.932,13.637-7.491c0.12,0.538,0.832,0.944,1.247,0.413c3.415-4.356,8.02,0.102,12.155,0.419
				c1.709,0.131,3.711-0.378,5.333,0.463c2.105,1.091,3.48,3.706,3.779,5.953c0.153,1.147-0.058,1.983,0.598,3.02
				c0.637,1.006,1.722,1.433,2.698,2.05c3.196,2.023,4.064,4.219,3.06,8.053c-0.417,1.593-1.405,3.547-1.426,5.19
				c-0.022,1.739,2.089,3.783,1.262,5.398c-0.489,0.954-0.225,2.042,0.69,2.63c1.763,1.133,2.243,0.174,4.148,0.574
				c2.892,0.608,2.15,4.332,3.631,6.263c0.959,1.251,2.86,1.402,3.773,2.514c0.44,0.536,0.687,1.02,0.814,1.472
				c-0.539,0.753-1.087,1.52-1.727,2.29C74.379,59.038,74.604,59.412,74.864,59.235z M32.911,28.111
				c0.079-0.825,0.39-1.639,0.614-2.503c0.946,0.142,1.938,0.048,2.694-0.201C35.135,26.328,34.032,27.229,32.911,28.111z
				 M83.905,74.833c0.706-0.219,1.309-0.692,1.998-0.889c0.284-0.194,0.564-0.393,0.841-0.597c0.399-0.393,0.46-0.296,0.184,0.292
				c0.468,0.084,0.859,0.46,1.307,0.818c-0.462,0.465-0.926,0.926-1.411,1.363c-0.642,0.58-1.467,1.232-1.393,2.188
				c0.027,0.348,0.478,0.407,0.599,0.081c0.353-0.953,1.175-1.492,1.876-2.178c0.338-0.33,0.669-0.668,1.003-1.002
				c0.246,0.128,0.518,0.222,0.83,0.249c0.42,0.035,0.844-0.003,1.264-0.088c-0.076,0.58-0.166,1.209-0.236,1.765
				c-1.556,1.57-2.878,3.302-4.26,5.023c0,0,0,0-0.001,0.001C85.977,79.517,85.126,76.914,83.905,74.833z M100.758,82.405
				c-1.199,4.151-2.25,8.738-2.566,13.056c-0.164,2.239,0.162,4.561-0.72,6.793c-1.6,4.053-9.798,4.151-13.106,2.266
				c-3.966-2.26,0.688-7.012,1.771-10.032c1.102-3.075,1.283-6.414,0.896-9.649c-0.064-0.534-0.16-1.125-0.273-1.738
				c0.375-0.442,0.755-0.878,1.096-1.323c0.904-1.183,1.812-2.361,2.801-3.472c0.16,0.938,0.619,1.947,1.258,2.66
				c1.889,2.109,3.447,0.537,5.347-0.643c2.38-1.478,4.289-3.016,5.105-5.791c0.153-0.522,0.344-1.002,0.544-1.472
				c0.245,0.973,0.653,1.87,1.323,2.571C103.24,77.9,101.486,79.888,100.758,82.405z M92.494,74.573
				c0.565-0.258,1.101-0.571,1.582-0.891c1.924-1.278,3.073-2.955,3.77-4.893c1.092,0.83,2.478,1.133,4.024,1.092
				c-0.291,0.378-0.564,0.777-0.804,1.24c-1.245,2.403-1.108,4.535-3.53,6.249c-0.748,0.529-1.56,0.956-2.33,1.45
				c-0.894,0.573-1.222,1.048-2.003-0.017C92.347,77.636,92.642,76.046,92.494,74.573z M116.593,70.415
				c-0.357,1.181-0.762,2.59-1.672,3.488c-0.343,0.794-0.971,1.106-1.884,0.936c-1.023,0.585-1.62,0.342-1.791-0.729
				c-0.675-0.328-0.939-0.781-1.786-1.001c-0.517-0.135-1.253,0.194-1.691-0.013c-1.335-0.634-1.886-3.424-2.079-5.036
				c-0.116-0.969-0.886-1.765-1.938-1.477c-1.828,0.501-4.43,1.3-5.15-1.691c-0.336-1.397-2.38-1.324-2.756,0
				c-0.675,2.381-2.604,6.831-5.345,6.864c-1.533,0.019-1.948-1.461-3.342-1.636c-0.851-0.107-1.204,0.341-1.94,0.617
				c-1.64,0.616-2.888,1.148-3.907,1.17c-0.044-0.005-0.088-0.005-0.132,0.001c-1.305-0.031-2.231-0.969-3.13-3.791
				c0.388-1.032,0.581-2.121,0.458-3.192c-0.06-0.519-0.14-0.866-0.206-1.158c0.025-0.007,0.051,0,0.075-0.018
				c1.31-0.988,2.37-2.252,3.418-3.522c0.03,0.676,0.19,1.374,0.481,2.105c0.127,0.32,0.288,0.639,0.471,0.944
				c-1.31,1.204-2.819,2.484-3.297,4.155c-0.096,0.337,0.358,0.498,0.543,0.229c0.902-1.317,2.091-2.5,3.297-3.641
				c0.645,0.719,1.497,1.167,2.556,0.89c0.471-0.123,0.341-0.78-0.11-0.813c-0.663-0.049-1.187-0.395-1.606-0.867
				c0.446-0.418,0.887-0.834,1.307-1.251c1.21-1.202,2.441-2.38,3.665-3.566c0.4,0.652,0.999,1.001,1.823,0.423
				c0.302-0.212,0.197-0.681-0.189-0.699c-0.034,0.003-0.067-0.007-0.099-0.014c-0.059-0.064-0.137-0.144-0.149-0.16
				c-0.127-0.172-0.233-0.375-0.302-0.576c-0.004-0.01-0.004-0.021-0.007-0.032c0.364-0.36,0.736-0.711,1.094-1.077
				c1.759-1.799,3.539-3.598,5.197-5.491c1.63-1.861,3.51-3.575,5.038-5.504c0.302-0.381-0.231-0.926-0.541-0.541
				c-1.62,2.009-3.598,3.828-5.342,5.747c-1.802,1.982-3.708,3.887-5.615,5.771c-0.001-0.082-0.014-0.164-0.011-0.246
				c0.036-0.978-1.517-0.983-1.523,0c-0.003,0.402,0.076,0.967,0.239,1.506c-1.706,1.651-3.439,3.273-5.118,4.952
				c-0.206-0.364-0.376-0.747-0.507-1.111c-0.303-0.844-0.4-1.597-0.281-2.329c0.137-0.16,0.27-0.325,0.409-0.483
				c0.232-0.262,0.471-0.515,0.706-0.772c0.514,0.022,1.046-0.07,1.574-0.318c0.335-0.157,0.34-0.736,0-0.89
				c-0.101-0.046-0.209-0.093-0.314-0.14c1.332-1.388,2.704-2.724,4.127-4.044c1.983-1.838,3.716-3.91,5.543-5.898
				c0.722-0.785,1.476-1.538,2.234-2.286c0.499,0.713,0.927,1.446,0.959,2.313c0.008,0.215,0.312,0.26,0.376,0.051
				c0.341-1.118-0.128-2.048-0.746-2.946c1.121-1.102,2.242-2.204,3.285-3.381c0.269-0.303-0.172-0.75-0.448-0.447
				c-1.033,1.137-2.101,2.246-3.186,3.34c-0.519-0.711-1.056-1.419-1.277-2.203c-0.096-0.339-0.674-0.289-0.637,0.086
				c0.103,1.026,0.719,1.866,1.329,2.702c-0.749,0.746-1.505,1.487-2.267,2.223c-0.027-0.099-0.107-0.18-0.238-0.187
				c-0.589-0.034-1.163,0.182-1.751,0.052c-0.632-0.14-1.098-0.606-1.508-1.078c-0.104-0.12-0.194-0.238-0.277-0.357
				c0.757-0.604,1.512-1.208,2.246-1.818c2.364-1.966,4.892-4.073,7.445-5.771c0.328-0.218,0.025-0.748-0.312-0.533
				c-3.364,2.15-6.577,4.715-9.711,7.291c-0.022-0.196-0.018-0.401,0.048-0.632c0.173-0.609,0.524-1.185,0.767-1.769
				c0.201-0.482-0.635-0.839-0.85-0.358c-0.349,0.78-0.923,1.565-1.048,2.423c-0.057,0.394,0.013,0.761,0.142,1.109
				c-0.675,0.557-1.346,1.111-2.015,1.661c0.001-1.031,0.685-1.872,1.543-2.738c0.925-0.935-0.493-2.349-1.442-1.442
				c-1.41,1.349-2.602,2.801-2.232,4.871c0.053,0.296,0.137,0.605,0.235,0.913c-0.709,0.605-1.423,1.203-2.126,1.817
				c-0.798-0.09-1.471,0.446-1.979,1.201c-0.166-0.081-0.366-0.079-0.509,0.088c-0.407,0.473-0.577,0.924-0.575,1.337
				c-0.17,0.142-0.333,0.291-0.504,0.432c-0.381,0.314-0.721,0.641-1.045,0.972c-0.316-0.372-0.679-0.738-1.087-1.119
				c-1.497-1.397-2.157-0.47-3.477-3.256c-0.325-0.686-0.247-1.63-0.533-2.359c-0.01-0.025-0.023-0.048-0.033-0.073
				c0.005-0.036,0.022-0.065,0.024-0.103c0.043-1.195-0.206-2.33-0.348-3.477c0.167-0.15,0.334-0.298,0.512-0.439
				c0.795,1.386,2.29,2.539,3.757,2.298c-0.877,0.74-1.502,1.695-1.64,3.102c-0.047,0.48-0.009,0.929,0.083,1.344
				c-0.067,0.212-0.114,0.433-0.113,0.672c0.002,0.266,0.286,0.368,0.472,0.262c0.547,0.916,1.555,1.39,2.909,0.986
				c0.23-0.069,0.261-0.445,0-0.497c-1.173-0.233-1.798-0.995-1.99-1.945c1.011-1.074,2.649-1.759,3.756-2.566
				c0.084-0.061,0.163-0.128,0.247-0.19c0.485,0.804,1.285,1.271,2.556,0.946c0.539-0.138,0.436-0.815,0-0.994
				c-0.475-0.195-0.744-0.667-0.889-1.25c1.391-1.127,2.749-2.298,4.192-3.36c1.943-1.43,3.842-2.983,5.887-4.262
				c2.011-1.259,4.129-2.302,5.91-3.893c0.329-0.293-0.144-0.738-0.475-0.475c-2.345,1.867-5.097,3.061-7.547,4.77
				c-0.261,0.182-0.521,0.368-0.783,0.55c0.013-0.144-0.024-0.299-0.109-0.406c-0.696-0.874-1.867-1.766-2.574-2.735
				c1.494-0.843,2.982-1.697,4.478-2.535c1.072,0.542,2.272,0.774,3.388,0.511c0.424-0.1,0.402-0.725,0-0.836
				c-0.6-0.167-1.223-0.335-1.829-0.537c1.769-0.965,3.559-1.892,5.401-2.725c0.436-0.197,0.058-0.832-0.375-0.641
				c-2.052,0.906-4.049,1.921-6.027,2.974c-1-0.455-1.859-1.115-2.362-2.189c2.916-1.392,5.794-2.841,8.756-4.158
				c0.419-0.186,0.056-0.793-0.359-0.614c-2.928,1.268-5.833,2.578-8.711,3.949c-0.347-1.255-0.473-3.112,0.969-3.356
				c0.098-0.017,0.149-0.089,0.18-0.173c0.108-0.055,0.215-0.109,0.323-0.164c2.125-1.082,4.164-2.236,6.366-3.168
				c2.009-0.85,3.952-1.699,5.718-2.998c0.336-0.247,0.013-0.815-0.331-0.567c-3.32,2.399-7.454,3.602-11.071,5.516
				c-0.652,0.345-1.313,0.672-1.975,0.996c-0.22,0.053-0.409,0.149-0.57,0.279c-1.081,0.529-2.16,1.062-3.205,1.664
				c-1.287,0.742-2.485,1.539-3.768,2.218c0.602-1.919,1.5-3.575,4.189-3.873c0.631-0.07,1.426-0.44,1.534-1.168
				c0.082-0.551,0.146-1.123,0.219-1.695c2.428-1.196,5.495-2.408,6.02-2.593c1.963-0.692,4.322-1.017,5.968-2.385
				c0.249-0.207-0.106-0.552-0.354-0.354c-2.006,1.61-5.157,1.869-7.486,2.842c-1.342,0.56-2.694,1.109-4.028,1.697
				c0.108-0.643,0.249-1.277,0.494-1.863c1.653-3.964,3.232-2.489,6.164-3.762c1.276-0.554,2.606-2.002,3.992-2.196
				c1.434-0.201,4.436,1.819,5.664,2.961c1.471,0.338,2.259,1.369,2.366,3.092c-0.072,0.513-0.133,1.027-0.184,1.543
				c0.21,0.774,0.303,1.483,0.78,2.142c2.189,3.022,6.433,1.695,6.119,6.752c-0.153,2.462-1.45,4.144-0.285,6.579
				c0.502,1.049,1.445,1.873,2.21,2.714c2.332,2.565,1.561,3.636,0.642,6.966c-0.83,3.009,0.089,3.373,0.967,6.121
				c0.916,2.867-0.328,8.02-1.366,10.642c-0.515,1.301,1.062,2.444,2.212,2.053C117.709,66.542,117.179,68.477,116.593,70.415z
				 M79.315,54.14c0.163-0.167,0.326-0.334,0.503-0.488c0.195-0.168,0.391-0.334,0.586-0.501c-0.018,0.108-0.032,0.211-0.041,0.307
				c-0.158,1.687,0.799,3.242,2.159,3.937c-0.166,0.285-0.3,0.571-0.409,0.859c-1.38,1.558-2.698,3.169-3.924,4.857
				c-0.02-0.297,0.014-0.625,0.155-1.135c0.413-1.492,1.459-2.659,1.674-4.25C80.224,56.202,79.941,55.114,79.315,54.14z
				 M85.532,52.39c-0.397,0.899-2.052,0.929-3.131,0.465c0.208-0.932,0.729-2.258,1.334-2.331c0.317-0.038,0.562-0.37,0.507-0.653
				c0.544-0.469,1.084-0.945,1.621-1.426c0.117,0.235,0.242,0.46,0.386,0.661c0.594,0.83,1.369,0.769,2.073,1.317
				c0.39,0.304,0.984,0.132,1-0.414c0.04-1.326-0.985-1.637-1.54-2.673c-0.078-0.147-0.126-0.284-0.18-0.424
				c0.725-0.625,1.464-1.24,2.217-1.845c0.108,0.16,0.223,0.316,0.345,0.465c0.776,0.945,2.169,1.754,3.328,1.345
				c-3.129,2.998-6.308,5.959-9.283,9.092c-0.835-0.424-1.585-0.978-1.82-1.904c1.548,0.469,3.425,0.138,3.58-1.557
				C85.99,52.283,85.625,52.179,85.532,52.39z"/>
			<path d="M28.125,52.926c0.027,0.013,0.057,0.024,0.084,0.037c0.295,0.539,0.786,0.992,1.28,1.311
				c1.364,0.883,2.992,1.489,4.424,0.712c-0.134,0.842-0.215,1.791,0.067,2.552c0.396,1.067,1.488,1.642,2.105,2.561
				c0.112,0.166,0.363,0.063,0.321-0.136c-0.201-0.949-0.965-1.498-1.426-2.309c-0.578-1.017-0.344-2.111-0.51-3.208
				c-0.021-0.14-0.164-0.184-0.288-0.157c-0.002,0-0.005-0.002-0.007-0.001c-1.401,0.208-2.555-0.226-3.792-0.847
				c0.574-0.019,1.134-0.16,1.614-0.486c0.333-0.226,0.329-0.663,0-0.89c-0.873-0.602-2.205-0.605-3.012-1.147
				c0.025-0.139,0.046-0.276,0.052-0.408c0.014-0.284-0.435-0.427-0.559-0.153c-0.115-0.226-0.186-0.499-0.187-0.847
				c-0.006-1.357-2.108-1.36-2.109,0C26.179,50.956,26.79,52.262,28.125,52.926z"/>
			<path d="M35.511,70.433c-0.04-0.238-0.419-0.281-0.521-0.068c-0.33,0.684-1.046,1.109-1.689,1.483
				c-0.958,0.556-1.43,0.418-2.188-0.322c0.278-0.611,0.561-1.22,0.825-1.84c0.707-1.662,1.268-3.379,1.788-5.109
				c0.026,0.023,0.048,0.046,0.074,0.069c0.746,0.67,2.058,1.885,3.129,1.194c0.258-0.167,0.249-0.629-0.091-0.7
				c-0.898-0.186-1.567-0.829-2.252-1.399c-0.18-0.15-0.342-0.288-0.489-0.426c0.359-1.23,0.713-2.461,1.092-3.681
				c0.18-0.578-0.722-0.823-0.904-0.249c-0.308,0.968-0.601,1.941-0.894,2.914c-0.076-0.226-0.122-0.481-0.126-0.789
				c-0.01-0.679-1.041-0.679-1.055,0c-0.019,0.95,0.252,1.626,0.738,2.245c-0.457,1.483-0.939,2.957-1.5,4.403
				c0.058-0.391-0.256-0.821-0.711-0.875c-0.674-0.081-1.328,0.114-1.975,0.296c-0.161-0.809-0.135-1.654,0.171-2.516
				c0.078-0.219-0.26-0.355-0.371-0.157c-0.495,0.88-0.678,1.873-0.616,2.87c-0.609,0.113-1.216,0.108-1.831-0.271
				c-0.061-0.038-0.119-0.091-0.179-0.134c0.004-0.007,0.007-0.015,0.01-0.023c0.608-1.273,1.326-2.529,2.022-3.8
				c1.163,0.35,2.452,0.281,3.125-0.832c0.21-0.347-0.212-0.779-0.561-0.561c-0.581,0.362-1.283,0.397-1.957,0.265
				c0.889-1.699,1.672-3.442,2.041-5.307c0.097-0.49-0.651-0.701-0.753-0.208c-0.367,1.767-1.193,3.563-2.118,5.267
				c-0.168-0.068-0.332-0.14-0.484-0.22c-1.264-0.667-1.985-1.626-2.269-3.013c-0.05-0.244-0.465-0.256-0.505,0
				c-0.279,1.785,0.891,3.307,2.399,4.149c0.086,0.048,0.181,0.089,0.272,0.133c-0.423,0.737-0.852,1.454-1.255,2.134
				c-0.251,0.423-0.476,0.867-0.706,1.308c-0.738-0.901-1.252-2.163-1.184-3.155c0.059-0.858-1.379-1.071-1.519-0.206
				c-0.295,1.821,0.421,4.066,1.68,5.499c-0.638,1.461-1.206,2.958-1.732,4.423c-0.09,0.25-0.607,1.406-1.04,2.69
				c-1.164-0.91-0.857-2.441-0.349-3.682c0.359-0.877-1.15-1.521-1.542-0.65c-0.926,2.057-1.119,4.476,0.697,6.126
				c0.187,0.17,0.398,0.322,0.627,0.456c-0.165,1.253,0.111,2.127,1.485,1.634c0.307-0.11,0.276-0.593-0.08-0.591
				c-0.263,0.002-0.36-0.244-0.359-0.618c1.478,0.424,3.208,0.17,4.016-1.196c0.323-0.547-0.109-1.076-0.658-1.146
				c-0.936-0.119-1.927,0.265-2.858,0.111c0.394-1.19,0.88-2.328,0.922-2.447c0.512-1.478,1.068-2.947,1.677-4.391
				c0.812,0.564,1.808,0.815,2.793,0.714c0.27-0.028,0.513-0.086,0.745-0.158c0.311,0.71,0.736,1.375,1.248,1.948
				c-0.949,2.209-1.709,4.617-1.402,6.985c0.049,0.38,0.64,0.554,0.737,0.1c0.341-1.61,0.468-3.241,0.935-4.828
				c0.15-0.511,0.338-1.005,0.537-1.494c0.182,0.145,0.368,0.283,0.563,0.406C32.748,74.207,35.842,72.427,35.511,70.433z
				 M30.465,70.466c-0.037,0.078-0.073,0.159-0.11,0.238c-0.289-0.351-0.546-0.724-0.778-1.109c0.495-0.294,0.968-0.642,1.525-0.958
				c0.112-0.063,0.186-0.143,0.244-0.227C31.072,69.102,30.785,69.79,30.465,70.466z"/>
			<path d="M47.736,56.579c-0.564,0.007-0.54,0.803,0,0.859c0.346,0.036,0.538,0.15,0.774,0.44c0.204,0.251,0.318,0.584,0.549,0.807
				c0.161,0.156,0.415,0.037,0.427-0.177C49.532,57.696,48.562,56.569,47.736,56.579z"/>
			<path d="M91.728,59.594c0.315-0.353,0.629-0.703,0.944-1.061c2.432-2.764,4.819-5.564,7.34-8.248
				c0.344-0.366-0.203-0.917-0.552-0.552c-2.863,2.986-5.551,6.13-8.36,9.166c-1.847,1.996-4.597,4.232-5.124,7.039
				c-0.055,0.295,0.322,0.475,0.493,0.208c1.528-2.4,3.38-4.448,5.255-6.547c-0.044,0.065-0.076,0.146-0.091,0.244
				c-0.189,1.256-0.455,2.492-0.8,3.715c-0.368,1.305-1.032,2.242-1.79,3.339c-0.126,0.183,0.123,0.424,0.305,0.305
				c2.506-1.646,3.061-4.215,3.49-7.026C92.944,59.489,92.04,59.145,91.728,59.594z"/>
			<path d="M45.073,93.346c0.373-0.476-0.29-1.155-0.674-0.674c-0.683,0.856-1.023,1.848-1.329,2.89
				c-0.226,0.768-0.706,1.183-0.435,1.975c0.036,0.106,0.218,0.097,0.207-0.028c-0.037-0.437,0.284-0.614,0.501-0.903
				c0.2-0.266,0.312-0.6,0.443-0.902C44.148,94.869,44.507,94.068,45.073,93.346z"/>
			<path d="M44.36,97.557c-0.59-0.127-0.839,0.788-0.249,0.904c0.061,0.012,0.123,0.024,0.184,0.036
				c0.045,0.167,0.065,0.339,0.054,0.512c-0.032,0.469,0.611,0.477,0.76,0.103c0.142-0.357,0.167-0.686,0.03-1.05
				C44.99,97.667,44.74,97.639,44.36,97.557z"/>
			<path d="M38.61,45.793c0.166-0.111,0.73-1.605,0.934-1.919c0.485-0.747,0.922-1.477,1.336-2.271
				c0.244-0.468,0.487-0.933,0.733-1.396c0.015-0.03,0.045-0.044,0.053-0.08c0.002-0.01,0.003-0.021,0.005-0.031
				c0.871-1.636,1.787-3.229,2.966-4.687c0.454-0.562-0.341-1.368-0.801-0.801c-0.756,0.932-1.397,1.914-1.991,2.92
				c-0.155-0.04-0.327-0.023-0.481,0.107c-0.582,0.493-0.731,1.213-0.657,1.927c-0.387,0.721-0.771,1.448-1.172,2.176
				c-0.817,1.485-2.276,2.948-2.265,4.732c0.002,0.425,0.43,0.602,0.779,0.447c0.609-0.269,0.507-0.222,0.903-0.783
				C39.096,45.931,38.813,45.658,38.61,45.793z"/>
			<path d="M47.349,38.122c-1.377,1.772-2.664,3.606-3.814,5.534c-0.929,1.557-2.278,3.46-2.585,5.274
				c-0.056,0.333,0.343,0.511,0.543,0.229c2.366-3.337,4.067-7.026,6.63-10.263C48.557,38.348,47.779,37.569,47.349,38.122z"/>
			<path d="M37.916,62.509c-0.14,2.774-1.48,5.545-2.18,8.206c-0.588,2.236-1.926,4.014-1.432,6.396
				c0.058,0.279,0.396,0.454,0.66,0.375c0.839-0.253,1.047-0.598,1.049-1.478c0.001-0.332-0.435-0.351-0.545-0.074
				c0.203-0.512-0.064-1.44,0.169-2.108c0.17-0.486,0.378-0.958,0.551-1.442c0.443-1.235,0.598-2.524,0.958-3.784
				c0.566-1.984,1.338-4.013,1.41-6.091C38.571,62.096,37.936,62.099,37.916,62.509z"/>
			<path d="M42.074,61.117c0.03-0.097,0.033-0.203-0.011-0.299c-0.374-0.811-1.068-1.27-1.623-1.945
				c-1.03-1.253-0.901-2.846,0.08-4.079c0.315-0.396-0.216-0.962-0.569-0.569c-0.962,1.07-1.526,2.488-1.141,3.929
				c0.373,1.393,1.584,2.412,2.735,3.182c0.099,0.067,0.195,0.073,0.28,0.048c-0.028,0.074-0.044,0.154-0.029,0.247
				c0.701,4.315-1.983,8.706-0.883,12.968c0.081,0.316,0.571,0.324,0.648,0c0.525-2.216,0.525-4.658,0.825-6.94
				c0.28-2.128,0.677-4.132,0.292-6.271C42.617,61.056,42.311,61.001,42.074,61.117z"/>
			<path d="M46.863,62.906c-0.275,1.315-3.369,12.201-0.627,11.865c0.195-0.024,0.383-0.286,0.185-0.447
				c-1.137-0.922-0.011-5.154,0.191-6.286c0.299-1.67,0.827-3.343,1.01-5.029C47.67,62.577,46.952,62.482,46.863,62.906z"/>
			<path d="M51.788,65.385c-0.323,2.217-1.8,4.447-1.383,6.715c0.061,0.334,0.592,0.322,0.663,0c0.473-2.153,1.316-4.29,1.617-6.468
				C52.765,65.049,51.874,64.793,51.788,65.385z"/>
			<path d="M58.939,68.836c-0.32,0.519-0.52,1.059-0.492,1.674c0.014,0.312,0.494,0.409,0.568,0.077
				c0.111-0.497,0.249-0.967,0.518-1.403C59.766,68.805,59.171,68.459,58.939,68.836z"/>
			<path d="M100.951,56.225c-1.457,1.277-2.347,2.888-3.377,4.503c-0.881,1.382-2.459,2.488-2.723,4.176
				c-0.077,0.494,0.647,0.722,0.768,0.212c0.345-1.443,1.929-2.673,2.718-3.941c0.966-1.553,1.797-3.145,3.182-4.38
				C101.908,56.448,101.339,55.885,100.951,56.225z"/>
		</g>
	</g>
</g>
<g>
</g>
<g>
</g>
<g>
</g>
<g>
</g>
<g>
</g>
<g>
</g>
<g>
</g>
<g>
</g>
<g>
</g>
<g>
</g>
<g>
</g>
<g>
</g>
<g>
</g>
<g>
</g>
<g>
</g>
</svg>
