<?xml version="1.0" encoding="iso-8859-1"?>
<!-- Generator: Adobe Illustrator 19.0.0, SVG Export Plug-In . SVG Version: 6.00 Build 0)  -->
<svg version="1.1" id="Layer_1" xmlns="http://www.w3.org/2000/svg" xmlns:xlink="http://www.w3.org/1999/xlink" x="0px" y="0px"
	 viewBox="0 0 123.781 123.781" style="enable-background:new 0 0 123.781 123.781;" xml:space="preserve">
<g>
	<g>
		<g>
			<path d="M120.018,62.439c-1.063-0.234-1.824-0.143-2.23-0.037c0.273-0.143,0.709-0.411,1.338-0.897
				c1.023-0.791,2.495-1.717,2.837-3.079c0.229-0.912,0.026-1.678-0.483-2.44c-1.534-2.297-4.257-0.383-4.836-3.606
				c-0.18-1.005,4.298-20.027-2.581-14.723c-3.429,2.643-4.24,8.516-4.174,12.491c0.014,0.832,0.091,1.779,0.166,2.769
				c-0.803-0.292-1.691-0.461-2.668-0.727c-3.271-0.888-6.536-2.037-9.876-2.614c-6.934-1.197-13.6-3.036-20.396-4.911
				c-7.117-1.964-14.504-4.785-21.84-5.696c-6.461-0.803-12.295-2.485-18.56-4.527c-5.449-1.776-11.682-3.432-16.777-0.126
				c-2.356,1.529-4.056,3.374-5.196,5.52c-1.252-1.197-2.399-3.162-2.877-4.438c-1.353-3.618,0.13-4.503,0.321-7.555
				c0.083-1.333-0.02-3.383-1.494-4.033c-2.289-1.008-5.076,2.369-5.617,4.298c-0.644,2.296,0.766,4.863,0.737,7.131
				c-0.086,6.656-1.016,1.854-3.933,3.897c-1.3,0.911-1.565,2.545-1.215,3.99c0.48,1.985,1.574,2.405,2.887,3.084
				c-2.291,2.346-5.463,5.728-1.764,8.323c1.407,0.987,2.644,0.768,3.974-0.1c2.877-1.878,3.279-5.711,7.105-5.956
				c-0.068,3.17,0.207,7.198,2.384,9.321c2.301,2.243,7.545,2.955,11.102,2.371c2.234,0.406,4.467,0.723,6.743,0.873
				c3.636,0.239,7.067,1.489,10.623,1.984c1.235,0.172,2.548,0.296,3.883,0.383c-2.975,0.722-5.953,1.421-8.993,1.867
				c-4.097,0.602-8.132,0.022-12.223,0.364c-3.395,0.284-6.897,1.007-10.261,1.586c-5.313,0.915-10.966,2.422-15.58,5.285
				c-0.804,0.499-0.721,1.869,0.275,2.1c3.397,0.786,5.698,1.717,9.362,1.748c4.535,0.039,8.624,0.527,13.036,1.475
				c3.216,0.692,6.025-0.113,9.217-0.45c2.877-0.304,5.767,0.167,8.648,0.502c-3.529,1.272-7.081,2.467-10.437,4.092
				c-1.764,0.854-3.436,1.798-5.064,2.792c-1.875,0.577-3.81,0.936-5.575,1.842c-2.453,1.258-4.845,3.065-7.104,4.652
				c-1.733,1.217-3.268,2.456-5.115,3.459c-0.723,0.393-1.586,0.528-2.173,1.166c-0.606,0.659-1.177,1.532-0.788,2.475
				c0.357,0.866,1.214,1.05,2.041,1.247c1.717,0.408,4.945,0.611,6.678,0.524c2.678-0.135,5.647-1.035,8.324-1.455
				c3.091-0.485,6.251-0.957,9.32-1.508c3.628-0.651,6.663-1.48,10.439-1.345c3.401,0.122,6.554,0.078,9.924-0.411
				c6.751-0.979,14.036-2.295,20.861-2.442c1.652-0.036,3.292-0.092,4.925-0.173c0.095,0.042,0.205,0.042,0.309-0.014
				c5.149-0.266,10.226-0.794,15.345-1.789c4.142-0.805,8.458-2.882,11.209-6.162c3.122-1.794,5.068-6.583,5.483-9.846
				c0.17-1.335-0.146-2.498-0.584-3.643c3.445-1.754,6.213,0.019,10.006-0.243c1.648-0.114,2.593-0.436,3.595-1.759
				C124.983,66.329,123.441,63.193,120.018,62.439z M12.961,46.383c-1.689-0.325-2.828-0.549-4.367,0.679
				c-0.662,0.528-3.299,4.555-3.496,4.496c-3.51-1.055,0.628-3.838,1.414-4.703c0.613-0.674,0.416-1.517-0.262-2.032
				c-0.7-0.533-3.737-2.315-2.645-3.286c0.136-0.121,0.929,0.537,1.176,0.412c1.003-0.506,1.822-0.482,2.689-1.475
				c2.717-3.117-0.046-6.697-0.06-10.175c-0.013-3.112,1.849-4.524,1.891-0.643c0.009,0.833-0.549,1.757-0.611,2.633
				c-0.142,2.014,0.516,3.864,1.513,5.585c0.978,1.686,2.163,3.367,3.771,3.676C13.419,43.036,13.091,44.649,12.961,46.383z
				 M55.367,42.754c3.322,0.505,6.637,1.038,9.857,2.183c0.431,0.153,0.866,0.293,1.3,0.436c-1.467,0.96-2.445,2.679-3.06,4.493
				c-0.475,1.401-1.366,6.06,1.509,5.684c0.568-0.074,0.778-0.72,0.29-1.07c-1.001-0.718,0.052-3.464,0.363-4.435
				c0.482-1.505,1.28-3.229,2.636-4.126c3.434,1.03,6.935,1.834,10.407,2.765c-1.083,0.921-1.884,2.374-2.377,3.506
				c-0.931,2.138-1.095,5.184,1.367,6.322c0.546,0.252,1.169-0.273,0.85-0.85c-1.001-1.807-1.343-3.19-0.681-5.23
				c0.449-1.385,1.059-2.515,2.038-3.415c0.481,0.134,0.964,0.259,1.443,0.401c1.991,0.59,3.982,1.196,5.986,1.75
				c-0.753,1.091-1.323,2.654-0.723,3.856c0.234,0.469,0.674,0.788,1.009,1.199c-2.975,0.873-5.897,1.959-8.402,3.032
				c-0.987,0.423-1.897,0.948-2.796,1.49c-5.734,0.331-11.509-0.508-17.193,0.246c-0.807,0.107-1.609,0.237-2.407,0.377
				c-0.158-0.36-0.447-0.675-0.911-0.84c-2.333-0.824-4.548-0.837-6.907-0.766c0.558-0.867,1.184-1.687,1.782-2.592
				c0.211-0.32,0.406-0.648,0.597-0.978c0.532,0.106,1.088-0.576,0.747-1.078c-0.022-0.033-0.035-0.076-0.056-0.11
				c0.483-0.807,1.012-1.578,1.751-2.217c0.436-0.377-0.189-0.971-0.624-0.624c-0.635,0.505-1.131,1.112-1.572,1.759
				c-0.531-1.927-0.189-4.658,0.374-6.206C52.719,45.64,53.574,43.792,55.367,42.754z M35.873,37.481
				c1.403,0.47,2.803,0.966,4.207,1.458c-2.166,0.998-4.089,2.549-5.172,4.212c-0.73,1.12-1.612,5.784-0.76,8.17
				c-0.334,0.629-0.675,1.251-1.032,1.859c-0.32,0.545-0.608,1.095-0.849,1.656c-0.004-0.009,0-0.019-0.005-0.028
				c-0.633-1.048-1.489-1.866-2.092-2.754c0.286-0.564,0.535-1.047,0.64-1.33c0.922-2.482,2.236-4.722,3.468-7.067
				c0.212-0.404-0.391-0.761-0.614-0.359c-1.444,2.606-2.86,5.054-3.969,7.805c-0.006,0.015-0.013,0.028-0.019,0.043
				c-0.29-0.729-0.351-1.553,0.028-2.605c0.093-0.257-0.318-0.43-0.443-0.187c-0.7,1.366-0.657,2.735-0.131,3.95
				c-0.269,0.527-0.531,1.042-0.733,1.567c-0.461-0.264-0.893-0.546-1.287-0.854c0.389-1.056,0.787-1.993,0.889-2.361
				c0.521-1.865,0.85-4.954,2.196-6.452c0.274-0.305-0.171-0.757-0.453-0.453c-1.51,1.629-1.934,4.628-2.553,6.682
				c-0.199,0.662-0.474,1.327-0.747,1.997c-1.141-1.092-1.902-2.431-2.219-4.041c0.631-1.751,1.332-3.478,2.173-5.161
				c0.284-0.569-0.566-1.072-0.857-0.501c-0.481,0.947-0.982,1.954-1.465,2.996c0.289-4.201,2.248-8.918,6.803-9.507
				C32.565,36.561,34.251,36.935,35.873,37.481z M18.091,55.828c-0.831-0.67-1.519-1.504-1.984-2.584
				c-1.74-4.037-1.568-10.185,1.156-13.647c2.742-3.484,6.174-4.933,10.569-4.003c0.516,0.109,1.037,0.212,1.557,0.316
				c-2.425,0.561-4.239,2.578-5.327,5.096c-0.141-0.041-0.298-0.018-0.43,0.131c-0.861,0.969-1.269,2.013-1.698,3.213
				c-0.623,1.742-1.582,3.311-2.218,5.038c-0.672,1.826-1.311,4.163-1.578,6.072C18.12,55.592,18.104,55.714,18.091,55.828z
				 M34.104,58.991c-1.803-0.013-3.6-0.016-5.397-0.245c-0.543-0.069-1.712-0.056-2.981-0.078c-2.347-0.512-4.781-1.041-6.694-2.188
				c-0.057-1.2,0.668-2.713,0.898-3.691c0.372-1.579,0.718-3.027,1.415-4.51c0.673-1.431,1.167-3.256,1.912-4.788
				c-0.36,1.593-0.458,3.251-0.275,4.792c-1.008,2.538-1.774,5.186-1.822,7.693c-0.007,0.359,0.512,0.416,0.614,0.083
				c0.565-1.851,1.116-3.698,1.716-5.525c0.49,1.397,1.283,2.57,2.414,3.315c-0.402,1.191-0.624,2.403-0.23,3.647
				c0.051,0.162,0.206,0.3,0.384,0.293c0.138-0.005,0.276-0.011,0.415-0.016c0.273-0.011,0.432-0.419,0.15-0.553
				c-0.596-0.284-0.366-1.574,0.063-2.949c0.451,0.195,0.943,0.333,1.48,0.401c-0.12,0.566-0.142,1.158,0.038,1.817
				c0.056,0.205,0.257,0.292,0.453,0.257c0.124-0.022,0.249-0.044,0.373-0.066c0.191-0.034,0.189-0.295,0.05-0.386
				c-0.36-0.237-0.313-0.843-0.085-1.576c0.201-0.02,0.294-0.285,0.143-0.417c0.136-0.363,0.3-0.743,0.477-1.12
				c0.543,0.815,1.304,1.53,2.189,2.084c0.1,0.063,0.2,0.046,0.29,0.004c-0.386,1.035-0.576,2.114-0.391,3.281
				c0.045,0.286,0.473,0.249,0.542,0c0.321-1.157,0.496-2.337,1.034-3.423c0.362-0.731,0.9-1.268,1.273-1.977
				c0.123-0.233,0.232-0.475,0.349-0.712c0.426,0.317,0.993,0.404,1.74,0.147c0.081-0.028,0.149-0.073,0.21-0.124
				c-0.154,0.256-0.308,0.516-0.457,0.78c-0.99,1.751-1.239,3.85-2.242,5.546C34.11,58.858,34.101,58.926,34.104,58.991z
				 M38.101,59.14c-0.066-0.006-0.13-0.008-0.195-0.013c1.05-1.575,1.942-3.296,2.939-4.892c0.313-0.501,0.624-1.001,0.932-1.504
				c0.334,1.23,0.889,2.178,1.717,3.028c-1.044,1.153-1.892,2.431-2.858,3.642C39.799,59.308,38.957,59.217,38.101,59.14z
				 M47.244,59.819c-1.973,0.057-3.872-0.123-5.786-0.33c1.001-0.919,1.775-2.103,2.663-3.143c0.358,0.306,0.744,0.608,1.186,0.914
				c0.26,0.18,0.648-0.188,0.449-0.449c-0.329-0.431-0.642-0.832-0.94-1.225c1.47-1.541,2.922-3.049,4.001-4.908
				c0.258-0.444-0.429-0.845-0.688-0.402c-1.026,1.752-2.424,3.172-3.821,4.615c-0.765-1.086-1.346-2.193-1.609-3.691
				c0.579-0.983,1.137-1.978,1.658-2.998c0.26-0.509-0.507-0.96-0.769-0.45c-0.33,0.644-0.705,1.28-1.094,1.914
				c-0.076-0.721-0.129-1.458-0.082-2.152c0.083-1.234,0.662-2.258,0.979-3.423c0.147-0.541-0.666-0.76-0.836-0.23
				c-0.404,1.256-1.027,1.965-1.166,3.285c-0.139,1.318-0.069,2.785,0.098,4.104c-1.669,2.537-3.465,5.075-4.482,7.815
				c-0.688-0.036-1.374-0.052-2.059-0.062c1.273-1.386,1.566-3.986,2.471-5.583c1.179-2.081,2.536-3.932,2.956-6.334
				c0.09-0.516-0.681-0.747-0.799-0.22c-0.444,1.99-1.479,3.564-2.497,5.228c0.054-0.243-0.026-0.51-0.284-0.664
				c-0.44-0.262-0.692-0.72-0.82-1.279c0.594-1.329,1.185-2.666,1.891-3.946c0.282-0.511-0.493-0.965-0.782-0.457
				c-0.362,0.634-0.708,1.279-1.048,1.927c0.334-1.708,1.111-3.446,1.684-4.049c1.228-1.292,3.504-2.792,5.829-3.51
				c2.295,0.747,4.608,1.412,6.958,1.85c0.751,0.14,1.505,0.265,2.259,0.385c-1.202,1.069-1.979,2.918-2.631,4.62
				c-0.943,2.46-1.522,6.538,0.423,8.623c-0.304,0.51-0.615,1.017-0.968,1.497c-0.69,0.938-1.375,1.766-1.85,2.712
				C47.573,59.808,47.411,59.814,47.244,59.819z M34.844,73.682c-3.99-0.031-7.52,1.621-11.584,0.787
				c-3.274-0.671-6.338-0.986-9.69-0.947c-2.184,0.026-4.393,0.34-6.566,0.329c-1.18-0.006-2.103-0.272-3.007-0.594
				c4.865-2.351,10.704-3.482,15.865-4.09c3.243-0.382,6.343-0.929,9.623-0.842c1.352,0.036,2.698,0.07,4.041,0.061
				c-0.06,0.092-0.119,0.185-0.169,0.292c-0.42,0.891-0.326,2.282,0.434,2.98c0.151,0.138,0.363,0.07,0.431-0.114
				c0.254-0.687,0.104-1.52,0.218-2.239c0.062-0.393,0.243-0.697,0.482-0.948c1.475-0.051,2.946-0.173,4.415-0.435
				c2.173-0.388,4.309-0.893,6.436-1.427c-0.485,0.589-0.934,1.225-1.426,1.848c-1.008,1.277-1.743,2.737-0.289,4.047
				c0.354,0.319,1.028,0.121,1-0.414c-0.029-0.547-0.314-1.16-0.195-1.699c0.129-0.587,0.699-1.19,1.007-1.693
				c0.598-0.979,1.14-1.931,1.998-2.619c3.839-0.99,7.672-2.003,11.646-2.576c5.246-0.756,10.195-0.761,15.287-1.693
				c-0.774,0.469-1.555,0.93-2.387,1.327c-3.108,1.486-6.405,1.881-9.577,3.137c-1.293,0.512-2.504,1.146-3.681,1.833
				c-0.528-0.042-0.959-0.086-0.981-0.135c-0.102-0.223-0.431-0.097-0.437,0.118c-0.003,0.138-0.007,0.276-0.01,0.415
				c-0.003,0.134,0.104,0.293,0.242,0.318c-3.71,2.333-7.104,5.16-11.224,6.966c-0.219,0.096-0.443,0.183-0.663,0.277
				c-0.119-0.538-0.487-0.993-1.162-1.103C41.754,74.331,38.07,73.708,34.844,73.682z M50.266,92.295
				c0.323-0.635,0.57-1.322,0.8-1.889c1.185-2.93,3.064-5.718,3.316-8.929c0.041-0.528-0.774-0.521-0.82,0
				c-0.242,2.71-1.874,4.861-2.908,7.291c-0.551,1.295-0.942,2.625-1.692,3.759c-0.421,0.073-0.841,0.151-1.263,0.216
				c-1.344,0.206-2.673,0.253-4,0.252c1.321-1.117,2.275-2.584,3.425-3.865c0.184-0.205-0.119-0.51-0.304-0.304
				c-1.186,1.321-2.192,2.791-3.467,4.033c-0.045,0.044-0.053,0.091-0.046,0.136c-1.624-0.011-3.248-0.079-4.894-0.01
				c-9.457,0.396-18.975,5.348-28.406,4.426c-2.179-0.213-2.924,0.139-0.42-1.124c2.382-1.201,4.346-3.219,6.558-4.685
				c0.058-0.038,0.118-0.075,0.176-0.113c3.423-1.801,6.804-3.683,10.155-5.608c2.709-1.556,5.451-2.522,8.252-3.382
				c0.693,0.608,1.581,0.937,2.384,1.39c0.683,0.385,1.166,0.845,1.558,1.523c0.425,0.736,0.43,1.452,0.679,2.237
				c0.158,0.498,0.914,0.671,1.178,0.154c0.748-1.461-0.196-3.271-1.391-4.189c-0.586-0.45-1.22-0.723-1.934-0.891
				c-0.568-0.133-1.218-0.221-1.792-0.435c1.816-0.546,3.658-1.063,5.534-1.679c1.584-0.52,3.214-1.057,4.838-1.638
				c0.752,0.344,1.455,0.781,2.058,1.382c1.362,1.359,1.646,3.485,2.145,5.26c0.133,0.474,0.844,0.485,0.972,0
				c0.642-2.442,0.365-5.006-1.63-6.747c-0.359-0.313-0.752-0.568-1.157-0.797c1.802-0.714,3.565-1.5,5.207-2.414
				c0.359-0.2,0.708-0.407,1.053-0.618c2.445,0.746,4.43,2.859,4.905,5.357c-0.824,2.197-1.458,4.468-2.396,6.627
				c-0.597,1.374-1.062,3.277-2.147,4.453C53.28,91.719,51.774,92.012,50.266,92.295z M64.204,89.922
				c-1.222,0.21-2.444,0.431-3.664,0.646c0.639-0.92,1.16-1.955,1.616-2.754c1.682-2.95,3.007-6.064,4.255-9.216
				c0.218-0.55-0.66-0.777-0.881-0.243c-0.616,1.489-1.257,2.965-1.939,4.422c-0.104-0.324-0.238-0.64-0.375-0.944
				c-0.15-0.335-0.64-0.044-0.492,0.288c0.24,0.54,0.358,1.035,0.435,1.564c-0.393,0.811-0.795,1.618-1.223,2.413
				c-0.743,1.38-1.581,3.237-2.649,4.684c-1.009,0.17-2.017,0.331-3.024,0.464c-0.032,0.004-0.065,0.011-0.099,0.015
				c0.389-0.668,0.675-1.418,0.896-1.95c0.945-2.272,1.593-4.643,2.338-6.975c-0.207,2.093-1.019,4.077-0.66,6.204
				c0.042,0.249,0.402,0.211,0.467,0c0.853-2.784,2.109-6.185,1.225-9.123c0.104-0.261,0.203-0.524,0.314-0.782
				c0.158-0.367-0.372-0.692-0.546-0.319c-0.038,0.082-0.071,0.166-0.109,0.248c-0.89-1.919-2.665-3.456-4.671-4.154
				c2.338-1.519,4.449-3.177,6.875-4.448c1.66,0.734,3.124,1.798,4.103,3.452c1.713,2.893,1.253,5.627,1.829,8.767
				c0.082,0.444,0.517,0.606,0.901,0.527c-0.268,0.593-0.541,1.161-0.791,1.668C68.022,85.012,65.443,88.922,64.204,89.922z
				 M89.702,86.913c0.568-1.117,1.15-2.227,1.723-3.341c0.011,0.073,0.019,0.147,0.044,0.217c-0.113,0.403,0.185,0.84,0.649,0.719
				c0.091-0.024,0.173-0.068,0.258-0.101c0.17,0.003,0.323-0.05,0.464-0.127c-0.347,0.85-0.716,1.68-1.111,2.479
				C91.049,86.813,90.371,86.857,89.702,86.913z M97.022,85.53c0.24-0.806,0.436-1.535,0.613-1.998
				c0.852-2.229,1.294-4.549,2.189-6.753c0.676-1.664,0.915-3.65,1.987-5.104c0.302-0.41-0.382-0.801-0.681-0.398
				c-0.9,1.208-1.053,2.545-1.534,3.935c-0.576,1.666-1.223,3.108-1.648,4.845c-0.44,1.8-1.249,3.581-1.897,5.326
				c-0.071,0.19-0.146,0.409-0.224,0.638c-0.999,0.346-2.047,0.531-3.106,0.646c0.127-0.298,0.247-0.607,0.375-0.946
				c0.642-1.695,1.499-3.268,2.167-4.949c0.684-1.722,1.073-3.534,1.787-5.245c0.575-1.377,1.15-2.554,1.339-4.05
				c0.067-0.533-0.767-0.526-0.836,0c-0.217,1.651-1.054,3.008-1.643,4.526c-0.658,1.696-1.016,3.473-1.766,5.139
				c-0.217,0.481-0.425,0.984-0.633,1.492c-0.001-0.218-0.008-0.437-0.009-0.656c-0.003-0.585-0.413-0.897-0.865-0.966
				c0.483-1.269,0.772-2.516,1.23-3.848c0.502-1.46,0.982-2.609,0.999-4.185c0.005-0.508-0.777-0.508-0.789,0
				c-0.035,1.469-0.564,2.536-1.041,3.887c-0.581,1.645-0.868,3.214-1.682,4.806c-0.646,1.264-1.431,2.457-2.061,3.726
				c-0.259,0.522-0.439,1.106-0.688,1.643c-1.107,0.158-2.196,0.414-3.281,0.693c0.706-1.641,1.102-3.398,1.85-5.019
				c0.674-1.461,1.71-2.734,2.298-4.239c0.664-1.702,0.928-3.633,1.335-5.406c0.1-0.435-0.567-0.621-0.671-0.185
				c-0.467,1.971-0.754,4.154-1.67,5.98c-0.724,1.445-1.761,2.69-2.378,4.196c-0.664,1.618-1.049,3.404-1.875,4.958
				c-1.286,0.332-2.575,0.645-3.894,0.791c-0.06,0.007-0.12,0.006-0.18,0.012c0.777-1.369,1.608-2.658,2.272-4.104
				c0.19-0.415,0.403-0.818,0.622-1.217c0.043,0.412,0.181,0.797,0.394,1.218c0.287,0.57,0.722,1.204,1.438,0.833
				c0.252-0.131,0.416-0.437,0.411-0.716c-0.008-0.376-0.083-0.682-0.212-1.027c-0.104-0.281-0.185-0.53-0.156-0.83
				c0.061-0.634-0.543-0.961-1.079-0.9c0.315-0.562,0.623-1.128,0.883-1.718c0.605-1.373,0.817-2.888,1.623-4.17
				c0.291-0.463-0.431-0.876-0.729-0.426c-0.678,1.026-0.929,2.103-1.349,3.242c-0.635,1.72-1.743,3.188-2.547,4.824
				c-0.845,1.717-1.768,3.393-2.695,5.068c-1.023,0.06-2.049,0.085-3.076,0.08c0.785-1.371,1.37-3.029,1.94-3.961
				c0.675-1.103,0.922-1.795,1.244-2.982c0.54-1.987,1.856-3.953,2.792-5.799c0.299-0.59-0.589-1.113-0.891-0.521
				c-1.198,2.355-2.361,4.54-3.182,7.028c-0.48,1.454-1.458,2.802-2.191,4.162c-0.323,0.6-0.641,1.351-1.012,2.064
				c-0.902-0.006-1.804,0-2.704,0.034c1.116-1.984,1.971-4.196,2.731-6.41c-0.005,0.127-0.017,0.253-0.013,0.381
				c0.008,0.298,0.44,0.451,0.59,0.16c1.052-2.052,1.617-4.066,1.345-6.26c0.04-0.111,0.079-0.225,0.119-0.334
				c0.065-0.176-0.07-0.276-0.215-0.282c-0.048-0.249-0.096-0.499-0.167-0.753c-0.323-1.16-1.231-3.862-2.904-3.207
				c-0.194,0.076-0.163,0.341,0.049,0.361c1.618,0.147,1.963,3.54,2.015,4.751c0.014,0.318-0.008,0.629-0.041,0.937
				c-0.893,2.201-1.791,4.4-2.767,6.568c-0.653,1.449-1.436,2.815-2.22,4.179c-1.589,0.123-3.175,0.326-4.759,0.578
				c1.404-1.453,2.727-3.194,3.501-4.874c0.879-1.908,1.935-4.219,2.189-6.323c0.056-0.463-0.758-0.578-0.821-0.111
				c-0.087,0.641-0.28,1.344-0.524,2.059c0.463-3.297-0.162-6.141-2.332-9.03c-0.882-1.174-1.942-1.923-3.293-2.403
				c0.644-0.244,1.312-0.462,2.02-0.633c2.614-0.633,4.881-1.318,7.113-2.258c2.071,0.075,3.977,0.619,6.145,1.801
				c2.644,1.442,4.882,3.2,5.697,6.234c0.18,0.672,1.135,0.5,1.174-0.159c0.29-4.897-4.456-8.62-9.439-9.631
				c0.291-0.163,0.58-0.32,0.875-0.495c4.093-2.423,9.182-3.258,13.743-4.452c2.851-0.746,5.368-1.587,8.037-0.111
				c3.31,1.829,3.424,5.028,4.185,8.198c0.218,0.91,0.599,1.923,0.965,2.963c-0.306,2.371-0.929,4.606-1.804,6.903
				c-0.49,1.285-1.269,4.1-2.467,6.004C99.456,84.101,98.288,84.915,97.022,85.53z M105.822,75.405
				c-0.297,1.758-1.278,4.615-2.357,6.699c-0.25-0.018-0.501,0.016-0.727,0.117c-0.173,0.078-0.341,0.166-0.51,0.252
				c0.344-0.85,0.615-1.688,0.858-2.274c1.145-2.764,1.933-5.387,2.36-8.169C105.785,73.202,105.999,74.362,105.822,75.405z
				 M105.935,60.251c-1.962-3.883-5.714-6.122-9.951-5.745c-2.314,0.206-4.839,0.736-7.358,1.428
				c-0.071-0.16-0.14-0.324-0.239-0.492c-0.174-0.296-0.413-0.435-0.64-0.672c-0.842-0.875-0.25-2.466,0.428-3.361
				c2.229,0.595,4.476,1.11,6.758,1.439c2.594,0.374,4.887,1.017,7.402,1.704c1.443,0.394,6.421,0.781,7.477,2.083
				c0.111,0.136,0.236,0.234,0.367,0.313c-0.129,2.585-0.869,4.88-3.41,5.704C106.571,61.822,106.319,61.01,105.935,60.251z
				 M117.594,67.921c-0.348-0.105-0.702-0.175-1.063-0.211c-1.037,0.147-2.348-0.232-3.411-0.239
				c-1.719-0.012-3.729,0.115-5.141,1.01c-0.043-0.132-0.092-0.261-0.131-0.396c-0.313-1.087-0.488-2.235-0.679-3.381
				c3.842-1.546,5.788-3.463,6.057-7.911c0.192-3.183-0.833-6.282-0.583-9.51c0.105-1.351,0.763-6.431,2.313-7.092
				c1.951-0.833,1.03,0.975,0.846,2.332c-0.353,2.616-0.679,5.25-1.058,7.862c-0.228,1.568-1.003,3.839,0.09,5.287
				c1.222,1.618,4.741,0.791,3.646,3.25c-0.639,1.437-3.136,1.865-3.897,3.49c-0.283,0.605-0.152,1.248,0.427,1.627
				c0.914,0.598,2.43,0.15,3.072,0.599C119.338,67.426,119.175,68.521,117.594,67.921z"/>
			<path d="M88.475,81.479c-0.539,0.465-0.96,1.17-1.232,1.819c-0.137,0.327-0.33,0.74-0.253,1.102
				c0.02,0.095,0.077,0.163,0.104,0.249c0.056,0.178-0.05-0.075,0.002,0.074c0.047,0.134,0.081,0.258,0.154,0.383
				c0.14,0.239,0.453,0.109,0.48-0.13c0.029-0.254,0.166-0.25,0.306-0.484c0.147-0.246,0.26-0.514,0.411-0.76
				c0.238-0.388,0.515-0.874,0.88-1.149C90.132,81.975,89.25,80.811,88.475,81.479z"/>
			<path d="M30.568,88.546c-0.339-0.262-0.712-0.481-1.062-0.729c-0.142-0.101-1.349-0.997-0.97-1.107
				c0.253-0.073,0.217-0.499-0.064-0.476c-0.151,0.013-0.301,0.025-0.452,0.038c-0.115,0.01-0.257,0.081-0.277,0.211
				c-0.165,1.024,1.003,1.808,1.685,2.363c0.621,0.505,2.801,2.654,1.416,3.167c-0.574,0.212-0.356,1.067,0.255,0.927
				c1.592-0.367,1.482-1.839,0.733-2.993C31.492,89.421,31.064,88.929,30.568,88.546z"/>
			<path d="M59.39,56.274c0.351,0.086,0.52-0.367,0.238-0.564c-0.748-0.523-1.147-2.269-1.411-3.161
				c-0.699-2.366,0.521-4.544,2.017-6.311c0.306-0.361-0.208-0.886-0.525-0.525c-1.518,1.731-3.213,4.053-2.713,6.507
				C57.233,53.376,58.043,55.945,59.39,56.274z"/>
			<path d="M21.031,43.426c0.489-1.342,1.173-2.487,1.724-3.784c0.161-0.378-0.373-0.717-0.567-0.331
				c-1.238,2.466-2.516,4.877-3.756,7.361c-1.117,2.238-1.986,4.841-1.638,7.353c0.026,0.184,0.314,0.165,0.354,0
				c0.718-2.962,1.313-5.647,2.841-8.33C20.424,44.934,20.735,44.239,21.031,43.426z"/>
		</g>
	</g>
</g>
<g>
</g>
<g>
</g>
<g>
</g>
<g>
</g>
<g>
</g>
<g>
</g>
<g>
</g>
<g>
</g>
<g>
</g>
<g>
</g>
<g>
</g>
<g>
</g>
<g>
</g>
<g>
</g>
<g>
</g>
</svg>
