<?xml version="1.0" encoding="iso-8859-1"?>
<!-- Generator: Adobe Illustrator 19.0.0, SVG Export Plug-In . SVG Version: 6.00 Build 0)  -->
<svg version="1.1" id="Layer_1" xmlns="http://www.w3.org/2000/svg" xmlns:xlink="http://www.w3.org/1999/xlink" x="0px" y="0px"
	 viewBox="0 0 118.768 118.768" style="enable-background:new 0 0 118.768 118.768;" xml:space="preserve">
<g>
	<g>
		<g>
			<path d="M111.857,89.481c-1.143-4.369-3.818-9.798-8.59-11.097c-3.162-0.86-6.288,0.309-8.933,2.084
				c0.727-3.071,1.088-6.296,1.52-9.545c1.046-7.853,0.23-16.454-1.233-24.251c-0.793-4.227-1.386-8.709-2.569-12.84
				c-0.308-1.075-0.736-2.1-1.211-3.107c0.186-0.181,0.312-0.42,0.304-0.7c-0.117-3.752,0.581-7.416,0.269-11.13
				c-0.183-2.171-1.124-5.152-3.795-5.488c-2.826-0.355-3.343,3.086-3.806,5.071c-0.926,3.965,0.203,6.957,2.207,10.412
				c5.383,9.282,6.782,21.369,7.682,31.957c0.654,7.7-0.726,15.015-2.707,22.271c-2.783-0.647-5.833-1.469-8.88-1.828
				c0.154-0.296,0.209-0.61,0.17-0.913c3.904-10.224-5.106-26.347-16.667-24.495c-2.71,0.434-4.447,1.941-6.524,3.646
				c-0.87,0.714-1.783,1.582-2.788,2.226c-0.203-0.162-0.415-0.315-0.607-0.485c-1.906-1.68-3.889-3.287-5.755-5.008
				c-4.572-4.216-8.332-9.819-11.987-14.854c-3.517-4.844-6.241-10.313-9.598-15.314c-1.473-2.194-2.187-4.304-2.99-6.78
				c-0.018-0.056-0.051-0.104-0.072-0.158c0.465-4.059,2.082-8.238,0.601-11.923c-1.115-2.773-2.486-6.771-5.854-7.176
				c-8.688-1.046-3.825,12.809-1.603,16.479c3.337,5.511,5.99,10.565,7.565,16.889c1.548,6.215,3.342,11.771,3.76,18.229
				c0.183,2.831,0.698,5.683,0.635,8.525c-0.071,3.16-0.926,6.268-1.385,9.394c-0.138,0.937-0.25,1.879-0.362,2.822
				c-3.169-2.721-9.987-2.195-13.195-0.78C9.73,74.14,7.557,80.826,6.754,86.535c-0.994,7.071-0.395,13.201,3.765,19.009
				c4.406,6.152,9.699,9.264,17.174,10.119c6.137,0.702,13.834,0.773,18.232-4.652c2.206-2.721,3.983-6.072,5.263-9.616
				c0.727,0.869,1.45,1.64,2.578,2.296c1.35,0.784,2.947,1.39,4.401,1.936c2.232,0.837,6.488,1.705,8.229-0.323
				c0.176-0.206,0.266-0.441,0.29-0.678c1.214,4.021,3.768,7.113,7.927,9.373c3.462,1.881,6.341,2.624,10.136,3.354
				c3.382,0.65,5.96,1.693,9.475,1.346c6.182-0.61,10.634-4.05,13.203-9.606C110.423,102.604,113.807,96.935,111.857,89.481z
				 M88.231,23.878c-0.053,0.404-0.098,0.812-0.136,1.219c-0.321-0.765-0.61-1.542-0.819-2.351
				c-0.317-1.226-1.066-4.068-0.439-5.113c0.073-0.383,0.146-0.765,0.218-1.147c0.583,0.592,1.165,1.184,1.748,1.776
				C89.46,19.85,88.444,22.255,88.231,23.878z M22.945,12.969c-0.257,1.337-0.495,2.449-0.623,3.457
				c-1.288-2.007-2.564-4.02-3.482-6.247c-0.111-0.268-2.451-6.939-1.017-7.67c1.417-0.723,5.015,3.157,5.379,4.594
				C23.682,9,23.316,11.047,22.945,12.969z M29.537,34.352c1.593,2.692,3.259,5.337,4.948,7.778c2.12,3.064,4.217,6.208,6.652,9.035
				c1.958,2.274,3.601,4.848,5.767,6.892c1.624,1.533,3.251,3.081,4.954,4.5c-0.335-0.022-0.677-0.032-1.044,0.008
				c-3.6,0.389-7.402,2.576-7.65,6.02c-3.788-0.796-8.055,0.271-11.565,2.084c0.609-2.89,1.051-5.823,1.325-8.754
				C33.802,52.517,31.741,43.359,29.537,34.352z M49.74,89.151c0.049-0.056,0.092-0.122,0.14-0.181
				c-0.015,0.572-0.04,1.133-0.079,1.671c-0.404,5.562-2.514,11.304-5.573,15.922c-2.946,4.446-7.528,5.599-12.377,5.539
				c0.009-0.027,0.028-0.043,0.028-0.077c0.006-1.311-0.307-2.567-0.201-3.88c0.092-1.14,0.302-2.246,0.379-3.389
				c0.167-2.476,0.432-4.73,0.349-7.231c-0.013-0.376-0.594-0.378-0.586,0c0.096,4.764-2.222,9.99-0.465,14.566
				c-1.045-0.03-2.101-0.11-3.153-0.226c-2.659-0.292-5.003-0.882-7.125-1.84c0.012,0,0.024,0,0.036,0
				c0.298,0,0.473-0.56,0.164-0.692c-0.926-0.396,0.032-4.603,0.12-5.018c0.083-0.393,0.181-0.783,0.286-1.173
				c0.224,0.213,0.463,0.411,0.707,0.606c0.161,0.129,0.491,0.123,0.529-0.14c0.096-0.662-0.322-0.995-0.453-1.592
				c-0.075-0.342-0.048-0.763-0.117-1.129c0.092-0.3,0.184-0.599,0.271-0.898c0.907-3.103,1.554-6.269,2.845-9.249
				c0.205-0.473-0.489-0.9-0.702-0.421c-1.333,3.009-2.061,6.199-3.009,9.336c-0.19-0.09-0.457-0.067-0.587,0.094
				c-0.04,0.013-0.079,0.025-0.119,0.038c-0.223,0.035-0.221,0.347-0.059,0.45c-0.007-0.004-0.126,0.648-0.162,0.857
				c-0.073,0.421-0.073,0.798,0.139,1.17c-0.689,2.408-1.182,4.881-0.665,7.371c0.001,0.006,0.006,0.012,0.007,0.018
				c-1.217-0.619-2.361-1.371-3.448-2.273c0.111-0.038,0.229-0.089,0.361-0.171c0.142-0.088,0.142-0.363-0.051-0.393
				c-1.222-0.188-0.768-2.739,0.297-5.897c0.102,0.135,0.218,0.266,0.364,0.386c0.174,0.143,0.389,0.155,0.563,0
				c0.731-0.647,0.569-1.74,0.701-2.616c0.153-1.015,0.567-1.954,0.67-2.985c0.014-0.139-0.035-0.271-0.105-0.392
				c1.538-3.566,3.09-6.68,3.292-7.09c0.224-0.453-0.453-0.853-0.681-0.398c-1.154,2.297-2.38,4.603-3.467,6.963
				c-0.676-0.189-1.165,0.603-0.822,1.143c-0.275,0.948-0.808,2.107-0.928,3.18c-0.351,1.017-0.668,2.044-0.911,3.093
				c-0.093,0.401-0.576,2.835-0.342,4.24c-0.718-0.683-1.411-1.444-2.087-2.277c0.056-0.043,0.099-0.108,0.083-0.194
				c-0.42-2.368,0.045-4.437,0.872-6.437c0.39,0.213,0.896,0.147,1.19-0.311c0.763-1.186,0.851-2.498,0.901-3.862
				c1.733-3.214,3.387-6.467,5.169-9.654c0.231-0.413-0.4-0.782-0.634-0.371c-1.626,2.849-3.244,5.728-4.809,8.626
				c-0.348-0.198-0.886-0.09-1.029,0.379c-0.259,0.847-0.559,1.706-0.878,2.531c-0.243,0.628-0.544,1.065-0.486,1.658
				c-1.005,2.096-1.852,4.619-1.027,6.793c-2.419-3.239-4.145-7.177-4.211-11.359c-0.012-0.74,0.01-1.517,0.068-2.316
				c2.339-4.713,11.193-13.652,12.424-14.891c0.302-0.304-0.163-0.767-0.47-0.47c-4.1,3.976-7.609,8.093-11.162,12.543
				c-0.128,0.161-0.334,0.444-0.567,0.799c0.323-2.235,0.92-4.54,1.863-6.618c0.672-0.49,1.362-0.939,1.979-1.374
				c2.143-1.512,3.858-3.756,6.235-4.923C19.48,74.59,19.252,74.188,19,74.33c-2.658,1.507-4.994,3.685-7.433,5.561
				c1.196-2.219,2.83-4.083,4.98-5.169c2.347-1.185,4.944-1.248,7.508-0.867c0.943,0.14,2.299,0.757,3.251,0.664
				c0.768-0.075,0.88-0.219,1.131-0.423c-0.125,0.979-0.26,1.956-0.442,2.925c-0.232,1.231-0.691,2.464-0.85,3.704
				c-1.347,0.046-2.635-0.461-3.698-1.897c-0.194-0.262-0.603-0.247-0.707,0.092c-0.435,1.419,0.834,2.727,1.921,3.488
				c1.644,1.153,3.764,1.105,5.586,0.392c1.308-0.513,8.927-3.771,6.66-6.271c-0.253-0.279-0.657-0.346-1.008-0.266
				c-0.227,0.051-0.373,0.143-0.569,0.274c-0.061,0.041-0.112,0.091-0.154,0.146c0.108-0.046,0.184,0.025-0.088,0.171
				c0.021-0.06,0.047-0.118,0.087-0.169c-0.061,0.026-0.129,0.091-0.151,0.202c0-0.001,0-0.001,0-0.002
				c-0.069,0.033-0.148,0.069-0.254,0.108c-0.24,0.09-0.498,0.341-0.717,0.481c-0.846,0.537-1.698,1.06-2.539,1.605
				c-0.876,0.567-1.806,1.053-2.739,1.349c0.831-2.19,1.538-4.448,2.128-6.748c5.826,0.396,12.207-4.963,16.363,2.168
				c1.968,3.376,2.63,8.092,2.618,12.235c-0.119,0.301-0.256,0.589-0.426,0.85C49.348,89.102,49.605,89.305,49.74,89.151z
				 M35.024,76.887c0.021-0.01,0.045-0.021,0.063-0.031c0-0.001,0.001-0.001,0.001-0.002c-0.049,0.144-0.045,0.304,0.04,0.452
				C35.022,77.123,35.004,76.988,35.024,76.887z M66.627,90.949c-0.776,0.896-1.273,1.962-1.734,3.053
				c-0.289,0.686-0.563,1.376-0.885,2.048c-0.153,0.319-0.74,2.091-0.975,2.179c-0.3,0.112-0.287,0.62,0.081,0.599l0.403-0.024
				c0.167-0.01,0.303-0.107,0.353-0.269c0.38-1.226,1.022-2.357,1.518-3.54c0.248-0.591,0.492-1.193,0.774-1.774
				c-0.352,2.283-0.405,4.597-0.289,6.637c0.081,1.431,0.285,2.767,0.604,4.022c-0.031-0.043-0.046-0.092-0.085-0.134
				c-1.66-1.843-4.626-0.649-6.846-1.328c-0.243-0.074-0.502-0.152-0.765-0.232c0.013-0.015,0.032-0.019,0.041-0.039
				c1.131-2.548,2.003-5.209,3.134-7.77c0.547-1.237,1.315-2.343,1.832-3.594c0.62-1.501,0.989-3.082,1.636-4.577
				c0.18-0.417-0.427-0.787-0.621-0.363c-0.581,1.272-0.977,2.596-1.479,3.898c-0.516,1.338-1.319,2.488-1.964,3.746
				c-0.003-0.115-0.026-0.231-0.099-0.341c-0.126-0.19-0.252-0.381-0.379-0.571c-0.297-0.449-0.709-0.507-1.047-0.363
				c1.059-2.858,2.129-5.711,3.132-8.59c0.157-0.45-0.544-0.632-0.708-0.195c-1.182,3.134-2.395,6.256-3.611,9.376
				c-0.572,1.468-1.284,2.97-1.637,4.511c-0.207,0.903-0.06,2.486-1.018,3.004c-0.251,0.136-0.069,0.481,0.184,0.435
				c1.676-0.3,1.909-3.751,2.358-5.007c0.269-0.753,0.552-1.5,0.828-2.25c0.07,0.105,0.165,0.206,0.301,0.296
				c0.19,0.126,0.381,0.252,0.571,0.379c0.275,0.182,0.584,0.115,0.812-0.062c-1.167,2.553-2.577,5.041-2.676,7.914
				c0,0.016,0.012,0.027,0.015,0.042c-1.706-0.516-3.693-1.143-5.35-1.956c0.313-2.101,1.911-4.955,2.336-6.028
				c0.192-0.486,0.367-0.979,0.549-1.47c0.012,0.303,0.057,0.604,0.16,0.867c0.221,0.567,1.141,1.303,1.731,0.745
				c0.092-0.087,0.103-0.233,0.044-0.341c-0.095-0.172-0.241-0.275-0.298-0.47c-0.058-0.201-0.107-0.426-0.162-0.635
				c-0.119-0.456-0.188-0.932-0.343-1.375c-0.089-0.254-0.346-0.361-0.57-0.298c0.32-0.882,0.639-1.764,0.985-2.637
				c0.51-1.286,1.028-2.569,1.48-3.876c0.163-0.472,0.815-3.661,1.257-3.732c0.445-0.071,0.25-0.729-0.185-0.671
				c-0.135,0.018-0.271,0.037-0.406,0.055c-0.115,0.016-0.22,0.14-0.246,0.246c-1.336,5.371-3.725,10.59-5.875,15.681
				c-0.284,0.673-0.944,2.146-1.225,3.531c-0.145-0.083-0.298-0.162-0.434-0.249c0.985-3.236,1.556-6.566,1.652-9.675
				c0.003-0.084,0.003-0.17,0.006-0.254c0.179-0.638,0.359-1.277,0.535-1.919c0.423-1.542,1.226-2.789,1.912-4.205
				c0.597-1.232,0.892-2.548,1.409-3.811c0.103-0.252-0.326-0.435-0.443-0.187c-0.677,1.446-1.151,2.948-1.934,4.35
				c-0.564,1.01-1.085,1.937-1.47,2.99c-0.032-1.503-0.135-3.033-0.347-4.548c1.155-2.412,2.449-4.639,3.78-6.982
				c0.236-0.416-0.404-0.79-0.641-0.375c-1.14,2-2.393,3.881-3.371,5.955c-0.158-0.833-0.354-1.655-0.595-2.461
				c0.334-0.852,0.52-1.772,0.768-2.696c0.544-2.029,1.911-3.62,2.699-5.561c0.079-0.195-0.257-0.339-0.343-0.145
				c-0.719,1.618-1.911,2.969-2.518,4.613c-0.363,0.984-0.552,2.032-0.84,3.039c-0.765-2.26-1.907-4.354-3.592-6.094
				c-0.916-0.946-1.945-1.643-3.04-2.149c0.61-1.183,1.366-2.159,2.857-2.847c1.947-0.898,3.452-0.199,5.293-0.336
				c0.815-0.061,1.577-0.308,2.298-0.668c1.124,0.67,2.298,1.248,3.545,1.696c-0.447,0.357-0.995,0.702-1.429,1.008
				c-0.88,0.62-1.447,0.258-2.412,0.387c-0.431,0.057-0.615,0.564-0.225,0.83c0.602,0.41,1.283,0.92,2.024,1.017
				c0.91,0.118,1.686-0.432,2.497-0.735c1.573-0.589,3.208-1.28,3.948-2.938c0.409-0.916,0.069-1.749-0.861-2.118
				c-1.056-0.418-1.63,0.048-2.103,0.705c-0.666-0.672-1.437-1.255-2.225-1.824c0.801-0.716,1.553-1.474,2.274-2.136
				c5.742-5.271,11.137-2.655,15.006,3.174c2.738,4.125,5.05,10.553,2.493,15.342c-0.227,0.424-0.269,0.853-0.189,1.245
				c-2.181,0.115-4.302,0.615-6.254,1.77C69.106,84.62,67.479,87.638,66.627,90.949z M105.428,104.563
				c-2.335,5.188-4.513,9.255-10.547,10.393c-4.267,0.805-10.42-0.683-14.491-2.14c-0.819-0.293-1.616-0.618-2.39-0.972
				c0.344-0.828,0.865-1.669,1.104-2.32c0.325-0.888,0.646-1.756,0.988-2.613c0.041-0.016,0.079-0.025,0.122-0.045
				c0.337-0.157,0.635-0.653,0.59-1.028c-0.02-0.159-0.036-0.318-0.054-0.478c0.188-0.415,0.383-0.829,0.594-1.242
				c1.359-2.656,2.075-5.098,2.031-8.093c-0.005-0.337-0.517-0.337-0.523,0c-0.06,3.021-1.214,5.447-2.403,7.954
				c-0.504-0.742-1.755-0.571-1.878,0.546c-0.048,0.438-0.093,0.876-0.147,1.313c-0.046,0.374,0.253,0.87,0.59,1.028
				c0.047,0.022,0.088,0.032,0.132,0.049c-0.067,0.167-0.14,0.329-0.203,0.499c-0.519,1.389-1.175,2.698-1.751,4.044
				c-2.77-1.387-5.137-3.237-6.708-5.802c0.407-1.051,0.915-2.043,1.096-2.477c0.631-1.509,1.34-2.983,1.988-4.484
				c0.679-1.573,1.546-2.886,2.326-4.388c0.763-1.469,1.224-2.856,2.491-4.011c0.366-0.334-0.174-0.866-0.541-0.541
				c-1.315,1.162-1.86,2.615-2.676,4.128c-0.893,1.655-1.865,3.169-2.64,4.895c-0.719,1.602-1.942,3.605-2.713,5.628
				c-0.363-0.771-0.669-1.593-0.893-2.484c-0.175-0.698-0.304-1.451-0.395-2.232c0.456-1.063,1.111-2.022,1.63-3.055
				c0.692-1.379,1.185-2.85,2.167-4.067c0.488-0.604,1.097-1.107,1.553-1.739c0.797-1.106,0.966-2.637,1.898-3.641
				c0.199-0.215-0.104-0.516-0.32-0.32c-1.019,0.92-1.013,1.86-1.72,3.027c-0.709,1.171-1.913,1.982-2.658,3.137
				c-0.887,1.377-2.008,3.236-2.676,5.022c-0.206-5.797,1.917-12.61,7.613-13.906c5.041-1.147,9.618,1.121,14.475,0.786
				c-0.387,1.354-0.788,2.707-1.2,4.061c-1.4-0.147-2.513-0.603-3.884-1.462c-0.472-0.296-1.114,0.307-0.786,0.786
				c1.549,2.259,3.199,3.482,5.996,3.689c3.226,0.239,5.11-1.725,5.644-4.801c0.079-0.456-0.297-1.01-0.822-0.822
				c-1.877,0.674-2.76,2.598-4.784,2.66c1.073-1.498,1.88-3.089,2.515-4.747c2.615-0.806,4.87-2.888,7.809-2.7
				c3.595,0.229,6.226,4.407,7.133,7.539C109.807,94.992,107.781,99.335,105.428,104.563z"/>
			<path d="M20.775,79.431c-0.738,1.754-2.574,2.375-3.707,3.777c-1.294,1.601-2.221,3.611-3.271,5.375
				c-1.023,1.719-2.043,3.445-3.009,5.197c-0.595,1.078-1.18,2.062-0.923,3.312c0.05,0.241,0.455,0.251,0.497,0
				c0.301-1.793,1.539-3.351,2.428-4.907c1.071-1.874,2.179-3.726,3.258-5.595c1.047-1.813,1.916-3.17,3.522-4.533
				c0.853-0.724,1.515-1.373,1.882-2.44C21.603,79.18,20.945,79.027,20.775,79.431z"/>
			<path d="M28.256,92.926c-0.499,2.173-1.095,4.318-1.619,6.482c-0.391,1.616-0.446,3.277-0.828,4.895
				c-0.567,2.4-1.367,4.766,0.436,6.796c0.202,0.227,0.645,0.054,0.62-0.257c-0.008-0.106-0.017-0.212-0.025-0.318
				c-0.015-0.185-0.243-0.313-0.387-0.16c0.117-0.124-0.354-2.077-0.353-2.415c0.004-0.793,0.215-1.561,0.383-2.33
				c0.221-1.01,0.481-1.993,0.605-3.021c0.385-3.209,1.209-6.311,1.883-9.475C29.07,92.658,28.363,92.458,28.256,92.926z"/>
			<path d="M36.153,99.025c-0.389,3.441-1.824,7.015-1.363,10.5c0.042,0.32,0.582,0.486,0.637,0.086
				c0.48-3.534,1.272-7.043,1.648-10.586C37.137,98.434,36.218,98.442,36.153,99.025z"/>
			<path d="M80.78,90.829c-1.46,3.027-2.763,6.03-3.989,9.104c-0.527-0.06-1.105,0.189-1.273,0.789
				c-0.151,0.54-0.463,1.011-0.619,1.553c-0.183,0.635-0.16,1.242-0.107,1.892c0.016,0.197,0.072,0.382,0.154,0.551
				c-0.712,1.978-1.667,5.266,0.168,5.095c0.258-0.024,0.428-0.4,0.146-0.539c-0.647-0.318-0.213-2.085,0.396-3.831
				c0.381,0.239,0.886,0.198,1.173-0.21c0.345-0.24,0.557-0.615,0.574-1.067c0.02-0.524,0.007-1.062,0.087-1.577
				c0.081-0.527,0.218-1.031,0.261-1.566c0.019-0.231-0.045-0.414-0.138-0.574c1.197-3.106,2.444-6.185,3.835-9.231
				C81.652,90.773,80.997,90.378,80.78,90.829z"/>
			<path d="M86.332,97.525c-0.215,1.764-1.176,3.133-1.846,4.721c-0.629,1.493-0.996,3.075-1.599,4.579
				c-0.635,1.585-2.017,4.013-1.635,5.779c0.053,0.245,0.319,0.352,0.542,0.308c0.696-0.138,0.672-0.138,1.035-0.761
				c0.126-0.217-0.126-0.467-0.342-0.342c-0.286,0.165,0.44-2.519,0.554-2.833c0.503-1.394,1.058-2.769,1.477-4.191
				c0.715-2.428,2.23-4.702,2.377-7.261C86.916,97.156,86.375,97.175,86.332,97.525z"/>
			<path d="M91.399,97.465c-1.223,3.076-2.844,6.009-3.878,9.16c-0.734,2.236-1.898,5.03-1.61,7.399
				c0.026,0.213,0.335,0.293,0.399,0.054c1.487-5.598,3.62-11.019,5.519-16.495C91.924,97.309,91.502,97.205,91.399,97.465z"/>
			<path d="M93.673,102.403c-0.593,3.713-3.313,7.304-2.391,11.213c0.078,0.328,0.584,0.327,0.663,0
				c0.466-1.94,0.459-3.939,1.076-5.858c0.567-1.764,1.341-3.372,1.55-5.233C94.627,102.017,93.754,101.894,93.673,102.403z"/>
		</g>
	</g>
</g>
<g>
</g>
<g>
</g>
<g>
</g>
<g>
</g>
<g>
</g>
<g>
</g>
<g>
</g>
<g>
</g>
<g>
</g>
<g>
</g>
<g>
</g>
<g>
</g>
<g>
</g>
<g>
</g>
<g>
</g>
</svg>
