<?xml version="1.0" encoding="iso-8859-1"?>
<!-- Generator: Adobe Illustrator 19.0.0, SVG Export Plug-In . SVG Version: 6.00 Build 0)  -->
<svg version="1.1" id="Layer_1" xmlns="http://www.w3.org/2000/svg" xmlns:xlink="http://www.w3.org/1999/xlink" x="0px" y="0px"
	 viewBox="0 0 121.998 121.998" style="enable-background:new 0 0 121.998 121.998;" xml:space="preserve">
<g>
	<g>
		<g>
			<path d="M38.919,63.184c0.445,0.298,0.896-0.35,0.554-0.718c-2.114-2.279-4.778-3.749-7.133-5.751
				c-2.395-2.036-4.573-4.122-6.632-6.484c-0.06-0.069-0.186,0.025-0.129,0.099c1.904,2.468,3.816,4.908,5.979,7.167
				C33.718,59.754,36.34,61.457,38.919,63.184z"/>
			<path d="M74.414,63.555c1.635-1.448,2.104-4.131,2.672-6.135c0.573-2.02,1.222-7.659,3.638-8.359
				c0.291-0.084,0.251-0.592-0.075-0.552c-2.027,0.248-2.894,2.259-3.557,3.974c-0.637,1.646-1.216,3.366-1.696,5.062
				c-0.516,1.826-0.627,3.889-1.571,5.556C73.61,63.481,74.1,63.834,74.414,63.555z"/>
			<path d="M118.344,78.171c-1.233-5.366-7.743-9.179-12.625-7.305c-2.1,0.472-4.175,1.062-6.332,1.019
				c-2.331-0.047-4.225-1.316-6.539-1.177c-1.95,0.118-4.055,1.214-5.904,1.765c-1.317,0.392-2.508,0.63-3.676,0.761
				c4.915-4.577,7.395-11.25,9.581-17.517c1.218-3.492,2.216-7.068,3.307-10.574c1.244-3.996,3.96-7.681,4.689-11.852
				c0.161-0.919-0.802-1.965-1.734-1.333c-0.155,0.105-0.317,0.195-0.476,0.291c0.721-1.25,1.328-2.582,1.886-3.813
				c0.533-1.174,0.709-1.723,0.759-3.05c0.098-2.632,0.245-4.471,0.911-7.048c0.901-3.483,1.281-8.11,1.318-11.663
				c0.03-2.897-1.22-4.418-3.917-5.508c-7.284-2.943-10.639,4.505-15.32,8.251c-2.894,2.316-7.671,4.898-10.047,8.466
				c-0.657,0.316-1.33,0.601-2.044,0.815c-0.038,0.011-0.067,0.035-0.091,0.063c-0.503-1.012-1.08-1.903-1.736-2.526
				c-0.469-0.446-1.173-0.222-1.376,0.363c-1.456,4.182-2.603,8.357-4.813,12.218c-1.479,2.583-2.835,5.074-3.761,7.919
				c-1.101,3.384-2.049,6.835-3.111,10.233c-0.045,0.145-0.102,0.304-0.156,0.459c-0.153-0.538-0.314-1.076-0.489-1.613
				c-0.814-2.503-1.755-4.97-2.29-7.551c-0.372-1.794-0.492-3.587-1.549-5.144c-2.366-3.485-7.114-6.187-10.334-8.931
				c-0.494-0.421-1.338-0.39-1.668,0.18c-0.529-1.628-1.727-3.069-2.548-4.851c-1.298-2.818-2.698-5.407-4.714-7.784
				c-2.414-2.845-2.676-5.744-6.478-7.139c-1.087-0.399-2.558-0.46-3.576-1.046c-1.102-0.635-1.985-2.066-3.158-2.691
				C19.2,0.255,18.332,0.092,17.064,0.02C10.543-0.351,6.852,4.488,7.532,10.817c0.31,2.886,0.623,5.476,0.208,8.392
				c-0.27,1.9-0.525,3.347-0.221,5.347c0.298,1.959,0.729,4.334,1.568,6.437c-0.053,0.263-0.095,0.528-0.122,0.797
				c-0.02,0.211,0.305,0.242,0.361,0.049c0.016-0.054,0.039-0.104,0.056-0.158c0.396,0.861,0.864,1.665,1.443,2.345
				c-1.123-0.137-2.266-0.308-3.447-0.574c-0.453-0.102-0.928,0.068-1.17,0.476c-1.385,2.338,0.954,6.406,1.518,8.819
				c1.458,6.243,3.353,13.32,5.824,19.225c0.808,1.931,2.405,3.194,3.548,4.923c1.57,2.375,2.97,4.523,5.146,6.451
				c0.646,0.573,1.384,1.214,2.174,1.872c0.003,0.024,0.001,0.047,0.004,0.071c0.023,0.176,0.189,0.236,0.314,0.191
				c1.911,1.57,4.131,3.204,6.351,4.261c-0.641,0.249-1.278,0.516-1.91,0.79c-2.475,1.074-4.554,2.415-7.169,3.16
				c-2.027,0.577-3.997,1.144-5.939,1.985c-1.839,0.797-3.965,1.664-5.411,3.109c-0.3,0.3-0.549,0.64-0.778,0.995
				c-3.112,1.326-5.172,5.045-6.298,8.066c-1.746,4.684-0.77,10.382,1.716,14.776c-0.032,0.437,0.132,0.784,0.559,0.927
				c0.063,0.098,0.122,0.199,0.187,0.296c2.68,3.998,6.844,6.707,11.523,7.51c2.669,0.458,5.229,1.031,7.887,0.278
				c1.237-0.35,2.316-1.1,3.544-1.465c1.714-0.51,2.538,0.055,4.079,0.272c2.206,0.31,4.169-0.114,6.23-1.03
				c1.444-0.642,2.838-1.766,4.37-2.174c2.239-0.598,4.902,0.057,7.204-0.098c2.967-0.199,5.685-1.259,8.492-2.163
				c4.15-1.337,8.229-1.387,12.501-1.913c3.727-0.459,7.109-2.067,10.748-2.91c4.034-0.935,7.582-1.381,11.405-3.009
				c2.845-1.211,5.825-1.1,8.621-2.148c2.57-0.964,5.265-2.71,7.616-4.154c0.163-0.1,0.278-0.229,0.369-0.369
				c3.05-1.376,5.957-3.426,7.283-6.251C119.981,89.823,119.401,82.77,118.344,78.171z M100.565,78.742
				c1.224,1.228,2.158,2.798,2.754,4.755c-1.774,0.069-3.533-0.033-5.297,0.248c-0.17,0.027-0.332,0.065-0.493,0.103
				c-0.591-1.483-1.319-2.891-2.433-4.063c0.662-0.206,1.323-0.418,1.982-0.64C98.338,78.722,99.427,78.658,100.565,78.742z
				 M94.05,93.105c-0.343,0.198-0.676,0.403-1.014,0.604c-2.776,0.65-5.558,1.432-8.322,2.207c-0.039-0.542-0.093-1.082-0.161-1.621
				c-0.047-0.381-0.114-0.759-0.187-1.138c2.068-1.08,4.577-2.129,6.072-3.85c0.279,1.191,0.422,2.426,0.77,3.604
				c0.132,0.447,0.738,0.421,0.881,0c0.745-2.189,0.757-4.035,0.254-5.765c0.135-0.011,0.271-0.009,0.405-0.024
				c1.494-0.168,2.6-1.021,3.999-1.48c0.007-0.002,0.015-0.004,0.022-0.006c0.191,0.559,0.372,1.12,0.552,1.673
				c0.314,0.963,0.537,1.989,0.703,3.037C96.699,91.265,95.447,92.302,94.05,93.105z M98.175,91.392
				c0.059,0.501,0.107,1.004,0.144,1.505c-0.87,0.095-1.74,0.193-2.605,0.316C96.547,92.628,97.355,92.006,98.175,91.392z
				 M88.509,96.527c-1.137,0.732-2.274,1.469-3.432,2.205c-0.1,0.064-0.203,0.124-0.304,0.188c0.014-0.461,0.023-0.922,0.015-1.383
				C86.03,97.208,87.269,96.867,88.509,96.527z M73.317,97.745c-0.011-0.655-0.069-1.306-0.144-1.958
				c0.305-0.227,0.616-0.447,0.919-0.677c0.949-0.716,1.893-1.445,2.852-2.154c0.16,1.182,0.23,2.458,0.23,3.678
				c-0.373,0.265-0.741,0.537-1.112,0.806C75.144,97.518,74.227,97.605,73.317,97.745z M73.497,99.341
				c-0.094,0.071-0.189,0.142-0.283,0.213c0.007-0.06,0.02-0.121,0.026-0.18C73.325,99.361,73.411,99.353,73.497,99.341z
				 M76.307,89.133c-0.174-0.191-0.47,0.053-0.35,0.27c0.365,0.661,0.637,1.559,0.83,2.574c-0.55,0.36-1.096,0.729-1.633,1.133
				c-0.706,0.532-1.419,1.055-2.128,1.582c-0.134-0.914-0.284-1.85-0.426-2.815c0.144-0.114,0.287-0.227,0.431-0.341
				c0.993-0.786,1.95-2.182,3.164-2.581c0.212-0.07,0.125-0.371-0.091-0.331c-0.814,0.148-1.129,0.504-1.753,0.989
				c-0.617,0.479-1.244,0.944-1.872,1.408c-0.011-0.083-0.025-0.161-0.035-0.245c-0.033-0.272-0.081-0.54-0.124-0.81
				c0.806-0.264,1.599-0.57,2.38-0.936c2.066-0.969,3.706-1.395,6.03-1.458c0.427-0.012,0.854-0.033,1.28-0.056
				c0.026,0.426,0.07,0.848,0.122,1.27c-0.695,0.24-1.275,0.631-1.998,1.09c-0.819,0.52-1.632,1.01-2.437,1.514
				C77.32,90.548,76.88,89.76,76.307,89.133z M69.462,105.46c-0.87-0.117-1.736-0.297-2.613-0.371
				c1.327-0.948,2.673-1.878,4.014-2.806C70.477,103.328,70.005,104.375,69.462,105.46z M71.229,107.021
				c-0.051,0.035-0.106,0.065-0.156,0.1c-0.42,0.293-0.893,0.707-1.398,1.108c0.259-0.429,0.503-0.838,0.684-1.204
				c0.148,0.007,0.295,0.028,0.445,0.026C70.947,107.049,71.087,107.03,71.229,107.021z M65.75,105.062
				c-1.306,0.026-2.606,0.22-3.893,0.504c0.005-0.429-0.001-0.868-0.005-1.319c0.968-0.796,1.951-1.581,2.978-2.345
				c0.682-0.507,1.372-1.003,2.058-1.504c1.239-0.04,2.472-0.144,3.669-0.479c0.353-0.099,0.707-0.175,1.061-0.251
				c-0.085,0.442-0.197,0.879-0.323,1.314C69.455,102.356,67.605,103.712,65.75,105.062z M50.882,108.338
				c-0.875,0.198-1.742,0.409-2.628,0.6c-0.144,0.031-0.29,0.061-0.434,0.091c0.472-1.004,0.889-1.978,1.166-3.013
				c0.767-0.696,1.516-1.415,2.273-2.124c1.072-0.274,2.129-0.553,3.166-0.859c-0.011,0.813-0.062,1.621-0.154,2.421
				C53.122,106.391,51.99,107.349,50.882,108.338z M54.126,106.494c-0.064,0.387-0.139,0.772-0.227,1.154
				c-0.553,0.135-1.115,0.252-1.668,0.381C52.858,107.51,53.49,106.999,54.126,106.494z M44.664,108.922
				c-0.361,0.325-0.698,0.667-1.043,1.003c-1.293,0.286-2.581,0.594-3.843,0.964c0.024-0.32,0.044-0.641,0.059-0.962
				c0.024-0.52,0.053-1.04,0.078-1.561c0.731-0.664,1.457-1.334,2.2-1.983c1.664-0.422,3.322-0.92,4.966-1.39
				c-0.061,0.665-0.166,1.323-0.298,1.977C46.077,107.621,45.38,108.278,44.664,108.922z M46.514,108.208
				c-0.088,0.383-0.174,0.767-0.26,1.152c-0.455,0.095-0.91,0.193-1.366,0.289C45.436,109.173,45.971,108.687,46.514,108.208z
				 M34.899,112.128c-0.768,0.104-1.537,0.162-2.309,0.184c0.126-0.596,0.245-1.184,0.347-1.757
				c1.013-0.977,2.049-1.925,2.963-3.012c0.077-0.091,0.15-0.186,0.225-0.278c0.556,0.025,1.114,0.025,1.673-0.038
				c0.281-0.032,0.562-0.079,0.842-0.121c0.002,0.429-0.008,0.868-0.023,1.308C37.358,109.63,36.122,110.876,34.899,112.128z
				 M38.553,109.595c-0.044,0.588-0.104,1.169-0.192,1.72c-0.001,0-0.003,0.001-0.004,0.001c-0.77,0.263-1.53,0.463-2.287,0.615
				C36.895,111.149,37.719,110.367,38.553,109.595z M24.465,105.656c-0.141-0.276-0.289-0.563-0.441-0.882
				c-0.126-0.264-0.214-0.526-0.285-0.787c0.593-0.633,1.211-1.247,1.865-1.874c0.663-0.636,1.324-1.289,1.587-2.134
				c1.02-0.445,1.986-0.972,2.627-1.648c0.142-0.034,0.285-0.073,0.427-0.111c0.256,0.91,0.479,1.849,0.674,2.803
				c-0.952,1.266-1.972,2.49-2.965,3.729C26.816,105.113,25.615,105.37,24.465,105.656z M24.599,113.354
				c-0.099,0.118-0.199,0.237-0.298,0.355c0.035-0.116,0.066-0.235,0.102-0.351C24.468,113.359,24.534,113.354,24.599,113.354z
				 M14.156,100.542c0.058,0.12,0.112,0.244,0.163,0.369c-0.088,0.094-0.167,0.203-0.263,0.284
				c-0.106,0.089,0.008,0.254,0.129,0.222c0.095-0.025,0.188-0.08,0.282-0.116c0.12,0.342,0.215,0.679,0.282,0.984
				c-0.233,0.047-0.465,0.093-0.7,0.143c-0.344,0.073-0.371,0.673,0,0.723c0.262,0.035,0.543,0.044,0.819,0.059
				c-0.002,0.799-0.091,1.689-0.161,2.595c-0.308,0.45-0.618,0.899-0.93,1.346c-0.771-0.393-0.902-0.752-0.958-1.722
				C12.72,103.733,12.46,101.537,14.156,100.542z M12.363,99.049c0.569-0.112,1.064,0.286,1.46,0.891
				C13.243,99.734,12.759,99.432,12.363,99.049z M14.647,107.023c-0.004,0.162-0.015,0.326-0.014,0.487
				c-0.087-0.032-0.172-0.069-0.259-0.102C14.465,107.28,14.556,107.151,14.647,107.023z M12.967,109.908
				c0.004-0.012,0.015-0.014,0.018-0.026c0.023-0.106,0.045-0.212,0.068-0.318c0.007-0.031,0.004-0.062,0.003-0.092
				c0.62,0.223,1.246,0.303,1.881,0.272c0.024,0.026,0.048,0.051,0.072,0.077c0.101,0.26,0.217,0.513,0.371,0.746l0.031-0.031
				c0.223,0.349,0.656,0.573,1.061,0.41c0.352,0.214,0.688,0.393,0.96,0.526c-0.444,0.828-0.902,1.61-1.428,2.347
				c-0.179-0.092-0.354-0.197-0.521-0.323c-1.094-0.825-1.833-2.065-2.615-3.205C12.902,110.162,12.936,110.031,12.967,109.908z
				 M26.516,92.29c-0.005-0.232,0.036-0.444,0.099-0.646c0.113-0.067,0.226-0.137,0.34-0.204c1.372,1.846,2.392,3.863,2.882,5.403
				c0.025,0.079,0.047,0.163,0.072,0.243c-0.837,0.935-2.5,1.049-3.633,1.502c-0.851,0.34-1.685,0.728-2.518,1.114
				c0.029-0.521,0.028-1.049-0.054-1.59c-0.205-1.336-0.809-2.702-1.629-3.954c1.192-0.739,2.451-1.351,3.71-2.041
				c0,0.058-0.006,0.113-0.002,0.172C25.809,92.758,26.526,92.766,26.516,92.29z M26.586,100.235
				c-0.646,1.025-1.847,1.671-2.755,2.464c-0.093,0.081-0.173,0.175-0.262,0.259c-0.035-0.534-0.007-1.068,0.044-1.604
				C24.397,101.025,25.493,100.672,26.586,100.235z M22.35,104.3c-0.564,0.716-1.076,1.476-1.568,2.234
				c-1.021,0.155-2.109,0.215-3.057,0.039c-0.024-1.047-0.127-2.091-0.176-2.987c-0.004-0.072-0.01-0.139-0.015-0.209
				c0.079-0.083,0.154-0.169,0.233-0.251c0.508-0.049,1.004-0.105,1.466-0.166c1.074-0.141,1.99-0.524,2.93-0.954
				c-0.013,0.106-0.027,0.21-0.037,0.317C22.055,103.073,22.136,103.678,22.35,104.3z M22.711,105.16
				c0.154,0.306,0.294,0.588,0.424,0.859c-0.378,0.106-0.828,0.22-1.315,0.325C22.107,105.931,22.404,105.536,22.711,105.16z
				 M22.356,97.744c0.209,0.888,0.156,1.726,0.045,2.566c-0.977,0.412-1.964,0.721-2.962,0.98c0.115-0.137,0.239-0.265,0.349-0.406
				c0.671-0.853,1.467-1.022,1.552-2.094c0.017-0.216-0.326-0.259-0.376-0.051c-0.032,0.134-1.808,2.069-2.461,2.778
				c-0.395,0.091-0.792,0.177-1.191,0.259c-0.16-0.675-0.425-1.303-0.864-1.945c0.97-1.03,1.831-2.296,2.515-3.089
				c0.637-0.739,1.331-1.338,2.056-1.868C21.626,95.742,22.107,96.686,22.356,97.744z M17.212,110.017
				c0.104-0.235,0.191-0.479,0.262-0.734c0.097-0.025,0.193-0.049,0.291-0.075c0.407-0.107,0.419-0.736,0-0.836
				c-0.034-0.008-0.069-0.016-0.104-0.024c0.029-0.228,0.032-0.466,0.045-0.701c0.675,0.193,1.385,0.299,2.053,0.329
				c-0.594,0.794-1.188,1.588-1.702,2.422C17.769,110.276,17.487,110.149,17.212,110.017z M20.662,107.971
				c0.172-0.01,0.34-0.024,0.497-0.044c0.844-0.11,1.68-0.335,2.509-0.589c0.219,0.73,0.299,1.493,0.179,2.513
				c-0.007,0.056-0.023,0.111-0.031,0.167c-0.473,0.593-0.948,1.186-1.43,1.772c-0.479-0.073-0.966-0.172-1.47-0.335
				c-0.252-0.081-1.16-0.379-2.179-0.78C19.332,109.758,20.009,108.862,20.662,107.971z M26.636,106.427
				c-0.439,0.568-0.879,1.134-1.32,1.699c-0.05-0.451-0.149-0.845-0.284-1.218c0.443-0.142,0.884-0.28,1.323-0.403
				C26.449,106.479,26.542,106.453,26.636,106.427z M25.316,109.524c0.918-1.148,1.803-2.323,2.682-3.502
				c0.338-0.114,0.669-0.237,0.986-0.391c0.022,0.01,0.037,0.025,0.063,0.032c0.523,0.152,1.052,0.313,1.584,0.473
				c-0.075,0.081-0.154,0.157-0.228,0.239c-1.614,1.786-3.074,3.704-4.611,5.555c-0.323,0.01-0.644,0.019-0.964,0.023
				C25.054,111.162,25.241,110.364,25.316,109.524z M29.936,105.038c0.175-0.137,0.345-0.285,0.506-0.456
				c0.321-0.339-0.086-0.886-0.502-0.65c-0.184,0.104-0.387,0.178-0.58,0.269c0.009-0.012,0.018-0.024,0.027-0.036
				c0.558-0.741,1.168-1.464,1.715-2.22c0.191,1.085,0.329,2.183,0.402,3.276c-0.026,0.026-0.051,0.054-0.076,0.08
				C30.931,105.213,30.435,105.127,29.936,105.038z M28.571,89.816c1.105-0.502,2.401-0.758,3.205-0.888
				c0.407-0.066,0.806-0.079,1.201-0.067c1.014,1.312,2.206,2.516,2.996,3.972c0.543,1.001,0.809,2.091,0.997,3.204
				c-0.032,0.003-0.062,0.003-0.094,0.006c-1.554,0.135-3.118,0.424-4.668,0.613C31.593,94.745,30.303,92.079,28.571,89.816z
				 M50.825,85.256c-1.071,0.412-2.156,0.77-3.201,1.285c-0.997,0.491-1.984,0.85-2.989,1.108c-1.929-2.988-4.338-4.96-7.088-5.827
				c0.185,0.005,0.368,0.005,0.559,0.019c1.67,0.125,3.209,0.29,4.872-0.032c1.095-0.211,2.116-0.513,3.108-0.842
				C47.827,82.236,49.657,83.643,50.825,85.256z M47.552,80.459c0.711-0.257,1.415-0.515,2.118-0.759
				c0.543,0.234,1.062,0.484,1.537,0.718c1.617,0.796,3.403,1.459,5.028,2.316c-1.26,0.474-2.497,1.18-3.902,1.876
				c-0.056,0.028-0.115,0.049-0.172,0.076c-0.054-0.08-0.094-0.171-0.15-0.248c-0.873-1.199-2.108-2.132-3.273-3.028
				C48.356,81.117,47.96,80.787,47.552,80.459z M42.791,89.368c0.798,1.219,1.482,2.579,2.041,4.066
				c0.186,0.494,0.366,1.013,0.542,1.541c-0.827,0.274-1.66,0.527-2.496,0.732c-0.764,0.188-1.491,0.255-2.21,0.279
				c0.027-0.033,0.053-0.064,0.08-0.097c0.113-0.14-0.059-0.318-0.199-0.199c-0.121,0.103-0.254,0.203-0.379,0.305
				c-0.629,0.005-1.256-0.01-1.897-0.008c-0.16-1.074-0.361-2.139-0.815-3.135c-0.663-1.454-1.763-2.608-2.79-3.807
				c0.822,0.139,1.645,0.308,2.496,0.358C39.029,89.512,40.928,89.562,42.791,89.368z M39.943,105.361
				c-0.022-0.423-0.053-0.845-0.112-1.266c-0.046-0.325-0.11-0.648-0.169-0.971c1.18-1.106,2.491-2.013,3.542-3.259
				c0.915-1.085,1.644-2.123,2.774-2.931c0.385,1.364,0.707,2.773,0.914,4.147c-0.908,0.864-1.822,1.724-2.81,2.502
				c-0.426,0.335-0.844,0.686-1.261,1.035c-0.59,0.156-1.179,0.315-1.77,0.467C40.677,105.181,40.309,105.273,39.943,105.361z
				 M40.338,106.792c-0.127,0.117-0.253,0.237-0.38,0.355c0.002-0.09,0.008-0.179,0.01-0.269
				C40.092,106.853,40.215,106.818,40.338,106.792z M33.619,98.18c-0.354,0.117-0.631,0.286-0.871,0.486
				c-0.067-0.285-0.146-0.576-0.224-0.867c0.006,0,0.012-0.001,0.019-0.001c1.569,0.001,3.069-0.384,4.622-0.453
				c0.043,0.313,0.099,0.621,0.146,0.932c-0.526,0.443-1.035,0.899-1.476,1.393c-0.921,1.032-1.561,2.293-2.4,3.399
				c-0.087-1.289-0.273-2.598-0.576-3.968c0.232-0.281,0.501-0.53,0.847-0.714C33.818,98.327,33.741,98.139,33.619,98.18z
				 M33.414,106.89c0.5,0.112,1.003,0.197,1.507,0.266c-0.57,0.697-1.161,1.377-1.771,2.043
				C33.263,108.419,33.357,107.648,33.414,106.89z M34.679,105.818c-0.408-0.054-0.808-0.123-1.211-0.185
				c0.014-0.473,0.016-0.947,0.005-1.42c0.457-0.527,0.897-1.067,1.294-1.64c0.868-1.255,1.649-2.304,2.703-3.304
				c0.256,1.302,0.582,2.61,0.827,3.926c-0.821,0.867-1.589,1.779-2.34,2.704C35.537,105.895,35.114,105.875,34.679,105.818z
				 M38.482,104.355c0.056,0.431,0.11,0.862,0.13,1.295c-0.446,0.083-0.894,0.143-1.344,0.188
				C37.664,105.336,38.063,104.837,38.482,104.355z M32.422,113.373c0.401,0.033,0.803,0.052,1.205,0.057
				c-0.45,0.461-0.899,0.921-1.347,1.378C32.343,114.266,32.385,113.764,32.422,113.373z M38.624,98.226
				c0.29-0.266,0.57-0.541,0.835-0.828c0.982,0.049,1.954,0.075,2.975-0.116c0.731-0.137,1.458-0.327,2.182-0.534
				c-1.12,0.954-1.852,2.322-2.9,3.354c-0.711,0.701-1.507,1.309-2.26,1.963C39.182,100.784,38.866,99.51,38.624,98.226z
				 M39.635,112.212c0.219-0.068,0.436-0.14,0.657-0.198c0.531-0.139,1.067-0.252,1.606-0.357c-0.249,0.26-0.5,0.517-0.75,0.78
				c-0.629,0.66-1.341,1.214-2.042,1.779C39.357,113.562,39.531,112.894,39.635,112.212z M44.878,104.066
				c0.315-0.257,0.618-0.53,0.936-0.784c0.424-0.339,0.824-0.704,1.222-1.073c0.044,0.427,0.076,0.847,0.092,1.259
				C46.378,103.666,45.627,103.864,44.878,104.066z M45.378,88.905c0.611-0.16,1.216-0.346,1.807-0.594
				c1.47-0.615,2.918-1.224,4.356-1.858c0.8,1.633,1.198,3.626,1.505,5.586c-1.074,0.38-2.143,0.817-3.219,1.257
				c0-0.002,0.001-0.004,0.001-0.006c0.007-0.203-0.302-0.243-0.353-0.048c-0.021,0.08-0.053,0.155-0.083,0.23
				c-0.297,0.121-0.591,0.242-0.891,0.361c-0.28,0.111-0.565,0.218-0.848,0.326C47.055,92.322,46.3,90.547,45.378,88.905z
				 M52.923,101.16c-0.411,0.401-0.828,0.792-1.241,1.19c-0.786,0.172-1.568,0.359-2.349,0.553
				c-0.008-0.295-0.006-0.582-0.037-0.896c-0.058-0.577-0.133-1.161-0.219-1.746c0.82-0.793,1.655-1.567,2.591-2.228
				c0.695-0.491,1.406-0.996,2.108-1.516c0.227,1.13,0.399,2.269,0.509,3.407C53.824,100.33,53.36,100.734,52.923,101.16z
				 M54.37,101.025c0.013,0.214,0.031,0.429,0.039,0.643c-0.356,0.103-0.717,0.197-1.08,0.289
				C53.664,101.636,54.02,101.333,54.37,101.025z M49.646,104.3c-0.131,0.125-0.261,0.252-0.392,0.376
				c0.012-0.09,0.013-0.187,0.023-0.278c0.094-0.023,0.189-0.052,0.283-0.076C49.589,104.315,49.617,104.307,49.646,104.3z
				 M50.356,97.984c-0.503,0.39-0.983,0.807-1.456,1.23c-0.206-1.182-0.47-2.365-0.794-3.539c0.097-0.062,0.189-0.128,0.283-0.193
				c1.651-0.616,3.257-1.326,4.89-1.901c0.11,0.747,0.224,1.461,0.35,2.143C52.52,96.457,51.399,97.174,50.356,97.984z
				 M54.408,91.602c-0.316-2.008-0.738-4.024-1.563-5.737c0.838-0.383,1.674-0.774,2.511-1.191c0.984-0.49,1.82-0.765,2.619-0.873
				c2.453,1.85,2.451,4.122,2.859,7.016c0.007,0.051,0.021,0.099,0.029,0.15c-0.536,0.028-1.071,0.036-1.601,0.005
				C57.554,90.873,55.961,91.152,54.408,91.602z M70.333,78.271c1.295,0.505,3.013,0.362,4.405,0.818
				c0.562,0.184,1.072,0.412,1.561,0.661c-1.224,0.229-2.441,0.593-3.552,1.087c-1.189,0.528-2.297,1.046-3.468,1.477
				c-1.318-1.783-3.032-3.183-5.139-3.995c0.793-0.111,1.585-0.25,2.379-0.423c0.951-0.207,1.918-0.413,2.892-0.598
				c-0.002,0.021-0.013,0.04-0.01,0.06C69.519,78.037,69.708,78.027,70.333,78.271z M68.99,84.079
				c0.205,0.377,0.406,0.757,0.568,1.165c0.472,1.182,0.777,2.384,1.015,3.597c-0.815,0.218-1.648,0.456-2.489,0.693
				c0.567-0.531,1.134-1.063,1.69-1.619c0.136-0.137-0.046-0.395-0.213-0.276c-1.041,0.74-2.063,1.53-3.077,2.334
				c-1.331,0.352-2.678,0.655-4.019,0.839c-0.102-1.681,0.05-3.427-0.194-5.103c-0.072-0.493-0.21-0.936-0.376-1.358
				c0.086,0.027,0.164,0.048,0.253,0.077c1.18,0.381,2.28,0.576,3.513,0.447C66.854,84.749,67.941,84.449,68.99,84.079z
				 M63.806,92.143c-0.369,0.306-0.738,0.608-1.104,0.914c-0.03-0.235-0.06-0.47-0.089-0.708
				C63.012,92.29,63.41,92.222,63.806,92.143z M62.433,96.849c0.068,0.257,0.414,0.18,0.437-0.059
				c0.09-0.915,0.043-1.783-0.045-2.646c0.953-0.801,1.898-1.604,2.832-2.418c1.383-0.346,2.764-0.741,4.175-1.072
				c0.341-0.08,0.678-0.167,1.013-0.257c0.088,0.548,0.172,1.098,0.259,1.649c-0.315,0.234-0.631,0.465-0.943,0.703
				c-2.474,1.888-4.899,3.845-7.295,5.832c-0.198,0.164-0.399,0.324-0.597,0.486c-0.215,0.01-0.431,0.012-0.647,0.037
				c-1.466,0.175-2.714,0.787-4.033,1.399c-0.614,0.285-1.221,0.517-1.829,0.731c-0.018-0.432-0.072-0.87-0.11-1.305
				c1.749-1.426,3.588-2.771,5.299-4.21c0.31-0.261,0.616-0.517,0.924-0.776C62.068,95.572,62.261,96.203,62.433,96.849z
				 M71.258,92.938c0.095,0.567,0.191,1.134,0.312,1.701c0.073,0.343,0.127,0.678,0.17,1.009c-1.542,1.141-3.085,2.281-4.632,3.416
				c-0.368,0.042-0.737,0.078-1.119,0.085c-0.796,0.014-1.594-0.049-2.391-0.084c1.968-1.594,3.941-3.179,5.925-4.755
				C70.1,93.851,70.679,93.395,71.258,92.938z M59.654,101.171c-1.321,1.045-2.644,2.082-3.957,3.13
				c0.047-0.564,0.08-1.131,0.086-1.703c1.18-0.382,2.357-0.796,3.552-1.306C59.44,101.247,59.547,101.212,59.654,101.171z
				 M60.991,94.481c-1.768,1.464-3.642,2.869-5.432,4.349c-0.104-0.845-0.24-1.694-0.413-2.549c-0.048-0.236-0.086-0.49-0.129-0.735
				c0.808-0.663,1.58-1.364,2.238-2.152c0.121-0.145-0.066-0.34-0.21-0.21c-0.675,0.61-1.406,1.149-2.15,1.67
				c-0.088-0.556-0.172-1.126-0.255-1.708c1.482-0.426,3.003-0.692,4.623-0.605c0.647,0.034,1.281,0.011,1.911-0.034
				c0.122,0.499,0.26,0.992,0.408,1.482C61.385,94.153,61.187,94.319,60.991,94.481z M54.786,108.948
				c0.253-0.067,0.505-0.128,0.758-0.197c-0.344,0.343-0.694,0.681-1.05,1.016C54.596,109.495,54.696,109.223,54.786,108.948z
				 M55.238,107.318c0.15-0.648,0.261-1.307,0.348-1.971c2.006-1.557,4.033-3.091,6.022-4.686c1.188-0.191,2.411-0.217,3.642-0.232
				c-2.64,1.934-5.379,3.83-7.642,6.2c-0.026,0.027-0.052,0.054-0.078,0.081c-0.047,0.013-0.094,0.027-0.14,0.039
				C56.67,106.947,55.954,107.135,55.238,107.318z M61.355,104.657c-0.065,0.365-0.16,0.73-0.28,1.094
				c-0.483,0.118-0.964,0.242-1.442,0.373C60.201,105.629,60.776,105.14,61.355,104.657z M61.568,107.72
				c0.069-0.226,0.103-0.443,0.144-0.661c0.601-0.132,1.204-0.252,1.806-0.34c-0.854,0.69-1.667,1.5-2.498,2.288
				C61.231,108.59,61.432,108.168,61.568,107.72z M71.324,98.145c-0.708,0.189-1.397,0.373-2.087,0.537
				c0.869-0.63,1.729-1.272,2.594-1.907c0.016,0.426,0.017,0.847-0.008,1.259C71.657,98.073,71.489,98.101,71.324,98.145z
				 M70.147,83.641c1.657-0.673,3.263-1.457,5.065-1.981c1.09-0.317,2.184-0.429,3.281-0.451c0.278,0.232,0.556,0.467,0.832,0.728
				c1.399,1.325,2.237,2.265,2.53,3.963c-0.536,0.029-1.071,0.069-1.607,0.086c-1.517,0.048-2.821,0.102-4.257,0.672
				c-1.361,0.541-2.631,1.205-3.985,1.718C71.597,86.678,70.978,85.073,70.147,83.641z M82.264,82.943
				c-0.441-0.586-0.971-1.146-1.526-1.679c1.699,0.115,3.411,0.308,5.138,0.27c0.294,0.368,0.581,0.752,0.875,1.153
				c0.703,0.956,1.41,1.911,2.043,2.912c-0.657-0.027-1.3-0.045-1.896-0.011c-1.215,0.07-2.429,0.157-3.643,0.237
				C83.196,84.826,83.021,83.949,82.264,82.943z M83.393,96.285c-0.34,0.095-0.681,0.191-1.02,0.285
				c-0.863,0.238-1.736,0.393-2.613,0.511c-0.071-0.306-0.157-0.613-0.258-0.923c1.162-0.779,2.34-1.533,3.541-2.247
				C83.186,94.697,83.312,95.487,83.393,96.285z M78.311,91.969c1.147-0.766,2.539-1.92,3.904-2.573
				c0.173,1.183,0.414,2.356,0.644,3.534c-0.333,0.184-0.661,0.373-0.979,0.57c-0.913,0.565-1.812,1.155-2.705,1.757
				c-0.01-0.026-0.017-0.049-0.027-0.074c-0.376-0.926-0.717-1.985-1.121-3.009C78.123,92.108,78.214,92.033,78.311,91.969z
				 M79.33,103.228c1.352-0.767,2.704-1.533,4.045-2.319c-0.032,0.392-0.052,0.782-0.102,1.175c-1.351,0.392-2.68,0.872-4.011,1.341
				C79.286,103.359,79.308,103.293,79.33,103.228z M79.714,101.961c0.278-1.147,0.376-2.238,0.29-3.32
				c0.635-0.097,1.269-0.212,1.9-0.367c0.53-0.13,1.057-0.269,1.586-0.405c0.001,0.048,0.007,0.095,0.007,0.144
				c0.002,0.555-0.013,1.134-0.037,1.717C82.221,100.488,80.971,101.23,79.714,101.961z M83.318,87.522
				c-0.001-0.03-0.002-0.056-0.003-0.086c1.194-0.084,2.388-0.182,3.584-0.25c0.919-0.052,1.853-0.02,2.786,0.005
				c0.066,0.137,0.145,0.268,0.208,0.41c0.174,0.394,0.308,0.799,0.422,1.212c-1.821,1.379-4.034,2.357-6.139,3.423
				C83.826,90.669,83.398,89.11,83.318,87.522z M88.848,81.267c1.66-0.245,3.292-0.62,4.906-1.081
				c0.018,0.018,0.038,0.038,0.056,0.056c1.131,1.136,1.867,2.537,2.452,4.01c-1.001,0.394-1.922,0.891-3.029,1.176
				c-0.461,0.119-0.953,0.181-1.461,0.212c-0.608-1.29-1.487-2.551-2.543-3.883C89.099,81.594,88.973,81.43,88.848,81.267z
				 M92.216,74.869c0.061,0.189,0.219,0.362,0.433,0.389c2.294,0.29,4.317,0.927,6.004,1.97c-0.507,0.081-1.017,0.195-1.554,0.37
				c-1.095,0.356-2.182,0.695-3.268,1c-1.32-1.153-2.895-2.377-4.513-3.083C90.273,75.241,91.231,74.999,92.216,74.869z
				 M88.235,75.834c1.511,0.681,2.983,1.91,4.26,3.118c-1.566,0.399-3.143,0.707-4.749,0.907c-0.723-0.883-1.502-1.691-2.541-2.293
				c-0.443-0.257-0.898-0.455-1.358-0.631C85.383,76.711,86.817,76.265,88.235,75.834z M84.506,80.08
				c-0.223,0.003-0.441,0.022-0.665,0.019c-1.757-0.021-3.406-0.551-5.142-0.589c-1.087-0.803-2.275-1.356-3.597-1.738
				c-0.812-0.235-1.734-0.506-2.581-0.556c-0.406-0.024-2.03,0.229-2.555-0.024c1.893-0.34,3.811-0.571,5.705-0.502
				c0.226,0.008,0.447,0.03,0.671,0.044c0.102,0.205,0.279,0.38,0.555,0.47c2.093,0.685,4.346,0.865,6.301,1.952
				C83.692,79.432,84.117,79.744,84.506,80.08z M96.818,3.515c2.046-0.01,3.66,1.302,3.585,4.76
				c-0.049,2.265-0.494,4.776-0.749,7.039c-0.317,2.815-1.812,5.16-2.093,7.975c-0.139,1.394,0.584,1.759,0.061,3.45
				c-0.373,1.206-1.63,2.374-2.221,3.483c-0.705,1.323-1.403,2.733-1.68,4.213c-0.706,0.297-1.401,0.618-2.066,1.011
				c-3.027,1.79-5.743,4.1-8.829,5.817c-0.199-0.618-0.503-1.212-0.878-1.774c0.163-0.138,0.326-0.275,0.489-0.413
				c0.4-0.338-0.176-0.907-0.575-0.574c-0.134,0.112-0.268,0.224-0.403,0.336c-0.609-0.761-1.331-1.443-2.087-2.026
				c1.021-0.756,2.033-1.526,3.032-2.317c0.533,0.348,1.068,0.693,1.619,1.01c0.212,0.122,0.476-0.126,0.342-0.342
				c-0.345-0.556-0.799-1.009-1.299-1.417c-0.04-0.18-0.223-0.331-0.43-0.336c-1.111-0.787-2.436-1.364-3.693-1.989
				c0.004-0.016,0.009-0.033,0.014-0.049c1.048-0.982,2.073-1.989,3.079-3.017c1.164,0.561,2.258,1.283,2.997,2.294
				c0.487,0.666,1.437,0.263,1.307-0.551c-0.264-1.654-1.224-2.804-2.48-3.644c0.191-0.257-0.167-0.606-0.403-0.36
				c-0.022,0.023-0.046,0.044-0.068,0.067c-0.135-0.078-0.27-0.155-0.41-0.227c0.337-0.241,0.672-0.486,1.017-0.717
				c0.237-0.159,0.474-0.317,0.711-0.475c1.187,0.919,2.391,1.779,3.631,2.607c-0.168,0.323-0.335,0.655-0.503,0.972
				c-0.093,0.175-0.185,0.362-0.276,0.558c-0.007,0.002-0.015,0-0.022,0.002c-0.259,0.061-0.371,0.401-0.251,0.62
				c-1.264,3.018-2.418,7.625-4.427,9.497c-0.239,0.223-0.071,0.748,0.29,0.7c3.254-0.429,4.453-5.628,5.549-8.108
				c0.116-0.262,0.235-0.523,0.353-0.784c0.32,0.309,0.625,0.637,0.921,0.975c0.834,0.953,1.201,2.333,2.417,2.953
				c0.28,0.143,0.682,0.034,0.757-0.308c0.18-0.819-0.379-1.407-0.749-2.096c-0.385-0.715-0.837-1.294-1.46-1.816
				c-0.354-0.296-0.805-0.679-1.293-1.005c0.156-0.338,0.309-0.677,0.464-1.015c0.297,0.186,0.584,0.374,0.887,0.559
				c0.311,0.189,0.582-0.225,0.369-0.479c-0.274-0.327-0.572-0.622-0.881-0.901c0.416-0.917,0.823-1.838,1.201-2.77
				c0.058,0.06,0.117,0.116,0.175,0.176c0.226,0.238,0.744,0.072,0.7-0.29c-0.05-0.416-0.172-0.845-0.339-1.278
				c0.21-0.575,0.41-1.153,0.587-1.74c0.169-0.561,0.367-1.134,0.572-1.712c0.296,0.375,0.606,0.602,1.27,0.674
				c0.374,0.041,0.602-0.523,0.315-0.76c-0.417-0.344-0.759-0.82-1.084-1.327c0.622-1.767,1.19-3.576,1.214-5.35
				c0.741,0.675,1.469,1.36,2.313,1.906c0.336,0.218,0.852-0.148,0.706-0.543c-0.401-1.085-1.05-1.966-1.861-2.681
				c0.103-0.075,0.159-0.238,0.058-0.352c-0.773-0.878-0.751-2.214-1.507-3.127C96.034,6.799,96.887,5.064,96.818,3.515z
				 M86.156,19.279c0.076,0.082,0.152,0.157,0.228,0.245c0.552,0.638,1.121,1.233,1.697,1.813c-0.925,0.795-1.912,1.497-2.926,2.173
				c-0.804-0.682-1.615-1.352-2.476-1.95C83.783,20.731,84.927,19.958,86.156,19.279z M84.715,19.082
				c0.201-0.209,0.401-0.419,0.605-0.625c0.068,0.059,0.135,0.127,0.202,0.188C85.253,18.785,84.984,18.933,84.715,19.082z
				 M88.236,18.188c0.826-0.424,1.636-0.879,2.368-1.429c0.639,0.574,1.216,1.218,1.756,1.92c-0.38,0.96-0.776,1.918-1.197,2.865
				C90.333,20.318,89.254,19.147,88.236,18.188z M90.271,23.482c-0.468,0.988-0.949,1.954-1.434,2.905
				c-0.35-0.249-0.702-0.496-1.054-0.751c-0.694-0.502-1.356-1.054-2.014-1.61c0.984-0.675,1.941-1.378,2.82-2.182
				C89.147,22.394,89.709,22.935,90.271,23.482z M91.659,15.814c0.261-0.274,0.511-0.562,0.73-0.884
				c0.179-0.263-0.218-0.558-0.436-0.336c-0.27,0.276-0.548,0.53-0.832,0.768c-0.511-0.396-1.058-0.746-1.65-1.054
				c0.135-0.13,0.273-0.264,0.414-0.399c1.07-0.671,2.166-1.294,3.365-1.754c0.104-0.04,0.171-0.112,0.21-0.194
				c0.393,0.283,0.771,0.583,1.133,0.9c-0.165,0.016-0.32,0.112-0.373,0.31c-0.355,1.328-0.793,2.67-1.283,4.011
				c-0.138-0.192-0.278-0.377-0.431-0.543C92.235,16.343,91.95,16.073,91.659,15.814z M91.877,11.925
				c0.19-0.197,0.381-0.395,0.569-0.598c0.118,0.065,0.24,0.121,0.357,0.189c0.004,0.002,0.007,0.005,0.011,0.008
				C92.498,11.651,92.184,11.783,91.877,11.925z M93.383,10.286c0.357-0.412,0.695-0.831,1.019-1.253
				c0.044,0.064,0.096,0.122,0.135,0.19c0.405,0.718,0.521,1.514,0.945,2.165C94.841,10.947,94.134,10.582,93.383,10.286z
				 M91.892,9.793c-0.314-0.086-0.635-0.144-0.954-0.213c0.839-0.587,1.639-1.066,2.407-1.574c0.026,0.018,0.05,0.037,0.075,0.055
				C92.933,8.652,92.415,9.236,91.892,9.793z M91.066,10.655c-1.14,1.163-2.189,2.15-2.764,2.76
				c-0.075,0.08-0.158,0.158-0.234,0.237c-0.775-0.328-1.577-0.611-2.371-0.786c-0.038-0.008-0.08-0.011-0.119-0.019
				c1.455-0.878,2.947-1.678,4.372-2.609C90.325,10.367,90.7,10.497,91.066,10.655z M88.483,15.256
				c0.537,0.284,1.022,0.612,1.48,0.964c-0.765,0.513-1.563,0.954-2.379,1.373c-0.265-0.233-0.525-0.455-0.765-0.648
				c0.211-0.216,0.421-0.431,0.622-0.647C87.717,16.003,88.075,15.65,88.483,15.256z M76.001,29.926
				c-0.408,0.268-0.807,0.548-1.207,0.826c0.005-1.157-0.047-2.308-0.191-3.443c0.617-0.404,1.231-0.81,1.848-1.214
				c0.646,0.237,1.286,0.52,1.925,0.793c-0.2,0.592-0.385,1.19-0.574,1.786C77.21,29.103,76.613,29.524,76.001,29.926z
				 M77.326,30.146c-0.032,0.1-0.066,0.198-0.098,0.298c-0.055-0.037-0.111-0.073-0.165-0.111
				C77.151,30.271,77.238,30.208,77.326,30.146z M74.43,26.233c-0.034-0.188-0.057-0.379-0.096-0.565
				c-0.006-0.03-0.014-0.064-0.021-0.095c0.3,0.026,0.596,0.084,0.891,0.151C74.947,25.894,74.685,26.06,74.43,26.233z
				 M74.489,35.709c0.372,0.1,0.739,0.221,1.094,0.38c-0.154,0.814-0.255,1.635-0.306,2.457c-0.393,0.268-0.786,0.536-1.177,0.805
				c0.031-0.46,0.073-0.924,0.131-1.391C74.322,37.219,74.409,36.466,74.489,35.709z M75.255,34.72
				c0.282-0.245,0.557-0.498,0.837-0.745c-0.087,0.304-0.174,0.607-0.25,0.915C75.648,34.825,75.451,34.774,75.255,34.72z
				 M75.251,39.769c0.014,1.066,0.122,2.126,0.379,3.164c0.06,0.243,0.262,0.365,0.474,0.379c-0.687,0.576-1.364,1.162-2.048,1.74
				c-0.008-1.469-0.053-2.945-0.011-4.451C74.447,40.325,74.85,40.048,75.251,39.769z M74.633,34.194
				c0.063-0.743,0.114-1.488,0.142-2.235c0.64-0.455,1.281-0.911,1.922-1.366c0.122,0.114,0.247,0.224,0.373,0.332
				c-0.151,0.465-0.297,0.938-0.457,1.393c-0.029,0.083-0.054,0.17-0.083,0.254C75.9,33.115,75.271,33.659,74.633,34.194z
				 M77.662,38.07c0.151-0.108,0.298-0.221,0.449-0.33c0.752,0.641,1.455,1.37,2.112,2.131c-1.176,0.981-2.352,1.962-3.526,2.944
				C77.109,41.238,77.397,39.655,77.662,38.07z M78.601,36.255c-0.19-0.125-0.379-0.255-0.566-0.367
				c-0.003-0.002-0.006-0.003-0.008-0.005c0.208-1.232,0.438-2.465,0.728-3.696c0.415,0.273,0.836,0.538,1.27,0.792
				c0.559,0.328,1.102,0.681,1.643,1.036C80.662,34.786,79.639,35.531,78.601,36.255z M79.326,30.053
				c0.177-0.569,0.329-1.159,0.486-1.746c0.251-0.192,0.502-0.383,0.752-0.575c0.294,0.112,0.591,0.23,0.886,0.358
				c-0.702,0.682-1.416,1.352-2.138,2.012C79.318,30.085,79.321,30.069,79.326,30.053z M79.23,24.576
				c-0.134-0.038-0.269-0.072-0.404-0.107c0.221-0.159,0.447-0.311,0.665-0.474C79.408,24.19,79.311,24.378,79.23,24.576z
				 M80.976,25.114c-0.068-0.022-0.137-0.043-0.205-0.065c0.256-0.733,0.549-1.449,0.922-2.124c0.064-0.116,0.146-0.225,0.215-0.339
				c0.39,0.256,0.779,0.537,1.172,0.863c0.326,0.27,0.654,0.521,0.981,0.781c-0.383,0.248-0.766,0.497-1.15,0.75
				c-0.274,0.178-0.536,0.37-0.803,0.555C81.736,25.382,81.359,25.238,80.976,25.114z M81.301,20.772
				c-0.557-0.26-1.126-0.484-1.699-0.711c0.559-0.354,1.116-0.717,1.67-1.098c0.83-0.571,1.713-1.045,2.603-1.506
				c0.07,0.038,0.142,0.068,0.212,0.109C83.076,18.58,82.125,19.638,81.301,20.772z M80.603,21.814
				c-0.037,0.06-0.07,0.121-0.106,0.181c-0.964,0.752-1.926,1.507-2.934,2.194c-1.199-0.212-2.392-0.251-3.551,0.077
				c-0.068-0.272-0.154-0.568-0.232-0.856c0.533-0.342,1.055-0.697,1.573-0.955c1.085-0.54,2.131-1.113,3.155-1.723
				C79.237,21.112,79.93,21.45,80.603,21.814z M74.051,46.194c2.226-1.908,4.46-3.806,6.702-5.696
				c0.365,0.445,0.715,0.893,1.049,1.333c-2.202,1.214-3.996,2.346-5.959,4.173c-0.848,0.789-1.416,1.745-1.929,2.725
				C74.002,47.882,74.038,47.038,74.051,46.194z M91.591,5.625c1.292-1.123,2.859-1.77,4.311-2.029
				c-0.116,0.847-0.582,1.799-1.223,2.774c-0.416,0.358-0.857,0.53-1.316,0.85c-0.713-0.414-1.472-0.43-2.115-1.43
				c-0.001,0-0.002,0-0.002,0C91.361,5.79,91.471,5.729,91.591,5.625z M90.986,6.369c0.009,0.02,0.007,0.042,0.025,0.059
				c0.532,0.499,1.226,0.87,1.879,1.279c-0.887,0.59-1.81,1.141-2.692,1.709c-0.565-0.1-1.13-0.175-1.684-0.23
				C89.336,8.245,90.111,7.246,90.986,6.369z M86.688,10.969c0.482-0.374,0.924-0.799,1.345-1.25c0.413,0.074,0.816,0.185,1.218,0.3
				c-1.529,0.971-3.155,1.767-4.694,2.721c-0.149-0.007-0.299-0.013-0.449-0.019C85.039,12.142,85.919,11.566,86.688,10.969z
				 M82.839,13.497c0.097,0.019,0.197,0.038,0.297,0.056c-0.561,0.291-1.132,0.552-1.708,0.805
				C81.9,14.066,82.372,13.781,82.839,13.497z M84.102,13.744c1.055,0.214,2.033,0.477,3.013,0.874
				c-0.037,0.037-0.072,0.074-0.109,0.111c-0.669,0.389-1.344,0.761-2.024,1.122c-1.56-0.657-3.055-0.578-4.663-0.333
				C81.603,14.977,82.874,14.455,84.102,13.744z M78.269,16.472c1.693-0.036,3.18,0.035,4.568,0.523
				c-0.2,0.109-0.4,0.213-0.599,0.325c-1.263,0.707-2.446,1.529-3.664,2.303c-0.104-0.048-0.208-0.087-0.312-0.137
				c-0.551-0.267-1.374-0.857-2.177-1.094C76.741,17.704,77.479,17.068,78.269,16.472z M75.394,19.177
				c0.181,0.053,0.369,0.11,0.584,0.189c0.592,0.218,1.085,0.541,1.607,0.857c-0.297,0.175-0.591,0.355-0.898,0.517
				c-0.969,0.51-1.968,0.963-2.937,1.47C74.097,21.088,74.663,20.084,75.394,19.177z M73.757,18.669
				c-0.361,0.668-0.645,1.366-0.805,2.106c-0.19-0.516-0.399-1.023-0.621-1.51C72.507,19.067,73.149,18.853,73.757,18.669z
				 M67.331,27.181c1.119-2.679,1.776-5.545,2.637-8.328c0.63,1.48,1.013,3.333,1.252,5.161c-0.057,0.035-0.108,0.077-0.167,0.111
				c-0.164,0.091-0.093,0.363,0.097,0.357c0.045-0.001,0.088-0.014,0.132-0.017c0.159,1.347,0.239,2.652,0.281,3.776
				c-1.035,0.737-2.069,1.475-3.123,2.193c-1.279,0.872-3.276,1.647-4.235,2.997C65.261,31.374,66.409,29.383,67.331,27.181z
				 M57.994,74.66c1.147-7.887,1.581-15.667,0.069-23.386c0.358-1.199,0.595-2.466,1.008-3.556c1.202-3.175,2.062-6.404,3.114-9.628
				c0.441-1.35,0.998-2.603,1.599-3.823c-0.05,0.363,0.469,0.503,0.682,0.208c0.894-1.24,2.497-1.874,3.749-2.697
				c1.155-0.759,2.264-1.586,3.378-2.405c0.001,0.071,0.004,0.156,0.005,0.224c0.017,1.215-0.073,2.411-0.205,3.6
				c-0.665,0.485-1.332,0.966-2.009,1.436c-0.468,0.325-0.954,0.636-1.443,0.946c-0.028-0.263-0.047-0.527-0.081-0.79
				c-0.035-0.265-0.399-0.277-0.422,0c-0.033,0.398-0.073,0.786-0.107,1.18c-1.413,0.903-2.807,1.849-3.85,3.151
				c-0.157,0.196,0.042,0.531,0.289,0.374c1.16-0.734,2.307-1.488,3.446-2.254c-0.099,1.065-0.213,2.125-0.334,3.178
				c-2.167,1.737-4.259,3.568-5.918,5.686c-0.163,0.209,0.058,0.609,0.317,0.411c1.851-1.409,3.64-2.927,5.414-4.464
				c-0.154,1.187-0.328,2.372-0.53,3.561c-0.235,0.181-0.461,0.371-0.706,0.541c-1.484,1.028-2.284,2.293-3.471,3.642
				c-0.417,0.474,0.235,1.035,0.654,0.654l0.014,0.014c0.497-0.499,0.891-1.033,1.319-1.587c0.568-0.734,1.214-1.26,1.902-1.775
				c-0.135,0.712-0.258,1.422-0.417,2.141c-0.281,1.274-0.57,2.56-0.837,3.853c-1.559,1.425-3.022,2.927-4.182,4.572
				c-0.138,0.196,0.136,0.467,0.331,0.331c1.198-0.833,2.335-1.785,3.446-2.783c-0.181,1.025-0.334,2.052-0.443,3.083
				c-0.448,0.424-0.896,0.847-1.341,1.276c-0.285,0.275,0.139,0.689,0.431,0.431c0.274-0.242,0.549-0.484,0.823-0.726
				c-0.103,1.336-0.131,2.674-0.03,4.011c0.049,0.645,0.905,0.619,0.984,0c0.238-1.864,0.562-3.751,0.916-5.652
				c1.05-0.917,2.109-1.824,3.187-2.707c-0.801,3.399-1.437,6.875-1.575,10.358c-0.018,0.45,0.706,0.691,0.895,0.243
				c1.822-4.305,3.559-8.585,5.052-13.022c0.116-0.345,0.215-0.688,0.305-1.029c0.788-0.963,1.434-2.071,2.334-2.965
				c2.445-2.428,5.627-4.124,8.557-5.831c2.868-1.67,5.554-3.778,8.423-5.392c0.705-0.396,1.435-0.707,2.173-0.992
				c0.06-0.015,0.117-0.044,0.174-0.071c0.813-0.308,1.636-0.584,2.446-0.893c-1.332,2.825-3.205,5.476-4.267,8.388
				c-1.132,3.101-2.064,6.308-3.233,9.424c-1.605,4.28-3.203,8.602-5.472,12.586c-1.51,2.65-3.9,4.597-4.3,7.624
				c-0.994-0.015-2.026-0.07-3.167-0.151c-4.191-0.297-8.121,0.6-12.228,1.382c-2.03,0.386-4.641,0.658-6.767,0.46
				c-0.081-0.008-0.155-0.02-0.234-0.029C57.92,74.912,57.974,74.798,57.994,74.66z M70.216,36.031
				c0.286-0.12,0.567-0.21,0.846-0.289c-0.077,0.525-0.153,1.05-0.228,1.576c-0.888,0.702-1.797,1.404-2.707,2.114
				c0.006-0.923-0.014-1.844-0.079-2.76c1.069-0.728,2.134-1.463,3.192-2.207c-0.018,0.132-0.036,0.266-0.055,0.4
				c-0.366,0.196-0.739,0.436-1.162,0.709C69.799,35.719,69.941,36.146,70.216,36.031z M66.786,51.198
				c0.336-1.829,0.645-3.66,0.884-5.49c0.951-0.794,1.85-1.644,2.781-2.457c0.116,1.563,0.329,3.098,0.155,4.733
				c-0.025,0.022-0.051,0.043-0.077,0.066C69.336,49.083,68.057,50.124,66.786,51.198z M70.345,49.412
				c-0.335,1.419-0.85,2.814-1.259,4.217c-1.132,0.907-2.232,1.844-3.304,2.812c0.208-1.088,0.421-2.181,0.631-3.275
				C67.726,51.899,69.023,50.618,70.345,49.412z M67.844,44.22c0.121-1.13,0.206-2.258,0.251-3.384
				c0.851-0.743,1.707-1.478,2.562-2.211c-0.098,0.767-0.186,1.537-0.24,2.313c-0.026,0.37-0.03,0.734-0.024,1.096
				C69.511,42.728,68.68,43.477,67.844,44.22z M56.681,78.539c1.815,0.135,3.603,0.129,5.382-0.007
				c2.407,0.736,4.535,2.167,6.04,4.163c-0.217,0.063-0.426,0.136-0.651,0.19c-2.339,0.567-3.82,0.288-6.108-0.384
				c-0.263-0.077-0.517-0.136-0.767-0.186c-1.009-1.049-2.344-1.828-3.769-2.477c-0.813-0.371-1.669-0.814-2.552-1.255
				C55.031,78.502,55.833,78.476,56.681,78.539z M41.768,51.617c0.628-2.445,0.643-5.318,1.12-7.838
				c1.071-5.651-0.627-11.118-0.313-16.706c2.673,2.31,5.526,4.909,7.391,7.649c1.402,2.061,1.375,4.127,2,6.496
				c0.629,2.386,1.576,4.685,2.219,7.066c1.077,3.986,1.576,8.388,1.861,12.518c0.324,4.7-1.391,9.108-0.748,13.787
				c-0.719-0.109-1.456-0.155-2.323-0.007c-1.299,0.223-2.504,0.562-3.664,0.947c0.438-3.004-1.361-6.973-2.413-9.51
				c-0.058-0.139-0.118-0.263-0.177-0.395c0.14-0.034,0.267-0.144,0.291-0.334c0.768-6.057,1.079-11.422,0.242-17.489
				c-0.568-4.114-0.753-8.971-2.963-12.594c-0.11-0.181-0.383-0.021-0.283,0.166c2.149,3.996,1.625,10.178,2.047,14.6
				c0.471,4.937-0.03,9.787,0.207,14.716c-0.738-1.345-1.581-2.257-2.579-3.086c-1.169-2.343-2.076-4.863-3.277-7.249
				C40.861,53.457,41.52,52.582,41.768,51.617z M14.718,2.502c2.486-0.152,5.236,1.695,7.344,3.172
				c2.453,1.719,4.9,1.274,6.213,4.281c0.929,2.126,1.774,2.49,3.363,4.253c1.487,1.65,2.628,4.815,3.522,6.885
				c0.929,2.15,2.78,4.341,3.326,6.517c0.214,0.852,1.119,1.036,1.753,0.683c-0.26,5.162,0.875,10.39-0.026,15.593
				c-0.443,2.559-1.033,5.366-1.154,8.066c-1.399-2.314-2.632-4.47-4.145-6.497c-0.298-2.352-1.778-3.869-2.911-5.938
				c-0.043-0.079-0.091-0.162-0.135-0.242c0.979-0.51,1.919-1.098,2.917-1.577c0.637-0.306,1.194-0.567,1.704-0.912
				c0.309,0.486,0.594,0.989,0.795,1.549c0.438,1.225,0.498,2.218,1.169,3.363c0.434,0.741,1.431,0.351,1.507-0.408
				c0.261-2.618-0.817-4.071-1.954-6.153c-1.404-2.571-1.577-5.116-2.679-7.663c-0.194-0.449-0.434-0.872-0.699-1.279
				c0.307-0.385,0.606-0.78,0.887-1.193c0.229-0.336-0.24-0.833-0.577-0.577c-0.337,0.256-0.674,0.517-1.01,0.779
				c-0.61-0.815-1.256-1.607-1.763-2.481c-1.78-3.065-2.182-7.268-4.695-9.941c-0.827-0.88-1.859-1.478-2.91-2.06
				c0.271-0.867,0.399-1.806,0.871-2.769c0.168-0.343-0.223-0.619-0.509-0.393c-0.718,0.567-0.913,1.249-1.25,2.061
				c-0.072,0.174-0.157,0.316-0.238,0.468c-0.238-0.139-0.475-0.281-0.706-0.432c-0.146-0.095-0.308,0.12-0.185,0.239
				c0.219,0.211,0.423,0.428,0.627,0.645c-0.865,1.269-2.102,1.615-3.61,1.642c-0.21-0.238-0.412-0.476-0.6-0.713
				c0.018-0.556-0.153-1.2-0.247-1.588c-0.112-0.464-0.23-0.936-0.372-1.397c0.318-0.861,0.659-1.714,1.1-2.527
				c0.206-0.38-0.368-0.717-0.58-0.339c-0.339,0.605-0.624,1.232-0.89,1.867c-0.357-0.784-0.864-1.475-1.678-1.94
				c-0.21-0.12-0.482,0.079-0.413,0.318c0.067,0.232,0.857,1.643,1.521,3.061c-0.396,1.065-0.773,2.14-1.218,3.188
				c-0.417-0.01-0.855-0.027-1.302-0.055c-0.278-1.065-0.513-2.13-0.657-3.209c0.779-1.794,1.448-3.741,1.653-5.56
				c0.033-0.291-0.417-0.284-0.453,0c-0.191,1.497-0.7,2.926-1.316,4.321C14.007,5.97,14.151,4.286,14.718,2.502z M12.32,12.916
				c0.475,0.128,0.969,0.224,1.469,0.293c0.234,0.899,0.482,1.79,0.723,2.68c-0.322,0.718-0.636,1.44-0.955,2.159
				c-0.925-0.472-1.826-0.988-2.794-1.349C11.248,15.416,11.766,14.146,12.32,12.916z M10.722,15.009
				c-0.025-1.019-0.2-2.002-0.383-2.968c0.395,0.276,0.842,0.495,1.323,0.668c-0.006,0.014-0.013,0.028-0.02,0.042
				C11.326,13.472,11.019,14.233,10.722,15.009z M12.835,11.819c0.142-0.299,0.279-0.609,0.423-0.9
				c0.067,0.337,0.137,0.672,0.214,1.003C13.256,11.893,13.044,11.858,12.835,11.819z M15.245,21.437
				c0.121,0.031,0.241,0.065,0.362,0.091c0.062,0.808,0.079,1.633,0.021,2.486c-0.067,0.972-0.184,1.855-0.263,2.701
				c-0.447-0.087-0.897-0.175-1.354-0.256c-0.243-0.043-0.534-0.074-0.839-0.108c0.35-0.77,0.691-1.535,0.984-2.291
				C14.501,23.174,14.867,22.302,15.245,21.437z M15.233,13.352c0.134,0.009,0.265,0.015,0.397,0.021
				c-0.078,0.179-0.158,0.357-0.238,0.536C15.338,13.723,15.286,13.537,15.233,13.352z M14.854,17.209
				c0.13,0.521,0.254,1.043,0.361,1.571c-0.303-0.103-0.593-0.233-0.882-0.364C14.507,18.013,14.68,17.611,14.854,17.209z
				 M14.461,21.198c-0.321,0.735-0.637,1.473-0.929,2.224c-0.354,0.907-0.801,1.853-1.246,2.818
				c-0.225-0.036-0.447-0.082-0.663-0.139c0.596-1.817,1.118-3.611,1.775-5.386C13.75,20.906,14.104,21.067,14.461,21.198z
				 M12.635,27.54c0.858,0.242,1.773,0.424,2.658,0.567c-0.007,0.928,0.093,1.848,0.447,2.834c-1.468-0.143-2.866-0.472-4.094-1.052
				C11.946,29.102,12.284,28.318,12.635,27.54z M15.901,33.084c-0.046,0.505-0.067,1.009-0.063,1.511
				c-1.252-0.175-2.498-0.296-3.761-0.429c-0.187-0.763-0.374-1.531-0.558-2.301C12.709,32.612,14.279,32.949,15.901,33.084z
				 M15.748,15.131c0.246-0.573,0.487-1.147,0.729-1.721c0.421,0.013,0.821,0.022,1.184,0.036c0.152,0.006,0.304,0.019,0.457,0.03
				c-0.597,1.243-1.202,2.478-1.8,3.714C16.138,16.495,15.944,15.81,15.748,15.131z M24.815,25.229
				c-0.446-1.468-0.791-2.942-1.113-4.432c0.671-0.416,1.138-1.041,1.185-2.009c0.031-0.625-0.839-0.993-1.26-0.522
				c-0.109,0.122-0.251,0.225-0.408,0.321c-0.135-0.601-0.275-1.205-0.43-1.813c-0.285-1.116-1.065-2.144-1.925-3.129
				c0.679-0.038,1.342-0.192,1.971-0.598c0.642-0.413,1.044-0.873,1.322-1.368c2.667,3.335,4.008,7.201,6.111,10.898
				C28.372,23.23,26.61,24.281,24.815,25.229z M30.635,23.204c0.325,0.545,0.665,1.086,1.037,1.619
				c0.34,0.488,0.609,0.98,0.852,1.473c-1.829,1.41-3.711,2.749-5.842,3.576c-0.302-0.614-0.593-1.227-0.857-1.833
				c-0.213-0.49-0.394-0.981-0.57-1.471C27.186,25.586,29.007,24.355,30.635,23.204z M17.152,21.731
				c0.663,0.038,1.341,0.027,2.041-0.023c0.082-0.006,0.175-0.012,0.26-0.017c-0.72,1.726-1.481,3.524-2.122,5.353
				c-0.025-0.004-0.05-0.008-0.075-0.011C16.949,25.392,17.322,23.954,17.152,21.731z M20.394,21.623
				c0.573-0.046,1.172-0.111,1.746-0.236c0.355,1.54,0.707,3.083,1.117,4.613c-0.71,0.326-1.431,0.618-2.177,0.834
				c-0.931,0.269-1.829,0.339-2.717,0.301C19.001,25.28,19.714,23.447,20.394,21.623z M21.6,19.109
				c-1.659,0.266-3.769,0.114-4.83,0.019c-0.046-0.232-0.099-0.46-0.151-0.689c0.771-1.628,1.566-3.247,2.345-4.886
				c0.214,0.022,0.426,0.043,0.639,0.062c0.431,0.673,0.832,1.371,1.08,2.16C21.028,16.873,21.323,17.988,21.6,19.109z
				 M18.087,12.064c-0.058,0.014-0.086,0.048-0.113,0.082c-0.283-0.008-0.61-0.012-0.964-0.017c0.249-0.617,0.475-1.242,0.694-1.87
				c0.152,0.469,0.367,0.91,0.612,1.339C18.321,11.848,18.26,12.023,18.087,12.064z M16.736,33.146c0.012,0,0.023,0.002,0.035,0.003
				c0.347,0.622,0.732,1.234,1.167,1.802c-0.474-0.1-0.944-0.184-1.414-0.259C16.583,34.174,16.646,33.658,16.736,33.146z
				 M17.831,28.77c0.035-0.113,0.072-0.225,0.107-0.337c1.926,0.102,3.847-0.354,5.695-1.115c0.051,0.172,0.097,0.345,0.15,0.516
				c0.276,0.888,0.587,1.761,0.909,2.63c-0.349,0.073-0.703,0.136-1.067,0.177c-1.305,0.147-2.816,0.313-4.379,0.378
				c-0.095-0.128-0.189-0.253-0.284-0.384C18.464,29.946,18.099,29.335,17.831,28.77z M22.197,32.916
				c1.118-0.091,2.198-0.287,3.239-0.571c0.846,2.066,1.803,4.082,2.808,6.076c-0.705-0.105-1.361-0.366-2.094-0.424
				c-0.041-0.003-0.069,0.019-0.102,0.032c-1.155-0.587-2.348-1.118-3.59-1.623c-0.401-1.303-1.019-2.355-1.728-3.37
				C21.271,32.994,21.769,32.95,22.197,32.916z M27.569,31.606c2.087-0.878,3.969-2.156,5.592-3.771
				c0.723,2.101,0.979,4.239,1.831,6.403c0.151,0.384,0.343,0.743,0.552,1.09c-1.251,0.585-2.504,1.166-3.682,1.892
				c-0.29,0.179-0.571,0.357-0.851,0.523C29.877,35.744,28.663,33.671,27.569,31.606z M10.691,5.514
				c0.943-1.779,2.103-2.637,3.355-2.913c-0.749,2.041-1.379,4.142-1.108,6.39c0.033,0.278,0.079,0.549,0.122,0.823
				c-0.31,0.621-0.621,1.238-0.917,1.853c-0.83-0.215-1.554-0.536-2.055-1.014C9.817,8.967,9.747,7.295,10.691,5.514z M10.558,18.22
				c0.648,0.695,1.244,1.395,2.056,1.992c-0.748,1.81-1.222,3.695-1.775,5.57c-0.262-0.146-0.493-0.325-0.654-0.571
				C9.927,22.694,10.316,20.531,10.558,18.22z M10.462,26.937c-0.019-0.104-0.044-0.209-0.063-0.313
				c0.044,0.03,0.099,0.056,0.146,0.085C10.518,26.785,10.49,26.861,10.462,26.937z M10.742,28.323
				c0.183-0.414,0.353-0.833,0.519-1.253c0.18,0.075,0.363,0.148,0.556,0.215c-0.317,0.719-0.606,1.447-0.845,2.178
				C10.889,29.083,10.822,28.703,10.742,28.323z M17.673,63.865c0.082-0.057,0.142-0.151,0.146-0.246
				c0.004-0.109,0.007-0.218,0.011-0.327c0.004-0.149-0.208-0.252-0.308-0.129c-0.06,0.074-0.179-1.637-0.15-1.974
				c0.063-0.737,0.233-1.468,0.403-2.187c0.295-1.247,0.63-2.481,0.912-3.731c0.127-0.565,0.296-1.117,0.476-1.666
				c0.434,1.064,0.83,2.152,1.352,3.148c0.191,0.365,0.363,0.743,0.54,1.117c-0.825,2.636-1.796,5.489-1.748,8.293
				C18.743,65.397,18.199,64.625,17.673,63.865z M20.871,68.185c-0.306-0.376-0.608-0.758-0.904-1.145
				c0.472-2.699,0.963-5.306,1.667-7.93c0.388,0.871,0.778,1.742,1.188,2.601c-0.153,0.52-0.311,1.038-0.454,1.563
				C21.926,64.901,21.155,66.523,20.871,68.185z M24.574,71.978c-0.177-0.144-0.364-0.274-0.535-0.425
				c-0.888-0.782-1.733-1.679-2.547-2.628c0.282-1.894,1.374-4.804,1.853-6.183c0.23,0.437,0.457,0.875,0.717,1.292
				c0.611,0.978,1.293,1.906,2.03,2.788C25.563,68.534,24.911,70.234,24.574,71.978z M30.616,76.283
				c-1.714-1.344-3.617-2.451-5.357-3.762c0.393-1.661,1.014-3.312,1.526-4.914c0.49,0.542,0.992,1.072,1.523,1.575
				c1.935,1.837,4.102,2.344,6.249,3.766c0.173,0.115,0.376-0.147,0.222-0.288c-1.855-1.709-4.252-2.58-6.075-4.44
				c-0.543-0.553-1.075-1.126-1.588-1.716c0.683-2.456,1.078-5.315,2.381-7.512c0.265-0.447-0.429-0.851-0.695-0.406
				c-1.261,2.108-1.736,4.706-2.379,7.091c-1.053-1.305-1.985-2.705-2.662-4.233c-0.003-0.006-0.006-0.012-0.009-0.019
				c0.786-2.723,1.758-5.387,2.773-8.032c0.181-0.471-0.572-0.671-0.753-0.208c-0.926,2.367-1.783,4.741-2.54,7.155
				c-0.405-0.823-0.829-1.631-1.265-2.431c0.041-0.138,0.072-0.274,0.115-0.412c0.984-3.213,2.027-6.369,2.937-9.606
				c0.134-0.475-0.6-0.676-0.738-0.204c-0.9,3.081-1.928,6.093-2.897,9.147c-0.334-0.617-0.664-1.239-0.977-1.875
				c-0.352-0.716-0.652-1.443-0.974-2.149c0.378-1.086,0.769-2.167,1.006-3.291c0.358-1.698,0.102-3.499,1.028-5.045
				c0.243-0.407-0.39-0.775-0.634-0.371c-1.015,1.685-0.739,3.636-1.171,5.488c-0.184,0.789-0.416,1.568-0.658,2.345
				c-0.437-0.837-0.955-1.624-1.705-2.297c-0.201-0.18-0.49,0.103-0.298,0.298c0.776,0.792,1.311,1.746,1.767,2.751
				c-0.397,1.239-0.805,2.477-1.114,3.74c-0.329,1.346-1.358,3.853-1.149,5.708c-1.69-2.662-2.695-6.307-3.589-9.795
				c0.601-4.345,2.037-8.665,2.086-13.052c0.005-0.453-0.697-0.453-0.703,0c-0.053,3.876-1.492,7.594-1.797,11.436
				c-0.344-1.339-0.686-2.626-1.06-3.789c-0.686-2.13-1.095-4.333-1.764-6.461c-0.331-1.054-1.734-2.936-1.499-3.8
				c0.289-1.065,1.452-0.335,2.72-0.144c2.52,0.38,4.846,0.584,7.245,1.496c4.596,1.747,8.66,3.898,12.144,7.406
				c5.318,5.354,7.816,13.295,12.608,19.11c0.339,0.411,0.807,0.401,1.186,0.189c0.613,1.309,1.064,2.724,1.518,4.061
				c0.821,2.417,1.375,4.865,2.396,7.199c-0.689,0.25-1.372,0.504-2.052,0.752c-0.436,0.107-0.877,0.26-1.288,0.456
				c-2.087,0.704-4.249,1.234-6.796,1.143c-1.41-0.05-2.778,0.163-4.119,0.519C32.634,78.097,31.652,77.096,30.616,76.283z
				 M31.061,83.172c0.281-0.096,0.557-0.191,0.829-0.282c4.159,0.217,7.517,2.119,9.98,5.211c-0.447,0.035-0.899,0.06-1.364,0.064
				c-2.306,0.022-4.596-0.392-6.867-0.414c-0.941-1.307-2.159-3.227-3.586-4.184C30.387,83.429,30.721,83.289,31.061,83.172z
				 M25.517,85.428c1.24-0.37,2.431-0.943,3.632-1.478c1.23,0.794,2.365,2.742,3.069,3.854c-0.717,0.058-1.433,0.159-2.146,0.36
				c-0.675,0.19-1.434,0.48-2.125,0.879c-1.231-1.447-2.643-2.648-4.17-3.241C24.364,85.71,24.946,85.598,25.517,85.428z
				 M19.397,86.49c2.573,0.03,4.955,1.803,6.825,4.022c-1.764,0.398-3.549,1.287-5.084,2.375c-0.866-1.035-1.867-1.933-2.898-2.566
				c-1.116-0.685-3.034-1.231-4.784-1.21C15.239,87.934,17.21,87.077,19.397,86.49z M12.184,90.087
				c1.185-0.126,2.587,0.193,3.509,0.443c1.661,0.452,2.855,1.489,4.002,2.722c0.133,0.143,0.263,0.289,0.392,0.436
				c-0.261,0.218-0.513,0.44-0.75,0.664c-1.216,1.154-2.202,2.583-3.215,3.91c-0.151,0.198-0.29,0.418-0.429,0.642
				c-1.173-1.207-2.938-2.192-4.124-0.875c-0.576-1.025-0.825-2.282-0.869-3.511C10.632,92.595,11.277,91.372,12.184,90.087z
				 M5.735,106.017c-0.535-2.164-0.497-4.085-0.075-5.854c0.66,2.741,2.774,5.643,4.76,3.398c0.332-0.375-0.162-0.849-0.541-0.541
				c-0.515,0.417-1.172,0.226-1.541-0.202c-0.156-0.18-0.276-0.376-0.4-0.578c-0.339-0.557-0.583-1.166-0.761-1.792
				c-0.272-0.959-0.115-2.155-0.505-3.069c0.721-1.468,1.687-2.849,2.764-4.209c-0.115,0.844-0.101,1.767,0.045,2.798
				c0.22,1.548,1.06,3.449,2.427,4.263c-1.279,1.016-1.451,3.78-1.441,5.4c0.001,0.201,0.013,0.396,0.031,0.588
				c-1.198,1.077-2.374,2.24-3.43,3.477C6.511,108.57,6.062,107.343,5.735,106.017z M11.123,114.752
				c-0.352-0.28-0.69-0.575-1.014-0.887c0.443-0.666,0.85-1.36,1.265-2.049c-0.209,0.631-0.427,1.248-0.405,1.938
				C10.98,114.094,11.041,114.425,11.123,114.752z M11.883,109.919c-0.028,0.042-0.058,0.083-0.086,0.126
				c-0.718,1.091-1.316,2.347-2.048,3.475c-0.741-0.761-1.395-1.617-1.97-2.551c0.218-0.231,0.404-0.42,0.492-0.516
				c0.871-0.956,1.701-1.957,2.532-2.957c0.228,0.535,0.587,1.008,1.134,1.4c0.153,0.11,0.307,0.185,0.46,0.271
				c-0.079,0.116-0.159,0.231-0.238,0.348C11.948,109.512,11.751,109.702,11.883,109.919z M30.393,116.135
				c-1.008,0.118-1.942,0.397-3.027,0.799c-3.075,1.141-4.578,1.56-7.892,1.156c-2.429-0.296-4.606-1.007-6.496-2.085
				c-0.196-0.455-0.412-0.921-0.573-1.47c-0.284-0.967-0.042-2.236,0.248-3.402c0.677,1.123,1.347,2.296,2.346,3.101
				c0.15,0.121,0.306,0.222,0.464,0.315c-0.301,0.363-0.628,0.716-0.995,1.058c-0.245,0.228,0.116,0.581,0.365,0.365
				c0.414-0.361,0.796-0.755,1.163-1.162c1.135,0.45,2.408,0.35,3.655,0.183c0.2-0.027,0.305-0.363,0.054-0.399
				c-1.018-0.147-2.106-0.186-3.084-0.517c0.5-0.642,0.944-1.327,1.319-2.049c0.046-0.088,0.106-0.173,0.153-0.26
				c1.128,0.499,2.258,0.913,3.395,1.19c-0.93,1.351-1.911,3.225-3.422,3.527c-0.402,0.081-0.228,0.678,0.168,0.61
				c1.063-0.181,1.712-0.938,2.368-1.757c0.591-0.737,1.189-1.469,1.786-2.201c0.165,0.03,0.33,0.071,0.496,0.095
				c-0.359,0.953-0.716,1.901-0.922,2.854c-0.769,0.673-1.543,1.314-1.55,1.205c-0.021-0.333-0.527-0.34-0.523,0
				c0.002,0.173,0.004,0.346,0.005,0.519c0.002,0.164,0.177,0.331,0.348,0.265c0.573-0.22,1.085-0.529,1.561-0.887
				c-0.002,0.035-0.011,0.069-0.013,0.104c-0.011,0.254,0.322,0.473,0.541,0.31c0.995-0.739,1.266-1.39,1.553-2.429
				c0.158-0.178,0.315-0.357,0.471-0.535c0.377-0.428,0.738-0.87,1.108-1.305c0.991-0.067,1.993-0.262,3.009-0.617
				c0.49,0.115,0.985,0.219,1.483,0.314c-1.118,1.477-2.307,2.904-3.874,3.515c-0.299,0.117-0.177,0.601,0.135,0.49
				c1.971-0.7,3.119-2.328,4.351-3.896c0.095,0.016,0.191,0.031,0.286,0.046C30.707,114.164,30.542,115.244,30.393,116.135z
				 M31.254,110.473c-0.015,0.081-0.073,0.482-0.157,1.055c-0.193,0.249-0.387,0.501-0.581,0.758
				c-0.512-0.023-1.028-0.052-1.55-0.095c-0.037-0.131-0.136-0.246-0.318-0.258c-0.68-0.047-1.334-0.045-1.973-0.031
				c1.021-1.222,2.036-2.45,3.073-3.659c0.548-0.639,1.13-1.252,1.715-1.863c0.027,0.008,0.054,0.015,0.081,0.023
				C31.573,107.793,31.497,109.165,31.254,110.473z M36.633,115.686c-0.093,0.199-0.178,0.451-0.242,0.719
				c-1.395,0.219-2.428-0.174-4.309-0.314c0.03-0.147,0.056-0.296,0.08-0.445c0.779-0.743,1.557-1.486,2.337-2.23
				c0.443-0.019,0.885-0.052,1.326-0.114c0.756-0.108,1.484-0.326,2.207-0.566C37.672,113.781,37.109,114.661,36.633,115.686z
				 M51.397,113.461c-0.159,0.011-0.318,0.023-0.477,0.029c0.263-0.159,0.524-0.322,0.779-0.495
				C51.602,113.152,51.5,113.307,51.397,113.461z M49.47,113.487c-0.006,0.003-0.009,0.008-0.015,0.012
				c-1.776-0.038-3.545-0.194-5.356,0.022c-2.109,0.251-3.558,1.181-5.414,2.101c-0.146,0.072-0.266,0.116-0.402,0.177
				c0.108-0.199,0.22-0.397,0.324-0.579c0.886-0.701,1.853-1.293,2.671-2.095c0.566-0.556,1.114-1.113,1.67-1.662
				c0.953-0.166,1.909-0.319,2.854-0.517c0.049-0.01,0.097-0.02,0.145-0.03c-0.048,0.29-0.094,0.581-0.127,0.874
				c-0.036,0.318,0.48,0.455,0.611,0.166c0.198-0.437,0.396-0.856,0.592-1.263c0.574-0.118,1.147-0.238,1.718-0.356
				c-0.261,0.255-0.528,0.502-0.784,0.763c-0.244,0.248,0.131,0.622,0.381,0.381c0.484-0.467,0.978-0.921,1.475-1.37
				c1.209-0.255,2.414-0.518,3.617-0.812c-0.243,0.74-0.553,1.46-0.895,2.17C51.56,112.244,50.543,112.941,49.47,113.487z
				 M58.804,111.478c0.015-0.009,0.03-0.019,0.045-0.028c0.001,0.004,0.001,0.008,0.002,0.011
				C58.835,111.467,58.819,111.472,58.804,111.478z M59.352,109.482c-0.036,0.109-0.085,0.693-0.16,1.095
				c-0.53,0.391-1.082,0.735-1.675,0.991c-0.16,0.069-0.143,0.257-0.053,0.379c-1.326,0.465-2.655,0.919-4.02,1.233
				c-0.253,0.058-0.507,0.093-0.761,0.134c0.416-0.632,0.784-1.28,1.109-1.94c0.945-0.807,1.853-1.662,2.758-2.493
				c0.226-0.208,0.451-0.408,0.677-0.613c1.046-0.308,2.111-0.62,3.185-0.898c-0.132,0.273-0.266,0.54-0.401,0.791
				C59.781,108.592,59.508,109.014,59.352,109.482z M66.74,109.463c-0.338-0.055-0.521,0.339-0.366,0.543
				c-1.588,0.088-3.164,0.191-4.729,0.59c-0.546,0.138-1.082,0.309-1.619,0.48c0.082-0.23,0.186-0.452,0.292-0.675
				c1.104-0.901,2.134-1.936,3.191-2.796c0.436-0.354,0.896-0.689,1.345-1.032c0.474-0.034,0.947-0.051,1.418-0.041
				c0.83,0.018,1.643,0.173,2.458,0.31c-0.439,0.815-0.892,1.691-1.185,2.572C67.278,109.474,67.009,109.506,66.74,109.463z
				 M73.231,109.096c-1.446,0.346-2.92,0.617-4.503,0.755c0.029-0.054,0.06-0.109,0.09-0.163c1.356-0.674,2.627-1.904,3.755-2.573
				c0.231-0.137,0.466-0.266,0.698-0.402c0.499-0.111,0.996-0.233,1.491-0.357c0.106-0.026,0.21-0.062,0.316-0.089
				C74.579,107.299,73.977,108.266,73.231,109.096z M75.217,104.573c-0.146,0.086-0.292,0.172-0.438,0.258
				c-1.172,0.331-2.383,0.64-3.559,0.717c-0.039,0.003-0.077,0-0.116,0.002c0.624-1.215,1.241-2.425,1.653-3.744
				c0.112-0.358,0.192-0.706,0.264-1.053c0.301-0.216,0.61-0.428,0.907-0.647c0.438-0.324,0.881-0.643,1.322-0.965
				c0.612-0.059,1.224-0.112,1.836-0.166c-0.068,0.857-0.171,1.615-0.302,2.179c-0.229,0.983-0.505,2.001-0.847,3
				C75.697,104.294,75.456,104.433,75.217,104.573z M82.021,106.734c-1.015,0.191-2.024,0.409-3.016,0.71
				c-0.833,0.252-1.642,0.501-2.442,0.741c0.768-0.89,1.41-1.903,1.94-2.962c1.495-0.505,2.983-1.035,4.491-1.485
				C82.772,104.778,82.456,105.79,82.021,106.734z M90.787,104.678c-0.691,0.302-1.389,0.575-2.11,0.773
				c-1.827,0.501-3.709,0.769-5.583,1.089c0.517-0.98,0.889-2.026,1.146-3.151c0.36-0.093,0.721-0.186,1.085-0.264
				c0.491-0.107,0.985-0.181,1.48-0.242c-0.312,0.208-0.63,0.409-0.92,0.641c-0.378,0.301,0.156,0.827,0.53,0.53
				c0.612-0.484,1.279-0.908,1.969-1.306c1.059-0.057,2.122-0.064,3.186-0.075C91.407,103.368,91.145,104.047,90.787,104.678z
				 M91.752,101.126c-0.108,0.001-0.216,0.003-0.324,0.005c0.109-0.057,0.217-0.114,0.326-0.172
				C91.755,101.014,91.752,101.07,91.752,101.126z M95.746,102.546c-0.861,0.259-1.695,0.619-2.522,1.002
				c0.003-0.008,0.006-0.015,0.009-0.023c0.099-0.309,0.164-0.607,0.211-0.901c0.645-0.028,1.288-0.069,1.93-0.148
				c0.63-0.078,1.24-0.193,1.852-0.306C96.743,102.276,96.254,102.393,95.746,102.546z M97.655,100.58
				c-0.45,0.081-0.902,0.169-1.347,0.24c-0.916,0.146-1.834,0.216-2.754,0.257c0.002-0.29,0-0.586,0.003-0.896
				c0.001-0.095,0.007-0.185,0.01-0.279c1.657-1.067,3.184-2.32,4.823-3.411C98.308,97.922,98.006,99.255,97.655,100.58z
				 M97.29,96.258c-1.239,0.878-2.437,1.786-3.68,2.64c0.041-0.733,0.07-1.455-0.076-2.215c-0.073-0.381-0.693-0.379-0.768,0
				c-0.182,0.92-0.677,1.684-0.905,2.584c-0.071,0.281-0.094,0.555-0.104,0.828c-0.002,0.001-0.004,0.002-0.005,0.003
				c-0.627,0.37-1.282,0.715-1.941,1.059c-1.181,0.026-2.36,0.081-3.534,0.25c-0.589,0.085-1.168,0.208-1.744,0.345
				c0.043-0.308,0.088-0.615,0.122-0.934c0.025-0.241,0.034-0.482,0.052-0.723c2.33-1.438,4.574-2.986,6.906-4.408
				c0.506-0.136,1.01-0.277,1.516-0.41c1.737-0.456,3.5-0.75,5.266-0.995c0.015,0.41,0.022,0.814,0.027,1.215
				C98.041,95.747,97.66,95.995,97.29,96.258z M98.082,85.325c1.759-0.297,3.566-0.16,5.344-0.283
				c0.09-0.006,0.181-0.018,0.27-0.025c0.448,2.181,0.577,4.63,0.397,7.01c-0.004,0.002-0.007,0.005-0.011,0.007
				c-0.211,0.045-0.411,0.104-0.624,0.148c-1.217,0.251-2.452,0.412-3.69,0.554c-0.054-0.75-0.144-1.498-0.256-2.239
				c1.143-0.64,2.44-1.161,3.269-2.075c0.14-0.154-0.037-0.405-0.227-0.295c-1.051,0.611-2.131,0.883-3.2,1.406
				c-0.184-0.95-0.425-1.878-0.75-2.76C98.427,86.293,98.256,85.809,98.082,85.325z M110.025,87.665
				c-1.228,1.174-2.569,2.172-3.958,3.099c0.41-2.017,0.537-4.079,0.22-6.073c0.83-0.147,1.652-0.331,2.443-0.567
				c0.48-0.143,0.957-0.318,1.434-0.499c0.43,1.572,0.588,3.203,0.509,4.944c-0.026,0.584-0.086,1.161-0.173,1.731
				c-1.419,0.457-2.852,0.858-4.302,1.228c1.479-1.074,2.872-2.25,4.075-3.615C110.422,87.745,110.19,87.507,110.025,87.665z
				 M105.96,83.229c-0.247-0.885-0.582-1.753-1.041-2.588c-0.301-0.548-0.62-1.056-0.951-1.536c1.234,0.012,2.425-0.2,3.682-0.358
				c0.081-0.01,0.147-0.037,0.206-0.071c0.286,0.498,0.56,0.994,0.835,1.461c0.448,0.761,0.805,1.53,1.096,2.31
				C108.511,82.761,107.244,83.034,105.96,83.229z M100.871,93.959c-0.343,0.206-0.683,0.418-1.024,0.628
				c-0.005-0.167-0.002-0.329-0.008-0.496C100.183,94.047,100.527,94.003,100.871,93.959z M103.362,100.551
				c-1.549,0.72-2.961,1.002-4.395,1.271c0.003-0.009,0.008-0.018,0.011-0.027c2.138-0.515,4.208-1.209,6.29-2.076
				c0.442-0.184,0.419-0.859-0.118-0.875c-1.457-0.043-2.713,0.573-4.09,0.975c-0.529,0.155-1.079,0.272-1.624,0.396
				c0.303-1.341,0.426-2.731,0.435-4.049c0.001-0.199-0.008-0.406-0.009-0.607c1.025-0.619,2.064-1.241,3.099-1.881
				c0.325-0.046,0.651-0.093,0.975-0.143c-0.145,1.101-0.352,2.167-0.624,3.16c-0.102,0.372,0.468,0.64,0.643,0.271
				c0.551-1.166,1.048-2.405,1.454-3.682c1.604-0.295,3.186-0.673,4.726-1.229c-0.703,2.693-2.033,5.193-3.725,7.396
				C105.424,99.734,104.45,100.047,103.362,100.551z M112.822,94.983c-1.129,1.085-2.461,1.904-3.743,2.764
				c0.567-0.705,1.017-1.48,1.226-2.387c0.311-1.346,0.912-2.58,1.283-3.897c0.788-0.353,1.567-0.741,2.327-1.218
				c0.484-0.304,0.179-1.174-0.406-0.964c-0.537,0.193-1.07,0.371-1.604,0.553c0.158-1.343,0.146-2.771,0.03-4.082
				c-0.082-0.924-0.268-1.775-0.518-2.591c0.888-0.311,1.79-0.558,2.733-0.571c0.396-0.006,0.377-0.56,0-0.602
				c-0.999-0.11-2.056-0.01-3.077,0.179c-0.626-1.609-1.509-3.096-2.461-4.688c-0.776-1.298-1.719-3.503-3.563-3.055
				c-0.334,0.081-0.35,0.52-0.09,0.692c0.982,0.653,1.727,1.642,2.38,2.693c-1.59-0.124-3.144-0.197-4.713-0.383
				c-0.86-0.911-1.806-1.638-2.844-2.175c2.695-0.125,5.194-0.888,8.023-1.89c1.297-0.034,2.567,0.169,3.465,0.707
				c3.633,2.178,3.887,6.315,4.191,10.09C115.777,88.089,115.858,92.065,112.822,94.983z"/>
			<path d="M40.55,71.889c0.14,0.115,0.315-0.058,0.199-0.199c-0.756-0.916-1.704-1.357-2.602-2.115
				c-0.935-0.789-1.951-2.081-2.77-3.045c-1.97-2.32-2.985-5.748-4.472-8.39c-0.188-0.333-0.696-0.036-0.513,0.3
				c1.411,2.589,2.347,5.74,4.086,8.117c0.763,1.044,1.695,2.281,2.655,3.168C38.123,70.638,39.498,71.026,40.55,71.889z"/>
			<path d="M16.802,42.29c-0.2,5.479-2.79,10.992-1.833,16.55c0.031,0.179,0.33,0.179,0.362,0c0.452-2.606,0.469-5.331,0.823-7.97
				c0.381-2.835,1.241-5.73,1.344-8.58C17.513,41.842,16.818,41.843,16.802,42.29z"/>
		</g>
	</g>
</g>
<g>
</g>
<g>
</g>
<g>
</g>
<g>
</g>
<g>
</g>
<g>
</g>
<g>
</g>
<g>
</g>
<g>
</g>
<g>
</g>
<g>
</g>
<g>
</g>
<g>
</g>
<g>
</g>
<g>
</g>
</svg>
