<?xml version="1.0" encoding="iso-8859-1"?>
<!-- Generator: Adobe Illustrator 19.0.0, SVG Export Plug-In . SVG Version: 6.00 Build 0)  -->
<svg version="1.1" id="Layer_1" xmlns="http://www.w3.org/2000/svg" xmlns:xlink="http://www.w3.org/1999/xlink" x="0px" y="0px"
	 viewBox="0 0 122.414 122.414" style="enable-background:new 0 0 122.414 122.414;" xml:space="preserve">
<g>
	<g>
		<g>
			<path d="M122.354,80.26c-0.855-3.374-8.236-0.875-10.152-0.668c-6.143,0.665-12.237,1.811-18.352,2.497
				c2.819-5.433,3.375-12.432,3.211-18.44c-0.17-6.208-2.936-13.634-7.695-17.598c-4.6-3.832-10.809-7.636-16.85-8.501
				c-3.437-0.492-6.932-0.8-10.387-1.336c-1.572-0.244-3.494-0.027-4.962-0.668c-0.821-0.359-1.389-0.881-1.99-1.378
				c-0.549-2.635-0.669-5.277-0.793-8.056c-0.227-5.078-0.102-10.23,0.137-15.204c0.207-4.307-1.579-9.155-6.275-9.759
				C44.89,0.718,37.898,1.605,37.256,5.9c-0.061,0.404,0.447,0.861,0.783,0.456c0.058-0.069,0.128-0.139,0.193-0.208
				c0.355,1.815,0.681,3.623,0.943,5.426c-0.329,0.466-0.673,0.925-1.057,1.362c-0.089,0.101,0.026,0.278,0.152,0.196
				c0.383-0.248,0.708-0.553,1.002-0.887c0.805,5.917,0.831,11.777-1.393,17.6c-0.875,2.292-1.791,4.272-2.859,6.433
				c-0.018,0.036-0.036,0.068-0.054,0.103c-2.47,2.811-7.663,3.977-10.693,4.916c-3.428,1.062-6.484,2.756-9.383,4.854
				C8.959,50.443,1.51,55.625,0.323,63.432C-0.183,66.76-0.2,70.41,1.043,73.564c0.551,1.398,1.282,2.704,2.156,3.919
				c1.989,2.764,3.261,4.478,3.883,7.972c0.578,3.243,1.536,6.853,3.581,9.524c0.829,1.082,1.844,1.842,2.965,2.398
				c0.394,0.39,0.805,0.755,1.237,1.08c2.105,1.583,5.112,2.033,7.589,2.316c4.289,0.489,4.868,2.914,7.795,5.417
				c3.946,3.373,9.241,3.545,13.99,2.078c0.894,0.243,1.922,0.342,2.752,0.24c1.103-0.136,2.096-0.652,3.189-0.852
				c0.733-0.134,1.462-0.294,2.18-0.488c1.553,4.312,4.412,7.605,8.714,9.828c6.473,3.344,12.686,4.15,19.873,4.362
				c3.745,0.11,8.789-1.605,11.817-3.771c1.697-1.214,3.081-2.947,4.178-4.89c-0.093,1.075,0.948,2.327,2.229,2.012
				c3.753-0.924,7.446-4.398,9.487-7.531c1.616-2.48,2.907-4.976,3.68-7.83c0.911-3.365,1.1-6.541,3.049-9.588
				C116.628,87.82,123.099,83.2,122.354,80.26z M21.461,97.209c-0.13-0.444-0.427-0.852-0.879-1.04
				c-0.09-0.038-0.173-0.076-0.262-0.114c-0.107-2.126,2.049-5.912,2.501-6.846c1.17-2.414,2.481-4.756,3.765-7.111
				c1.223-2.243,2.428-4.518,3.662-6.776c-1.538,3.954-2.854,7.722-2.708,12.088c-1.013,2.214-2.055,4.416-2.922,6.672
				c-0.207,0.54-0.968,2.036-1.222,3.285C22.752,97.314,22.105,97.278,21.461,97.209z M26.795,98.094
				c-0.802-0.348-1.618-0.519-2.439-0.624c0.545-2.141,2.311-6.081,2.504-6.533c0.257-0.604,0.533-1.196,0.803-1.792
				c0.251,2.029,0.821,4.241,1.559,6.177c-0.336,1.177-0.697,2.345-1.032,3.522C27.759,98.571,27.309,98.316,26.795,98.094z
				 M30.303,100.498c-0.43-0.395-0.848-0.745-1.275-1.072c0.302-0.837,0.588-1.686,0.85-2.543c0.011,0.023,0.021,0.048,0.031,0.07
				c0.926,1.94,2.996,5.211,5.299,6.841c0.143,0.307,0.313,0.603,0.509,0.885C33.601,103.931,32.289,102.325,30.303,100.498z
				 M47.165,105.105c-0.254-0.269-0.582-0.468-0.957-0.498c-1.896-0.15-3.738,0.198-5.605,0.396
				c-0.445-0.365-0.885-0.733-1.348-1.077c-0.119-0.088-0.232-0.185-0.348-0.277c0.023-0.254-0.009-0.517-0.116-0.757
				c-0.041-0.093-0.094-0.174-0.139-0.263c0.091-0.344,0.177-0.69,0.244-1.041c0.319-1.665,0.855-3.293,1.298-4.93
				c0.17-0.627-0.799-0.893-0.972-0.268c-0.493,1.786-0.81,3.525-1.127,5.328c-0.352-0.488-0.748-0.944-1.166-1.417
				c-0.639-0.724-1.215-1.38-1.75-2.027c1.329-4.234,3.055-8.131,5.295-12.095c0.198-0.351-0.308-0.633-0.533-0.312
				c-2.315,3.316-4.467,7.442-5.407,11.595c-0.529-0.691-1.014-1.396-1.455-2.186c0.536-0.945,0.968-1.403,1.23-2.635
				c0.397-1.865,1.175-3.535,1.983-5.262c1.557-3.328,2.822-6.766,4.32-10.119c0.244-0.546-0.563-1.024-0.809-0.473
				c-1.562,3.496-2.912,7.078-4.48,10.573c-0.625,1.394-1.344,2.832-1.693,4.325c-0.234,1.001-0.619,1.95-0.902,2.916
				c-0.217-0.432-0.428-0.882-0.627-1.377c-0.213-0.53-0.42-1.047-0.621-1.561c0.054,0.028,0.103,0.062,0.167,0.079
				c0.202,0.055,0.408-0.233,0.22-0.379c-1.237-0.959,2.322-8.082,2.669-8.824c0.934-1.997,2.029-3.943,2.874-5.981
				c0.661-1.593,0.903-3.443,2.031-4.8c0.271-0.326-0.195-0.798-0.47-0.469c-1.361,1.626-1.695,3.877-2.582,5.763
				c-1.292,2.745-2.757,5.406-3.908,8.217c-0.299,0.729-1.446,3.277-1.533,4.962c-0.224-0.638-0.434-1.282-0.609-1.953
				c-0.322-1.238-0.48-2.454-0.53-3.658c0.028-0.025,0.053-0.054,0.057-0.096c0.017-0.171,0.05-0.339,0.087-0.506
				c0.28-0.669,0.545-1.344,0.791-2.028c0.333-0.655,0.693-1.299,0.959-1.957c0.866-2.14,1.74-4.26,2.664-6.376
				c0.617-1.414,1.033-2.92,1.701-4.309c0.706-1.469,1.657-2.766,2.274-4.287c0.061-0.15-0.179-0.243-0.257-0.108
				c-0.935,1.627-2.103,3.147-2.846,4.871c-0.87,2.017-1.716,4.047-2.58,6.068c-0.403,0.943-0.773,1.9-1.153,2.853
				c-0.207-0.203-0.615-0.2-0.71,0.165c-0.249,0.957-0.559,1.895-0.891,2.826c0.212-1.965,0.691-3.92,1.328-5.905
				c0.45-1.402,0.931-3.139,1.507-4.906c0.432-0.737,0.86-1.477,1.307-2.202c0.173-0.281-0.051-0.541-0.303-0.576
				c0.707-1.739,1.547-3.345,2.595-4.491c0.165-0.18-0.083-0.421-0.265-0.265c-2.082,1.782-3.214,4.654-4.187,7.436
				c-1.182,2.087-2.298,4.209-3.579,6.242c-1.949,3.093-3.646,6.457-5.363,9.685c-0.611,1.147-3.485,5.922-3.714,8.821
				c-0.99-0.454-1.888-0.93-2.707-1.452c0.049-0.169-0.073-0.366-0.248-0.41c0.535-1.868,1.72-4.065,2.607-5.657
				c1.118-2.008,2.562-4.11,3.889-5.988c1.394-1.975,2.972-3.79,4.307-5.811c1.569-2.375,3.009-4.827,4.866-6.995
				c0.28-0.326-0.19-0.803-0.475-0.475c-1.728,1.987-3.153,4.154-4.614,6.34c-1.589,2.377-3.532,4.462-5.159,6.801
				c-1.392,2.002-3.026,4.189-4.093,6.377c-0.762,1.562-1.787,3.271-2.216,5.021c-0.924-0.727-1.723-1.556-2.391-2.562
				c-0.072-0.151-0.135-0.308-0.203-0.462c0.236-0.069,0.272-0.393,0.068-0.54c-1.255-0.9,6.559-10.075,7.367-11.179
				c1.419-1.939,3.396-3.388,4.679-5.419c1.658-2.624,4.145-4.448,6.073-6.865c0.303-0.38-0.207-0.924-0.547-0.547
				c-1.341,1.488-2.797,2.817-4.218,4.223c-1.258,1.244-1.968,2.766-3.155,4.063c-2.266,2.475-4.392,4.955-6.556,7.526
				c-0.351,0.416-3.547,4.48-4.41,6.925c-0.656-1.978-1.064-4.065-1.414-6.05c0.369-0.305,0.732-0.603,1.058-1.035
				c0.936-1.24,1.719-2.41,2.864-3.49c1.911-1.801,3.427-3.891,5.235-5.785c1.813-1.9,3.962-3.422,5.835-5.263
				c1.997-1.963,3.845-4.072,5.809-6.068c0.349-0.355-0.196-0.901-0.547-0.547c-1.971,1.989-3.828,4.089-5.831,6.045
				c-2.072,2.024-4.447,3.688-6.406,5.831c-1.87,2.045-3.649,4.059-5.602,6.027c-0.785,0.791-1.292,1.603-1.904,2.527
				c-0.214,0.324-0.451,0.584-0.684,0.837c-0.46-2.332-0.999-4.191-0.803-6.743c0.003-0.043,0.01-0.086,0.013-0.129
				c0.53-0.558,1.205-1.149,1.379-1.307c1.174-1.063,2.314-2.165,3.454-3.264c1.357-1.308,2.715-2.598,4.116-3.843
				c0.801,0.379,1.612-0.354,1.333-1.152c0.397-0.334,0.793-0.67,1.201-0.993c0.157-0.124,0.316-0.243,0.474-0.365
				c0.472-0.007,0.926-0.086,1.309-0.33c0.375-0.239,0.526-0.642,0.467-1.021c3.556-2.643,7.177-5.06,10.486-8.118
				c0.308-0.284-0.15-0.738-0.458-0.458c-2.478,2.243-4.885,4.299-7.835,5.892c-0.977,0.527-1.895,1.195-2.786,1.907
				c-0.916-0.488-2.168-0.175-3.149-0.089c-1.31,0.114-1.312,1.925,0,2.039c0.224,0.02,0.464,0.052,0.71,0.083
				c-0.262,0.219-0.524,0.434-0.788,0.644c-0.054,0.043-0.105,0.091-0.159,0.134c-0.96-0.759-2.312-0.322-2.992,0.693
				c-0.406,0.608,0.151,1.23,0.741,1.246c-1.586,1.44-3.112,2.948-4.671,4.416c-0.787,0.741-1.76,1.469-2.632,2.276
				c0.288-1.839,0.714-3.65,0.7-5.513c-0.003-0.482-0.651-0.531-0.806-0.109c-1.243,3.382-2.038,6.398-2.336,9.511
				C5.274,74.012,3.621,72.08,3.346,68c-0.325-4.803,1.213-8.494,4.204-12.135c4.8-5.843,12.369-10.655,19.522-12.902
				c1.702-0.535,3.478-1.222,5.044-2.157c0.112-0.007,0.225-0.012,0.336-0.026c-0.58,0.903-1.187,1.776-1.812,2.634
				c-2.467,0.747-4.921,1.515-7.478,1.945c-0.169,0.028-0.159,0.296,0,0.332c2.065,0.467,4.369-0.239,6.546-1.016
				c-0.01,0.013-0.02,0.027-0.03,0.04c-1.436,0.596-2.865,1.209-4.305,1.789c-4.759,1.919-9.419,4.006-14.213,5.847
				c-0.177,0.068-0.169,0.36,0.048,0.353c2.201-0.066,4.471-1.108,6.494-1.929c2.806-1.139,5.52-2.505,8.325-3.657
				c0.881-0.362,1.759-0.737,2.636-1.112c-0.857,1.077-1.742,2.159-2.687,3.287c-0.22,0.262,0.077,0.755,0.398,0.515
				c2.459-1.837,4.463-3.45,6.265-5.433c0.38-0.146,0.758-0.298,1.142-0.435c2.173-0.781,4.659-1.337,6.603-2.615
				c0.227-0.149,0.187-0.428,0.035-0.569c0.939-0.507,1.879-1.015,2.876-1.415c0.382-0.153,0.232-0.773-0.174-0.633
				c-1.408,0.485-2.657,1.224-3.988,1.883c-1.578,0.782-3.181,1.299-4.85,1.769c0.466-0.624,0.926-1.275,1.379-1.995
				c0.231-0.368,0.454-0.719,0.677-1.07c0.06-0.029,0.119-0.058,0.179-0.087c2.662-1.257,5.169-3.103,8.191-3.321
				c0.463-0.033,0.468-0.758,0-0.727c-2.769,0.184-5.153,1.579-7.572,2.875c0.568-0.896,1.108-1.766,1.622-2.635
				c1.694-0.749,3.301-1.86,4.891-2.627c1.744-0.841,4.031-1.192,4.846-3.171c0.127-0.308-0.411-0.538-0.543-0.229
				c-0.794,1.873-3.353,2.198-5.013,3.025c-1.176,0.586-2.332,1.226-3.507,1.826c0.859-1.544,1.648-3.16,2.371-5.078
				c0.042-0.111,0.072-0.228,0.111-0.34c0.694-0.462,1.365-0.94,2.141-1.321c1.921-0.944,3.487-1.847,4.282-3.927
				c0.055-0.143-0.169-0.23-0.243-0.102c-1.065,1.847-2.741,2.713-4.606,3.58c-0.423,0.197-0.824,0.426-1.218,0.663
				c0.311-1.13,0.501-2.306,0.606-3.508c0.599-0.366,1.236-0.668,1.764-1.135c0.674-0.596,1.33-1.037,2.063-1.549
				c0.382-0.266,0.687-0.504,0.721-0.985c0.018-0.26-0.34-0.266-0.422-0.057c-0.268,0.686-1.306,0.931-1.861,1.329
				c-0.458,0.328-0.813,0.775-1.283,1.091c-0.302,0.203-0.611,0.396-0.921,0.587c0.063-1.146,0.04-2.313-0.049-3.489
				c1.491-0.895,3.048-1.683,4.477-2.694c0.321-0.227,0.015-0.762-0.312-0.533c-1.33,0.934-2.825,1.647-4.233,2.477
				c-0.104-1.046-0.26-2.096-0.46-3.141c0.605-0.477,1.32-0.855,2.042-1.284c1.085-0.644,2.277-1.392,2.521-2.726
				c0.051-0.278-0.365-0.401-0.429-0.118c-0.382,1.666-2.483,2.392-3.792,3.185c-0.149,0.09-0.307,0.191-0.468,0.298
				c-0.38-1.819-0.886-3.613-1.469-5.337c0.305-0.463,0.624-0.913,1.001-1.307c0.389-0.406,0.803-0.794,1.215-1.176
				c0.356-0.329,0.719-0.68,1.12-0.953c0.221-0.151,0.857-0.765,0.507-0.209c-0.07,0.111,0.095,0.243,0.184,0.142
				c0.116-0.131,0.232-0.263,0.348-0.394c0.066-0.075,0.063-0.199-0.032-0.251c-0.886-0.489-2.471,1.313-3.017,1.825
				C41.514,8.33,41.03,8.93,40.579,9.553c-0.498-1.42-1.045-2.788-1.613-4.07c2.214-1.746,6.304-3.146,8.62-2.337
				c2.094,0.732,4.458,5.697,4.362,7.763c-0.026,0.554-0.439,0.905-0.506,1.363c-0.568,3.918-1.098,8.328-0.855,12.281
				c0.319,5.189,0.191,10.139,2.436,14.998c2.039,4.413,4.98,5.705,9.073,7.392c0.424,0.175,0.695-0.438,0.422-0.725
				c-2.706-2.833-4.981-4.933-6.417-8.795c-0.058-0.156-0.102-0.311-0.155-0.467c0.404,0.308,0.957,0.588,1.832,0.888
				c2.479,0.851,5.314,1.273,7.888,1.812c2.646,0.553,5.576,0.52,8.155,1.224c3.066,0.837,5.929,2.723,8.524,4.473
				c3.504,2.363,6.513,4.292,8.31,8.348c1.753,3.956,3.027,8.371,2.494,12.696c-0.37,3.001-0.151,6.017-0.931,8.957
				c-0.583,2.197-1.387,3.576-1.092,5.656c-0.186,0.43-0.163,0.955,0.098,1.314c-2.067,0.141-4.112,0.167-6.148,0.12
				c0.099-0.152,0.179-0.323,0.21-0.536c1.047-7.23,0.757-16.031-2.205-22.817c-1.207-2.765-3.444-6.116-6.072-7.72
				c-2.419-1.476-5.673-1.221-8.11-2.671c-0.426-0.253-0.754,0.366-0.379,0.648c1.847,1.386,4.268,1.493,6.232,2.71
				c2.293,1.42,4.336,3.721,5.616,6.165c2.157,4.117,1.836,9.049,2.03,13.556c0.078,1.819,0.112,3.275-0.132,5.148
				c0.013-0.099-0.558,3.977-0.109,3.545c-0.457,0.44-0.554,1.274-0.231,1.844c-3.207-0.197-6.404-0.564-9.639-1.01
				c-1.101-0.152-2.722-0.257-4.264-0.063c0.485-2.137,0.477-4.401,0.22-6.595c0.324-0.521,0.619-1.069,0.907-1.56
				c1.036-1.767,1.913-3.585,2.727-5.465c0.099-0.228-0.192-0.409-0.337-0.197c-1.207,1.767-2.169,3.713-3.232,5.569
				c-0.078,0.136-0.157,0.271-0.235,0.407c-0.009-0.057-0.016-0.116-0.026-0.173c-0.326-1.974-0.544-4.116-0.936-6.207
				c0.797-1.23,1.53-2.495,2.02-3.881c0.189-0.535-0.648-0.753-0.844-0.233c-0.376,0.998-0.88,1.941-1.441,2.856
				c-0.347-1.503-0.825-2.95-1.534-4.262c0.183-0.306,0.372-0.602,0.572-0.876c0.156-0.213-0.195-0.408-0.351-0.205
				c-0.16,0.207-0.31,0.425-0.457,0.647c-0.688-1.183-1.579-2.458-2.498-3.4c-2.846-2.916-6.17-2.936-9.856-4.193
				c-0.053-0.018-0.09,0.066-0.039,0.091c4.979,2.437,9.205,5.297,10.828,10.397c-0.465,0.984-0.911,1.977-1.401,2.884
				c-1.052,1.948-1.411,4.215-2.567,6.079c-0.114,0.184,0.151,0.391,0.301,0.232c1.464-1.556,1.712-3.791,2.644-5.665
				c0.421-0.846,0.822-1.799,1.239-2.759c0.151,0.591,0.28,1.201,0.362,1.852c0.117,0.93,0.227,1.865,0.337,2.8
				c-0.121,0.18-0.243,0.36-0.36,0.541c-1.353,2.087-1.357,4.376-2.56,6.478c-0.133,0.232,0.176,0.47,0.368,0.284
				c0.769-0.742,1.106-1.443,1.395-2.475c0.356-1.269,0.738-2.271,1.336-3.34c0.126,1.068,0.251,2.136,0.385,3.195
				c0.346,2.741-0.033,5.271,0.602,7.84c-0.815,0.399-1.46,0.979-1.763,1.822c-0.588,1.637-0.008,4.913,1.134,7.269
				c-1.364-0.395-2.742-0.741-4.191-0.902c-4.597-0.51-8.58-0.508-12.999-2.115c-1.672-0.608-4.334-1.727-6.075-0.754
				c-2.913,1.627-0.651,5,1.77,5.664c0.614,0.168,1.152-0.379,1.142-0.929c1.386,0.929,2.514,1.61,3.674,3.163
				c2.26,3.027,2.487,5.567,3.211,8.983C50.017,104.154,48.561,104.561,47.165,105.105z M94.548,110.966
				c-2.633,4.305-7.123,5.869-11.861,6.205c0.835-0.497,1.646-1.071,2.436-1.701c2.424-1.934,5.378-5.206,5.823-8.38
				c0.044-0.312-0.357-0.43-0.475-0.131c-0.748,1.906-2.426,2.892-3.702,4.359c-1.041,1.197-1.935,2.265-3.257,3.189
				c-1.179,0.825-2.426,1.439-3.713,1.951c-0.182-0.58-0.351-1.164-0.469-1.76c-0.349-1.768-0.511-3.87-0.693-5.675
				c-0.018-0.174-0.121-0.287-0.247-0.351c0.075-0.019,0.15-0.036,0.224-0.057c1.025-0.288,1.841-0.787,2.735-1.361
				c1.058-0.68,3.3-1.286,3.588-2.667c0.053-0.257-0.293-0.426-0.436-0.184c-0.468,0.796-1.665,0.881-2.437,1.19
				c-1.242,0.497-2.235,1.409-3.504,1.851c-1.478,0.515-3.024,0.607-4.21,1.722c-0.478,0.45,0.225,1.13,0.713,0.713
				c0.772-0.661,1.779-0.856,2.756-1.072c-0.031,0.06-0.051,0.128-0.042,0.216c0.246,2.515,0.435,5.25,1.194,7.752
				c-0.36,0.13-0.72,0.259-1.086,0.377c-1.329-0.081-2.654-0.181-3.967-0.321c-0.996-0.398-2.356-4.122-2.588-4.743
				c-0.674-1.799-1.076-3.65-1.252-5.565c-0.043-0.471-0.784-0.477-0.742,0c0.313,3.576,1.451,7.145,3.416,10.171
				c-3.897-0.502-7.656-1.458-11.038-3.525c-0.727-1.522-0.289-4.5-0.489-6.053c-0.327-2.532-0.702-5.035-0.729-7.593
				c-0.004-0.372-0.58-0.373-0.578,0c0.019,3.314,0.818,6.535,0.939,9.83c0.04,1.083-0.234,2.34,0.134,3.362
				c-0.704-0.473-1.391-0.997-2.058-1.58c-0.392-0.344-0.734-0.689-1.054-1.036c0.017-0.036,0.026-0.077,0.013-0.126
				c-1.245-4.63-1.312-9.205-1.567-13.949c-0.008-0.152-0.222-0.15-0.234,0c-0.22,2.644-0.313,5.171,0.027,7.805
				c0.225,1.747,0.247,3.601,0.901,5.24c-0.907-1.23-1.465-2.482-1.881-3.763c-0.013-0.058-0.032-0.112-0.056-0.168
				c-0.827-2.629-1.11-5.38-2.691-8.315c-1.19-2.21-2.476-3.73-3.992-4.883c1.948,0.675,3.779,1.252,5.935,1.333
				c3.493,0.131,6.877,0.124,10.228,1.267c2.733,0.932,5.304,1.703,8.176,2.076c5.817,0.755,11.654-0.058,17.465,0.466
				c2.712,0.244,5.905,0.574,6.976,3.043c0.054,0.967,0.11,1.927,0.157,2.865c0.015,0.304,0.029,0.621,0.045,0.942
				C96.928,106.43,95.669,109.133,94.548,110.966z M118.004,83.088c-2.034,3.211-4.859,5.128-6.371,8.843
				c-3.212,7.893-5.266,15.815-13.806,19.585c-0.148,0.065-0.269,0.147-0.378,0.235c0.463-0.922,0.863-1.878,1.208-2.839
				c0.055,0.073,0.098,0.153,0.158,0.222c0.216,0.249,0.714,0.059,0.68-0.282c-0.011-0.11-0.022-0.219-0.033-0.329
				c-0.02-0.204-0.27-0.353-0.434-0.18c0.06-0.064,0.053-0.284,0.012-0.577c0.157-0.503,0.302-1.005,0.428-1.501
				c0.316,0.013,0.605-0.009,0.884-0.049c0.136,0.416,0.313,0.804,0.415,1.274c0.109,0.503,0.917,0.393,0.899-0.122
				c0.025-0.545,0.08-1.086,0.15-1.626c0.529-0.269,1.045-0.622,1.614-1.039c1.217-0.89,2.95-2.099,3.683-3.446
				c0.212-0.389-0.233-0.915-0.641-0.641c-0.594,0.398-1.211,0.588-1.838,0.91c-0.635,0.327-1.131,0.893-1.639,1.379
				c-0.563,0.537-1.17,1.21-1.834,1.777c-0.072-1.078,0.06-2.252,0.057-3.309c-0.008-2.617-0.04-5.235-0.072-7.852
				c-0.007-0.563-0.869-0.564-0.875,0c-0.014,1.357-0.017,2.714-0.02,4.07c-0.383-1.136-1.205-2.055-2.719-2.592
				c-0.081-0.66-0.164-1.32-0.242-1.979c-0.012-0.104-0.156-0.107-0.164,0c-0.047,0.597-0.059,1.208-0.072,1.819
				c-5.984-1.719-12.846-0.707-18.982-1.392c-2.658-0.297-5.285-0.4-7.914-0.983c-0.819-0.182-1.62-0.402-2.413-0.636
				c-0.255-1.218-0.421-2.55-0.654-3.728c-1.074-1.622-0.984-2.89,0.271-3.805c1.919-0.644,3.842-0.658,5.77-0.043
				c3.901,0.743,7.566,1.254,11.565,1.388c9.067,0.302,17.579-1.206,26.568-2.225c1.712-0.194,3.489-0.277,5.175-0.632
				C118.163,82.424,119.491,80.742,118.004,83.088z M100.183,105.387c-0.189,0.107-0.382,0.204-0.581,0.277
				c0.091-0.391,0.187-0.785,0.258-1.164c0.111-0.588,0.233-1.198,0.345-1.813C100.161,103.587,100.095,104.513,100.183,105.387z"/>
			<path d="M18.016,69.374c-0.859-0.081-1.717,0.098-2.566,0.212c-0.929,0.126-0.929,1.75,0,1.876
				c0.85,0.115,1.707,0.293,2.566,0.212C19.493,71.535,19.496,69.514,18.016,69.374z"/>
			<path d="M70.708,105.458c-0.085-0.002-0.086,0.135,0,0.133c0.167-0.004,0.333-0.008,0.5-0.012c0.07-0.002,0.07-0.108,0-0.109
				C71.041,105.466,70.875,105.462,70.708,105.458z"/>
			<path d="M44.49,10.306c-0.942,0.953-1.812,1.934-2.454,3.118c-0.123,0.227,0.204,0.415,0.344,0.201
				c0.714-1.089,1.592-2.004,2.546-2.882C45.218,10.474,44.77,10.022,44.49,10.306z"/>
			<path d="M33.901,46.345c-1.247,1.617-4.127,2.26-5.931,3.111c-2.176,1.026-4.301,2.054-6.511,3.011
				c-2.117,0.917-3.875,2.396-5.823,3.604c-2.019,1.252-4.286,2.343-6.486,3.242c-0.214,0.087-0.208,0.43,0.058,0.43
				c1.876-0.005,3.762-1.247,5.395-2.078c2.913-1.484,5.288-3.646,8.35-4.88c2.391-0.964,4.586-2.297,6.938-3.356
				c1.645-0.741,3.529-1.198,4.625-2.726C34.785,46.327,34.174,45.991,33.901,46.345z"/>
			<path d="M34.02,50.337c-1.752,1.926-4.178,2.893-6.501,3.945c-2.411,1.092-4.679,2.445-6.997,3.716
				c-2.217,1.215-4.35,2.386-6.376,3.913c-1.754,1.321-4.025,2.558-5.242,4.437c-0.233,0.36,0.262,0.658,0.552,0.426
				c4.294-3.433,8.65-6.359,13.374-9.165c3.737-2.22,8.646-3.564,11.565-6.896C34.619,50.457,34.252,50.082,34.02,50.337z"/>
			<path d="M68.904,80.221c-0.313,0.347,0.091,0.949,0.521,0.675c1.196-0.765,2.11-2.076,2.826-3.282
				c0.644-1.086,1.307-2.43,0.895-3.71c-0.178-0.552-1.026-0.326-0.874,0.241C72.844,76.29,70.179,78.808,68.904,80.221z"/>
			<path d="M74.208,79.974v0.1C75.208,80.074,75.208,79.974,74.208,79.974z"/>
			<path d="M65.49,104.447c-0.111-0.359-0.677-0.206-0.565,0.156c0.692,2.23,0.736,4.996,1.768,7.074
				c0.434,0.873,0.906,1.881,1.405,2.695c0.278,0.453,0.697,0.778,0.981,1.228c0.087,0.137,0.327,0.051,0.271-0.114
				c-0.383-1.145-1.05-2.338-1.679-3.394C66.343,109.862,66.255,106.926,65.49,104.447z"/>
			<path d="M75.208,112.974c-0.064,0-0.065,0.1,0,0.1C75.272,113.074,75.272,112.974,75.208,112.974z"/>
			<path d="M103.233,92.894c-0.177,1.249-0.452,2.485-0.444,3.754c0.01,1.625,0.421,3.268,0.606,4.877
				c0.046,0.397,0.587,0.406,0.625,0c0.146-1.559-0.309-3.049-0.325-4.602c-0.014-1.305,0.333-2.607,0.505-3.898
				C104.273,92.48,103.311,92.344,103.233,92.894z"/>
			<path d="M106.839,96.159c-0.041-0.125-0.242-0.161-0.276-0.004c-0.283,1.328-0.135,2.639-1.007,3.78
				c-0.112,0.147,0.1,0.321,0.241,0.241c1.181-0.673,1.299-2.852,1.056-4.021C106.848,96.157,106.844,96.158,106.839,96.159z"/>
		</g>
	</g>
</g>
<g>
</g>
<g>
</g>
<g>
</g>
<g>
</g>
<g>
</g>
<g>
</g>
<g>
</g>
<g>
</g>
<g>
</g>
<g>
</g>
<g>
</g>
<g>
</g>
<g>
</g>
<g>
</g>
<g>
</g>
</svg>
