<?xml version="1.0" encoding="iso-8859-1"?>
<!-- Generator: Adobe Illustrator 19.0.0, SVG Export Plug-In . SVG Version: 6.00 Build 0)  -->
<svg version="1.1" id="Layer_1" xmlns="http://www.w3.org/2000/svg" xmlns:xlink="http://www.w3.org/1999/xlink" x="0px" y="0px"
	 viewBox="0 0 119.196 119.196" style="enable-background:new 0 0 119.196 119.196;" xml:space="preserve">
<g>
	<g>
		<g>
			<path d="M109.358,104.82c-0.089-0.774-0.096-1.585-0.432-2.299c-0.552-1.175-1.697-2.386-2.697-3.181
				c-1.646-1.308-3.144-1.606-4.892-1.494c0.307-2.004,1.74-4.638,1.625-6.484c-0.196-3.174-3.011-3.529-3.641-5.61
				c-0.877-2.895,1.541-6.32-1.412-8.644c-2.356-1.855-4.591-0.835-6.827,0.104c-1.293-2.609-2.164-5.678-5.72-5.465
				c-1.849,0.111-2.492,0.949-2.988,0.336c0.539-0.185,1.166-0.367,1.329-0.266c0.162,0.1,0.342-0.132,0.204-0.264
				c-0.114-0.109-0.228-0.218-0.342-0.327c-0.054-0.051-0.139-0.081-0.212-0.056c-0.454,0.158-0.874,0.249-1.279,0.326
				c-0.09-0.245-0.182-0.552-0.285-0.946c-0.462-1.783-0.378-3.91-1.552-5.469c-0.692-0.92-1.534-1.649-2.762-1.672
				c-1.588-0.03-2.913,2.485-1.691,0.588c1.133-1.758,2.779-3.475,3.593-5.39c0.712-1.675,0.037-2.462,0.233-3.955
				c0.146-1.112,1.318-2.667,1.749-3.856c0.819-2.263,1.492-4.603,1.019-7.026c-0.294-1.504-0.984-3.023-1.945-4.215
				c-0.592-0.734-2.949-2.135-2.978-2.331c-0.228-1.557,1.602-2.974,1.173-4.858c-0.321-1.41-1.357-2.303-2.371-3.275
				c-1.884-1.805-3.225-2.658-4.982-2.671c0.216-1.509-0.305-2.88-1.512-3.837c2.639-1.17,5.5-2.826,2.866-5.91
				c-0.647-0.757-1.571-1.108-2.47-1.476c-2.372-0.971-1.712-0.131-0.508-1.617c1.161-1.433,2.219-2.185,0.978-4.13
				c-3.525-5.528-14.033-0.497-18.291,0.804c-4.371,1.336-10.074,3.618-12.552,7.811c-0.061-1.281-0.076-2.569,0.243-3.896
				c0.819-3.401,2.456-6.691,2.776-10.21c0.247-2.706-0.949-4.493-3.865-3.815c-3.896,0.905-4.423,5.138-4.847,8.502
				c-0.353,2.793-1.445,7.159-0.407,10.249c-6.274-0.954-12.743-2.458-19.007-0.364c-3.158,1.055-5.337,2.494-7.538,4.865
				c-1.475,1.589-3.697,3.077-3.843,5.338c-0.023,0.358,0.224,0.823,0.559,0.974c2.464,1.114,4.848-1.113,7.233-1.248
				c-2.309,2.849-9.833,7.64-5.888,10.919c2.365,1.966,5.239-1.501,7.675-2.546c-0.916,4.609-5.964,11.236-1.581,15.124
				c0.646,0.574,1.278,0.826,1.891,0.855c-1.44,3.014-1.219,6.777,0.969,9.342c0.835,0.979,1.767,1.586,2.898,2.174
				c0.332,0.172,0.628,0.319,0.897,0.45c0.532,0.448,1.113,0.791,1.726,1.039c0.436,0.491,0.496,1.19,0.381,2.749
				c-0.233,3.161-0.263,7.249,1.927,9.817c1.191,1.398,2.646,1.691,4.283,2.288c0.774,0.282,1.183-0.049,1.728,0.617
				c0.544,0.666,0.212,2.181,0.324,3.046c0.414,3.207,1.753,6.206,4.838,7.594c1.88,0.846,4.044,0.973,6.053,0.665
				c0.934-0.143,1.919-0.704,2.859-0.727c2.176-0.052,0.41-0.003,2.521,0.767c2.437,0.889,4.138,1.45,6.318,0.952
				c0.529,2.183,0.878,4.41,2.556,6.169c0.868,0.91,1.648,1.157,2.711,1.777c2.863,1.67,0.98,0.916,2.145,2.426
				c1.483,1.923,2.567,3.181,4.906,4.041c1.281,0.471,2.932,1.025,4.31,1.002c1.569-0.026,2.232-0.62,3.77-0.119
				c2.455,0.798,3.646,3.463,6.436,4.302c1.596,0.48,3.294-0.097,4.789,0.276c2.319,0.578,2.337,1.725,3.822,3.002
				c3.835,3.297,11.264,3.812,15.157,0.353c3.023,4.015,9.399,2.537,12.598-1.343C118.076,110.658,114.99,103.56,109.358,104.82z
				 M88.898,79.914c0.04-0.033,0.082-0.062,0.122-0.095c0.015,0.026,0.031,0.063,0.046,0.086c0.332,0.543,1.091,0.933,1.73,0.704
				c0.32-0.115,1.152-0.617,1.452-0.609c0.632-0.563,1.347-0.271,2.146,0.874c1.822,0.142,2.447,0.959,1.873,2.452
				c0.293,1.693-0.276,3.452,0.068,5.204c0.146,0.744,0.865,1.078,1.528,1.163c3.508,0.45,0.36,6.339,0.186,9.561
				c-0.824,0.665-2.413,0.948-3.191,1.087c-0.175,0.031-0.355,0.051-0.536,0.068c-1.816-0.807-4.471-2.089-4.541-4.29
				c-0.027-0.851,0.216-1.906,0.681-2.855c2.862-0.744,5.342-2.791,5.169-5.593c-0.002-0.036-0.028-0.057-0.039-0.088
				c0.175-0.647,0.206-1.323,0.034-2.005c-0.091-0.361-0.563-0.305-0.678,0c-0.512,1.361-1.186,2.726-2.181,3.755
				c-0.693,0.308-1.383,0.793-1.988,1.324c-0.224,0.085-0.447,0.171-0.693,0.227c-2.642,0.602-6.301-2.147-5.571-5.058
				c0.009-0.035,0.026-0.068,0.036-0.104c0.7-0.333,1.377-0.753,2.024-1.263c0.258-0.203,0.092-0.566-0.167-0.664
				c0.625-0.615,1.24-1.25,1.774-1.863C88.734,81.298,89.101,80.639,88.898,79.914z M85.368,98.045
				c-0.207-0.068-0.429-0.123-0.677-0.152c-1.098-0.223-2.183-0.339-2.99-0.387c-0.283-0.83-0.564-1.661-0.834-2.495
				c-0.238-0.733-1.397-0.421-1.16,0.32c0.232,0.725,0.476,1.444,0.714,2.167c-0.905,0.046-1.777,0.212-2.589,0.526
				c-0.164-1.067-0.644-2.011-1.268-2.894c-0.2-0.513-0.442-1.009-0.717-1.479c-0.153-0.605-0.301-1.212-0.445-1.82
				c1.135-0.668,2.261-1.284,2.48-1.358c1.337-0.448,2.884-1.145,3.555,0.402c0.098,0.226,0.486,0.272,0.638,0.082
				c0.261-0.325,0.397-0.689,0.393-1.042c0.212,0.597,0.513,1.167,0.925,1.691c1.161,1.474,3.146,2.06,5.184,1.954
				c-0.819,1.9-0.957,4.304,0.279,5.987c0.867,1.181,2.091,1.904,3.436,2.201c-0.778-0.029-1.565,0.059-2.314,0.265
				c-0.02-0.022-0.029-0.049-0.062-0.063c-0.353-0.148-0.655-0.335-0.926-0.543c0.044-0.037,0.087-0.079,0.102-0.152
				C89.447,99.542,87.505,98.573,85.368,98.045z M75.831,104.208c-0.129-0.241-0.257-0.481-0.384-0.722
				c0.043-0.087,0.094-0.169,0.131-0.26c0.397-0.728,0.691-1.53,1.214-2.176c0.177,0.541,0.349,1.083,0.538,1.62
				c0.201,0.573,0.4,1.194,0.608,1.83c-0.148-0.149-0.412,0.019-0.38,0.235C77.927,107.221,76.136,104.779,75.831,104.208z
				 M65.123,78.554c-0.205-0.847-0.606-1.629-1.087-2.375c-0.261-0.657-0.599-1.283-0.998-1.843c-0.2-0.281-0.422-0.563-0.654-0.843
				c0.229,0.051,0.457,0.093,0.683,0.123c-0.021,0.13,0.072,0.285,0.22,0.285c0.452,0.001,0.834-0.108,1.185-0.267
				c0.565-0.067,1.114-0.25,1.645-0.558c0,0.09,0.006,0.179,0.008,0.268c-0.082,0.316-0.159,0.634-0.205,0.963
				c-0.182,1.319-0.08,3.322,0.62,4.518c0.254,0.434,0.542,0.755,0.845,1.018c-0.112,0.108-0.17,0.264-0.092,0.463
				c0.952,2.436,1.403,4.968,1.85,7.527c-0.337,0.549-0.647,1.069-0.864,1.458c-0.757,0.232-1.552,0.311-2.354,0.229
				c-0.404-2.618-0.83-5.249-1.004-7.884c-0.001-0.022-0.001-0.045-0.003-0.067C65.224,80.453,65.298,79.279,65.123,78.554z
				 M60.366,76.418c1.076,1.689,0.597,3.849,0.469,5.726c-0.007,0.101-0.007,0.204-0.014,0.306c-0.522,0.267-1.12,0.501-1.712,0.649
				c-0.168,0.028-0.34,0.067-0.517,0.108c-0.245,0.04-0.485,0.069-0.707,0.07c-0.006,0-0.226-0.02-0.497-0.043
				c-0.006-0.098-0.015-0.196-0.02-0.294c-0.129-2.243,0.002-4.487-0.087-6.729c-0.047-1.172-0.475-2.961-0.123-4.281
				c0.174-0.029,0.332-0.046,0.438-0.03c0.496,0.074,0.948,0.232,1.367,0.446c0.687,0.425,1.329,0.963,1.902,1.561
				c0.03,0.035,0.062,0.068,0.092,0.104c0.478,0.57,0.944,1.173,1.373,1.8c1.116,1.894,1.284,4.386-0.454,5.919
				c0.151-1.965,0.45-4.072-0.667-5.805C60.87,75.399,60.027,75.885,60.366,76.418z M51.061,62.608
				c-0.145,0.491-0.301,0.979-0.459,1.466c-0.097-2.443-1.033-4.866-2.747-6.425c-0.852-0.775-1.827-1.3-2.846-1.618
				c-0.139-0.105-0.279-0.201-0.419-0.296c0.01-0.098,0.024-0.197,0.033-0.295c1.968,1.643,4.461,2.154,6.973,0.332
				c0.008,0.238,0.025,0.474,0.056,0.707c0.293,2.2,1.837,4.187,3.604,5.801c-0.165-0.011-0.324,0.068-0.358,0.284
				c-0.215,1.351-0.567,2.658-0.909,3.968c-1.278,0.42-2.313,0.337-3.485-0.487c0.006-0.023,0.006-0.047,0.009-0.071
				c0.348-1.076,0.697-2.151,1-3.241C51.594,62.442,51.146,62.319,51.061,62.608z M40.98,71.411
				c0.006-0.023,0.011-0.048,0.018-0.071c1.247-4.507,2.733-9.263,3.402-13.96c1.03,0.746,2.085,1.861,2.821,2.795
				c0.158,0.201,0.318,0.415,0.475,0.639c-1.287,3.184-2.359,6.427-3.236,9.736C43.366,71.23,42.266,71.589,40.98,71.411z
				 M43.831,73.118c-0.011,0.046-0.023,0.091-0.033,0.137c-0.035-0.032-0.068-0.069-0.103-0.1
				C43.741,73.145,43.785,73.129,43.831,73.118z M43.421,74.824c-0.005,0.022-0.01,0.044-0.015,0.065
				c-0.067-0.085-0.133-0.174-0.201-0.257c-0.113-0.137-0.238-0.276-0.359-0.414C43.049,74.406,43.235,74.615,43.421,74.824z
				 M28.589,48.815c-0.091-0.146-0.186-0.284-0.282-0.416c0.35-1.089,0.52-2.214,0.623-3.353c0.027-0.041,0.055-0.081,0.082-0.121
				c1.439-2.182,3.007-4.193,4.67-6.207c0.727-0.88,1.336-1.84,1.958-2.791c0.918,0.712,1.517,1.724,1.621,3.122
				c0.135,1.803,0.027,3.61-0.362,5.351c-0.207,0.42-0.462,0.781-0.773,1.049c-0.876-0.309-1.742-0.521-2.589-0.434
				c0.658-1.234,1.319-2.468,1.993-3.702c0.173-0.318-0.304-0.598-0.486-0.284c-0.812,1.405-1.615,2.808-2.419,4.211
				c-0.187,0.075-0.375,0.164-0.56,0.279c-0.576,0.212-1.126,0.518-1.615,0.953C30.094,46.789,29.234,47.778,28.589,48.815z
				 M29.182,57.002c-0.124,1.638-0.761,3.277-1.761,4.648c-0.858,0.3-1.668,0.686-2.338,1.059c-0.296,0.165-0.583,0.361-0.863,0.571
				c0.986-3.754,3.007-6.812,4.912-10.152c0.001,0.006,0.004,0.014,0.005,0.02C29.342,54.377,29.276,55.765,29.182,57.002z
				 M32.408,36.608c0.36-0.572,0.743-1.127,1.135-1.677c0.562,0.152,1.077,0.357,1.535,0.62c-0.783,1.131-1.544,2.279-2.44,3.331
				c-1.292,1.517-2.47,3.103-3.596,4.737c0.032-0.479,0.066-0.957,0.107-1.434C30.277,40.36,31.259,38.438,32.408,36.608z
				 M29.373,40.411c0.04-0.239,0.072-0.479,0.124-0.716c0.382-1.75,0.962-3.37,1.658-4.922c0.568-0.082,1.138-0.076,1.668,0.005
				c-0.358,0.484-0.706,0.972-1.024,1.475C30.937,37.614,30.161,39.017,29.373,40.411z M33.045,33.697
				c0.231-0.055,0.455-0.08,0.677-0.09c-0.054,0.067-0.109,0.134-0.162,0.202C33.388,33.77,33.218,33.725,33.045,33.697z
				 M34.228,33.98c0.078-0.105,0.157-0.209,0.235-0.313c0.156,0.038,0.307,0.091,0.456,0.162c-0.034,0.112-0.051,0.231-0.039,0.361
				C34.668,34.111,34.448,34.046,34.228,33.98z M56.913,34.623c0.278-0.285,0.737-0.583,1.25-0.9c1.22-0.002,2.38-0.327,3.318-1.324
				c0.415-0.441,0.663-0.732,0.829-0.922c-0.047,0.34-0.069,0.719-0.061,1.183c0.035,1.96,0.541,3.685,1.731,5.275
				c0.864,1.153,2.04,2.069,3.456,2.394c-0.942,1.652-1.027,3.989-0.809,6.079c-0.014,0.369-0.001,0.735,0.016,1.098
				c-0.638-1.108-1.531-1.96-2.806-2.316c-2.177-1.085-4.552-0.785-6.582,0.458c-0.734-1.049-1.606-2.005-2.286-3.054
				c-0.148-0.405-0.268-0.769-0.349-1.038C53.917,39.243,55.249,36.334,56.913,34.623z M55.622,34.349
				c0.192-0.296,0.397-0.577,0.61-0.842c0.079,0.016,0.158,0.033,0.238,0.048C56.184,33.816,55.886,34.067,55.622,34.349z
				 M67.288,54.843c0.005,0,0.011-0.001,0.016-0.001c-0.843,0.717-1.372,1.703-1.553,3.076c-0.098,0.746-0.009,1.666,0.225,2.609
				c-0.694,0.457-1.312,0.965-2.002,1.519c-1.746,1.402-3.488,1.056-5.042,0.026c-0.088-0.231-0.267-0.377-0.561-0.406
				c-0.136-0.107-0.271-0.216-0.403-0.331c-2.391-2.078-3.973-5.209-3.588-8.441c0.39-3.272,4.158-6.045,7.208-6.544
				c0.614-0.1,1.147-0.1,1.616-0.024c1.291,0.611,2.233,1.689,2.872,2.976c0.087,0.175,0.322,0.66,0.582,1.264
				c0.312,1.05,0.576,2.137,0.934,3.081c0.023,0.437-0.069,0.759-0.349,0.858C67.07,54.566,67.082,54.857,67.288,54.843z
				 M54.765,70.599c-0.216-0.238-0.448-0.461-0.685-0.677c0.111-0.629,0.243-1.25,0.39-1.866c0.068-0.019,0.136-0.032,0.203-0.053
				c0.249,0.526,0.56,1.013,0.719,1.243c0.152,0.219,0.401,0.539,0.697,0.832C55.604,70.16,55.153,70.334,54.765,70.599z
				 M56.189,72.185c-0.016,0.123-0.026,0.247-0.035,0.372c-0.056-0.102-0.109-0.204-0.168-0.304
				C56.052,72.229,56.121,72.208,56.189,72.185z M54.969,66.057c0.272-1.079,0.533-2.163,0.707-3.279
				c0.007-0.047,0-0.089-0.006-0.131c0.569,0.492,1.151,0.947,1.717,1.356c-0.012,0.022-0.03,0.043-0.043,0.066
				C56.555,64.733,55.839,65.512,54.969,66.057z M42.937,51.115c0.212-0.623,0.435-1.241,0.675-1.853
				c0.138-0.351-0.462-0.608-0.614-0.259c-0.171,0.392-0.321,0.791-0.478,1.187c-0.461-1.19-0.677-2.468-0.553-3.817
				c0.187-2.042,1.138-3.874,2.592-5.221c1.162-0.741,2.392-1.3,3.808-1.691c0.171-0.047,0.229-0.182,0.21-0.31
				c1.389-0.228,3.05-0.185,4.017,0.554c0.16,2.568,1.487,5.071,3.524,6.755c-0.033,0.026-0.067,0.049-0.099,0.077
				c-2.082,1.822-3.974,4.939-4.357,7.924c-0.929,0.341-1.773,0.88-2.762,1.047c-0.201,0.034-0.395,0.05-0.582,0.053
				c-0.747-0.143-1.574-0.442-2.348-0.819c-0.373-0.273-0.732-0.595-1.085-0.956C44.097,52.978,43.437,52.08,42.937,51.115z
				 M43.97,55.014c-0.026,0.045-0.044,0.097-0.05,0.158c-0.004,0.045-0.012,0.091-0.016,0.137c-0.005-0.003-0.011-0.007-0.016-0.01
				c-0.71-0.379-1.436-0.421-2.156-0.302c0.17-0.582,0.341-1.162,0.518-1.741c0.425,0.672,0.91,1.245,1.485,1.617
				C43.812,54.923,43.892,54.966,43.97,55.014z M54.859,59.827c-0.301-0.356-0.59-0.723-0.847-1.116
				c-0.738-1.128-0.996-2.363-0.937-3.608C53.29,56.774,53.928,58.403,54.859,59.827z M53.435,35.598
				c-0.522,1.009-0.787,2.077-0.845,3.15c-1.245-0.901-3.44-0.941-4.712-0.728c-0.348,0.058-0.687,0.154-1.021,0.266
				c-0.865-0.299-1.749-0.32-2.494-0.889c-1.17-0.893-1.846-2.795-2.273-4.114c-0.277-0.856-0.953-3.32-0.83-5.267
				c0.027-0.041,0.048-0.087,0.076-0.126c0.051-0.072,0.295-0.37,0.609-0.708c0.47,0.327,0.925,0.741,1.391,1.327
				c0.743,0.933,1.187,2.132,2.083,2.959c1.175,1.083,2.187,1.505,3.799,1.268c1.264-0.186,2.034-0.743,3.339-0.559
				c0.806,0.114,1.61,0.611,2.418,0.96C54.351,33.958,53.822,34.851,53.435,35.598z M42.173,36.657
				c-0.805-1.136-1.535-2.349-1.735-3.732c-0.031-0.215-0.039-0.447-0.053-0.674c0.069-0.097,0.13-0.202,0.185-0.315
				c0.056,0.327,0.116,0.62,0.173,0.853C41.038,33.99,41.487,35.438,42.173,36.657z M41.519,38.028
				c0.801,1.102,1.395,1.772,2.155,2.063c-2.712,1.532-4.978,4.255-4.202,6.908c-0.146,0.369-0.293,0.736-0.437,1.106
				c-0.217-0.397-0.48-0.764-0.788-1.09c0.188-0.022,0.383-0.069,0.593-0.156c0.174-0.072,0.195-0.312,0-0.377
				c-0.378-0.126-0.756-0.272-1.134-0.423c0.295-0.598,0.48-1.235,0.605-1.94c0.423-0.759,0.84-1.522,1.264-2.281
				c0.209-0.373-0.359-0.706-0.573-0.335c-0.088,0.152-0.178,0.304-0.266,0.455c0.006-0.032,0.014-0.071,0.02-0.102
				c0.52-2.609,0.289-4.797-1.229-7.014c-0.182-0.266-0.369-0.522-0.556-0.777c0.099-0.126,0.196-0.254,0.299-0.377
				c0.366-0.081,0.699-0.14,0.876-0.187c0.379-0.101,0.765-0.219,1.122-0.382C39.531,34.842,40.314,36.371,41.519,38.028z
				 M39.461,49.202c0.146-0.392,0.291-0.781,0.44-1.171c0.553,1.199,1.097,2.86,1.826,4.298c-0.335,0.969-0.657,1.942-0.973,2.918
				c-0.556,0.191-1.102,0.442-1.628,0.684c-1.083,0.5-2.115,1.12-2.992,1.9c0.733-1.725,1.391-3.457,2.063-5.235
				c0.329-0.87,0.66-1.766,0.993-2.667c0.194,0.078,0.41-0.117,0.372-0.333C39.538,49.46,39.496,49.333,39.461,49.202z
				 M30.091,51.406c0.789-1.431,1.565-2.866,2.332-4.304c0.349-0.295,0.708-0.5,1.082-0.62c0.541-0.078,1.08-0.068,1.55,0.053
				c0.303,0.077,0.569,0.19,0.824,0.315c-1.785,3.047-3.548,6.112-5.21,9.221c0.01-0.209,0.035-0.413,0.037-0.625
				C30.719,53.804,30.608,52.624,30.091,51.406z M30.201,59.003c0.103-0.202,0.195-0.408,0.302-0.609
				c1.806-3.377,3.642-6.738,5.49-10.093c0.313-0.3,0.577-0.592,0.818-0.882c0.662,0.525,1.199,1.189,1.766,1.863
				c-0.298,0.764-0.598,1.526-0.909,2.277c-1.277,3.085-2.645,6.117-3.938,9.189c-0.207,0.492-0.419,0.983-0.63,1.475
				c-0.398-0.335-0.809-0.614-1.227-0.792c-0.757-0.322-1.621-0.371-2.502-0.259C29.727,60.49,29.989,59.757,30.201,59.003z
				 M36.809,60.295c0.708-1.388,1.89-2.341,3.245-2.863c-0.396,1.321-0.667,2.682-1.125,3.977c-0.509,1.439-1.363,2.739-1.988,4.128
				c-0.191,0.425-0.363,0.861-0.536,1.297c-0.164-0.373-0.359-0.771-0.588-1.184C35.713,63.811,35.955,61.969,36.809,60.295z
				 M38.384,64.572c1.172-2.373,1.977-4.897,2.728-7.448c0.84-0.176,1.71-0.192,2.561-0.056c-0.516,3.292-1.502,6.646-2.345,9.81
				c-0.387,1.451-0.79,2.892-1.186,4.335c-1.146-0.354-2.015-1.047-3.108-1.505c-0.024-0.503-0.084-0.996-0.183-1.473
				C37.307,66.991,37.797,65.761,38.384,64.572z M44.228,75.838c0.454,0.651,0.846,1.337,1.167,1.998
				c0.388,0.801,0.576,1.584,0.625,2.347C45.68,78.704,45,77.249,44.196,76C44.207,75.946,44.217,75.892,44.228,75.838z
				 M44.589,74.053c0.088-0.421,0.179-0.841,0.271-1.261c1.426-0.545,2.748-1.443,3.729-2.492c0.02-0.021,0.036-0.045,0.055-0.066
				c-0.512,2.005-0.8,4.039-1.255,6.064c-0.128,0.57-0.264,1.132-0.401,1.688C46.475,76.547,45.608,75.175,44.589,74.053z
				 M45.561,69.779c0.696-2.805,1.521-5.581,2.563-8.312c0.849,1.396,1.431,3.069,0.743,4.558
				C48.095,67.698,46.953,68.736,45.561,69.779z M53.198,68.313c0.121-0.013,0.244-0.039,0.366-0.059
				c-0.081,0.351-0.156,0.703-0.224,1.058c-0.662-0.5-1.37-0.918-2.105-1.197C51.881,68.22,52.477,68.392,53.198,68.313z
				 M53.641,73.569c0.155,0.063,0.337,0.051,0.454-0.091c0.089-0.109,0.174-0.208,0.261-0.312c1.036,1.596,1.481,3.195,0.324,4.987
				c-0.288,0.306-0.631,0.582-1.036,0.814c-0.2,0.115-0.402,0.226-0.605,0.335c-0.008-0.006-0.018-0.007-0.026-0.012
				c0.024-0.234,0.035-0.466,0.065-0.7C53.291,76.918,53.466,75.244,53.641,73.569z M56.256,78.598
				c0.003,0.849,0.005,1.698,0.02,2.549c0.012,0.675,0.041,1.349,0.078,2.022c-0.002,0.001-0.012,0-0.012,0.001
				c0.005-0.061-0.096-0.075-0.107-0.014l-0.052,0.276c-0.009,0.05,0.031,0.101,0.085,0.085c0.035-0.01,0.07-0.011,0.105-0.018
				c0.009,0.149,0.02,0.299,0.03,0.448c-0.473,0.203-0.945,0.426-1.4,0.692c-0.008-0.162-0.012-0.321-0.041-0.492
				c-0.065-0.382-0.195-0.763-0.355-1.142c-0.095-0.925-0.318-1.783-0.732-2.382C54.836,80.115,55.671,79.422,56.256,78.598z
				 M56.159,68.197c-0.138-0.204-0.25-0.424-0.372-0.637c0.655-0.328,1.254-0.757,1.721-1.305c0.127-0.149,0.32-0.46,0.525-0.841
				c0.469-0.444,0.885-0.937,1.175-1.495c0.016-0.031,0.022-0.062,0.031-0.093c1.028,0.52,2.16,0.834,3.28,0.66
				c1.441-0.224,2.736-1.528,3.832-2.752c0.151,0.397,0.324,0.789,0.522,1.16c0.138,0.309,0.296,0.607,0.464,0.89
				c0.19,0.639,0.416,1.245,0.57,1.874c-0.029,0.296-0.068,0.587-0.137,0.863c-0.252,1.008-0.966,1.955-1.496,2.836
				c-0.536,0.89-1.056,2.077-1.773,2.989c-0.772,0.172-1.595,0.058-2.482-0.158c-0.135-0.033-0.596-0.103-1.082-0.19
				c-0.839-0.738-1.786-1.344-2.799-1.69c0.045-0.19-0.035-0.392-0.211-0.515c-0.253-0.177-0.55-0.271-0.797-0.47
				C56.75,69.018,56.43,68.597,56.159,68.197z M63.587,84.006c0.178-0.155,0.34-0.343,0.489-0.552
				c0.04,0.37,0.071,0.741,0.116,1.111C64.008,84.364,63.811,84.173,63.587,84.006z M63.973,86.703
				c-0.658-0.555-1.424-0.889-2.186-0.801c-0.036,0.004-0.061,0.029-0.091,0.046c0.008-0.487,0.011-0.975,0.029-1.46
				C63.085,84.849,63.699,85.663,63.973,86.703z M62.659,83.48c-0.27-0.118-0.556-0.219-0.868-0.295
				c0-0.009,0.001-0.018,0.001-0.027c0.727-0.346,1.372-0.83,1.856-1.497C63.473,82.401,63.155,83.056,62.659,83.48z M61.716,86.432
				c0.744,0.157,1.759,1.079,2.483,2.162c0.005,0.161,0.007,0.328,0.01,0.491c-0.099-0.042-0.199-0.079-0.297-0.126
				c-0.242-0.116-0.507,0.179-0.298,0.386c0.193,0.192,0.4,0.356,0.612,0.508c0.01,0.444,0.026,0.888,0.069,1.323
				c-0.251,0.091-0.494,0.187-0.721,0.291c-0.546,0.249-1.049,0.602-1.517,1.012c-0.042-0.322-0.083-0.645-0.121-0.967
				c-0.202-1.676-0.262-3.388-0.249-5.099C61.7,86.417,61.702,86.429,61.716,86.432z M68.429,80.45
				c0.963,0.329,2.05,0.214,3.157-0.009c0.373,0.004,0.775-0.038,1.192-0.103c0.005,0.361-0.012,0.722-0.103,1.081
				c-0.27,1.062-1.016,2.263-1.545,3.229c-0.083,0.151-0.53,0.854-1.062,1.701C69.642,84.342,69.145,82.358,68.429,80.45z
				 M73.073,83.301c-0.105,1.172-0.387,2.297-1.132,3.317c-0.302,0.414-0.647,0.78-1.011,1.116c0.652-1.143,1.191-2.352,1.639-3.28
				C72.771,84.037,72.932,83.662,73.073,83.301z M71.588,89.124c2.875-2.445,3.197-5.77,2.949-9.229
				c0.051-0.018,0.099-0.029,0.15-0.048c0.004,0.684,0.123,1.392,0.415,2.141c0.816,2.098,1.661,3.428,3.845,4.144
				c1.113,0.365,2.19,0.448,3.228,0.31c-0.142,0.946-0.118,1.906,0.101,2.822c-0.078-0.125-0.185-0.242-0.313-0.351
				c0.192-0.152,0.184-0.469-0.089-0.551c-3.115-0.939-6.34,0.388-8.489,2.616c-0.058-0.038-0.112-0.085-0.172-0.12
				c-0.742-0.438-1.549-0.657-2.381-0.733c-0.027-0.133-0.053-0.267-0.08-0.401C71.043,89.544,71.325,89.347,71.588,89.124z
				 M83.254,87.395c0.108,0.711,0.36,1.412,0.83,2.074c0.913,1.284,2.203,2.244,3.635,2.67c-1.823,0.084-3.407-0.714-4.18-2.921
				C83.33,88.624,83.25,88.011,83.254,87.395z M79.387,74.523c0.798,1.025,2.042,1.263,3.291,1.16
				c1.967-0.161,2.486-1.597,4.607,0.564c0.374,0.381,0.8,1.44,1.183,2.362c-2.21,0.438-4.419,3.197-5.336,4.926
				c-0.223,0.419-0.401,0.864-0.558,1.317c-0.035,0.013-0.067,0.036-0.103,0.048c-0.34,0.066-0.683,0.117-1.033,0.132
				c-0.43-0.013-0.893-0.092-1.425-0.297C75.887,83.147,76.259,76.776,79.387,74.523z M77.999,67.177
				c1.291,1.223,0.564,3.714,0.785,5.678c-0.81,0.667-1.527,1.483-2.165,2.294c-0.918,1.166-1.576,2.344-1.826,3.597
				c-0.118,0.003-0.235,0.021-0.353,0.03c-0.02-0.201-0.041-0.403-0.063-0.604c-0.083-0.758-1.094-0.757-1.18,0
				c-0.017,0.145-0.024,0.291-0.034,0.436c-0.052-0.164-0.096-0.321-0.158-0.496c-0.079-0.225-0.471-0.21-0.445,0.06
				c0.026,0.268,0.063,0.536,0.1,0.806c-0.583,0.067-1.165,0.102-1.742,0.014c-2.424-0.37-3.454-2.626-3.612-4.818
				c-0.04-0.552-0.033-1.296,0.037-2.112c0.026-0.029,0.053-0.048,0.079-0.078c1.37-1.583,2.096-3.637,1.991-5.652
				c0.269-0.261,0.57-0.47,0.904-0.619c0.534,0.028,1.096-0.11,1.68-0.456c0.141,0.521,0.466,0.86,1.013,1.087
				C74.806,67.091,76.464,65.721,77.999,67.177z M76.374,52.841c-0.449,1.404,0.04,2.189-0.092,3.678
				c-0.253,2.851-3.939,4.867-4.329,7.612c-0.145,0.203-0.806,0.209-1.266,0.18c-1.171-0.238-2.01-1.003-2.669-2.329
				c-0.216-0.433-0.417-0.934-0.578-1.46c0.031-0.033,0.065-0.072,0.095-0.105c0.238-0.252,0.018-0.591-0.269-0.582
				c-0.083-0.378-0.148-0.76-0.165-1.141c0.127-1.305,0.991-2.369,1.87-3.421c0.927-0.461,2.087-0.689,3.022-0.979
				c0.883-0.274,1.312-0.563,2.232-0.39c0.262,0.049,0.386-0.244,0.207-0.414c0.667-0.205,1.325-0.457,1.962-0.706
				C76.388,52.803,76.38,52.822,76.374,52.841z M68.219,52.287c0.371,0.447,0.805,0.838,1.332,1.121
				c-0.269,0.175-0.527,0.358-0.777,0.547c-0.127,0.049-0.242,0.108-0.361,0.163c-0.057-0.382-0.119-0.785-0.184-1.195
				C68.234,52.713,68.231,52.501,68.219,52.287z M78.948,44.464c0.403,2.72-0.898,4.596-1.909,6.731
				c-1.352,0.095-2.432,0.826-3.92,1.208c-0.03,0.008-0.056,0.009-0.086,0.017c-0.565,0.029-1.144-0.019-1.757-0.207
				c-2.115-0.649-2.613-2.169-2.986-4.126c-0.13-0.683-0.242-1.417-0.308-2.165c0.215-2.461,1.313-4.247,3.393-5.38
				c0.258-0.023,0.515-0.06,0.769-0.117c0.625-0.14,1.123-0.413,1.565-0.779c0.348-0.086,0.697-0.156,1.056-0.224
				c0.022,0.046,0.038,0.088,0.063,0.136c0.249,0.472,0.64,0.372,0.925,0.712C76.844,41.565,78.644,42.406,78.948,44.464z
				 M69.894,29.466c0.428-0.552,0.737-1.108,0.973-1.657c1.163,0.454,2.176,1.338,2.971,2.388c1.222,1.616,1.669,1.971,1.34,4.757
				c-0.059,0.497-0.617,0.96-0.644,1.463c-0.005,0.088-0.012,0.168-0.019,0.25c-0.364,0.676-0.793,1.207-1.273,1.595
				c-0.939-0.17-1.805,0.005-2.648,0.213c-0.08-0.124-0.225-0.209-0.407-0.171c-0.514,0.11-0.953,0.298-1.342,0.536
				c-2.949-1.011-5.598-4.24-5.027-7.143c0.267,0.064,0.597,0.121,1.021,0.158C66.907,32.042,68.639,31.085,69.894,29.466z
				 M39.788,22.157c0.039-0.04,0.079-0.078,0.107-0.132c0.175-0.332,0.367-0.644,0.563-0.952c1.408-0.594,2.826-1.171,4.265-1.613
				c0.985,0.681,3.958,2.73,4.198,2.899c1.418,0.999,2.944,2.525,4.781,2.491c0.195-0.004,0.388-0.17,0.376-0.376
				c-0.006-0.101-0.012-0.202-0.017-0.303c-0.014-0.237-0.256-0.32-0.425-0.204c-1.367-1.021-2.915-1.884-4.339-2.821
				c-1.143-0.752-2.243-1.457-3.457-1.994c0.122-0.031,0.243-0.069,0.365-0.097c1.726-0.4,3.536-0.516,5.32-0.373
				c0.073,0.093,0.148,0.184,0.225,0.27c0.728,0.814,1.655,1.463,2.502,2.148c1.202,0.973,2.451,2.196,4.036,2.399
				c0.318,0.041,0.384-0.369,0.232-0.56c-1.187-1.496-3.161-2.643-4.694-3.791c-0.072-0.054-0.145-0.119-0.217-0.179
				c1.558,0.322,3.061,0.86,4.426,1.633c0.502,0.285,0.987-0.368,0.606-0.785c-1.674-1.832-4.311-2.488-6.935-2.597
				c-0.171-0.142-0.346-0.271-0.525-0.391c0.453-0.897,2.022-1.357,2.854-1.817c0.666-0.369,1.328-0.718,2.049-0.973
				c0.746-0.264,1.555-0.297,2.278-0.597c0.215-0.089,0.292-0.379,0.067-0.514c-1.492-0.899-3.638,0.393-4.938,1.154
				c-1.023,0.599-2.558,1.182-3.048,2.356c-0.178-0.068-0.36-0.123-0.55-0.15c-0.492-0.072-0.724,0.649-0.212,0.768
				c0.156,0.036,0.295,0.095,0.427,0.162c-0.988,0.034-1.945,0.128-2.815,0.25c-1.951,0.274-3.724,1.036-5.499,1.843
				c3.861-4.339,10.048-5.891,15.57-7.633c1.541-0.486,3.075-1.081,4.667-1.39c1.529-0.425,3.053-0.45,4.573-0.075
				c1.575,0.714,1.72,1.295,0.434,1.742c-0.575,1.329-1.817,1.366-1.946,3.117c-0.028,0.385,0.247,0.911,0.612,1.067
				c1.777,0.758,6.176,1.277,4.201,3.782c-0.62,0.787-2.644,1.178-3.556,1.636c-0.948,0.476-0.613,1.837,0.278,2.129
				c-0.596,1.636-1.192,3.272-1.788,4.908c-0.165-0.043-0.33-0.085-0.494-0.128c-0.025-0.01-0.046-0.02-0.073-0.019
				c-0.309-0.08-0.619-0.16-0.928-0.24c-0.61,0.041-0.875-0.432-1.503-0.321c-0.656,0.115-0.872,0.335-1.413,0.587
				c-0.296,0.138-0.243,0.724-0.472,0.868c-2.083,1.309-3.774,1.223-5.861,0.204c-1.01-0.493-1.885-1.39-3.102-1.334
				c-1.018,0.047-1.66,0.995-2.65,0.931c-1.617-0.103-2.091-2.536-3.131-3.744c-1.594-1.85-3.544-2.387-5.771-2.051
				c0.11-0.106,0.201-0.24,0.239-0.43C39.731,22.662,39.757,22.41,39.788,22.157z M36.591,10.503
				c0.187-1.43-0.034-3.719,0.667-4.903c0.101-0.446,0.213-0.889,0.338-1.329c2.606-0.355,3.398,0.376,2.377,2.194
				c0.095,2.956-2.443,6.551-2.862,9.554c-0.249,1.782-0.108,3.501,0.295,5.198c-0.115,0.062-0.239,0.115-0.35,0.18
				c-0.069-0.248-0.135-0.496-0.194-0.747c-0.022-0.091-0.145-0.062-0.153,0.021c0.003-0.029-0.239-0.039-0.609-0.036
				C35.688,17.268,36.153,13.84,36.591,10.503z M13.864,40.94c0.825-2.045,1.733-3.375,1.625-5.632
				c-0.035-0.721-0.543-1.168-1.239-1.239c-2.517-0.257-4.485,3.118-6.75,2.959c-1.158-0.081,0.867-2.613,1.557-3.37
				c0.836-0.916,2.049-1.405,2.885-2.295c1.148-1.222,1.686-2.116,1.894-3.753c0.062-0.488-0.383-0.89-0.79-1.038
				c-1.749-0.634-3.478,0.109-5.155,0.698c-0.463,0.144-0.93,0.273-1.401,0.385c-0.592,0.408-0.633,0.414-0.123,0.017
				c-0.076-0.254,3.317-3.333,3.68-3.602c6.5-4.817,13.884-3.067,21.176-2.778c-1.365,0.56-2.666,1.344-3.885,2.136
				c-0.328,0.121-0.613,0.325-0.863,0.585c-3.175,2.189-6.033,4.906-8.478,7.869c-0.34,0.412,0.167,0.906,0.58,0.58
				c2.059-1.627,4.212-3.757,6.515-5.674c-0.135,0.442-0.249,0.862-0.353,1.211c-0.411,1.385-0.326,2.849-0.735,4.225
				c-0.335,1.126-0.828,1.884-0.568,3.045c0.076,0.341,0.632,0.352,0.701,0c0.316-1.616,1.107-2.941,1.328-4.604
				c0.121-0.91,0.357-3.332,1.031-5c2.932-2.23,6.117-3.908,9.676-3.656c-0.146,0.118-0.292,0.236-0.42,0.365
				c-0.213,0.216,0.031,0.594,0.296,0.496c0.543-0.197,1.087-0.419,1.631-0.639c0.068,0.229,0.138,0.458,0.214,0.688
				c0.103,0.309,0.363,0.519,0.655,0.609c-0.025,0.006-0.049,0.009-0.073,0.015c-1.149,0.287-1.08,1.938,0,2.26
				c0.887,0.264,1.629,0.47,2.303,0.749c-0.072,0.179-0.137,0.364-0.19,0.56c-0.643,0.788-1.055,1.762-1.239,2.766
				c-0.127,0.692-0.174,1.334-0.173,1.952c-0.94,0.397-1.927,0.579-2.924,0.943c-0.098,0.036-0.196,0.075-0.293,0.118
				c-0.184-0.17-0.378-0.317-0.58-0.444c0.248-0.328,0.496-0.656,0.74-0.987c1.012-1.368,2.279-2.624,2.919-4.216
				c0.111-0.276-0.34-0.46-0.478-0.202c-0.979,1.834-2.334,3.491-3.69,5.146c-0.613-0.235-1.318-0.247-2.166,0.097
				c-0.135,0.055-0.262,0.115-0.394,0.172c1.434-2.595,3.188-5.016,5.023-7.463c0.37-0.494-0.372-1.246-0.866-0.866
				c-1.667,1.283-3.489,1.96-4.85,3.611c-1.662,2.017-2.725,4.863-3.596,7.434c-0.43,0.319-0.876,0.615-1.337,0.826
				c-0.181,0.082-0.094,0.396,0.102,0.378c0.289-0.026,0.592-0.111,0.902-0.216c-0.053,0.159-0.108,0.323-0.16,0.479
				c-0.896,2.677-0.889,4.788-1.078,7.529c-0.023,0.338-0.047,0.681-0.075,1.025c-0.091,0.124-0.177,0.251-0.27,0.373
				c-0.112,0.147,0.047,0.316,0.2,0.311c-0.138,1.135-0.412,2.244-1.146,3.166c-2.809,3.525-4.495-0.961-5.273-3.351
				c-0.27-0.831-1.429-1.291-2.077-0.548c0.156-0.178-2.333,2.701-2.066,2.623C10.542,49.278,13.217,42.544,13.864,40.94z
				 M19.66,62.178c-0.983-0.162-1.935-0.439-2.857-0.83l-0.209-0.39c-0.304-0.602-0.57-1.222-0.799-1.822
				c-0.582-1.524-0.878-2.987-0.995-4.579c0.46-1.727,1.164-3.793,1.813-3.212c0.16,0.143,0.412,0.044,0.42-0.174
				c0.008-0.211,0.017-0.423,0.025-0.634c0.002-0.055-0.025-0.115-0.045-0.173c0.422-0.513,0.819-1.054,1.186-1.571
				c0.601,2.125,1.436,4.36,3.724,4.84c0.192,0.04,0.381,0.059,0.569,0.067c-0.497,0.94-0.891,1.921-0.943,2.971
				c-0.014,0.282,0.383,0.305,0.468,0.063c0.378-1.07,0.846-2.102,1.371-3.106c1.832-0.375,3.392-2.07,4.242-3.618
				c0.081,0.11,0.164,0.216,0.241,0.333c-0.422,1.002-0.329,2.118-0.046,3.167c-0.055,0.092-0.106,0.184-0.161,0.276
				c-1.742,2.933-4.761,6.315-4.178,9.967c0.006,0.04,0.036,0.06,0.055,0.089c-0.174,0.159-0.345,0.321-0.507,0.491
				C22.163,63.422,20.647,62.627,19.66,62.178z M30.954,76.976c-0.098,0.162-0.054,0.326,0.05,0.437
				c-0.043,0.054-0.082,0.111-0.123,0.166c-0.419,0.106-0.844,0.197-1.268,0.269c-0.248-0.142-0.52-0.288-0.836-0.456
				c-2.12-1.129-4.036-0.908-4.967-3.522c-0.414-1.162-0.364-2.88-0.292-4.088c0.08-1.333,0.587-2.612,0.346-3.863
				c0.398-0.125,0.798-0.274,1.2-0.481c0.674-0.347,1.268-0.758,1.807-1.21c-0.428,1.135-0.842,2.275-1.262,3.413
				c-0.701,1.896-2.024,4.008-1.532,6.089c0.047,0.197,0.392,0.219,0.422,0c0.316-2.323,1.541-4.486,2.347-6.678
				c0.497-1.352,0.999-2.697,1.535-4.027c1.67-0.494,2.857-0.348,4.052,0.762c-0.898,2.087-1.793,4.18-2.579,6.303
				c-0.716,1.932-1.778,4.074-1.415,6.177c0.076,0.439,0.669,0.273,0.714-0.097c0.293-2.446,1.342-4.813,2.231-7.092
				c0.578-1.482,1.176-2.99,1.795-4.489c0.023,0.028,0.045,0.049,0.068,0.078c0.142,0.181,0.272,0.36,0.403,0.538
				c0.079,0.827,0.194,1.653,0.269,2.465c0.044,0.471,0.717,0.484,0.742,0c0.014-0.268,0.026-0.535,0.038-0.8
				c0.017,0.033,0.032,0.066,0.048,0.099c0.062,1.094,0.247,2.086,0.589,2.818c-0.254,0.763-0.502,1.526-0.748,2.286
				c-0.001,0.001-0.002,0.002-0.003,0.003c-0.151,0.155-0.3,0.323-0.451,0.482c-0.567,0.436-1.03,0.959-1.443,1.547
				c-0.553,0.613-1.099,1.232-1.625,1.841c-0.176,0.203-0.044,0.504,0.174,0.541C31.145,76.65,31.053,76.811,30.954,76.976z
				 M39.667,88.942c-0.524,0.264-1.09,0.368-1.669,0.355c0.969-0.255,1.879-0.705,2.827-1.073
				C40.438,88.502,40.049,88.749,39.667,88.942z M41.467,86.5c-0.136,0.054-0.26,0.115-0.407,0.164
				c-1.497,0.495-3.739,1.885-5.288,1.621c-1.89-0.322-3.682-4.87-4.127-6.597c0.035-0.411,0.077-0.832,0.112-1.266
				c0.039-0.49-0.01-1.063-0.001-1.618c0.014-0.033,0.032-0.064,0.046-0.096c0.264-0.068,0.517-0.145,0.759-0.23
				c-0.08,0.569-0.112,1.135-0.051,1.694c0.03,0.28,0.496,0.411,0.545,0.074c0.107-0.747,0.277-1.479,0.478-2.204
				c1.212-0.653,2.089-1.652,2.698-3.228c0.228-0.589,0.417-1.231,0.559-1.897c0.611-0.154,1.276-0.236,1.936-0.242
				c0.306,0.125,0.603,0.295,0.894,0.482c-0.381,1.439-0.747,2.884-1.058,4.348c-0.151,0.711-2.703,9.111,0.297,7.927
				c0.267-0.105,0.254-0.532-0.072-0.529c-1.076,0.009,0.241-4.893,0.343-5.431c0.365-1.926,0.798-3.843,1.268-5.749
				c0.895,0.743,1.669,1.668,2.219,2.427c0.124,0.171,0.241,0.349,0.358,0.528C42.18,79.867,41.295,83.302,41.467,86.5z
				 M43.789,78.12c1.404,2.934,1.515,6.271-1.47,7.974C42.826,83.434,43.292,80.772,43.789,78.12z M43.923,88.428
				c-0.396-0.09-0.801-0.093-1.21-0.061c0.348-0.304,0.688-0.61,1.013-0.902c0.622-0.557,1.219-1.167,1.748-1.827
				c-0.084,1.1-0.081,2.223,0.049,3.387C45.051,88.786,44.535,88.568,43.923,88.428z M51.779,87.802
				c-0.014,0.029-0.032,0.058-0.045,0.087c-0.383,0.631-1.17,1.984-1.249,1.945c-0.143-0.071-0.361-0.077-0.473,0.061l-0.159,0.196
				c-0.058,0.072-0.098,0.147-0.13,0.223c-1.582,0.302-2.549-0.379-3.732-1.04c0.019-0.033,0.045-0.057,0.051-0.103
				c0.212-1.761,0.265-3.456,0.511-5.159c0.327-0.61,0.59-1.25,0.747-1.924c1.059,0.979,2.891,0.572,4.619-0.306
				C51.827,83.787,51.865,85.797,51.779,87.802z M47.899,80.272c-0.173-0.051-0.321,0.019-0.415,0.135
				c0-0.011,0.002-0.021,0.001-0.032c-0.004-0.102-0.025-0.206-0.033-0.308c0.344-1.446,0.631-2.908,0.897-4.368
				c0.385-2.109,0.538-4.226,1.111-6.303c0.015-0.056,0.033-0.11,0.049-0.166c0.244,0.195,0.542,0.304,0.824,0.437
				c1.077,0.51,1.863,0.731,2.698,1.739c-0.336,2.786-0.705,5.585-0.97,8.377C50.749,80.367,49.357,80.697,47.899,80.272z
				 M52.826,82.133c0.376,1.142,0.547,2.491,0.415,3.694c-0.041,0.075-0.093,0.145-0.139,0.217
				c-0.132,0.124-0.255,0.252-0.374,0.382C52.767,84.986,52.779,83.559,52.826,82.133z M57.304,97.726
				c-1.535-0.981-2.311-1.501-2.945-4.009c-0.245-0.97-0.218-1.898-0.558-2.851c-0.2-0.56-0.569-0.945-1.02-1.133
				c0.632-0.673,1.171-1.423,1.434-2.185c0.061-0.177,0.12-0.395,0.174-0.643c0.003-0.005,0.007-0.011,0.011-0.016
				c0.067-0.108,0.112-0.215,0.168-0.322c0.045-0.037,0.085-0.07,0.113-0.092c0.574-0.454,1.178-0.863,1.811-1.205
				c0.105,1.455,0.22,2.909,0.276,4.367c0.098,2.513,0.235,4.954,1.061,7.319C57.655,97.212,57.478,97.468,57.304,97.726z
				 M58.778,98.712c-0.052-0.038-0.095-0.073-0.15-0.112c-0.292-0.204-0.562-0.383-0.815-0.547c0.118-0.092,0.234-0.187,0.35-0.28
				c0.054,0.068,0.121,0.118,0.221,0.123c0.134,0.007,0.269,0.014,0.403,0.021c0.047,0.003,0.077-0.02,0.11-0.038
				C58.844,98.132,58.801,98.418,58.778,98.712z M58.988,97.496c-0.003,0.012-0.007,0.028-0.01,0.041
				c-0.028-0.044-0.067-0.084-0.125-0.103c-0.053-0.018-0.1-0.059-0.148-0.094c0.15-0.122,0.303-0.24,0.453-0.362
				C59.1,97.151,59.036,97.325,58.988,97.496z M58.201,96.416c-0.537-1.89-0.357-5.795-0.384-6.781
				c-0.044-1.622-0.192-3.227-0.319-4.837c0.908-0.356,1.872-0.556,2.9-0.508c0.122,0.006,0.224,0.023,0.339,0.034
				c-0.038,1.147-0.061,2.296-0.066,3.438c-0.009,1.9,0.17,3.802,0.438,5.686c-0.205,0.248-0.403,0.504-0.586,0.772
				c-0.356,0.195-0.705,0.423-1.043,0.728C58.989,95.391,58.58,95.892,58.201,96.416z M72.269,104.389
				c-1.085-0.186-1.836,0.237-3.009,0.428c-3.668,0.597-5.581-0.19-7.789-3.078c-0.4-0.523-0.691-0.954-0.987-1.349
				c0.181-0.195,0.144-0.562-0.197-0.546c-1.178,0.053,0.473-3.568,0.625-3.831c0.112-0.194,0.23-0.371,0.347-0.551
				c0.056-0.034,0.115-0.063,0.17-0.097c0.538,2.473,2.155,8.091,4.08,4.437c0.131-0.249-0.2-0.538-0.405-0.312
				c-0.715,0.788-0.846,0.829-1.488-0.217c-0.506-0.825-0.698-1.935-0.909-2.867c-0.119-0.523-0.217-1.05-0.307-1.579
				c1.058-0.526,1.983-1.148,2.956-1.751c0.199,1.279,0.416,2.556,0.689,3.821c0.484,2.235,1.53,7.265,4.84,6.133
				c0.37-0.127,0.342-0.774-0.099-0.729c-3.095,0.318-4.034-6.407-4.448-9.804c0.028-0.015,0.053-0.032,0.08-0.047
				c1.135-0.622,2.359-0.755,3.571-0.55c0.413,1.723,0.855,3.437,1.186,5.181c0.359,1.888,1.319,3.501,2.241,5.161
				C72.985,102.936,72.596,103.662,72.269,104.389z M74.054,100.866c-1.262-2.319-1.692-4.317-2.349-6.836
				c-0.154-0.591-0.295-1.186-0.429-1.785c0.397,0.145,0.79,0.314,1.172,0.521c-0.149,0.235-0.272,0.477-0.327,0.732
				c-0.028,0.133,0.065,0.314,0.226,0.297c0.147-0.016,0.294-0.033,0.44-0.049c0.073-0.008,0.101-0.094,0.037-0.138
				c-0.056-0.039,0.099-0.184,0.378-0.388c0.541,0.357,1.057,0.766,1.533,1.216c0.137,0.265,0.248,0.543,0.36,0.821
				c0.324,1.245,0.672,2.484,1.042,3.715c-0.243,0.189-0.481,0.39-0.704,0.621c-0.424,0.438-0.848,0.95-1.255,1.507
				C74.137,101.023,74.096,100.944,74.054,100.866z M74.998,105.591c-0.236-0.311-0.323-0.586-0.292-0.832
				c0.123,0.241,0.252,0.477,0.393,0.702C75.057,105.494,75.02,105.534,74.998,105.591z M78.736,109.581
				c-1.744-0.602-2.547-2.031-3.537-3.254c0.104-0.087,0.192-0.204,0.267-0.345c0.402,0.503,0.896,0.907,1.559,1.111
				c0.233,0.072,0.453-0.052,0.583-0.237c0.427-0.605,0.666-0.951,0.654-1.396c0.544,1.575,1.215,3.146,2.184,4.354
				C79.867,109.824,79.294,109.774,78.736,109.581z M84.339,109.658c-0.721-0.111-1.462-0.061-2.208,0.019
				c0-0.208-0.186-0.389-0.438-0.348c-1.184,0.193-3.498-7.72-3.818-8.68c-0.044-0.131-0.082-0.263-0.125-0.394
				c0.948-0.54,2.154-0.721,3.314-0.808c1.106,3.293,2.241,6.574,3.32,9.876C84.367,109.435,84.35,109.547,84.339,109.658z
				 M84.957,106.978c-0.083,0.119-0.072,0.252-0.011,0.36c-0.03,0.074-0.055,0.15-0.084,0.224c-0.339-1.2-0.696-2.395-1.044-3.592
				c-0.45-1.547-0.959-3.077-1.48-4.604c0.165-0.009,0.33-0.019,0.486-0.03c2.114-0.155,2.921,0.403,4.294,1.839
				c0.599,0.627,1.156,1.043,1.894,1.191c-0.722,0.329-1.381,0.79-1.914,1.416c-0.612,0.719-1.27,1.693-1.794,2.757
				C85.187,106.685,85.065,106.823,84.957,106.978z M99.411,114.194c-2.5,0.553-4.832,1.367-7.555,0.599
				c-2.833-0.799-4.001-3.692-6.451-4.832c-0.013-0.068-0.026-0.137-0.038-0.203c0.326-0.977,0.93-2.178,1.486-3.151
				c2.786-1.782,6.033-3.483,9.231-1.973c0.89,0.42,1.715,1.246,2.393,2.269c0.195,0.381,0.373,0.781,0.52,1.224
				C99.696,110.232,99.368,112.151,99.411,114.194z M109.254,114.678c-2.041,1.104-4.092,1.517-5.429-0.906
				c-0.566-1.026-1.872-1.012-2.682-0.434c0.427-1.59,0.114-3.489-0.612-5.243c-0.189-0.609-0.41-1.203-0.673-1.759
				c-1.212-2.559-3.485-3.854-6.177-4.427c-0.037-0.008-0.075-0.01-0.112-0.017c0.405,0.01,0.813-0.002,1.22-0.06
				c1.052-0.152,2.542-0.469,3.458-1.219c0.002,0.003,0.002,0.008,0.004,0.011c0.34,0.646,1.239,1.006,1.935,0.787
				c5.628-1.771,5.11,3.452,6.587,6.485c0.419,0.86,1.561,1.002,2.33,0.611C114.327,105.845,111.821,113.291,109.254,114.678z"/>
			<path d="M21.734,23.211c1.355-0.453,4.381-1.352,5.432,0.031c0.073,0.096,0.279,0.085,0.262-0.071
				c-0.211-1.95-2.979-1.73-4.384-1.504c-3.014,0.485-5.816,2.204-7.934,4.327c-0.204,0.205,0.054,0.525,0.303,0.393
				c0.698-0.371,1.457-0.437,2.117-0.875C18.946,24.576,20.053,23.773,21.734,23.211z"/>
			<path d="M22.788,25.785c-1.963-0.003-3.523,0.729-5.098,1.864c-0.887,0.639-2.584,2.045-1.617,3.238
				c0.161,0.198,0.434,0.053,0.509-0.134c0.938-2.318,3.738-4.024,6.206-4.194C23.279,26.524,23.291,25.785,22.788,25.785z"/>
			<path d="M20.995,39.171c0.156-1.229,0.158-2.466,0.183-3.703c0.02-0.969-0.243-3.391,0.859-3.872
				c0.522-0.228,0.145-1.037-0.379-0.9c-1.337,0.351-1.437,2.292-1.51,3.405c-0.115,1.752,0.176,3.407,0.441,5.125
				C20.627,39.478,20.968,39.38,20.995,39.171z"/>
		</g>
	</g>
</g>
<g>
</g>
<g>
</g>
<g>
</g>
<g>
</g>
<g>
</g>
<g>
</g>
<g>
</g>
<g>
</g>
<g>
</g>
<g>
</g>
<g>
</g>
<g>
</g>
<g>
</g>
<g>
</g>
<g>
</g>
</svg>
