<?xml version="1.0" encoding="iso-8859-1"?>
<!-- Generator: Adobe Illustrator 19.0.0, SVG Export Plug-In . SVG Version: 6.00 Build 0)  -->
<svg version="1.1" id="Layer_1" xmlns="http://www.w3.org/2000/svg" xmlns:xlink="http://www.w3.org/1999/xlink" x="0px" y="0px"
	 viewBox="0 0 112.48 112.48" style="enable-background:new 0 0 112.48 112.48;" xml:space="preserve">
<g>
	<g>
		<g>
			<path d="M109.092,72.171c-3.734-6.207-9.365-12.543-16.115-15.321c-1.322-0.544-2.661-0.955-4.012-1.273
				c1.685-4.954,1.764-9.17,0.529-14.562c-1.735-7.578-5.401-16.09-10.272-22.183c-4.791-5.993-11.517-7.958-18.086-11.252
				c-6.316-3.167-14.696-4.097-21.7-3.177c-7.18,0.942-14.62,4.392-20.432,8.645c-6.115,4.474-12.074,9.16-15.342,16.258
				C0.316,36.575-0.48,45.582,0.248,53.442c0.776,8.384,1.708,16.655,5.668,24.205c7.556,14.406,27.178,18.504,41.985,16.518
				c0.547-0.073,0.959-0.289,1.255-0.576c3.01,2.534,6.39,4.581,9.917,6.534c3.339,1.849,6.746,3.45,10.275,4.722
				c0.031,0.029,0.045,0.062,0.08,0.09c0.135,0.11,0.307,0.132,0.46,0.098c2.902,1.013,5.886,1.809,8.996,2.3
				c6.871,1.085,14.685,1.966,21.388-0.522c6.357-2.36,8.908-9.162,10.881-15.065C113.417,84.977,112.817,78.363,109.092,72.171z
				 M6.146,68.55c-2.319-8.885-3.521-19.979-1.502-28.947c1.09-4.841,2.389-8.82,5.273-12.853c2.866-4.008,5.927-6.494,9.853-9.444
				c6.958-5.228,15.391-9.251,24.217-9.147c8.845,0.104,16.993,2.77,24.745,7.018c4.063,2.227,7.325,5.143,9.702,9.129
				c2.411,4.044,5.264,8.646,6.802,13.085c1.23,3.55,2.662,7.583,2.726,11.33c0.036,2.134-0.47,4.327-0.625,6.513
				c-4.08-0.735-8.258-0.705-12.426-0.732c0.018-0.004,0.035-0.006,0.052-0.01c0.276-0.069,0.183-0.431-0.062-0.46
				c-3.294-0.398-4.699-1.591-8.258-1.019c-4.112,0.661-8.061,1.957-12.017,3.21c-5.959,1.888-9.354,5.411-11.669,10.86
				c-1.551,1.38-1.765,4.052-2.28,5.925c-1.056,3.845-2.606,7.7-2.171,11.758c0.043,0.399,0.704,0.583,0.775,0.105
				c0.412-2.762,0.873-5.386,1.5-8.067c-0.11,3.825,0.666,7.674,2.745,10.683c0.776,1.124,1.627,2.14,2.513,3.109
				C29.742,92.327,10.694,85.97,6.146,68.55z M46.379,85.406c-0.26-0.443-0.501-0.896-0.723-1.358
				c0.248-1.258,0.516-2.505,0.891-3.786c0.433-1.48,0.992-2.916,1.493-4.368c0.259,1.044,0.647,2.079,1.189,3.11
				c-0.621,1.453-1.448,2.881-2.002,4.292C46.965,83.962,46.643,84.675,46.379,85.406z M48.899,88.827
				c-0.597-0.669-1.159-1.362-1.666-2.088c0.347-1.35,0.766-2.658,1.285-4.01c0.36-0.938,0.83-1.849,1.26-2.773
				c0.116,0.186,0.226,0.371,0.354,0.556c0.404,0.587,0.861,1.169,1.344,1.744C51.262,84.598,49.664,86.615,48.899,88.827z
				 M49.825,89.813c0.344-1.261,0.723-2.494,1.326-3.774c0.459-0.975,0.862-1.93,1.06-2.937c0.476,0.526,0.969,1.045,1.481,1.55
				c-0.655,2.277-1.793,4.46-2.144,6.775C50.947,90.913,50.377,90.37,49.825,89.813z M53.879,93.241
				c-0.443-0.316-0.877-0.643-1.305-0.979c0.186-1.349,0.33-2.701,0.769-4.025c0.334-1.005,0.707-1.968,1.002-2.958
				c0.578,0.547,1.164,1.074,1.751,1.58c-0.737,1.744-1.218,3.603-1.918,5.359C54.042,92.557,53.944,92.899,53.879,93.241z
				 M59.367,93.488c-0.139,0.976-0.145,2.004-0.061,3.017c-1.461-0.74-2.924-1.582-4.338-2.519c0.006-0.445,0.078-0.912,0.267-1.464
				c0.142-0.415,0.374-0.817,0.524-1.231c0.447-1.234,0.716-2.507,1.158-3.734c0.235,0.195,0.47,0.392,0.701,0.579
				c0.862,0.697,1.763,1.208,2.683,1.645C60.05,91.024,59.549,92.213,59.367,93.488z M60.367,97.031
				c0.048-1.393-0.112-2.795,0.172-4.182c0.187-0.914,0.466-1.78,0.647-2.667c1.504,0.632,3.054,1.134,4.602,1.859
				c-0.576,1.027-0.862,2.174-1.141,3.362c-0.254,1.084-0.656,2.133-1.006,3.193C62.549,98.094,61.458,97.572,60.367,97.031z
				 M67.342,100.21c-0.922-0.375-1.84-0.766-2.755-1.175c0.385-1.118,0.835-2.334,0.895-2.586c0.319-1.344,0.499-2.777,1.162-3.99
				c0.835,0.444,1.717,0.9,2.638,1.357c-0.301,1.519-0.729,2.992-1.249,4.467C67.805,98.931,67.556,99.567,67.342,100.21z
				 M68.249,100.562c0.506-2.141,1.306-4.222,1.741-6.4c1.167,0.567,2.389,1.132,3.656,1.676c-0.033,0.023-0.067,0.039-0.098,0.074
				c-1.426,1.628-2.427,3.466-3.439,5.356C69.485,101.044,68.866,100.805,68.249,100.562z M104.137,99.179
				c-5.041,6.982-15.788,5.94-23.405,4.817c-1.412-0.208-2.783-0.491-4.138-0.807c0.45-0.019,0.878-0.069,1.173-0.079
				c0.113-0.004,0.24-0.06,0.292-0.168c0.064-0.134,0.074-0.208,0-0.341c-0.053-0.096-0.179-0.179-0.292-0.168
				c-0.465,0.047-0.926,0.149-1.393,0.176c-0.246,0.014-0.86,0.089-1.033-0.122c-0.22-0.269-0.021-0.329,0.166-0.584
				c0.838-1.138,1.558-2.622,1.899-3.997c0.162-0.654-0.847-0.933-1.01-0.278c-0.299,1.207-0.822,2.377-1.411,3.471
				c-0.239,0.445-0.704,0.965-0.391,1.492c0.032,0.054,0.082,0.089,0.123,0.134c-1.23-0.334-2.441-0.715-3.639-1.125
				c0.265-0.457,0.509-0.847,0.618-1.055c0.731-1.393,1.524-2.733,2.558-3.925c0.133-0.154,0.145-0.327,0.097-0.481
				c8.617,3.606,19.019,6.12,26.65,1.8c0.192-0.108,0.064-0.442-0.153-0.364c-4.741,1.7-12.676,0.046-17.235-1.591
				c-5.001-1.795-10.117-3.26-14.781-5.861c-2.298-1.281-4.807-1.806-7.176-2.895c-2.978-1.37-5.555-3.714-7.864-6.016
				c-1.192-1.189-2.223-2.492-3.057-3.905c0.031-0.141,0.068-0.28,0.091-0.422c0.064-0.39-0.333-0.618-0.609-0.528
				c-0.692-1.366-1.207-2.827-1.478-4.399c-0.427-2.478,0.466-4.808,0-7.283c-0.079-0.417-0.655-0.273-0.691,0.093
				c-0.337,3.487-0.78,6.754-0.259,9.926c-0.87,2.488-2.183,5.041-2.835,7.657c-0.462-1.304-0.782-2.672-0.897-4.119
				c-0.691-8.633,2.528-16.95,11.144-19.921c3.441-1.187,6.881-2.286,10.451-3.02c0.802-0.165,1.594-0.249,2.381-0.295
				c-0.099,0.515,0.186,1.147,0.868,1.209c3.953,0.359,7.92,1.082,11.851,1.559c3.627,0.44,8.463,0.979,11.812,2.581
				c5.487,2.625,11.758,9.229,14.432,14.739C110.916,83.16,109.313,92.01,104.137,99.179z"/>
			<path d="M41.443,19.729c2.431,0.649,5.638,1.184,7.166-1.433c1.074-1.84,0.193-4.132-1.918-4.528
				c-2.74-0.513-4.639,1.267-6.615,2.78c-0.113-0.141-0.223-0.299-0.33-0.483c-0.126-0.219-0.448-0.265-0.626-0.081
				C37.657,17.507,40.072,19.363,41.443,19.729z M46.711,16.324c0.37,0.693-0.697,1.469-1.223,1.652
				c-0.884,0.307-1.732-0.081-2.606-0.228c-0.446-0.075-0.838-0.138-1.197-0.227C43.415,16.671,46.104,15.187,46.711,16.324z"/>
			<path d="M70.479,73.549c0.261-0.076,0.297-0.51,0-0.565c-2.2-0.408-5.175-0.353-7.399-0.051c-2.214,0.3-4.229,1.124-6.495,0.648
				c-2.441-0.513-4.035-2.826-2.973-5.15c0.62-1.356,1.499-2.455,2.383-3.644c0.472-0.634,1.037-1.838,1.62-2.218
				c1.258-0.821,4.16-0.481,5.458,0.102c2.872,1.29,6.169,5.385,7.636,8.208c0.093,0.18,0.35,0.118,0.407-0.053
				c0.606-1.815-0.726-3.378-1.694-4.865c-1.61-2.474-3.971-4.706-6.651-6.016c-5.022-2.455-7.661,2.192-9.942,5.91
				c-1.939,3.161-3.128,6.845,0.822,8.756c2.373,1.148,4.791,1.216,7.33,0.737C64.282,74.724,67.291,74.478,70.479,73.549z"/>
			<path d="M74.537,76.402c-1.583,1.748-1.073,3.473-1.148,5.692c-0.056,1.665-0.766,3.75-2.465,4.452
				c-1.036,0.428-2.442-0.242-3.508-0.589c-1.631-0.532-3.923-1.426-5.037-2.823c-2.268-2.846,0.104-4.167,2.761-4.516
				c2.09-0.275,4.604-0.51,6.386-1.638c0.267-0.169,0.02-0.595-0.248-0.425c-0.852,0.539-1.91,0.384-2.856,0.479
				c-1.548,0.156-3.081-0.057-4.621,0.091c-1.189,0.114-2.879,0.418-3.692,1.407c-2.564,3.12,1.487,6.73,3.927,8.062
				c2.999,1.638,6.303,3.141,9.092,0.701c1.261-1.103,1.949-2.39,2.175-4.038c0.269-1.966,0.605-4.703,0.097-6.626
				C75.303,76.267,74.799,76.112,74.537,76.402z"/>
			<path d="M86.678,80.965c-1.736-1.359-3.164-2.507-5.436-1.775c-0.451,0.145-0.633,0.857-0.143,1.092
				c3.662,1.759,7.045,3.563,10.072,6.412c1.251,1.177,2.972,3.228,2.516,5.171c-0.581,2.474-3.873,1.371-5.506,0.976
				c-1.715-0.415-3.421-0.781-4.971-1.658c-1.349-0.763-4.252-1.998-4.563-3.689c-0.253-1.378,0.613-3.007,0.929-4.323
				c0.301-1.253,0.607-2.612,0.735-3.904c0.042-0.428-0.565-0.526-0.764-0.207c-1.57,2.513-4.479,8.81-1.729,11.369
				c0.728,0.678,1.711,0.823,2.574,1.26c1.115,0.564,2.066,1.394,3.227,1.883c2.432,1.025,5.598,1.867,8.263,1.782
				c4.14-0.132,4.061-4.863,2.297-7.727C92.479,84.867,89.18,82.924,86.678,80.965z"/>
			<path d="M103.607,73.71c-1.478-1.125-3.775-0.622-5.394-0.168c-2.583,0.725-4.945,1.089-7.243,2.485
				c-0.678,0.412-0.453,1.673,0.432,1.594c2.681-0.239,5.308-1.43,7.938-2.049c2.606-0.613,3.722,1.241,4.589,3.4
				c0.611,1.523,1.006,4.302,0.072,5.792c-0.669,1.067-3.396,2.036-4.586,1.678c-0.849-0.255-1.737-1.362-2.448-1.868
				c-1.076-0.767-2.271-1.331-3.348-2.095c-1.983-1.408-3.624-3.998-6.145-4.474c-0.346-0.065-0.463,0.392-0.143,0.52
				c2.047,0.82,3.237,3.695,5.018,5.082c2.042,1.592,4.191,3.539,6.451,4.802c3.551,1.985,6.702-0.434,7.596-4.076
				c0.42-1.71,0.475-3.699-0.068-5.385C105.844,77.456,104.945,74.729,103.607,73.71z"/>
			<path d="M84.67,73.215c1.384-2.096,1.935-4.4,2.84-6.705c0.242-0.617,0.609-1.628,1.139-2.06
				c1.059-0.863,2.354-0.348,3.333,0.172c1.212,0.644,2.196,1.613,3.077,2.656c1.167,1.38,1.649,2.61,0.086,3.806
				c-0.759,0.58-1.755,0.969-2.627,1.335c-1.174,0.492-2.436,0.755-3.596,1.273c-1.049,0.468-1.991,1.54-3.082,1.849
				c-0.225,0.064-0.221,0.386,0,0.452c1.498,0.446,3.092-0.596,4.492-1.019c1.785-0.539,3.614-1.089,5.251-2.013
				c2.641-1.492,3.331-3.767,1.524-6.277c-1.669-2.318-5.303-5.943-8.566-4.743c-1.532,0.563-2.392,2.243-2.97,3.654
				c-0.916,2.238-1.805,4.63-2.526,6.936C82.73,73.529,84.132,74.031,84.67,73.215z"/>
			<path d="M82.271,62.216c0.166,0.45-1.306,2.315-1.637,2.81c-1.389,2.079-3.088,4.152-3.844,6.572
				c-0.147,0.472,0.326,0.894,0.778,0.778c1.906-0.489,2.826-2.612,3.871-4.122c1.044-1.508,2.729-3.443,3.061-5.292
				c0.653-3.642-6.004-4.746-8.337-4.678c-2.724,0.079-7.346,0.75-6.183,4.54c0.693,2.257,2.522,7.927,5.419,8.153
				c0.176,0.014,0.287-0.245,0.149-0.36c-0.818-0.684-0.921-2.161-1.329-3.106c-0.585-1.356-1.092-2.73-1.653-4.095
				c-0.687-1.669-0.48-2.509,1.357-2.919c1.359-0.304,2.87-0.33,4.246-0.155C79.214,60.476,81.842,61.052,82.271,62.216z"/>
			<path d="M13.283,49.337c-1.299,0.383-2.315,1.743-3.328,2.587c-0.938,0.782-2.25,2.263-1.398,3.544
				c0.175,0.263,0.51,0.248,0.688,0c0.36-0.501,0.281-1.101,0.55-1.641c0.265-0.53,0.764-0.922,1.187-1.318
				c0.76-0.712,1.536-1.953,2.538-2.313C14.051,50.005,13.84,49.173,13.283,49.337z"/>
			<path d="M10.86,58.954c0.217-0.435,0.856-0.888,1.217-1.151c0.645-0.469,1.359-0.87,1.946-1.415
				c0.602-0.559,0.134-1.319-0.491-1.442c1.952-2.309,3.829-4.662,5.71-7.028c0.995-1.252,2.016-2.482,3.055-3.697
				c0.875,0.194,1.876,0.06,2.519-0.549c0.73-0.692,0.7-1.721,0.292-2.654c1.982-2.196,4.021-4.34,6.097-6.447
				c0.389-0.394-0.214-0.998-0.608-0.608c-2.04,2.024-4.041,4.088-5.996,6.193c-0.446-0.596-1.024-1.07-1.6-1.254
				c-0.32-0.103-0.589,0.279-0.428,0.557c0.291,0.501,0.819,1.019,1.202,1.582c-0.66,0.721-1.301,1.458-1.946,2.192
				c-0.294-0.119-0.547-0.316-0.667-0.642c-0.144-0.392-0.097-0.909-0.132-1.324c-0.014-0.167-0.24-0.164-0.258,0
				c-0.105,0.966-0.288,1.946,0.545,2.542c-1.255,1.444-2.49,2.905-3.677,4.408c-2.134,2.7-4.695,5.302-6.749,8.175
				c-1.118,0.737-2.144,1.635-1.789,2.869c-0.578,1.097-1.06,2.241-1.39,3.454c-0.06,0.221,0.235,0.329,0.357,0.151
				c0.631-0.922,1.087-1.933,1.626-2.904c0.155,0.041,0.322,0.049,0.476,0.026c0.068-0.01,0.137-0.021,0.206-0.031
				C10.858,59.884,11.005,59.357,10.86,58.954z M24.209,42.039c0.018,0.133,0.022,0.268,0.002,0.406
				c-0.075,0.536-0.611,0.79-1.133,0.884C23.453,42.897,23.829,42.467,24.209,42.039z"/>
			<path d="M35.697,45.471c0.861,0.684,2.655,2.074,1.814,3.351c-0.52,0.79-2.141,1.286-2.235-0.056
				c-0.033-0.476-0.761-0.487-0.75,0c0.047,2.124,2.42,2.355,3.748,1.088c1.908-1.82-0.189-4.695-2.373-4.877
				C35.663,44.958,35.503,45.317,35.697,45.471z"/>
			<path d="M47.338,35.887c0.1-0.566-0.75-0.817-0.874-0.241c-0.357,1.66,1.321,2.467,2.767,2.235
				c1.782-0.286,3.401-2.458,2.659-4.249c-0.171-0.414-0.864-0.547-0.979,0c-0.227,1.077-0.242,2.173-1.29,2.828
				C49.028,36.83,47.129,37.073,47.338,35.887z"/>
			<path d="M60.027,36.687c0.712,0.43,1.667,0.182,2.293-0.289c1.332-1.003,0.855-3.123-0.918-3.097
				c-0.45,0.007-0.648,0.639-0.235,0.866c0.622,0.342,0.752,0.956,0.097,1.356c-0.91,0.556-1.61-0.289-2.197-0.923
				c-0.179-0.194-0.512,0.059-0.368,0.284C59.096,35.508,59.36,36.284,60.027,36.687z"/>
			<path d="M42.017,51.542c-0.15,0.238-0.008,0.589,0.266,0.654c0.121,0.029,0.327,0.035,0.415,0.034
				c0.008,0.025,0.1,0.048,0.112,0.084c-0.049-0.145,0.092,0.025,0.092,0.08c0,0.026,0,0.061,0,0.08c0,0.195-0.081,0.168-0.138,0.39
				c-0.051,0.197-0.09,0.225-0.194,0.371c-0.028,0.038-0.114,0.104-0.15,0.13c-0.017,0.005-0.105,0.036-0.144,0.019
				c-0.211-0.091-0.376-0.297-0.517-0.468c-0.354-0.43-1.122,0.15-0.782,0.601c0.419,0.556,0.998,1.104,1.751,0.936
				c0.598-0.133,0.994-0.698,1.176-1.251c0.177-0.536,0.2-1.311-0.219-1.747C43.237,50.99,42.378,50.968,42.017,51.542z"/>
			<path d="M57.928,48.588c1.388-0.75,2.198-2.563,1.297-4.011c-0.153-0.246-0.493-0.238-0.648,0
				c-0.465,0.714-0.226,1.679-0.76,2.365c-0.199,0.256-0.518,0.551-0.833,0.681c-0.024-0.059-0.048-0.117-0.065-0.18
				c-0.059-0.221-0.055-0.449-0.058-0.676c-0.007-0.593-0.914-0.594-0.922,0c-0.007,0.569-0.082,1.344,0.356,1.79
				C56.748,49.016,57.422,48.861,57.928,48.588z"/>
			<path d="M65.744,42.835c0.967,0.169,1.778-0.225,2.067-1.201c0.248-0.839,0.021-1.621-0.123-2.447
				c-0.05-0.286-0.517-0.28-0.573,0c-0.106,0.538-0.193,1.066-0.295,1.604c-0.089,0.47-0.168,1.015-0.762,0.906
				C65.314,41.561,64.999,42.705,65.744,42.835z"/>
			<path d="M53.009,27.658c0.373-0.081,0.63-0.119,0.733-0.523c0.085-0.332,0.011-0.686-0.135-0.989
				c-0.106-0.22-0.443-0.104-0.444,0.12c-0.001,0.214-0.046,0.39-0.124,0.568c-0.082,0.014-0.164,0.025-0.246,0.041
				C52.283,26.974,52.497,27.769,53.009,27.658z"/>
			<path d="M15.06,23.359c0.957-1.396,2.975-2.002,4.43-2.672c1.689-0.777,3.211-1.79,4.822-2.708
				c3.294-1.877,6.993-3.97,10.684-4.87c0.444-0.108,0.256-0.793-0.189-0.686c-4.167,1.005-8.324,3.372-11.976,5.563
				c-1.901,1.14-3.905,1.987-5.835,3.056c-0.964,0.534-1.866,1.118-2.271,2.175C14.646,23.423,14.949,23.52,15.06,23.359z"/>
			<path d="M11.093,29.319c0.348-1.346,3.943-2.826,5.043-3.488c2.348-1.413,4.746-2.593,7.186-3.827
				c0.219-0.111,0.423-0.243,0.636-0.365c0.006,1.84,2.584,2.15,3.58,0.591c0.412-0.644,0.711-2.096,0.493-3.156
				c0.286-0.167,0.567-0.342,0.865-0.49c2.647-1.318,5.295-2.569,8.049-3.656c0.196-0.077,0.12-0.392-0.089-0.324
				c-2.869,0.936-5.615,2.038-8.344,3.323c-0.266,0.125-0.518,0.272-0.778,0.406c-0.28-0.408-0.735-0.618-1.436-0.436
				c-0.347,0.09-0.341,0.514-0.091,0.7c0.139,0.104,0.238,0.232,0.321,0.37c-1.887,1.072-3.691,2.282-5.666,3.233
				c-2.691,1.295-5.246,2.928-7.766,4.525c-0.932,0.591-2.252,1.33-2.395,2.541C10.675,29.492,11.038,29.532,11.093,29.319z
				 M26.759,19.861c0.009,0.425-0.078,0.867-0.189,1.232c-0.122,0.402-0.292,0.77-0.696,0.95c-0.573,0.255-1.182,0.039-1.078-0.667
				c0.011-0.077,0-0.144-0.022-0.207C25.443,20.746,26.097,20.299,26.759,19.861z"/>
			<path d="M8.016,37.962c2.051-1.496,3.876-3.286,5.864-4.866c2.214-1.76,4.552-3.348,6.783-5.084
				c2.356-1.833,4.979-3.1,7.35-4.859c2.353-1.746,4.465-3.685,7.089-5.042c0.456-0.236,0.054-0.921-0.402-0.688
				c-2.392,1.224-4.378,2.887-6.489,4.52c-2.357,1.825-5.08,3.045-7.451,4.878c-4.379,3.385-9.681,6.348-13.055,10.831
				C7.571,37.831,7.837,38.092,8.016,37.962z"/>
			<path d="M18.131,36.272c2.168-2.157,4.406-4.254,6.9-6.035c2.354-1.681,4.832-3.916,7.491-5.034
				c0.528-0.222,0.301-1.097-0.241-0.874c-2.481,1.02-4.502,2.9-6.724,4.369c-2.515,1.662-4.828,3.603-6.997,5.694
				c-4.523,4.361-9.866,7.916-13.384,13.243c-0.141,0.214,0.143,0.507,0.358,0.358c2.284-1.58,3.795-4.009,5.795-5.906
				C13.499,40.029,16.006,38.387,18.131,36.272z"/>
			<path d="M18.601,42.322c3.13-3.137,6.33-6.128,9.738-8.93c0.645,0.385,1.556,0.339,2.471-0.038
				c0.865-0.356,1.766-0.961,2.117-1.868c0.174-0.448,0.196-0.918-0.016-1.357c-0.257-0.532-0.827-0.625-1.162-1.066
				c-0.224-0.294-0.757-0.234-0.75,0.203c0.009,0.588,0.388,0.772,0.6,1.248c0.205,0.461,0.02,0.717-0.34,1.079
				c-0.188,0.19-0.402,0.334-0.63,0.47c-0.349,0.208-0.82,0.43-1.246,0.496c0.583-0.466,1.154-0.941,1.751-1.396
				c0.465-0.354,0.01-1.154-0.465-0.796c-0.757,0.57-1.494,1.157-2.234,1.742c-0.04-0.099-0.076-0.205-0.092-0.344
				c-0.063-0.553-0.928-0.573-0.883,0c0.029,0.367,0.123,0.657,0.245,0.912c-3.345,2.681-6.526,5.514-9.544,8.589
				c-1.691,1.724-3.674,3.037-5.133,4.982c-0.894,1.191-1.844,2.032-2.839,3.097c-0.775,0.83-0.993,1.796-1.547,2.769
				c-0.164,0.288,0.24,0.628,0.472,0.364c0.669-0.759,1.077-1.708,1.774-2.434c0.763-0.797,1.627-1.404,2.328-2.27
				C14.884,45.714,16.74,44.187,18.601,42.322z"/>
			<path d="M20.639,53.713c3.391-4.163,6.81-8.3,10.571-12.137c0.395-0.402-0.22-1.018-0.619-0.619
				c-4.56,4.567-8.733,9.53-12.77,14.56c-1.043,1.299-2.012,2.652-2.944,4.03c-0.187-0.662-1.041-1.131-1.705-0.51
				c-1.319,1.234-3.976,3.897-2.301,5.759c0.172,0.191,0.439,0.238,0.684,0.185c-0.458,1.046-0.712,2.144-0.512,3.383
				c0.073,0.448,0.685,0.279,0.729-0.099c0.339-2.912,2.159-5.307,3.729-7.7C17.073,58.168,18.83,55.935,20.639,53.713z"/>
			<path d="M30.73,47.095c0.385-0.453-0.267-1.113-0.657-0.657c-3.633,4.244-6.68,9.351-9.567,14.123
				c-1.579,2.611-3.347,5.122-4.84,7.784c-0.88,1.568-1.812,3.679-1.543,5.499c0.042,0.282,0.505,0.27,0.557,0
				c0.968-4.957,4.57-9.304,7.138-13.541C24.514,55.855,27.359,51.062,30.73,47.095z"/>
			<path d="M29.084,57.527c0.43-1.196,0.781-3.833,2.044-4.372c0.462-0.198,0.124-1.019-0.346-0.821
				c-0.974,0.41-1.347,1.482-1.714,2.41c-0.871,2.204-1.582,4.372-2.764,6.457c-1.379,2.432-2.943,4.756-4.229,7.241
				c-1.065,2.057-2.535,4.475-3.009,6.733c-0.08,0.379,0.423,0.614,0.635,0.268c2.404-3.923,4.162-8.209,6.517-12.185
				C27.308,61.416,28.358,59.545,29.084,57.527z"/>
			<path d="M25.939,80.468c0.037-4.577,3.126-9.183,4.615-13.38c1.613-4.549,4.544-8.877,5.307-13.695
				c0.095-0.598-0.817-0.86-0.919-0.253c-0.44,2.626-1.731,4.988-2.736,7.431c-1.067,2.594-2.258,5.11-3.314,7.712
				c-0.912,2.246-2.022,4.397-2.822,6.691c-0.687,1.969-1.656,4.17-1.025,6.243c0.121,0.398,0.615,0.428,0.838,0.11
				c0.095-0.135,0.19-0.27,0.285-0.405C26.29,80.748,26.136,80.495,25.939,80.468z"/>
			<path d="M37.473,57.516c-1.42,2.473-2.507,5.225-3.416,8.024c-0.004,0.007-0.013,0.008-0.017,0.015
				c-0.209,0.394-0.243,0.622-0.725,0.498c-0.402-0.104-0.774-0.345-1.038-0.663c-0.382-0.459-1.187,0.152-0.834,0.644
				c0.456,0.635,1.184,1.152,1.986,1.192c0.036,0.002,0.069-0.005,0.103-0.006c-0.462,1.542-0.882,3.086-1.274,4.593
				c-0.333,1.282-0.861,2.644-1.363,4.037c-0.148-0.015-0.294,0.032-0.365,0.199c-0.159,0.375-0.509,0.798-0.929,1.128
				c-0.034-0.096-0.126-0.166-0.26-0.13c-0.579,0.158-1.323,0.309-1.73,0.788c-0.187,0.22-0.185,0.575,0.094,0.73
				c0.634,0.351,1.591,0.217,2.373-0.196c-0.558,2.029-0.79,4.07-0.032,5.987c0.122,0.308,0.408,0.435,0.714,0.29
				c0.095-0.045,0.19-0.09,0.285-0.135c0.117-0.055,0.209-0.217,0.198-0.345c-0.011-0.134-0.022-0.267-0.033-0.401
				c-0.029-0.355-0.479-0.409-0.606-0.082c0.42-1.078,0.171-2.498,0.384-3.635c0.19-1.014,0.507-2.001,0.828-2.979
				c0.63-1.919,1.261-3.793,1.738-5.758c1.069-4.405,2.532-9.334,4.776-13.295C38.645,57.461,37.791,56.962,37.473,57.516z"/>
			<path d="M37.849,69.071c0.462-2.624,0.921-5.079,2.041-7.519c0.302-0.657-0.671-1.234-0.978-0.572
				c-1.305,2.818-1.726,5.667-2.345,8.678c-0.547,2.662-1.659,5.174-2.097,7.856c-0.114,0.696-0.806,7.226,1.582,5.511
				c0.2-0.144,0.196-0.48-0.072-0.55c-1.482-0.387-0.317-5.184-0.033-6.302C36.556,73.788,37.42,71.507,37.849,69.071z"/>
		</g>
	</g>
</g>
<g>
</g>
<g>
</g>
<g>
</g>
<g>
</g>
<g>
</g>
<g>
</g>
<g>
</g>
<g>
</g>
<g>
</g>
<g>
</g>
<g>
</g>
<g>
</g>
<g>
</g>
<g>
</g>
<g>
</g>
</svg>
