<?xml version="1.0" encoding="iso-8859-1"?>
<!-- Generator: Adobe Illustrator 19.0.0, SVG Export Plug-In . SVG Version: 6.00 Build 0)  -->
<svg version="1.1" id="Layer_1" xmlns="http://www.w3.org/2000/svg" xmlns:xlink="http://www.w3.org/1999/xlink" x="0px" y="0px"
	 viewBox="0 0 116.929 116.929" style="enable-background:new 0 0 116.929 116.929;" xml:space="preserve">
<g>
	<g>
		<g>
			<path d="M109.746,59.534c-5.893-4.321-11.015-4.141-17.865-3.446c-4.878,0.495-4.046-1.829-5.753-5.221
				c-0.586-1.165-1.297-2.04-2.139-2.81c4.227-4.604,4.746-14.635,2.35-19.662c-1.807-3.792-4.78-5.637-8.528-7.119
				c-2.838-1.122-5.41-3.369-8.38-4.058c-0.502-0.765-0.962-1.562-1.491-2.307c-1.093-1.54-2.578-2.713-3.643-4.276
				c-1.983-2.913-2.969-5.227-6.095-7.149c-6.146-3.78-12.948-3.229-19.634-1.283c-7.185,2.092-13.41,5.992-19.7,9.907
				C12.284,16.209,7.156,21.537,3.57,28.424C0.021,35.24-0.245,41.738,0.124,49.29c0.168,3.437-0.323,6.859,0.082,10.293
				c0.499,4.232,1.268,8.609,0.862,12.902c-0.477,5.043-3.296,11.282,4.441,11.709c3.677,0.203,6.815-2.387,10.582-2.119
				c4.491,0.319,8.115,2.958,12.796,2.664c0.049,1.039,0.117,2.075,0.227,3.104c-0.087,0.114-0.118,0.269-0.024,0.391
				c0.035,0.045,0.062,0.102,0.094,0.151c0.158,1.355,0.368,2.697,0.627,4.022c-0.038,1.638-0.237,3.306-0.303,4.268
				c-0.192,2.804-1.716,4.914-2.119,7.528c-0.402,2.609,0.914,3.488,3.35,3.413c2.396-0.073,4.103-1.164,6.369,0.109
				c0.704,0.396,1.251,1.205,1.937,1.664c2.013,1.347,4.64,2.244,6.84,3.137c5.111,2.073,10.715,3.328,16.214,3.642
				c10.447,0.597,21.415-2.611,30.826-6.862c4.71-2.128,9.106-5.354,12.545-9.234c1.565-1.767,3.943-4.428,5.336-7.075
				c3.886-3.878,5.675-10.479,6.036-15.496C117.354,70.384,115.673,63.879,109.746,59.534z M3.375,47.352
				c1.047-1.161,2.231-2.168,3.321-3.29c0.973,0.145,2.062-0.05,3.017-0.294c-1.187,1.346-2.368,2.696-3.545,4.043
				c-1.063,1.217-1.729,2.627-2.502,3.992C3.54,50.315,3.435,48.83,3.375,47.352z M28.843,81.333
				c-1.372-0.246-2.741-0.581-4.11-0.929c0.747-4.474,2.71-8.954,4.138-13.223c0.198-0.593-0.734-0.845-0.934-0.257
				c-0.927,2.724-1.923,5.428-2.688,8.204c-0.464,1.684-1.172,3.376-1.132,5.12c-2.463-0.629-4.928-1.256-7.413-1.443
				c0.407-1.496,1.027-2.906,1.529-4.427c0.808-2.451,1.327-4.84,2.408-7.216c1.813-3.988,4.032-7.736,5.188-11.992
				c0.149-0.549-0.702-0.783-0.851-0.235c-1.29,4.75-4.015,8.868-5.884,13.381c-0.882,2.13-1.286,4.378-2.087,6.528
				c-0.49,1.313-1.028,2.581-1.332,3.91c-1.338-0.03-2.683,0.079-4.038,0.412c-1.337,0.328-2.499,1.217-3.819,1.566
				c-4.705,1.242-4.274-1.912-3.695-5.217c0.328-1.875,0.542-3.49,0.647-5.215c0.553-1.06,1.175-2.089,1.766-3.132
				c1.603-2.826,3.113-5.739,4.99-8.393c1.668-2.358,2.663-4.96,4.092-7.448c1.279-2.228,2.876-4.189,3.654-6.672
				c0.15-0.479-0.563-0.653-0.738-0.204c-1.096,2.817-3.056,5.077-4.422,7.747c-1.478,2.89-3.209,5.44-4.886,8.2
				c-1.532,2.522-2.953,5.125-4.382,7.709c0.002-0.274,0.005-0.548,0.003-0.834c-0.008-1.025-0.044-2.054-0.098-3.086
				c0.717-1.092,1.344-2.252,2.045-3.359c1.52-2.402,3.405-4.535,5.04-6.854c1.694-2.403,3.277-4.875,5.006-7.257
				c0.839-1.157,1.791-2.292,2.442-3.569c0.651-1.278,1-2.647,1.952-3.767c0.384-0.451-0.256-1.108-0.657-0.657
				c-1.434,1.608-2.001,3.777-3.25,5.533c-1.921,2.701-3.881,5.355-5.727,8.109c-1.581,2.358-3.436,4.517-5.023,6.87
				c-0.681,1.011-1.314,2.056-1.939,3.106c-0.203-2.832-0.516-5.679-0.787-8.521c0.17-0.252,0.343-0.51,0.518-0.783
				c0.604-0.938,0.868-2.031,1.45-2.975c0.766-1.242,1.85-2.271,2.85-3.324c3.81-4.013,7.163-8.414,11.079-12.345
				c0.441-0.442-0.06-1.125-0.503-0.685c-2.77,2.752-5.839,5.643-7.839,8.568V42.26c0-0.777-1.065-1.313-1.734-1.133
				c1.04-1.068,2-2.124,3.057-3.174c3.958-3.934,8.053-7.678,11.999-11.624c0.356-0.356-0.217-0.906-0.575-0.552
				c-4.19,4.135-8.613,8.038-12.783,12.193c-1.192,1.187-2.365,2.393-3.52,3.612c-0.586,0.168-1.164,0.375-1.687,0.579
				c-0.699,0.272-0.871,1.147-0.352,1.588c-0.772,0.801-1.798,1.495-2.47,2.388c-0.061-2.677,0.048-5.33,0.455-7.94
				c1.52-1.122,2.991-2.318,4.463-3.519c0,0.222,0.042,0.454,0.121,0.661c0.467,1.226,2.051,0.827,2.053-0.362
				c0.084-0.089,0.151-0.147,0.034-0.032c0.028-0.027,0.12-0.107,0.136-0.127c0.095-0.065,0.194-0.125,0.295-0.179
				c0.025-0.013,0.168-0.082,0.222-0.11c0.055-0.021,0.19-0.075,0.214-0.084c0.458-0.167,0.753-0.325,1.057-0.736
				c0.444-0.601,0.018-1.57-0.656-1.783c1.502-1.135,3.049-2.207,4.709-3.122c2.398-1.323,4.381-3.129,6.72-4.531
				c2.233-1.338,4.804-2.451,6.912-3.935c0.342-0.241,0.017-0.809-0.331-0.567c-2.113,1.476-4.687,2.586-6.928,3.908
				c-2.589,1.528-4.9,3.376-7.527,4.86c-2.37,1.338-4.578,3.1-6.734,4.757c-1.442,1.109-3.152,2.338-4.547,3.691
				c0.598-3.089,1.646-6.114,3.379-9.041c4.138-6.99,9.778-10.93,16.343-15.337c0.232-0.156,0.475-0.306,0.711-0.46
				c4.262-1.619,8.84-2.534,13.177-3.891c0.983-0.308,11.886-3.933,11.974-3.615c0.112,0.407,0.737,0.236,0.633-0.174
				c-0.224-0.877-0.797-0.821-1.571-0.575c-2.714,0.862-5.442,1.754-8.173,2.671c-4.398,1.477-9.136,2.407-13.545,4.021
				c4.742-2.847,9.984-5.273,15.263-6.553c4.049-0.982,8.64-1.231,12.551,0.31c4.534,1.787,5.927,4.986,8.591,8.547
				c1.361,1.819,2.905,3.592,4.343,5.364c1.032,1.272,1.946,2.098,3.544,2.228c0.715,0.798,1.38,1.532,1.891,1.928
				c2.979,2.311,6.791,2.758,9.047,6.005c2.683,3.861,1.905,8.282,0.782,12.549c-0.515,1.956-1.305,3.39-1.738,5.027
				c-6.139-4.025-15.074-3.377-22.008-2.308c-6.499,1.002-12.269,4.006-17.327,8.088C32.954,58.962,29.056,70.128,28.843,81.333z
				 M39.856,104.436c-0.075,0.327-0.225,0.7-0.335,1.08c-2.199-1.562-3.559-1.717-5.945-1.638c2.001-0.753,4.335-0.744,6.491-0.436
				C40,103.773,39.931,104.105,39.856,104.436z M40.48,106.213c-0.031-0.226-0.04-0.463-0.009-0.721
				c0.076-0.626,0.243-1.274,0.393-1.918c0.44,0.078,0.874,0.164,1.29,0.259c0.778,0.179,1.583,0.339,2.398,0.496
				c-0.135,0.767-0.224,1.502-0.121,2.381c0.062,0.533,0.201,1.333,0.477,2.045C43.289,108.032,41.775,107.193,40.48,106.213z
				 M46.581,109.449c-1.214-1.278-1.318-3.206-1.072-4.934c1.227,0.234,2.454,0.482,3.645,0.788
				c0.059,1.215,0.139,2.438,0.288,3.613c0.061,0.485,0.169,1.064,0.344,1.625C48.708,110.22,47.636,109.854,46.581,109.449z
				 M110.464,88.685c-0.172,0.077-0.329,0.188-0.441,0.352c-0.955,1.408-2.525,2.571-3.614,3.875
				c-1.89,2.263-3.561,4.627-5.704,6.669c-4.09,3.895-9.259,6.704-14.567,8.565c-1.188,0.417-2.4,0.818-3.631,1.198
				c-0.533-0.457-1.005-0.841-1.602-1.212c-0.882-0.548-1.315-0.779-1.862-1.665c-0.16-0.26-0.264-0.551-0.437-0.809
				c1.23-0.082,2.439-0.229,3.641-0.449c0.514,0.51,1.075,0.972,1.664,1.38c1.292,0.895,4.162,2.022,4.238-0.536
				c0.007-0.253-0.333-0.323-0.459-0.124c-0.949,1.497-3.117-0.246-4.044-1.01c1.532-0.36,3.067-0.842,4.645-1.505
				c0.579-0.243,1.161-0.541,1.743-0.86c0.836,0.76,1.898,1.556,2.926,1.207c0.231-0.079,0.188-0.407-0.057-0.422
				c-0.634-0.04-1.388-0.619-2.048-1.247c2.683-1.603,5.328-3.788,7.63-5.508c3.393-2.534,6.079-6.927,8.553-10.307
				c2.77-3.784,5.966-8.336,5.615-13.224c-0.056-0.786-1.315-1.086-1.473-0.199c-1.554,8.726-9.084,18.197-16.065,23.349
				c-2.018,1.489-3.867,2.896-5.9,4.093c-0.791-1.016-1.354-2.18-1.837-3.374c-0.234-0.58-1.187-0.326-0.949,0.262
				c0.515,1.274,1.1,2.512,1.918,3.598c-1.079,0.586-2.215,1.117-3.469,1.561c-0.974,0.345-1.976,0.583-2.982,0.793
				c-0.806-1.042-1.381-2.243-1.499-3.582c-0.055-0.625-1.036-0.634-0.984,0c0.112,1.382,0.611,2.666,1.346,3.812
				c-1.097,0.213-2.185,0.431-3.244,0.723c-0.207-0.332-0.401-0.683-0.558-1.122c-0.363-1.015-0.947-1.962-1.224-3.004
				c-0.112-0.423-0.762-0.244-0.655,0.181c0.328,1.302,0.827,2.573,1.27,3.836c0.05,0.142,0.122,0.273,0.183,0.41
				c-0.766,0.262-1.513,0.577-2.22,1.001c-0.161,0.097-0.091,0.345,0.095,0.349c0.974,0.024,1.918,0.016,2.851-0.014
				c0.309,0.492,0.626,0.98,0.878,1.505c0.401,0.836,0.873,1.229,1.69,1.658c0.538,0.283,1.039,0.612,1.573,0.786
				c-8.441,2.493-17.698,3.911-26.25,2.192c-1.32-0.265-2.735-0.595-4.173-0.987c-0.687-1.542-0.761-3.558-0.83-5.286
				c0.318,0.095,0.648,0.173,0.955,0.281c1.981,0.695,2.828,1.086,4.922,1.128c0.13,0.376,0.272,0.745,0.441,1.099
				c0.585,1.228,1.372,3.603,2.942,3.676c0.199,0.009,0.295-0.253,0.16-0.387c-0.678-0.673-0.913-1.61-1.382-2.426
				c-0.389-0.676-0.717-1.32-1.007-1.989c0.899-0.065,1.962-0.212,3.013-0.282c0.134,0.518,0.296,1.029,0.539,1.519
				c0.827,1.665,2.081,3.7,4.178,3.565c0.218-0.014,0.317-0.303,0.114-0.422c-1.887-1.112-3.18-2.702-3.894-4.696
				c1.036-0.008,2,0.111,2.697,0.534c0.186,0.113,0.327-0.159,0.166-0.283c-0.85-0.656-1.938-0.862-3.073-0.906
				c-0.059-0.208-0.121-0.414-0.168-0.631c-0.455-2.091-0.311-4.153-1.488-6.029c-0.28-0.446-0.981-0.041-0.708,0.414
				c1.126,1.877,1.057,4.117,1.469,6.237c-0.987,0.021-1.974,0.109-2.844,0.095c-0.114-0.002-0.244-0.018-0.361-0.023
				c-0.086-0.238-0.172-0.475-0.25-0.729c-0.565-1.824-1.183-3.946-2.349-5.469c-0.275-0.359-0.895-0.016-0.621,0.363
				c1.2,1.655,1.548,3.773,2.112,5.765c-1.716-0.178-3.676-0.6-5.595-1.129c-0.014-0.288-0.031-0.566-0.055-0.825
				c-0.203-2.215,0.306-4.67-0.814-6.689c-0.244-0.44-0.914-0.048-0.675,0.394c0.901,1.665,0.425,3.621,0.496,5.429
				c0.018,0.465,0.036,0.936,0.057,1.411c-1.204-0.359-2.371-0.752-3.426-1.152c0.508-2.681,0.157-5.673,0.109-8.385
				c-0.009-0.513-0.786-0.513-0.797,0c-0.053,2.615,0.238,5.434-0.222,8.012c0,0.003-0.001,0.005-0.001,0.008
				c-0.157-0.064-0.329-0.128-0.479-0.192c-0.892-0.38-1.957-0.768-3.102-1.091c0.376-2.248,0.869-4.463,1.632-6.618
				c0.192-0.541-0.668-0.774-0.859-0.237c-0.779,2.189-1.15,4.412-1.554,6.649c-0.998-0.245-2.038-0.424-3.069-0.501
				c0.279-1.543,0.652-3.108,1.136-4.535c0.562-1.657,1.476-3.155,1.747-4.904c0.068-0.435-0.602-0.617-0.663-0.183
				c-0.274,1.946-1.347,3.627-1.844,5.511c-0.348,1.319-0.706,2.699-0.874,4.081c-1.985-0.078-3.899,0.27-5.346,1.392
				c0.242-0.628,0.54-1.278,0.632-1.712c0.073-0.343,0.123-0.694,0.164-1.048c0.09,0.055,0.236,0.039,0.265-0.086
				c0.442-1.883,1.288-3.554,2.138-5.278c0.383-0.776,0.878-1.506,1.248-2.282c0.376-0.789,0.49-1.669,1.053-2.381
				c0.116-0.147-0.086-0.358-0.21-0.21c-0.4,0.475-0.559,0.892-0.788,1.455c-0.495,1.218-1.228,2.306-1.812,3.488
				c-0.702,1.422-1.469,2.785-1.818,4.316c0.062-1.423-0.067-2.881-0.231-4.248c-0.235-1.959-0.16-4.553-1.463-5.969
				c-0.182-11.555,1.937-24.777,10.644-32.549c5.481-4.892,12.268-8.589,19.682-9.311c6.179-0.601,13.914-0.574,19.025,3.256
				c3.304,2.476,2.217,6.423,5.037,8.928c3.067,2.724,8.714,0.726,12.211,0.542c4.306-0.227,7.645,0.512,10.94,3.475
				c2.897,2.604,4.605,6.28,4.799,10.187C113.234,77.227,112.603,83.815,110.464,88.685z"/>
			<path d="M75.8,62.809c-0.064-0.007-0.127-0.013-0.191-0.02c-0.003-0.051-0.007-0.101-0.01-0.152
				c-0.008-0.121-0.082-0.241-0.207-0.271c-3.5-0.849-7.101,0.424-10.558,0.996c-3.364,0.556-6.66,1.891-9.707,3.361
				c-2.943,1.419-3.629,3.465-4.565,6.385c-1.353,4.222-4.215,6.23-1.283,10.34c1.536,2.154,4.447,5.707,7.056,6.564
				c1.42,0.467,2.146-0.034,3.483-0.229c2.254-0.329,4.525,0.255,6.678-0.158c1.087-0.208,1.901-0.787,2.706-1.538
				c2.111-1.971,4.087-2.383,6.644-3.51c2.303-1.015,4.384-3.382,5.499-5.746c0.009-0.014,0.019-0.025,0.028-0.039
				c1.179-1.717,2.857-3.268,3.782-5.142c1.332-2.701-0.4-5.265-2.106-7.352C80.899,63.667,79.008,63.134,75.8,62.809z
				 M53.193,83.171c-0.199-0.197-0.398-0.395-0.597-0.592c-0.584-0.571-0.986-1.114-1.246-1.636c0.87-1.668,3.131-3.471,4.394-4.136
				c1.897-0.998,4.097-0.532,6.084-1.15c-0.184,1.732-1.2,3.695-1.615,5.398c-0.063,0.008-0.129,0.018-0.19,0.023
				c-0.504,0.04-2.03,0.212-1.952-0.526c0.06-0.574-0.495-0.738-0.915-0.561c-0.012-0.047-0.012-0.09-0.03-0.139
				c-0.155-0.413-0.673-0.751-1.102-0.448c-0.708,0.5-1.421,1.26-1.905,1.983c-0.334,0.499-0.636,1.05-0.865,1.606
				C53.23,83.053,53.214,83.112,53.193,83.171z M80.095,74.664c-0.212-1.288-1.994-2.598-3.167-2.838
				c-0.1-0.021-0.199-0.027-0.299-0.036c-0.037-0.274-0.064-0.549-0.113-0.821c-0.147-0.82-0.261-1.579-0.294-2.417
				c-0.041-1.053-1.611-1.059-1.641,0c-0.026,0.911,0.01,1.741,0.144,2.642c0.042,0.281,0.079,0.585,0.129,0.888
				c-0.479,0.178-0.947,0.403-1.402,0.608c-1.041,0.469-2.18,0.709-2.906,1.655c-0.266,0.347,0.234,0.739,0.561,0.561
				c0.615-0.335,1.562-0.197,2.252-0.271c0.759-0.081,1.628-0.427,2.386-0.385c1.16,0.065,1.857,1.114,2.591,1.865
				c0.121,0.123,0.298,0.202,0.481,0.224c-0.932,1.235-1.765,2.514-1.92,4.008c-1.536,0.666-3.197,1.106-4.933,1.729
				c-2.2,0.789-2.622,1.527-4.334,2.968c-0.773,0.651-1.553,0.924-2.36,1.023c0.589-1.375,0.857-2.893,1.682-4.162
				c0.979-1.505,2.624-1.782,3.837-2.964c0.007-0.006,0.006-0.014,0.012-0.021c0.374,0.164,0.727,0.377,1.051,0.678
				c0.437,0.406,1.11,0.22,1.293-0.341c0.493-1.517-1.132-2.362-2.377-2.423c-0.927-0.046-3.135,0.681-3.636-0.419
				c-0.108-0.238-0.531-0.126-0.502,0.136c0.1,0.91,0.762,1.34,1.534,1.603c-1.068,0.481-2.015,1.422-2.626,2.3
				c-1.105,1.588-1.708,3.794-0.988,5.658c-1.109,0.016-2.277-0.181-3.554-0.104c-2.275,0.137-1.469,2.104-4.951,0.203
				c-0.564-0.308-1.455-1.364-2.077-2.14c0.162-0.105,0.322-0.215,0.47-0.35c0.463-0.425,0.798-0.966,1.257-1.394
				c0.283-0.264,0.642-0.542,0.942-0.854c0.488,2.054,5.484,1.888,6.625,0.442c0.215-0.273,0.192-0.605-0.104-0.81
				c-0.278-0.191-0.595-0.266-0.928-0.285c0.49-0.591,0.944-1.213,1.274-2.054c0.516-1.317,0.743-2.586,0.51-3.986
				c-0.004-0.023-0.012-0.044-0.016-0.067c1.852,0.088,3.719-0.05,5.24-1.284c1.336-1.083,2.372-3.529,1.562-5.208
				c-0.236-0.489-0.629-0.824-1.18-0.646c-0.815,0.263-0.863,1.45-1.028,2.141c-0.441,1.851-2.273,2.881-4.135,3.397
				c-0.382-0.06-0.767-0.099-1.15-0.138c-0.644-0.943-1.666-1.494-3.006-1.275c-0.119,0.019-0.183,0.103-0.22,0.2
				c-0.804-0.727-1.005-1.882-2.071-2.257c-0.521-0.183-0.716,0.615-0.224,0.814c0.418,0.169,0.76,1.406,1.064,1.797
				c0.461,0.592,1.088,1.087,1.768,1.402c0.33,0.153,0.678,0.264,1.037,0.34c0.052,0.143,0.104,0.285,0.133,0.434
				c-2.495-0.827-5.747-0.462-7.795,1.227c-0.556,0.458-1.214,1.04-1.842,1.696c0.33-0.753,0.958-1.758,1.158-2.342
				c0.95-2.783,0.171-3.823,2.71-5.514c0.724-0.483,1.559-0.731,2.364-1.039c1.056,0.625,1.903,1.554,3.088,1.96
				c1.294,0.443,2.947,0.732,4.207,0.108c0.37-0.183,0.348-0.762,0-0.951c-1.284-0.699-2.72-0.639-4.091-1.004
				c-0.652-0.174-1.26-0.511-1.896-0.717c1.562-0.83,2.99-1.867,4.572-2.675c0.384,0.39,0.839,0.704,1.282,1.031
				c0.526,0.389,0.978,0.82,1.449,1.247c0.32,0.291,0.833,0.174,0.96-0.253c0.378-1.277-1.4-1.94-2.525-2.572
				c1.072-0.412,7.049-2.377,9.094-1.948c-1.432-0.111-2.781-0.017-3.764,1.285c-0.104,0.138,0.093,0.299,0.225,0.224
				c0.802-0.453,2.08-0.184,3.264,0.171c-0.099,0.083-0.14,0.233-0.029,0.37c0.724,0.894,2.169,1.059,3.241,1.134
				c0.397,0.028,0.868,0.074,1.349,0.087c1.307,0.746,2.309,1.864,2.764,3.579C82.103,71.524,81.227,73.12,80.095,74.664z"/>
			<path d="M68.483,28.132c0.458-0.492,0.203-1.135-0.362-1.371c-1.065-0.445-2.203-0.186-3.336-0.282
				c-0.816-0.069-1.556-0.334-2.201-0.759c0.207,0.028,0.418-0.005,0.626-0.142c0.28-0.184,0.385-0.532,0.219-0.834
				c-0.178-0.322-0.525-0.453-0.798-0.679c-0.284-0.235-0.515-0.528-0.768-0.795c-0.503-0.531-1.077-1.078-1.83-1.193
				c-0.163-0.025-0.298,0.015-0.4,0.09c-0.002-0.004-0.005-0.007-0.007-0.011c-0.771-1.29-0.627-2.778-0.828-4.213
				c-0.056-0.399-0.721-0.384-0.791,0c-0.594,3.249-0.275,6.615,1.776,9.358C61.707,29.871,66.19,30.595,68.483,28.132z"/>
			<path d="M10.378,37.266c-0.096-0.35-0.365-0.692-0.681-0.857c-0.527-0.275-1.08-0.257-1.645-0.135
				c-0.699,0.151-1.107,0.967-0.925,1.629c0.189,0.689,0.938,1.12,1.629,0.925c0.018-0.005,0.023-0.008,0.037-0.013
				c0.022,0.005,0.04,0.003,0.061,0.007c0.283,0.138,0.599,0.17,0.914,0.031c0.367-0.161,0.744-0.586,0.689-1.024
				c-0.017-0.133-0.034-0.265-0.053-0.398C10.454,37.779,10.411,37.389,10.378,37.266z"/>
			<path d="M13.543,21.291c2.048-1.418,4.754-2.42,6.995-3.534c2.684-1.334,5.424-2.512,8.073-3.918
				c4.274-2.27,9.254-2.848,13.045-6.033c0.356-0.299-0.155-0.799-0.508-0.508c-3.989,3.285-9.526,3.998-14.042,6.387
				c-2.415,1.278-4.973,2.252-7.401,3.501c-2.074,1.067-4.753,2.109-6.499,3.67C12.975,21.063,13.283,21.472,13.543,21.291z"/>
			<path d="M35.249,13.397c-0.865,0.719-1.902,0.928-2.903,1.365c-1.109,0.485-2.077,1.219-3.109,1.84
				c-2.529,1.522-5.258,2.734-7.919,4.003c-2.453,1.17-5.005,2.17-7.321,3.606c-1.983,1.23-3.78,3.205-6.155,3.618
				c-0.258,0.045-0.195,0.458,0.061,0.453c2.076-0.046,3.853-1.491,5.501-2.601c2.625-1.768,5.523-2.941,8.358-4.315
				c2.865-1.389,5.822-2.739,8.469-4.519c1.272-0.856,2.547-1.473,3.929-2.119c0.671-0.313,1.043-0.488,1.432-1.066
				C35.74,13.442,35.428,13.248,35.249,13.397z"/>
			<path d="M19.439,52.164c1.086-1.965,3.31-4.309,3.359-6.613c0.011-0.508-0.778-0.508-0.789,0
				c-0.035,1.639-2.073,4.066-2.859,5.403c-0.942,1.602-1.76,3.268-2.639,4.905c-1.908,3.554-3.932,7.038-5.666,10.682
				c-0.413,0.867-5.119,8.836-2.544,9.379c0.419,0.088,0.674-0.464,0.295-0.7c-1.345-0.838,5.392-12.707,5.968-13.766
				C16.234,58.383,17.75,55.222,19.439,52.164z"/>
			<path d="M22.493,52.938c-0.933,2.424-2.281,4.605-3.448,6.914c-1.142,2.262-2.103,4.625-3.107,6.951
				c-0.869,2.012-1.72,4.024-2.469,6.084c-0.64,1.762-1.54,3.58-1.437,5.486c0.019,0.347,0.457,0.47,0.648,0.176
				c0.336-0.52,0.257-0.341,0.408-0.946c0.035-0.138-0.077-0.228-0.191-0.229c0.777-4.354,3.27-8.873,4.984-12.817
				c1.676-3.857,3.936-7.469,5.432-11.392C23.51,52.652,22.688,52.432,22.493,52.938z"/>
			<path d="M28.102,57.469c-1.768,4.426-3.491,8.864-5.354,13.252c-1.079,2.542-2.465,5.563-2.041,8.385
				c0.03,0.196,0.358,0.192,0.392,0c0.599-3.391,1.991-6.6,3.248-9.784c1.526-3.867,2.883-7.8,4.358-11.687
				C28.848,57.256,28.249,57.101,28.102,57.469z"/>
			<path d="M66.467,104.343c-0.645-1.606-0.664-3.714-1.81-5.046c-0.305-0.355-0.792,0.154-0.508,0.508
				c0.85,1.06,0.86,3.155,1.283,4.434c0.389,1.175,0.739,2.45,1.313,3.553c0.831,1.597,2.238,3.153,4.158,3.114
				c0.326-0.007,0.518-0.51,0.179-0.662C68.34,109.006,67.534,107.002,66.467,104.343z"/>
			<path d="M71.135,102.147c-0.561-1.052-1.583-2.047-1.908-3.184c-0.119-0.416-0.747-0.242-0.648,0.179
				c0.298,1.268,1.218,2.291,1.759,3.471c0.645,1.406,1.154,2.697,2.322,3.749c0.606,0.545,1.251,0.908,1.73,1.592
				c0.268,0.383,0.424,0.903,0.799,1.213c0.709,0.586,1.47,0.415,2.282,0.134c0.223-0.077,0.266-0.441,0-0.497
				c-0.571-0.121-1.22-0.192-1.659-0.646c-0.287-0.296-0.399-0.824-0.649-1.155c-0.475-0.631-1.174-0.983-1.768-1.484
				C72.284,104.578,71.8,103.396,71.135,102.147z"/>
		</g>
	</g>
</g>
<g>
</g>
<g>
</g>
<g>
</g>
<g>
</g>
<g>
</g>
<g>
</g>
<g>
</g>
<g>
</g>
<g>
</g>
<g>
</g>
<g>
</g>
<g>
</g>
<g>
</g>
<g>
</g>
<g>
</g>
</svg>
