<?xml version="1.0" encoding="iso-8859-1"?>
<!-- Generator: Adobe Illustrator 19.0.0, SVG Export Plug-In . SVG Version: 6.00 Build 0)  -->
<svg version="1.1" id="Layer_1" xmlns="http://www.w3.org/2000/svg" xmlns:xlink="http://www.w3.org/1999/xlink" x="0px" y="0px"
	 viewBox="0 0 124.39 124.39" style="enable-background:new 0 0 124.39 124.39;" xml:space="preserve">
<g>
	<g>
		<g>
			<path d="M121.928,42.829c-2.741-3.083-6.182,0.152-7.902,2.312c-2.064,2.592-3.938,5.318-5.811,8.049
				c-1.91,2.785-3.789,6.104-6.506,8.251c-0.563-0.102-1.112-0.131-1.623-0.05c-0.956-0.416-1.81-0.985-2.867-1.356
				c-1.646-0.579-3.589-0.536-5.286-0.378c-3.557,0.331-7.501,1.31-10.576,3.195c-4.132,2.534-6.671,5.328-11.688,6.097
				c-1.339,0.205-2.684,0.282-4.031,0.323c1.222-6.389-1.811-11.042-5.182-16.476c-1.955-3.151-3.906-7.08-4.24-10.767
				c-0.211-2.336-0.547-4.645-0.877-6.969c-0.897-6.318,0.114-10.958-4.435-16.023c-2.697-3.003-6.587-5.545-10.585-5.443
				c0.096-0.097,0.181-0.203,0.28-0.297c1.763-1.679,3.696-2.28,5.705-3.478c1.666-0.994,4.01-2.932,4.215-5.017
				c0.2-2.039-1.668-3.418-3.336-4.221c-2.364-1.138-4.566-0.493-6.611,0.981c-2.813,2.027-6.119,6.255-7.533,10.471
				c-3.404-1.314-7.227-0.13-10.283,1.854c-4.553,2.957-9.191,5.388-11.763,10.41c-1.294,2.527-1.341,4.628-1.417,7.422
				c-0.082,3.02-0.82,5.679-0.668,8.729c0.353,7.056,0.681,14.195-0.703,21.178C5.672,74.4-0.129,87.137,2.438,100.529
				c1.041,5.43,4.959,12.176,9.318,15.632c3.87,3.068,8.445,2.859,13.061,2.001c0.123-0.023,0.221-0.079,0.322-0.132
				c0.751,0,1.493-0.041,2.189-0.316c0.254-0.1,0.472-0.272,0.651-0.476c1.7,1.526,3.6,2.866,5.529,4.064
				c2.497,1.551,5.817,2.073,8.715,2.32c4.764,0.406,9.764,1.075,14.548,0.611c5.629-0.546,14.557-0.107,18.549-4.954
				c14.854-3.375,23.019-21.231,29.005-33.687c2.49-5.181,7.016-12.679,4.627-18.581c-0.39-0.964-1.226-2.015-2.278-2.948
				c4.197-2.327,7.41-5.411,10.258-9.586C118.51,52.162,124.589,45.822,121.928,42.829z M32.536,17.622
				c0.054,0.235,0.101,0.472,0.18,0.698c0.058,0.167,0.316,0.237,0.407,0.053c1.726-3.476,2.298-7.458,4.542-10.706
				c1.137-1.647,3.108-4.083,5.003-4.921c2.144-0.949,6.296-0.348,4.64,3.164c-0.314,0.666-1.41,1.313-1.953,1.666
				c-3.033,1.967-5.832,2.875-8.198,5.819c-1.03,1.282-1.705,2.629-2.43,4.084c-0.715,1.434-1.368,1.602-2.29,0.801
				C32.477,18.053,32.507,17.823,32.536,17.622z M6.276,86.025c0.115,0.066,0.266,0.073,0.382-0.038
				c1.299-1.236,1.921-2.992,2.898-4.474c0.562-0.852,1.189-1.634,1.839-2.394c-0.061,0.121-0.125,0.217-0.171,0.385
				c-0.01,0.033-0.17,0.676-0.022,0.33c-0.195,0.459-0.102,0.851,0.303,1.154c0.363,0.272,0.714,0.318,1.041,0.228
				c-0.099,0.122-0.206,0.241-0.303,0.365c-1.692,2.139-3.259,4.254-5.074,6.306c-0.49,0.554-0.911,1.098-1.287,1.649
				C5.972,88.354,6.102,87.184,6.276,86.025z M23.005,114.581c-0.332,0.096-0.64,0.24-0.935,0.404
				c-0.933-0.11-1.866-0.214-2.803-0.344c-3.739-0.521-6.198-2.674-8.349-5.648c0.585-1.567,1.365-3.118,1.968-4.612
				c1.05-2.6,2.314-5.044,3.76-7.443c2.413-4.003,4.968-8.004,6.134-12.582c0.116-0.455-0.56-0.638-0.701-0.193
				c-1.628,5.168-4.672,9.399-7.375,14.025c-1.178,2.017-2.135,4.141-2.998,6.309c-0.454,1.139-1.041,2.306-1.481,3.503
				c-0.748-1.114-1.388-2.206-1.93-3.296c1.806-3.874,4.266-7.434,6.455-11.09c1.374-2.294,3.106-4.358,4.447-6.67
				c0.679-1.172,1.177-2.504,2.127-3.498c0.679-0.71,1.369-1.166,1.909-2.008c0.245-0.383-0.36-0.731-0.607-0.355
				c-0.658,1-1.645,1.559-2.375,2.486c-0.787,0.999-1.266,2.224-1.931,3.301c-1.348,2.182-2.956,4.179-4.344,6.333
				c-0.011-0.083-0.035-0.166-0.084-0.248c-0.006-0.038-0.012-0.078-0.023-0.139c0.071,0.12,0.102,0.077,0.094-0.126
				c0.058-0.203,0.147-0.366,0.225-0.56c0.184-0.46,0.323-0.95,0.571-1.382c0.611-1.064,1.463-1.791,0.953-3.066
				c-0.122-0.306-0.546-0.263-0.575,0.078c-0.071,0.828-1.096,1.642-1.642,2.183c-0.472,0.468-0.955,0.957-1.256,1.558
				c-0.303,0.607-0.515,1.282-0.154,1.918c0.322,0.567,0.964,0.7,1.501,0.399c-0.099,0.162-0.209,0.315-0.304,0.479
				c-1.591,2.73-4.198,5.794-5.621,9.019c-0.577-1.372-1.01-2.759-1.315-4.203c0.495-0.767,1.006-1.515,1.464-2.25
				c1.341-2.154,2.812-4.299,4.262-6.38c1.56-2.239,3.332-4.302,4.868-6.569c1.725-2.546,3.503-5.035,5.612-7.28
				c-0.232,1.099-0.487,2.56-1.209,2.979c-0.164,0.095-0.056,0.381,0.132,0.314c0.559-0.198,0.748-0.465,1.014-1.008
				c0.796-1.621,1.091-3.471,1.929-5.118c0.926-1.818,1.97-3.561,2.829-5.415c0.734-1.586,0.984-3.538,2.006-4.936
				c0.286-0.39-0.365-0.763-0.648-0.379c-0.743,1.011-0.883,2.004-1.276,3.173c-0.666,1.983-1.775,3.89-2.786,5.71
				c-0.683,1.23-1.289,2.466-1.765,3.79c-0.033,0.091-0.063,0.205-0.093,0.319c-0.114-0.147-0.328-0.215-0.497-0.043
				c-2.046,2.089-3.787,4.375-5.452,6.772c-1.861,2.682-4.113,5.146-5.856,7.893c-1.537,2.423-3.227,4.74-4.77,7.169
				c-0.28-1.773-0.388-3.648-0.36-5.701c0.005-0.369,0.027-0.733,0.042-1.099c0.845-1.405,2.047-2.607,3.146-3.814
				c1.696-1.861,2.92-4.103,4.61-5.93c3.684-3.984,7.487-7.794,11.573-11.357c0.267-0.233-0.119-0.609-0.387-0.387
				c-3.557,2.954-7.282,6.134-10.452,9.627c0.392-0.994,1.182-1.951,0.959-3.158c-0.049-0.265-0.239-0.445-0.47-0.538
				c0.049-0.051,0.098-0.101,0.147-0.151c1.615-1.668,3.018-3.514,4.632-5.181c1.476-1.524,2.976-2.987,4.258-4.682
				c0.343-0.454-0.423-0.892-0.762-0.446c-1.495,1.965-3.336,3.57-4.991,5.387c-1.587,1.743-3.071,3.544-4.732,5.224
				c-1.473,1.491-2.905,2.958-4.108,4.68c-1.07,1.531-1.85,3.209-2.796,4.809c0.359-2.151,0.833-4.271,1.37-6.377
				c5.332-7.739,12.815-14.153,19.384-20.755c0.316-0.318-0.173-0.807-0.492-0.492c-4.037,3.998-8.174,7.895-12.146,11.958
				c-1.69,1.728-3.294,3.509-4.776,5.42c-0.426,0.55-0.914,1.108-1.396,1.683c0.711-2.621,1.476-5.233,2.177-7.873
				c0.385-0.424,0.774-0.844,1.18-1.253c2.079-2.093,4.188-4.156,6.272-6.244c4.143-4.152,8.332-8.261,12.634-12.248
				c0.266-0.247-0.131-0.641-0.398-0.398c-4.801,4.38-9.49,8.869-14.09,13.46c-1.738,1.735-3.537,3.428-5.22,5.221
				c0.388-1.532,0.744-3.076,1.05-4.638c0.86-0.935,1.602-1.977,2.425-2.964c1.755-2.104,3.552-4.22,5.385-6.256
				c3.334-3.703,6.841-7.392,10.361-10.912c0.274-0.274-0.145-0.693-0.425-0.425c-3.488,3.331-6.904,6.902-10.18,10.447
				c-1.672,1.809-3.278,3.695-4.869,5.576c-0.873,1.031-1.646,2.139-2.452,3.22c0.014-0.079,0.031-0.158,0.044-0.237
				c0.337-1.98,0.509-3.975,0.59-5.977c0.802-1.171,1.594-2.359,2.476-3.461c1.857-2.323,3.871-4.526,5.754-6.83
				c3.402-4.163,7.818-7.764,10.64-12.354c0.231-0.376-0.33-0.679-0.58-0.339c-3.455,4.695-7.927,8.519-11.617,13.031
				c-1.786,2.183-3.75,4.231-5.468,6.468c-0.411,0.536-0.791,1.066-1.156,1.597c0.025-1.996-0.024-3.995-0.098-5.988
				c-0.001-0.015-0.001-0.03-0.002-0.046c0.637-0.66,1.291-1.306,1.784-2.012c1.558-2.228,3.387-4.347,5.15-6.419
				c1.656-1.948,3.531-3.718,5.323-5.538c1.751-1.779,4.037-3.495,5.15-5.762c0.181-0.368-0.368-0.693-0.553-0.323
				c-1.302,2.602-4.362,4.756-6.427,6.793c-2.093,2.064-4.063,4.136-5.94,6.398c-1.539,1.854-2.956,3.888-4.536,5.692
				c-0.073-1.784-0.151-3.545-0.22-5.295c0.982-1.508,2.307-2.853,3.455-4.175c1.653-1.903,3.216-3.891,4.895-5.769
				c1.64-1.835,3.408-3.563,5.138-5.313c1.1-1.112,2.159-2.101,2.75-3.576c0.169-0.421-0.509-0.6-0.678-0.187
				c-0.91,2.229-3.512,4.118-5.169,5.772c-1.857,1.853-3.554,3.795-5.252,5.791c-1.395,1.64-3.743,3.608-5.197,5.766
				c-0.035-1.081-0.062-2.165-0.073-3.253c0.695-0.82,1.318-1.717,1.973-2.547c1.497-1.896,2.922-3.852,4.465-5.711
				c2.824-3.403,6.241-6.323,9.306-9.51c0.272-0.283-0.155-0.711-0.431-0.431c-1.454,1.478-2.749,3.069-4.337,4.41
				c-1.726,1.458-3.337,2.952-4.823,4.661c-2.156,2.479-4.143,5.107-6.148,7.715c0.002-0.63-0.008-1.254,0.007-1.891
				c0.029-1.269,0.149-2.405,0.344-3.454c0.479-1.193,1.809-2.109,2.736-2.91c1.277-1.102,2.492-2.276,3.749-3.403
				c1.438-1.288,2.749-2.691,4.239-3.921c1.475-1.218,2.834-2.982,4.526-3.861c0.176-0.092,0.022-0.343-0.154-0.263
				c-1.856,0.845-3.437,2.704-5.008,3.953c-1.756,1.397-3.356,2.991-5.042,4.474c-1.125,0.99-3.283,2.421-4.565,4.002
				c1.329-4.117,4.239-6.617,8.643-9.544c3.505-2.329,6.412-3.824,10.46-4.161c-0.032,0.037-0.052,0.075-0.088,0.111
				c-0.31,0.309-0.618,0.556-0.855,0.936c-0.458,0.734-0.968,1.86-0.996,2.879c-0.123,0.135-0.212,0.301-0.223,0.482
				c-0.111,1.824,1.73,3.315,3.473,3.672c1.866,0.382,2.229-0.795,2.883-2.261c0.689-1.545,1.567-2.993,2.63-4.3
				c5.974,1.763,12.527,6.058,12.751,12.765c0.155,4.639,0.434,9.109,0.758,13.745c0.312,4.461,1.534,7.849,3.609,11.849
				c1.543,2.974,3.703,5.307,4.817,8.536c0.877,2.544,0.855,5.021,1.22,7.581c-1.797,0.044-3.589,0.136-5.366,0.485
				c-4.03,0.79-8.45,1.899-12.262,3.446c-3.604,1.463-6.801,4.255-9.84,6.623c-5.409,4.214-10.696,9.412-12.015,16.188
				c-0.872,2.214-1.356,4.538-1.34,7.155c-0.52,1.216-1.034,2.433-1.572,3.641c-0.465,1.045-0.751,2.198-1.34,3.174
				c-0.251,0.417,0.291,0.744,0.626,0.483c0.897-0.7,1.069-2.203,1.491-3.203c0.298-0.705,0.601-1.408,0.895-2.115
				c0.057,0.577,0.132,1.165,0.237,1.774c0.487,2.81,1.716,5.221,3.378,7.324C24.465,114.291,23.709,114.378,23.005,114.581z
				 M99.481,87.63c-2.271,4.488-4.752,8.775-7.552,12.787c0.718-1.922,1.461-3.84,2.176-5.76c0.674-1.812,1.632-3.492,1.992-5.402
				c0.397-2.111,1.622-4.337,1.466-6.495c-0.012-0.169-0.259-0.172-0.266,0c-0.084,2.045-1.369,4.358-1.825,6.41
				c-0.497,2.237-1.726,4.286-2.478,6.451c-0.843,2.425-2.055,4.902-2.979,7.422c-1.295,1.705-2.66,3.351-4.101,4.934
				c0.479-1.24,0.869-2.484,1.243-3.498c1.697-4.59,2.989-9.364,4.248-14.089c0.163-0.613-0.782-0.873-0.949-0.262
				c-1.136,4.147-2.353,8.282-3.757,12.347c-0.869,2.518-1.746,5.384-3.041,7.865c-2.303,2.291-4.792,4.43-7.51,6.384
				c-0.148-0.067-0.327-0.074-0.513,0.028c-1.266,0.693-2.65,1.221-4.099,1.637c2.061-1.976,3.624-4.389,5.114-6.818
				c1.802-2.94,2.772-6.227,4.51-9.179c0.174-0.296-0.276-0.555-0.459-0.268c-1.672,2.624-2.642,5.607-4.236,8.283
				c-1.67,2.803-3.504,5.632-5.572,8.16c-4.676,1.22-9.982,1.324-14.474,1.695c-3.543,0.293-6.944-0.021-10.466-0.307
				c-3.236-0.263-6.992-0.132-9.989-1.604c-4.918-2.414-9.489-6.791-11.012-12.105c0.76,1.113,1.792,2.064,3.168,2.787
				c9.838,5.172,20.571,5.05,30.888,1.447c4.902-1.712,9.353-4.461,13.968-6.84c4.452-2.294,8.267-5.132,11.221-9.178
				c1.71-2.342,2.723-5.013,4.345-7.358c2.091-3.024,5.677-3.868,8.594-5.79c3.01-1.984,6.41-5.496,5.721-9.312
				c-0.146-0.809-1.393-0.936-1.756-0.229c-2.161,4.201-5.548,6.37-9.599,8.441c-2.986,1.527-5.076,3.248-6.648,6.225
				c-3.95,7.485-8.637,13.475-16.188,17.686c-7.383,4.117-17.159,6.894-25.653,6.209c-4.255-0.343-8.05-1.757-12.013-3.225
				c-2.918-1.081-4.455-2.703-5.201-5.756c-0.443-1.813-1.126-5.405,0.445-6.781c0.346-0.303-0.021-0.843-0.428-0.745
				c0.038-0.106,0.071-0.211,0.109-0.317c3.485-6.194,8.617-10.508,15.101-14.656c7.098-4.542,16.281-5.556,24.52-5.658
				c6.967-0.086,11.059-1.664,16.55-5.802c3.566-2.688,8.6-4.491,13.058-4.32c1.597,0.061,2.996,0.417,4.452,0.563
				c1.379,2.359,4.277,1.818,5.862,4.285C108.56,72.739,101.627,83.39,99.481,87.63z M116.39,50.862
				c-1.21,1.795-2.196,3.686-3.598,5.359c-1.803,2.151-3.829,4.056-6.352,5.31c-0.725,0.361-1.335,0.658-1.882,1.005
				c-0.231-0.133-0.466-0.256-0.702-0.37c0.013-0.008,0.036-0.017,0.047-0.025c1.682-1.13,3.065-2.713,4.324-4.275
				c2.924-3.629,5.273-7.677,8.085-11.389c1.278-1.687,2.672-1.494,2.594,0.766C118.86,48.589,117.135,49.757,116.39,50.862z"/>
			<path d="M57.573,87.988c-0.147-1.087-0.992-1.68-2.032-1.794c-1.088-0.119-2.198,0.042-3.291,0.027
				c-1.032-0.015-2.012-0.276-3.036-0.38c-1.086-0.11-1.668,1.244-1.194,2.081c1.463,2.586,5.482,2.707,8.071,2.335
				C57.105,90.112,57.695,88.893,57.573,87.988z"/>
			<path d="M59.295,91.325c-1.121,0.712-2.122,2.219-2.876,3.311c-0.869,1.257-1.537,2.565-1.523,4.124
				c0.011,1.339,1.667,2.014,2.621,1.085c0.98-0.953,1.806-1.926,2.691-2.969c0.934-1.101,2.198-2.257,2.121-3.811
				C62.257,91.606,60.649,90.465,59.295,91.325z"/>
			<path d="M14.232,82.852c-0.773,1.563-4.229,3.35-2.608,5.215c0.225,0.259,0.632,0.099,0.725-0.191
				c0.014-0.032,0.02-0.051,0.026-0.071c0.039-0.03,0.078-0.06,0.116-0.091c0.143-0.176,0.235-0.379,0.366-0.563
				c0.305-0.431,0.702-0.795,1.07-1.171c0.721-0.738,1.5-1.48,1.784-2.505C15.948,82.615,14.648,82.012,14.232,82.852z"/>
			<path d="M23.152,92.822c0.094-0.242-0.307-0.412-0.421-0.178c-1.667,3.427-3.526,6.767-5.336,10.121
				c-1.275,2.362-3.588,5.249-3.742,7.995c-0.019,0.335,0.438,0.344,0.545,0.074c1.247-3.17,3.198-6.247,4.796-9.259
				C20.519,98.7,21.971,95.855,23.152,92.822z"/>
			<path d="M25.052,80.382c1.086-0.996,1.681-2.438,2.214-3.789c0.664-1.683,1.717-3.456,2.09-5.216
				c0.118-0.555-0.738-0.791-0.851-0.235c-0.292,1.441-1.233,2.941-1.723,4.348c-0.554,1.589-1.15,3.223-2,4.682
				C24.682,80.346,24.909,80.512,25.052,80.382z"/>
			<path d="M86.099,94.929c-2.35,2.207-2.49,6.495-3.875,9.296c-0.915,1.852-2.128,3.535-3.07,5.373
				c-0.828,1.615-1.816,4.337-3.352,5.443c-0.234,0.169-0.095,0.519,0.196,0.464c1.22-0.23,1.591-1.203,2.219-2.177
				c1.281-1.99,2.275-4.131,3.495-6.162c0.99-1.649,1.854-3.313,2.453-5.143c0.651-1.988,1.034-4.948,2.597-6.431
				C87.201,95.175,86.538,94.516,86.099,94.929z"/>
			<path d="M73.654,107.484c-0.927,1.117-1.465,2.493-2.297,3.682c-1.092,1.56-2.231,3.093-3.548,4.472
				c-0.154,0.161,0.079,0.39,0.243,0.243c1.308-1.173,2.391-2.51,3.47-3.892c0.398-0.51,0.867-0.993,1.226-1.529
				c0.531-0.793,0.84-1.679,1.459-2.424C74.525,107.652,73.975,107.097,73.654,107.484z"/>
			<path d="M66.59,114.061c-0.464,0.917-0.942,1.832-1.434,2.734c-0.278,0.509-0.772,0.878-0.85,1.465
				c-0.016,0.121,0.185,0.174,0.233,0.063c0.148-0.339,0.413-0.447,0.668-0.667c0.247-0.214,0.427-0.55,0.597-0.819
				c0.496-0.789,0.903-1.634,1.468-2.378C67.574,114.06,66.824,113.598,66.59,114.061z"/>
			<path d="M31.503,59.524c2.579-0.801,3.254-4.395,5.165-6.026c0.33-0.281-0.147-0.753-0.475-0.475
				c-2.029,1.717-2.698,4.419-4.9,6.001C31.056,59.194,31.186,59.622,31.503,59.524z"/>
			<path d="M35.086,60.559c-0.872,1.406-1.736,2.769-2.893,3.964c-0.254,0.262,0.094,0.768,0.407,0.528
				c1.399-1.074,2.259-2.612,3.174-4.089C36.045,60.524,35.356,60.124,35.086,60.559z"/>
		</g>
	</g>
</g>
<g>
</g>
<g>
</g>
<g>
</g>
<g>
</g>
<g>
</g>
<g>
</g>
<g>
</g>
<g>
</g>
<g>
</g>
<g>
</g>
<g>
</g>
<g>
</g>
<g>
</g>
<g>
</g>
<g>
</g>
</svg>
