<?xml version="1.0" encoding="iso-8859-1"?>
<!-- Generator: Adobe Illustrator 19.0.0, SVG Export Plug-In . SVG Version: 6.00 Build 0)  -->
<svg version="1.1" id="Layer_1" xmlns="http://www.w3.org/2000/svg" xmlns:xlink="http://www.w3.org/1999/xlink" x="0px" y="0px"
	 viewBox="0 0 122.468 122.468" style="enable-background:new 0 0 122.468 122.468;" xml:space="preserve">
<g>
	<g>
		<g>
			<path d="M117.009,52.205c-1.814-0.729-3.59-0.748-5.318-0.34c-0.102-0.6-0.477-1.155-1.208-1.404
				c-3.578-1.219-5.86-3.443-9.814-3.99c-4.907-0.678-9.811-1.702-14.767-2.161c-5.157-0.478-10.149-0.515-15.315-0.04
				c-5.092,0.468-9.916-0.431-14.982-0.355c-9.093,0.137-20.672,0.993-28.852-3.793c-8.017-4.691-13.218-13.387-19.056-20.355
				c-0.205-0.245-0.657-0.365-0.956-0.253c-6.8,2.543-0.868,14.854-0.969,19.402c-0.191,8.65,4.755,17.041,12.71,20.782
				c9.074,4.267,19.055,8.425,29.022,9.681c6.394,0.805,12.477,1.256,18.941,0.669c1.647-0.149,3.677-0.383,5.732-0.771
				c-4.222,1.996-8.449,4.02-12.89,5.514c-8.131,2.735-16.859,2.648-25.199,4.49c-4.62,1.02-9.271,2.356-13.902,3.262
				c-5.796,1.133-11.096-0.131-15.475-3.88c0.54-0.242,0.275-1.075-0.343-0.959c-0.194,0.036-0.382,0.087-0.566,0.143
				c-0.313-0.259-0.684-0.028-0.738,0.292c-2.586,1.249-3.884,4.488-2.505,6.997c0.873,1.589,2.422,2.812,3.275,4.547
				c1.063,2.162,2.001,4.345,2.935,6.564c1.283,3.049,2.726,5.454,5.252,7.662c4.969,4.342,13,6.212,19.329,7.409
				c7.679,1.453,14.265,0.303,21.903-0.931c14.94-2.414,26.797-10.774,39.896-17.59c5.33-2.773,11.448-5.767,16.189-9.45
				c5.505-4.277,8.199-9.737,11.274-15.762C123.424,62.072,123.637,54.869,117.009,52.205z M57.639,67.192
				c-1.449-0.014-2.934-0.101-4.43-0.227c-0.292-0.512-0.634-0.752-1.07-1.149c-0.871-0.795-1.317-1.726-1.999-2.653
				c-0.403-0.55-0.756-1.065-1.041-1.61c0.124-0.218,0.121-0.469,0.01-0.706c-0.095-0.201-0.243-0.276-0.38-0.435
				c0.195,0.227-0.099-0.373-0.112-0.402c-0.037-0.079-0.083-0.154-0.124-0.23c-0.011-0.06-0.032-0.11-0.041-0.171
				c-0.134-0.867-0.11-1.369-0.639-2.088c-0.269-0.366-0.887-0.022-0.621,0.363c0.04,0.057,0.067,0.121,0.1,0.181
				c-0.252-0.23-0.531-0.435-0.84-0.632c-0.982-0.625-1.815,0.882-0.899,1.538c0.662,0.474,0.841,0.943,1.221,1.675
				c0.195,0.376,0.338,0.766,0.672,1.049c0.234,0.198,0.527,0.307,0.815,0.31c0.209,0.453,0.443,0.889,0.717,1.321
				c0.558,0.88,0.958,2.051,1.709,2.786c0.292,0.285,0.659,0.515,1.039,0.727c-1.874-0.203-3.76-0.495-5.626-0.879
				c-0.011-0.006-0.013-0.016-0.025-0.02c-1.285-0.524-2.324-3.107-2.766-4.305c-0.516-1.401-0.883-2.824-1.822-3.996
				c-0.1-0.304-0.164-0.613-0.153-0.935c0.031-0.941-1.395-1.126-1.634-0.221c-0.208,0.786-0.102,1.574,0.178,2.33
				c0.277,0.745,0.593,1.548,0.951,2.256c0.134,0.265,0.476,0.457,0.77,0.442c0.227-0.012,0.409-0.056,0.598-0.135
				c0.301,0.893,0.601,1.789,1.034,2.633c0.246,0.479,0.52,1.024,0.861,1.485c-1.341-0.328-2.669-0.692-3.963-1.121
				c-0.477-0.831-1.031-2.089-1.113-2.297c-0.287-0.733-0.593-1.454-0.856-2.192c0.083-0.661-0.176-1.276-0.375-1.981
				c-0.308-1.089-0.766-2.056-0.884-3.199c-0.02-0.195-0.143-0.315-0.287-0.361c-0.197-0.462-0.436-0.915-0.741-1.356
				c-0.311-0.452-1.055-0.026-0.742,0.434c0.503,0.739,0.81,1.525,1.035,2.34c0.081,0.66,0.217,1.302,0.286,1.986
				c0.094,0.937,0.117,1.89,0.564,2.741c0.078,0.148,0.234,0.225,0.399,0.252c0.186,0.537,0.381,1.072,0.574,1.618
				c0.175,0.493,0.333,0.973,0.516,1.423c-1.24-0.463-2.458-0.957-3.617-1.521c-0.052-0.025-0.107-0.046-0.159-0.071
				c-0.582-1.464-0.982-3.18-1.212-3.785c-0.449-1.181-0.801-2.391-1.213-3.584c-0.404-1.172-1.256-2.513-1.421-3.721
				c-0.069-0.501-0.829-0.288-0.761,0.21c0.233,1.695,1.218,3.392,1.726,5.045c0.461,1.498,0.983,2.975,1.437,4.475
				c0.081,0.267,0.161,0.545,0.243,0.824c-1.381-0.601-2.825-1.153-4.294-1.691c-0.86-1.674-1.451-3.751-1.746-4.812
				c-0.546-1.961-0.635-4.251-2.196-5.735c-0.383-0.364-0.964,0.215-0.58,0.58c0.974,0.925,1.803,5.91,3.154,9.46
				c-0.224-0.082-0.447-0.166-0.671-0.25c-0.007-0.083-0.059-0.166-0.14-0.193c-2.957-0.979-3.418-5.821-3.633-8.365
				c-0.127-1.505,0.12-3.604-1.174-4.688c-0.341-0.286-0.835,0.204-0.492,0.492c1.262,1.058,0.802,3.419,0.955,4.878
				c0.17,1.621,0.431,3.357,1.003,4.886c0.2,0.536,0.537,1.34,0.992,2.021c-1.207-0.494-2.376-1.035-3.494-1.636
				c-1.131-1.431-1.518-3.219-1.954-5.053c-0.789-3.318-1.677-6.606-2.383-9.944c-0.104-0.489-0.839-0.28-0.746,0.206
				c0.748,3.905,1.575,7.829,2.597,11.673c0.153,0.576,0.354,1.309,0.641,2.011c-0.436-0.291-0.877-0.576-1.282-0.9
				c-0.523-0.418-1.03-0.835-1.528-1.255c0.015,0.003,0.026,0.014,0.042,0.015c0.134,0.007,0.269,0.014,0.403,0.021
				c0.202,0.011,0.211-0.267,0.045-0.33c-0.627-0.239-1.212-5.566-1.339-6.225c-0.513-2.68-0.767-5.388-0.839-8.113
				c-0.012-0.472-0.731-0.474-0.734,0c-0.033,4.913,0.719,9.802,2.24,14.476c0.001,0.002,0.002,0.002,0.003,0.004
				c-2.157-1.836-4.046-3.772-5.401-6.402c-1.933-3.754-1.27-6.933-1.8-10.871c-0.362-2.687-1.565-5.385-2.421-7.953
				c-0.274-0.822-1.256-3.283-0.794-3.955c0.67-0.975,2.132-0.261,2.581,0.115c0.713,0.597,0.948,2.026,1.455,2.806
				c3.535,5.428,7.676,10.213,12.676,14.36c10.666,8.846,26.222,5.052,38.828,6.602c8.075,0.993,16.232-0.816,24.399,0.019
				c4.503,0.46,8.86,1.7,13.345,2.1c3.499,0.313,5.86,2.058,8.763,3.339c-1.927,1.058-3.776,2.45-5.524,3.769
				c-2.755,0.741-5.685,1.071-8.342,2.047c-4.028,1.479-7.624,4.172-11.639,5.633c-0.643,0.234-1.278,0.493-1.915,0.746
				c-0.058-0.351-0.327-0.639-0.762-0.469c-2.072,0.81-5.172,0.837-7.341,1.225C67.528,67.181,62.662,67.242,57.639,67.192z
				 M118.752,63.46c-1.935,5.808-6.049,12.78-10.821,16.622c-2.244,1.807-5.509,3.532-8.05,5.074
				c-2.733,1.659-5.619,3.231-8.403,4.786c-5.377,3.002-10.537,6.187-16.05,8.901c-6.959,3.425-13.874,7.128-21.701,8.28
				c-4.105,0.605-8.396,1.764-12.553,1.904c-3.943,0.132-8.344-0.672-12.132-1.638c-7.154-1.824-15.254-3.958-18.886-10.964
				c-1.076-2.077-1.94-4.295-3.014-6.396c1.119,1.22,2.285,2.402,3.036,3.909c0.939,1.884,1.623,4.189,3.297,5.581
				c1.545,1.285,3.665,0.878,5.526,1.176c0.377,0.06,0.734,0.122,1.09,0.186c0.214,0.637,0.444,1.265,0.697,1.88
				c0.087,0.212,0.452,0.215,0.437-0.059c-0.029-0.54-0.096-1.085-0.183-1.631c1.035,0.219,2.037,0.489,3.116,0.917
				c0.002,0.001,0.005,0.002,0.007,0.003c0.024,0.095,0.05,0.188,0.073,0.284c0.066,0.267,0.454,0.254,0.527,0
				c0.004-0.016,0.004-0.033,0.009-0.049c1.376,0.515,2.718,0.881,4.228,0.75c0.284-0.025,0.398-0.478,0.073-0.537
				c-1.462-0.267-2.826-0.562-4.199-1.091c0.01-1.456-0.667-3.166-0.851-4.484c-0.354-2.53-0.198-5.198-0.882-7.672
				c1.45-0.346,2.884-0.539,4.381-0.745c1.535-0.211,2.913-0.833,4.384-1.194c-1.869,1.218-3.462,2.94-4.225,4.668
				c-0.105-0.895-0.151-1.707-0.736-2.478c-0.395-0.52-1.289-0.015-0.891,0.521c0.651,0.875,0.845,2.71,1.061,4.119
				c-0.248,1.852-0.102,4,0.707,5.56c0.278,0.536,0.624,1.016,1.023,1.449c0.537,1.55,1.357,2.933,3.072,3.406
				c0.348,0.096,0.508-0.365,0.235-0.557c-0.6-0.423-1.06-0.921-1.428-1.468c1.09,0.455,2.448,0.648,3.235,1.297
				c0.254,0.209,0.576,0.379,0.911,0.416c0.467,0.426,1.047,0.612,1.764,0.251c0.197-0.099,0.164-0.455-0.064-0.493
				c-0.07-0.012-0.129-0.051-0.195-0.071c0.607-0.104,1.216-0.142,1.818-0.212c0.494,1.536,1.146,3.001,2.66,3.792
				c0.232,0.122,0.581-0.146,0.396-0.395c-0.833-1.119-1.426-2.345-1.931-3.615c0.284-0.082,0.565-0.181,0.84-0.331
				c0.854-0.465,1.371-1.116,1.795-1.878c0.378,0.598,1.014,1.087,1.762,1.48c0.758,1.258,1.861,2.775,3.349,2.223
				c0.268-0.099,0.205-0.44-0.064-0.476c-0.581-0.078-1.093-0.493-1.546-1.044c1.227,0.384,2.475,0.586,3.296,0.643
				c0.428,0.029,0.841,0.014,1.241-0.034c0.792,0.85,1.733,1.471,2.626,1.004c0.13-0.068,0.244-0.246,0.228-0.397
				c-0.016-0.143-0.032-0.287-0.048-0.43c-0.033-0.299-0.373-0.396-0.553-0.15c-0.151,0.207-0.487,0.021-0.884-0.343
				c1.496-0.532,2.714-1.611,3.584-2.966c0.489,0.923,0.813,2.144,1.948,2.351c0.35,0.064,0.748-0.402,0.395-0.679
				c-0.751-0.59-1.244-1.944-1.684-2.894c0.186-0.418,0.344-0.852,0.469-1.296c0.015-0.021,0.033-0.037,0.048-0.059
				c1.046,0.688,2.079,1.723,3.244,2.044c1.904,0.526,4.543,0.617,6.443-0.115c1.964-0.757,3.402-2.182,4.361-3.885
				c0.497,0.371,1.067,0.658,1.741,0.819c0.316,0.075,0.59-0.328,0.331-0.568c-0.511-0.472-1.027-0.916-1.511-1.391
				c0.151-0.364,0.287-0.734,0.399-1.112c1.583,0.799,2.847,1.184,4.482,0.905c0.346,0.5,0.735,0.992,1.218,1.509
				c0.141,0.151,0.421,0.037,0.413-0.171c-0.025-0.662-0.303-1.022-0.658-1.571c0.476-0.144,0.975-0.321,1.536-0.572
				c3.378-1.512,4.712-3.811,6.605-6.465c0.919,0.625,1.815,0.912,2.691,0.932c0.078,0.14,0.156,0.28,0.235,0.43
				c0.115,0.218,0.376,0.291,0.602,0.245c0.592-0.121,0.681-0.314,0.953-0.879c0.022-0.045,0.018-0.086,0.016-0.126
				c0.905-0.354,1.79-0.976,2.659-1.787c0.201,0.039,0.42,0.055,0.682,0.019c0.248-0.034,0.196-0.387,0-0.452
				c-0.057-0.019-0.107-0.05-0.159-0.079c0.016-0.016,0.032-0.032,0.048-0.048c0.054,0.019,0.109,0.007,0.15-0.031
				c1.265,0.14,2.544,0.39,3.885-0.192c2.5-1.086,3.196-3.021,4.663-4.932c1.71-2.227,5.112-2.693,7.056-4.845
				c0.843-0.934,1.428-1.948,1.771-3.036c0.017-0.005,0.032-0.014,0.049-0.019c0.094-0.026,0.07-0.126-0.001-0.162
				c0.302-1.044,0.393-2.154,0.272-3.329c-0.441-4.285-2.618-7.686-6.878-8.316c0.261-0.066,0.515-0.132,0.741-0.208
				c2.103-0.708,3.941-1.974,6.235-0.974c4.109,1.79,3.4,6.638,1.296,9.717c-0.246,0.36,0.271,0.677,0.564,0.436
				c3.913-3.221,2.974-9.781-1.74-11.564c-2.638-0.997-4.978,0.598-7.4,1.476c-0.741,0.269-1.739,0.575-2.465,1.093
				c-4.049,0.502-8.297,3.335-8.77,7.433c-1.975-1.131-3.855-1.359-6.333-0.116c-2.893,1.451-5.917,3.17-7.052,6.135
				c-2.612-1.034-5.136-1.142-7.638,0.778c-1.288,0.988-3.21,3.114-3.038,4.967c-2.909-1.606-5.262-1.221-8.843-0.065
				c-2.456,0.793-3.305,1.738-3.98,3.329c-4.322-3.025-10.946-1.249-13.94,3.161c-0.949-0.519-1.933-0.812-2.989-0.884
				c-1.6-0.386-3.457,0.063-5.182,0.975c-0.035-0.179-0.179-0.352-0.384-0.371c-1.245-0.116-2.238,0.299-3.438,0.588
				c-1.602,0.386-3.27,0.352-4.881,0.679c-1.552,0.315-3.79,1.588-5.502,1.234c-0.101-0.569-0.203-1.138-0.291-1.709
				c-0.069-0.444-0.833-0.345-0.79,0.107c0.038,0.403,0.081,0.812,0.122,1.22c-0.049,0.014-0.099,0.029-0.148,0.044
				c-0.206,0.061-0.375,0.35-0.223,0.548c0.145,0.189,0.308,0.341,0.483,0.466c0.369,3.354,0.898,6.792,1.839,10.032
				c-0.731-0.184-1.465-0.386-2.198-0.454c-0.082-0.008-0.161-0.01-0.241-0.016c-0.393-1.074-0.394-3.434-0.462-3.878
				c-0.236-1.535-0.685-3.016-1.04-4.525c-0.071-0.302-0.514-0.171-0.46,0.127c0.504,2.74,0.866,5.521,1.424,8.251
				c-1.05-0.029-1.948-0.017-2.811-0.953c-1.459-1.582-1.982-3.861-3.089-5.667c-1.327-2.166-3.513-3.663-5.071-5.662
				c-0.034-0.088-0.098-0.169-0.23-0.289c-0.198-0.179-0.441-0.129-0.584,0.021c-0.031-0.04-0.058-0.082-0.089-0.122
				c-0.42-0.523-0.981-0.949-1.397-1.458c-1.408-1.724-2.256-4.434,0.224-5.776c2.161,2.614,4.262,5.22,7.73,6.08
				c4.984,1.237,9.99-0.336,14.741-1.583c5.212-1.368,11.047-2.617,16.427-3.072c4.908-0.415,9.649-0.33,14.491-1.45
				c4.917-1.137,9.422-3.307,14.066-5.196c2.026-0.824,3.846-1.714,5.741-2.829c2.326-1.368,4.825-1.994,7.198-3.122
				c4.708-2.238,8.99-5.449,13.965-7.188c0.263-0.092,0.533-0.175,0.806-0.255c0.123,0.346,0.45,0.602,0.892,0.45
				c1.273-0.438,2.424-0.985,3.539-1.579c1.572-0.467,3.033-1.12,4.127-2.32c0.224-0.123,0.447-0.247,0.677-0.368
				C113.355,53.891,121.375,55.588,118.752,63.46z M20.008,95.948c-0.332-2.03-0.75-4.042-1.13-6.063
				c1.066,0.179,2.303-0.169,3.327-0.457c0.583,2.248,0.384,4.625,0.686,6.924c0.209,1.593,0.605,3.071,1.004,4.586
				c-1.028-0.466-1.967-0.931-3.094-1.167C20.536,98.489,20.214,97.205,20.008,95.948z M39.092,93.314
				c0.362,1.609,1,3.076,1.754,4.491c-0.035,0.195-0.073,0.406-0.114,0.628c-0.045,0.095-0.092,0.184-0.135,0.283
				c-0.123,0.282-0.217,0.69-0.347,1.077c-0.653,0.281-1.292,0.528-1.99,0.698c-0.195-0.569-0.392-1.139-0.604-1.704
				c-0.816-2.168-0.846-4.543-2.344-6.397c-0.357-0.442-0.957,0.182-0.619,0.619c1.115,1.441,1.12,3.234,1.583,4.906
				c0.259,0.935,0.616,1.842,0.953,2.754c-0.08,0.01-0.149,0.031-0.232,0.04c-0.861,0.09-1.347,0.199-1.961,0.451
				c-0.24-0.103-0.489-0.177-0.739-0.246c-0.141-0.419-0.262-0.813-0.376-1.126c-0.688-1.894-1.861-4.074-2.033-6.088
				c-0.042-0.492-0.816-0.497-0.773,0c0.127,1.492,0.711,2.753,1.173,4.161c0.3,0.913,0.539,1.844,0.821,2.762
				c-0.495-0.116-0.991-0.248-1.467-0.489c-2.373-1.2-2.975-3.469-2.754-5.893c0.174-1.902,1.209-3.063,2.576-4.325
				c0.332-0.306,3.061-2.385,4.916-3.165c1.14,0.457,2.133,0.93,3.022,1.643c0.049,0.049,0.09,0.09,0.147,0.147
				c1.179,1.19,1.878,2.129,2.191,3.841c0.256,1.398-0.093,2.697-0.513,3.995c-0.546-1.029-1.014-2.1-1.314-3.289
				C39.779,92.556,38.972,92.781,39.092,93.314z M55.357,89.604c-0.055-0.35-0.654-0.351-0.708,0
				c-0.236,1.53-0.283,3.101-0.444,4.643c-0.043,0.417-0.14,0.841-0.237,1.268c-0.074,0.109-0.142,0.229-0.195,0.368
				c-0.002,0.006-0.004,0.012-0.007,0.018c-0.085-0.165-0.168-0.331-0.253-0.496c-0.349-0.674-1.369-0.078-1.019,0.595
				c0.236,0.453,0.467,0.91,0.699,1.365c-0.884,2.156-1.572,2.91-4.271,3.168c-0.492-0.933-0.832-1.898-1.27-2.869
				c-0.727-1.612-1.107-3.943-2.364-5.246c-0.36-0.373-0.929,0.196-0.569,0.569c0.929,0.962,1.076,2.801,1.579,4.011
				c0.513,1.234,0.893,2.447,1.441,3.615c-0.238,0.011-0.481,0.02-0.745,0.027c-0.825,0.022-2.281,0.057-3.366-0.275
				c-0.01-0.017-0.021-0.036-0.031-0.052c-0.44-0.721-0.888-1.42-1.32-2.121c0.712-1.877,1.141-4.055,0.833-5.79
				c-0.151-0.851-0.455-1.852-0.896-2.694c0.207-0.118,0.387-0.278,0.5-0.48c1.54-2.741,3.115-3.683,5.985-3.656
				c1.691,0.015,4.58-0.27,5.598,1.418c0.119,0.197,0.297,0.355,0.499,0.481c0.749,1.296,1.044,2.948,1.123,4.431
				c0.047,0.887-0.026,2.025-0.245,3.142c-0.176-0.066-0.349-0.109-0.515-0.12c0.076-0.481,0.129-0.975,0.198-1.426
				C55.556,92.202,55.559,90.898,55.357,89.604z M66.151,82.955c1.256-0.569,2.372,2.057,2.555,2.812
				c0.317,1.306,0.137,2.822,0.11,4.147c-0.009,0.431-0.033,0.868-0.058,1.306c-0.063,0.159-0.111,0.329-0.122,0.522
				c-0.004,0.067-0.015,0.134-0.021,0.201c-0.373-0.844-0.699-1.713-1.099-2.54c-0.333-0.689-1.351-0.087-1.025,0.599
				c0.555,1.169,1.044,2.527,1.699,3.746c-0.502,1.284-1.392,2.401-2.533,3.161c-1.66-2.074-4.009-8.249-4.315-8.904
				c-0.213-0.455-0.886-0.059-0.675,0.394c1.36,2.91,1.825,6.06,3.661,8.745c0.076,0.11,0.162,0.225,0.254,0.339
				c-0.628,0.26-1.302,0.425-2.013,0.459c-0.204,0.01-0.384,0.002-0.571-0.001c-0.737-0.837-1.253-1.76-1.937-2.668
				c-0.988-1.311-1.557-2.641-2.557-4.092c0-0.005,0-0.011,0-0.016c0-1.302-0.482-2.532-0.984-3.556
				c0.252-0.122,0.408-0.32,0.537-0.619c0.238-0.556,0.534-2.356,0.837-2.782c1.682-2.361,5.461-2.875,8.151-1.868
				c-0.059,0.035-0.123,0.073-0.182,0.108C65.534,82.648,65.813,83.107,66.151,82.955z M69.586,81.426
				c0.049-0.118,0.069-0.253,0.039-0.396c-0.671-3.19,3.694-4.572,6.894-4.066c-0.42,0.241-0.585,0.745-0.494,1.37
				c0.068,0.465,0.692,0.426,0.907,0.119c0.34-0.486,1.699,1.094,2.681,2.371c-0.182,0.153-0.269,0.398-0.095,0.662
				c1.132,1.72,1.425,3.839,2.211,5.696c-0.755,0.855-1.535,1.654-2.516,2.351c-0.396-1.205-0.582-2.577-0.841-3.548
				c-0.387-1.449-0.892-2.775-2.135-3.681c-0.482-0.351-0.936,0.447-0.465,0.796c1.732,1.285,1.759,4.145,2.281,6.054
				c0.083,0.304,0.168,0.628,0.266,0.951c-0.023,0.013-0.043,0.028-0.066,0.041c-1.471,0.82-2.429,1.295-3.346,1.425
				c-0.031-0.05-0.057-0.103-0.088-0.153c-1.208-1.918-2.914-3.439-4.546-4.984c-0.057-0.054-0.118-0.079-0.179-0.093
				c-0.198-1.29-0.61-2.122-1.288-2.87C69.634,83.253,70.16,82.236,69.586,81.426z M95.042,73.732
				c-0.321-0.826-0.737-1.538-1.227-2.149c0.521-0.472,0.756-1.26,0.09-1.785c-0.198-0.156-0.392-0.304-0.585-0.447
				c1.791-4.922,10.092-8.427,13.223-3.296c3.098,5.076-1.216,8.356-5.384,10.328c-2.548,1.206-2.269,2.652-3.861,4.68
				c-0.348,0.443-0.735,0.776-1.147,1.039C96.636,79.484,95.897,75.929,95.042,73.732z M94.979,82.663
				c-0.169,0.06-0.34,0.114-0.514,0.163c0.137-0.209,0.276-0.418,0.399-0.632C94.898,82.352,94.937,82.508,94.979,82.663z
				 M93.716,74.008c-0.049-0.021-0.087-0.058-0.139-0.074c-0.325-0.104-0.443,0.33-0.214,0.507c0.701,0.541,0.49,1.919,0.612,2.696
				c0.235,1.49,0.598,2.628,0.16,4.144c-0.157,0.543-0.414,1.054-0.684,1.558c-0.329-0.191-0.761-0.2-1.16,0.149
				c-0.178,0.156-0.38,0.331-0.595,0.515c-0.104,0.031-0.206,0.069-0.309,0.104c-0.145-0.944-0.174-1.905-0.232-2.343
				c-0.228-1.705-0.952-3.382-1.105-5.063c-0.063-0.694-1.152-0.704-1.094,0c0.109,1.318,0.681,2.533,0.898,3.844
				c0.219,1.324,0.298,2.672,0.535,3.994c-0.317,0.173-0.626,0.374-0.916,0.632c-0.178,0.159-0.231,0.363-0.211,0.562
				c-0.637,0.34-1.292,0.573-1.921,0.609c-0.137-0.491-0.204-0.996-0.274-1.638c-0.207-1.888-1.098-3.567-1.067-5.502
				c0.01-0.64-0.97-0.637-0.992,0c-0.074,2.096,0.848,3.974,0.964,6.042c0.017,0.301,0.061,0.572,0.115,0.833
				c-0.254-0.135-0.499-0.313-0.725-0.571c-0.422-0.482-1.291-0.456-1.716,0c-0.162,0.173-0.314,0.345-0.467,0.517
				c-0.018-0.407-0.049-0.808-0.106-1.165c-0.301-1.891-1.586-3.602-2.769-5.053c-0.301-0.369-0.677-0.864-1.103-1.317
				c0.725,0.157,1.641-0.336,1.764-1.067c0.448-2.668,5.416-6.938,8.586-6.235c1.271,0.282,1.748,1.229,3.019,1.295
				C93.048,72.571,93.424,73.259,93.716,74.008z M70.209,87.465c1.22,1.27,2.439,2.576,3.392,4.058
				c-0.747-0.148-1.594-0.494-2.756-1.05c-0.204-0.097-0.409-0.141-0.611-0.157C70.26,89.367,70.27,88.41,70.209,87.465z
				 M60.366,97.723c-1.194-0.328-2.128-0.993-3.374-1.845c0.183-0.868,0.272-1.793,0.307-2.621c0.614,1.036,1.293,2.031,2.009,3.035
				C59.661,96.788,60.008,97.262,60.366,97.723z"/>
			<path d="M48.276,32.924c3.236,2.468,7.174,4.939,11.227,4.54c0.504-0.05,0.795-0.481,0.733-0.89
				c3.465,0.704,7.062,1.325,10.571,1.443c0.08,0.003,0.163-0.001,0.243,0.001c0.102,0.108,0.202,0.217,0.319,0.319
				c0.131,0.114,0.392,0.008,0.32-0.186c-0.016-0.043-0.033-0.087-0.049-0.13c8.022,0.143,16.708-1.501,24.296-3.809
				c7.11-2.162,13.605-6.093,16.74-13.03c1.583-3.504,3.316-6.701,5.239-10.018c1.204-2.078,2.115-5.124,1.002-7.431
				c-0.2-0.414-0.67-0.599-1.097-0.629c-2.741-0.192-5.433,2.662-7.578,3.813c-3.687,1.979-6.999,4.022-11.151,5
				c-4.279,1.008-8.276,2.367-12.671,3.085c-4.82,0.787-9.66,1.891-14.439,2.9c-4.461,0.942-8.699,2.642-13.171,3.55
				c-3.914,0.795-8.388,1.7-12.102,3.129C42.236,26.301,43.758,32.952,48.276,32.924z M54.637,25.594
				c3.274-0.96,6.628-1.565,9.905-2.549c6.959-2.091,13.976-3.746,21.121-5.137c5.632-1.096,10.94-2.358,16.385-3.892
				c2.986-0.841,5.093-2.729,7.758-4.127c1.038-0.544,2.398-0.661,3.36-1.293c1.061-0.697,1.865-2.143,3.062-2.591
				c2.132-0.798-3.897,7.687-4.282,8.351c-1.306,2.254-2.141,4.764-3.447,7.024c-4.18,7.232-12.467,9.431-20.033,11.274
				c-3.482,0.848-7.157,1.643-10.855,2.132c-0.04-0.089-0.08-0.177-0.118-0.266c-0.805-1.862-1.94-3.787-2.165-5.82
				c-0.045-0.405-0.671-0.424-0.648,0c0.038,0.693,0.175,1.344,0.366,1.98c-0.159-0.209-0.32-0.405-0.453-0.576
				c-0.491-0.631-1.013-1.168-1.657-1.643c-0.78-0.575-1.759,0.702-1.037,1.344c0.563,0.5,0.929,1.079,1.354,1.689
				c0.431,0.617,0.941,1.367,1.751,1.409c0.344,0.018,0.588-0.251,0.668-0.557c0.079,0.18,0.154,0.361,0.238,0.542
				c0.304,0.659,0.566,1.338,0.875,1.994c-2.067,0.247-4.134,0.388-6.178,0.382c-0.363-0.948-0.739-1.89-1.145-2.813
				c-0.423-0.963-0.681-1.774-0.86-2.796c-0.128-0.731-0.252-1.238-0.774-1.778c-0.41-0.424-1.052,0.221-0.646,0.646
				c0.687,0.72,0.477,1.81,0.723,2.691c0.258,0.927,0.813,1.774,1.154,2.667c0.177,0.463,0.33,0.922,0.488,1.372
				c-0.782-0.022-1.562-0.059-2.333-0.13c-0.241-0.022-0.483-0.042-0.724-0.062c-0.773-0.705-1.442-1.534-2.071-2.354
				c-1.142-1.489-2.397-2.878-3.633-4.289c-0.341-0.389-0.887,0.174-0.563,0.563c1.388,1.674,2.696,3.397,4.037,5.107
				c0.215,0.274,0.443,0.564,0.688,0.845c-3.25-0.258-6.513-0.516-9.621-1.547c-1.763-0.585-3.384-1.284-5.083-1.784
				c-0.201-0.108-0.4-0.219-0.601-0.331c-0.107-0.338-0.362-0.632-0.811-0.758C43.162,28.924,53.156,26.028,54.637,25.594z"/>
			<path d="M104.832,94.08c-0.09,0.017-0.163,0.056-0.227,0.106c-0.114-0.01-0.229-0.02-0.354-0.018
				c-1.037,0.019-2.312,0.299-3.263,0.724c-2.356,1.051-3.709,3.319-4.249,5.746c-0.917,4.116,2.027,11.368,7.246,10.59
				c1.577-0.235,3.211-0.921,4.794-1.26c1.148-0.246,2.26-0.53,3.206-1.248c2.065-1.567,2.086-4.465,2.119-6.84
				C114.17,97.007,109.547,93.211,104.832,94.08z M111.338,102.535c-0.181,1.421-0.455,3.008-1.799,3.725
				c-1.39,0.741-3.481,1.014-5.016,1.38c-4.839,1.155-6.972-4.749-5.013-8.543c0.882-1.707,2.529-2.626,4.24-3.313
				c0.589-0.236,1.119-0.309,1.642-0.334C108.759,96.296,111.806,98.853,111.338,102.535z"/>
			<path d="M89.049,103.354c-1.381-0.779-3.155-1.225-4.281-0.219c-2.253,0.137-6.311,4.125-6.926,5.319
				c-2.126,4.123,0.979,10.739,5.855,10.913c5.421,0.193,9.384-3.996,8.565-9.301C91.919,107.843,91.206,104.572,89.049,103.354z
				 M88.965,113.913c-0.755,1.041-2.277,1.943-3.469,2.266c-1.885,0.51-3.216,0.188-4.441-1.344
				c-1.051-1.315-1.974-2.671-1.619-4.443c0.177-0.883,2.978-4.634,4.937-5.58c0.101,0.115,0.232,0.202,0.4,0.226
				c0.725,0.105,1.604,0.324,2.251,0.637c1.373,0.665,1.806,2.092,2.156,3.547C89.541,110.729,89.943,112.567,88.965,113.913z"/>
			<path d="M78.211,31.267c0.362,0.317,0.656,0.451,1.117,0.569c0.489,0.125,0.932-0.318,0.807-0.807
				c-0.115-0.45-0.256-0.76-0.569-1.117c-0.276-0.315-0.551-0.631-0.827-0.946c-0.886-1.014-2.49,0.588-1.475,1.475
				C77.581,30.715,77.896,30.991,78.211,31.267z"/>
			<path d="M64.565,58.202c-0.288-0.649-1.561-5.765-0.455-6.113c0.411-0.129,0.365-0.839-0.107-0.79
				c-0.138,0.014-0.276,0.028-0.415,0.042c-0.216,0.022-0.352,0.127-0.429,0.327c-1.911,4.94,1.113,10.171,5.153,12.86
				c0.306,0.204,0.74-0.21,0.518-0.518C67.39,62.004,65.59,60.516,64.565,58.202z"/>
			<path d="M78.111,64.093c0.402-0.068,0.372-0.694,0-0.783c-2.279-0.549-4.265-1.45-5.551-3.562
				c-0.906-1.487-1.638-3.68-0.824-5.332c0.01,0.008,0.02,0.016,0.03,0.023c0.33,0.262,0.801-0.177,0.475-0.475
				c-0.125-0.114-0.249-0.228-0.374-0.342c-0.147-0.135-0.352-0.132-0.501,0c-1.786,1.592-0.883,4.753,0.067,6.571
				C72.677,62.575,75.368,64.557,78.111,64.093z"/>
			<path d="M56.709,61.53c-0.406,0.545-1.726-0.432-2.048-0.753c-0.369-0.367-0.566-0.868-0.972-1.205
				c-0.291-0.242-0.65-0.32-0.951-0.527c-1.719-1.183-1.62-3.641-2.979-5.101c-0.321-0.344-0.822,0.166-0.514,0.514
				c1.02,1.15,1.042,3.101,1.81,4.437c0.328,0.57,0.755,0.86,1.268,1.229c0.649,0.466,0.996,1.085,1.566,1.618
				c0.592,0.554,1.627,1.163,2.464,1.148c0.748-0.013,1.255-0.532,0.976-1.279C57.223,61.322,56.888,61.291,56.709,61.53z"/>
			<path d="M82.25,30.349c0.129,0.241,0.452,0.15,0.535-0.07c0.554-1.453,0.596-3.149,1.007-4.668
				c0.253-0.935,0.53-1.864,0.545-2.841c0.02-1.285-0.38-2.7-1.907-2.33c-0.341,0.083-0.193,0.58,0.143,0.52
				c1.786-0.321,0.188,4.134,0.044,4.621C82.194,27.015,81.495,28.935,82.25,30.349z"/>
			<path d="M90.406,29.312c0.775-2.15,1.212-4.097,1.269-6.377c0.028-1.099,0.403-3.387-1.057-3.652
				c-0.541-0.098-0.781,0.709-0.231,0.836c0.963,0.222-0.837,7.991-0.803,9.082C89.6,29.687,90.248,29.752,90.406,29.312z"/>
		</g>
	</g>
</g>
<g>
</g>
<g>
</g>
<g>
</g>
<g>
</g>
<g>
</g>
<g>
</g>
<g>
</g>
<g>
</g>
<g>
</g>
<g>
</g>
<g>
</g>
<g>
</g>
<g>
</g>
<g>
</g>
<g>
</g>
</svg>
