<?xml version="1.0" encoding="iso-8859-1"?>
<!-- Generator: Adobe Illustrator 19.0.0, SVG Export Plug-In . SVG Version: 6.00 Build 0)  -->
<svg version="1.1" id="Layer_1" xmlns="http://www.w3.org/2000/svg" xmlns:xlink="http://www.w3.org/1999/xlink" x="0px" y="0px"
	 viewBox="0 0 113.732 113.732" style="enable-background:new 0 0 113.732 113.732;" xml:space="preserve">
<g>
	<g>
		<g>
			<path d="M111.499,62.001c0.841-1.195,1.516-2.484,1.908-3.903c0.484-1.753,0.671-5.149-1.235-6.268
				c-5.156-3.024-7.235,6.836-8.915,8.843c-3.499,4.181-7.526,1.469-11.58,3.409c-1.544,0.739-3.892,1.864-3.96,3.669
				c-2.87,0.826-5.767,2.58-7.303,3.897c-3.459,2.968-5.335,6.667-8.422,9.875c-3.707,3.853-9.114,6.833-14.165,7.636
				c-4.79,0.762-9.284,3.433-14.02,4.695c-5.241,1.396-10.662,1.539-15.85,3.087c-1.582,0.472-2.224,0.991-3.55,1.632
				c-3.355,1.623-5.583,1.239-9.196,1.031c-2.771-0.159-6.581,0.283-8.904,1.916c-0.428,0.3-0.744,0.958-0.38,1.448
				c4.027,5.414,11.619,6.623,17.667,8.204c4.221,1.104,8.309,0.048,12.608,0.084c5.578,0.047,10.945,0.631,16.544-0.002
				c4.386-0.496,8.704-2.167,13.036-3.046c4.056-0.823,8.358-2.058,12.141-3.773c4.719-2.139,9.672-4.12,14.311-6.362
				c2.411-1.165,5.679-3.09,7.281-5.427c1.082-0.715,2.095-1.552,3.138-2.308c1.916-1.391,4.068-2.708,5.703-4.445
				c1.714-1.822,2.586-3.927,2.663-6.116c3.271-2.333,1.321-7.905-0.419-10.769c-1.031-1.697-1.969-2.502-0.852-4.851
				C110.107,63.403,111.03,62.667,111.499,62.001z M103.412,85.134c1.321-3.379,2.146-7.456,0.36-7.896
				c-0.274-0.068-0.385,0.338-0.116,0.422c1.495,0.465,0.01,5.071-1.413,8.377c-1.201,0.902-2.396,1.816-3.59,2.732
				c0.12-0.452,0.213-0.857,0.287-1.134c0.917-3.395,2.44-6.626,2.548-10.186c0.011-0.353-0.531-0.351-0.547,0
				c-0.142,3.171-1.51,5.789-2.345,8.775c-0.291,1.039-0.543,2.24-0.975,3.33c-1.32,1.007-2.645,2.007-3.992,2.969
				c-0.381,0.272-0.658,0.733-0.585,1.217c-0.493,0.224-0.997,0.432-1.502,0.633c0.688-1.464,1.65-2.751,2.215-4.278
				c0.641-1.733,1.127-3.508,1.837-5.243c0.712-1.74,1.386-3.503,1.418-5.402c0.007-0.386-0.566-0.377-0.594,0
				c-0.245,3.371-2.162,6.355-3.134,9.524c-0.504,1.642-1.589,2.906-2.318,4.448c-0.104,0.219-0.347,0.778-0.61,1.406
				c-1.439,0.531-2.837,0.99-3.989,1.423c-0.181,0.068-0.355,0.151-0.534,0.222c0.414-0.934,0.728-1.917,1.042-2.642
				c0.358-0.828,0.683-1.662,0.991-2.498c0.299-0.024,0.6-0.161,0.862-0.369c0.205-0.163,0.239-0.459,0.175-0.706
				c0.088-0.476-0.007-1.003-0.153-1.49c0.615-1.894,1.17-3.807,1.747-5.74c0.108-0.362-0.454-0.515-0.565-0.156
				c-0.513,1.669-1.015,3.314-1.552,4.948c-0.475-0.91-1.337-1.477-2.408-1.251c-1.05,0.221-0.726,1.595,0.162,1.772
				c0,0,0-0.001,0.001-0.001c-0.003,0.005-0.002,0.009,0.02,0.014c-0.002-0.004-0.003-0.007-0.004-0.01
				c-0.006-0.001-0.011-0.003-0.016-0.004c0.004-0.004,0.011-0.008,0.01-0.013c0.001,0.006,0.005,0.013,0.008,0.02
				c0.022,0.004,0.04,0.016,0.063,0.019c-0.018-0.002-0.025-0.004-0.037-0.006c0.039,0.085,0.072,0.176,0.102,0.265
				c0.06,0.175,0.105,0.354,0.141,0.535c0.004,0.019,0.026,0.16,0.036,0.214c0.005,0.056,0.021,0.205,0.021,0.2
				c0.05,0.476,0.159,1.059,0.51,1.418c0.068,0.069,0.139,0.126,0.212,0.174c-0.158,0.422-0.309,0.843-0.478,1.265
				c-0.408,1.02-0.854,2.036-1.312,3.036c-0.042,0.091-0.43,0.827-0.857,1.539c-1.375,0.595-2.726,1.24-4.068,1.904
				c0.661-1.097,1.131-2.404,1.467-3.356c0.195-0.553,0.369-1.105,0.538-1.657c0.352,0.348,0.789,0.521,1.29,0.354
				c0.425-0.142,0.79-0.619,0.618-1.089c-0.2-0.547-0.858-0.888-1.262-1.348c0.195-0.604,0.401-1.208,0.647-1.812
				c0.569-1.398,1.055-2.717,1.213-4.222c0.011-0.102-0.064-0.197-0.143-0.249c-0.164-0.109-0.329-0.217-0.493-0.326
				c-0.308-0.204-0.59,0.288-0.288,0.492c0.748,0.507-0.297,3.015-1.27,5.135c-0.061-0.583-0.968-0.604-1.162-0.04
				c-0.176,0.512-0.082,1.36,0.215,2.096c-0.14,0.318-0.25,0.584-0.306,0.768c-0.077,0.251-2.783,6.563-3.097,6.157
				c-0.125-0.162-0.455-0.195-0.5,0.065c-0.016,0.096-0.033,0.191-0.049,0.287c-0.431,0.207-0.859,0.419-1.295,0.618
				c-0.965,0.441-1.989,0.853-3.038,1.239c0.965-1.447,1.701-3.229,2.277-4.255c1.034-1.84,1.824-3.786,2.813-5.645
				c0.55-1.034,1.275-1.983,1.418-3.172c0.056-0.465-0.668-0.457-0.727,0c-0.16,1.246-1.295,2.535-1.848,3.652
				c-0.661,1.334-1.264,2.689-2.001,3.985c-1.089,1.913-2.28,4.416-3.907,6.117c-0.891,0.289-1.788,0.556-2.684,0.801
				c0.753-1.044,1.402-2.168,1.957-3.293c1.222-2.475,3.172-4.929,3.663-7.674c0.074-0.412-0.554-0.591-0.633-0.174
				c-0.496,2.614-2.504,5.096-3.704,7.455c-0.779,1.532-1.827,2.808-2.869,4.1c-0.599,0.148-1.195,0.289-1.778,0.415
				c-0.782,0.169-1.558,0.354-2.334,0.541c0.763-1.266,1.446-2.604,2.212-3.685c1.104-1.557,3.221-3.141,3.141-5.239
				c-0.017-0.451-0.72-0.453-0.703,0c0.073,1.909-2.199,3.544-3.214,4.995c-0.878,1.255-1.488,2.821-2.429,4.218
				c-0.4,0.1-1.005,0.201-1.005,0.302c0-0.005,0-0.009,0-0.015c0-0.14-0.398-0.141-0.414,0c-0.003,0.025-0.11,0.049-0.114,0.074
				c-0.915,0.233-1.88,0.463-2.796,0.693c2.731-2.473,4.652-5.748,7.114-8.502c0.32-0.358-0.216-0.888-0.543-0.53
				c-2.811,3.08-5.04,6.709-8.218,9.423c-0.666,0.161-1.335,0.323-2.005,0.471c-4.513,0.995-9.576,1.091-14.172,0.8
				c-4.023-0.255-7.844,0.37-11.849,0.338c-3.342-0.026-6.844-0.975-10.11-1.758c-2.229-0.535-4.136-1.083-6.173-2.119
				c-0.553-0.281-2.101-1.049-3.161-1.685c3.542-1.271,7.571,0.716,11.129,0.48c2.81-0.187,4.767-1.712,7.159-2.699
				c4.37-1.803,9.349-1.426,13.932-2.129c4.912-0.753,9.173-2.676,13.779-4.342c2.153-0.779,4.466-0.768,6.593-1.433
				c1.734-0.542,3.213-1.928,4.631-3c2.999-2.269,6.183-4.266,8.611-7.209c2.531-3.068,4.225-6.503,7.404-9.073
				c1.304-1.054,3.977-2.734,6.578-3.611c5.395-0.436,11.72,0.865,15.612,4.164C108.55,77.487,107.451,81.871,103.412,85.134z
				 M106.949,69.044c0.908,1.712,2.704,3.807,2.997,5.932c-0.103-0.215-0.21-0.429-0.327-0.642
				c-2.061-3.735-6.588-6.482-10.708-7.202c-2.568-0.449-5.257-0.371-7.832-0.011c-0.339,0.047-0.648,0.105-0.936,0.173
				c-0.042,0.003-0.087,0.014-0.129,0.017c1.464-0.987,3.522-1.826,4.663-1.98c2.387-0.323,4.951,0.948,7.322,0.062
				c3.513-1.313,3.786-5.698,5.391-8.607c0.617-1.119,2.242-3.556,3.89-2.018c1.174,1.096-1.923,5.728-2.534,6.5
				c-1.163,1.469-2.706,2.828-2.837,4.826C105.821,67.432,106.403,68.016,106.949,69.044z"/>
			<path d="M16.322,90.398c3.26,1.522,7.095,0.928,10.415-0.077c2.362,1.455,5.099,2.088,8.149,1.508
				c0.122,0.054,0.255,0.099,0.413,0.122c5.31,0.788,11.802,0.704,16.855-1.302c1.584-0.629,2.753-1.418,3.656-2.336
				c0.148,0.177,0.4,0.262,0.687,0.121c7.453-3.674,10.287-11.101,11.659-18.941c1.791-10.232,6.225-20.205,6.32-30.659
				c0.064-6.992-1.812-17.073-8.897-20.571c-2.936-1.45-7.008-2.194-10.272-1.819c-4.431,0.509-9.666,1.883-14.094,1.65
				c-0.049-0.003-0.092,0.014-0.138,0.02c-0.38-1.222-0.676-2.531-0.659-3.958c0.035-2.761,2.281-5.686,1.02-8.401
				c-0.906-1.951-3.517-3.42-5.561-3.667c-3.088-0.372-9.747,2.447-9.79,6.15c-0.027,2.293,2.921,4.722,4.012,6.41
				c1.019,1.577,1.663,3.157,2.086,4.775c-2.098-1.064-5.965-1.45-7.41-1.59c-4.733-0.457-9.525,0.031-13.726,2.23
				C1.042,25.3-0.121,35.78,0.009,46.224C0.16,58.355,3.374,69.655,9.782,79.908C12.073,83.573,11.967,88.365,16.322,90.398z
				 M14.43,80.055c-0.326-0.616-0.692-1.201-1.069-1.777c0.152-0.077,0.267-0.238,0.214-0.429c-0.621-2.271,0.48-5.517,1.096-7.777
				c0.199-0.729,0.45-1.445,0.72-2.157c0.27,1.777,0.684,3.581,1.188,5.365c-0.96,2.554-1.781,5.206-1.698,7.875
				C14.743,80.753,14.598,80.373,14.43,80.055z M16.829,85.961c-0.77-0.78-1.184-2.313-1.609-3.744
				c0.119,0.014,0.237-0.036,0.265-0.194c0.415-2.382,0.991-4.629,1.664-6.856c0.333,1.036,0.693,2.054,1.071,3.053
				c-0.59,1.838-1.545,5.25-0.07,5.458c0.237,0.034,0.457-0.319,0.184-0.435c-0.548-0.234-0.182-2.007,0.348-3.825
				c0.211,0.527,0.425,1.049,0.643,1.558c0.515,1.2,1.113,2.353,1.782,3.437c-0.059,0.123-0.11,0.253-0.171,0.375
				c-0.152,0.305,0.257,0.685,0.503,0.388c0.034-0.041,0.055-0.091,0.088-0.133c0.599,0.903,1.239,1.763,1.942,2.534
				C21.013,87.599,18.37,87.522,16.829,85.961z M30.19,9.748c-0.996-1.615-0.899-1.832-0.083-3.088
				c1.514-1.581,3.27-2.066,5.269-1.453c1.783-0.536,2.819,0.027,3.109,1.688c1.117,2.188-0.257,3.389-0.594,5.689
				c-0.771,5.252,3.04,10.038,0.915,15.002c-1.554-0.412-3.13-1.059-4.498-1.498c1.589-2.167,1.781-4.93,1.397-7.73
				C35.226,14.866,31.945,12.591,30.19,9.748z M11.702,22.703c4.246-2.314,9.634-2.91,14.439-2.08
				c2.245,0.388,4.289,1.103,6.515,1.202c0.17,1.256,0.25,2.543,0.279,3.883c-5.03-1.133-9.485,0.642-12.151,4.717
				c-2.992,2.957-5.85,5.986-8.459,9.357c-1.683,2.175-3.505,4.255-5.076,6.515c-0.745,1.071-1.555,2.241-2.006,3.477
				c-0.301,0.825-0.291,1.775-0.76,2.54c-0.165,0.27,0.197,0.51,0.417,0.322c1.305-1.114,1.589-3.391,2.552-4.843
				c1.704-2.57,3.767-4.893,5.64-7.338c2.026-2.645,4.196-5.159,6.429-7.618c-0.007,0.018-0.016,0.035-0.024,0.053
				c-0.084,0.209,0.229,0.374,0.372,0.217c2.453-2.692,5.713-5.577,9.728-4.981c3.012,0.446,6.221,2.592,9.237,3.317
				c2.102,0.505,3.814,0.462,5.861-0.331c2.044-0.792,6.002-3.75,8.292-2.778c0.457,0.194,0.886-0.296,0.54-0.699
				c-1.563-1.819-3.529-1.669-5.797-1.318c-2.085,0.323-4.18,1.608-6.268,1.654c-0.404,0.009-0.825-0.034-1.251-0.096
				c3.302-2.494,2.552-4.929,1.528-7.815c5.852,2.01,12.203-1.498,18.148,0.109c4.227,1.143,7.127,2.946,9.095,7.11
				c1.944,4.114,2.268,8.926,1.975,13.396c-0.582,8.875-4.318,17.568-6.049,26.272c-0.747,3.756-1.285,6.794-2.924,10.306
				c-1.072,2.297-2.345,4.624-3.753,6.828c0.553-1.696,0.902-3.594,1.383-5.64c1.116-4.754,1.488-10.65,1.752-15.59
				c0.256-4.797-1.728-9.312-1.802-13.903c-0.006-0.379-0.636-0.5-0.691-0.093c-0.352,2.604,0.031,4.903,0.165,7.5
				c0.229,4.446-0.403,8.715-1.124,13.093c-0.433,2.634-0.974,5.467-1.717,8.052c-0.612,2.129-0.999,5.315-2.127,7.065
				c-3.131,4.856-11.153,4.057-16.697,4.234c-0.095-0.051-0.187-0.106-0.305-0.138c-1.453-0.391-2.71-0.031-4.188-0.122
				c-2.523-0.155-4.4-1.191-6.122-2.926c-0.813-0.819-1.546-1.723-2.233-2.667c0.597-1.935,1.191-3.871,1.78-5.808
				c0.116,0.584,0.581,0.99,1.252,0.974c-0.098,0.032-0.085,0.039,0.038,0.021c0.128,0,0.247-0.033,0.358-0.097
				c0.112-0.065,0.216-0.171,0.277-0.286c0.174-0.329,0.036-0.598-0.17-0.839c-0.006-0.015-0.012-0.031-0.018-0.047
				c-0.004-0.035-0.013-0.106,0.002-0.157c0.066-0.23,0.152-0.545,0.272-0.802c0.268-0.571,0.63-1.095,0.975-1.621
				c0.41-0.625-0.56-1.398-1.049-0.809c-0.362,0.436-0.794,0.909-1.161,1.418c0.747-1.923,1.611-3.794,1.969-5.853
				c0.075-0.433-0.559-0.626-0.671-0.185c-1.106,4.39-3.594,8.553-4.601,13.01c-0.189-0.287-0.376-0.576-0.556-0.871
				c0.528-1.46,0.997-2.936,1.286-4.466c0.072-0.381-0.495-0.548-0.588-0.162c-0.309,1.292-0.691,2.603-1.13,3.898
				c-0.117-0.204-0.227-0.411-0.34-0.618c1.069-6.657,2.697-12.901,5.432-19.1c0.1-0.227-0.234-0.427-0.337-0.197
				c-1.398,3.105-2.683,6.269-3.63,9.544c-0.812,2.807-1.855,5.953-1.907,8.951c-0.679-1.319-1.282-2.68-1.83-4.05
				c0.777-2.628,1.412-5.269,2.496-7.801c0.847-1.977,1.702-3.875,1.876-6.045c0.035-0.435-0.627-0.423-0.672,0
				c-0.35,3.292-2.263,6.172-3.243,9.298c-0.335,1.069-0.652,2.143-0.968,3.218c-0.3-0.802-0.589-1.602-0.858-2.394
				c-0.053-0.155-0.096-0.319-0.147-0.476c0.128-0.362,0.247-0.718,0.379-1.084c1.591-4.412,2.686-8.975,4.027-13.465
				c0.136-0.454-0.569-0.646-0.708-0.195c-1.362,4.406-2.577,8.859-4.163,13.191c-0.474-1.737-0.843-3.551-1.118-5.385
				c0.138-0.368,0.283-0.734,0.404-1.107c1.605-4.95,3.691-9.647,5.423-14.549c0.087-0.245-0.292-0.34-0.384-0.106
				c-1.068,2.702-2.335,5.171-3.578,7.775c-0.892,1.869-1.505,3.867-2.143,5.85c-0.21-1.848-0.34-3.687-0.405-5.45
				c-0.005-0.128-0.003-0.258-0.005-0.387c1.872-4.59,4.155-8.959,6.12-13.562c0.172-0.402-0.418-0.753-0.594-0.347
				c-1.167,2.703-2.226,5.706-3.784,8.202c-0.696,1.115-1.258,2.175-1.763,3.264c-0.061-1.009-0.277-1.973-0.922-2.799
				c2.402-4.507,5.139-8.824,7.634-13.279c0.268-0.479-0.464-0.907-0.735-0.43c-2.754,4.852-5.866,9.5-8.439,14.454
				c-1.259,2.423-2.513,4.863-3.652,7.346c-0.84,1.833-2.093,3.844-1.858,5.915c0.037,0.331,0.527,0.457,0.622,0.084
				c1.188-4.681,3.875-9.327,6.166-13.602c0.607,1.66,0.049,3.785-0.16,5.573c-0.016,0.042-0.031,0.078-0.047,0.12
				c-1.84,4.894-5.622,9.832-5.068,15.325c0.032,0.315,0.526,0.445,0.599,0.081c0.508-2.539,0.997-4.965,1.948-7.389
				c0.708-1.804,1.609-3.526,2.417-5.286c-0.033,2.221,0.087,4.548,0.281,6.636c0.002,0.023,0.006,0.047,0.009,0.07
				c-0.822,2.076-1.606,4.064-2.06,6.336c-0.338,1.69-0.847,3.134-0.537,4.689c-0.315-0.461-0.63-0.923-0.936-1.393
				c-5.136-7.892-7.585-18.334-8.275-27.639C2.656,38.647,2.342,27.804,11.702,22.703z"/>
			<path d="M26.073,69.948c0.033,0.88-0.63,1.388-0.957,2.145c-0.247,0.571-0.52,1.451-0.145,1.997c0.125,0.182,0.361,0.179,0.486,0
				c0.25-0.357,0.168-0.512,0.128-0.937c-0.054-0.565,0.029-1.051,0.293-1.553c0.306-0.583,0.56-0.97,0.477-1.652
				C26.333,69.774,26.066,69.763,26.073,69.948z"/>
			<path d="M86.177,88.357c-0.007-0.001-0.017-0.002-0.022-0.003C86.177,88.4,86.213,88.437,86.177,88.357z"/>
			<path d="M91.485,85.465c-0.632-0.233-1.291,0.364-1.291,0.983c0,0.635,0.602,1.111,1.218,0.993
				c0.008,0.008,0.014,0.007,0.023,0.018c0.049,0.063,0.162,0.133,0.218,0.193c0.157,0.168,0.273,0.363,0.403,0.552
				c0.461,0.668,1.47,0.259,1.305-0.55C93.153,86.631,92.454,85.823,91.485,85.465z"/>
			<path d="M5.33,32.564c1.084-0.843,1.866-1.925,3.026-2.712c1.115-0.757,2.102-1.667,3.134-2.53
				c1.298-1.086,2.598-1.993,4.089-2.777c1.789-0.94,3.575-2.308,5.636-2.379c0.283-0.01,0.28-0.419,0-0.438
				c-1.564-0.103-2.542,0.406-3.876,1.133c-1.667,0.91-3.402,1.65-4.943,2.775c-1.714,1.25-3.226,2.732-4.975,3.943
				c-1.189,0.824-1.539,1.63-2.348,2.785C4.956,32.532,5.196,32.668,5.33,32.564z"/>
			<path d="M5.939,36.373c-0.107,0.325,0.346,0.47,0.521,0.22c2.135-3.044,5.314-5.064,8.268-7.165
				c1.263-0.898,2.271-2.06,3.59-2.918c1.422-0.926,2.964-1.667,4.5-2.381c0.244-0.114,0.031-0.46-0.209-0.358
				c-3.73,1.593-6.712,3.816-10.079,5.94C10.235,31.156,6.812,33.721,5.939,36.373z"/>
			<path d="M14.956,32.087c-2.032,1.838-3.975,3.769-5.77,5.84c-1.356,1.564-3.265,3.366-3.732,5.45
				c-0.067,0.3,0.323,0.465,0.493,0.208c2.447-3.721,5.807-7.12,9.065-10.138c1.701-1.576,3.364-3.202,5.08-4.761
				c1.24-1.127,3.063-3.068,4.739-3.315c0.485-0.072,0.374-0.896-0.116-0.859c-1.453,0.107-2.529,1.215-3.614,2.089
				C18.96,28.324,16.994,30.244,14.956,32.087z"/>
			<path d="M8.471,57.768c1.081-1.762,1.811-3.774,2.688-5.631c1.092-2.311,2.244-4.629,3.609-6.792
				c1.265-2.005,2.81-3.813,4.13-5.78c1.485-2.214,2.425-4.738,4.117-6.816c0.342-0.42-0.25-1.025-0.602-0.602
				c-1.409,1.694-2.284,3.654-3.419,5.525c-1.446,2.383-3.346,4.452-4.881,6.776c-2.788,4.221-4.949,9.031-6.886,13.694
				c-0.189,0.455,0.442,0.67,0.738,0.429c0.161-0.131,0.321-0.261,0.481-0.392C8.583,58.069,8.561,57.895,8.471,57.768z"/>
			<path d="M28.8,85.448c-0.03,0.486,0.67,0.533,0.813,0.11c0.592-1.752,1.118-3.456,1.535-5.253c0.5-2.154,1.647-4.075,2.535-6.083
				c0.28-0.633-0.655-1.187-0.938-0.548c-0.399,0.902-0.857,1.792-1.289,2.693c-0.316-0.085-0.713,0.024-0.875,0.406
				c-0.405,0.961-1.681,2.98-0.675,3.921C29.455,82.257,28.898,83.874,28.8,85.448z"/>
			<path d="M58.446,99.681c-1.135,1.271-2.534,2.184-3.874,3.218c-0.943,0.728-1.728,1.98-2.947,2.23
				c-0.387,0.079-0.265,0.625,0.088,0.652c1.267,0.096,2.1-1.219,2.946-1.963c1.426-1.254,3.047-2.163,4.322-3.601
				C59.304,99.853,58.772,99.316,58.446,99.681z"/>
		</g>
	</g>
</g>
<g>
</g>
<g>
</g>
<g>
</g>
<g>
</g>
<g>
</g>
<g>
</g>
<g>
</g>
<g>
</g>
<g>
</g>
<g>
</g>
<g>
</g>
<g>
</g>
<g>
</g>
<g>
</g>
<g>
</g>
</svg>
