<?xml version="1.0" encoding="iso-8859-1"?>
<!-- Generator: Adobe Illustrator 19.0.0, SVG Export Plug-In . SVG Version: 6.00 Build 0)  -->
<svg version="1.1" id="Layer_1" xmlns="http://www.w3.org/2000/svg" xmlns:xlink="http://www.w3.org/1999/xlink" x="0px" y="0px"
	 viewBox="0 0 118.497 118.497" style="enable-background:new 0 0 118.497 118.497;" xml:space="preserve">
<g>
	<g>
		<g>
			<path d="M117.558,102.918c0.141-1.713-0.301-3.591-1.106-4.661c-1.422-1.891-3.438-1.892-3.794-4.829
				c-0.173-1.428,0.048-2.685-0.256-4.151c-0.658-3.174-2.514-4.91-3.652-7.73c-1.091-2.705,0.097-5.647-1.5-8.269
				c-1.011-1.66-2.507-3.032-3.43-4.852c-0.581-1.146-0.97-3.06-1.828-4.133c-1.155-1.444-3.642-1.771-5.194-0.828
				c-0.352-0.469-1.039-0.732-1.6-0.41c-1.052,0.605-1.975,1.252-2.834,2.084c-1.878,1.819-2.395,1.691-5.118,2.036
				c-0.258,0.033-0.494,0.083-0.722,0.141c0.829-3.687,0.151-7.749-0.23-11.473c-0.477-4.659-1.845-9.935-4.759-13.677
				c-2.081-2.672-5.953-5.03-9.213-5.935c-2.415-0.671-4.782-1.032-7.175-1.831c-2.109-0.704-3.724-1.587-5.321-2.685
				c-0.003-0.005-0.004-0.01-0.007-0.015c-3.814-6.438-2.169-12.196,1.568-18.326c1.604-2.631,4.265-4.63,3.307-7.993
				c-0.12-0.423-0.534-0.76-0.983-0.748c-3.772,0.093-6.022,2.799-7.965,5.754c1.18-2.729,2.691-5.562,3.027-6.122
				c0.473-0.788-0.14-1.763-1.024-1.784c-5.444-0.13-8.111,6.768-10.74,11.084c-0.782-3.521,0.523-9.82,1.203-12.105
				c0.201-0.677-0.366-1.512-1.11-1.457c-4.032,0.297-5.849,6.993-6.62,11.925c-0.596-1.344-1.234-2.6-2.718-3.841
				c-1.907-1.595-3.698-3.232-6.274-3.061c-0.211,0.014-0.372,0.15-0.453,0.317c-0.205-0.053-0.406-0.11-0.627-0.149
				c-0.527-0.094-0.705,0.594-0.218,0.791c4.578,1.855,4.252,7.564,4.797,11.496c0.625,4.514,1.575,9.438-2.788,12.284
				c-3.41,2.224-7.459,3.327-11.146,4.987c-3.578,1.611-6.634,3.855-9.789,6.146c-5.166,3.75-8.442,8.764-9.185,15.173
				C1.204,63.631-0.437,71.435,0.5,79.018c0.732,5.923,1.315,12.234,5.223,17.011c4.772,5.832,11.636,9.376,18.681,11.724
				c3.186,1.062,6.448,1.574,9.775,1.932c3.943,0.424,8.189,1.273,12.144,1.139c5.041-0.171,12.413-0.951,15.413-5.499
				c1.233,1.176,2.25,2.526,3.498,3.73c2.339,2.256,5.533,3.694,8.494,4.926c4.297,1.787,8.473,3.103,13.091,3.576
				c1.935,0.198,3.829,1.036,5.778,0.931c2.101-0.114,3.802-1.263,5.763-1.985c7.011-2.58,15.471-5.212,19.685-11.688
				C118.542,104.053,118.178,103.29,117.558,102.918z M96.734,64.83c3.64-1.479,5.194,6.156,6.255,8.605
				c1.232,2.843,1.164,5.683,1.942,8.447c-0.168-0.07-0.329-0.149-0.52-0.193c-0.529-0.123-0.709,0.608-0.22,0.799
				c1.577,0.615,1.455,2.896,0.982,4.12c-0.223,0.577-0.544,1.647-1.061,2.047c-0.154,0.119-0.327,0.17-0.509,0.189
				c-0.099-1.1-0.475-2.193-1.051-3.082c-0.27-0.416-0.566-0.861-0.894-1.287c0.809-0.583,1.471-1.426,1.851-2.368
				c1.025-2.545,0.818-5.614-0.555-7.986c-0.8-1.382-2.095-2.315-3.246-1.831c0.172-2.681-0.565-5.139-3.33-6.832
				c-0.029-0.018-0.056-0.017-0.082-0.016C96.438,65.243,96.583,65.04,96.734,64.83z M98.205,98.184
				c0.251,0.321,0.542,0.597,0.854,0.842c-0.355,0.416-0.77,0.786-1.209,1.099c-1.396,0.992-3.11,1.17-4.347-0.211
				c-0.096-0.108-0.158-0.224-0.236-0.337c0.062-0.162,0.123-0.322,0.196-0.504c0.394-0.988,0.876-1.945,1.327-2.908
				c0.384-0.82,0.786-1.629,1.125-2.458c1.129,0.574,2.526,0.676,3.811,0.388c0.324,0.861,0.465,1.925,0.439,2.379
				c-0.048,0.832-0.381,1.585-0.864,2.24c-0.335-0.192-0.641-0.431-0.901-0.724C98.278,97.856,98.099,98.049,98.205,98.184z
				 M92.579,102.442c0.285-0.313,0.564-0.642,0.838-1.01c1.052,0.802,2.434,1.091,3.76,0.663c0.162-0.052,0.303-0.125,0.456-0.187
				c0.021,0.011,0.043,0.022,0.064,0.033c-0.041,0.45-0.014,0.924-0.042,1.366c-0.053,0.866-0.284,1.255-1.065,1.699
				c-0.971,0.552-3.406,1.977-3.821,0.009C92.834,103.522,92.635,103.002,92.579,102.442z M90.234,102.898
				c-1.199,0.783-2.465,1.456-3.807,1.731c-0.323,0.066-0.609,0.06-0.874,0.017c1.532-3.07,3.125-6.037,5.017-8.954
				c0.435-0.2,0.845-0.455,1.207-0.753c0.834-0.689,1.864-2.079,1.703-3.281c0.151-0.265,0.276-0.546,0.359-0.856
				c0.055,0.349,0.151,0.673,0.27,0.976c-0.286,0.685-0.596,1.353-0.926,2.011c-0.058,0.023-0.114,0.063-0.155,0.138
				c-0.312,0.572-0.601,1.183-0.832,1.81c-0.584,1.157-1.152,2.348-1.603,3.678C90.182,100.627,90.166,101.767,90.234,102.898z
				 M78.106,104.127c-0.514-0.261-0.906-0.646-1.203-1.096c1.124-1.958,2.395-3.833,3.587-5.755
				c0.591,0.633,1.338,1.111,2.183,1.289c0.038,0.172,0.065,0.349,0.08,0.532c-0.099,0.315-0.163,0.648-0.221,0.982
				c-0.774,1.315-1.53,2.669-2.181,4.052C79.681,104.48,78.914,104.537,78.106,104.127z M79.623,105.829
				c-0.071,0.184-0.144,0.368-0.21,0.553c-0.345-0.21-0.688-0.424-1.024-0.653c0.131,0.032,0.261,0.064,0.4,0.085
				C79.075,105.856,79.351,105.852,79.623,105.829z M75.675,103.514c-0.028,0.051-0.055,0.101-0.082,0.152
				c-0.704-0.545-1.406-1.081-2.109-1.588c0.403-0.763,0.809-1.522,1.217-2.279c0.232-0.075,0.466-0.146,0.686-0.24
				C75.019,100.873,75.108,102.33,75.675,103.514z M74.409,98.343c-0.698,0.28-1.466,0.456-2.176,0.517
				c-0.896,0.077-1.881,0.028-2.763-0.24c1.167-2.218,2.463-4.316,3.695-6.488c0.245,0.054,0.486,0.118,0.719,0.2
				c0.309,0.336,0.63,0.629,0.925,0.797c0.191,0.108,0.426,0.173,0.681,0.213c0.228,0.227,0.448,0.479,0.647,0.79
				c0.16,0.25,0.27,0.486,0.358,0.717C75.785,96.001,75.083,97.161,74.409,98.343z M73.386,100.131
				c-0.255,0.446-0.51,0.895-0.763,1.344c-0.028-0.02-0.058-0.043-0.088-0.063c-0.615-0.408-1.232-0.801-1.851-1.189
				c0.191,0.02,0.381,0.045,0.578,0.053C71.935,100.301,72.663,100.254,73.386,100.131z M67.72,93.239
				c0.098-0.145,0.196-0.289,0.295-0.433c1.061-0.021,2.114-0.285,3.012-0.874c0.028-0.018,0.055-0.04,0.082-0.059
				c0.373,0.027,0.739,0.061,1.098,0.103c-0.092,0.145-0.186,0.289-0.277,0.433c-1.199,1.903-2.213,3.906-3.331,5.847
				c-0.309-0.172-0.595-0.379-0.838-0.639c0.03-1.001,0.281-2.281,0.269-2.75C68.016,94.296,67.916,93.749,67.72,93.239z
				 M65.739,94.313c-0.03,0.202-0.024,0.385-0.036,0.577c-0.112,0.178-0.225,0.352-0.337,0.531c-0.22,0.351-0.447,0.699-0.672,1.048
				c-0.997-0.656-1.984-1.337-2.952-2.07c0.073-0.105,0.146-0.209,0.213-0.317c0.509-0.811,0.937-1.655,1.418-2.471
				c0.405,0.055,0.81,0.134,1.194,0.274c0.294,0.188,0.605,0.347,0.93,0.48c0.256,0.185,0.469,0.421,0.655,0.686
				C65.941,93.493,65.796,93.93,65.739,94.313z M66.106,97.379c-0.215-0.136-0.431-0.273-0.645-0.411
				c0.109-0.205,0.207-0.414,0.32-0.617C65.855,96.716,65.959,97.063,66.106,97.379z M55.754,82.346
				c0.004,0.009,0.011,0.016,0.015,0.025c-1.459,1.056-2.904,2.231-4.248,3.499c-0.231-0.314-0.378-0.729-0.365-1.282
				c0.011-0.469-0.658-0.442-0.711,0c-0.014,0.118-0.004,0.225-0.006,0.338c-0.017-0.018-0.036-0.036-0.053-0.054
				c-0.428-0.463-0.815-0.99-1.198-1.525c0.841-0.798,1.692-1.588,2.693-2.229c0.344-0.22,0.676-0.448,1.004-0.682
				c0.235,0.06,0.463,0.134,0.685,0.225c0.339,0.14,0.774-0.034,1.02-0.27c0.353-0.338,0.667-0.64,0.974-0.909
				C55.191,80.267,55.196,81.191,55.754,82.346z M65.729,80.882c0.15,0.161,0.306,0.315,0.471,0.46
				c-0.619,1.198-1.501,2.223-2.856,2.822c-0.067,0.03-0.139,0.039-0.208,0.062c0.752-0.849,1.512-1.692,2.137-2.685
				C65.413,81.318,65.57,81.1,65.729,80.882z M65.417,77.608c-0.008-0.203,0.006-0.404,0.038-0.602
				c0.077-0.088,0.156-0.176,0.235-0.263c0.09-0.058,0.171-0.111,0.252-0.163C65.728,76.906,65.538,77.245,65.417,77.608z
				 M90.004,87.166c0.082,0.062,0.169,0.104,0.252,0.158c-0.295,0.192-0.593,0.373-0.887,0.545c0.024-0.083,0.055-0.159,0.079-0.242
				c0.045-0.161-0.204-0.278-0.278-0.117c-0.096,0.206-0.18,0.418-0.269,0.627c-0.099,0.056-0.205,0.118-0.3,0.172
				c-1.015,0.564-2.18,0.596-3.222,0.221c0.635-1.27,1.245-2.548,1.78-3.844c0.159-0.385-0.514-0.673-0.678-0.286
				c-0.54,1.274-1.145,2.547-1.776,3.815c-0.319-0.182-0.623-0.396-0.893-0.657c0.361-1.114,0.36-2.384-0.515-2.957
				c0.199-0.457,0.391-0.917,0.57-1.382c0.197-0.23,0.382-0.468,0.541-0.72c0.423-0.43,0.757-0.93,1.025-1.466
				c0.112-0.046,0.226-0.084,0.341-0.12c1.044,0.283,2.182,0.215,3.228-0.085c-0.015,0.042-0.031,0.086-0.044,0.127
				C88.321,82.872,88.212,85.805,90.004,87.166z M88.269,91.046c0.14-0.352,0.285-0.703,0.415-1.062
				c1.05-0.429,2.293-1.177,3.103-2.1c0.376,0.041,0.753,0.017,1.121-0.054c-0.295,0.832-0.154,1.784-0.256,2.658
				c-0.008,0.07-0.025,0.138-0.038,0.206c-0.074,0.033-0.141,0.085-0.189,0.172c-0.462,0.83-0.522,1.732-1.166,2.483
				c-0.629,0.733-1.573,1.342-2.561,1.398C89.251,93.407,89.031,92.101,88.269,91.046z M88.058,90.209
				c-0.051,0.131-0.107,0.259-0.16,0.39c-0.092-0.098-0.181-0.198-0.284-0.29c0.115-0.021,0.231-0.035,0.344-0.067
				C87.989,90.233,88.025,90.219,88.058,90.209z M87.494,92.894c-0.021,0.441-0.101,0.88-0.273,1.302
				c-0.083-0.096-0.15-0.206-0.212-0.32C87.17,93.549,87.342,93.224,87.494,92.894z M86.934,92.748
				c-0.059,0.111-0.124,0.219-0.185,0.33c-0.035-0.216-0.059-0.439-0.058-0.672c0.004-0.574,0.133-1.039,0.354-1.436
				c0.155,0.266,0.266,0.541,0.344,0.82C87.243,92.112,87.099,92.434,86.934,92.748z M84.054,89.479
				c-0.017,0.033-0.034,0.066-0.051,0.1c-0.01-0.097-0.083-0.193-0.202-0.203c-0.274-0.031-0.509-0.14-0.727-0.283
				c0.045-0.074,0.096-0.147,0.139-0.222C83.472,89.096,83.757,89.296,84.054,89.479z M83.857,89.791
				c0.029-0.007,0.039-0.028,0.059-0.042c-0.991,1.888-2.05,3.735-3.149,5.526c-0.522-1.191-0.288-2.587,0.363-3.762
				c0.037-0.068,0.08-0.128,0.118-0.194c0.427-0.391,0.82-0.819,1.171-1.273c0.155-0.087,0.316-0.164,0.501-0.212
				C83.184,89.765,83.546,89.871,83.857,89.791z M80.72,89.62c0.435-0.753,0.854-1.513,1.256-2.282
				c0.065,0.127,0.125,0.256,0.206,0.378c0.019,0.029,0.045,0.055,0.065,0.083C81.857,88.425,81.306,89.052,80.72,89.62z
				 M78.732,91.228c-0.388,0.251-0.724,0.428-0.955,0.494c-0.729,0.211-1.309,0.227-1.83,0.091c-0.162-0.127-0.328-0.248-0.5-0.358
				c-0.304-0.195-0.6-0.335-0.89-0.437c-0.158-0.139-0.318-0.289-0.482-0.457c0.946-1.605,1.947-3.17,2.948-4.735
				c1.455,0.266,3.043-0.039,4.432-0.736c-0.01,0.407,0.037,0.815,0.13,1.214C80.692,87.979,79.726,89.611,78.732,91.228z
				 M77.487,93.244c-0.037,0.06-0.075,0.12-0.112,0.18c-0.029-0.047-0.054-0.096-0.085-0.143
				C77.358,93.27,77.42,93.256,77.487,93.244z M73.574,89.851c-0.08-0.152-0.159-0.304-0.214-0.464
				c0.673-1.175,1.05-2.523,0.959-3.827c0.075-0.077,0.141-0.163,0.223-0.233c0.27-0.232-0.056-0.695-0.352-0.562
				c-0.041-0.177-0.09-0.353-0.147-0.527c0.023-0.036,0.047-0.071,0.07-0.107c0.145,0.201,0.307,0.392,0.504,0.563
				c0.507,0.438,1.079,0.741,1.685,0.94C75.402,87.048,74.484,88.45,73.574,89.851z M69.8,90.313
				c0.479-0.651,0.958-1.297,1.429-1.933c0.602-0.814,1.176-1.651,1.739-2.497c0,0.065,0.009,0.129,0.006,0.195
				c-0.498,0.781-0.791,1.704-0.806,2.623c-0.271,0.483-0.587,0.923-0.926,1.285c-0.232,0.248-0.491,0.456-0.76,0.645
				C70.26,90.463,70.031,90.369,69.8,90.313z M70.096,90.883c-0.324,0.185-0.668,0.315-1.019,0.418
				c0.093-0.128,0.186-0.253,0.278-0.38C69.593,90.852,69.84,90.824,70.096,90.883z M72.467,82.108
				c0.261-0.142,0.517-0.295,0.762-0.469c0.043,0.586,0.164,1.155,0.388,1.676C73.297,82.796,72.907,82.398,72.467,82.108z
				 M71.887,80.767c0.562-0.755,1.129-1.506,1.711-2.245c0.037-0.048,0.083-0.099,0.123-0.148c-0.154,0.442-0.289,0.901-0.378,1.381
				c-0.162,0.206-0.335,0.402-0.529,0.58C72.487,80.494,72.199,80.648,71.887,80.767z M72.563,78.642
				c-0.655,0.763-1.279,1.555-1.893,2.355c-0.764,0.047-1.739,0.106-2.545-0.094c0.157-0.818,0.134-1.83,0.067-2.709
				c0.876-0.815,1.789-1.583,2.641-2.306c1.349-0.013,2.401-0.314,3.621-0.638c0.057,0.369,0.07,0.741,0.058,1.111
				C73.883,77.14,73.217,77.881,72.563,78.642z M68.119,77.405c-0.012-0.109-0.025-0.219-0.036-0.318
				c-0.034-0.285-0.487-0.416-0.553-0.075c-0.069,0.359-0.152,0.728-0.235,1.095c-0.33,0.29-0.651,0.586-0.96,0.888
				c-0.153-1.057,0.435-2.25,1.321-3.239c0.474-0.068,1.06-0.011,2.146,0.09c0.089,0.008,0.167,0.007,0.253,0.012
				C69.42,76.357,68.764,76.872,68.119,77.405z M66.938,79.439c-0.059,0.195-0.104,0.394-0.171,0.585
				c-0.06-0.077-0.098-0.16-0.146-0.241C66.725,79.668,66.831,79.554,66.938,79.439z M66.493,84.172
				c0.103,0.408,0.682,0.228,0.618-0.17c-0.022-0.14-0.045-0.28-0.067-0.42c-0.014-0.09-0.09-0.155-0.171-0.198
				c0.585-0.283,1.227-0.515,1.871-0.644c0.037,0.009,0.075,0.026,0.112,0.035c0.138,0.031,0.277,0.052,0.418,0.067
				c-0.909,1.218-1.815,2.439-2.775,3.612c-0.874,1.069-1.735,2.037-2.554,3.034c-0.024-0.042-0.057-0.082-0.079-0.124
				c0.125-0.319,0.204-0.662,0.227-1.031c0.037-0.602-0.126-1.222-0.394-1.81c0.12-0.428,0.261-0.868,0.473-1.264
				c0.568-0.311,1.099-0.744,1.623-1.257c0.073-0.049,0.149-0.098,0.227-0.147C66.245,83.835,66.426,83.907,66.493,84.172z
				 M63.182,83.149c-0.38,0.423-0.804,0.8-1.217,1.189c-0.731-0.545-1.486-0.655-2.208-0.459c-0.199-0.077-0.392-0.158-0.582-0.239
				c1.805-1.684,3.489-3.532,5.157-5.389c0.117,0.696,0.426,1.369,0.864,1.979C64.445,81.155,63.985,82.256,63.182,83.149z
				 M62.423,89.111c-0.71,1.324-2.648,1.952-4.007,2.2c-0.193,0.035-0.401,0.067-0.616,0.093c-0.017-0.013-0.034-0.026-0.051-0.04
				c0.637-0.907,1.561-1.577,2.209-2.477c0.581-0.807,0.94-1.749,1.494-2.572c0.069-0.103,0.15-0.192,0.222-0.292
				c0.087,0.094,0.173,0.194,0.256,0.313c0.138,0.196,0.269,0.398,0.382,0.604C62.194,87.679,62.225,88.431,62.423,89.111z
				 M58.42,83.293c-0.33-0.159-0.643-0.344-0.919-0.565c-0.003-0.258-0.038-0.512-0.078-0.764c0.854-0.618,1.538-1.249,2.242-2.05
				c0.658-0.749,1.389-1.39,2.153-1.996c0.782,0.005,1.449-0.034,2.176-0.283C62.178,79.572,60.372,81.518,58.42,83.293z
				 M57.241,81.259c-0.04-0.12-0.062-0.247-0.112-0.363c-0.107-0.248-0.547-0.249-0.654,0c-0.027,0.062-0.041,0.128-0.064,0.191
				c-0.023-0.09-0.05-0.178-0.065-0.274c-0.181-1.125,0.286-1.789,0.911-2.428c0.79-0.319,1.777-0.48,3.252-0.481
				c0.232,0,0.45,0.003,0.659,0.006C59.872,79.05,58.6,80.203,57.241,81.259z M57.616,85.255c0.13,0.17,0.374,0.056,0.417-0.141
				c0.026,0.146,0.173,0.268,0.344,0.244c0.442-0.064,0.845-0.117,1.222-0.134c0.403,0.142,0.806,0.272,1.197,0.38
				c0.015,0.004,0.029,0.005,0.044,0.009c-0.471,0.675-0.831,1.409-1.27,2.111c-0.646,1.032-1.533,1.708-2.287,2.634
				c-0.109,0.131-0.201,0.272-0.297,0.411c-0.801-0.628-1.594-1.268-2.371-1.923C55.608,87.645,56.578,86.414,57.616,85.255z
				 M55.798,84.303c-0.786,0.575-1.541,1.492-1.856,2.07c-0.601,0.227-1.236,0.236-1.751,0.021c1.244-1.144,2.503-2.272,3.832-3.335
				C55.971,83.483,55.914,83.903,55.798,84.303z M53.371,87.737c-0.002,0.008-0.004,0.016-0.006,0.024
				c-0.01-0.009-0.02-0.018-0.03-0.027C53.347,87.734,53.358,87.737,53.371,87.737z M48.713,82.686
				c-0.472-0.665-0.953-1.323-1.509-1.883c1.633-0.414,3.283-0.697,4.771-0.531C50.837,81.036,49.731,81.81,48.713,82.686z
				 M47.241,84.119c-0.387,0.43-0.757,0.881-1.094,1.376c-0.1,0.147,0.099,0.345,0.246,0.246c0.434-0.294,0.839-0.62,1.231-0.958
				c0.035,0.054,0.063,0.119,0.099,0.171c0.628,0.918,1.379,1.763,2.174,2.555c-0.433,0.467-0.853,0.94-1.246,1.424
				c-0.175,0.216,0.088,0.478,0.304,0.304c0.496-0.4,0.968-0.822,1.443-1.239c0.225,0.213,0.451,0.426,0.68,0.63
				c0.498,0.444,1.019,0.867,1.533,1.297c-0.498,0.682-0.989,1.37-1.47,2.066c-0.128,0.185,0.142,0.359,0.295,0.227
				c0.628-0.544,1.212-1.139,1.777-1.756c0.044,0.161,0.078,0.326,0.149,0.477c0.489,1.04,1.531,1.528,2.629,1.722
				c-0.463,1.103-0.849,2.254-1.457,3.267c-0.187,0.311,0.234,0.615,0.491,0.379c0.948-0.873,1.333-1.97,1.774-3.07
				c0.984,0.734,1.976,1.456,2.971,2.169c-0.145,0.203-0.291,0.406-0.427,0.617c-0.759,1.176-0.683,2.273-1.145,3.486
				c-1.003-0.657-1.973-1.405-2.886-2.395c-2.449-2.655-5.513-4.379-7.637-7.429c-1.719-2.468-2.658-5.348-4.356-7.787
				c0.753-0.204,1.551-0.445,2.367-0.68C46.331,82.041,46.746,83.152,47.241,84.119z M59.261,92.522
				c0.786-0.18,1.59-0.45,2.315-0.84c0.26-0.059,0.527-0.099,0.8-0.121c-0.292,0.426-0.577,0.863-0.848,1.332
				c-0.181,0.313-0.38,0.61-0.584,0.902C60.386,93.375,59.825,92.95,59.261,92.522z M65.679,91.049
				c-0.005-0.003-0.011-0.005-0.016-0.008c-0.389-0.197-0.764-0.433-1.098-0.756c-0.061-0.059-0.106-0.122-0.162-0.182
				c0.006-0.008,0.011-0.016,0.017-0.024c0.87-1.037,1.889-1.931,2.735-2.993c1.111-1.394,2.168-2.83,3.222-4.268
				c0.125-0.018,0.25-0.036,0.376-0.062c0.491,0.13,0.945,0.367,1.325,0.756c0.33,0.338,0.551,0.723,0.695,1.131
				c-0.827,1.24-1.671,2.468-2.57,3.653c-0.53,0.697-1.036,1.402-1.533,2.111c-0.526,0.201-1.033,0.593-1.474,1.084
				C66.675,91.432,66.161,91.29,65.679,91.049z M76.566,96.475c-0.09,0.247-0.229,0.475-0.402,0.684
				C76.296,96.93,76.433,96.703,76.566,96.475z M76.598,98.875c0.608-0.454,1.082-1.028,1.332-1.739
				c0.163-0.113,0.334-0.215,0.519-0.296c0.301-0.132,0.086-0.648-0.226-0.535c-0.046,0.016-0.084,0.043-0.128,0.061
				c0.04-0.356,0.04-0.733-0.026-1.146c-0.047-0.291-0.13-0.572-0.231-0.847c0.302-0.487,0.604-0.976,0.907-1.466
				c0.202-0.079,0.402-0.169,0.599-0.267c-0.188,0.652-0.261,1.341-0.139,2.077c0.109,0.661,0.371,1.312,0.748,1.889
				c-0.019,0.03-0.038,0.062-0.057,0.093c-1.028,1.62-2.294,3.01-3.115,4.75c-0.097,0.206-0.207,0.419-0.321,0.634
				C76.14,101.061,76.192,99.883,76.598,98.875z M81.802,96.216c-0.131-0.008-0.213,0.056-0.273,0.138
				c-0.043-0.041-0.088-0.077-0.13-0.121c-0.061-0.064-0.103-0.134-0.157-0.2c0.003-0.006,0.007-0.011,0.01-0.016
				c1.181-2.014,2.361-4.077,3.461-6.176c0.567,0.264,1.168,0.442,1.768,0.503c-0.402,0.486-0.677,1.084-0.771,1.897
				c-0.091,0.785-0.015,1.547,0.26,2.196c-0.426,0.706-0.867,1.404-1.305,2.102c-0.263,0.13-0.502,0.299-0.716,0.504
				c-0.184,0.039-0.369,0.067-0.554,0.07C83.034,96.606,82.518,96.26,81.802,96.216z M86.544,95.324
				c-0.072,0.089-0.134,0.183-0.214,0.268c-0.125,0.134-0.271,0.245-0.408,0.366c0.154-0.278,0.322-0.556,0.47-0.834
				C86.447,95.188,86.482,95.264,86.544,95.324z M83.985,101.29c0.116-0.571,0.155-1.297,0.087-2.022
				c0.138-0.263,0.279-0.524,0.422-0.783c1.348-0.361,2.599-1.331,3.447-2.448c0.424,0.095,0.855,0.1,1.281,0.046
				c-1.184,1.696-2.292,3.45-3.251,5.28c-0.453,0.865-1.003,1.795-1.469,2.756c-0.427-0.422-0.709-1.041-0.85-1.747
				C83.797,102.013,83.912,101.649,83.985,101.29z M93.601,87.63c0.349-0.133,0.672-0.325,0.977-0.541
				c-0.311,0.449-0.535,0.981-0.665,1.549C93.849,88.281,93.758,87.934,93.601,87.63z M92.922,100.988
				c-0.061,0.044-0.124,0.091-0.185,0.136c0.024-0.088,0.048-0.174,0.078-0.274C92.854,100.893,92.883,100.946,92.922,100.988z
				 M95.301,87.398c-0.001,0.005-0.002,0.01-0.002,0.014c-0.101,0.89-0.296,1.702-0.526,2.485
				C94.693,89.037,94.872,88.138,95.301,87.398z M99.552,91.784c-0.217-0.212-0.533-0.189-0.753,0
				c-0.233,0.201-0.466,0.401-0.7,0.601c-0.224,0.192,0.016,0.547,0.277,0.477c0.18-0.048,0.344-0.023,0.496,0.048
				c-0.798,0.102-1.612,0.018-2.282-0.264c-0.09-0.038-0.169-0.088-0.253-0.133c0.165-0.545,0.292-1.104,0.35-1.688
				c0.232-2.354-0.257-4.343-0.091-6.551c0.052-0.015,0.104-0.026,0.156-0.043c0.118,0.115,0.241,0.227,0.381,0.331
				c1.045,0.773,2.178,0.885,3.211,0.57c0.133,0.159,0.268,0.328,0.407,0.513c0.705,0.939,1.322,2.025,1.486,3.173
				c-0.221,0.076-0.358,0.411-0.088,0.526c0.045,0.019,0.09,0.043,0.136,0.064c-0.001,0.454-0.081,0.916-0.262,1.38
				c-0.317,0.812-1.005,1.389-1.822,1.746C100.007,92.274,99.795,92.022,99.552,91.784z M96.961,82.263
				c0.042-0.149,0.067-0.292,0.117-0.444c0.741-2.236,1.775-4.8,2.31-7.299c0.256-0.11,0.499-0.218,0.699-0.295
				c0.113,0.162,0.424,0.156,0.462-0.069c0.009-0.05,0.017-0.1,0.025-0.15c0.095-0.121,0.119-0.274,0.106-0.42
				c1.646,0.835,2.057,5.121,1.837,6.514c-0.177,1.121-0.818,2.577-1.791,3.342c-0.429-0.387-0.906-0.7-1.446-0.874
				c-0.913-0.293-1.493-0.105-2.045,0.231C97.12,82.633,97.039,82.449,96.961,82.263z M100.91,93.705
				c0.337-0.151,0.656-0.329,0.943-0.536c1.072-0.773,1.606-1.914,1.741-3.137c0.003,0.001,0.007,0.002,0.01,0.003
				c-0.021,0.106,0.022,0.228,0.14,0.259c2.686,0.706,3.229,4.015,2.366,6.306c-0.751,1.992-3.242,2.978-5.36,2.619
				C101.666,97.555,101.748,95.507,100.91,93.705z M93.32,68.961c0.989-0.833,1.814-1.909,2.847-3.342
				c0.005,0.026,0.008,0.053,0.027,0.076c1.913,2.338,2.261,5.282,1.947,8.376c-0.06,0.027-0.121,0.059-0.177,0.081
				c0.043-0.119-0.044-0.27-0.211-0.241c-0.155,0.026-0.309,0.053-0.464,0.079c-0.089,0.015-0.176,0.128-0.167,0.219
				c0.027,0.263,0.111,0.437,0.23,0.557c-0.039,0.011-0.069,0.02-0.111,0.032c-0.979,0.282-2.321,0.359-3.305-0.116
				c0.02-0.166,0.038-0.333,0.046-0.504c0.069-1.551-0.075-3.047-0.985-4.295C93.085,69.564,93.192,69.256,93.32,68.961z
				 M92.831,77.696c0.056-0.018,0.078-0.068,0.075-0.118c0.259-0.392,0.487-0.806,0.654-1.261c0.074-0.118,0.155-0.236,0.233-0.354
				c0.168,0.07,0.329,0.152,0.507,0.197c1.418,0.356,2.452,0.078,3.606-0.368c-0.299,1.777-0.757,3.574-1.212,5.311
				c-0.126-1.502,0.4-3.24,0.89-4.437c0.126-0.308-0.383-0.517-0.535-0.226c-0.822,1.575-1.677,3.924-1.307,5.854
				c-0.01-0.001-0.015-0.009-0.025-0.009c-0.138,0.002-0.276,0.004-0.415,0.006c-0.273,0.004-0.433,0.427-0.15,0.553
				c0.864,0.385-0.689,2.583-1.152,2.929c-0.395,0.295-0.892,0.519-1.406,0.616c0.02-0.1,0.038-0.2,0.043-0.301
				c0.016-0.283-0.384-0.454-0.573-0.238c-0.159,0.182-0.355,0.352-0.548,0.523c-0.189-0.045-0.374-0.106-0.546-0.204
				c-1.428-0.818-1.342-3.16-1.061-4.522c0.103-0.499,0.29-0.958,0.507-1.405c0.821-0.489,1.39-1.134,1.879-1.86
				c0.193-0.208,0.353-0.444,0.516-0.677C92.818,77.702,92.823,77.699,92.831,77.696z M84.724,73.006
				c0.035-0.03,0.066-0.063,0.102-0.091c1.371-1.12,1.876-1.486,3.794-1.893c1.172-0.249,2.104-0.549,2.9-0.919
				c0.179,0.119,0.33,0.27,0.458,0.446c-0.498,1.103-0.934,2.005-0.36,3.294c0.204,0.459,0.506,0.865,0.855,1.223
				c-0.215,1.057-0.68,1.99-1.424,2.687c-0.183,0.116-0.356,0.255-0.517,0.414c-0.393,0.267-0.84,0.483-1.357,0.63
				c-1.083,0.307-2.189,0.206-3.112-0.225c0.017-1.596-0.547-3.494-1.916-4.125C84.307,73.966,84.51,73.484,84.724,73.006z
				 M84.139,80.069c-0.098,0.249-0.203,0.498-0.331,0.741c-0.062,0.088-0.135,0.17-0.202,0.255c-0.475,0.316-0.889,0.719-1.22,1.19
				c-0.906,0.671-1.997,1.12-3.136,1.185c-0.239,0.013-0.493,0.023-0.744,0.034c1.134-1.835,2.213-3.707,3.125-5.692
				c0.204-0.444-0.451-0.834-0.661-0.386c-0.981,2.09-2.118,4.105-3.323,6.083c-0.218-0.003-0.441,0.002-0.649-0.018
				c-0.898-0.085-1.467-0.474-1.799-1.027c1.227-1.917,2.468-3.819,3.86-5.585c0.289-0.366-0.222-0.889-0.519-0.519
				c-1.311,1.63-2.499,3.37-3.665,5.132c-0.062-0.478-0.035-1.002,0.084-1.546c0.559-0.795,0.913-1.679,0.953-2.573
				c0.626-1.149,1.524-2.114,2.761-2.58c1.285,0.098,2.547,0.255,3.793-0.158c0.009,0.116,0.054,0.231,0.156,0.289
				c0.043,0.025,0.077,0.053,0.119,0.078c-0.005,0.209-0.014,0.423-0.007,0.615c0.01,0.258,0.047,0.506,0.096,0.748
				C82.629,77.746,82.933,79.061,84.139,80.069z M75.362,75.289c0.151-0.048,0.247-0.08,0.317-0.103
				c-0.046,0.048-0.095,0.093-0.141,0.142c-0.031,0.022-0.066,0.049-0.101,0.075C75.416,75.364,75.384,75.327,75.362,75.289z
				 M76.718,74.864c0.041-0.04,0.084-0.074,0.126-0.112c0.043-0.004,0.087-0.012,0.13-0.016
				C76.889,74.779,76.801,74.815,76.718,74.864z M7.374,91.631c0.503-1.799,1.923-4.412,2.104-4.788
				c0.243-0.504,0.5-0.986,0.754-1.472c0.459,2.018,1.277,3.855,2.717,5.276c-0.801,1.815-1.4,3.703-1.495,5.595
				C9.837,94.876,8.386,93.324,7.374,91.631z M46.535,106.299c0.056-0.052,0.096-0.118,0.087-0.212
				c-0.119-1.229-0.768-2.324-0.984-3.557c-0.313-1.791-0.341-3.63-0.372-5.443c-0.01-0.598-0.934-0.6-0.93,0
				c0.019,2.696-0.501,7.168,1.725,9.213c-2.355-0.006-4.686-0.144-6.898-0.304c-0.005,0-0.011-0.001-0.016-0.001
				c0.105-0.023,0.214-0.057,0.328-0.107c0.273-0.119,0.195-0.578-0.083-0.635c-1.613-0.334-1.644-5.501-1.777-6.619
				c-0.252-2.111-1.736-6.05-0.418-7.813c0.357-0.478-0.44-0.927-0.796-0.465c-0.911,1.182-0.725,2.711-0.496,4.106
				c0.381,2.325,0.599,4.637,0.851,6.979c0.063,0.582,0.188,1.788,0.52,2.818c-0.11,0.003-0.218,0.039-0.281,0.152
				c-0.464,0.834-2.119-2.747-2.181-2.901c-0.319-0.801-0.567-1.554-0.743-2.329c0.085-0.097,0.161-0.201,0.211-0.322
				c0.309-0.743,0.052-1.487-0.501-2.019c-0.145-3.213-0.708-6.453-0.105-9.648c0.093-0.49-0.653-0.702-0.753-0.208
				c-0.569,2.813-0.302,5.547-0.166,8.393c0.017,0.349,0.033,0.683,0.051,1.008c-0.311-0.012-0.62,0.09-0.871,0.341
				c-0.434,0.434-0.507,1.299,0,1.724c0.184,0.154,0.378,0.458,0.482,0.653c0.175,0.33,0.444,0.477,0.727,0.495
				c0.164,0.905,0.405,1.819,0.788,2.836c0.44,1.167,0.997,2.689,2.382,3.052c0.675,0.177,1.116,0.045,1.27-0.467
				c0.225,0.438,0.514,0.775,0.881,0.922c-2.645-0.211-5.253-0.534-7.812-1.024c0.528-0.359,0.728-0.617,0.818-1.281
				c0.027-0.197-0.207-0.317-0.329-0.138c-0.559,0.819-0.307,0.098-0.553-0.349c-0.443-0.802-0.473-2.075-0.572-2.962
				c-0.197-1.777-0.193-3.57-0.252-5.355c-0.124-3.713,1.083-7.092,1.4-10.744c0.035-0.408-0.656-0.507-0.721-0.098
				c-0.473,2.964-1.329,5.801-1.609,8.757c-0.618-0.324-1.606-0.055-1.556,0.84c0.032,0.577,0.064,1.154,0.095,1.731
				c0.015,0.264-0.002,0.556,0.064,0.814c0.074,0.289,0.262,0.474,0.405,0.721c0.199,0.342,0.712,0.342,0.911,0
				c0.003-0.006,0.007-0.01,0.01-0.015c0.017,1.118,0.049,2.235,0.15,3.348c0.146,1.599,0.661,2.924,1.049,4.461
				c0.014,0.057,0.048,0.105,0.083,0.151c-2.197-0.446-4.356-1.024-6.469-1.764c-0.476-2.615-0.154-5.007,0.409-7.424
				c0.089,0.24,0.188,0.477,0.309,0.706c0.526,0.993,2.218,0.313,1.839-0.775c-0.447-1.285-0.85-2.52-1.162-3.838
				c0.048-0.192,0.098-0.381,0.145-0.576c0.408-1.702,0.828-3.404,1.221-5.109c0.28-1.218,0.44-3.436,1.645-4.114
				c0.412-0.232,0.042-0.866-0.371-0.634c-1.038,0.584-1.396,1.866-1.701,2.944c-0.585,2.068-1.015,4.184-1.584,6.257
				c-0.046,0.167-0.099,0.344-0.152,0.52c-0.228,0.033-0.432,0.169-0.476,0.43c-0.082,0.486-0.127,0.985-0.137,1.484
				c-1.02,3.089-2.227,6.857-1.173,9.691c-2.107-0.808-4.168-1.785-6.17-2.981c-1.262-0.754-2.612-1.648-3.904-2.66
				c0.35-1.732,0.637-3.443,1.283-5.13c0.057-0.149,0.126-0.293,0.186-0.441c0.364,0.275,0.758,0.529,1.188,0.758
				c0.601,0.32,1.144-0.308,0.882-0.882c-0.323-0.708-0.721-1.348-1.134-1.979c0.719-1.486,1.512-2.94,2.292-4.388
				c1.22-2.266,2.304-4.657,3.909-6.677c1.357-1.708,2.264-3.691,3.634-5.374c0.292-0.359-0.214-0.875-0.514-0.514
				c-1.55,1.873-2.708,4.045-4.206,5.978c-1.615,2.085-2.796,4.613-4.064,6.922c-0.537,0.977-1.123,2.01-1.686,3.081
				c-0.181-0.28-0.361-0.562-0.532-0.856c-0.905-1.559-1.302-3.123-1.78-4.829c0.847-1.377,1.768-2.709,2.791-4.035
				c1.576-2.043,2.627-4.379,4.21-6.447c1.902-2.486,3.884-4.913,5.757-7.422c0.182-0.243-0.227-0.561-0.423-0.327
				c-2.607,3.104-5.281,6.272-7.66,9.554c-1.019,1.405-1.679,2.973-2.776,4.342c-0.816,1.018-1.58,1.975-2.276,3.024
				c-0.451-1.562-0.929-3.348-0.953-5.043c1.929-2.236,4.083-4.329,5.882-6.441c1.557-1.827,3.483-3.241,5.159-4.951
				c2.082-2.124,4.341-4.061,6.424-6.184c0.141-0.144-0.076-0.361-0.221-0.221c-4.371,4.203-9.296,7.756-13.285,12.327
				c-1.267,1.452-2.601,2.836-3.889,4.264c0.089-0.64,0.262-1.254,0.558-1.821c0.188-0.36-0.333-0.668-0.546-0.319
				c-0.683,1.116-1.021,2.276-1.16,3.459c-0.314,0.37-0.632,0.736-0.932,1.118c-1.287,1.639-2.795,3.425-2.912,5.583
				c-0.018,0.33,0.443,0.351,0.545,0.074c0.723-1.974,1.877-3.78,3.222-5.49c-0.014,1.904,0.363,3.851,0.596,5.763
				c0.013,0.106,0.034,0.21,0.049,0.315c-0.932,1.597-2.47,4.342-3.238,6.587C5.235,87.079,4.6,82.411,4.092,79.018
				c-1.046-6.982-0.326-13.834,0.423-20.839c1.549-0.959,3.188-1.752,4.746-2.713c2.212-1.365,4.278-2.642,6.664-3.675
				c5.189-2.245,10.126-4.935,15.494-6.778c0.534-0.183,0.307-1.033-0.235-0.851c-5.653,1.903-10.844,4.751-16.349,6.99
				c-2.33,0.947-4.347,2.364-6.495,3.659c-1.128,0.68-2.501,1.22-3.648,1.99c1.26-8.777,7.633-13.338,15.253-17.326
				c0.658-0.345,1.39-0.666,2.165-0.978c-0.003,0.013-0.009,0.022-0.012,0.036c-0.054,0.225,0.269,0.381,0.385,0.162
				c0.342-0.64,2.985-0.265,3.717-0.389c2.006-0.338,4.055-0.928,5.984-1.556c4.205-1.369,8.322-2.159,12.706-2.842
				c0.422-0.066,0.241-0.703-0.177-0.64c-2.556,0.385-5.121,0.711-7.662,1.194c-2.448,0.465-4.748,1.406-7.151,2.05
				c-1.719,0.461-3.342,0.732-5.034,0.961c2.978-1.049,6.228-2.118,8.832-3.662c1.334-0.22,2.674-0.848,3.848-1.326
				c2.244-0.915,4.757-1.032,6.9-2.15c0.326-0.17,0.038-0.658-0.288-0.492c-1.931,0.98-4.162,0.97-6.172,1.745
				c-0.78,0.301-1.539,0.569-2.299,0.818c0.41-0.348,0.78-0.722,1.119-1.116c1.155,0.116,2.131-0.924,2.977-1.601
				c2.075-1.658,4.458-2.898,6.588-4.482c0.138-0.103,0.02-0.324-0.138-0.236c-1.99,1.108-4.071,2.262-5.961,3.531
				c-0.998,0.67-1.859,1.398-2.864,2.005c0.792-1.142,1.269-2.302,1.505-3.475c0.886-0.811,1.726-1.696,2.72-2.379
				c1.16-0.797,2.3-1.613,2.949-2.9c0.186-0.37-0.353-0.694-0.56-0.327c-0.857,1.52-2.331,2.29-3.695,3.283
				c-0.424,0.309-0.84,0.66-1.245,1.027c0.026-0.383,0.035-0.767,0.023-1.153c0.614-1.05,1.128-2.158,1.836-3.155
				c0.988-1.391,1.775-2.709,2.445-4.289c0.047-0.112-0.104-0.211-0.169-0.099c-1.319,2.275-2.98,4.262-4.177,6.56
				c-0.267-2.651-1.213-5.353-1.821-8.071c-0.487-2.177-0.84-4.508-1.737-6.42c0.736,0.526,1.373,0.997,1.643,1.302
				c1.587,1.795,1.791,4.174,3.055,6.122c0.666,1.027,2.1,0.56,2.205-0.597c0.115-1.272,0.991-6.742,2.344-10.356
				c-0.872,4.209-1.2,9.216,1.02,11.897c0.488,0.59,1.59,0.553,2.083,0c1.802-2.02,2.557-4.692,4.226-6.873
				c0.55-0.72,1.47-2.048,2.479-3.248c-0.677,1.53-1.295,3.091-1.956,4.691c-0.661,1.599-1.474,3.371-0.423,4.948
				c0.424,0.635,1.476,0.948,2.043,0.263c2.326-2.808,3.726-7.612,7.101-9.334c2.427-1.238-0.296,1.252-0.919,1.975
				c-1.343,1.556-2.172,3.055-3.167,4.871c-3.257,5.942-5.447,13.517-0.156,19.061c0.323,0.339,0.702,0.49,1.079,0.511
				c4.496,4.506,11.731,4.031,17.337,7.93c5.137,3.571,6.439,9.447,6.994,15.487c0.334,3.637-0.506,8.234,0.503,11.792
				c-0.666,0.556-1.383,1.07-2.367,1.362c-1.6,0.475-3.173-0.115-4.821,0.229c-1.331,0.278-1.806,1.161-2.898,1.509
				c-2.764,0.881-4.914-0.876-7.55,0.12c-1.513,0.572-0.858,0.859-3.184,1.404c-2.313,0.541-1.926,0.084-3.672,0.167
				c-0.942,0.045-1.695-0.077-2.584,0.346c-0.75,0.356-1.446,1.042-1.888,1.737c-0.12,0.188-0.659,2.088-0.758,2.161
				c0.182-0.135-4.595,0.131-5.651,0.285c-3.304,0.481-4.574,0.272-6.52,3.087c-0.143,0.206,0.092,0.409,0.291,0.379
				c0.189-0.029,0.385-0.066,0.584-0.107c2.106,3.008,2.766,6.932,4.998,9.973c2.405,3.277,5.97,6.511,9.058,9.126
				c1.143,0.968,2.478,1.646,3.726,2.446C55.713,105.715,51.089,106.274,46.535,106.299z M64.403,103.3
				c-1.874-1.394-3.777-2.278-5.591-3.392c0.399-0.677,0.435-1.331,0.747-2.185c0.234-0.64,0.602-1.203,1.004-1.747
				c0.482,0.343,0.965,0.689,1.445,1.031c0.577,0.41,1.15,0.787,1.723,1.15c-0.045,0.094-0.096,0.184-0.138,0.28
				c-0.187,0.432-0.506,2.748-0.866,2.884c-0.274,0.104-0.261,0.559,0.074,0.545c0.139-0.006,0.278-0.012,0.416-0.018
				c0.153-0.007,0.291-0.103,0.333-0.253c0.275-0.987,0.648-1.945,1.066-2.887c0.921,0.553,1.846,1.059,2.785,1.54
				c-0.835,1.347-1.545,2.692-1.82,4.177C65.214,104.015,64.834,103.621,64.403,103.3z M113.36,105.037
				c-0.014,0.03-0.019,0.061-0.03,0.091c-5.036,3.884-11.386,6.695-17.439,8.177c-8.216,2.011-16.166-1.019-23.644-4.329
				c-1.548-0.685-3.067-1.109-4.436-2.189c-0.533-0.421-0.995-0.948-1.454-1.485c0.203-1.051,0.425-2.059,0.952-3.083
				c0.275-0.536,0.598-1.043,0.925-1.549c1.239,0.613,2.51,1.195,3.843,1.794c-0.455,0.826-0.9,1.654-1.31,2.487
				c-0.428,0.869-1.045,2.086-0.206,2.877c0.224,0.211,0.709,0.003,0.568-0.331c-0.538-1.276,1.15-3.318,1.889-4.557
				c0.768,0.407,1.518,0.862,2.258,1.344c-0.366,0.74-0.668,1.49-0.768,2.223c-0.053,0.388,0.439,0.53,0.588,0.162
				c0.266-0.658,0.569-1.295,0.885-1.925c1.085,0.722,2.17,1.443,3.294,2.066c-0.077,0.236-0.162,0.47-0.229,0.707
				c-0.086,0.303,0.319,0.443,0.486,0.205c0.128-0.184,0.246-0.377,0.369-0.566c0.913,0.462,1.859,0.84,2.864,1.067
				c0.176,0.04,0.25-0.221,0.075-0.271c-0.946-0.269-1.844-0.668-2.712-1.145c0.274-0.436,0.539-0.879,0.792-1.333
				c0.698-0.335,1.315-0.867,1.812-1.504c0.133,0.397,0.301,0.751,0.506,1.037c0.198,0.278,0.413,0.481,0.635,0.654
				c-0.207,0.638-0.347,1.282-0.347,1.927c0,0.262,0.393,0.395,0.517,0.14c0.26-0.537,0.52-1.07,0.78-1.6
				c0.995,0.227,2.11-0.152,3.199-0.608c0.863-0.361,1.625-0.743,2.32-1.183c0.072,0.896,0.122,1.802,0.001,2.752
				c-0.129,1.012,1.328,1.211,1.791,0.485c0.264-0.415,0.403-0.685,0.483-0.938c0.329,0.255,0.745,0.428,1.24,0.518
				c1.343,0.244,2.152-0.303,3.32-0.85c1.206-0.565,1.891-1.316,1.951-2.692c0.033-0.752-0.016-1.739-0.551-2.17
				c0.736-0.446,1.352-1,1.812-1.646c0.959,0.381,2.023,0.5,3.041,0.355c-0.398,0.459-0.831,0.905-1.254,1.333
				c-0.507,0.513-1.108,1.022-1.872,0.929c-0.855-0.105-0.864,1.263,0,1.352c1.928,0.198,3.667-1.897,3.738-3.676
				c0.001-0.027-0.014-0.049-0.023-0.073c1.44-0.36,2.722-1.258,3.366-2.744c1.083-2.497,0.624-6.943-2.273-7.433
				c0.847-0.607,1.246-1.911,1.566-2.817c0.113-0.32,0.184-0.657,0.232-0.997c0.779,1.34,1.442,2.672,1.75,4.287
				c0.386,2.026-0.034,3.976,0.635,5.955C110.422,99.601,115.208,101.036,113.36,105.037z"/>
			<path d="M86.194,109.195c0.297,0.239,0.454,0.505,0.479,0.892c0.011,0.164,0.262,0.167,0.258,0
				c-0.011-0.461-0.175-0.805-0.521-1.108C86.26,108.85,86.043,109.073,86.194,109.195z"/>
			<path d="M104.301,104.736c-2.047-0.099-4.387,1.591-6.188,2.399c-1.369,0.614-2.685,1.348-4.039,1.996
				c-0.861,0.412-1.736,0.649-2.414,1.315c-0.157,0.154,0.051,0.445,0.241,0.313c0.5-0.348,2.001-0.267,2.689-0.403
				c1.171-0.23,2.27-0.606,3.367-1.068c1.143-0.481,2.274-0.974,3.293-1.686c1.069-0.747,1.878-1.73,3.144-2.177
				C104.767,105.295,104.708,104.755,104.301,104.736z"/>
			<path d="M42.769,35.97c-2.377,0.947-4.928,1.418-7.422,1.969c-2.65,0.585-5.248,1.371-7.917,1.863
				c-5.025,0.927-10.875,1.739-15.211,4.643c-0.149,0.1-0.06,0.353,0.126,0.3c2.745-0.785,5.372-1.923,8.136-2.678
				c2.638-0.72,5.317-1.168,7.987-1.737c2.637-0.561,5.213-1.462,7.837-2.106c2.132-0.524,4.71-0.793,6.557-2.033
				C42.969,36.12,42.904,35.917,42.769,35.97z"/>
			<path d="M35.638,39.807c-2.933,1.448-6.383,2.086-9.443,3.289c-3.112,1.225-6.281,2.282-9.413,3.453
				c-2.526,0.945-4.937,2.095-7.36,3.272c-1.121,0.545-3.192,1.16-3.452,2.589c-0.052,0.286,0.192,0.649,0.524,0.524
				c0.107-0.04,0.213-0.081,0.32-0.121c0.143-0.054,0.246-0.167,0.248-0.326c0.001-0.108,0.003-0.215,0.004-0.322
				c0.454-0.193,1.018-0.555,0.999-0.544c0.315-0.185,0.649-0.345,0.976-0.508c0.876-0.437,1.759-0.858,2.635-1.295
				c2.932-1.462,5.986-2.556,9.051-3.692c2.719-1.008,5.381-2.149,8.08-3.206c2.364-0.926,4.885-1.408,7.158-2.552
				C36.339,40.179,36.011,39.623,35.638,39.807z"/>
			<path d="M33.612,45.763c-5.381,3.604-11.243,6.333-16.711,9.786c-4.104,2.592-9.908,5.739-12.264,10.219
				c-0.093,0.176-0.056,0.347,0.064,0.495c0.138,0.17,0.277,0.34,0.415,0.509c0.173,0.212,0.499-0.019,0.438-0.255
				c-0.387-1.486,3.392-4.082,4.421-4.906c2.694-2.158,5.617-4.084,8.558-5.887c5.122-3.139,10.645-5.689,15.458-9.313
				C34.366,46.128,34.021,45.489,33.612,45.763z"/>
			<path d="M27.072,53.358c-3.75,4.236-8.846,6.811-12.967,10.59c-1.974,1.81-3.872,3.765-5.807,5.624
				c-1.525,1.464-3.222,3.366-3.831,5.422c-0.114,0.383,0.432,0.6,0.635,0.268c1.371-2.238,3.207-4.311,5.144-6.068
				c2.052-1.86,3.795-4.03,5.972-5.743c3.877-3.051,8.059-5.897,11.313-9.635C27.803,53.503,27.35,53.044,27.072,53.358z"/>
			<path d="M26.488,74.404c-2.313,5.002-5.08,9.738-7.27,14.814c-0.982,2.277-1.388,4.7-2.208,7.021
				c-0.489,1.384-0.911,2.247,0.018,3.508c0.198,0.269,0.691,0.125,0.578-0.244c-0.526-1.727,0.729-4.398,1.19-6.137
				c0.62-2.339,1.578-4.519,2.528-6.739c1.737-4.062,3.976-7.839,5.791-11.856C27.306,74.349,26.685,73.978,26.488,74.404z"/>
		</g>
	</g>
</g>
<g>
</g>
<g>
</g>
<g>
</g>
<g>
</g>
<g>
</g>
<g>
</g>
<g>
</g>
<g>
</g>
<g>
</g>
<g>
</g>
<g>
</g>
<g>
</g>
<g>
</g>
<g>
</g>
<g>
</g>
</svg>
