<?xml version="1.0" encoding="iso-8859-1"?>
<!-- Generator: Adobe Illustrator 19.0.0, SVG Export Plug-In . SVG Version: 6.00 Build 0)  -->
<svg version="1.1" id="Layer_1" xmlns="http://www.w3.org/2000/svg" xmlns:xlink="http://www.w3.org/1999/xlink" x="0px" y="0px"
	 viewBox="0 0 109.559 109.559" style="enable-background:new 0 0 109.559 109.559;" xml:space="preserve">
<g>
	<g>
		<g>
			<path d="M97.192,45.907c-2.387-11.148-6.489-22.925-17.282-28.302c-4.677-2.33-8.921-3.716-14.231-3.13
				c-3.153,0.348-6.251,0.989-9.374,1.528c-1.584,0.273-2.774,1.244-4.02,2.042c-0.181-0.37-0.475-0.739-0.911-1.099
				c-2.763-2.284-7.49,0.176-10.747,2.087c-1.478-6.36-7.473-23.094-13.876-18.124c-3.632,2.818-2.928,8.322-1.278,11.958
				c1.949,4.295,5.414,7.51,8.029,11.27c-0.032,0.031-0.068,0.055-0.096,0.093c-1.183,1.655-3.477,2.591-4.99,3.896
				c-1.236,1.066-1.973,2.184-3.085,3.498c-1.556,1.837-4.551,4.086-4.373,6.75c0.016,0.232,0.091,0.44,0.201,0.623
				c-0.342,0.433-0.679,0.869-1.038,1.272c-1.567,1.76-3.397,3.27-4.849,5.129c-3.208,4.109-6.452,10.499-6.259,15.845
				c0.177,4.899,3.211,9.874,5.445,14.089c3.108,5.864,7.047,10.296,11.772,14.975c8.193,8.114,20.155,14.089,31.294,16.823
				c5.704,1.4,11.899,1.929,17.753,2.313c4.462,0.293,9.619,0.146,13.81-1.798c0.026,0.425,0.281,0.846,0.72,0.946
				c10.717,2.445,10.736-15.506,10.746-21.681C100.574,73.166,100.08,59.397,97.192,45.907z M27.177,33.47
				c2.086-2.5,5.853-4.778,7.305-7.81c0.236,0.395,0.479,0.785,0.688,1.198c0.203,0.4,0.921,0.228,0.874-0.237
				c-0.631-6.192-5.831-9.746-7.921-15.302c-2.085-3.623-1.43-6.2,1.965-7.73c0.675,0.816,1.278,1.683,1.809,2.601
				c1.032,1.74,1.757,3.667,2.455,5.558c1.158,3.141,1.794,6.429,3.74,9.135c-0.125,0.635,0.465,1.36,1.251,1.21
				c1.459-0.278,2.584-0.732,3.928-1.299c1.146-0.508,2.301-0.997,3.464-1.465c1.993-0.904,2.32-0.604,0.979,0.9
				c-1.78,0.158-1.829,2.727,0,2.807c0.73,0.032,6.351,2.39,6.354,2.736c0.018,1.618-6.605,0.983-7.441,0.955
				c-0.853-0.028-1.374,0.696-1.46,1.46c-0.173,1.537,2.104,7.758-1.205,7.599c-0.95-0.045-1.912-4.439-2.918-5.51
				c-0.399-0.425-1.24-0.114-1.197,0.496c0.166,2.352-2.503,9.248-5.313,7.887c-2.266-1.098-0.854-3.502-0.922-5.75
				c-0.022-0.732-0.694-1.256-1.411-1.075c-2.251,0.568-4.046,2.294-5.955,3.557c-0.621,0.426-1.25,0.839-1.887,1.24
				c-0.009,0.005-0.015,0.008-0.024,0.013C24.887,35.457,26.368,34.439,27.177,33.47z M13.529,66.098
				c-2.794-6.292-0.196-12.302,3.227-17.789c1.459-2.338,3.326-4.236,4.973-6.433c0.467-0.624,0.856-1.407,1.264-2.174
				c1.123-0.015,2.213-0.527,3.28-1.24c-0.011,0.026-0.023,0.058-0.034,0.083c-1.482,3.475-3.346,6.707-4.927,10.134
				c-1.752,3.797-3.6,7.584-4.989,11.533c-0.845,2.401-1.917,5.394-1.75,8.089C14.22,67.572,13.861,66.847,13.529,66.098z
				 M23.302,75.215c-0.331,2.141-0.88,4.183-0.508,6.201c-2.917-3.619-5.423-7.526-7.563-11.743
				c-0.132-6.887,3.636-13.709,6.332-19.822c1.326-3.006,3.135-5.798,4.356-8.843c0.259-0.646,0.583-1.876,1.032-3.026
				c1.466-1.09,2.892-2.447,4.301-3.299c-0.189,1.525-0.499,3.472-0.394,5.136c-0.036,0.029-0.069,0.068-0.095,0.12
				c-0.695,1.378-1.637,2.596-2.356,3.959c-0.777,1.471-1.362,3.04-2.089,4.537c-1.323,2.723-2.427,5.491-3.44,8.345
				c-0.448,1.261-0.887,2.523-1.315,3.789c-0.096-0.167-0.175-0.34-0.21-0.524c-0.064-0.329-0.559-0.239-0.568,0.077
				c-0.013,0.444,0.175,0.935,0.465,1.37c-0.536,1.614-1.047,3.236-1.513,4.876c-0.832,2.931-1.685,5.685-1.304,8.754
				c0.017,0.14,0.25,0.21,0.276,0.037c0.657-4.408,1.883-8.663,3.276-12.878c0.231,0.169,0.479,0.293,0.728,0.348
				c1.302,0.289,2.115-1.242,2.033-2.345c-0.029-0.384-0.224-1.132-0.766-1c-0.517,0.126-0.513,0.917-0.579,1.322
				c-0.078,0.48-0.276,1.139-0.882,0.855c-0.075-0.035-0.144-0.088-0.216-0.133c0.435-1.294,0.882-2.585,1.333-3.876
				c1.071-3.069,2.239-6.047,3.61-8.996c1.181-2.542,2.535-4.953,3.78-7.441c0.211,0.887,0.632,1.596,1.364,1.993
				c-0.932,3.341-2.221,6.604-3.242,9.918c-1.142,3.71-2.209,7.432-3.192,11.188c-0.429,1.641-0.885,3.282-1.314,4.928
				c-0.727,1.058-1.025,2.511-0.907,3.858C23.576,73.669,23.422,74.438,23.302,75.215z M26.995,86.106
				c-1.126-1.14-2.207-2.311-3.23-3.521c-0.073-2.523,0.185-5.03,0.628-7.521c0.508,0.736,1.684,0.37,1.709-0.529
				c0.037-1.287-0.141-3.578,0.777-4.611c0.765-0.861,0.022-1.944-0.866-1.913c0.476-1.806,0.971-3.604,1.426-5.393
				c0.881-3.47,1.905-6.896,2.918-10.329c0.888-3.008,2.01-5.97,2.828-8.999c0.231,0.042,0.48,0.066,0.755,0.063
				c4.259-0.06,6.029-5.415,6.829-9.534c0.196,0.768,0.406,1.562,0.676,2.297c-0.599,1.203-1.234,2.403-1.692,3.662
				c-0.692,1.901-1.017,3.905-1.748,5.801c-0.393,1.02-1.015,2.196-1.569,3.419c-0.111-0.303-0.62-0.373-0.733,0.02
				c-1.096,3.833-1.637,7.74-2.307,11.65c-0.71,4.145-2.529,8.074-3.592,12.142c-0.281-0.729-1.313-1.248-2.115-0.577
				c-0.955,0.8-1.13,2.278-1.187,3.436c-0.062,1.254-0.036,2.968,1.353,3.475c0.128,0.047,0.276,0.048,0.424,0.031
				c-0.346,1.521-0.686,3.042-1.011,4.567C27.135,84.366,26.933,85.294,26.995,86.106z M29.519,73.951
				c-0.085,0.342-0.165,0.687-0.248,1.032c0.004-0.089-0.001-0.18,0.007-0.268c0.017-0.187,0.024-0.393,0.079-0.572
				c0.011-0.035,0.015-0.056,0.019-0.077c0.019-0.008,0.045-0.023,0.086-0.057C29.484,73.99,29.499,73.97,29.519,73.951z
				 M74.887,105.632c0.007-0.223-0.216-0.411-0.476-0.291c-0.878,0.405-3.392-8.688-3.669-9.53
				c-0.872-2.644-1.646-5.316-2.256-8.026c0.63,0.242,1.447,0.05,2.019-0.223c0.466-0.223,0.988-0.564,1.348-1
				c0.182,0.956,0.426,1.905,0.637,2.887c0.485,2.261,0.867,4.538,1.393,6.791c0.134,0.573,0.274,1.177,0.421,1.79
				c-0.056,0.051-0.106,0.105-0.166,0.154c-0.475,0.398-0.039,1.017,0.461,1.021c0.632,2.406,1.519,4.856,3.126,6.597
				C76.768,105.76,75.815,105.705,74.887,105.632z M96.607,93.37c-0.207,4.694-1.412,9.363-5.052,12.158
				c-0.039-0.625-0.526-1.204-1.257-0.914c-0.864,0.343-2.306,0.611-3.771,0.808c0.505-0.8,0.321-2.342,0.275-3.061
				c-0.249-3.905-0.658-7.829-0.738-11.741c-0.013-0.627-0.976-0.63-0.977,0c-0.003,3.325,0.301,6.633,0.387,9.955
				c0.028,1.1,0.664,3.965-0.117,4.826c-0.046,0.051-0.071,0.111-0.079,0.172c-1.078,0.117-2.084,0.195-2.778,0.232
				c-1.167,0.063-2.369,0.067-3.571,0.038c0.021-0.38,0.019-0.321-0.135-0.785c-0.048-0.146-0.183-0.177-0.293-0.135
				c-1.017-2.254-1.959-4.414-2.719-6.718c0.228-0.342,0.385-0.725,0.416-1.163c0.027-0.399-0.029-0.816-0.199-1.181
				c-0.203-0.439-0.635-0.74-0.761-1.218c-0.021-0.081-0.099-0.176-0.188-0.188c-0.101-0.014-0.203-0.027-0.304-0.041
				c-0.149-0.647-0.3-1.294-0.441-1.943c0.953,0.684,2.124,0.458,3.045-0.467c0.261-0.262,0.545-0.639,0.797-1.062
				c0.206,0.843,0.431,1.683,0.597,2.535c0.435,2.227,0.627,4.385,1.221,6.579c0.434,1.605,0.737,5.518,3.111,5.37
				c0.264-0.017,0.41-0.327,0.218-0.527c-1.814-1.888-2.499-5.831-2.943-8.34c-0.358-2.022-0.746-3.987-1.241-5.981
				c-0.132-0.531-0.207-1.092-0.285-1.656c0.003-0.207-0.028-0.405-0.087-0.594c-0.133-0.867-0.319-1.715-0.773-2.438
				c-0.307-0.488-1.079-0.043-0.776,0.453c0.233,0.381,0.341,0.852,0.415,1.338c-0.096,0.043-0.184,0.096-0.273,0.19
				c-0.08,0.083-0.133,0.224-0.09,0.338c0.031,0.081,0.064,0.141,0.099,0.199c-0.108,0.826-0.219,1.567-0.719,2.317
				c-0.554,0.832-1.41,1.459-2.217,0.563c-0.124-0.137-0.263-0.165-0.391-0.137c-0.088-0.4-0.174-0.801-0.265-1.2
				c-0.483-2.118-1.23-4.13-1.193-6.334c0.01-0.62-0.935-0.616-0.961,0c-0.006,0.149-0.002,0.295-0.002,0.442
				c-0.407-0.361-0.935-0.619-1.422-0.788c-0.244-0.085-0.541,0.191-0.442,0.442c0.223,0.565,0.695,0.959,0.974,1.486
				c0.247,0.467-0.415,0.836-0.781,1.069c-0.264,0.168-0.927,0.521-1.181,0.292c-0.295-0.266-0.189-1.098-0.201-1.442
				c-0.013-0.385-0.393-0.52-0.663-0.407c-0.148-0.861-0.284-1.724-0.391-2.593c-0.063-0.514-0.876-0.529-0.82,0
				c0.555,5.262,1.81,10.275,3.342,15.326c0.54,1.782,1.064,6.089,2.77,8.019c-4.167-0.331-8.489-0.706-12.507-1.54
				c-5.071-1.053-10.385-2.857-15.424-5.244c0.539-0.247,0.714-0.449,0.868-1.023c0.042-0.156-0.184-0.258-0.264-0.111
				c-0.543,0.997-1.383-3.536-1.395-3.73c-0.08-1.256-0.2-2.49-0.321-3.745c-0.06-0.619-0.083-1.233-0.097-1.845
				c0.349,0.459,0.888,0.752,1.485,0.489c0.704-0.311,0.875-1.283,0.628-1.945c-0.151-0.405-0.712-0.651-1.128-0.738
				c-0.29-0.06-0.046,0.017-1.046,0.111c0-0.007,0-0.016,0-0.023c0-0.207,0.063-0.337-0.115-0.375c0.064-1.425,0.29-2.848,0.4-4.294
				c0.449-5.926,0.727-11.893,1.146-17.831c0.043-0.618-0.891-0.614-0.936,0c-0.23,3.128-0.566,6.245-0.794,9.372
				c-0.003,0.045,0.002,0.091-0.001,0.136c-0.2-1.248-1.591-2.427-2.805-2.142c-0.488,0.115-0.589,0.639-0.42,1.035
				c0.027,0.073,0.056,0.146,0.083,0.22c0.109,0.299,0.519,0.48,0.764,0.202c0.009-0.011,0.02-0.02,0.029-0.031
				c0.55,0.155,1.165,0.759,0.963,1.319c-0.339,0.938-1.732,0.17-2.15-0.276c-0.098-0.105-0.24-0.07-0.329,0.015
				c0.503-5.115,1.006-10.23,1.44-15.349c0.03-0.357-0.519-0.351-0.555,0c-0.085,0.838-0.169,1.68-0.254,2.52
				c-0.049-0.182-0.115-0.362-0.202-0.537c-0.372-0.752-1.191-1.345-2.05-1.489c0.281-1.615,0.545-3.234,0.777-4.858
				c0.092-0.643-0.891-0.923-0.987-0.272c-0.256,1.746-0.551,3.485-0.862,5.221c-0.105,0.038-0.212,0.07-0.312,0.128
				c-0.218,0.125-0.212,0.447,0,0.573c0.055,0.033,0.114,0.057,0.172,0.084c-0.113,0.622-0.23,1.243-0.347,1.865
				c-0.306-0.791-0.373-1.778-0.325-2.463c0.074-0.026,0.147-0.051,0.221-0.077c0.203-0.071,0.188-0.416-0.054-0.399
				c-0.138,0.01-0.276,0.02-0.415,0.029c-0.125,0.009-0.206,0.076-0.25,0.19c-0.461,1.191-0.262,3.002,0.56,4.111
				c-0.858,4.504-1.754,9.001-2.386,13.543c-0.241,1.727-0.573,3.495-0.82,5.267c-0.054-0.249-0.117-0.495-0.196-0.738
				c-0.076-0.237-0.106-0.498-0.228-0.722c-0.138-0.254-0.348-0.488-0.536-0.706c-0.766-0.889-2.239,0.265-1.62,1.25
				c0.424,0.675,0.789,1.289,1.022,2.063c0.079,0.263,0.314,0.567,0.608,0.608c0.255,0.036,0.443,0.038,0.671-0.088
				c0.036-0.02,0.057-0.049,0.087-0.072c-0.094,0.937-0.152,1.871-0.137,2.798c0.024,1.585,0.052,4.601,1.352,5.732
				c0.163,0.141,0.391,0.154,0.553,0c0.136-0.129,0.273-0.259,0.409-0.388c0.181-0.172-0.007-0.473-0.239-0.411
				c-1.041,0.276-0.781-7.444-0.731-7.829c0.421-3.248,0.85-6.51,1.366-9.743c0.522-3.273,1.145-6.527,1.754-9.784
				c0.409,0.188,0.886,0.255,1.437,0.133c0.729-0.162,1.232-0.604,1.521-1.161c-0.71,7.056-1.44,14.15-2.431,21.145
				c-0.28,1.977-1.989,8.984,0.951,9.744c0.214,0.055,0.403-0.102,0.414-0.315c0.008-0.151,0.015-0.301,0.023-0.452
				c0.011-0.228-0.345-0.336-0.444-0.12c0,0.001-0.541-2.056-0.55-2.401c-0.025-1.019,0.061-2.042,0.158-3.055
				c0.164-1.715,0.455-3.415,0.616-5.13c0.256-2.72,0.523-5.44,0.79-8.16c0.441,0.614,0.918,1.143,1.675,1.37
				c0.809,0.243,1.632-0.153,2.041-0.883c0.062-0.111,0.105-0.225,0.139-0.341c-0.171,2.987-0.15,5.975-0.429,8.956
				c-0.473,5.05-0.577,10.892,1.55,15.587c-4.849-2.341-9.427-5.216-13.26-8.481c-0.913-0.778-1.792-1.578-2.647-2.392
				c0.087-0.103,0.174-0.207,0.262-0.31c0.146-0.174-0.034-0.414-0.241-0.313c-0.892,0.435-0.125-3.344-0.042-3.659
				c0.333-1.267,0.573-2.55,0.856-3.831c0.768-3.478,1.544-7.002,2.65-10.389c0.982-3.007,2.162-5.972,2.532-9.137
				c0.224-1.914,0.517-3.846,0.876-5.764c0.001,0.005,0.001,0.009,0.002,0.014c0.06,0.278,0.434,0.182,0.46-0.062
				c0.34-3.199,2.277-6.097,3.324-9.106c0.531-1.527,0.784-3.12,1.276-4.656c0.367-1.146,0.91-2.237,1.422-3.336
				c0.754,1.507,1.934,2.501,4.12,1.932c4.497-1.17,2.573-5.896,2.176-9.235c3.394,0.175,5.948,0.23,8.727-2.558
				c0.339-0.34,0.569-0.961,0.379-1.433c-0.792-1.967-3.249-3.677-5.721-4.648c0.306-0.316,0.554-0.658,0.73-1.015
				c2.635-0.246,5.386-0.922,7.937-1.25c5.963-0.768,10.873-1.236,16.494,1.262c10.074,4.478,14.137,15.066,16.44,25.202
				c1.088,4.79,1.629,9.671,2.313,14.528c0.802,5.691,0.516,11.312,0.996,17.027C96.875,82.237,96.846,87.948,96.607,93.37z
				 M37.371,62.579c-0.102-0.028-0.186-0.085-0.275-0.134c0.163-0.88,0.323-1.761,0.481-2.642c0.396,0.112,0.768,0.265,1.028,0.635
				C39.274,61.394,38.686,62.947,37.371,62.579z"/>
			<path d="M55.121,90.326c0.008-1.896,0.018-3.792,0.002-5.688c-0.011-1.308-0.092-2.609-0.191-3.908
				c0.28-0.095,0.525-0.265,0.707-0.569c0.365-0.608,0.239-1.379-0.118-1.961c-0.147-0.24-0.489-0.807-0.851-0.849
				c-0.026-0.353-0.055-0.706-0.077-1.06c-0.112-1.807,0.322-3.782-0.651-5.385c-0.284-0.468-1.008-0.048-0.735,0.43
				c0.642,1.122,0.387,2.353,0.402,3.566c0.016,1.235,0.121,2.22,0.215,3.451c0.026,0.34,0.035,0.768,0.058,0.768
				c-0.004,0-0.012,0-0.016,0c-0.112,1-0.263,0.227-0.376,0.243c0-0.019,0.005,0.092-0.016,0.047
				c0.029-0.137-0.029-0.289-0.017-0.439c0.01-0.138,0.026-0.243,0.028-0.381c0.009-0.532-0.786-0.507-0.82,0.015
				c-0.038,0.573-0.342,1.315,0.117,1.801c0.269,0.285,0.758,0.368,1.168,0.399c0.094,1.746,0.154,3.49,0.125,5.251
				c-0.043,2.549-0.091,5.1-0.094,7.65c-0.003,2.327,0.491,4.465,0.658,6.773l0.011-0.001c0.003,0.463,0.764,0.618,0.843,0.117
				c0.266-1.684-0.065-3.395-0.258-5.104c0.405,0.118,0.873,0.037,1.169-0.273c0.854-0.896,0.673-2.452,0.59-3.597
				C56.912,90.501,55.912,90.071,55.121,90.326z"/>
			<path d="M50.641,55.078c1.29-2.879-2.999-5.015-4.342-2.119c-0.121,0.261,0.149,0.64,0.438,0.438
				c0.576-0.402,1.476-0.72,2.165-0.406c0.676,0.308,0.842,1.07,0.532,1.714c-0.592,1.232-2.804,1.368-3.028-0.175
				c-0.056-0.387-0.684-0.29-0.675,0.091C45.793,57.345,49.701,57.175,50.641,55.078z"/>
			<path d="M62.11,46.207c-0.344-0.972-1.363-1.811-2.357-2.052c-0.634-0.154-2.02,0.204-1.441,1.119
				c0.102,0.161,0.34,0.209,0.479,0.062c0.028-0.029,0.217-0.152,0.121-0.103c0.009-0.005,0.011-0.008,0.018-0.012
				c0.02,0.009,0.048,0.019,0.088,0.029c0.243,0.066,0.467,0.148,0.692,0.266c0.477,0.251,1.109,0.704,1.214,1.272
				c0.173,0.936-0.702,0.889-1.272,0.58c-0.651-0.353-1.238-0.931-1.989-1.061c-0.404-0.07-0.585,0.535-0.172,0.625
				c1.193,0.262,1.826,1.842,3.144,1.784C61.84,48.664,62.473,47.235,62.11,46.207z"/>
			<path d="M70.879,39.707c0.674-0.803,1.039-1.991,0.268-2.86c-0.556-0.626-2.144-1.214-2.81-0.465
				c-0.126,0.142-0.126,0.332,0,0.475c0.414,0.471,1.73,0.404,1.855,1.176c0.062,0.385-0.356,0.976-0.612,1.237
				c-0.22,0.224-0.495,0.409-0.821,0.423c-0.309,0.013-1.191-0.275-0.513-0.78c0.345-0.257,0.017-0.843-0.343-0.587
				c-0.829,0.589-0.73,1.446,0.064,2.031C68.958,41.087,70.163,40.561,70.879,39.707z"/>
			<path d="M75.254,30.927c0.419-0.285,0.896-0.305,1.38-0.279c0.378,0.02,1.075-0.022,1.376,0.27c0.6,0.581-1.036,1.821-1.12,0.702
				c-0.025-0.332-0.551-0.458-0.621-0.084c-0.468,2.472,3.277,1.707,3.257-0.419c-0.022-2.267-3.625-2.018-4.703-0.749
				C74.58,30.656,74.898,31.17,75.254,30.927z"/>
			<path d="M61.498,63.252c0.968,0.47,1.42,1.648,2.48,2.028c1.091,0.391,1.987-0.426,2.429-1.36c0.45-0.95,0.661-2.166,0.436-3.202
				c-0.191-0.879-0.958-1.988-1.971-1.445c-0.197,0.106-0.243,0.364-0.144,0.55c0.316,0.598,0.685,0.911,0.72,1.636
				c0.032,0.679-0.102,1.434-0.385,2.055c-0.432,0.947-1.042,0.647-1.777,0.218c-0.545-0.318-1.069-0.687-1.711-0.764
				C61.425,62.95,61.367,63.188,61.498,63.252z"/>
			<path d="M73.252,51.317c-0.254-0.17-0.606,0.112-0.516,0.397c0.132,0.421,0.283,0.775,0.451,1.18
				c0.19,0.456,0.276,0.736-0.082,1.145c-0.595,0.681-1.707,0.595-2.53,0.632c-0.578,0.026-0.578,0.869,0,0.898
				c0.721,0.037,1.425,0.247,2.15,0.118c0.687-0.122,1.29-0.532,1.689-1.102C75.343,53.255,74.367,52.06,73.252,51.317z"/>
			<path d="M83.148,47.4c-0.722-1.916-3.433-0.548-4.294,0.5c-0.214,0.26,0.054,0.684,0.379,0.491
				c0.436-0.259,2.171-1.059,2.608-0.534c0.299,0.359-0.304,1.133-0.472,1.389c-0.236,0.359-0.814,1.252-1.294,1.313
				c-0.697,0.088-0.739,1.171,0,1.125c0.954-0.059,1.752-0.96,2.32-1.646C83.005,49.302,83.514,48.371,83.148,47.4z"/>
			<path d="M66.372,74.273c-0.399,0.173-0.152,0.726,0.203,0.75c0.778,0.052,1.363,0.751,1.193,1.508
				c-0.243,1.079-1.464,1.153-2.388,1.166c-0.029-0.068-0.056-0.136-0.085-0.205c-0.105-0.242-0.472-0.105-0.473,0.128
				c-0.002,0.517,0.046,0.691,0.543,0.904c0.45,0.193,0.995,0.242,1.48,0.218c1.009-0.049,1.899-0.759,2.248-1.695
				c0.29-0.779,0.165-1.693-0.348-2.351C68.088,73.858,67.262,73.887,66.372,74.273z"/>
			<path d="M76.797,68.688c1.012-0.241,1.887-1.114,2.171-2.108c0.153-0.537,0.124-1.216-0.198-1.689
				c-0.271-0.398-1.132-1.107-1.532-0.468c-0.267,0.426,0.248,1.05,0.305,1.4c0.051,0.313-0.081,0.655-0.344,1.011
				c-0.203,0.273-0.597,0.606-0.944,0.69c-0.151,0.037-0.279,0.046-0.377-0.016c-0.182-0.114-0.261-0.309-0.324-0.52
				c-0.182-0.617-1.085-0.359-0.957,0.264C74.819,68.333,75.711,68.947,76.797,68.688z"/>
			<path d="M83.575,62.074c-0.697,0.053-0.71,1.063,0,1.094c1.179,0.051,2.1-1.035,2.196-2.153c0.043-0.509-0.113-1.059-0.558-1.352
				c-0.46-0.302-1.188-0.241-1.495,0.249c-0.11,0.175-0.052,0.476,0.149,0.566c0.149,0.067,0.284,0.081,0.441,0.114
				c0.042,0.009,0.08,0.028,0.099,0.035c0.016,0.036,0.033,0.078,0.039,0.115c0.006,0.035,0.001,0.247-0.016,0.349
				C84.37,61.454,84.058,62.037,83.575,62.074z"/>
			<path d="M78.677,77.388c-0.373,0.656-0.19,1.649-0.23,2.376c-0.042,0.772-0.684,1.091-1.303,1.427
				c-0.041-0.061-0.077-0.126-0.098-0.201c-0.18-0.6-1.108-0.349-0.942,0.26c0.121,0.441,0.231,0.726,0.548,1.067
				c0.127,0.136,0.385,0.223,0.565,0.149c0.963-0.396,2.148-0.697,2.535-1.793c0.319-0.902,0.24-2.466-0.28-3.286
				C79.291,77.101,78.853,77.078,78.677,77.388z"/>
			<path d="M84.905,72.83c-0.23,0.131-0.216,0.571,0.08,0.614c0.156,0.023,0.517,0.195,0.691,0.194
				c-0.082,0.26-0.185,0.533-0.348,0.8c-0.354,0.579-0.843,1.27-1.395,1.742c-0.024-0.017-0.048-0.035-0.071-0.052
				c-0.52-0.381-1.178,0.472-0.691,0.896l0.363,0.316c0.204,0.178,0.474,0.226,0.716,0.092c1.104-0.61,2.187-1.82,2.676-2.978
				c0.251-0.594,0.313-1.225-0.134-1.676C86.232,72.212,85.491,72.499,84.905,72.83z"/>
			<path d="M86.082,86.037c-0.873-0.293-1.607,0.308-2.183,0.907c-0.181,0.188,0.004,0.465,0.243,0.418
				c0.293-0.057,0.528-0.17,0.764-0.212c-0.351,0.464-0.865,0.728-1.495,0.876c-0.662,0.156-0.538,1.29,0.164,1.212
				c1.425-0.158,2.545-0.976,2.984-2.36C86.675,86.512,86.421,86.151,86.082,86.037z"/>
			<path d="M40.394,91.431c0.373,0.191,0.696-0.253,0.436-0.565c-0.532-0.636-0.981-1.233-1.38-1.965
				c-0.267-0.49-1.018-0.052-0.749,0.438C39.125,90.111,39.58,91.013,40.394,91.431z"/>
			<path d="M50.967,100.119c-1.773-5-0.836-10.929-0.859-16.095c-0.018-4.009-0.046-8.044-0.077-12.073
				c0.791,0.254,1.98-0.13,2.569-0.715c0.551-0.548,0.853-1.527,0.68-2.288c-0.204-0.9-1.343-1.455-1.997-0.62
				c-0.196,0.251-0.133,0.581,0.183,0.692c0.046,0.016,0.286,0.089,0.31,0.084c0.052,0.03,0.114,0.065,0.157,0.087
				c-0.004,0.041,0.034,0.16,0.037,0.199c0.027,0.342-0.066,0.785-0.269,1.058c-0.23,0.309-0.663,0.535-1.024,0.663
				c-0.15,0.053-0.374,0.133-0.539,0.093c-0.05-0.012-0.081-0.037-0.114-0.062c-0.013-1.653-0.025-3.309-0.039-4.955
				c-0.004-0.528-0.816-0.563-0.82-0.034c-0.052,6.403-0.088,12.789-0.129,19.192c-0.018,2.816-0.319,5.64-0.142,8.454
				c0.127,2.021,0.233,4.753,1.382,6.48c0.248,0.372,0.797-0.16,0.682-0.16H50.967z"/>
			<polygon points="50.967,100.119 50.967,100.119 50.967,100.12 			"/>
			<path d="M62.948,103.042c-0.798-1.488-1.092-3.642-1.492-5.161c-0.144-0.547-0.273-1.1-0.412-1.649
				c0.352,0.049,0.711-0.013,1.034-0.252c0.482-0.357,0.724-1.096,0.202-1.564c-0.223-0.2-0.43-0.313-0.684-0.467
				c0.004,0.002-0.12-0.108-0.175-0.174c-0.258-0.308-0.678-0.378-1.066-0.3c-0.125-0.514-0.261-1.026-0.385-1.539
				c-1.032-4.272-1.419-8.922-1.461-13.316c-0.005-0.558-0.865-0.559-0.867,0c-0.018,4.809,0.403,9.743,1.521,14.425
				c0.097,0.407,0.192,0.816,0.287,1.225c-0.118,0.405-0.009,0.85,0.281,1.196c0,0,0,0.001,0.001,0.001
				c0.35,1.49,0.716,2.979,1.179,4.431c0.47,1.475,0.833,3.16,1.935,4.303c0.251,0.26,0.709-0.007,0.607-0.353
				c-0.075-0.256-0.15-0.512-0.225-0.768C63.188,102.952,63.012,102.936,62.948,103.042z"/>
			<path d="M64.315,92.848c-0.78-4.711-1.124-9.46-1.318-14.227c-0.022-0.54-0.859-0.545-0.844,0
				c0.138,4.848,0.362,9.723,1.085,14.524c0.617,4.101,1.398,8.429,4.111,11.702c0.23,0.278,0.574-0.037,0.535-0.312
				c-0.273-1.959-1.722-3.788-2.29-5.726C65.022,96.858,64.647,94.851,64.315,92.848z"/>
			<path d="M43.785,41.04c-0.64,2.02-1.27,4.077-2.206,5.982c-0.502,1.021-1.058,2.011-0.745,3.164c0.06,0.221,0.445,0.255,0.482,0
				c0.189-1.31,0.998-2.427,1.491-3.634c0.7-1.713,1.085-3.568,1.558-5.353C44.465,40.825,43.902,40.672,43.785,41.04z"/>
			<path d="M47.754,46.371c0.141,1.081-0.119,2.16,0.004,3.249c0.036,0.318,0.567,0.47,0.622,0.084
				c0.186-1.305,0.318-2.762-0.054-4.045c-0.074-0.256-0.393-0.337-0.584-0.154c-0.135,0.126-0.267,0.255-0.394,0.389
				C47.065,46.183,47.444,46.548,47.754,46.371z"/>
		</g>
	</g>
</g>
<g>
</g>
<g>
</g>
<g>
</g>
<g>
</g>
<g>
</g>
<g>
</g>
<g>
</g>
<g>
</g>
<g>
</g>
<g>
</g>
<g>
</g>
<g>
</g>
<g>
</g>
<g>
</g>
<g>
</g>
</svg>
