<?xml version="1.0" encoding="iso-8859-1"?>
<!-- Generator: Adobe Illustrator 19.0.0, SVG Export Plug-In . SVG Version: 6.00 Build 0)  -->
<svg version="1.1" id="Layer_1" xmlns="http://www.w3.org/2000/svg" xmlns:xlink="http://www.w3.org/1999/xlink" x="0px" y="0px"
	 viewBox="0 0 125.569 125.569" style="enable-background:new 0 0 125.569 125.569;" xml:space="preserve">
<g>
	<g>
		<g>
			<path d="M115.946,16.97c-4.77-6.196-12.002-12.536-19.462-15.144c-3.9-1.364-7.883-1.414-11.966-1.595
				c-4.586-0.204-9.414-0.482-13.961,0.213c-15.9,2.432-29.298,12.29-35.428,27.332c-2.51,6.159-3.701,12.881-3.855,19.566
				c-0.082,0.537-0.16,1.067-0.238,1.575c-0.55,3.56-0.704,7.597-0.462,11.197c0.163,2.431,1.008,6.372,2.917,8.72
				c-0.323-0.039-0.646-0.084-0.972-0.113c-5.933-0.526-11.643-0.793-17.404-2.511c-2.071-0.617-16.694-5.213-14.33,1.313
				c0.021,0.059,0.055,0.112,0.096,0.162C0.203,74.54,0.247,82.223,2.24,88.766c2.006,6.587,4.243,13.87,7.839,19.77
				c6.789,11.144,22.083,15.529,34.259,16.593c6.45,0.564,12.649,0.767,19.042-0.512c6.238-1.248,12.929-2.933,17.594-7.377
				c4.75-4.525,9.576-9.949,12.386-15.97c0.66-1.415,1.237-2.926,1.759-4.463c0.077,0.002,0.149,0.011,0.232,0.005
				c8.045-0.626,14.197-6.453,19.059-12.476c5.085-6.298,7.242-12.592,8.749-20.43C126.305,47.53,126.649,30.873,115.946,16.97z
				 M87.089,3.907c-0.062,0.458-0.046,0.963-0.005,1.468c-0.266-0.549-0.548-1.089-0.946-1.57
				C86.456,3.837,86.773,3.872,87.089,3.907z M85.688,14.725c0.01,0.145,0.064,0.257,0.134,0.353
				c-0.277-0.127-0.562-0.259-0.859-0.404c-0.214-0.102-0.475,0.174-0.271,0.35c0.514,0.443,0.99,0.872,1.444,1.301
				c-0.743-0.04-1.69,0.266-2.641,0.689c-0.115,0.001-0.227,0.009-0.337,0.023c0.176-0.397,0.238-0.819,0.113-1.275
				c-0.07-0.253-0.313-0.436-0.575-0.438c-0.218-0.001-0.428,0.024-0.636,0.054c0.544-0.384,1.072-0.793,1.568-1.251
				c0.291-0.268,0.19-0.734-0.12-0.931c-0.164-0.104-0.328-0.173-0.492-0.227c0.754-0.745,1.154-1.711,1.797-2.485
				c0.69,1.013,0.818,2.305,0.858,3.541C85.668,14.266,85.674,14.502,85.688,14.725z M87.001,14.224
				c-0.002-1.176,0.201-3.264,1.389-2.089c0.362,0.358,1.779,3.261,1.856,3.624c0.149,0.694,1.295,0.549,1.248-0.169
				c-0.032-0.498-0.104-3.173,0.154-2.967c0.134,0.107,0.145,1.2,0.2,1.427c0.182,0.757,0.661,1.676,0.891,2.36
				c0.212,0.629,0.981,0.563,1.216,0c0.367-0.88,0.998-4.189,1.748-1.677c0.294,0.986,0.408,1.915,0.96,2.802
				c0.273,0.439,0.813,0.376,1.097,0c0.228-0.301,0.416-0.617,0.593-0.936c0.013,1.045-0.103,2.094-0.171,3.143
				c-0.008,0.13,0.027,0.232,0.076,0.322c-0.878-0.606-1.821-1.211-2.822-1.848c-0.165-0.105-0.368,0.146-0.213,0.276
				c4.785,4.008,7.994,7.46,8.781,13.451c-0.276,0.51-0.54,1.027-0.764,1.564c-0.191,0.458,0.377,1.002,0.828,0.828
				c0.041-0.016,0.072-0.04,0.112-0.056c0.002,0.085,0.01,0.164,0.011,0.25c0.004,0.221-0.016,0.436-0.019,0.655
				c-0.546,0.686-0.99,1.4-0.981,2.18c0.005,0.436,0.39,0.707,0.798,0.649c-0.151,1.302-0.37,2.589-0.634,3.866
				c-0.41,0.781-0.836,1.554-1.347,2.299c-0.33,0.481,0.141,0.982,0.625,0.987c-0.484,2.118-0.96,4.242-1.223,6.42
				c-0.291,2.404,0.03,4.619,0.403,6.807c-0.072,0.167-0.142,0.334-0.192,0.509c-0.091,0.323,0.117,0.688,0.418,0.811
				c0.117,0.692,0.228,1.385,0.315,2.084c-0.997,1.096-1.981,2.2-2.885,3.383c-0.381,0.499,0.246,1.107,0.758,0.987
				c0.755-0.178,1.527-0.537,2.285-0.939c-0.056,1.302-0.193,2.568-0.409,3.8c-1.023,0.895-2.058,1.778-3.034,2.725
				c-0.512,0.496,0.02,1.308,0.673,1.156c0.576-0.135,1.117-0.443,1.632-0.818c-0.73,2.413-1.804,4.694-3.26,6.852
				c-0.072-0.057-0.147-0.109-0.229-0.149c-0.009-0.379-0.132-0.757-0.404-1.059c-2.536-2.803-6.3-2.027-9.708-2.491
				c-1.198-0.163-2.365-0.387-3.524-0.62c1.166-1.938,1.099-5.241,0.923-6.949c-0.583-5.666-0.315-9.769,3.417-14.312
				c1.728-2.104,3.787-4.103,4.551-6.808c0.695-2.463-0.052-4.558-0.985-6.828c-0.818-1.99-1.73-4.018-1.731-6.232
				c0-0.87,0.119-1.767,0.283-2.67c0.107-0.095,0.217-0.186,0.323-0.283c0.222-0.181,0.438-0.372,0.641-0.583
				c0.47-0.488-0.046-1.161-0.573-1.069c0.186-0.884,0.365-1.761,0.467-2.612c0.305-2.548,0.456-4.531-0.654-6.935
				c-1.09-2.359-2.511-3.08-4.483-3.983c0.308-0.02,0.593-0.224,0.585-0.632C87.012,14.559,87.006,14.391,87.001,14.224z
				 M88.695,10.367c0.711,0.307,1.42,0.599,2.123,0.873c-0.374,0.479-0.564,1.007-0.648,1.56c-0.132-0.227-0.257-0.457-0.363-0.695
				C89.482,11.376,89.188,10.851,88.695,10.367z M92.735,11.963c0.447,0.161,0.891,0.325,1.345,0.483
				c-0.392,0.594-0.608,1.25-0.798,1.924c-0.081-0.217-0.156-0.436-0.213-0.657c-0.131-0.508-0.047-1.158-0.277-1.644
				C92.773,12.027,92.754,12.001,92.735,11.963z M96.476,13.263c0.04,0.013,0.076,0.026,0.116,0.039
				c0.616,0.207,1.177,0.451,1.7,0.723c-0.035,0.036-0.069,0.073-0.095,0.12c-0.321,0.581-0.59,1.165-0.898,1.732
				C97.005,14.992,96.871,14.048,96.476,13.263z M99.445,19.912c0.164-0.517,1.146-3.795,1.585-3.725
				c0.039,0.006,0.257,1.852,0.276,2.212c0.069,1.323-0.027,2.649-0.108,3.97c-0.768-0.711-1.62-1.376-2.548-2.032
				C98.96,20.404,99.33,20.272,99.445,19.912z M99.436,14.7c0.251,0.17,0.49,0.351,0.722,0.537
				c-0.197,0.281-0.388,0.566-0.554,0.863C99.582,15.633,99.523,15.166,99.436,14.7z M102.725,22.182
				c-0.009,0.053-0.02,0.106-0.026,0.16c-0.064,0.512-0.066,1.038-0.048,1.565c-0.166-0.203-0.334-0.403-0.511-0.597
				c0.102-0.052,0.193-0.129,0.247-0.254C102.511,22.77,102.619,22.476,102.725,22.182z M102.709,17.887
				c0.198,0.253,0.394,0.512,0.588,0.776c-0.217,0.179-0.396,0.373-0.558,0.574C102.75,18.783,102.742,18.328,102.709,17.887z
				 M104.387,20.559c0.018-0.11,0.019-0.216,0.032-0.323c0.284,0.405,0.572,0.817,0.87,1.235c1.041,1.456,1.825,2.971,2.411,4.533
				c-0.132-0.113-0.293-0.189-0.464-0.178c0.031-0.475-0.056-0.971-0.437-1.294c-1.167-0.991-1.91,0.787-2.774,1.278
				c-0.026,0.015-0.042,0.034-0.06,0.052c-0.01-0.018-0.018-0.036-0.028-0.054c0.005-0.03,0.015-0.056,0.013-0.091
				c0.002-0.208,0.005-0.407,0.007-0.61c0.102-1.398,0.74-2.771,0.716-4.24C104.67,20.672,104.533,20.572,104.387,20.559z
				 M107.943,26.627c1.017,3.043,1.212,6.282,0.651,9.714c-0.307,1.864-0.954,3.69-1.49,5.529c-0.003-0.005-0.004-0.011-0.007-0.016
				c-0.541-0.78-1.214-0.653-1.898-0.208c0.035-0.199,0.069-0.398,0.102-0.597c0.199-0.371,0.403-0.74,0.623-1.103
				c0.667-1.102,1.606-2.025,1.81-3.344c0.051-0.331-0.08-0.758-0.469-0.827c-0.558-0.098-0.994-0.037-1.395,0.092
				c0.013-0.362,0.018-0.725,0.018-1.089c0.91-0.995,1.894-1.962,1.575-3.466c-0.114-0.541-0.767-0.597-1.129-0.298
				c-0.218,0.18-0.427,0.374-0.634,0.568c0.892-1.568,1.842-3.087,2.244-4.91C107.947,26.656,107.94,26.643,107.943,26.627z
				 M105.122,63.808c1.23-0.744,2.396-1.99,3.727-2.52c-0.434,0.758-1.188,1.51-1.608,2.095c-0.68,0.948-1.35,1.88-2.112,2.75
				C105.176,65.353,105.179,64.574,105.122,63.808z M110.345,65.423c-0.856,1.627-3.038,3.531-4,4.515
				c-0.639,0.654-1.285,1.303-1.929,1.953c0.146-0.721,0.27-1.441,0.35-2.152c0.019-0.171,0.039-0.345,0.059-0.518
				C106.5,67.832,108.413,66.237,110.345,65.423z M98.026,86.178c-0.081,0.187-0.161,0.373-0.242,0.56
				c-0.106,0.246-0.02,0.465,0.23,0.565c0.125,0.05,0.248,0.07,0.372,0.104c-0.119,0.267-0.05,0.591,0.148,0.786
				c-0.385,0.161-0.823,0.349-1.275,0.56c0.248-1.063,0.498-2.164,0.726-3.272c0.39-0.209,0.773-0.464,1.145-0.753
				c0.233-0.07,0.464-0.142,0.684-0.23c1.078-0.431,2.137-1.033,3.173-1.553c0.787-0.395,2.004-1.445,3.112-2.024
				c-1.897,2.215-4.141,4.048-6.583,5.634c-0.537,0.139-0.903,0.159-0.805-0.088C98.866,86.076,98.194,85.788,98.026,86.178z
				 M99.499,82.606c-0.351,0.279-0.746,0.673-1.166,1.044c-0.007,0.002-0.014,0.004-0.021,0.007
				c0.067-0.424,0.142-0.851,0.187-1.268c0.701-0.539,1.317-1.168,1.894-1.833c0.122,0.275,0.414,0.478,0.755,0.385
				c0.324-0.088,0.631-0.209,0.93-0.345C101.234,81.284,100.356,81.926,99.499,82.606z M101.75,78.736
				c0.649-1.026,1.19-2.123,1.628-3.266c1.043-0.78,2.017-1.672,2.926-2.565c1.146-1.125,2.318-2.594,3.781-3.393
				c-0.291,0.352-0.622,0.68-0.885,1.018c-1.031,1.323-1.827,2.793-2.939,4.06C104.897,76.144,103.286,77.395,101.75,78.736z
				 M104.81,43.703c0.476-0.498,0.879-0.838,0.558,0.208c-0.155,0.503-0.535,1.098-0.942,1.676
				C104.556,44.958,104.684,44.33,104.81,43.703z M104.506,26.988c0.055-0.014,0.111-0.032,0.168-0.064
				c0.782-0.444,1.685-1.874,0.757-0.186c-0.219,0.399-0.404,0.784-0.571,1.17C104.75,27.59,104.632,27.284,104.506,26.988z
				 M106.341,44.843c0.034-0.051,0.073-0.112,0.11-0.169c-0.08,0.5-0.133,1.004-0.154,1.51c-0.427,0.287-0.843,0.588-1.241,0.918
				c-0.372,0.309-0.729,0.712-1.101,1.103C104.708,47.011,105.691,45.837,106.341,44.843z M104.501,49.517
				c0.491-0.491,0.983-0.94,1.491-1.367c-0.456,0.547-0.957,1.066-1.377,1.598c-0.434,0.549-0.852,1.11-1.272,1.67
				c0.043-0.35,0.085-0.7,0.145-1.049c0.001-0.006,0.002-0.012,0.003-0.017C103.838,50.14,104.143,49.874,104.501,49.517z
				 M106.926,50.717c0.032,0.102,0.071,0.201,0.104,0.302c-0.466,1.16-1.666,2.62-2.062,3.196c-0.484,0.703-1.121,1.37-1.719,2.06
				c-0.001-0.007-0.002-0.013-0.003-0.021c-0.063-0.761-0.081-1.518-0.073-2.275C104.29,52.834,105.592,51.604,106.926,50.717z
				 M104.152,59.803c-0.096-0.267-0.189-0.535-0.28-0.804c0.484-0.295,0.955-0.614,1.462-0.92c0.129-0.078,0.264-0.142,0.396-0.214
				C105.214,58.52,104.697,59.176,104.152,59.803z M105.295,56.61c-0.364,0.184-0.706,0.396-1.044,0.613
				c0.503-0.576,1.028-1.137,1.371-1.623c0.561-0.796,1.126-1.596,1.627-2.431c0.113-0.189,0.239-0.397,0.366-0.612
				c0.33,0.779,0.695,1.546,1.084,2.305c-0.102,0.001-0.205,0.023-0.306,0.097C107.417,55.668,106.361,56.072,105.295,56.61z
				 M105.723,37.912c0.022-0.214,0.042-0.429,0.059-0.643c0.128-0.053,0.256-0.108,0.383-0.144
				C106.043,37.398,105.888,37.657,105.723,37.912z M80.559,72.371c-0.692,0.336-1.58,0.89-2.455,1.219
				c-0.083-0.008-0.165-0.02-0.248-0.027c1.559-1.817,4.004-2.966,5.566-4.852c0.09,2.201,0.017,4.302-0.565,5.63
				c-0.861-0.173-1.724-0.332-2.592-0.472c0.296-0.175,0.589-0.349,0.874-0.506C81.793,73.002,81.218,72.052,80.559,72.371z
				 M73.643,62.049c-0.641,0.558-1.206,1.163-1.584,1.832c-0.267,0.474,0.176,1.087,0.716,0.932
				c0.528-0.152,1.037-0.346,1.537-0.564c0.027,0.112,0.042,0.219,0.065,0.33c-0.712,0.58-1.387,1.204-1.963,1.952
				c-0.351,0.455,0.228,1.092,0.724,0.942c0.484-0.146,0.967-0.355,1.448-0.582c-0.016,0.44-0.064,0.876-0.148,1.309
				c-0.747,0.613-1.42,1.295-1.877,2.161c-0.257,0.488,0.169,1.105,0.729,0.949c0.011-0.003,0.02-0.008,0.03-0.011
				c-0.087,0.172-0.163,0.339-0.259,0.516c-0.32,0.589-0.665,1.142-0.936,1.713c-4.889,0.075-9.646,0.076-14.386-1.32
				c0.407,0.107,0.833-0.237,0.845-0.666c0.018-0.645-0.058-1.25-0.183-1.833c0.005-0.005,0.009-0.01,0.013-0.014
				c1.35-1.403,2.758-2.752,4.134-4.128c0.258-0.258-0.13-0.64-0.398-0.398c-1.271,1.15-2.673,2.344-4.003,3.611
				c-0.441-1.323-1.16-2.525-1.918-3.704c0.067-0.053,0.134-0.107,0.201-0.16c3.064-2.442,6.35-4.552,9.638-6.673
				c0.467-0.301,0.037-1.048-0.438-0.749c-3.41,2.146-6.706,4.371-9.922,6.772c-0.411-0.638-0.813-1.277-1.164-1.935
				c0.046-0.031,0.089-0.066,0.135-0.097c3.457-2.346,7.035-4.497,10.379-7.008c0.42-0.316,0.011-1.034-0.418-0.715
				c-3.381,2.513-6.999,4.67-10.488,7.021c-0.312-0.689-0.551-1.406-0.68-2.166c0.995-0.556,1.778-1.241,1.983-2.274
				c0.101-0.505-0.296-0.893-0.797-0.797c-0.359,0.068-0.733,0.156-1.113,0.256c0.004-0.017,0.005-0.033,0.009-0.05
				c3.583-2.396,7.239-4.674,11.004-6.775c0.466-0.26,0.05-0.971-0.418-0.715c-3.46,1.888-6.837,3.924-10.143,6.069
				c0.083-0.201,0.172-0.399,0.266-0.594c0.181-0.154,0.364-0.304,0.535-0.471c0.21-0.205,0.215-0.504,0.1-0.741
				c0.638-1.132,1.311-2.238,1.673-3.504c2.914-1.437,5.855-2.815,8.879-4.035c0.445-0.18,0.254-0.911-0.201-0.731
				c-2.881,1.138-5.689,2.41-8.469,3.743c0.004-0.035,0.016-0.066,0.02-0.101c0.129-1.172-0.044-2.057-0.314-2.962
				c2.522-1.016,5.063-1.831,7.573-2.956c0.486-0.218,0.065-0.929-0.418-0.715c-2.432,1.077-4.891,2.06-7.357,3.026
				c-0.143-0.437-0.297-0.893-0.442-1.403c-0.266-0.932-0.348-1.834-0.309-2.713c3.766-1.349,7.571-2.583,11.418-3.684
				c0.473-0.135,0.272-0.873-0.203-0.738C63,37.56,59.285,38.745,55.609,40.039c0.012-0.082,0.033-0.162,0.047-0.243
				c0.149-0.117,0.3-0.231,0.445-0.357c0.321-0.278,0.157-0.697-0.145-0.867c0.275-0.872,0.657-1.72,1.134-2.538
				c0.182-0.124,0.354-0.258,0.516-0.404c0.864-0.386,1.732-0.762,2.614-1.096c3.257-1.232,6.521-2.437,9.739-3.769
				c0.48-0.198,0.273-0.99-0.218-0.791c-3.521,1.427-7.102,2.677-10.656,4.016c-0.229,0.086-0.456,0.178-0.683,0.268
				c-0.011-0.04-0.028-0.074-0.047-0.111c1.244-1.654,2.732-3.196,4.124-4.636c1.639-0.483,3.29-0.929,4.963-1.307
				c0.437-0.099,0.252-0.766-0.185-0.67c-1.283,0.282-2.549,0.614-3.807,0.966c0.167-0.175,0.335-0.351,0.496-0.523
				c1.504-1.615,2.486-2.762,3.336-4.742c1.372-0.308,2.702-0.67,3.819-1.615c0.35-0.296-0.154-0.794-0.503-0.503
				c-0.797,0.666-1.876,1.108-3.043,1.44c0.286-0.786,0.516-1.734,0.759-2.732c1.833-0.463,3.671-0.986,5.535-1.176
				c0.356-0.036,0.361-0.597,0-0.563c-1.818,0.176-3.591,0.643-5.369,1.068c0.401-1.595,0.891-3.232,1.756-4.455
				c1.305-0.271,2.61-0.541,3.901-0.878c1.022,0.108,2.203-0.144,3.377-0.475c0.099,0.096,0.198,0.191,0.332,0.296
				c0.007,0.005,0.016,0.006,0.023,0.011c-1.29,0.82-2.782,1.454-3.928,1.614c-0.704,0.098-0.543,1.299,0.169,1.246
				c1.592-0.119,3.262-0.307,4.753-0.92c0.753-0.31,1.911-1.227,2.93-1.473c-1.576,1.191-3.402,2.036-5.018,3.178
				c-0.413,0.292-0.346,0.785-0.029,1.012c-0.016,0.025-0.024,0.054-0.011,0.087c0.329,0.9,0.825,1.685,1.334,2.468
				c0.031,0.092,0.083,0.176,0.157,0.242c0.643,0.988,1.28,1.991,1.605,3.236c0.21,0.803,0.366,1.646,0.487,2.509
				c-0.041,0.19-0.067,0.387-0.068,0.597c-0.001,0.154,0.08,0.3,0.192,0.412c0.214,1.954,0.283,3.97,0.381,5.858
				c-0.051,0.187-0.091,0.379-0.11,0.582c-0.012,0.136,0.054,0.29,0.156,0.412c0.042,0.908,0.037,1.78-0.015,2.619
				c-0.396,0.32-0.801,0.631-1.224,0.92c-0.497,0.34-0.343,1.187,0.32,1.181c0.231-0.002,0.46-0.032,0.686-0.076
				c-0.092,0.591-0.209,1.168-0.346,1.734c-0.896,0.68-1.724,1.419-2.224,2.278c-0.282,0.484,0.183,1.076,0.719,0.936
				c0.188-0.049,0.364-0.121,0.548-0.179c-0.309,0.787-0.66,1.56-1.042,2.329c-0.844,0.807-1.496,1.742-1.601,2.922
				c-0.652,1.1-1.357,2.215-2.1,3.372C72.395,56.166,72.539,58.596,73.643,62.049z M54.54,69c-1.083-0.456-2.283,0.421-3.297,0.827
				c0.589-0.613,1.143-1.27,1.462-2.018c0.008-0.006,0.016-0.011,0.023-0.016c0.685-0.493,1.351-1.009,2.013-1.531
				c0.258,0.403,0.51,0.811,0.739,1.235c0.182,0.337,0.625,1.761,1.055,2.915c-0.369,0.401-0.72,0.813-1.055,1.232
				c-0.306-0.062-0.615-0.102-0.923-0.153c0.252-0.574,0.44-1.172,0.471-1.85C55.043,69.32,54.805,69.111,54.54,69z M53.229,71.282
				c-0.653-0.084-1.309-0.155-1.967-0.215c0.065-0.024,0.124-0.041,0.192-0.069c0.231-0.093,1.641-0.943,1.774-0.829
				C53.487,70.392,53.415,70.82,53.229,71.282z M48.35,67.128c0-0.002,0-0.003,0-0.005c1-0.995,3.308-2.25,4.356-3.57
				c0.03-0.022,0.126-0.043,0.156-0.065c0.396,0.647,0.89,1.279,1.317,1.915c-0.37,0.268-0.836,0.559-1.349,0.874
				c-0.125-0.163-0.443-0.281-0.643-0.264C51.504,66.072,49.35,66.973,48.35,67.128z M50.311,67.958
				c-0.505,0.399-0.95,0.825-1.289,1.278c-0.046-0.278-0.091-0.556-0.144-0.833C49.348,68.308,49.834,68.14,50.311,67.958z
				 M45.68,59.16c-0.172-0.363-0.342-0.728-0.513-1.098c1.179-0.28,2.352-1.077,3.422-1.479c0.117-0.044,0.232-0.094,0.349-0.14
				C47.732,57.188,46.587,58.012,45.68,59.16z M46.341,60.522c-0.004,0.004-0.008,0.007-0.012,0.01
				c-0.002-0.005-0.005-0.01-0.007-0.015C46.328,60.519,46.335,60.52,46.341,60.522z M48.749,39.929
				c1.699-0.827,3.411-1.624,5.136-2.397c0.028-0.013,0.058-0.024,0.087-0.037c-0.212,0.589-0.382,1.194-0.49,1.822
				c-0.609,0.169-1.227,0.311-1.854,0.519c-1.213,0.401-2.334,1.045-3.55,1.438c-0.252,0.081-0.6,0.196-0.936,0.292
				c0.229-0.293,0.456-0.592,0.677-0.902c0.101-0.142,0.19-0.283,0.284-0.425C48.322,40.134,48.54,40.031,48.749,39.929z
				 M48.305,36.121c0.149-0.08,0.306-0.15,0.456-0.229c-0.019,0.046-0.04,0.092-0.059,0.139
				C48.568,36.064,48.434,36.097,48.305,36.121z M49.851,36.773c0.147-0.05,0.292-0.101,0.429-0.147
				c0.868-0.288,1.698-0.54,2.595-0.723c0.611-0.124,1.354-0.366,2.112-0.581c-0.087,0.15-0.165,0.303-0.246,0.455
				c-1.677,0.701-3.368,1.36-5.163,1.8c-0.016,0.004-0.031,0.009-0.048,0.013C49.645,37.318,49.752,37.046,49.851,36.773z
				 M49.287,32.195c0.208-0.128,0.449-0.26,0.702-0.394c-0.018,0.088-0.033,0.183-0.052,0.269
				C49.72,32.112,49.502,32.148,49.287,32.195z M71.048,9.377c0.285,0.005,0.57,0.016,0.854,0.019
				c0.002,0.001,0.01,0.004,0.012,0.005c0.168,0.07,0.345,0.159,0.518,0.239c-0.184,0.065-0.366,0.121-0.549,0.184
				c-0.416-0.04-0.833-0.063-1.249-0.069c-0.133-0.046-0.254-0.098-0.368-0.153c0.218-0.063,0.431-0.131,0.652-0.189
				C70.961,9.402,71.005,9.389,71.048,9.377z M70.997,7.503c0.387-0.046,0.777-0.095,1.156-0.173c0.022,0.008,0.04,0.026,0.064,0.03
				c0.323,0.063,0.643,0.134,0.961,0.21c-0.437,0.111-0.855,0.222-1.211,0.314C71.64,7.739,71.316,7.609,70.997,7.503z
				 M71.71,11.958c0.373-0.008,0.562-0.295,0.568-0.583c0.32,0.049,0.645,0.083,0.973,0.108c0.169,0.113,0.384,0.186,0.627,0.224
				c-0.221,0.166-0.392,0.381-0.497,0.676c-0.283,0.338-0.568,0.675-0.865,1.011c-0.01,0.012-0.013,0.025-0.021,0.037
				c-0.485,0.123-0.97,0.249-1.457,0.367c0.292-0.256,0.613-0.479,0.977-0.647c0.298-0.138,0.147-0.624-0.166-0.611
				c-1.425,0.059-2.494,0.774-3.346,1.849c-1.897,0.426-3.799,0.827-5.705,1.205c0.696-0.223,1.372-0.444,2.057-0.814
				c1.318-0.714,3.201-1.306,4.108-2.553C70.005,12.12,70.991,11.974,71.71,11.958z M67.322,12.541
				c-1.051,0.651-2.381,1.284-3.509,1.77c-1.011,0.435-2.652,1.063-3.978,1.374c0.676-0.664,1.37-1.316,2.078-1.961
				c0.643-0.059,1.283-0.145,1.916-0.277c0.663-0.138,1.284-0.337,1.925-0.545c0.188-0.061,1.153-0.442,1.616-0.569
				c0.079-0.002,0.157-0.002,0.237-0.006C67.586,12.363,67.503,12.429,67.322,12.541z M60.565,16.965
				c0.203-0.029,0.398-0.073,0.598-0.107c0.331-0.007,0.665-0.012,0.995-0.022c-0.338,0.119-0.675,0.241-1.014,0.355
				c-1.158,0.388-2.493,0.66-3.727,1.057c0.261-0.3,0.527-0.597,0.798-0.89C58.993,17.211,59.774,17.076,60.565,16.965z
				 M59.227,19.03c1.001-0.346,1.977-0.774,2.98-1.124c1.486-0.517,2.954-1.077,4.452-1.548c0.248-0.053,0.495-0.116,0.742-0.18
				c-0.199,0.404-0.384,0.825-0.559,1.259c-1.555-0.068-3.39,0.598-4.814,0.972c-1.121,0.295-3.287,1.305-4.769,1.133
				C57.911,19.362,58.589,19.251,59.227,19.03z M65.627,18.506c-1.821,1.056-4.059,1.248-5.993,2.109
				c-0.288,0.128-0.563,0.258-0.835,0.386c-0.101,0.021-0.203,0.038-0.305,0.059c-1.288,0.266-2.565,0.581-3.841,0.9
				c0.376-0.606,0.772-1.195,1.194-1.765C58.33,21.887,62.548,19.078,65.627,18.506z M66.133,19.38
				c-0.034,0.099-0.067,0.199-0.1,0.299c-0.278,0.053-0.555,0.107-0.832,0.158C65.519,19.7,65.832,19.553,66.133,19.38z
				 M57.461,22.944c1.198-0.43,2.252-1.147,3.43-1.636c1.637-0.306,3.275-0.599,4.908-0.924c-0.13,0.397-0.258,0.79-0.387,1.175
				c-0.117-0.107-0.277-0.166-0.467-0.112c-0.702,0.199-1.4,0.462-2.094,0.754c-1.389,0.299-2.842,0.317-4.246,0.632
				c-0.93,0.209-3.099,1.265-4.416,1.124C55.239,23.468,56.282,23.367,57.461,22.944z M65.069,22.554
				c-0.075,0.208-0.151,0.411-0.228,0.61c-0.992,0.187-1.952,0.356-2.761,0.565c-0.05,0.013-0.1,0.028-0.151,0.041
				c0.349-0.167,0.699-0.329,1.048-0.482C63.699,23.119,64.401,22.892,65.069,22.554z M57.589,24.317
				c0.501-0.155,1.015-0.264,1.533-0.361c-0.342,0.165-0.684,0.328-1.023,0.482c-1.49,0.677-2.904,1.024-4.267,1.608
				c-0.334,0.102-0.671,0.193-1.005,0.297c-0.115,0.036-0.229,0.076-0.344,0.113c0.196-0.56,0.41-1.104,0.644-1.633
				C54.403,25.504,56.384,24.689,57.589,24.317z M56.949,27.158c0.14-0.04,0.282-0.069,0.422-0.102
				c-1.935,0.917-3.881,1.813-5.807,2.746c0.107-0.476,0.221-0.957,0.348-1.444C53.738,28.596,55.229,27.643,56.949,27.158z
				 M53.593,30.141c2.961-1.45,5.987-2.783,8.907-4.315c0.667-0.362,0.075-1.369-0.594-1.016c-1.249,0.674-2.608,0.713-3.956,0.914
				c0.101-0.042,0.201-0.091,0.302-0.136c2.087-0.6,4.186-1.17,6.292-1.698c-0.339,0.775-0.709,1.441-1.145,1.925
				c-1.134,1.262-2.445,2.519-3.74,3.822c-0.264,0.085-0.528,0.17-0.792,0.256c-1.337-0.033-2.566,0.719-3.823,1.119
				c-1.27,0.405-2.595,0.612-3.914,0.836c0.046-0.224,0.092-0.449,0.139-0.676C52.316,30.689,53.319,30.275,53.593,30.141z
				 M51.181,33.258c0.472-0.162,0.944-0.326,1.415-0.489c-0.615,0.265-1.227,0.535-1.837,0.811c0.015-0.067,0.029-0.134,0.044-0.201
				C50.929,33.337,51.057,33.301,51.181,33.258z M57.667,31.735c-0.638,0.714-1.24,1.45-1.785,2.214
				c-1.121,0.22-2.245,0.636-3.313,0.844c-0.556,0.108-1.415,0.447-2.321,0.765c0.047-0.159,0.094-0.319,0.138-0.48
				C52.786,33.917,55.252,32.866,57.667,31.735z M51.526,60.272c0.073,0.301,0.157,0.595,0.258,0.88
				c-1.263,0.401-2.611,1.022-3.876,1.346C48.647,61.472,50.092,60.875,51.526,60.272z M51.386,56.806
				c-0.373,0.255-0.744,0.511-1.11,0.774c-0.706,0.256-1.793,1.197-2.726,1.535c1.153-1.08,2.535-1.868,3.9-2.688
				C51.424,56.552,51.407,56.68,51.386,56.806z M49.585,54.856c-0.652,0.242-2.432,1.149-3.861,1.647
				c1.273-0.975,2.898-1.817,4.045-2.628c1.302-0.922,2.599-1.837,3.976-2.632c-0.112,0.238-0.225,0.475-0.364,0.727
				c-0.315,0.574-0.604,1.111-0.869,1.636C51.541,54.031,50.583,54.486,49.585,54.856z M49.315,51.787
				c-0.356,0.146-2.698,1.187-4.144,1.579c1.784-1.221,3.555-2.462,5.316-3.714c1.251-0.889,3.03-1.485,3.867-2.806
				c0.044-0.069,0.062-0.143,0.071-0.218c0.024-0.012,0.048-0.024,0.072-0.036c0.136,1.021,0.115,1.937-0.112,2.887
				c-0.023,0.008-0.044,0.007-0.067,0.018C52.695,50.347,51.009,51.093,49.315,51.787z M52.634,43.569
				c-2.069,0.112-4.197,1.247-6.297,1.82c0.121-0.058,0.232-0.114,0.321-0.17c1.174-0.733,2.262-1.59,3.469-2.272
				c0.168-0.067,0.336-0.137,0.504-0.203c0.917-0.358,1.84-0.699,2.762-1.042c0.138,1.043,0.492,2.002,0.751,3.07
				c0.086,0.355,0.161,0.692,0.223,1.016c-0.144,0.056-0.289,0.112-0.433,0.168c-0.081-0.014-0.165-0.016-0.252,0.015
				c-0.928,0.324-1.824,0.726-2.715,1.14c-1.368,0.536-2.735,1.078-4.097,1.64c-0.866,0.357-1.7,0.767-2.524,1.193
				c-0.107,0.03-0.212,0.072-0.321,0.098c1.118-0.901,2.725-1.4,3.837-2.184c1.678-1.182,3.596-2,5.203-3.247
				C53.485,44.285,53.13,43.542,52.634,43.569z M50.391,41.552c-0.868,0.435-1.727,0.886-2.54,1.42
				c-0.941,0.388-1.874,0.796-2.799,1.222c0.321-0.429,0.659-0.852,1.005-1.278c0.27-0.012,0.541-0.041,0.781-0.081
				C48.095,42.625,49.236,42.067,50.391,41.552z M48.362,45.958c-0.9,0.618-1.727,1.281-2.71,1.784
				c-0.979,0.501-1.964,0.904-2.739,1.583c0.065-0.892,0.266-1.684,0.557-2.416c0.007,0.001,0.013,0.004,0.02,0.005
				C45.125,47.126,46.745,46.56,48.362,45.958z M43.466,51.421c1.43-0.158,2.827-0.65,4.199-1.286
				c-1.444,1.004-2.887,2.01-4.351,2.985c-0.123-0.486-0.222-0.974-0.293-1.463C43.169,51.577,43.318,51.499,43.466,51.421z
				 M45.198,54.597c-0.404,0.218-0.806,0.441-1.21,0.662c-0.083-0.228-0.166-0.455-0.244-0.684
				C44.173,54.701,44.673,54.697,45.198,54.597z M47.813,60.634c0.294-0.225,0.592-0.44,0.887-0.662
				c0.122-0.073,0.244-0.148,0.37-0.225c0.648-0.396,1.414-0.758,2.218-1.081c0.007,0.126,0.026,0.261,0.038,0.392
				c-0.894,0.472-1.757,0.876-2.19,1.134c-0.765,0.456-1.625,0.952-2.224,1.635c-0.047-0.11-0.095-0.22-0.144-0.33
				C47.123,61.19,47.472,60.894,47.813,60.634z M52.068,62.399c-0.414,0.708-1.482,1.604-2.553,2.436
				c-0.414,0.297-0.833,0.587-1.26,0.863c-0.169-0.62-0.36-1.235-0.568-1.845C49.179,63.556,50.593,62.857,52.068,62.399z
				 M56.927,71.374c0.139,0.3,0.267,0.518,0.369,0.584c0.088,0.057,0.177,0.114,0.265,0.17c0.054,0.035,0.111,0.06,0.168,0.076
				c-0.06-0.018-0.121-0.028-0.181-0.047c-0.349-0.105-0.705-0.177-1.058-0.264C56.634,71.719,56.782,71.547,56.927,71.374z
				 M76.662,11.394c0.026-0.026,0.034-0.061,0.053-0.091c0.032,0.182,0.064,0.366,0.095,0.544c0.021,0.118,0.046,0.208,0.069,0.309
				c-0.343,0.075-0.687,0.145-1.033,0.194C74.143,12.591,76.063,11.999,76.662,11.394z M81.32,11.781
				c0.31,0.188,0.661,0.25,1.056,0.159c-0.126,0.195-0.256,0.385-0.397,0.557c-0.099,0.12-0.125,0.271-0.109,0.415
				c-0.364,0.069-0.731,0.2-1.106,0.355c-0.246,0.102-0.483,0.201-0.719,0.3c0.464-0.428,0.879-0.878,1.199-1.344
				C81.352,12.067,81.362,11.916,81.32,11.781z M81.365,9.729c0.323,0.033,0.65,0.06,0.985,0.072
				c0.016,0.001,0.026-0.006,0.041-0.007c-0.011,0.065-0.025,0.12-0.049,0.146C81.96,10.367,81.632,10.155,81.365,9.729z
				 M81.456,17.227c-0.208,0.238-0.439,0.455-0.678,0.666c-0.458,0.228-0.85,0.523-1.103,0.914c-0.502,0.411-0.98,0.844-1.36,1.36
				c-0.51-0.528-0.975-1.081-1.299-1.742c0.073,0.011,0.152,0.013,0.235-0.001c0.892-0.145,1.612-0.582,2.426-0.95
				c0.281-0.127,1.66-0.851,2.047-0.821C82.321,16.7,81.932,16.682,81.456,17.227z M80.56,11.332
				c-0.543,0.077-1.08,0.198-1.615,0.328c-0.008-0.723-0.053-1.453-0.052-2.173c0.299,0.014,0.598,0.035,0.898,0.067
				c0.291,0.686,0.627,1.339,1.037,1.799C80.74,11.331,80.649,11.319,80.56,11.332z M79.706,54.769
				c-0.879,0.617-1.683,1.298-2.5,1.993c-0.611,0.521-1.312,0.978-1.964,1.478c-0.058-0.634-0.039-1.279,0.072-1.942
				c3.21-1.682,6.333-4.107,9.706-5.459C83.498,52.417,81.497,53.511,79.706,54.769z M82.201,55.761
				c-1.668,1.414-3.528,2.502-5.302,3.853c-0.369,0.281-0.779,0.57-1.201,0.868c-0.036-0.125-0.07-0.25-0.104-0.376
				C77.929,59.071,79.838,56.703,82.201,55.761z M76.294,53.607c0.816-1.455,1.78-2.762,2.67-4.133
				c3.066-1.371,5.734-4.235,9.011-4.85c-0.545,0.773-1.81,1.33-2.453,1.807c-1.798,1.333-3.524,2.79-5.295,4.158
				C78.92,51.598,77.665,52.685,76.294,53.607z M75.613,72.786c0.147,0.108,0.328,0.162,0.516,0.087
				c0.359-0.145,0.705-0.307,1.043-0.481c-0.339,0.336-0.635,0.708-0.905,1.1c-0.136-0.002-0.268-0.015-0.405-0.014
				c-0.26,0.001-0.516,0.006-0.775,0.009C75.254,73.249,75.432,73.017,75.613,72.786z M78.957,62.938
				c-0.621,0.43-1.314,0.878-2.031,1.313c-0.005-0.015-0.009-0.031-0.014-0.046c0.579-0.42,1.156-0.84,1.692-1.29
				c1.594-1.336,3.181-2.672,4.815-3.955c-0.144,0.464-0.269,0.947-0.357,1.465c-0.01,0.059-0.013,0.134-0.021,0.198
				C81.488,61.027,80.319,61.995,78.957,62.938z M81.76,62.487c-1.354,1.299-2.97,2.348-4.416,3.528
				c-0.029-0.189-0.064-0.37-0.102-0.546c0.103-0.057,0.209-0.118,0.31-0.173C78.928,64.55,80.288,63.292,81.76,62.487z
				 M77.083,70.99c0.722-0.946,2.082-1.713,2.792-2.305c1.252-1.044,2.201-2.185,2.914-3.654c0.298-0.613-0.292-1.14-0.885-0.885
				c-0.116,0.05-0.228,0.111-0.341,0.172c0.512-0.418,1.009-0.85,1.474-1.317c0.063,1.081,0.172,2.329,0.265,3.619
				C81.135,67.939,79.295,69.762,77.083,70.99z M76.143,61.874c-0.001-0.003-0.002-0.006-0.003-0.009
				c1.007-0.823,1.995-1.645,3.095-2.36c1.959-1.273,3.759-2.575,5.331-4.319c0.344-0.381,0.119-1.047-0.431-1.042
				c-0.597,0.006-1.153,0.115-1.686,0.285c1.837-1.248,3.631-2.568,4.802-4.497c0.275-0.454-0.179-1.013-0.678-0.881
				c-1.773,0.468-3.456,1.271-5.101,2.192c0.865-0.676,1.73-1.351,2.587-2.038c1.29-1.034,2.646-1.977,3.938-3
				c0.796-0.63,1.472-1.257,1.476-2.31c0.001-0.318-0.283-0.636-0.616-0.616c-3.334,0.199-5.901,2.599-8.734,4.228
				c0.153-0.296,0.301-0.597,0.438-0.908c0.12-0.272,0.21-0.534,0.317-0.803c1.103-0.834,2.254-1.561,2.935-2.065
				c1.949-1.439,3.92-2.85,5.881-4.272c1.202,3.296,1.822,5.977,0.044,9.503c-1.559,3.094-3.94,5.117-5.447,7.926
				c-0.091,0.002-0.187,0.018-0.289,0.064C81.225,58.198,78.781,60.286,76.143,61.874z M86.992,19.851
				c-0.206-0.052-0.392-0.072-0.571-0.08c0.636-0.654,1.084-1.338,1.083-2.025c1.321,1.576,2.13,3.339,2.118,5.905
				c-0.011,2.384-0.517,4.567-0.885,6.847c-0.824,0.442-1.69,0.82-2.519,1.251c-0.734,0.381-1.984,1.489-2.785,1.583
				c-1.704,0.2-0.301-0.628,0.169-1.052c1.721-1.553,4.251-3.112,4.835-5.486c0.088-0.359-0.206-0.818-0.59-0.806
				c0.561-0.589,1.052-1.247,1.413-2.035c0.177-0.387-0.023-0.947-0.526-0.917c-1.35,0.08-2.183,0.734-3.225,1.541
				c-0.639,0.495-1.137,0.793-1.796,1.19c-0.299,0.18-1.634,1.442-1.656,0.509c-0.015-0.629,2.325-1.856,2.926-2.336
				c1.138-0.909,2.173-1.877,2.422-3.362C87.457,20.269,87.327,19.935,86.992,19.851z M86.044,35.28
				c-0.755,0.497-1.503,0.867-2.295,1.231c0.721-0.635,1.444-1.267,2.208-1.853c0.84-0.645,1.678-1.286,2.502-1.944
				c-0.036,0.517-0.04,1.019-0.016,1.512C87.582,34.308,86.868,34.737,86.044,35.28z M87.953,35.624
				c-1.33,1.502-3.409,2.243-4.976,3.507c-0.168,0.136-0.349,0.272-0.533,0.408c0.029-0.294,0.046-0.592,0.065-0.888
				c0.69-0.353,1.364-0.754,2.028-1.048C85.564,37.148,86.774,36.021,87.953,35.624z M82.548,35.879
				c-0.01-0.32-0.031-0.648-0.051-0.974c0.708-0.105,1.36-0.359,1.999-0.697C83.826,34.742,83.188,35.312,82.548,35.879z
				 M82.199,31.625c-0.02-0.168-0.038-0.34-0.057-0.511c1.569-0.83,2.783-2.034,4.215-2.99
				C85.259,29.449,83.471,30.417,82.199,31.625z M85.4,38.998c1.245-0.777,2.444-1.395,3.386-2.371
				c0.107,0.453,0.231,0.907,0.382,1.369c-2.434,0.595-4.602,2.116-6.85,3.391C83.316,40.547,84.28,39.697,85.4,38.998z
				 M87.289,24.766c-1.456,1.809-3.66,2.964-5.333,4.621c-0.042-0.391-0.087-0.783-0.135-1.177
				C83.649,28.021,85.537,25.794,87.289,24.766z M84.01,41.919c0.315-0.173,0.64-0.366,0.968-0.563
				c-1.16,0.836-2.309,1.684-3.432,2.564c0.084-0.271,0.175-0.543,0.247-0.812C82.536,42.733,83.267,42.327,84.01,41.919z
				 M86.429,17.784c0.369,1.097-4.238,3.844-4.85,4.633c-0.291,0.375-0.138,0.992,0.41,0.99c1.64-0.006,2.646-2.192,4.056-2.44
				c-0.804,1.834-3.3,2.759-4.74,4.206c-0.151-0.64-0.33-1.266-0.558-1.861c-0.353-0.922-0.95-1.621-1.583-2.276
				c0.498-0.296,0.932-0.638,1.376-1.035c0.247-0.221,0.552-0.551,0.877-0.896c0.617-0.286,1.353-0.622,2.075-0.913l0.261-0.007
				c0.147-0.004,0.262-0.095,0.329-0.22C85.259,17.533,86.27,17.312,86.429,17.784z M83.668,8.466
				c0.145,0.29,0.304,0.558,0.485,0.778c-0.163,0.163-0.318,0.337-0.459,0.53C83.716,9.358,83.701,8.914,83.668,8.466z M78.968,4.41
				c0.249-0.046,0.5-0.36,0.471-0.619c-0.015-0.131-0.045-0.25-0.073-0.372c1.852,0.02,3.699,0.116,5.523,0.272
				c-0.02,0.038-0.053,0.064-0.064,0.108c-0.329,1.231,0.329,2.248,0.399,3.452c0.094,1.621-0.56,0.287-0.845-0.518
				c-0.254-0.719-0.438-1.341-0.897-1.957c-0.303-0.407-1.01-0.422-1.153,0.151c-0.2,0.804-0.196,1.559-0.155,2.386
				c0.011,0.227,0.134,0.98,0.197,1.627c-0.008-0.001-0.014-0.005-0.022-0.006c-0.504-0.034-0.964-0.089-1.41-0.149
				c-0.156-0.448-0.267-0.869-0.325-1.023c-0.225-0.596-0.484-1.065-0.842-1.524c0.168-0.324,0.065-0.815-0.36-0.937
				c-0.674-0.193-1.316-0.454-1.949-0.736C77.963,4.542,78.464,4.501,78.968,4.41z M78.197,6.425
				c-0.132,0.328-0.234,0.657-0.3,0.986c-0.003-0.002-0.005-0.004-0.008-0.005c-0.413-0.376-0.913-0.79-1.435-1.12
				C77.081,6.319,77.693,6.374,78.197,6.425z M67.178,4.615c2.19-0.504,4.45-0.835,6.742-1.018c-0.106,0.283-0.05,0.633,0.251,0.779
				c0.432,0.209,0.86,0.423,1.289,0.635c-1.685,0.013-3.298,0.338-3.672,1.594c-0.036,0.122-0.016,0.256,0.032,0.38
				c-0.564,0.098-1.16,0.15-1.748,0.186c0.081-0.156,0.158-0.315,0.205-0.501c0.083-0.328-0.236-0.738-0.598-0.598
				c-0.561,0.218-1.494,0.831-2.416,1.352c-0.279,0.041-0.558,0.082-0.836,0.126c0.527-0.694,0.97-1.381,0.959-2.505
				C67.384,4.873,67.3,4.721,67.178,4.615z M64.773,7.825c-0.709,0.123-1.418,0.245-2.127,0.368c0.394-0.207,0.785-0.42,1.155-0.674
				c0.796-0.549,1.44-1.134,2.252-1.552C65.775,6.677,65.215,7.197,64.773,7.825z M62.84,6.141c0.071-0.115,0.121-0.208,0.177-0.307
				c0.142-0.051,0.278-0.105,0.422-0.155c0.604-0.209,1.219-0.398,1.839-0.575c-0.561,0.326-1.08,0.711-1.638,1.134
				c-0.466,0.353-0.966,0.64-1.469,0.916C62.404,6.817,62.631,6.48,62.84,6.141z M58.195,7.859c0.746-0.124,1.356-0.436,1.921-0.887
				c0.386-0.167,0.781-0.328,1.178-0.487c-0.556,0.801-1.23,1.715-1.574,2.183c-1.575,0.234-3.12,0.548-4.659,0.913
				C56.065,8.969,57.108,8.395,58.195,7.859z M54.064,10.211c1.722-0.472,3.576-0.73,5.354-0.959c0,0.432,0.602,0.768,0.971,0.403
				c0.245-0.242,0.511-0.449,0.79-0.634c0.642-0.089,1.264-0.182,1.851-0.292c0.454-0.085,0.907-0.153,1.36-0.233
				c-0.002,0.005-0.006,0.009-0.009,0.015c-0.178,0.414,0.031,0.819,0.494,0.861c0.179,0.016,0.362-0.002,0.546-0.026
				c-0.346,0.301-0.656,0.636-0.893,1.026c-0.106,0.018-0.211,0.032-0.316,0.05c-0.292,0.049-0.409,0.316-0.395,0.578
				c-0.299,0.224-0.599,0.454-0.899,0.689c-1.692,0.363-3.303,1.032-5.042,1.312c-2.667,0.43-5.3,1.046-7.96,1.515
				c-0.499,0.088-1.038,0.155-1.578,0.242C50.112,13.06,52.007,11.551,54.064,10.211z M36.177,35.397
				c0.962-4.777,2.577-8.528,5.327-12.501c1.813-2.621,3.697-4.962,5.727-7.047c1.362-0.429,2.781-0.61,4.216-0.889
				c2.619-0.509,5.247-0.966,7.867-1.46c0.081-0.015,0.157-0.039,0.237-0.057c0.018,0.213,0.16,0.408,0.439,0.397
				c0.12-0.005,0.241-0.012,0.361-0.017c-1.006,0.891-1.988,1.831-2.917,2.814c-2.556,0.501-5.05,1.284-7.589,1.856
				c-1.374,0.31-2.846,0.327-3.683,1.591c-0.163,0.246,0.051,0.6,0.339,0.59c0.452,0.003,0.901-0.03,1.347-0.1
				c0.262-0.03,0.27-0.394,0-0.414c-0.43-0.032,0.614-0.578,0.584-0.563c0.311-0.157,0.804-0.14,1.145-0.213
				c1.026-0.22,2.037-0.517,3.055-0.773c1.278-0.322,2.547-0.628,3.823-0.903c-1.292,1.475-2.434,3.03-3.34,4.63
				c-0.936,0.231-1.874,0.458-2.817,0.659c-1.439,0.306-2.792,0.501-3.621,1.822c-0.147,0.234,0.011,0.482,0.233,0.572
				c0.84,0.34,0.588,0.294,1.484,0.141c0.167-0.028,0.161-0.299,0-0.331c0.036-0.783,0.391-1.186,1.063-1.21
				c0.35-0.077,0.701-0.153,1.052-0.227c0.708-0.158,1.411-0.337,2.117-0.508c-0.098,0.196-0.201,0.391-0.292,0.587
				c-0.453,0.99-0.854,2.013-1.195,3.051c-2.368,0.793-4.711,1.662-7.087,2.434c-1.791,0.583-3.907,0.946-4.768,2.814
				c-0.093,0.203,0.022,0.384,0.236,0.411c0.109,0.014,0.218,0.028,0.328,0.042c0.279,0.036,0.28-0.365,0.061-0.453
				c0.108,0.043,2.065-1.244,2.119-1.265c0.462-0.181,0.952-0.301,1.425-0.451c1.527-0.482,3.043-0.992,4.55-1.534
				c0.941-0.339,1.887-0.655,2.832-0.978c-0.234,0.823-0.437,1.652-0.577,2.484c-1.374,0.635-3.152,1.601-2.924,2.92
				c0.018,0.104,0.086,0.19,0.169,0.263c-2.031,0.615-4.027,1.241-5.996,2.084c-1.373,0.587-3.093,1.041-3.851,2.431
				c-0.109,0.2-0.024,0.521,0.23,0.566c0.542,0.096,0.5,0.107,1.032-0.045c0.285-0.081,0.226-0.507-0.07-0.514
				c-0.564-0.013,0.099-0.239,0.458-0.478c0.473-0.315,1.025-0.527,1.543-0.753c0.971-0.423,1.943-0.881,2.928-1.265
				c1.865-0.725,3.81-1.235,5.728-1.817c-0.043,0.148-0.093,0.288-0.139,0.432c-1.129,0.544-2.236,1.127-3.305,1.782
				c-0.389,0.239-0.39,0.802,0,1.04c0.611,0.374,1.332,0.379,2.054,0.241c-0.148,0.29-0.292,0.582-0.457,0.868
				c-2.326,0.812-4.42,1.943-6.729,2.994c-2.319,1.056-5.527,1.393-6.818,3.846c-0.181,0.343,0.249,0.684,0.537,0.415
				c0.128-0.119,0.256-0.239,0.384-0.358c0.005-0.004,0.003-0.009,0.007-0.014c2.018-1.931,5.478-2.55,7.944-3.803
				c1.101-0.559,2.183-1.019,3.269-1.428c-0.779,0.437-1.464,0.968-1.702,1.64c-0.162,0.457-0.125,0.771,0.018,0.997
				c-0.828,1.002-1.463,1.965-1.936,2.918c-0.574,0.294-1.144,0.595-1.708,0.907c-1.815,1.005-4.082,1.727-5.344,3.442
				c-0.225,0.305,0.235,0.573,0.485,0.374c1.78-1.423,3.999-2.437,6.042-3.494c-0.546,1.556-0.67,3.123-0.476,4.824
				c-0.791,0.444-1.582,0.888-2.387,1.316c-1.515,0.806-2.972,1.213-3.537,2.958c-0.068,0.209,0.116,0.457,0.338,0.444
				c0.101-0.006,0.201-0.012,0.302-0.017c0.253-0.014,0.333-0.325,0.126-0.466c-0.168-0.115,3.782-2.431,5.291-3.305
				c0.196,1.127,0.516,2.324,0.933,3.619c-0.503,0.277-1.008,0.551-1.511,0.828c-2.062,1.134-3.764,1.887-5.092,3.927
				c-0.153,0.235,0.162,0.578,0.401,0.401c0.829-0.615,1.466-1.405,2.318-1.988c1.003-0.686,2.18-1.16,3.244-1.756
				c0.314-0.176,0.631-0.347,0.945-0.522c0.057,0.155,0.114,0.31,0.18,0.472c-0.041,0.234,0.076,0.476,0.265,0.625
				c0.488,1.11,1.093,2.327,1.609,3.53c-1.059,0.792-2.065,1.599-2.874,2.688c-0.126,0.17-0.043,0.501,0.154,0.586
				c0.148,0.064,0.296,0.127,0.444,0.191c0.134,0.057,0.296,0.065,0.405-0.052l0.331-0.358c0.191-0.206-0.047-0.486-0.289-0.374
				c0.761-0.354,1.525-0.937,2.272-1.568c0.287,0.783,0.504,1.538,0.569,2.22c0.079,0.83-0.237,1.559-0.276,2.309
				c-0.57,0.355-1.039,0.782-1.287,1.52c-0.094,0.282,0.151,0.504,0.404,0.53c0.146,0.015,0.292,0.03,0.439,0.046
				c0.337,0.035,0.495-0.521,0.177-0.655c-0.041-0.017,0.158-0.162,0.438-0.348c0.271,0.889,0.763,1.648,1.083,2.508
				c-0.658-0.058-1.316-0.121-1.969-0.202c-2.312-0.285-4.598-0.684-6.891-1.05c0.03-0.504-0.159-1.025-0.633-1.309
				c-0.829-0.496-1.502-1.134-2.051-1.873c-0.302-1.615-0.565-3.089-0.612-3.29c-0.921-3.93-1.247-8.399-1.319-12.431
				C33.478,45.34,35.159,40.455,36.177,35.397z M11.104,105.15c-1.963-3.459-3.777-7.629-5.252-11.762
				c0.342-0.812,0.867-1.572,1.354-2.332c0.559,1.35,1.153,2.706,1.795,4.045c-0.342,1.043-0.521,2.127-0.42,3.265
				c0.024,0.277,0.48,0.395,0.529,0.072c0.112-0.74,0.292-1.431,0.504-2.099c0.734,1.438,1.53,2.841,2.422,4.163
				c-0.098,0.668-0.12,1.326-0.006,1.952c0.057,0.314,0.587,0.319,0.64,0c0.046-0.278,0.108-0.563,0.168-0.849
				c0.541,0.728,1.109,1.43,1.718,2.091c-0.711,1.632-1.238,3.559,0.112,4.48c0.298,0.203,0.681-0.197,0.492-0.492
				c-0.511-0.795-0.282-1.957,0.191-3.153c0.984,0.958,1.98,1.735,2.997,2.407c-0.242,0.712-0.487,1.424-0.726,2.133
				c-0.226,0.668-0.459,1.321-0.009,1.928c0.132,0.178,0.306,0.262,0.528,0.215c0.095-0.02,0.191-0.041,0.286-0.061
				c0.227-0.048,0.276-0.342,0.131-0.496c-0.509-0.541,0.541-2.426,0.775-3.101c0.922,0.549,1.864,1.04,2.833,1.527
				c-0.944,1.683-2.024,3.379-1.628,5.316C16.645,112.055,13.309,109.035,11.104,105.15z M20.946,114.648
				c0.098-0.026,0.185-0.082,0.205-0.197c0.314-1.8,1.077-3.367,1.816-4.968c0.854,0.425,1.729,0.859,2.632,1.342
				c-0.847,1.754-2.063,3.423-1.587,5.428C22.96,115.76,21.937,115.225,20.946,114.648z M27.583,117.743
				c-0.915-0.338-1.815-0.707-2.702-1.099c0.244-0.052,0.374-0.382,0.115-0.526c-0.543-0.3,0.376-2.773,1.275-4.927
				c0.032,0.018,0.064,0.034,0.097,0.053c1.101,0.615,2.203,1.139,3.31,1.619c-0.504,1.346-1.424,2.513-1.853,3.924
				C27.726,117.112,27.647,117.429,27.583,117.743z M32.843,119.39c-1.425-0.369-2.841-0.8-4.238-1.283
				c0.126-0.632,0.275-1.259,0.501-1.871c0.4-1.084,1.098-1.957,1.485-2.989c1.137,0.463,2.28,0.882,3.434,1.269
				c-0.264,0.76-0.525,1.518-0.758,2.274C33.117,117.278,32.715,118.542,32.843,119.39z M38.193,116.794
				c-0.222,1.303-0.69,2.46-0.342,3.674c-1.234-0.217-2.479-0.479-3.725-0.773c-0.015-0.022-0.016-0.046-0.039-0.066
				c-0.785-0.664,0.529-3.628,0.928-4.791c1.106,0.359,2.223,0.709,3.352,1.06C38.303,116.201,38.243,116.501,38.193,116.794z
				 M44.599,121.327c-1.891-0.15-3.879-0.393-5.901-0.722c0.098-1.46,0.36-2.945,0.622-4.408c0.825,0.26,1.655,0.525,2.496,0.81
				c0.055,0.018,0.112,0.03,0.166,0.048c-0.236,1.105-0.349,2.168-0.033,3.361c0.075,0.281,0.353,0.398,0.62,0.352
				c0.124-0.022,0.249-0.044,0.373-0.065c0.316-0.055,0.311-0.486,0.083-0.635c-0.406-0.266-0.298-1.442-0.055-2.729
				c1.139,0.315,2.304,0.542,3.487,0.687c-0.123,1.169-0.145,2.324,0.091,3.426c0.001,0.005,0.006,0.006,0.007,0.011
				C45.896,121.422,45.242,121.377,44.599,121.327z M91.264,97.921c-2.345,5.675-7.494,11.246-11.855,15.415
				c-8.242,7.879-21.201,8.795-32.29,8.158c0.009-0.017,0.027-0.025,0.032-0.044c0.289-1.036,0.501-2.149,0.682-3.278
				c3.341,0.242,6.761-0.086,9.965-0.704c5.134-0.989,11.003-1.735,15.081-5.341c2.534-2.241,4.029-5.46,6.323-7.914
				c1.542-1.649,3.367-3.385,4.547-5.275c1.573-2.519,2.841-5.294,4.307-7.9c1.223-2.175,2.435-6.168,4.166-7.8
				c0.44-0.415-0.123-1.124-0.639-0.828c-2.836,1.628-4.514,6.156-6.104,8.838c-2.664,4.493-5.476,8.427-9.027,12.248
				c-2.192,2.358-3.773,5.431-6.61,7.157c-2.08,1.266-5.125,2.046-7.466,2.721c-4.403,1.269-9.429,1.761-14.155,1.649
				c0.093-1.075,0.165-2.142,0.195-3.157c0.022-0.729-1.11-0.728-1.133,0c-0.032,1.007-0.194,2.056-0.372,3.117
				c-0.645-0.031-1.285-0.07-1.913-0.124c-0.482-0.041-0.955-0.121-1.425-0.216c0.1-0.424,0.177-0.769,0.204-0.977
				c0.225-1.757,0.344-3.532,0.431-5.301c0.023-0.466-0.679-0.455-0.719,0c-0.178,2.042-0.465,4.054-0.897,6.052
				c-0.934-0.243-1.855-0.54-2.781-0.826c0.285-1.231,0.612-2.436,0.541-3.726c-0.035-0.644-1.036-0.651-1.008,0
				c0.047,1.101-0.147,2.285-0.401,3.469c-0.474-0.136-0.949-0.264-1.431-0.367c-0.634-0.136-1.241-0.262-1.836-0.389
				c0.626-2.195,1.159-4.407,1.054-6.713c-0.022-0.49-0.777-0.495-0.766,0c0.052,2.231-0.517,4.386-1.214,6.508
				c-1.234-0.281-2.418-0.598-3.618-1.059c0.771-2.489,2.037-4.77,2.595-7.344c0.107-0.493-0.631-0.704-0.761-0.21
				c-0.66,2.501-1.892,4.77-2.708,7.196c-0.329-0.146-0.661-0.304-0.997-0.478c-0.72-0.373-1.468-0.734-2.223-1.095
				c0.265-0.609,0.474-1.091,0.556-1.319c0.742-2.069,2.598-3.958,2.642-6.2c0.01-0.504-0.764-0.502-0.781,0
				c-0.059,1.709-1.312,2.694-1.996,4.125c-0.467,0.977-0.788,2.022-1.145,3.048c-0.87-0.413-1.745-0.829-2.608-1.259
				c0.112-0.28,0.22-0.561,0.319-0.849c1.028-3.001,2.116-5.968,3.039-9.005c0.085-0.281-0.346-0.396-0.437-0.12
				c-1.082,3.258-2.341,6.436-3.636,9.613c-1.064-0.547-2.094-1.127-3.055-1.759c0.307-0.947,0.629-1.885,1.019-2.817
				c1.241-2.97,2.7-5.839,3.835-8.854c0.21-0.558-0.676-0.791-0.889-0.245c-1.471,3.778-3.525,7.318-4.86,11.15
				c-0.014,0.041-0.028,0.082-0.042,0.122c-1.022-0.756-1.924-1.565-2.739-2.417c0.418-0.795,0.825-1.516,1.052-2.049
				c0.71-1.673,1.41-3.11,2.341-4.662c1.208-2.015,2.016-4.205,3.124-6.27c0.304-0.566-0.55-1.069-0.864-0.505
				c-2.286,4.118-4.378,8.321-6.391,12.565c-0.01,0.021-0.023,0.047-0.034,0.069c-0.727-0.841-1.38-1.72-1.989-2.626
				c0.68-2.125,1.62-4.266,2.603-6.034c0.801-1.44,1.76-2.8,2.455-4.298c0.575-1.241,0.889-2.555,1.642-3.716
				c0.293-0.452-0.401-0.828-0.708-0.414c-0.988,1.331-1.375,3.011-2.165,4.457c-0.909,1.663-2.047,3.189-2.834,4.921
				c-0.528,1.161-1.222,2.515-1.753,3.906c-0.777-1.257-1.494-2.559-2.212-3.886c0.786-1.622,1.766-3.147,2.728-4.802
				c0.773-1.329,1.464-2.566,2.353-3.835c1.055-1.505,1.364-3.325,2.519-4.772c0.316-0.396-0.238-0.963-0.563-0.563
				c-1.092,1.339-1.36,2.876-2.252,4.318c-0.977,1.58-2.051,3.134-3.041,4.721c-0.767,1.231-1.636,2.499-2.342,3.83
				c-0.604-1.117-1.224-2.246-1.895-3.377c0.721-1.436,1.408-2.87,2.281-4.231c0.906-1.414,2.034-2.641,3.013-3.994
				c0.874-1.209,1.492-2.571,2.385-3.77c0.328-0.44-0.411-0.863-0.735-0.43c-1.197,1.598-2.117,3.343-3.355,4.92
				c-1.076,1.371-2.082,2.768-2.95,4.284c-0.422,0.737-0.802,1.495-1.177,2.255c-0.514-0.981-0.924-2.012-1.278-3.068
				c1.093-1.832,2.956-3.599,4.046-5.155c1.478-2.111,3.022-4.161,4.313-6.385c0.178-0.306-0.266-0.548-0.465-0.272
				c-1.771,2.457-3.479,5.061-5.413,7.435c-0.848,1.041-1.979,2.253-2.748,3.55c-0.398-1.285-0.743-2.591-1.124-3.868
				c-0.948-3.176-0.464-5.802-0.365-8.981c0.005-0.151-0.228-0.15-0.234,0c-0.113,2.808-0.763,4.934-0.159,7.722
				c0.444,2.05,0.77,4.25,1.297,6.34c-0.104,0.291-0.188,0.584-0.232,0.879c-0.04,0.273,0.332,0.391,0.422,0.116
				c0.012-0.038,0.035-0.077,0.048-0.115c0.178,0.616,0.372,1.222,0.604,1.803c0.188,0.472,0.383,0.951,0.577,1.429
				c-0.278,0.556-0.562,1.11-0.869,1.653c-0.149,0.264-0.282,0.504-0.399,0.739c-0.67-1.944-1.27-3.87-1.759-5.694
				c-1.635-6.104-1.394-12.714-1.951-19.013c0.014-0.022,0.032-0.039,0.043-0.065c1.538-3.494,9.397-0.32,11.834,0.486
				c4.018,1.33,8.091,2.434,12.317,2.879c4.518,0.476,8.897,0.568,13.379,1.471c3.574,0.72,7.192,1.382,10.835,1.773
				c2.504,0.269,4.427,0.459,6.773,1.483c1.268,0.554,2.196,0.976,3.579,1.235c4.288,0.805,9.098,0.293,13.44,0.263
				c3.931-0.027,7.635,0.523,11.431,1.436c3.547,0.853,6.985,0.507,10.47,1.724C94.295,86.238,93.618,92.238,91.264,97.921z
				 M96.86,90.514c0.015-0.069,0.033-0.145,0.049-0.215c1.258-0.675,2.653-1.203,3.186-1.439c0.187-0.083,0.386-0.161,0.586-0.239
				c-1.366,1.052-2.609,2.094-4.05,2.857C96.706,91.156,96.792,90.832,96.86,90.514z M102.298,90.558
				c-1.617,0.944-3.294,1.644-4.997,2.037c1.361-0.712,2.599-1.656,3.826-2.668c0.993-0.819,2.109-1.43,3.226-2.036
				C103.676,88.819,102.988,89.712,102.298,90.558z M104.229,84.622c1.464-1.296,2.804-2.732,4.031-4.38
				c0.23-0.309,0.001-0.876-0.381-0.936c-1.844-0.291-3.371,1.387-4.871,2.204c-0.08,0.044-0.165,0.088-0.246,0.132
				c1.311-1.178,2.518-2.519,3.813-3.728c1.203-0.783,2.336-1.658,3.462-2.564c0.577-0.464-0.158-1.29-0.757-0.982
				c-1.168,0.602-2.158,1.398-3.086,2.269c-0.188,0.124-0.375,0.248-0.566,0.367c0.77-0.722,1.508-1.482,2.171-2.337
				c1.039-1.34,1.931-2.775,2.996-4.095c0.513-0.635,1.046-1.184,1.174-2.023c0.076-0.499-0.271-0.858-0.775-0.775
				c-0.562,0.092-1.078,0.292-1.566,0.549c1.047-1.145,2.254-2.478,2.39-3.938c0.042-0.448-0.454-0.727-0.837-0.638
				c-1.456,0.339-2.765,1.161-4.01,2.091c1.322-1.583,3.13-3.462,3.315-5.456c0.031-0.335-0.325-0.677-0.654-0.654
				c-1.522,0.11-2.591,0.988-3.77,1.881c-0.379,0.287-0.751,0.534-1.132,0.763c-0.079-0.383-0.177-0.75-0.286-1.109
				c0.264-0.295,0.531-0.587,0.788-0.888c1.258-1.467,2.289-3.113,3.748-4.397c0.028-0.024,0.038-0.054,0.06-0.081
				c1.948,3.654,4.081,7.235,3.767,11.619c-0.409,5.692-3.01,11.664-6.286,16.881c-0.364,0.056-0.73,0.129-1.096,0.216
				C105.223,84.408,104.762,84.465,104.229,84.622z M121.417,47.731c-0.266,4.709-0.987,9.225-1.825,13.855
				c-0.716,3.96-1.397,8.837-3.061,12.481c-2.182,4.779-6.316,10.571-11.283,14.474c0.866-0.875,1.692-1.806,2.477-2.778
				c0.16-0.132,0.324-0.257,0.476-0.401c0.124-0.117,0.173-0.271,0.172-0.427c3.488-4.575,5.988-10.027,6.719-15.533
				c1.331-10.027-8.138-16.629-5.923-26.736c1.983-9.048,2.644-15.5-2.912-23.304c-1.912-2.686-3.384-5.327-6.434-6.886
				C96.232,10.64,91.386,9.71,87.45,9.005c-0.385-0.069-0.703,0.492-0.289,0.685c0.149,0.069,0.291,0.126,0.439,0.193
				c-0.032,0.012-0.066,0.022-0.095,0.037c-0.43,0.226-0.762,0.559-1.024,0.95c-0.152-0.415-0.355-0.808-0.61-1.178
				c0.951-0.454,0.856-1.635,0.598-2.837c0.239,0.47,0.501,0.929,0.857,1.334c0.302,0.344,0.979,0.181,1.064-0.281
				c0.241-1.304-0.717-4.55,1.238-3.48c1.555,0.851,2.418,1.315,4.347,0.893c0.096-0.021,0.168-0.075,0.223-0.142
				c7.845,2.451,15.371,9.118,19.762,15.615C119.317,28.721,121.956,38.178,121.417,47.731z"/>
			<path d="M27.142,79.037c-0.976-0.646-1.79-0.01-2.515,0.607c-0.136,0.116-0.237,0.244-0.319,0.378
				c-0.017,0.02-0.034,0.041-0.051,0.06c-0.108,0.12-0.216,0.241-0.33,0.355c0.045-0.026,0.09-0.053,0.135-0.079
				c-1.119,0.928-1.28,2.908-0.857,4.19c0.528,1.603,2.776,1.638,3.292,0c0.233-0.741,0.23-1.386,0.401-2.044
				c0.17-0.262,0.313-0.537,0.435-0.809c0.094-0.141,0.169-0.293,0.22-0.455c0.16-0.235,0.278-0.719,0.293-0.873
				c0.003-0.03,0.006-0.059,0.009-0.089C27.904,79.767,27.539,79.299,27.142,79.037z"/>
			<path d="M33.92,95.121c-0.081-0.119-0.132-0.181-0.164-0.213c-0.003-0.033-0.006-0.069-0.012-0.112
				c-0.002-0.018-0.024-0.124-0.039-0.191c-0.008-0.099-0.036-0.341-0.036-0.332c-0.095-1.057-0.061-2.288-0.408-3.295
				c-0.488-1.417-2.314-1.357-2.825,0c-0.764,2.028-1.291,6.377,1.474,7.145c0.838,0.233,1.706-0.16,2.158-0.878
				c0.271-0.431,0.349-0.92,0.213-1.412C34.209,95.564,34.072,95.344,33.92,95.121z"/>
			<path d="M46.622,85.459c-0.234-0.825-1.185-1.199-1.926-0.783c-1.067,0.597-1.685,1.676-1.787,3.101
				c-0.025,0.357,0.225,0.718,0.211,1.076c-0.002,0.121,0.229,0.243,0.229,0.364c0,0.001,0,0.001,0,0.002
				c-1,0.189-0.455,0.695-0.462,0.754c-0.049,0.37-0.09,0.68,0.027,1.023c0.386,1.127,1.657,1.452,2.481,0.73
				c1.022-0.555,1.427-1.682,1.448-2.874c0.012-0.691-0.158-1.362-0.196-2.044C46.625,86.418,46.792,86.056,46.622,85.459z"/>
			<path d="M55.593,98.485c0.446,0.154-0.344-0.276-0.369-0.284c-0.155-0.045-0.337-0.044-0.498-0.054
				c-0.109-0.006-0.08,0.006,0.086,0.034c-0.129-0.017-0.257-0.035-0.386-0.052c-0.232,0-0.441,0.059-0.655,0.132
				c-0.682,0.231-1.341,0.796-1.809,1.334c-0.981,1.128-1.739,2.711-1.346,4.228c0.187,0.723,1.005,1.452,1.798,1.369
				c0.064-0.007,0.128-0.013,0.192-0.02c0.842-0.088,1.495-0.511,1.761-1.341c0.137-0.426,0.126-0.846-0.007-1.197
				c0.036-0.114,0.076-0.228,0.118-0.341c0.015-0.013,0.165-0.337,0.189-0.385c0.168-0.329,0.338-0.658,0.545-0.964
				c0.011-0.005,0.279-0.354,0.312-0.403c0.066-0.097,0.124-0.194,0.176-0.293c0.001-0.001,0.002-0.002,0.003-0.003
				C56.433,100.01,56.399,98.764,55.593,98.485z"/>
			<path d="M66.256,87.367c-0.091-1.815-2.695-1.805-2.813,0c-0.045,0.691-0.331,1.336-0.349,2.045
				c-0.018,0.711,0.123,1.369,0.416,2.016c0.576,1.276,1.652,2.121,2.938,2.343c0.475,0.082,1.136-0.042,1.356-0.552
				c0.513-1.189,0.272-2.036-0.49-3.055C66.743,89.398,66.304,88.328,66.256,87.367z"/>
		</g>
	</g>
</g>
<g>
</g>
<g>
</g>
<g>
</g>
<g>
</g>
<g>
</g>
<g>
</g>
<g>
</g>
<g>
</g>
<g>
</g>
<g>
</g>
<g>
</g>
<g>
</g>
<g>
</g>
<g>
</g>
<g>
</g>
</svg>
