<svg xmlns="http://www.w3.org/2000/svg" xmlns:xlink="http://www.w3.org/1999/xlink" viewBox="0 0 250 250">
  <defs>
    <pattern id="freehand_pat_26" data-name="freehand pat 26" width="250" height="250" patternTransform="translate(-185 -229)" patternUnits="userSpaceOnUse" viewBox="0 0 250 250">
      <rect width="250" height="250" style="fill: none"/>
      <path d="M36.76-4.22c-5.68-3.42-11.32-6.91-17-10.25-2.9-1.69-3-2.86.05-4.58,8.33-4.69,16.62-9.47,24.77-14.47,3.6-2.2,6.16-2.37,7.11,2.29,2.25,11,4.72,22,6.31,33.12.84,5.89-.35,6.28-5.85,3.12C46.93,2,41.87-1.14,36.76-4.22Z" style="fill: #fff"/>
      <g>
        <path d="M138.06,164.17c-3.72-8-1.37-12,7.55-12,11.9-.08,23.82,1.06,35.73,1.8,3.6.22,4.63,1.74,2.4,5.16-6.55,10-12.68,20.29-19.36,30.21-5.32,7.9-7.45,7.81-12.49-.48C147.05,180.9,142.13,173,138.06,164.17Z" style="fill: #fff"/>
        <path d="M227,195c10.81,1,12.42,4.49,8.23,11.78-5.59,9.73-12.11,18.93-18.36,28.27-1.9,2.85-4.37,4.65-6.64.28-5.34-10.29-10.82-20.52-15.75-31-3.46-7.37-2.59-9,5.17-9.32C209.56,194.5,219.53,194.28,227,195Z" style="fill: #fff"/>
        <path d="M105.61,119.54c-5.23,7.1-8.63,7.32-13,.4-5.84-9.24-11.11-18.83-16.45-28.37-1.83-3.26-1.55-5.4,3.26-5.32,11,.2,21.91-.23,32.87,0,8.62.15,9.7,1.77,6.06,9.27C114.28,103.83,109.67,111.92,105.61,119.54Z" style="fill: #fff"/>
        <path d="M112.42,196c-10.29.52-20.58,1.58-30.78,3.07-8.08,1.18-9.36,4.09-4.19,10.56,7,8.81,15.06,16.82,22.52,25.3,2.38,2.71,4.06,1.74,5.3-.68l13.87-28.84C122.65,197.07,121.77,195.51,112.42,196Z" style="fill: #fff"/>
        <path d="M52.08,165.45c-5.71-3.56-19-10.73-26.92-13.42a4.61,4.61,0,0,0-6,4.14l-2.12,34c-.12,5.4,2.29,6.55,6.69,4,9.78-5.64,16.27-9.65,25.47-14.87C59.52,173.47,56.06,167.93,52.08,165.45Z" style="fill: #fff"/>
        <path d="M239.72,133.81c-.77-5-3.11-5-6-2.43-8.07,7.27-16.16,14.5-24.07,22-3.24,3.07-2.89,6.51,1.43,8.15,10,3.8,19.9,8.27,30.33,10.63,2.81.63,3-2.59,2.82-5.26C243.42,157,241.06,142.64,239.72,133.81Z" style="fill: #fff"/>
        <path d="M140.18,47.63c.44-9.63.81-17.27,1.12-24.91.1-2.56.29-4.92,3.85-3.4,10.69,4.57,21.42,9,32,13.86,4.06,1.85,5.76,5.57,1.33,8.4-10.62,6.79-21.6,13-32.53,19.31-3.42,2-4.62.07-4.81-3.32C140.91,53.59,140.38,49.62,140.18,47.63Z" style="fill: #fff"/>
        <path d="M154.64,110.89c2.88-7.46,6.51-16.38,9.76-25.43,1.62-4.51,3.08-2.9,5.22-.54q10,11,20.13,21.87c2.73,2.93,3.76,5.52-.82,7.52-10.31,4.5-20.46,9.45-31,13.25-6.72,2.42-8.2.51-6.59-6.62C152,118,153.17,115.26,154.64,110.89Z" style="fill: #fff"/>
        <path d="M173.14,240.39q-1-15.42-2.68-30.78c-.11-1-1.11-3.79-3.79-2.51-10.51,5-20.74,10.63-30.7,16.65-3.74,2.26-3.91,6.23.74,8.59L167,244.94C171.61,246.77,173.39,244.44,173.14,240.39Z" style="fill: #fff"/>
        <path d="M40.72,115.75c-8.88-1.43-16.39-2.46-25.48-4.33-5.46-1.12-6.85-4.55-3.21-8.57,7.35-8.13,11.33-11.77,18.63-19,6.86-6.77,9.77-2.87,11.55,1.44a213.69,213.69,0,0,1,8.61,24.53C52.35,115,48.6,117,40.72,115.75Z" style="fill: #fff"/>
        <path d="M211.72,67.1c7.6,1.21,17.14,2.44,26.55,4.32,6.18,1.23,7.43,4.51,3.32,9-7.38,8-15.27,15.63-23,23.32-2.74,2.72-4.57,1.54-5.72-1.72-3.2-9-6.61-18-9.61-27.09C201.1,68.46,202.61,66.87,211.72,67.1Z" style="fill: #fff"/>
        <path d="M24.41,21.63c5.22,1,13,2.46,20.86,4,5.2,1,6,4.57,2.89,7.95-7.63,8.31-15.76,16.18-23.8,24.11-2.62,2.59-4.23.51-5.1-1.84-2.64-7.16-5.34-14.32-7.54-21.62S14.06,21.43,24.41,21.63Z" style="fill: #fff"/>
        <path d="M36.76,245.78c-5.68-3.42-11.32-6.91-17-10.25-2.9-1.69-3-2.86.05-4.58,8.33-4.69,16.62-9.47,24.77-14.47,3.6-2.2,6.16-2.37,7.11,2.29,2.25,11,4.72,22,6.31,33.12.84,5.89-.35,6.28-5.85,3.12C46.93,252,41.87,248.86,36.76,245.78Z" style="fill: #fff"/>
        <path d="M217.46,2.2c8.26.56,16.51,1.18,24.77,1.67,3.31.2,2.76,1.76,1.68,3.82Q237.45,20,231.1,32.29c-1.45,2.82-3.31,4.64-6,1.66-7.47-8.39-14.91-16.83-22-25.55-2.85-3.52-1.74-6.13,3.32-6,3.65.09,7.3,0,11,0Z" style="fill: #fff"/>
        <path d="M99.74,150.2c-8.21-2-24.46-6.73-32.69-8.68-5.71-1.35-7.45.19-5.13,5.41,4.55,10.24,10.1,20,15.4,30,1.71,3.21,3.61,1.64,5.32-.3,6.33-7.16,12.6-14.37,19.06-21.41C104.8,151.79,103,151,99.74,150.2Z" style="fill: #fff"/>
        <path d="M112.22,47.85c-3.58-9.66-7.69-19.16-12.17-28.43-3.55-7.35-6.71-7.7-11.33-.82C82.43,27.95,77.2,38,71.35,47.67c-1.87,3.08-.44,4.4,2.24,4.85l31.67,4.56C114.25,57.93,115.48,56.62,112.22,47.85Z" style="fill: #fff"/>
      </g>
    </pattern>
  </defs>
  <title>ground_tile</title>
  <g id="Layer_2" data-name="Layer 2">
    <g id="Layer_1-2" data-name="Layer 1">
      <rect width="250" height="250" style="fill: #b7a18d"/>
      <g style="opacity: 0.2">
        <rect width="250" height="250" style="fill: url(#freehand_pat_26)"/>
      </g>
    </g>
  </g>
</svg>
