<svg xmlns="http://www.w3.org/2000/svg" viewBox="0 0 48 48">
  <title>shovel</title>
  <g id="Layer_2" data-name="Layer 2">
    <g id="Layer_1-2" data-name="Layer 1">
      <path d="M24,0A24,24,0,1,0,48,24,24,24,0,0,0,24,0Zm0,1A23,23,0,1,1,1,24,23,23,0,0,1,24,1Zm8.11,9a.5.5,0,0,0-.36.15l-1.48,1.48a.51.51,0,0,0-.12.12l-.42.42a4.19,4.19,0,0,0-.85,4.62L21.65,24,24,26.33l7.21-7.21a4.19,4.19,0,0,0,4.62-.85l.43-.43a.48.48,0,0,0,.12-.11l1.48-1.48a.5.5,0,0,0,0-.71l-5.38-5.38A.51.51,0,0,0,32.11,10Zm-1.54,2.76,4.67,4.67-.12.13a3.31,3.31,0,0,1-4.67-4.67ZM15.14,23.87a.49.49,0,0,0-.35.15l-3,3-.33.33c-.88.88-1.32,2.61-1.42,4.43s.17,3.75,1.3,4.88,3.06,1.4,4.88,1.3a7.09,7.09,0,0,0,4.43-1.42l.34-.33,3-3a.5.5,0,0,0,0-.71l-2.44-2.44-1.81,1.81a.5.5,0,0,1-.3.14l-3.93,1a.5.5,0,0,1-.56-.56l1-3.93a.5.5,0,0,1,.14-.3l1.81-1.81L15.51,24A.5.5,0,0,0,15.14,23.87Zm5.8.86-.83.83,2.36,2.3.82-.82Zm-1.55,1.55-2.55,2.55a.61.61,0,0,0-.12.17l-.1.32-.67,2.29a.34.34,0,0,0,.45.45l2.52-.74.07,0a.63.63,0,0,0,.19-.13l2.58-2.58Z" style="fill: #bababa"/>
    </g>
  </g>
</svg>
