<svg xmlns="http://www.w3.org/2000/svg" viewBox="0 0 1001 401">
  <title>horizontal_bed</title>
  <g>
    <rect x="0.5" y="300.5" width="100" height="100" transform="translate(-300 401) rotate(-90)" style="fill: #fff;stroke: #000;stroke-miterlimit: 10"/>
    <rect x="0.5" y="200.5" width="100" height="100" transform="translate(-200 301) rotate(-90)" style="fill: #fff;stroke: #000;stroke-miterlimit: 10"/>
    <rect x="0.5" y="100.5" width="100" height="100" transform="translate(-100 201) rotate(-90)" style="fill: #fff;stroke: #000;stroke-miterlimit: 10"/>
    <rect x="0.5" y="0.5" width="100" height="100" transform="translate(0 101) rotate(-90)" style="fill: #fff;stroke: #000;stroke-miterlimit: 10"/>
    <rect x="100.5" y="300.5" width="100" height="100" transform="translate(-200 501) rotate(-90)" style="fill: #fff;stroke: #000;stroke-miterlimit: 10"/>
    <rect x="100.5" y="200.5" width="100" height="100" transform="translate(-100 401) rotate(-90)" style="fill: #fff;stroke: #000;stroke-miterlimit: 10"/>
    <rect x="100.5" y="100.5" width="100" height="100" transform="translate(0 301) rotate(-90)" style="fill: #fff;stroke: #000;stroke-miterlimit: 10"/>
    <rect x="100.5" y="0.5" width="100" height="100" transform="translate(100 201) rotate(-90)" style="fill: #fff;stroke: #000;stroke-miterlimit: 10"/>
    <rect x="200.5" y="300.5" width="100" height="100" transform="translate(-100 601) rotate(-90)" style="fill: #fff;stroke: #000;stroke-miterlimit: 10"/>
    <rect x="200.5" y="200.5" width="100" height="100" transform="translate(0 501) rotate(-90)" style="fill: #fff;stroke: #000;stroke-miterlimit: 10"/>
    <rect x="200.5" y="100.5" width="100" height="100" transform="translate(100 401) rotate(-90)" style="fill: #fff;stroke: #000;stroke-miterlimit: 10"/>
    <rect x="200.5" y="0.5" width="100" height="100" transform="translate(200 301) rotate(-90)" style="fill: #fff;stroke: #000;stroke-miterlimit: 10"/>
    <rect x="300.5" y="300.5" width="100" height="100" transform="translate(0 701) rotate(-90)" style="fill: #fff;stroke: #000;stroke-miterlimit: 10"/>
    <rect x="300.5" y="200.5" width="100" height="100" transform="translate(100 601) rotate(-90)" style="fill: #fff;stroke: #000;stroke-miterlimit: 10"/>
    <rect x="300.5" y="100.5" width="100" height="100" transform="translate(200 501) rotate(-90)" style="fill: #fff;stroke: #000;stroke-miterlimit: 10"/>
    <rect x="300.5" y="0.5" width="100" height="100" transform="translate(300 401) rotate(-90)" style="fill: #fff;stroke: #000;stroke-miterlimit: 10"/>
    <rect x="400.5" y="300.5" width="100" height="100" transform="translate(100 801) rotate(-90)" style="fill: #fff;stroke: #000;stroke-miterlimit: 10"/>
    <rect x="400.5" y="200.5" width="100" height="100" transform="translate(200 701) rotate(-90)" style="fill: #fff;stroke: #000;stroke-miterlimit: 10"/>
    <rect x="400.5" y="100.5" width="100" height="100" transform="translate(300 601) rotate(-90)" style="fill: #fff;stroke: #000;stroke-miterlimit: 10"/>
    <rect x="400.5" y="0.5" width="100" height="100" transform="translate(400 501) rotate(-90)" style="fill: #fff;stroke: #000;stroke-miterlimit: 10"/>
    <rect x="500.5" y="300.5" width="100" height="100" transform="translate(200 901) rotate(-90)" style="fill: #fff;stroke: #000;stroke-miterlimit: 10"/>
    <rect x="500.5" y="200.5" width="100" height="100" transform="translate(300 801) rotate(-90)" style="fill: #fff;stroke: #000;stroke-miterlimit: 10"/>
    <rect x="500.5" y="100.5" width="100" height="100" transform="translate(400 701) rotate(-90)" style="fill: #fff;stroke: #000;stroke-miterlimit: 10"/>
    <rect x="500.5" y="0.5" width="100" height="100" transform="translate(500 601) rotate(-90)" style="fill: #fff;stroke: #000;stroke-miterlimit: 10"/>
    <rect x="600.5" y="300.5" width="100" height="100" transform="translate(300 1001) rotate(-90)" style="fill: #fff;stroke: #000;stroke-miterlimit: 10"/>
    <rect x="600.5" y="200.5" width="100" height="100" transform="translate(400 901) rotate(-90)" style="fill: #fff;stroke: #000;stroke-miterlimit: 10"/>
    <rect x="600.5" y="100.5" width="100" height="100" transform="translate(500 801) rotate(-90)" style="fill: #fff;stroke: #000;stroke-miterlimit: 10"/>
    <rect x="600.5" y="0.5" width="100" height="100" transform="translate(600 701) rotate(-90)" style="fill: #fff;stroke: #000;stroke-miterlimit: 10"/>
    <rect x="700.5" y="300.5" width="100" height="100" transform="translate(400 1101) rotate(-90)" style="fill: #fff;stroke: #000;stroke-miterlimit: 10"/>
    <rect x="700.5" y="200.5" width="100" height="100" transform="translate(500 1001) rotate(-90)" style="fill: #fff;stroke: #000;stroke-miterlimit: 10"/>
    <rect x="700.5" y="100.5" width="100" height="100" transform="translate(600 901) rotate(-90)" style="fill: #fff;stroke: #000;stroke-miterlimit: 10"/>
    <rect x="700.5" y="0.5" width="100" height="100" transform="translate(700 801) rotate(-90)" style="fill: #fff;stroke: #000;stroke-miterlimit: 10"/>
    <rect x="800.5" y="300.5" width="100" height="100" transform="translate(500 1201) rotate(-90)" style="fill: #fff;stroke: #000;stroke-miterlimit: 10"/>
    <rect x="800.5" y="200.5" width="100" height="100" transform="translate(600 1101) rotate(-90)" style="fill: #fff;stroke: #000;stroke-miterlimit: 10"/>
    <rect x="800.5" y="100.5" width="100" height="100" transform="translate(700 1001) rotate(-90)" style="fill: #fff;stroke: #000;stroke-miterlimit: 10"/>
    <rect x="800.5" y="0.5" width="100" height="100" transform="translate(800 901) rotate(-90)" style="fill: #fff;stroke: #000;stroke-miterlimit: 10"/>
    <rect x="900.5" y="300.5" width="100" height="100" transform="translate(600 1301) rotate(-90)" style="fill: #fff;stroke: #000;stroke-miterlimit: 10"/>
    <rect x="900.5" y="200.5" width="100" height="100" transform="translate(700 1201) rotate(-90)" style="fill: #fff;stroke: #000;stroke-miterlimit: 10"/>
    <rect x="900.5" y="100.5" width="100" height="100" transform="translate(800 1101) rotate(-90)" style="fill: #fff;stroke: #000;stroke-miterlimit: 10"/>
    <rect x="900.5" y="0.5" width="100" height="100" transform="translate(900 1001) rotate(-90)" style="fill: #fff;stroke: #000;stroke-miterlimit: 10"/>
  </g>
</svg>
