<svg xmlns="http://www.w3.org/2000/svg" viewBox="0 0 401 1001">
  <title>vertical_bed</title>
  <g>
    <rect x="0.5" y="0.5" width="100" height="100" style="fill: #fff;stroke: #000;stroke-miterlimit: 10"/>
    <rect x="100.5" y="0.5" width="100" height="100" style="fill: #fff;stroke: #000;stroke-miterlimit: 10"/>
    <rect x="200.5" y="0.5" width="100" height="100" style="fill: #fff;stroke: #000;stroke-miterlimit: 10"/>
    <rect x="300.5" y="0.5" width="100" height="100" style="fill: #fff;stroke: #000;stroke-miterlimit: 10"/>
    <rect x="0.5" y="100.5" width="100" height="100" style="fill: #fff;stroke: #000;stroke-miterlimit: 10"/>
    <rect x="100.5" y="100.5" width="100" height="100" style="fill: #fff;stroke: #000;stroke-miterlimit: 10"/>
    <rect x="200.5" y="100.5" width="100" height="100" style="fill: #fff;stroke: #000;stroke-miterlimit: 10"/>
    <rect x="300.5" y="100.5" width="100" height="100" style="fill: #fff;stroke: #000;stroke-miterlimit: 10"/>
    <rect x="0.5" y="200.5" width="100" height="100" style="fill: #fff;stroke: #000;stroke-miterlimit: 10"/>
    <rect x="100.5" y="200.5" width="100" height="100" style="fill: #fff;stroke: #000;stroke-miterlimit: 10"/>
    <rect x="200.5" y="200.5" width="100" height="100" style="fill: #fff;stroke: #000;stroke-miterlimit: 10"/>
    <rect x="300.5" y="200.5" width="100" height="100" style="fill: #fff;stroke: #000;stroke-miterlimit: 10"/>
    <rect x="0.5" y="300.5" width="100" height="100" style="fill: #fff;stroke: #000;stroke-miterlimit: 10"/>
    <rect x="100.5" y="300.5" width="100" height="100" style="fill: #fff;stroke: #000;stroke-miterlimit: 10"/>
    <rect x="200.5" y="300.5" width="100" height="100" style="fill: #fff;stroke: #000;stroke-miterlimit: 10"/>
    <rect x="300.5" y="300.5" width="100" height="100" style="fill: #fff;stroke: #000;stroke-miterlimit: 10"/>
    <rect x="0.5" y="400.5" width="100" height="100" style="fill: #fff;stroke: #000;stroke-miterlimit: 10"/>
    <rect x="100.5" y="400.5" width="100" height="100" style="fill: #fff;stroke: #000;stroke-miterlimit: 10"/>
    <rect x="200.5" y="400.5" width="100" height="100" style="fill: #fff;stroke: #000;stroke-miterlimit: 10"/>
    <rect x="300.5" y="400.5" width="100" height="100" style="fill: #fff;stroke: #000;stroke-miterlimit: 10"/>
    <rect x="0.5" y="500.5" width="100" height="100" style="fill: #fff;stroke: #000;stroke-miterlimit: 10"/>
    <rect x="100.5" y="500.5" width="100" height="100" style="fill: #fff;stroke: #000;stroke-miterlimit: 10"/>
    <rect x="200.5" y="500.5" width="100" height="100" style="fill: #fff;stroke: #000;stroke-miterlimit: 10"/>
    <rect x="300.5" y="500.5" width="100" height="100" style="fill: #fff;stroke: #000;stroke-miterlimit: 10"/>
    <rect x="0.5" y="600.5" width="100" height="100" style="fill: #fff;stroke: #000;stroke-miterlimit: 10"/>
    <rect x="100.5" y="600.5" width="100" height="100" style="fill: #fff;stroke: #000;stroke-miterlimit: 10"/>
    <rect x="200.5" y="600.5" width="100" height="100" style="fill: #fff;stroke: #000;stroke-miterlimit: 10"/>
    <rect x="300.5" y="600.5" width="100" height="100" style="fill: #fff;stroke: #000;stroke-miterlimit: 10"/>
    <rect x="0.5" y="700.5" width="100" height="100" style="fill: #fff;stroke: #000;stroke-miterlimit: 10"/>
    <rect x="100.5" y="700.5" width="100" height="100" style="fill: #fff;stroke: #000;stroke-miterlimit: 10"/>
    <rect x="200.5" y="700.5" width="100" height="100" style="fill: #fff;stroke: #000;stroke-miterlimit: 10"/>
    <rect x="300.5" y="700.5" width="100" height="100" style="fill: #fff;stroke: #000;stroke-miterlimit: 10"/>
    <rect x="0.5" y="800.5" width="100" height="100" style="fill: #fff;stroke: #000;stroke-miterlimit: 10"/>
    <rect x="100.5" y="800.5" width="100" height="100" style="fill: #fff;stroke: #000;stroke-miterlimit: 10"/>
    <rect x="200.5" y="800.5" width="100" height="100" style="fill: #fff;stroke: #000;stroke-miterlimit: 10"/>
    <rect x="300.5" y="800.5" width="100" height="100" style="fill: #fff;stroke: #000;stroke-miterlimit: 10"/>
    <rect x="0.5" y="900.5" width="100" height="100" style="fill: #fff;stroke: #000;stroke-miterlimit: 10"/>
    <rect x="100.5" y="900.5" width="100" height="100" style="fill: #fff;stroke: #000;stroke-miterlimit: 10"/>
    <rect x="200.5" y="900.5" width="100" height="100" style="fill: #fff;stroke: #000;stroke-miterlimit: 10"/>
    <rect x="300.5" y="900.5" width="100" height="100" style="fill: #fff;stroke: #000;stroke-miterlimit: 10"/>
  </g>
</svg>
